<svg width="60" height="61" viewBox="0 0 60 61" fill="none" xmlns="http://www.w3.org/2000/svg">
<path d="M52.3379 59.9807C52.0791 59.7605 51.8572 59.5075 51.6793 59.2296C49.9496 55.2516 48.8462 51.0745 48.4014 46.8202C48.2508 45.5168 48.3961 44.1994 48.8284 42.9483C49.2607 41.6972 49.9709 40.5387 50.9157 39.5434C53.8794 36.4691 56.0108 32.8155 57.1418 28.8708C57.5265 27.1951 57.816 25.5028 58.0092 23.8004C58.1091 23.1115 58.409 22.7184 59.0156 22.7364C59.6402 22.7518 60.0039 23.1747 59.9689 23.8942C59.6416 29.8097 57.1881 35.468 52.9794 40.0132C51.731 41.2609 50.8539 42.774 50.4301 44.4109C50.2245 45.8275 50.2714 47.2646 50.569 48.6678C51.1094 52.0276 52.0576 55.3236 53.3962 58.4965C53.726 59.2945 53.674 59.4667 52.9625 60.0141C52.7557 59.9869 52.5467 59.9758 52.3379 59.9807Z" fill="#47BBC6"/>
<path d="M21.8123 59.9834C21.6049 59.8169 21.4401 59.6117 21.3293 59.382C21.2185 59.1524 21.1644 58.9037 21.1707 58.6533C21.0579 57.6285 20.8841 56.6099 20.65 55.6019C20.3944 54.5838 19.7647 53.6737 18.8632 53.0195C18.2566 52.5686 18.1866 52.0808 18.5854 51.6579C18.9671 51.2512 19.5397 51.2665 20.1294 51.6894C21.9852 53.0194 22.6437 54.8815 22.9735 56.8851C23.0605 57.464 23.0605 58.0429 23.1474 58.6218C23.2055 58.8681 23.1842 59.1243 23.0859 59.3601C22.9876 59.5958 22.8164 59.8011 22.5928 59.9518C22.3337 59.9779 22.0729 59.9885 21.8123 59.9834Z" fill="#47BBC6"/>
<path d="M5.17855 38.2929C4.31356 38.1805 3.45638 38.0237 2.6112 37.8231C2.02607 37.7018 1.48757 37.4414 1.05157 37.069C0.615567 36.6965 0.297957 36.2256 0.131659 35.7051C-0.0346393 35.1846 -0.0435659 34.6334 0.105827 34.1087C0.25522 33.584 0.557484 33.105 0.981255 32.7212C2.57992 31.0433 3.73101 29.0571 4.34609 26.9151C4.44934 26.6273 4.4811 26.3225 4.43913 26.0223C4.39716 25.7222 4.28248 25.4341 4.10324 25.1784C3.69996 24.6253 3.46065 23.9881 3.40816 23.3278C3.35567 22.6674 3.49177 22.0059 3.80344 21.4065C4.58426 19.8644 5.03165 18.202 5.1216 16.5084C5.46837 12.5021 7.65395 9.32541 10.758 6.58962C14.3076 3.53977 18.7802 1.50851 23.6097 0.752849C28.4908 -0.201124 33.5359 -0.248989 38.4381 0.612177C46.468 2.14509 52.8289 5.8863 56.9962 12.3804C58.3166 14.4927 59.1973 16.8052 59.5945 19.2037C59.7155 19.8926 59.4386 20.3308 58.849 20.4084C58.2424 20.4868 57.8257 20.1892 57.6868 19.485C57.2263 16.7951 56.1258 14.2271 54.4608 11.9575C50.8722 7.1068 45.3284 3.71014 39.0078 2.48954C32.513 1.12613 25.7157 1.53413 19.4784 3.66177C14.5523 5.21616 10.5045 8.46083 8.2136 12.6915C7.24222 14.4598 7.13829 16.4002 6.86047 18.3254C6.72915 19.2862 6.44299 20.2246 6.01102 21.1108C5.65179 21.6558 5.4636 22.2786 5.46659 22.9127C5.46958 23.5468 5.66365 24.1682 6.02801 24.7104C6.26305 25.0882 6.40762 25.5062 6.45237 25.9376C6.49713 26.3689 6.44107 26.8039 6.28784 27.2145C5.57141 29.6583 4.27574 31.9328 2.49028 33.8808C1.59086 34.8511 1.86568 35.806 3.21881 36.1495C4.03364 36.3356 4.86275 36.4664 5.69921 36.5409C5.99245 36.5469 6.27335 36.6485 6.49008 36.8268C6.70682 37.0052 6.84477 37.2482 6.87846 37.5111C7.06136 38.0566 7.08563 38.6353 6.94894 39.1916C6.81225 39.748 6.51919 40.2632 6.09796 40.6878C6.0509 40.7701 6.02635 40.8613 6.02635 40.9538C6.02635 41.0464 6.0509 41.1376 6.09796 41.2198C6.29447 41.4251 6.52226 41.6043 6.77452 41.7519C6.90803 41.8291 7.01815 41.9351 7.09497 42.0603C7.17178 42.1855 7.21289 42.326 7.21458 42.4691C7.21626 42.6122 7.17847 42.7534 7.10462 42.8801C7.03077 43.0067 6.92317 43.1148 6.79151 43.1946C6.1849 43.6644 6.2019 43.8673 6.89145 44.1964C8.64332 45.026 8.99011 46.1522 7.96676 47.7491C7.58398 48.207 7.40547 48.7777 7.46654 49.3485C7.5276 49.9194 7.82379 50.4488 8.29655 50.8321C8.92847 51.4123 9.78855 51.7441 10.69 51.7554C11.8523 51.7554 12.9965 51.6148 14.1588 51.5363C14.3497 51.521 14.5405 51.4462 14.7314 51.4272C14.8499 51.4062 14.9718 51.4065 15.0902 51.4282C15.2085 51.4499 15.3209 51.4926 15.4209 51.5537C15.5209 51.6148 15.6064 51.6932 15.6727 51.7843C15.7389 51.8754 15.7844 51.9775 15.8067 52.0846C15.8459 52.1882 15.8606 52.2982 15.8499 52.4073C15.8391 52.5164 15.8032 52.6223 15.7443 52.7181C15.6855 52.8139 15.6051 52.8975 15.5083 52.9636C15.4114 53.0297 15.3003 53.0767 15.1821 53.1017C13.0615 53.7852 10.743 53.7798 8.62633 53.0864C7.97043 52.8784 7.37494 52.5396 6.88415 52.0953C6.39336 51.651 6.01991 51.1126 5.79154 50.5201C5.56318 49.9276 5.48579 49.2963 5.56514 48.6731C5.64449 48.0498 5.87854 47.4508 6.24987 46.9205C6.78752 46.1693 6.73556 46.1224 5.8861 45.6995C5.29554 45.4641 4.83153 45.0282 4.59455 44.4863C4.35756 43.9444 4.36669 43.34 4.61992 42.8042C4.66697 42.6354 4.64237 42.4569 4.55096 42.3037C4.34602 42.1058 4.1875 41.8726 4.08494 41.6181C3.98238 41.3636 3.93788 41.093 3.95412 40.8226C3.97036 40.5522 4.04701 40.2875 4.17945 40.0444C4.3119 39.8014 4.49741 39.585 4.72485 39.4083C4.93657 39.0589 5.08947 38.683 5.17855 38.2929Z" fill="#47BBC6"/>
<path d="M34.3327 36.5245C34.4904 35.7229 34.6929 34.9289 34.9393 34.1457C34.9627 34.0138 35.0202 33.8887 35.1072 33.7805C35.1942 33.6724 35.3082 33.5843 35.44 33.5233C35.5718 33.4623 35.7177 33.4303 35.8658 33.4297C36.0139 33.4291 36.16 33.46 36.2924 33.52C36.8471 33.7391 36.986 34.2242 36.6922 34.8662C36.4631 35.2831 36.3768 35.7521 36.4446 36.2134C36.5124 36.6746 36.731 37.1072 37.0726 37.4558C37.4141 37.8044 37.8631 38.0532 38.3622 38.1704C38.8613 38.2876 39.3877 38.2679 39.8743 38.1138C40.3609 37.9597 40.7855 37.6782 41.0939 37.3053C41.4023 36.9324 41.5805 36.485 41.6057 36.0202C41.6309 35.5555 41.5019 35.0945 41.2353 34.6962C40.9687 34.2979 40.5766 33.9804 40.109 33.7842C39.9531 33.7219 39.7792 33.694 39.6233 33.6273C39.4902 33.6001 39.365 33.5476 39.256 33.4735C39.147 33.3993 39.0567 33.3051 38.9911 33.1971C38.9255 33.0891 38.8862 32.9697 38.8756 32.8469C38.865 32.7241 38.8835 32.6007 38.9297 32.4848C38.9675 32.3658 39.0344 32.2559 39.1254 32.1632C39.2165 32.0706 39.3294 31.9976 39.4559 31.9496C39.5824 31.9016 39.7192 31.8798 39.8563 31.8858C39.9934 31.8918 40.1272 31.9255 40.2479 31.9843C41.0634 32.3126 41.8259 32.7355 42.7463 33.189C43.0461 32.5632 43.4398 31.8121 43.7347 31.0294C43.7968 30.7954 43.9305 30.5817 44.1206 30.4129C44.3107 30.2441 44.5496 30.1268 44.81 30.0745C45.73 29.874 46.5805 29.4704 47.2849 28.8999C47.9892 28.3294 48.5255 27.6099 48.8453 26.8061C49.1652 26.0023 49.2587 25.1394 49.1174 24.2949C48.9761 23.4505 48.6045 22.6509 48.0359 21.9681C47.858 21.773 47.7578 21.5296 47.7515 21.277C47.7451 21.0244 47.833 20.7772 48.0009 20.575C48.7582 19.529 49.1553 18.3042 49.1419 17.0548C49.1286 15.8055 48.7055 14.5878 47.9259 13.5552C47.1464 12.5226 46.0454 11.7215 44.7618 11.2529C43.4782 10.7843 42.0696 10.6692 40.7136 10.9222C39.7772 11.0628 39.5693 10.9691 39.1696 10.171C38.7325 9.26823 38.0423 8.48376 37.1669 7.89496C36.2916 7.30616 35.2612 6.93336 34.1775 6.81331C33.0938 6.69325 31.9941 6.83008 30.9869 7.21032C29.9796 7.59056 29.0996 8.20108 28.4335 8.98169C28.2718 9.22203 28.022 9.4037 27.7273 9.49512C27.4327 9.58654 27.1118 9.58194 26.8205 9.48213C25.2756 9.05336 23.6169 9.09743 22.1026 9.60748L21.7908 9.69764C21.6662 9.74686 21.5316 9.77204 21.3957 9.77157C21.2597 9.77109 21.1253 9.74496 21.0012 9.69486C20.8771 9.64476 20.7659 9.57181 20.6749 9.48067C20.5839 9.38953 20.515 9.28222 20.4726 9.16563C20.4289 9.05487 20.411 8.93717 20.42 8.81988C20.4291 8.70259 20.4648 8.58824 20.525 8.48398C20.5852 8.37972 20.6686 8.28778 20.77 8.21392C20.8714 8.14006 20.9886 8.08587 21.1142 8.05473C22.7901 7.44042 24.6273 7.27725 26.4038 7.58494C26.5931 7.6344 26.7944 7.63256 26.9825 7.57966C27.1707 7.52675 27.3374 7.42511 27.4621 7.28737C28.34 6.45882 29.4194 5.82579 30.615 5.43827C31.8107 5.05075 33.0898 4.91936 34.3513 5.05448C35.6129 5.18959 36.8223 5.58751 37.8842 6.21681C38.9461 6.84611 39.8312 7.68955 40.4698 8.68052C40.5317 8.81948 40.6455 8.93458 40.7914 9.00601C40.9373 9.07745 41.1063 9.10073 41.2692 9.07185C42.8756 8.9365 44.4926 9.19393 45.9506 9.81709C47.4086 10.4403 48.6538 11.4062 49.5553 12.6134C50.4568 13.8206 50.9814 15.2245 51.074 16.6778C51.1666 18.1311 50.8238 19.5801 50.0816 20.8726C49.977 21.1038 49.977 21.3627 50.0816 21.5939C50.6358 22.4761 50.9705 23.4566 51.0622 24.4672C51.1539 25.4779 51.0004 26.4944 50.6125 27.4462C50.2247 28.3979 49.6117 29.262 48.8162 29.9783C48.0207 30.6946 47.0618 31.2459 46.0062 31.5939C45.738 31.7184 45.5196 31.9155 45.3816 32.1575C44.8089 33.0339 44.2713 33.9104 43.7516 34.8022C43.598 35.023 43.514 35.2774 43.5088 35.538C43.5893 36.3847 43.3763 37.233 42.8993 37.9658C42.4222 38.6985 41.7047 39.2794 40.8459 39.6282C39.987 39.977 39.0293 40.0765 38.1051 39.9128C37.1809 39.7492 36.3359 39.3305 35.6868 38.7147C35.4625 38.5218 35.1778 38.3958 34.8713 38.354C33.3526 38.272 31.8751 37.8758 30.5531 37.1962C30.4151 37.1085 30.2525 37.0575 30.0839 37.0492C29.9153 37.0409 29.7475 37.0756 29.5997 37.1493C28.3961 37.666 27.0262 37.7732 25.742 37.4511C24.4578 37.129 23.3457 36.3994 22.6103 35.3964C22.4364 35.171 22.1774 35.0107 21.8817 34.9456C20.1178 34.6819 18.5107 33.8723 17.3365 32.6558C16.1622 31.4393 15.4941 29.8919 15.4469 28.2792C15.4633 28.1015 15.421 27.9234 15.3253 27.7674C15.2296 27.6114 15.0848 27.4845 14.9092 27.4027C13.8739 26.791 13.018 25.9622 12.4147 24.9872C11.8113 24.0122 11.4784 22.92 11.4443 21.8037C11.4102 20.6875 11.676 19.5804 12.219 18.5769C12.762 17.5735 13.566 16.7035 14.5624 16.0412C14.7095 15.9509 14.8303 15.83 14.9148 15.6888C14.9993 15.5476 15.045 15.3901 15.0481 15.2296C15.2212 13.6668 15.8693 12.1774 16.9209 10.9258C16.9864 10.8164 17.0768 10.7208 17.1861 10.6451C17.2954 10.5694 17.4212 10.5154 17.5552 10.4866C17.6893 10.4577 17.8285 10.4547 17.9639 10.4778C18.0993 10.5008 18.2278 10.5494 18.3409 10.6203C18.4541 10.6912 18.5494 10.7829 18.6207 10.8893C18.6919 10.9957 18.7374 11.1145 18.7543 11.2378C18.7712 11.3612 18.7591 11.4864 18.7187 11.6053C18.6783 11.7241 18.6105 11.834 18.5199 11.9276C17.5139 13.139 16.9612 14.6078 16.9419 16.1214C16.9444 16.3267 16.882 16.5284 16.7622 16.7029C16.6424 16.8774 16.4701 17.0176 16.2653 17.107C15.3565 17.5779 14.6078 18.2643 14.1006 19.0919C13.5934 19.9194 13.3471 20.8565 13.3883 21.8014C13.4295 22.7463 13.7567 23.663 14.3343 24.4521C14.9119 25.2411 15.718 25.8724 16.6651 26.2774C16.9273 26.3698 17.1446 26.5434 17.2781 26.767C17.4116 26.9907 17.4525 27.2499 17.3936 27.4983C17.306 28.2 17.3782 28.9104 17.6056 29.586C17.833 30.2616 18.2109 30.8882 18.7161 31.4274C19.2214 31.9666 19.8433 32.4071 20.5439 32.7218C21.2444 33.0365 22.0088 33.2188 22.7901 33.2576C23.0462 33.2591 23.2962 33.3282 23.5093 33.4564C23.7224 33.5846 23.8893 33.7662 23.9894 33.9789C24.1985 34.4148 24.5134 34.8028 24.9107 35.1144C25.308 35.4259 25.7777 35.6531 26.2852 35.7793C26.7927 35.9054 27.3251 35.9273 27.8432 35.8432C28.3613 35.7592 28.8519 35.5714 29.279 35.2936C29.4975 35.1325 29.7718 35.0458 30.054 35.0486C30.3362 35.0514 30.6084 35.1436 30.823 35.3089C31.8751 35.9498 33.0755 36.3655 34.3327 36.5245Z" fill="#47BBC6"/>
<path d="M31.1092 19.2173V18.6384C31.1092 17.5744 31.1961 17.4806 32.3584 17.2453C32.6573 17.1883 32.9242 17.0376 33.1116 16.8198C33.299 16.602 33.3947 16.3314 33.3817 16.0559C33.3701 15.7694 33.2445 15.4963 33.028 15.2865C32.8114 15.0767 32.5184 14.9442 32.2025 14.9134C31.897 14.8923 31.5927 14.9662 31.3403 15.1229C31.0879 15.2796 30.9027 15.5096 30.8154 15.7746C30.7804 15.8999 30.7804 16.0451 30.7464 16.1812C30.7191 16.4063 30.5984 16.6137 30.4085 16.7617C30.2187 16.9097 29.9738 16.9874 29.7231 16.9793C29.5945 16.97 29.4691 16.938 29.3542 16.885C29.2393 16.832 29.1372 16.759 29.0536 16.6703C28.9701 16.5816 28.9067 16.4789 28.8673 16.368C28.8278 16.2572 28.813 16.1404 28.8237 16.0244C28.8365 15.5075 29.0004 15.0029 29.2988 14.5616C29.5972 14.1203 30.0195 13.758 30.523 13.5113C31.0265 13.2647 31.5934 13.1424 32.1661 13.1569C32.7388 13.1714 33.2971 13.3222 33.7844 13.594C34.2718 13.8658 34.6709 14.2489 34.9414 14.7047C35.2119 15.1604 35.3442 15.6725 35.3248 16.1891C35.3054 16.7058 35.1351 17.2087 34.8311 17.6468C34.5271 18.085 34.1002 18.443 33.5936 18.6844C33.4039 18.7414 33.2434 18.8582 33.1415 19.0134C33.0396 19.1687 33.0032 19.3518 33.0389 19.5293C33.0678 19.7995 33.0621 20.0718 33.022 20.3408C33.0173 20.5679 32.9153 20.7845 32.7373 20.9451C32.5593 21.1057 32.3192 21.1978 32.0676 21.202C31.8152 21.2001 31.5737 21.1087 31.3954 20.9476C31.217 20.7865 31.116 20.5686 31.1142 20.3408C31.0972 19.9495 31.1312 19.5897 31.1142 19.2137L31.1092 19.2173Z" fill="#47BBC6"/>
<path d="M22.2782 23.7861V23.3163C22.2782 22.1116 22.2952 22.0801 23.5774 21.7834C23.8817 21.7102 24.1461 21.5396 24.3215 21.3036C24.4969 21.0676 24.5712 20.7821 24.5308 20.5003C24.4895 20.229 24.3465 19.9786 24.1256 19.7907C23.9047 19.6029 23.6192 19.489 23.3166 19.4678C23.0006 19.458 22.6908 19.548 22.4406 19.7223C22.1905 19.8967 22.0157 20.1444 21.9465 20.4228C21.7386 21.2992 21.3918 21.6274 20.7672 21.5048C20.0906 21.3795 19.8308 20.8321 20.0557 19.9872C20.2128 19.3374 20.6105 18.7552 21.1833 18.3365C21.7562 17.9179 22.47 17.6878 23.2071 17.6841C23.9443 17.6805 24.6608 17.9034 25.2388 18.3163C25.8167 18.7292 26.2215 19.3074 26.3866 19.9557C26.5667 20.5962 26.496 21.2733 26.1864 21.8723C25.8768 22.4712 25.3474 22.9552 24.6877 23.2424C24.5177 23.2918 24.3734 23.3952 24.2815 23.5333C24.1896 23.6714 24.1564 23.835 24.188 23.9935C24.2113 24.3223 24.1996 24.6523 24.153 24.9791C24.1454 25.083 24.1151 25.1845 24.0639 25.2778C24.0126 25.3711 23.9415 25.4543 23.8544 25.5227C23.7674 25.5911 23.6662 25.6433 23.5568 25.6763C23.4473 25.7092 23.3317 25.7224 23.2166 25.7149C23.0963 25.7229 22.9754 25.7087 22.8614 25.6732C22.7473 25.6377 22.6425 25.5816 22.5532 25.5084C22.464 25.4352 22.3921 25.3464 22.3421 25.2473C22.2921 25.1482 22.2649 25.041 22.2622 24.9322C22.2273 24.5408 22.2622 24.1495 22.2622 23.76L22.2782 23.7861Z" fill="#47BBC6"/>
<path d="M39.9344 23.7869V23.3172C39.9344 22.1125 39.9514 22.0962 41.2336 21.7842C41.5294 21.7138 41.7878 21.5508 41.9626 21.3244C42.1374 21.0979 42.2173 20.8227 42.188 20.548C42.1682 20.2713 42.0403 20.0099 41.827 19.8102C41.6138 19.6105 41.329 19.4855 41.0233 19.4574C40.7175 19.4293 40.4106 19.4999 40.1571 19.6566C39.9036 19.8134 39.7199 20.0461 39.6386 20.3136C39.6037 20.4389 39.6037 20.5841 39.5697 20.7202C39.5393 20.9452 39.4182 21.1523 39.2294 21.302C39.0407 21.4516 38.7976 21.5334 38.5463 21.5318C38.2849 21.5133 38.0419 21.4028 37.8699 21.2242C37.6979 21.0455 37.6107 20.813 37.6269 20.5768C37.6451 19.8815 37.9358 19.2145 38.4472 18.6942C38.9586 18.1738 39.6578 17.8338 40.4207 17.7343C41.1836 17.6349 41.9609 17.7825 42.6146 18.151C43.2684 18.5195 43.7563 19.085 43.9918 19.7473C44.2358 20.4107 44.2051 21.1314 43.9054 21.7759C43.6057 22.4205 43.0574 22.9453 42.3619 23.2531C42.1923 23.303 42.0484 23.4065 41.9566 23.5445C41.8648 23.6825 41.8313 23.8457 41.8622 24.0042C41.8795 24.2745 41.8795 24.5455 41.8622 24.8158C41.8687 25.0543 41.77 25.2855 41.588 25.4585C41.4059 25.6316 41.1552 25.7325 40.8908 25.7392C40.7609 25.7372 40.6328 25.7121 40.5136 25.6653C40.3945 25.6186 40.2868 25.5512 40.1965 25.4668C40.1063 25.3825 40.0354 25.2829 39.9879 25.1738C39.9403 25.0648 39.9171 24.9483 39.9195 24.8311C39.9195 24.4867 39.9364 24.1422 39.9364 23.7824L39.9344 23.7869Z" fill="#47BBC6"/>
<path d="M42.7656 40.422C43.3426 40.4177 43.9081 40.5678 44.3908 40.8532C44.8735 41.1386 45.2517 41.5465 45.4778 42.0255C45.7039 42.5046 45.7677 43.0334 45.6611 43.5451C45.5546 44.0568 45.2826 44.5287 44.8793 44.9011C44.476 45.2735 43.9595 45.5299 43.395 45.6378C42.8304 45.7457 42.2431 45.7004 41.7071 45.5076C41.171 45.3148 40.7103 44.9831 40.3829 44.5543C40.0555 44.1255 39.8762 43.6189 39.8674 43.0982C39.8623 42.7506 39.9333 42.4056 40.0762 42.0828C40.2192 41.76 40.4314 41.4658 40.7007 41.2172C40.9699 40.9685 41.2909 40.7703 41.6453 40.6338C41.9996 40.4974 42.3803 40.4254 42.7656 40.422ZM43.754 43.082C43.7573 42.9074 43.7027 42.7359 43.5973 42.5894C43.4919 42.4429 43.3404 42.3282 43.1622 42.26C42.984 42.1918 42.7873 42.1731 42.5974 42.2065C42.4074 42.2398 42.2327 42.3236 42.0958 42.447C41.959 42.5705 41.8661 42.7281 41.8292 42.8995C41.7923 43.071 41.8129 43.2484 41.8885 43.4092C41.9642 43.57 42.0913 43.7067 42.2536 43.8018C42.4159 43.897 42.606 43.9462 42.7996 43.9431C43.0498 43.9355 43.2874 43.8422 43.4643 43.6823C43.6411 43.5224 43.744 43.3078 43.7519 43.082H43.754Z" fill="#47BBC6"/>
<path d="M33.0852 23.8808C33.0929 24.1159 32.9999 24.3447 32.8255 24.5195C32.6511 24.6943 32.4088 24.8018 32.1488 24.8195C31.8922 24.8132 31.6479 24.7188 31.4658 24.5556C31.2836 24.3924 31.1774 24.1727 31.1686 23.9412C31.1598 23.7097 31.2492 23.4839 31.4185 23.3099C31.5878 23.1358 31.8243 23.0265 32.0799 23.0044C32.3403 23.0054 32.5903 23.0971 32.7777 23.2604C32.965 23.4237 33.0752 23.646 33.0852 23.8808Z" fill="#47BBC6"/>
<path d="M23.2851 27.5759C23.5471 27.5862 23.7944 27.6884 23.9741 27.8608C24.1539 28.0332 24.2519 28.2621 24.2473 28.4988C24.2428 28.7354 24.136 28.9611 23.9497 29.1278C23.7634 29.2945 23.5124 29.3889 23.2501 29.391C23.1212 29.3865 22.9946 29.359 22.8775 29.31C22.7605 29.261 22.6554 29.1916 22.5683 29.1057C22.4812 29.0198 22.4139 28.9192 22.3702 28.8097C22.3265 28.7002 22.3073 28.5839 22.3137 28.4676C22.3088 28.3506 22.3304 28.234 22.3772 28.1248C22.4241 28.0156 22.4952 27.9162 22.5862 27.8327C22.6771 27.7492 22.786 27.6833 22.9062 27.6391C23.0264 27.595 23.1553 27.5734 23.2851 27.5759Z" fill="#47BBC6"/>
<path d="M40.9241 29.3895C40.7938 29.3867 40.6655 29.3604 40.5467 29.3122C40.4278 29.264 40.3208 29.1948 40.2319 29.1088C40.143 29.0228 40.074 28.9217 40.029 28.8114C39.984 28.701 39.9639 28.5837 39.9698 28.4662C39.9648 28.3492 39.9864 28.2325 40.0333 28.1233C40.0801 28.0141 40.1512 27.9147 40.2422 27.8312C40.3332 27.7477 40.4421 27.6819 40.5623 27.6377C40.6825 27.5935 40.8114 27.572 40.9411 27.5744C41.2025 27.5836 41.4497 27.6842 41.6303 27.855C41.8108 28.0258 41.9106 28.2534 41.9084 28.4894C41.9062 28.7254 41.8022 28.9515 41.6184 29.1195C41.4347 29.2875 41.1857 29.3844 40.9241 29.3895Z" fill="#47BBC6"/>
</svg>
