<svg width="40" height="32" viewBox="0 0 40 32" fill="none" xmlns="http://www.w3.org/2000/svg">
<path d="M3.77281 25.0304L3.46668 25.4176L3.77281 25.0304C3.73164 24.9979 3.70256 24.9525 3.6902 24.9015C3.67784 24.8505 3.68292 24.7968 3.70462 24.749C3.72591 24.7021 3.76199 24.6636 3.80728 24.6392L12.5675 20.2581L12.5687 20.2575C12.6051 20.2391 12.6459 20.2315 12.6865 20.2354C12.7271 20.2393 12.7657 20.2545 12.798 20.2795L12.7979 20.2795L12.8036 20.2838L18.6467 24.6662L18.6467 24.6663C18.6956 24.7029 18.7279 24.7575 18.7365 24.818L19.2247 24.7482L18.7365 24.818C18.7452 24.8785 18.7295 24.9399 18.6928 24.9888C18.6561 25.0377 18.6015 25.07 18.5411 25.0787C18.4807 25.0873 18.4194 25.0716 18.3705 25.0351C18.3704 25.0351 18.3703 25.035 18.3702 25.0349L12.8929 20.9159L12.6455 20.7299L12.3687 20.8683L4.01267 25.0464L3.99665 25.0544L3.98125 25.0635C3.96175 25.0751 3.93948 25.0811 3.9168 25.0811L3.91486 25.581L3.91734 25.0811C3.86486 25.0808 3.81398 25.063 3.77281 25.0304Z" fill="#47BBC6" stroke="#47BBC6"/>
<path d="M38.7121 9.29004H0.730471C0.669346 9.29004 0.610725 9.26576 0.567503 9.22254C0.524282 9.17932 0.5 9.1207 0.5 9.05957C0.5 8.99845 0.524282 8.93983 0.567503 8.89661C0.610725 8.85338 0.669346 8.8291 0.730471 8.8291H38.7121C38.7732 8.8291 38.8319 8.85338 38.8751 8.8966C38.9183 8.93983 38.9426 8.99845 38.9426 9.05957C38.9426 9.12069 38.9183 9.17932 38.8751 9.22254C38.8319 9.26576 38.7732 9.29004 38.7121 9.29004Z" fill="white" stroke="#47BBC6"/>
<path d="M4.37975 5.60679L4.37975 5.60675L4.37325 5.60686C4.29644 5.60818 4.22044 5.591 4.15167 5.55677L4.11215 5.5371L4.0698 5.52466C4.01626 5.50893 3.96859 5.47768 3.93281 5.43487L3.90506 5.40166L3.87202 5.37372C3.81968 5.32946 3.77997 5.27215 3.75691 5.2076L3.74776 5.18199L3.73589 5.15752C3.70095 5.0855 3.68307 5.0064 3.68364 4.92635L3.68371 4.92635L3.68362 4.91791C3.68277 4.83081 3.69976 4.74446 3.73356 4.66419C3.76736 4.58391 3.81724 4.51141 3.88013 4.45115L3.88022 4.45125L3.88819 4.44326C3.9465 4.38481 4.01718 4.34019 4.09503 4.3127L4.10891 4.3078L4.12248 4.30208C4.24612 4.25005 4.38241 4.23588 4.51411 4.26137C4.6458 4.28687 4.76696 4.35088 4.86225 4.44529L4.8622 4.44534L4.86826 4.45115C4.93115 4.51141 4.98104 4.58391 5.01483 4.66419L5.47566 4.47018L5.01483 4.66419C5.04863 4.74446 5.06562 4.83081 5.06477 4.91791L5.0647 4.91791L5.06476 4.92635C5.06533 5.0064 5.04744 5.0855 5.0125 5.15752L4.99648 5.19054L4.98545 5.22555C4.96847 5.27945 4.93557 5.32694 4.89107 5.36177L4.86277 5.38392L4.83793 5.40988C4.7787 5.4718 4.70761 5.52115 4.62888 5.55498C4.55016 5.58881 4.46543 5.60643 4.37975 5.60679Z" fill="white" stroke="#47BBC6"/>
<path d="M7.9237 4.3086L7.93667 4.31377L7.94991 4.31821C8.0197 4.34162 8.08327 4.38056 8.13583 4.43207C8.201 4.49791 8.25253 4.57599 8.28744 4.66182C8.32262 4.7483 8.34022 4.84091 8.33922 4.93427L8.33914 4.93427L8.33921 4.94374C8.33993 5.03066 8.32287 5.11682 8.28908 5.19692C8.25529 5.27701 8.20548 5.34935 8.14271 5.40949L8.14271 5.40949L8.1417 5.41046C8.08015 5.46976 8.0086 5.51767 7.93039 5.55198C7.84066 5.58172 7.74762 5.60035 7.65338 5.60744C7.46964 5.59476 7.29517 5.5215 7.15741 5.39899C7.03814 5.2718 6.97192 5.10365 6.97266 4.92898C6.9748 4.74306 7.04103 4.5639 7.15964 4.42151C7.26148 4.34035 7.38241 4.28628 7.51116 4.26459C7.65011 4.24118 7.79282 4.25641 7.9237 4.3086Z" fill="white" stroke="#47BBC6"/>
<path d="M10.9079 5.60753L10.8936 5.60681L10.8794 5.60691C10.7993 5.60748 10.7202 5.5896 10.6482 5.55466L10.6152 5.53864L10.5802 5.52761C10.5263 5.51063 10.4788 5.47772 10.4439 5.43322L10.4186 5.40082L10.3883 5.37301C10.3274 5.31718 10.2792 5.24907 10.2466 5.17318C10.2141 5.09729 10.198 5.01535 10.1996 4.93279L10.1998 4.92124L10.1994 4.90969C10.1971 4.82523 10.2128 4.74124 10.2456 4.66336C10.2784 4.58548 10.3275 4.51553 10.3895 4.45818L10.4142 4.43539L10.4356 4.40951C10.477 4.35943 10.5314 4.32174 10.5928 4.30057L10.6047 4.29646L10.6164 4.29176C10.7873 4.22306 10.9781 4.22306 11.149 4.29176L11.1601 4.29621L11.1714 4.30013C11.2516 4.32801 11.324 4.3746 11.3826 4.43605L11.3883 4.44207L11.3943 4.44789C11.4437 4.49639 11.4805 4.55624 11.5015 4.62223L11.514 4.66145L11.5327 4.6981C11.5661 4.76357 11.5826 4.83638 11.5806 4.90987L11.5803 4.9182L11.5804 4.92653C11.5814 5.10604 11.5117 5.27873 11.3864 5.40725L11.3864 5.40723L11.3826 5.41124C11.324 5.47268 11.2516 5.51927 11.1714 5.54715L11.1484 5.55514L11.1263 5.56533C11.0579 5.59681 10.983 5.61129 10.9079 5.60753Z" fill="white" stroke="#47BBC6"/>
<path d="M38.7286 31.4999L38.7203 31.4996H38.7119H0.730293H0.721969L0.713649 31.4999C0.68617 31.5008 0.658795 31.4962 0.633121 31.4865C0.607448 31.4767 0.583973 31.4619 0.564072 31.4429C0.544183 31.424 0.528264 31.4012 0.517252 31.3761C0.506594 31.3517 0.500739 31.3255 0.5 31.2989V0.701078C0.500739 0.674505 0.506594 0.648316 0.517253 0.623946C0.528264 0.59877 0.544182 0.57604 0.564077 0.557085C0.583972 0.53813 0.607444 0.523329 0.633123 0.513548C0.658802 0.503766 0.686173 0.499199 0.713637 0.500115L0.721963 0.500392H0.730293H38.7119H38.7203L38.7286 0.500115C38.7561 0.499199 38.7834 0.503766 38.8091 0.51355C38.8348 0.523328 38.8583 0.538128 38.8782 0.557084C38.8981 0.576036 38.914 0.598765 38.925 0.623947C38.9356 0.648313 38.9415 0.674492 38.9422 0.701046V31.299C38.9415 31.3255 38.9356 31.3517 38.925 31.3761C38.914 31.4012 38.8981 31.424 38.8782 31.4429C38.8583 31.4619 38.8348 31.4767 38.8091 31.4865C38.7834 31.4962 38.7561 31.5008 38.7286 31.4999ZM0.960942 30.6084V31.1084H1.46094H37.9817H38.4817V30.6084V1.39165V0.891647H37.9817H1.46094H0.960942V1.39165V30.6084Z" fill="white" stroke="#47BBC6"/>
<path d="M18.5324 27.5825H18.5262H3.91785V27.5825L3.9129 27.5825C3.88317 27.5828 3.85368 27.5772 3.82617 27.5659C3.79866 27.5547 3.77367 27.538 3.75268 27.517L3.39869 27.8701L3.75268 27.517C3.73168 27.4959 3.7151 27.4709 3.70391 27.4434C3.69273 27.4158 3.68715 27.3863 3.68752 27.3566H3.68756V27.3504V12.7421H3.68758L3.68753 12.7371C3.68724 12.7074 3.69287 12.678 3.70409 12.6505C3.71531 12.6231 3.7319 12.5981 3.75289 12.5771C3.77388 12.5561 3.79884 12.5395 3.82631 12.5283C3.85379 12.5171 3.88323 12.5115 3.91291 12.5117L3.91291 12.5118H3.91785H18.5262V12.5118L18.5324 12.5117C18.5621 12.5114 18.5916 12.5169 18.6191 12.5281C18.6467 12.5393 18.6717 12.5559 18.6927 12.5769L19.0459 12.2229L18.6928 12.5769C18.7138 12.5979 18.7304 12.6229 18.7417 12.6504C18.7529 12.6779 18.7586 12.7074 18.7583 12.7371L18.7583 12.7371V12.7421V27.3504H18.7582L18.7583 27.3566C18.7587 27.3864 18.7531 27.4159 18.7419 27.4435L19.205 27.632L18.7419 27.4435C18.7306 27.4711 18.714 27.4961 18.693 27.5172C18.6719 27.5382 18.6469 27.5549 18.6193 27.5661L18.8078 28.0292L18.6193 27.5661C18.5917 27.5773 18.5622 27.5829 18.5324 27.5825L18.5324 27.5825ZM4.1485 26.6201V27.1201H4.6485H17.7959H18.2959V26.6201V13.4727V12.9727H17.7959H4.6485H4.1485V13.4727V26.6201Z" fill="white" stroke="#47BBC6"/>
<path d="M26.2967 22.7344V22.7343L26.2889 22.7344C25.7742 22.7425 25.2833 22.9526 24.9221 23.3194C24.561 23.6862 24.3586 24.1804 24.3586 24.6951C24.3586 25.2099 24.561 25.7041 24.9221 26.0709C25.2833 26.4377 25.7742 26.6478 26.2889 26.6558L26.2889 26.6559H26.2967H32.1401V26.656L32.1479 26.6558C32.6626 26.6478 33.1535 26.4377 33.5147 26.0709C33.8758 25.7041 34.0783 25.2099 34.0783 24.6951C34.0783 24.1804 33.8758 23.6862 33.5147 23.3194C33.1535 22.9526 32.6626 22.7425 32.1479 22.7344L32.1479 22.7344H32.1401H26.2967ZM32.1401 27.1168H26.2967C25.6544 27.1168 25.0385 26.8617 24.5843 26.4075C24.1301 25.9534 23.875 25.3374 23.875 24.6951C23.875 24.0529 24.1301 23.4369 24.5843 22.9827C25.0385 22.5286 25.6544 22.2734 26.2967 22.2734H32.1401C32.7824 22.2734 33.3984 22.5286 33.8525 22.9827C34.3067 23.4369 34.5618 24.0529 34.5618 24.6951C34.5618 25.3374 34.3067 25.9534 33.8525 26.4075C33.3984 26.8617 32.7824 27.1168 32.1401 27.1168Z" fill="#067CBC" stroke="#47BBC6"/>
<path d="M34.3317 14.8428H25.5664C25.5053 14.8428 25.4467 14.8185 25.4034 14.7753C25.3602 14.7321 25.3359 14.6734 25.3359 14.6123C25.3359 14.5512 25.3602 14.4926 25.4034 14.4493C25.4467 14.4061 25.5053 14.3818 25.5664 14.3818H34.3317C34.362 14.3818 34.3919 14.3878 34.4199 14.3994C34.4479 14.411 34.4733 14.4279 34.4947 14.4493L34.8482 14.0958L34.4947 14.4493C34.5161 14.4707 34.533 14.4961 34.5446 14.5241C34.5562 14.5521 34.5622 14.582 34.5622 14.6123C34.5622 14.6426 34.5562 14.6725 34.5446 14.7005C34.533 14.7285 34.5161 14.7539 34.4947 14.7753L34.8464 15.127L34.4947 14.7753C34.4733 14.7967 34.4479 14.8137 34.4199 14.8252C34.3919 14.8368 34.362 14.8428 34.3317 14.8428Z" fill="#47BBC6" stroke="#47BBC6"/>
<path d="M34.3278 17.2305H29.9453C29.8842 17.2305 29.8256 17.2062 29.7823 17.163C29.7391 17.1197 29.7148 17.0611 29.7148 17C29.7148 16.9389 29.7391 16.8803 29.7823 16.837C29.8256 16.7938 29.8842 16.7695 29.9453 16.7695H34.3278C34.3581 16.7695 34.388 16.7755 34.416 16.7871C34.4439 16.7987 34.4694 16.8156 34.4908 16.837C34.5122 16.8584 34.5291 16.8838 34.5407 16.9118C34.5523 16.9398 34.5583 16.9697 34.5583 17C34.5583 17.0303 34.5523 17.0602 34.5407 17.0882C34.5291 17.1162 34.5122 17.1416 34.4908 17.163C34.4694 17.1844 34.4439 17.2013 34.416 17.2129C34.388 17.2245 34.3581 17.2305 34.3278 17.2305Z" fill="#47BBC6" stroke="#47BBC6"/>
<path d="M8.29796 18.8959L8.29796 18.8958L8.28526 18.8961C8.15865 18.8992 8.03293 18.874 7.91728 18.8224L7.89705 18.8134L7.8761 18.8062C7.7667 18.7685 7.66915 18.7027 7.59333 18.6153L7.5619 18.5791L7.52416 18.5495C7.44527 18.4876 7.38784 18.4026 7.35998 18.3063L7.35083 18.2746L7.3376 18.2444C7.28589 18.1265 7.26031 17.9988 7.26262 17.87L7.26288 17.8557L7.26232 17.8414C7.25751 17.7194 7.2818 17.5981 7.33319 17.4874L7.34407 17.464L7.35248 17.4396C7.39012 17.3301 7.45596 17.2326 7.54335 17.1568L7.57957 17.1253L7.60916 17.0876C7.671 17.0087 7.75609 16.9513 7.85238 16.9234L7.88027 16.9154L7.90704 16.9041C8.09397 16.8256 8.30017 16.8051 8.49891 16.8452C8.69764 16.8853 8.87975 16.9842 9.02162 17.129L9.04455 17.1524L9.07033 17.1726C9.14921 17.2345 9.20665 17.3195 9.2345 17.4158L9.24465 17.4509L9.25978 17.4841C9.3113 17.5973 9.33603 17.7207 9.33204 17.845L9.33164 17.8575L9.33186 17.87C9.33417 17.9988 9.30859 18.1265 9.25689 18.2444L9.24867 18.2632L9.24201 18.2825C9.20437 18.3919 9.13853 18.4895 9.05114 18.5653L9.03611 18.5784L9.02217 18.5925C8.92768 18.6887 8.81497 18.7651 8.69062 18.8172C8.56627 18.8693 8.43278 18.896 8.29796 18.8959Z" stroke="#47BBC6"/>
</svg>
