<svg width="60" height="61" viewBox="0 0 60 61" fill="none" xmlns="http://www.w3.org/2000/svg">
<path d="M24.9309 22.3479C25.6732 21.7213 26.3175 21.2229 26.894 20.6554C27.0426 20.4196 27.1048 20.1394 27.0698 19.8627C27.0798 13.7286 27.0831 7.59426 27.0798 1.45954C27.0798 0.45866 27.3795 0.0112658 28.0368 0.00225787C28.6941 -0.00675004 29.0138 0.461658 29.0138 1.44052C29.0138 7.53587 28.9938 13.6212 29.0338 19.7166C29.063 20.261 28.9601 20.8044 28.7339 21.3003C28.5078 21.7962 28.1651 22.2298 27.7351 22.5641C26.939 23.1739 26.1074 23.7357 25.2446 24.2465C25.1039 24.3129 24.9851 24.4182 24.9021 24.5499C24.8191 24.6816 24.7754 24.8344 24.7761 24.9902C24.7561 25.7909 24.6682 26.5916 24.6003 27.5434C24.883 27.3283 25.0688 27.1621 25.2736 27.025C26.3185 26.2813 27.3715 25.5377 28.4274 24.794C28.8714 24.4354 29.4245 24.2399 29.9948 24.2399C30.5651 24.2399 31.1182 24.4354 31.5622 24.794C32.6172 25.5377 33.6601 26.2813 34.7071 27.034C34.9069 27.1711 35.0777 27.3172 35.3614 27.5424C35.2935 26.5155 35.2445 25.6057 35.1566 24.6949C35.1366 24.5478 34.9219 24.4017 34.766 24.2946C33.8969 23.6881 32.9788 23.1406 32.1487 22.475C31.7458 22.1544 31.4256 21.7417 31.2149 21.2715C31.0042 20.8013 30.9092 20.2872 30.9379 19.7726C30.9768 13.6582 30.9579 7.54288 30.9579 1.43852C30.9448 1.23617 30.9515 1.03303 30.9778 0.831981C31.0088 0.604011 31.1204 0.394734 31.2922 0.242108C31.4641 0.0894811 31.6848 0.00362341 31.9144 0.000112122C32.144 -0.00339916 32.3673 0.0756628 32.5437 0.222964C32.7201 0.370265 32.838 0.576041 32.8759 0.802956C32.9071 1.0234 32.9138 1.24662 32.8959 1.46854C32.8959 7.52486 32.9059 13.5712 32.8759 19.6275C32.8523 19.9368 32.9092 20.247 33.041 20.5277C33.1729 20.8084 33.3752 21.05 33.6282 21.2289C34.0777 21.5522 34.5273 21.8745 35.0268 22.2368C35.1267 21.0237 35.1636 19.9177 35.3264 18.8338C35.4558 17.9384 35.6906 17.0616 36.0258 16.2215C36.34 15.2909 36.9863 14.5095 37.8406 14.0273C38.6949 13.5451 39.6969 13.3962 40.6541 13.6092C42.8223 13.8421 44.82 14.8953 46.2395 16.5538C47.2219 17.7228 48.1317 18.9512 48.9637 20.232C50.8188 22.9914 52.587 25.7989 54.4522 28.5483C56.4514 31.2329 58.0344 34.2047 59.1474 37.3631C59.6654 39.0397 59.9347 40.7835 59.9466 42.5386C60.0498 46.0082 59.8045 49.4793 59.2144 52.8997C58.9424 54.5338 58.3623 56.1011 57.5051 57.5178C57.009 58.4299 56.2298 59.1553 55.2855 59.5842C54.3412 60.0131 53.2831 60.1222 52.2714 59.8948C51.5699 59.6591 50.9105 59.3124 50.3183 58.8679C49.7817 58.473 49.2727 58.0416 48.7949 57.5768C46.6743 55.588 43.9304 54.3983 41.0317 54.2109C40.2307 54.1466 39.4369 54.0127 38.6591 53.8105C37.3714 53.5944 36.1995 52.9347 35.3455 51.9452C34.4916 50.9557 34.0093 49.6985 33.9818 48.3907C33.6787 44.3022 34.0216 40.1914 34.9978 36.21C35.2515 35.0751 35.5442 33.93 35.6971 32.776C35.7523 32.0328 35.7393 31.286 35.6581 30.5451C35.6358 30.4074 35.5649 30.2824 35.4583 30.1928C33.818 28.9307 32.1676 27.6686 30.5273 26.4064C30.3691 26.2641 30.1626 26.1878 29.9501 26.1932C29.7376 26.1986 29.5352 26.2853 29.3844 26.4355C27.7541 27.6876 26.1227 28.9307 24.5014 30.1928C24.375 30.3383 24.2965 30.5194 24.2766 30.7112C24.0929 32.0337 24.2062 33.3806 24.6083 34.6537C25.6228 38.4571 26.1267 42.3791 26.1067 46.3159C26.1086 47.3039 26.0169 48.2898 25.833 49.2605C25.2666 51.9899 23.5973 53.4582 20.6183 53.9646C19.4664 54.1648 18.3036 54.2879 17.1618 54.5121C14.8607 54.9784 12.7341 56.0758 11.019 57.6819C10.6194 58.0442 10.1988 58.3965 9.7882 58.7578C9.28973 59.226 8.69418 59.578 8.04413 59.7886C7.39408 59.9993 6.70559 60.0635 6.02791 59.9766C5.35022 59.8896 4.70008 59.6538 4.12397 59.2858C3.54787 58.9178 3.06003 58.4269 2.69535 57.8481C1.60747 56.1918 0.909575 54.3094 0.654411 52.3432C0.012282 48.5007 -0.15815 44.594 0.14692 40.71C0.445342 37.8112 1.40402 35.0198 2.94909 32.5508C3.67137 31.3178 4.47256 30.1347 5.25377 28.9307C7.2068 25.947 9.17982 22.9824 11.1129 19.9888C12.1715 18.1485 13.56 16.5198 15.2087 15.1846C16.6282 14.1364 18.3405 13.5615 20.1038 13.5411C20.8342 13.4995 21.5608 13.6728 22.1941 14.0396C22.8275 14.4065 23.3398 14.951 23.6682 15.606C24.3569 16.9566 24.7371 18.4438 24.7811 19.9598C24.853 20.6944 24.883 21.4221 24.9309 22.3479ZM57.9976 44.8677C58.1552 42.5696 57.9276 40.2614 57.3243 38.0386C56.4766 35.4499 55.2294 33.0102 53.628 30.8083C51.2844 27.4524 48.9507 24.1024 46.8798 20.5743C46.1952 19.4591 45.3788 18.4308 44.4483 17.5116C43.8564 16.8877 43.1469 16.3875 42.3609 16.04C41.5748 15.6925 40.7279 15.5045 39.8689 15.4869C39.484 15.4431 39.0952 15.5227 38.7583 15.7143C38.4214 15.9058 38.1537 16.1993 37.9938 16.5528C37.638 17.3148 37.385 18.121 37.2415 18.9499C36.8799 22.1169 36.9391 25.3179 37.4173 28.4693C37.7612 30.7227 37.6935 33.02 37.2175 35.2492C36.726 37.2015 36.351 39.1814 36.0947 41.1784C35.7207 43.511 35.6535 45.8826 35.8949 48.2326C35.9239 49.1842 36.296 50.0931 36.9423 50.791C37.5886 51.489 38.4654 51.9287 39.4103 52.0289C40 52.152 40.597 52.2369 41.1975 52.2832C44.028 52.4385 46.7421 53.4635 48.9707 55.2187C49.7699 55.8543 50.5331 56.5489 51.3243 57.2045C52.9357 58.5346 54.576 58.3295 55.7199 56.5689C56.2266 55.7741 56.6178 54.911 56.8817 54.0057C57.6576 51.0236 58.0322 47.9511 57.9956 44.8697L57.9976 44.8677ZM22.9989 23.2357H22.9499C22.9499 22.5901 22.9599 21.9445 22.9499 21.299C22.9581 20.7947 22.922 20.2906 22.842 19.7926C22.7048 18.8573 22.4926 17.9345 22.2077 17.0332C22.0745 16.5034 21.7387 16.0473 21.2727 15.7636C20.8066 15.4799 20.2479 15.3912 19.7172 15.5169C18.5895 15.6131 17.5059 16.0007 16.5724 16.6419C15.0205 17.8341 13.7252 19.3283 12.7642 21.0347C10.7662 24.1264 8.71128 27.1891 6.73927 30.2999C5.6164 32.0614 4.50353 33.842 3.55549 35.7046C2.44111 37.9545 1.8924 40.4431 1.9571 42.954C1.85147 46.5223 2.17955 50.0903 2.93411 53.5793C3.18809 54.9124 3.79539 56.1525 4.69234 57.1695C4.90984 57.4373 5.17959 57.6578 5.48508 57.8176C5.79057 57.9773 6.12539 58.073 6.46904 58.0986C6.8127 58.1243 7.15797 58.0795 7.48373 57.9668C7.80949 57.8542 8.1089 57.6762 8.36363 57.4437C8.97901 56.9643 9.55543 56.4258 10.1508 55.9174C12.1998 54.0448 14.7666 52.8375 17.5134 52.4543C18.6852 52.3172 19.867 52.1711 21.0289 51.9258C21.7217 51.8139 22.3633 51.4909 22.8664 51.0007C23.3695 50.5106 23.7098 49.8771 23.841 49.1864C24.0458 48.2644 24.1539 47.3235 24.1637 46.379C24.2064 42.8486 23.7794 39.3282 22.894 35.9108C22.3079 33.7914 22.152 31.5758 22.4355 29.3951C22.7332 27.3473 22.8211 25.2825 22.9969 23.2377L22.9989 23.2357Z" fill="#47BBC6"/>
<path d="M12.9774 6.79139H4.40403C4.22183 6.79782 4.03942 6.79448 3.85758 6.78138C3.73139 6.7807 3.60667 6.75415 3.49109 6.70338C3.37552 6.65261 3.27154 6.57868 3.18554 6.48615C3.09954 6.39362 3.03335 6.28444 2.99104 6.16532C2.94873 6.0462 2.9312 5.91967 2.93951 5.79351C2.93668 5.67147 2.95842 5.55012 3.00343 5.43669C3.04844 5.32326 3.1158 5.22007 3.20148 5.13329C3.28717 5.04651 3.38942 4.97791 3.50215 4.93159C3.61487 4.88527 3.73576 4.86218 3.85758 4.86369C4.3361 4.83467 4.82461 4.85369 5.30312 4.85369H13.0084C13.0373 4.79464 13.0763 4.74559 13.1083 4.68754C12.415 4.02196 11.7097 3.37639 11.0383 2.7018C10.9364 2.62559 10.8512 2.52915 10.7881 2.41851C10.725 2.30787 10.6854 2.1854 10.6716 2.05872C10.6578 1.93205 10.6702 1.80389 10.7081 1.68223C10.7459 1.56058 10.8083 1.44803 10.8915 1.35161C10.9649 1.24101 11.0621 1.14828 11.176 1.08023C11.2898 1.01218 11.4175 0.970536 11.5495 0.958346C11.6815 0.946156 11.8146 0.963727 11.9389 1.00978C12.0633 1.05584 12.1757 1.12921 12.2681 1.2245C13.5961 2.51564 14.9048 3.82678 16.1941 5.15795C16.2899 5.24328 16.3661 5.34845 16.4174 5.46616C16.4686 5.58388 16.4937 5.71135 16.491 5.83975C16.4882 5.96815 16.4576 6.09442 16.4014 6.20982C16.3451 6.32523 16.2645 6.42701 16.1652 6.50814C14.8958 7.80928 13.6164 9.09408 12.327 10.3625C12.2366 10.4526 12.129 10.5238 12.0108 10.5718C11.8926 10.6198 11.766 10.6437 11.6384 10.6422C11.5108 10.6406 11.3848 10.6135 11.2678 10.5626C11.1507 10.5117 11.045 10.4379 10.9568 10.3456C10.8685 10.2533 10.7996 10.1442 10.7539 10.0249C10.7082 9.90554 10.6867 9.77826 10.6906 9.65049C10.6946 9.52272 10.724 9.39703 10.777 9.28076C10.83 9.16448 10.9056 9.05996 10.9994 8.9733C11.6827 8.27269 12.386 7.59409 13.0893 6.90849C13.0418 6.88072 13.003 6.84015 12.9774 6.79139Z" fill="#47BBC6"/>
<path d="M46.8521 4.85153H55.875C56.1053 4.81341 56.3417 4.85837 56.542 4.97841C56.7423 5.09845 56.8936 5.28579 56.969 5.50711C57.2037 6.20172 56.7442 6.78923 55.914 6.78923C53.3166 6.79924 50.7193 6.78923 48.1309 6.78923H46.8911C46.988 6.92539 47.0924 7.05605 47.2038 7.18058C47.8092 7.79712 48.4345 8.39365 49.0299 9.0292C49.1195 9.11185 49.1912 9.21204 49.2405 9.32358C49.2899 9.43511 49.3158 9.55561 49.3168 9.6776C49.3177 9.79959 49.2936 9.92047 49.246 10.0328C49.1984 10.145 49.1282 10.2463 49.0399 10.3303C48.9649 10.4277 48.8704 10.5082 48.7623 10.5667C48.6543 10.6252 48.5352 10.6602 48.4128 10.6697C48.2904 10.6791 48.1674 10.6627 48.0517 10.6215C47.936 10.5803 47.8303 10.5152 47.7413 10.4304C46.384 9.10993 45.046 7.76943 43.7273 6.4089C43.6448 6.33066 43.5793 6.23624 43.5348 6.13151C43.4903 6.02678 43.4678 5.914 43.4688 5.80019C43.4697 5.68638 43.494 5.57398 43.5402 5.47C43.5864 5.36602 43.6535 5.2727 43.7373 5.19583C45.046 3.85532 46.3676 2.52815 47.7023 1.21433C47.8838 1.0566 48.118 0.973427 48.3581 0.981493C48.5982 0.989559 48.8264 1.08827 48.9969 1.25783C49.1674 1.42739 49.2676 1.65526 49.2774 1.89574C49.2873 2.13623 49.206 2.37155 49.0499 2.55451C48.5035 3.15504 47.9271 3.70853 47.3607 4.27603C47.2228 4.44317 47.0759 4.60031 46.8521 4.85153Z" fill="#47BBC6"/>
<path d="M18.379 5.77437C18.3906 3.82347 19.1403 1.94959 20.4768 0.530762C20.9943 -0.0267272 21.5608 -0.0857761 22.0003 0.344602C22.0968 0.447454 22.1712 0.569121 22.2187 0.702017C22.2662 0.834914 22.2859 0.976185 22.2765 1.11704C22.2671 1.25789 22.2289 1.39531 22.1642 1.52071C22.0995 1.64611 22.0097 1.75681 21.9004 1.84592C20.874 2.92155 20.3029 4.35336 20.3066 5.84146C20.3103 7.32955 20.8886 8.75847 21.9204 9.82893C22.3989 10.3864 22.4199 10.9049 21.9793 11.3162C21.5208 11.7366 21.0123 11.6976 20.5048 11.1501C19.1316 9.69938 18.3701 7.77371 18.379 5.77437Z" fill="#47BBC6"/>
<path d="M41.5889 5.83261C41.5884 7.86168 40.7843 9.80765 39.3532 11.2434C39.2708 11.3468 39.1669 11.4309 39.0487 11.49C38.9305 11.549 38.8009 11.5816 38.6689 11.5853C38.5369 11.589 38.4057 11.5638 38.2844 11.5115C38.1631 11.4592 38.0546 11.381 37.9666 11.2824C37.8733 11.1968 37.7987 11.0929 37.7473 10.9771C37.6959 10.8613 37.6689 10.7362 37.668 10.6095C37.6671 10.4828 37.6922 10.3572 37.7419 10.2407C37.7915 10.1242 37.8646 10.0192 37.9566 9.93221C38.0445 9.82411 38.1564 9.72702 38.2393 9.61893C38.9926 8.77944 39.4757 7.73191 39.6256 6.6131C39.7754 5.49429 39.5851 4.3562 39.0794 3.34742C38.7618 2.76597 38.3855 2.21864 37.9566 1.71399C37.7878 1.5255 37.6953 1.28069 37.6971 1.02745C37.699 0.774218 37.795 0.530783 37.9666 0.344784C38.0616 0.253684 38.1739 0.182749 38.2969 0.136235C38.4199 0.0897196 38.551 0.0685845 38.6824 0.0740996C38.8138 0.0796147 38.9427 0.111667 39.0614 0.168329C39.1801 0.224991 39.2861 0.305093 39.3732 0.403834C39.4511 0.471894 39.51 0.550967 39.578 0.619027C40.8652 2.05013 41.5811 3.90616 41.5889 5.83261Z" fill="#47BBC6"/>
<path d="M22.254 5.85047C22.2473 4.85241 22.6289 3.891 23.3179 3.17012C23.3964 3.06429 23.4965 2.97641 23.6115 2.91229C23.7265 2.84817 23.8537 2.80928 23.9849 2.79821C24.116 2.78713 24.248 2.80413 24.3721 2.84806C24.4961 2.89199 24.6095 2.96185 24.7045 3.05302C24.8052 3.13643 24.8874 3.23995 24.9459 3.35696C25.0043 3.47397 25.0378 3.60191 25.0442 3.73261C25.0506 3.86332 25.0298 3.99394 24.983 4.11611C24.9362 4.23829 24.8645 4.34936 24.7724 4.44224C24.5871 4.62181 24.4398 4.83689 24.3391 5.07469C24.2385 5.31249 24.1866 5.56815 24.1866 5.82645C24.1866 6.08475 24.2385 6.3404 24.3391 6.57821C24.4398 6.81601 24.5871 7.0311 24.7724 7.21067C24.8661 7.30305 24.9389 7.41436 24.9863 7.53717C25.0336 7.65998 25.0542 7.79148 25.0469 7.92292C25.0395 8.05435 25.0043 8.18271 24.9435 8.29944C24.8828 8.41616 24.7979 8.51859 24.6945 8.59989C24.5982 8.68932 24.4842 8.75745 24.3599 8.79985C24.2356 8.84224 24.1037 8.85796 23.973 8.84597C23.8422 8.83398 23.7154 8.79456 23.6008 8.73027C23.4862 8.66597 23.3864 8.57824 23.3079 8.47278C22.6395 7.76286 22.2631 6.82637 22.254 5.85047Z" fill="#47BBC6"/>
<path d="M37.7143 5.85247C37.7065 6.82587 37.3293 7.75983 36.6593 8.46477C36.5786 8.56687 36.478 8.65154 36.3637 8.71367C36.2495 8.7758 36.1238 8.81411 35.9944 8.82627C35.8649 8.83844 35.7344 8.82422 35.6106 8.78447C35.4868 8.74472 35.3722 8.68026 35.274 8.59498C35.1757 8.5097 35.0956 8.40537 35.0387 8.28826C34.9817 8.17116 34.9491 8.04372 34.9426 7.91362C34.9361 7.78352 34.956 7.65346 35.0011 7.53127C35.0461 7.40908 35.1154 7.29729 35.2048 7.20266C35.3911 7.02367 35.5393 6.80877 35.6406 6.57089C35.7419 6.33301 35.7941 6.07706 35.7941 5.81844C35.7941 5.55982 35.7419 5.30387 35.6406 5.06599C35.5393 4.82811 35.3911 4.61321 35.2048 4.43423C35.1159 4.33942 35.047 4.22764 35.0022 4.10555C34.9574 3.98347 34.9376 3.8536 34.944 3.72369C34.9504 3.59377 34.9829 3.46649 35.0395 3.34944C35.0962 3.23239 35.1758 3.12798 35.2736 3.04244C35.3714 2.9569 35.4854 2.89199 35.6088 2.85158C35.7322 2.81118 35.8625 2.79612 35.9918 2.80729C36.1212 2.81846 36.2469 2.85563 36.3616 2.9166C36.4763 2.97756 36.5776 3.06106 36.6593 3.16211C37.3422 3.89021 37.7199 4.85334 37.7143 5.85247Z" fill="#47BBC6"/>
<path d="M41.9614 27.073C43.0253 29.0497 44.1492 30.9474 45.0862 32.9531C45.6094 34.2798 46.056 35.6356 46.4239 37.0137C46.4831 37.246 46.6304 37.446 46.8345 37.5712C48.4103 38.0962 49.7851 39.0977 50.7695 40.4377C51.2164 41.0058 51.706 41.5388 52.234 42.0321C52.5875 42.2934 52.9795 42.498 53.3958 42.6386C53.522 42.6739 53.6399 42.7339 53.7427 42.8152C53.8455 42.8964 53.9312 42.9973 53.9948 43.1121C54.0583 43.2268 54.0985 43.353 54.113 43.4834C54.1275 43.6138 54.116 43.7458 54.0791 43.8717C54.0423 43.998 53.9801 44.1154 53.8962 44.2167C53.8124 44.318 53.7087 44.4009 53.5916 44.4605C53.4745 44.5201 53.3464 44.5549 53.2153 44.563C53.0842 44.571 52.9529 44.5521 52.8294 44.5073C51.758 44.2035 50.8086 43.5706 50.1151 42.6977C49.5387 42.0321 48.9923 41.3185 48.3669 40.6959C47.9247 40.2997 47.4514 39.9399 46.9513 39.62C46.9024 39.649 46.8514 39.688 46.8045 39.72C46.8824 40.6689 46.9603 41.6217 47.0482 42.5576C47.2247 45.1919 48.2299 47.7025 49.9193 49.7288C50.0214 49.8211 50.1018 49.9349 50.1547 50.062C50.2076 50.1892 50.2317 50.3265 50.2252 50.4641C50.2187 50.6017 50.1818 50.7361 50.1171 50.8577C50.0525 50.9792 49.9617 51.0849 49.8514 51.1671C49.7422 51.2574 49.6146 51.3228 49.4776 51.3587C49.3406 51.3946 49.1974 51.4002 49.058 51.3751C48.9186 51.3499 48.7864 51.2947 48.6705 51.2131C48.5546 51.1316 48.4578 51.0257 48.3869 50.9029C46.3802 48.4264 45.2169 45.3716 45.0672 42.1852C44.9985 39.8854 44.6376 37.6037 43.9933 35.3953C43.8934 35.121 43.7935 34.8478 43.6517 34.4564C42.285 37.421 40.7806 40.1794 40.5947 43.4083C40.5906 43.5827 40.5522 43.7546 40.4818 43.9141C40.4113 44.0737 40.3102 44.2177 40.1842 44.3381C40.0358 44.4244 39.8694 44.4746 39.6982 44.4849C39.5269 44.4951 39.3557 44.4651 39.1981 44.3972C39.051 44.2916 38.9296 44.154 38.8431 43.9947C38.7566 43.8354 38.7072 43.6585 38.6986 43.4773C38.7589 41.558 39.1865 39.6682 39.9584 37.9105C40.5248 36.5603 41.1302 35.2081 41.7566 33.8889C42.0731 33.3128 42.2184 32.6578 42.1752 32.0016C42.132 31.3453 41.9021 30.7152 41.5128 30.1857C40.6137 28.8945 39.7456 27.5934 38.8665 26.2923C38.6277 25.9677 38.4155 25.6243 38.2321 25.2654C38.1354 25.0511 38.122 24.8083 38.1946 24.5847C38.2671 24.361 38.4204 24.1725 38.6244 24.0562C38.8284 23.9399 39.0685 23.904 39.2975 23.9557C39.5265 24.0074 39.728 24.1428 39.8625 24.3355C40.1942 25.0301 40.6927 25.0982 41.366 25.0792C42.2537 25.0755 43.1333 25.2492 43.9532 25.5901C44.7731 25.9311 45.517 26.4325 46.1412 27.0649C46.6976 27.5834 47.2051 28.1659 47.7815 28.6664C48.3671 29.1818 48.9801 29.6653 49.6177 30.1146C49.8531 30.2295 50.0346 30.4315 50.1239 30.6781C50.2132 30.9247 50.2033 31.1964 50.0962 31.4358C50.0467 31.5598 49.9698 31.6709 49.8713 31.7608C49.7727 31.8507 49.6551 31.917 49.5272 31.9546C49.3994 31.9923 49.2647 32.0004 49.1332 31.9784C49.0018 31.9563 48.8771 31.9045 48.7685 31.8271C47.9634 31.3005 47.1957 30.7186 46.4708 30.0856C45.6796 29.411 44.9674 28.6283 44.1662 27.9627C43.5385 27.4486 42.7695 27.1382 41.9614 27.073Z" fill="#47BBC6"/>
<path d="M13.0351 39.5961C12.5094 39.9477 12.0072 40.3331 11.5316 40.7501C10.9262 41.3376 10.4477 42.0512 9.84227 42.6387C9.25744 43.2162 8.62222 43.7401 7.94419 44.2041C7.58433 44.42 7.17184 44.5319 6.7524 44.5274C6.52545 44.5399 6.30257 44.4633 6.13114 44.3137C5.9597 44.1642 5.85322 43.9536 5.83432 43.7267C5.80689 43.6174 5.80132 43.5038 5.81796 43.3924C5.8346 43.281 5.87312 43.174 5.93127 43.0776C5.98941 42.9812 6.06605 42.8973 6.15675 42.8307C6.24745 42.7641 6.3504 42.7163 6.45968 42.6898C7.379 42.3785 8.17795 41.7867 8.74438 40.9973C9.30481 40.2862 9.91864 39.619 10.5805 39.0015C11.1016 38.4996 11.7244 38.1158 12.4067 37.8765C12.7658 37.7897 13.0869 37.588 13.3212 37.3019C13.5556 37.0158 13.6905 36.661 13.7054 36.2912C14.0991 34.4967 14.7817 32.7784 15.7263 31.2037C16.5076 29.8435 17.2598 28.4743 18.041 27.0851C17.1835 27.129 16.3654 27.4595 15.7174 28.0239C14.9851 28.6244 14.3497 29.325 13.6375 29.9416C12.9234 30.5882 12.17 31.1898 11.3817 31.7432C11.056 31.9296 10.6698 31.9789 10.3078 31.8803C10.1719 31.8071 10.0556 31.7022 9.9687 31.5745C9.88177 31.4468 9.82676 31.3001 9.80831 31.1466C9.81085 30.9744 9.84749 30.8045 9.91608 30.6466C9.98467 30.4887 10.0839 30.346 10.2079 30.2268C11.155 29.3561 12.1809 28.5934 13.118 27.7126C14.1616 26.5538 15.5075 25.7101 17.0041 25.2765C17.6932 25.1464 18.3927 25.0793 19.0939 25.0763C19.4256 25.0663 19.6804 25.0373 19.8262 24.714C19.8746 24.6249 19.93 24.5399 19.992 24.4598C20.4506 23.8592 20.8712 23.7361 21.3687 24.0594C21.4885 24.1352 21.5905 24.2363 21.6673 24.3557C21.7441 24.475 21.7941 24.6097 21.8136 24.7504C21.8331 24.8911 21.8217 25.0343 21.7802 25.1701C21.7387 25.3059 21.6682 25.4311 21.5735 25.5367C20.7243 26.8088 19.9031 28.11 18.9561 29.313C18.314 30.0412 17.925 30.9585 17.8475 31.9271C17.77 32.8957 18.0083 33.8634 18.5265 34.6847C19.6622 36.6835 20.4887 38.8433 20.978 41.0904C21.1242 41.8827 21.222 42.6832 21.2708 43.4875C21.2893 43.6189 21.279 43.7527 21.2405 43.8797C21.2019 44.0067 21.1362 44.1236 21.0477 44.2224C20.9593 44.3212 20.8504 44.3995 20.7286 44.4516C20.6068 44.5038 20.4751 44.5286 20.3427 44.5244C20.211 44.5342 20.0786 44.5158 19.9545 44.4705C19.8304 44.4251 19.7174 44.3539 19.6229 44.2614C19.5284 44.1689 19.4546 44.0573 19.4065 43.9341C19.3584 43.8108 19.337 43.6787 19.3437 43.5465C19.2056 41.4903 18.6717 39.4803 17.7713 37.6273C17.3072 36.569 16.7856 35.5369 16.2089 34.5356C15.9159 35.391 15.6747 36.2634 15.4866 37.1479C15.1869 39.1637 14.9791 41.1885 14.7543 43.2042C14.4715 46.0527 13.3383 48.7496 11.5026 50.943C11.4314 51.0538 11.3379 51.1484 11.2279 51.2206C11.1179 51.2929 10.9941 51.3411 10.8643 51.3624C10.7345 51.3836 10.6018 51.3773 10.4746 51.3438C10.3474 51.3104 10.2286 51.2505 10.126 51.1682C10.0163 51.0948 9.92397 50.9983 9.85535 50.8855C9.78673 50.7726 9.7435 50.6461 9.72866 50.5148C9.71383 50.3835 9.72775 50.2506 9.76945 50.1252C9.81116 49.9999 9.87965 49.8851 9.97015 49.789C12.1969 47.2358 12.8672 44.144 13.046 40.8812C13.066 40.4808 13.105 40.0885 13.134 39.6871C13.0987 39.6594 13.0657 39.6289 13.0351 39.5961Z" fill="#47BBC6"/>
</svg>
