<svg width="60" height="61" viewBox="0 0 60 61" fill="none" xmlns="http://www.w3.org/2000/svg">
<path d="M19.6994 44.7291C19.5266 44.5687 19.3867 44.432 19.2357 44.3013C18.912 44.0131 18.5892 43.7348 18.2114 43.404C19.7204 41.9185 21.1095 40.532 22.5236 39.1733C22.6853 39.0336 22.8123 38.8587 22.8947 38.6624C22.977 38.466 23.0125 38.2535 22.9983 38.0413C22.9763 35.7338 22.9873 33.4154 22.9873 31.1089C22.9873 29.9977 22.4806 29.6233 21.3883 29.9333C18.3806 30.8002 15.7011 32.5345 13.6912 34.9154C11.6813 37.2963 10.4318 40.2161 10.1018 43.303C10.0416 43.8136 10.0083 44.327 10.0018 44.841C9.99117 48.1422 9.99117 51.4434 10.0018 54.7445C9.96953 55.2849 10.0848 55.8239 10.3356 56.3047C10.5864 56.7856 10.9633 57.1906 11.4268 57.4771C11.8902 57.7635 12.4231 57.9209 12.9691 57.9325C13.5152 57.9442 14.0544 57.8097 14.5298 57.5433C16.7724 56.4539 18.9929 55.3318 21.2255 54.2315C21.7807 53.9824 22.2468 53.5725 22.5623 53.0558C22.8779 52.5391 23.0282 51.9397 22.9933 51.3367V46.6435C21.948 47.6903 20.9017 48.7232 19.8344 49.7849C19.2737 49.1907 18.843 48.7163 18.3893 48.236C18.3893 48.2469 18.4213 48.1716 18.4753 48.1082C20.8257 45.7683 23.1832 43.4321 25.5476 41.0995C25.8254 40.818 26.1816 40.6248 26.5707 40.5449C26.9598 40.4649 27.3641 40.5016 27.732 40.6504C28.0999 40.7992 28.4147 41.0533 28.6361 41.3803C28.8576 41.7072 28.9757 42.0922 28.9753 42.486C28.9863 46.2256 28.9753 49.9532 28.9753 53.6928C28.9753 53.7572 28.9534 53.8106 28.9434 53.9067H26.9817V42.4751C26.2701 43.1802 25.6555 43.7675 25.0829 44.3984C24.975 44.5162 24.983 44.7826 24.983 44.9856C24.972 47.0901 24.983 49.1946 24.983 51.2991C25.028 52.2867 24.7725 53.265 24.2497 54.107C23.7269 54.9489 22.9608 55.6158 22.0509 56.0211C19.8843 57.1105 17.7104 58.1896 15.5292 59.2586C14.74 59.7038 13.8441 59.9298 12.9361 59.9127C12.0281 59.8955 11.1416 59.6358 10.3701 59.1611C9.59853 58.6863 8.97056 58.014 8.5524 57.2151C8.13424 56.4162 7.94138 55.5202 7.99415 54.6217C7.99415 51.3635 7.97216 48.0943 7.99415 44.8361C8.02065 41.0311 9.28698 37.3364 11.6044 34.3026C13.9219 31.2688 17.1665 29.0582 20.8547 28.0002C21.3385 27.8086 21.8641 27.7441 22.3805 27.8131C22.8969 27.882 23.3865 28.082 23.8019 28.3937C24.2174 28.7053 24.5445 29.1181 24.7516 29.5919C24.9587 30.0657 25.0387 30.5845 24.984 31.098V36.6964C25.6635 36.0131 26.2771 35.4575 26.7948 34.8375C26.9529 34.5507 27.0168 34.2222 26.9777 33.8977C26.9883 25.2123 26.992 16.5233 26.9887 7.8307C26.9887 4.47638 29.0473 2.43527 32.4331 2.43527H39.8612C39.6024 1.90147 39.3765 1.43106 39.1067 0.897262C39.6893 0.609071 40.2489 0.330777 40.9055 0C41.639 1.51722 42.4475 2.95917 43.0401 4.48728C43.2555 5.14746 43.2134 5.86368 42.922 6.49457C42.6306 7.12546 42.1111 7.62517 41.4661 7.89507C41.3034 7.94828 41.1651 8.05732 41.0763 8.20257C40.9874 8.34782 40.9538 8.51972 40.9815 8.68735C41.0134 9.84111 40.9925 10.9949 40.9925 12.1595C41.0492 13.2811 40.8143 14.3982 40.3104 15.404C39.8064 16.4098 39.0502 17.2705 38.1143 17.9035C37.6377 18.2142 37.2744 18.6685 37.0783 19.1994C36.8822 19.7303 36.8635 20.3096 37.0251 20.8518C37.0874 21.4013 37.3094 21.921 37.6643 22.3477C38.0191 22.7744 38.4914 23.0898 39.0238 23.2554C41.2769 24.0477 43.5338 24.831 45.7943 25.6055C47.3463 26.1393 48.9102 26.6315 50.4402 27.2297C52.4225 27.9173 54.1579 29.1655 55.4321 30.82C56.7062 32.4745 57.4632 34.4627 57.6095 36.5389C58.2991 42.9386 58.9247 49.3481 59.5712 55.7517C59.7111 57.0768 59.8301 58.4118 59.971 59.8003C59.3134 59.8755 58.6988 59.9389 57.9983 60.0142C57.8694 58.7753 57.7394 57.5571 57.6105 56.3281C57.1688 51.9376 56.7231 47.5431 56.2734 43.1446C56.0466 40.944 55.8737 38.7435 55.5939 36.5528C55.4731 34.9215 54.88 33.3593 53.8858 32.0536C52.8916 30.7479 51.5384 29.7542 49.9885 29.1915C46.269 27.7595 42.4745 26.5315 38.702 25.2301C37.5791 24.9151 36.5971 24.2324 35.9159 23.2935C35.2346 22.3546 34.8943 21.2146 34.9504 20.0595C34.8727 19.3299 35.0021 18.5933 35.3239 17.9326C35.6458 17.272 36.1474 16.7134 36.7722 16.32C35.7729 16.32 34.7566 16.2665 33.7642 16.3418C33.2036 16.3843 32.9557 16.8548 32.9647 17.4212C32.9757 18.8632 32.9647 20.3061 32.9647 21.759C32.9647 25.8075 32.9647 29.8462 32.9427 33.8957C32.9273 34.1615 32.9726 34.4273 33.0752 34.6734C33.1778 34.9194 33.3351 35.1394 33.5354 35.3169C33.9881 35.7229 34.3868 36.1933 34.8185 36.6419C34.8725 36.6202 34.9264 36.5885 34.9694 36.5667V34.3631C34.9694 33.1876 34.9584 32.0131 34.9694 30.8375C34.9536 30.3656 35.0526 29.8969 35.2582 29.471C35.4638 29.0451 35.7698 28.6745 36.1504 28.3906C36.531 28.1066 36.975 27.9177 37.4449 27.8397C37.9148 27.7618 38.3967 27.7971 38.8499 27.9427C41.4963 28.6473 43.9403 29.9542 45.9875 31.7594C48.0346 33.5646 49.6284 35.8184 50.6421 38.3414C50.6851 38.4483 50.728 38.5662 50.793 38.7474C50.1784 38.9722 49.5938 39.196 49.0791 39.3882C48.3356 38.1275 47.699 36.8667 46.8906 35.7348C44.8451 32.8813 41.8665 30.8168 38.4601 29.8917C37.5008 29.6144 36.9721 30.0195 36.9611 31.0138C36.9505 33.4283 36.9541 35.8427 36.9721 38.2572C36.9945 38.552 37.1158 38.831 37.3169 39.0495C37.7166 39.4981 38.1793 39.8824 38.643 40.3211C38.1044 40.7806 37.6187 41.1976 37.101 41.6462C36.998 41.5677 36.9008 41.482 36.8102 41.3897C35.1933 39.7873 33.5763 38.174 31.9484 36.5825C31.6133 36.2715 31.3486 35.8935 31.172 35.4735C30.9954 35.0535 30.9109 34.6011 30.9241 34.1463C30.9461 28.5696 30.9351 23.0038 30.9461 17.4272C30.9255 17.0122 30.9934 16.5976 31.1454 16.2103C31.2973 15.8231 31.5299 15.4719 31.8279 15.1796C32.1259 14.8874 32.4827 14.6606 32.875 14.5141C33.2674 14.3676 33.6865 14.3047 34.105 14.3294C35.4421 14.3185 36.7682 14.3185 38.1024 14.3403C38.4261 14.3403 38.609 14.2551 38.674 13.9342C38.7819 13.4321 38.8898 12.9439 39.0078 12.3427C37.4987 12.3427 36.0867 12.3536 34.6736 12.3427C34.2155 12.3626 33.7565 12.3341 33.3045 12.2576C32.5818 12.1094 31.9402 11.7011 31.5034 11.1116C31.0666 10.5221 30.8656 9.79321 30.9393 9.06552C31.0129 8.33783 31.356 7.66298 31.9022 7.17121C32.4484 6.67944 33.1591 6.40563 33.8971 6.40261C35.7079 6.38083 37.5197 6.4135 39.3305 6.38082C39.7429 6.36104 40.1486 6.27057 40.5298 6.11343C40.746 6.02556 40.9212 5.86063 41.0209 5.65112C41.1206 5.44162 41.1376 5.20272 41.0684 4.98146C40.9825 4.44767 40.6267 4.39419 40.163 4.40409C37.4998 4.42588 34.8265 4.41498 32.1683 4.41498C31.7347 4.38243 31.2993 4.44347 30.8918 4.59388C30.4844 4.74428 30.1148 4.98047 29.8084 5.28617C29.502 5.59186 29.2662 5.95977 29.1172 6.36452C28.9682 6.76928 28.9096 7.20126 28.9454 7.63064C28.9454 16.3801 28.949 25.1334 28.9564 33.8907C28.9749 34.4168 28.8796 34.9406 28.6769 35.4271C28.4742 35.9136 28.1688 36.3515 27.7811 36.7113C25.2158 39.2218 22.6845 41.7541 20.1272 44.2756C20.0033 44.4431 19.8597 44.5954 19.6994 44.7291ZM38.9528 8.38331C37.2539 8.38331 35.611 8.37242 33.9721 8.39421C33.8411 8.39123 33.7108 8.4146 33.5892 8.46292C33.4675 8.51124 33.357 8.58349 33.2644 8.67532C33.1717 8.76715 33.0988 8.87663 33.0501 8.99717C33.0013 9.11771 32.9777 9.24681 32.9807 9.37664C32.9795 9.50598 33.0043 9.63426 33.0537 9.75399C33.1031 9.87372 33.1761 9.9825 33.2684 10.074C33.3607 10.1654 33.4705 10.2377 33.5913 10.2867C33.7121 10.3357 33.8415 10.3602 33.9721 10.3591C34.3818 10.3808 34.8025 10.3699 35.2222 10.3699H38.9618C38.9538 9.6767 38.9538 9.06863 38.9538 8.3843L38.9528 8.38331Z" fill="#47BBC6"/>
<path d="M15.9915 0.478516H18.0721C18.0721 1.63227 17.9862 2.76523 18.0831 3.87541C18.4278 8.28503 20.3914 12.4165 23.6025 15.4882C24.0885 15.9078 24.4678 16.4351 24.7095 17.0272C24.9512 17.6193 25.0485 18.2596 24.9936 18.8961C24.9286 19.6121 25.0365 20.3489 24.9286 21.054C24.8248 21.9851 24.4493 22.866 23.8482 23.5889C23.247 24.3119 22.4462 24.8454 21.5438 25.1243C18.0401 26.3534 14.5364 27.6131 11.0118 28.7778C6.74256 30.1989 4.59697 33.1353 4.23121 37.5275C3.85346 41.9504 3.35779 46.3515 2.90509 50.7645C2.60528 53.7237 2.30549 56.6719 2.00569 59.6321C1.99469 59.7311 1.97371 59.8302 1.95172 59.9847C1.30514 59.9203 0.679553 59.8569 0 59.7925C0.139908 58.3397 0.279821 56.9512 0.420729 55.5618C0.820466 51.6195 1.2202 47.6809 1.61994 43.7459C1.88976 41.0967 2.05164 38.4366 2.47137 35.8082C2.7379 33.7975 3.58163 31.905 4.9022 30.3558C6.22277 28.8066 7.9646 27.6659 9.92048 27.0694C13.4781 25.8087 17.0568 24.5935 20.6254 23.3516C21.3453 23.1608 21.9762 22.7285 22.4106 22.1284C22.845 21.5284 23.0561 20.7977 23.0079 20.0607C23.0728 19.3349 22.9707 18.604 22.7093 17.923C22.4479 17.242 22.0341 16.6286 21.4989 16.129C17.9613 12.4349 15.9896 7.53612 15.9905 2.44337C15.9785 1.81351 15.9915 1.18364 15.9915 0.478516Z" fill="#47BBC6"/>
<path d="M48.0992 57.3573C47.3877 57.5385 46.7301 57.7207 46.0076 57.902V59.8539H43.9919V57.9129C43.2584 57.7208 42.5798 57.5385 41.8683 57.3464C41.5445 57.8911 41.2107 58.4576 40.855 59.0666C40.2833 58.7359 39.7447 58.4368 39.1561 58.0941C39.4899 57.5068 39.8026 56.9403 40.0835 56.4273C39.5548 55.9322 39.0481 55.4548 38.4555 54.8893L36.8386 55.7975C36.5048 55.231 36.192 54.6863 35.8393 54.099C36.4319 53.7465 37.0035 53.4157 37.5751 53.0839C37.3922 52.3907 37.2083 51.7163 37.0035 50.9903H35.0078V49.0354H36.9695C37.1694 48.3085 37.3573 47.6489 37.5521 46.9091C37.0235 46.5991 36.4528 46.2575 35.8273 45.894C36.151 45.3384 36.4628 44.7937 36.7976 44.1956C37.4122 44.5372 37.9838 44.8581 38.5115 45.1463C39.0292 44.6125 39.5108 44.1203 40.0535 43.5617C39.7837 43.0913 39.4609 42.5258 39.1051 41.9167C39.6877 41.586 40.2154 41.276 40.804 40.9343C41.1488 41.5008 41.4835 42.0663 41.8283 42.6437C42.5079 42.4624 43.1754 42.2911 43.92 42.099V40.146H45.9356V42.0901C46.6691 42.2822 47.3477 42.4644 48.0702 42.6565C48.394 42.1118 48.7278 41.5454 49.0945 40.9363C49.6662 41.2671 50.1938 41.5662 50.7934 41.9088C50.4596 42.4961 50.1468 43.0626 49.845 43.6182C50.3737 44.0886 50.9014 44.558 51.505 45.1037C51.8927 44.8898 52.4643 44.5699 53.1109 44.2064C53.4447 44.7729 53.7575 45.3176 54.1102 45.9049C53.5106 46.2574 52.946 46.5783 52.3744 46.9091C52.5573 47.6023 52.7412 48.2768 52.935 49.0027H54.9187V50.9576H52.957C52.7571 51.6845 52.5693 52.3441 52.3744 53.073C52.913 53.3939 53.4736 53.7247 54.0992 54.099C53.7754 54.6546 53.4637 55.1993 53.1179 55.7975C52.5033 55.4558 51.9317 55.1458 51.393 54.8467C50.8864 55.3805 50.4117 55.8936 49.873 56.4709C50.1209 56.9087 50.4446 57.4751 50.8004 58.0951C50.2178 58.4259 49.6902 58.7358 49.1015 59.0854C48.7848 58.5001 48.451 57.9337 48.0992 57.3573ZM44.9732 55.947C46.1588 55.947 47.3177 55.5988 48.3035 54.9462C49.2894 54.2937 50.0579 53.3662 50.512 52.2809C50.9661 51.1957 51.0854 50.0014 50.8548 48.849C50.6241 47.6966 50.0539 46.6378 49.2163 45.8064C48.3786 44.975 47.3111 44.4084 46.1485 44.1781C44.986 43.9478 43.7807 44.0642 42.6849 44.5126C41.5891 44.961 40.652 45.7212 39.9921 46.6972C39.3321 47.6732 38.979 48.8212 38.9772 49.996C38.9764 51.5723 39.607 53.0845 40.7306 54.2003C41.8541 55.3162 43.3786 55.9444 44.9693 55.947H44.9732Z" fill="#47BBC6"/>
<path d="M33 53.9494H30.9843V53.3552C30.9843 49.8514 30.9953 46.3366 30.9733 42.8318C30.917 42.389 31.0076 41.9401 31.2313 41.5528C31.455 41.1655 31.7997 40.8608 32.2135 40.6847C32.6306 40.5106 33.0943 40.4791 33.5315 40.5951C33.9687 40.7111 34.3544 40.9681 34.6279 41.3254C34.9617 41.6671 35.3394 41.9553 35.7172 42.2871C35.1676 42.8209 34.7179 43.2596 34.1542 43.7825C33.8304 43.3764 33.5077 42.9496 33.1729 42.5327C33.1079 42.5644 33.044 42.6079 32.99 42.6396C33 46.3851 33 50.1465 33 53.9494Z" fill="#47BBC6"/>
<path d="M18.9961 35.0833V33.2017H20.9368V35.0833H18.9961Z" fill="#47BBC6"/>
<path d="M39.0156 33.1699H40.9234V35.0932H39.0156V33.1699Z" fill="#47BBC6"/>
<path d="M15.9351 38.0849H14.0273V36.1616H15.9351V38.0849Z" fill="#47BBC6"/>
<path d="M41.0312 37.1333H42.93V39.0565H41.0312V37.1333Z" fill="#47BBC6"/>
<path d="M17.0156 40.0607V38.1592H18.9454V40.0607H17.0156Z" fill="#47BBC6"/>
<path d="M13.0117 44.024V42.1226H14.9415V44.024H13.0117Z" fill="#47BBC6"/>
<path d="M14.9961 47.9765V46.0859H16.9368V47.9765H14.9961Z" fill="#47BBC6"/>
<path d="M13.9422 50.9576H12.0234V49.0562H13.9422V50.9576Z" fill="#47BBC6"/>
<path d="M17.95 53.9383H16.0312V52.0259H17.95V53.9383Z" fill="#47BBC6"/>
<path d="M13.95 55.9153H12.0312V54.0029H13.95V55.9153Z" fill="#47BBC6"/>
<path d="M42.0234 46.0542H43.9222V47.9775H42.0234V46.0542Z" fill="#47BBC6"/>
<path d="M47.9641 48.0518V49.9423H46.0234V48.0518H47.9641Z" fill="#47BBC6"/>
<path d="M42.9524 50.0283V51.9407H41.0117V50.0283H42.9524Z" fill="#47BBC6"/>
<path d="M45 53.9383V52.0259H46.9407V53.9383H45Z" fill="#47BBC6"/>
</svg>
