<svg width="60" height="61" viewBox="0 0 60 61" fill="none" xmlns="http://www.w3.org/2000/svg">
<path d="M50.3794 0C51.2951 0.23511 52.2298 0.411201 53.1155 0.715172C54.7267 1.29446 56.1613 2.26814 57.2841 3.54436C57.7619 4.07262 57.8019 4.62645 57.3741 4.98355C56.9742 5.32588 56.4384 5.24817 55.9745 4.7386C55.168 3.81717 54.1715 3.07519 53.0512 2.56195C51.9309 2.04871 50.7124 1.77597 49.4767 1.76185C48.0032 1.72057 46.542 2.03716 45.2224 2.68362C43.9028 3.33008 42.7654 4.2865 41.9106 5.46834C41.0559 6.65018 40.5102 8.02103 40.3219 9.45972C40.1335 10.8984 40.3082 12.3606 40.8305 13.717C41.0764 14.1491 41.1602 14.6524 41.0674 15.1392C40.9746 15.6259 40.711 16.065 40.3227 16.38C40.0802 16.6451 39.7496 16.8165 39.3903 16.8632C39.0309 16.9099 38.6664 16.8289 38.3623 16.6348C37.2627 16.0672 36.203 15.3815 35.0494 14.9211C33.6091 14.377 32.1373 13.9171 30.6419 13.5439C29.4773 13.2311 29.4583 13.2793 29.3083 12.1146C29.2592 11.7063 29.1202 11.3134 28.901 10.9634C28.6817 10.6134 28.3875 10.3147 28.0388 10.0882C27.6902 9.86159 27.2955 9.71261 26.8823 9.6516C26.4691 9.59059 26.0474 9.61903 25.6465 9.73493C25.1021 9.89827 24.6203 10.2191 24.2637 10.6556C23.9071 11.0921 23.6923 11.6241 23.6472 12.1824C23.5382 13.2301 23.4782 13.299 22.4336 13.5046C19.644 14.039 16.9937 15.125 14.6431 16.6967C13.8374 17.2348 13.6785 17.225 12.9217 16.618C12.3672 16.1491 11.6532 15.9037 10.9226 15.9309C10.1921 15.958 9.49891 16.2558 8.98201 16.7646C8.47367 17.2848 8.18807 17.9774 8.18435 18.6991C8.18063 19.4208 8.45907 20.1162 8.96202 20.6415C9.49884 21.2484 9.52883 21.4835 9.08097 22.1397C7.38778 24.556 6.23789 27.3001 5.70809 30.1885C5.57913 30.884 5.3602 31.0404 4.50848 31.1289C4.08083 31.1531 3.66409 31.2711 3.28888 31.4745C2.91367 31.6778 2.58951 31.9613 2.34022 32.3041C2.09092 32.6469 1.92282 33.0403 1.84826 33.4554C1.7737 33.8705 1.79457 34.2967 1.90934 34.7028C2.06331 35.2415 2.37958 35.7217 2.81646 36.0799C3.25334 36.4382 3.7903 36.6577 4.35653 36.7096C5.50116 36.8365 5.53015 36.8464 5.76907 37.9826C6.32105 40.7269 7.43497 43.3318 9.04299 45.6389C9.54282 46.3639 9.52083 46.5596 8.95302 47.2345C8.4681 47.7745 8.20801 48.4747 8.22469 49.1952C8.24137 49.9156 8.53358 50.6034 9.04299 51.1212C9.57096 51.6345 10.2806 51.9264 11.0227 51.9356C11.7649 51.9448 12.4818 51.6705 13.0227 51.1703C13.6295 50.6509 13.8784 50.6224 14.5452 51.072C17.0053 52.7358 19.7962 53.8671 22.7335 54.3911C23.4402 54.518 23.5792 54.7236 23.6892 55.6443C23.7319 56.1634 23.9201 56.6606 24.2328 57.0807C24.5456 57.5008 24.9706 57.8273 25.4606 58.024C25.9167 58.2272 26.4217 58.3001 26.9178 58.2343C27.414 58.1686 27.8814 57.9668 28.2667 57.6521C28.5933 57.4114 28.8612 57.1018 29.0506 56.7461C29.24 56.3904 29.3461 55.9975 29.3613 55.5961C29.4313 54.6754 29.5612 54.5485 30.4759 54.3724C33.2899 53.8471 35.9649 52.7608 38.3363 51.1802C39.1921 50.6126 39.311 50.6224 40.0978 51.2589C40.6567 51.7222 41.3725 51.9614 42.1026 51.9288C42.8327 51.8961 43.5235 51.5941 44.0375 51.0828C44.5334 50.5666 44.8123 49.8847 44.8178 49.1743C44.8234 48.4639 44.5553 47.7778 44.0674 47.2541C43.4906 46.598 43.4676 46.3924 43.9775 45.6585C45.5798 43.3484 46.6932 40.7446 47.2514 38.0022C47.4803 36.8759 47.5103 36.8562 48.6509 36.7234C49.152 36.6727 49.6304 36.4921 50.0373 36.2001C50.4443 35.9081 50.7654 35.5152 50.9677 35.0613C51.17 34.6074 51.2464 34.1088 51.189 33.6164C51.1317 33.124 50.9427 32.6554 50.6413 32.2583C50.3995 31.9339 50.0875 31.6664 49.728 31.4751C49.3684 31.2837 48.9702 31.1732 48.562 31.1516C47.5573 31.0729 47.4623 30.9755 47.2624 29.9868C46.7507 27.3759 45.7266 24.8882 44.2474 22.663C44.0053 22.4007 43.8552 22.0688 43.8193 21.7162C43.7833 21.3636 43.8633 21.0089 44.0475 20.7044C44.6243 19.8132 45.2311 18.9514 46.5046 19.1088C47.0325 19.1777 47.5493 19.3144 48.0871 19.3833C49.5124 19.5693 50.9622 19.4155 52.3144 18.9348C53.6666 18.4541 54.8816 17.6606 55.857 16.6212C56.8324 15.5817 57.5395 14.3268 57.9189 12.9621C58.2983 11.5974 58.3387 10.163 58.0368 8.77974C57.9969 8.59381 57.9369 8.39805 57.9079 8.21212C57.875 8.09888 57.866 7.9802 57.8817 7.86342C57.8973 7.74664 57.9371 7.63426 57.9987 7.53325C58.0603 7.43225 58.1423 7.34479 58.2396 7.27627C58.337 7.20775 58.4476 7.15965 58.5647 7.13495C58.68 7.10054 58.8016 7.09124 58.921 7.10771C59.0404 7.12418 59.1547 7.16601 59.256 7.23031C59.3573 7.29462 59.4431 7.37985 59.5076 7.48008C59.5721 7.58031 59.6136 7.69315 59.6293 7.81077C59.8744 9.01289 59.9877 10.2374 59.9672 11.4633C59.8012 13.7806 58.8583 15.9781 57.2863 17.7111C55.7142 19.4441 53.602 20.6146 51.2811 21.0389C49.8382 21.341 48.3442 21.3141 46.9135 20.9602C46.2567 20.794 45.8888 20.9209 45.7689 21.3025C46.6686 23.2995 47.4903 25.1312 48.3061 26.9717C48.3908 27.1481 48.4477 27.3362 48.475 27.5295C48.4921 28.0834 48.6915 28.6168 49.0433 29.0495C49.395 29.4822 49.88 29.7907 50.4254 29.9288C51.2823 30.2933 51.9953 30.9225 52.4566 31.7211C52.918 32.5198 53.1026 33.4445 52.9825 34.3556C52.8892 35.2861 52.5082 36.1662 51.8908 36.877C51.2733 37.5878 50.4493 38.0952 49.5297 38.3308C49.3421 38.3602 49.1698 38.4502 49.04 38.5867C48.9102 38.7231 48.8303 38.8982 48.8129 39.0843C48.2724 41.4283 47.3411 43.6681 46.0568 45.7127C45.9278 45.9281 45.7879 46.1435 45.6569 46.3491C46.3285 47.2394 46.6544 48.3365 46.576 49.4426C46.4975 50.5486 46.0198 51.5905 45.2291 52.3803C43.6176 53.9474 41.4583 54.1137 39.1201 52.8014C38.9411 52.8997 38.7322 53.0168 38.5433 53.1339C36.4238 54.4445 34.0903 55.3853 31.6455 55.9148C31.4751 55.9357 31.3164 56.0113 31.1941 56.13C31.0717 56.2486 30.9925 56.4036 30.9688 56.571C30.7291 57.5462 30.1652 58.4146 29.3667 59.0383C28.5681 59.6621 27.5807 60.0055 26.5612 60.014C25.5315 60.0226 24.5282 59.6932 23.7101 59.0778C22.8919 58.4624 22.3056 57.5963 22.0437 56.6162C22.0163 56.4314 21.9272 56.2607 21.7904 56.1312C21.6535 56.0017 21.4767 55.9208 21.288 55.9011C18.9078 55.3683 16.6324 54.4555 14.5522 53.1988C14.3332 53.0719 14.1143 52.9342 13.9054 52.8053C11.4482 54.1176 9.38787 53.9799 7.7764 52.3843C6.17693 50.8172 6.02498 48.7612 7.34854 46.3432C5.90773 44.2135 4.86346 41.8485 4.26456 39.3588C4.23739 39.0914 4.1222 38.84 3.93652 38.6429C3.75084 38.4458 3.50483 38.3137 3.2359 38.2669C2.27786 37.9805 1.44218 37.392 0.85774 36.592C0.273302 35.792 -0.0274209 34.8249 0.00196618 33.8401C0.0265895 32.8559 0.375737 31.9062 0.996756 31.1344C1.61777 30.3625 2.47699 29.8102 3.44483 29.5609C3.64063 29.5283 3.81996 29.4328 3.95486 29.2894C4.08975 29.146 4.17264 28.9626 4.19059 28.768C4.74801 26.3453 5.72894 24.0362 7.08963 21.9439C7.18667 21.8402 7.24458 21.7068 7.25367 21.566C7.26277 21.4253 7.22251 21.2857 7.13961 21.1707C6.56846 20.3029 6.31712 19.2685 6.42756 18.2403C6.538 17.2121 7.00352 16.2523 7.74642 15.5212C8.48951 14.7894 9.46274 14.327 10.5073 14.2097C11.5518 14.0923 12.6059 14.3268 13.4975 14.8749C13.6165 14.9437 13.7364 15.0116 13.7974 14.9241C15.6578 14.1115 17.5092 13.2793 19.3796 12.5159C20.0513 12.281 20.7396 12.0946 21.4389 11.9581C21.5722 11.9458 21.6975 11.8899 21.7948 11.7993C21.8921 11.7087 21.9558 11.5887 21.9757 11.4584C22.1973 10.4467 22.7633 9.53978 23.5801 8.88781C24.3969 8.23584 25.4155 7.87794 26.4672 7.87335C27.5189 7.86876 28.5406 8.21776 29.3633 8.86257C30.1859 9.50738 30.7601 10.4093 30.9908 11.4191C31.0058 11.551 31.0648 11.6743 31.1584 11.7698C31.2521 11.8654 31.3752 11.9278 31.5086 11.9473C34.0328 12.486 36.4431 13.4512 38.6322 14.8001C38.7673 14.8796 38.9068 14.9515 39.0501 15.0156C39.1001 15.0352 39.1591 15.0156 39.309 15.0057C39.2786 14.801 39.2355 14.5983 39.1801 14.3988C38.5963 12.903 38.3654 11.2963 38.5048 9.69993C38.6443 8.10354 39.1504 6.55918 39.985 5.1834C40.8196 3.80762 41.9608 2.63637 43.3227 1.75804C44.6845 0.879717 46.2312 0.317262 47.8462 0.113134C47.9403 0.0934784 48.0309 0.0603278 48.1151 0.0147553C48.8669 -6.00087e-07 49.6226 0 50.3794 0Z" fill="#47BBC6"/>
<path d="M26.5092 53.0593C21.7844 53.0204 17.234 51.2976 13.7012 48.21C10.1684 45.1225 7.89265 40.8795 7.29554 36.2671C6.89129 33.1141 7.30183 29.9117 8.48915 26.9562C8.81704 26.124 9.25489 25.8396 9.82271 26.0708C10.3695 26.2961 10.4795 26.7762 10.1606 27.569C8.83401 30.7996 8.54539 34.3526 9.33363 37.7495C10.1219 41.1464 11.9491 44.224 14.5691 46.5677C19.6935 51.1499 25.7235 52.4622 32.2633 50.2075C35.3121 49.2657 38.0221 47.4827 40.0716 45.0703C42.1211 42.6578 43.424 39.7172 43.8255 36.5977C44.5696 32.2496 43.5726 27.7869 41.0438 24.1469C38.515 20.5069 34.6513 17.9727 30.264 17.0767C23.2193 15.6178 17.3292 17.84 12.7028 23.2643C12.5538 23.4403 12.4239 23.646 12.2649 23.8122C12.1924 23.9056 12.1016 23.9839 11.998 24.0424C11.8944 24.101 11.78 24.1386 11.6614 24.1532C11.5429 24.1677 11.4226 24.1589 11.3075 24.1272C11.1925 24.0955 11.085 24.0416 10.9913 23.9686C10.9013 23.8989 10.8262 23.8124 10.7704 23.7139C10.7146 23.6155 10.6793 23.5071 10.6663 23.3951C10.6534 23.2831 10.6632 23.1697 10.6951 23.0615C10.7271 22.9533 10.7805 22.8523 10.8524 22.7645C11.2884 22.1578 11.7671 21.5819 12.2849 21.0411C17.7371 15.5775 24.2939 13.5648 31.7865 15.6562C39.169 17.722 43.7825 22.7154 45.448 30.0982C45.9735 32.5753 45.9901 35.1308 45.497 37.6144C45.0038 40.0979 44.0107 42.4593 42.5762 44.5595C41.1417 46.6597 39.2947 48.4563 37.144 49.8436C34.9933 51.2308 32.5824 52.1807 30.053 52.6373C28.8764 52.8439 27.6828 52.9216 26.5092 53.0593Z" fill="#47BBC6"/>
<path d="M40.7283 38.2936C40.7226 39.5098 40.3504 40.697 39.659 41.7051C38.9675 42.7132 37.9878 43.4969 36.8437 43.9571C35.6996 44.4173 34.4426 44.5332 33.2315 44.2904C32.0204 44.0475 30.9098 43.4566 30.04 42.5926C29.1701 41.7285 28.5802 40.63 28.3448 39.436C28.1095 38.2421 28.2392 37.0062 28.7176 35.8848C29.196 34.7633 30.0016 33.8067 31.0325 33.1358C32.0634 32.4649 33.2734 32.11 34.5093 32.1158C36.1657 32.1262 37.7503 32.7823 38.916 33.9402C40.0817 35.0982 40.7334 36.6636 40.7283 38.2936ZM38.9469 38.2739C38.9469 37.4048 38.6851 36.5552 38.1947 35.8325C37.7042 35.1097 37.0071 34.5463 36.1913 34.2132C35.3756 33.8802 34.4778 33.7926 33.6114 33.9614C32.7451 34.1302 31.9491 34.548 31.3239 35.1618C30.6987 35.7756 30.2724 36.5581 30.0989 37.4102C29.9254 38.2624 30.0124 39.146 30.349 39.9495C30.6856 40.7529 31.2567 41.4402 31.9901 41.9245C32.7234 42.4087 33.5862 42.6682 34.4694 42.6701C35.0568 42.671 35.6387 42.558 36.1818 42.3376C36.7248 42.1171 37.2184 41.7935 37.6343 41.3852C38.0502 40.9769 38.3803 40.492 38.6057 39.9581C38.8311 39.4243 38.9474 38.852 38.9479 38.2739H38.9469Z" fill="#47BBC6"/>
<path d="M25.126 43.8739C25.127 44.6266 24.901 45.3628 24.4766 45.9891C24.0522 46.6154 23.4485 47.1038 22.7419 47.3923C22.0353 47.6808 21.2576 47.7566 20.5073 47.6099C19.757 47.4633 19.0677 47.1009 18.5268 46.5686C17.9859 46.0363 17.6176 45.3581 17.4686 44.6197C17.3196 43.8813 17.3965 43.116 17.6897 42.4207C17.983 41.7254 18.4792 41.1314 19.1157 40.7137C19.7522 40.2961 20.5003 40.0737 21.2653 40.0747C22.2873 40.0806 23.2658 40.4828 23.9885 41.194C24.7113 41.9052 25.12 42.8681 25.126 43.8739ZM23.3446 43.8739C23.3416 43.4682 23.2164 43.0726 22.9849 42.7369C22.7534 42.4012 22.426 42.1407 22.0441 41.9881C21.6621 41.8356 21.2427 41.7979 20.839 41.8799C20.4353 41.9619 20.0653 42.1599 19.7759 42.4488C19.4865 42.7377 19.2907 43.1046 19.2132 43.503C19.1357 43.9014 19.1799 44.3135 19.3404 44.6872C19.5009 45.0608 19.7704 45.3793 20.1148 45.6022C20.4592 45.8252 20.863 45.9426 21.2752 45.9396C21.827 45.9321 22.3535 45.7112 22.741 45.3246C23.1284 44.938 23.3456 44.4168 23.3456 43.8739H23.3446Z" fill="#47BBC6"/>
<path d="M26.0808 26.3952C26.0747 27.0902 25.859 27.7677 25.4612 28.342C25.0634 28.9162 24.5013 29.3614 23.8462 29.6211C23.1911 29.8807 22.4724 29.9432 21.7811 29.8006C21.0899 29.658 20.4572 29.3168 19.9632 28.82C19.4692 28.3233 19.1362 27.6935 19.0062 27.0103C18.8763 26.3272 18.9553 25.6215 19.2333 24.9826C19.5113 24.3437 19.9757 23.8003 20.5677 23.4213C21.1598 23.0424 21.8528 22.8449 22.559 22.8538C23.5013 22.8698 24.3993 23.2505 25.0585 23.9133C25.7176 24.5761 26.0849 25.4678 26.0808 26.3952ZM22.519 28.1285C22.8736 28.1295 23.2205 28.0265 23.5154 27.8329C23.8104 27.6392 24.04 27.3635 24.1753 27.041C24.3105 26.7184 24.3451 26.3635 24.2747 26.0215C24.2043 25.6796 24.032 25.3659 23.7799 25.1206C23.5277 24.8753 23.2071 24.7093 22.8588 24.6439C22.5105 24.5785 22.1503 24.6165 21.824 24.7532C21.4978 24.8899 21.2203 25.119 21.0268 25.4114C20.8333 25.7038 20.7326 26.0463 20.7376 26.3952C20.7504 26.8543 20.9426 27.2907 21.2743 27.6138C21.6059 27.9369 22.0514 28.1216 22.518 28.1295L22.519 28.1285Z" fill="#47BBC6"/>
<path d="M13.9923 36.5613C13.4636 36.5596 12.9473 36.4038 12.5084 36.1136C12.0695 35.8235 11.7278 35.4119 11.5263 34.9309C11.3248 34.4499 11.2725 33.921 11.3761 33.4108C11.4797 32.9006 11.7345 32.432 12.1083 32.0641C12.4822 31.6962 12.9584 31.4455 13.4768 31.3435C13.9953 31.2416 14.5329 31.293 15.0217 31.4913C15.5105 31.6896 15.9287 32.0259 16.2235 32.4578C16.5184 32.8896 16.6767 33.3978 16.6784 33.918C16.675 34.618 16.3909 35.2884 15.8879 35.7834C15.3849 36.2784 14.7037 36.5579 13.9923 36.5613ZM14.0123 33.0563C13.835 33.0514 13.6602 33.0987 13.5103 33.1922C13.3605 33.2858 13.2424 33.4212 13.1713 33.5811C13.1002 33.7411 13.0793 33.9183 13.1112 34.09C13.1431 34.2618 13.2264 34.4202 13.3504 34.5451C13.4744 34.67 13.6335 34.7555 13.8072 34.7908C13.981 34.8261 14.1615 34.8096 14.3257 34.7432C14.4898 34.6769 14.63 34.5639 14.7285 34.4186C14.8269 34.2734 14.879 34.1025 14.878 33.9279C14.8774 33.7007 14.787 33.4827 14.626 33.3199C14.465 33.1571 14.2461 33.0622 14.0153 33.0553L14.0123 33.0563Z" fill="#47BBC6"/>
<path d="M47.3924 10.0162C46.8657 10.0145 46.3513 9.85929 45.9141 9.57022C45.4769 9.28116 45.1364 8.87117 44.9357 8.39195C44.7349 7.91274 44.6829 7.38575 44.7861 6.87746C44.8893 6.36917 45.1431 5.90233 45.5156 5.53581C45.888 5.16929 46.3624 4.9195 46.8789 4.81795C47.3955 4.7164 47.931 4.76764 48.418 4.96519C48.905 5.16274 49.3216 5.49775 49.6153 5.928C49.9091 6.35825 50.0668 6.86447 50.0686 7.3828C50.071 7.72928 50.0034 8.07278 49.8697 8.39335C49.7361 8.71391 49.5391 9.00515 49.2901 9.25016C49.0411 9.49516 48.7452 9.68906 48.4194 9.82057C48.0936 9.95208 47.7445 10.0186 47.3924 10.0162ZM47.3924 8.24552C47.5643 8.24728 47.733 8.19922 47.8773 8.10734C48.0216 8.01546 48.1352 7.88383 48.204 7.72883C48.2728 7.57384 48.2938 7.40235 48.2642 7.23573C48.2347 7.0691 48.1559 6.91473 48.0379 6.79182C47.9198 6.66892 47.7676 6.58292 47.6002 6.54456C47.4328 6.50619 47.2576 6.51714 47.0965 6.57606C46.9354 6.63498 46.7954 6.73925 46.6941 6.87588C46.5928 7.01251 46.5346 7.17547 46.5268 7.34443C46.5169 7.46096 46.5321 7.57822 46.5714 7.68856C46.6108 7.7989 46.6734 7.89982 46.7551 7.9847C46.8368 8.06959 46.9359 8.13652 47.0457 8.18113C47.1555 8.22574 47.2737 8.24701 47.3924 8.24356V8.24552Z" fill="#47BBC6"/>
<path d="M49.8046 11.7889C50.3311 11.7951 50.844 11.9545 51.2785 12.2471C51.7131 12.5397 52.05 12.9523 52.2467 13.433C52.4433 13.9137 52.491 14.4408 52.3837 14.9481C52.2764 15.4554 52.0189 15.9201 51.6437 16.2836C51.2684 16.6471 50.7922 16.8932 50.2751 16.9908C49.758 17.0885 49.2231 17.0333 48.7378 16.8322C48.2525 16.6312 47.8384 16.2933 47.548 15.8611C47.2575 15.4289 47.1036 14.9218 47.1055 14.4036C47.1056 14.0568 47.1758 13.7134 47.312 13.3935C47.4482 13.0736 47.6476 12.7836 47.8988 12.5402C48.15 12.2969 48.4478 12.1052 48.775 11.9762C49.1022 11.8472 49.4522 11.7835 49.8046 11.7889ZM49.7746 15.284C49.9465 15.2858 50.115 15.2377 50.2594 15.1459C50.4037 15.054 50.5173 14.9224 50.5862 14.7674C50.655 14.6124 50.6759 14.4409 50.6464 14.2743C50.6168 14.1076 50.5381 13.9532 50.42 13.8303C50.3019 13.7074 50.1497 13.6214 49.9823 13.5831C49.8149 13.5447 49.6397 13.5557 49.4786 13.6146C49.3175 13.6735 49.1776 13.7778 49.0763 13.9144C48.975 14.051 48.9168 14.214 48.9089 14.383C48.902 14.4987 48.9191 14.6146 48.9593 14.7236C48.9995 14.8325 49.0619 14.9323 49.1427 15.0166C49.2235 15.101 49.3209 15.1683 49.4291 15.2143C49.5372 15.2602 49.6538 15.284 49.7716 15.284H49.7746Z" fill="#47BBC6"/>
<path d="M33.5631 24.7336C33.7987 24.7297 34.0301 24.795 34.2277 24.9212C34.4254 25.0473 34.5803 25.2286 34.6727 25.4419C34.7651 25.6552 34.7908 25.8907 34.7465 26.1184C34.7022 26.3461 34.5899 26.5557 34.4239 26.7202C34.258 26.8848 34.0459 26.9969 33.8148 27.0423C33.5838 27.0877 33.3443 27.0642 33.1268 26.9749C32.9094 26.8856 32.724 26.7346 32.5942 26.541C32.4645 26.3475 32.3963 26.1203 32.3985 25.8885C32.405 25.5857 32.5295 25.297 32.7463 25.082C32.9631 24.8671 33.2555 24.7423 33.5631 24.7336Z" fill="#47BBC6"/>
<path d="M24.0526 35.2486C24.0566 35.48 23.9905 35.7073 23.8627 35.9016C23.735 36.0959 23.5513 36.2483 23.3352 36.3396C23.119 36.4308 22.8802 36.4567 22.649 36.4138C22.4179 36.371 22.205 36.2615 22.0374 36.0992C21.8697 35.9368 21.755 35.7291 21.7077 35.5024C21.6605 35.2757 21.6829 35.0403 21.7721 34.8261C21.8613 34.612 22.0132 34.4288 22.2086 34.3C22.4039 34.1711 22.6339 34.1024 22.869 34.1025C23.1784 34.1065 23.4743 34.2279 23.6949 34.4415C23.9155 34.655 24.0436 34.9442 24.0526 35.2486Z" fill="#47BBC6"/>
<path d="M34.7678 37.6174C34.769 37.8494 34.7001 38.0765 34.5697 38.2698C34.4394 38.4632 34.2536 38.614 34.0359 38.7031C33.8182 38.7923 33.5786 38.8157 33.3473 38.7704C33.1161 38.7252 32.9037 38.6133 32.7373 38.4489C32.5709 38.2846 32.4579 38.0753 32.4127 37.8476C32.3675 37.6199 32.3921 37.3841 32.4834 37.1702C32.5747 36.9563 32.7286 36.774 32.9255 36.6464C33.1224 36.5188 33.3535 36.4517 33.5892 36.4537C33.9001 36.4612 34.196 36.5863 34.4155 36.8031C34.6351 37.0198 34.7612 37.3115 34.7678 37.6174Z" fill="#47BBC6"/>
</svg>
