<svg width="60" height="61" viewBox="0 0 60 61" fill="none" xmlns="http://www.w3.org/2000/svg">
<path d="M59.9713 35.3918C59.7714 36.6815 59.6404 37.9802 59.3714 39.2519C58.2935 44.3077 55.7463 48.9318 52.05 52.5431C48.3537 56.1544 43.6732 58.5918 38.5968 59.5489C37.567 59.737 36.5202 59.8621 35.4824 60.0142H31.9652C30.9094 59.8621 29.8436 59.728 28.7878 59.5399C26.5415 59.1199 24.3618 58.3997 22.3072 57.3987C22.2352 57.3627 22.1822 57.3087 22.0742 57.2466C22.3342 56.7184 22.5931 56.1991 22.874 55.6258C25.8842 57.1188 29.1715 57.9698 32.5275 58.1248C35.8836 58.2798 39.2352 57.7354 42.37 56.5262C46.8053 54.9461 50.636 52.0176 53.3257 48.1507C59.8953 38.6025 59.5824 28.9463 53.4507 19.219L54.8504 18.1885C55.9943 19.7179 56.9585 21.374 57.7238 23.1242C58.9148 25.8059 59.6384 28.6718 59.8633 31.5978C59.8829 31.767 59.9164 31.9343 59.9633 32.098C59.9713 33.2016 59.9713 34.3022 59.9713 35.3918Z" fill="#47BBC6"/>
<path d="M42.119 23.2371C40.8486 23.5363 39.5227 23.5033 38.2687 23.1414C37.0147 22.7794 35.8749 22.1006 34.9588 21.1703C34.0428 20.24 33.3813 19.0895 33.0381 17.8294C32.6949 16.5692 32.6814 15.242 32.9989 13.9751L28.3539 14.6915C28.2109 14.1992 28.054 13.6349 27.888 13.0796C33.4199 11.1176 43.3548 11.853 50.1214 19.7352C52.5453 22.5652 54.1946 25.9758 54.9084 29.6341C55.6222 33.2924 55.376 37.0733 54.1939 40.608C53.0117 44.1426 50.9341 47.3102 48.1637 49.8014C45.3933 52.2927 42.0247 54.0226 38.3869 54.8223C34.7491 55.6219 30.9662 55.4641 27.4075 54.364C23.8489 53.264 20.636 51.2594 18.0825 48.546C15.529 45.8325 13.722 42.5028 12.8381 38.882C11.9542 35.2611 12.0234 31.4727 13.0391 27.8867C13.603 28.0477 14.1759 28.1998 14.7937 28.3789C14.2099 30.4852 13.9772 32.6734 14.1049 34.8554C15.3421 34.5962 16.6214 34.6152 17.8504 34.9111C19.0794 35.207 20.2274 35.7723 21.2114 36.5664C22.1815 37.3335 22.9691 38.3069 23.517 39.4161C24.065 40.5254 24.3597 41.7426 24.3797 42.9798C25.4445 43.24 26.4563 43.4901 27.4791 43.7232C27.5595 43.7308 27.6407 43.722 27.7176 43.6975C27.7946 43.6729 27.8658 43.633 27.927 43.5802C29.4446 42.1384 31.4429 41.3118 33.5348 41.2604C35.6267 41.209 37.6632 41.9365 39.2496 43.302C39.3307 43.3475 39.4206 43.375 39.5132 43.3827C39.6058 43.3905 39.699 43.3783 39.7865 43.347C40.7983 43.0159 41.8001 42.6577 42.8029 42.2905C42.8865 42.2623 42.9636 42.2177 43.0297 42.1593C43.0958 42.1008 43.1495 42.0298 43.1878 41.9503C43.4388 41.1709 43.5817 40.3554 43.9037 39.612C44.2755 38.8725 44.694 38.1573 45.1564 37.4709C44.8255 36.9606 44.4046 36.4143 44.0916 35.814C43.4474 34.6339 43.1023 33.3137 43.0866 31.9691C43.0709 30.6245 43.3851 29.2966 44.0016 28.1018C44.0814 27.9748 44.1167 27.8249 44.102 27.6757C44.0874 27.5265 44.0236 27.3863 43.9207 27.2773C43.4748 26.6884 43.0909 26.0551 42.7749 25.3873C42.5153 24.6837 42.2963 23.9659 42.119 23.2371ZM14.3458 36.7805C14.3274 36.8353 14.3182 36.8928 14.3188 36.9506C14.9184 40.5826 16.523 43.9738 18.9507 46.7395C21.3784 49.5051 24.532 51.5346 28.0537 52.5977C31.5755 53.6608 35.3245 53.7149 38.8754 52.754C42.4263 51.793 45.6371 49.8554 48.1435 47.161C50.6499 44.4665 52.3516 41.1231 53.0556 37.5099C53.7596 33.8967 53.4377 30.1584 52.1265 26.719C50.8152 23.2795 48.567 20.2767 45.637 18.0511C42.7069 15.8254 39.2123 14.4661 35.5494 14.1272C35.0125 14.0822 34.8785 14.2793 34.7976 14.7185C34.5606 15.7276 34.6158 16.7833 34.9566 17.7621C35.2974 18.741 35.9099 19.6024 36.7222 20.2455C37.4991 20.9273 38.4557 21.3709 39.4778 21.5233C40.4999 21.6757 41.5442 21.5305 42.486 21.105C43.5237 20.6928 44.0856 21.06 44.0526 22.1706C44.0086 23.0124 44.1529 23.8534 44.4749 24.6324C44.797 25.4113 45.2887 26.1084 45.9143 26.673C46.0409 26.7511 46.1485 26.8566 46.2292 26.9816C46.3099 27.1066 46.3617 27.2481 46.3809 27.3958C46.4001 27.5434 46.3861 27.6934 46.3399 27.835C46.2938 27.9765 46.2167 28.1059 46.1142 28.2138C45.2362 29.5024 44.849 31.0634 45.0231 32.6132C45.1972 34.1631 45.921 35.5991 47.063 36.6604C47.6809 37.2788 47.6809 37.735 47.054 38.3533C46.4204 38.9518 45.9115 39.6699 45.5566 40.4662C45.2017 41.2625 45.0079 42.1212 44.9864 42.9928C44.9594 43.7363 44.6465 44.0494 43.9037 44.0764C42.5683 44.1066 41.2747 44.5475 40.1984 45.3391C39.4466 45.8764 39.1427 45.8494 38.4888 45.178C37.8613 44.517 37.1029 43.9944 36.2619 43.6436C35.421 43.2929 34.5161 43.1218 33.6053 43.1412C32.6945 43.1606 31.7977 43.3701 30.9724 43.7563C30.1472 44.1426 29.4116 44.697 28.8128 45.3841C28.2669 45.9935 28.007 46.0555 27.2821 45.7063C26.207 45.1806 25.011 44.9519 23.8179 45.044C22.7081 45.125 22.3862 44.8198 22.4751 43.7272C22.5953 42.3534 22.2793 40.9767 21.5723 39.7931C20.8652 38.6094 19.803 37.6791 18.537 37.1347C17.2268 36.519 15.7396 36.3934 14.3448 36.7805H14.3458Z" fill="#47BBC6"/>
<path d="M26.2396 13.9392C26.1425 15.3773 25.813 16.79 25.2638 18.1225C25.1562 18.4223 25.1468 18.7485 25.2368 19.054C25.8277 20.955 26.4985 22.825 27.0714 24.7331C27.4203 25.8977 26.7855 26.462 25.6217 26.1128C23.8671 25.5845 22.1224 25.0382 20.3588 24.536C20.0728 24.4604 19.7694 24.4858 19.5 24.608C17.801 25.5532 15.9135 26.109 13.9737 26.235C12.0339 26.3611 10.0903 26.0543 8.2835 25.3369C6.47666 24.6195 4.85163 23.5093 3.52586 22.0867C2.2001 20.664 1.2067 18.9643 0.617458 17.1105C0.0282174 15.2567 -0.142153 13.2951 0.118668 11.3674C0.37949 9.43963 1.06498 7.59395 2.12561 5.96371C3.18624 4.33348 4.59552 2.9594 6.25159 1.94078C7.90767 0.922159 9.76918 0.284436 11.7016 0.0736955C19.493 -0.741747 26.2306 5.29553 26.2396 13.9392ZM24.9418 23.9346C24.36 22.2597 23.8421 20.7329 23.2772 19.2141C23.1823 18.9817 23.1396 18.7314 23.152 18.4807C23.1644 18.23 23.2318 17.9851 23.3492 17.7633C24.3258 15.6991 24.6176 13.3766 24.182 11.1347C23.7621 8.76777 22.596 6.59758 20.8543 4.942C19.1126 3.28643 16.887 2.23246 14.5034 1.93449C12.1198 1.63652 9.70347 2.1102 7.60837 3.28615C5.51326 4.46209 3.84947 6.2785 2.8607 8.46934C1.87192 10.6602 1.61012 13.1103 2.11364 15.4608C2.61716 17.8113 3.85954 19.9388 5.65881 21.5315C7.45807 23.1242 9.71967 24.0984 12.1123 24.3116C14.505 24.5247 16.903 23.9656 18.9551 22.716C19.1565 22.5836 19.3855 22.4995 19.6246 22.47C19.8637 22.4405 20.1064 22.4665 20.3338 22.5459C21.8175 23.0131 23.3122 23.4424 24.9418 23.9346Z" fill="#47BBC6"/>
<path d="M8.16673 27.9219C8.7756 28.0559 9.34849 28.191 9.87638 28.3071C8.03276 39.5041 11.729 48.2459 21.0471 54.6774C20.9131 54.9015 20.7611 55.1696 20.5992 55.4298C20.4472 55.6719 20.2992 55.922 20.1422 56.1642C15.427 53.32 11.7301 49.0578 9.5795 43.9859C7.42888 38.9139 6.93442 33.2917 8.16673 27.9219Z" fill="#47BBC6"/>
<path d="M53.262 16.2585C52.8321 16.6437 52.3942 17.0379 51.9373 17.4502C45.1387 10.4464 36.9814 8.00005 27.4034 10.1232C27.2514 9.57691 27.1035 9.0036 26.9375 8.43028C31.6181 7.14565 36.5647 7.19804 41.2171 8.58155C45.8695 9.96506 50.0419 12.6244 53.262 16.2585Z" fill="#47BBC6"/>
<path d="M40.2645 18.7128H38.4648V16.9038H40.2645V18.7128Z" fill="#47BBC6"/>
<path d="M47.7566 24.3378H45.957V22.5288H47.7566V24.3378Z" fill="#47BBC6"/>
<path d="M46.8984 30.0259H48.698V31.8268H46.8984V30.0259Z" fill="#47BBC6"/>
<path d="M49.707 34.7104H51.5066V36.5114H49.707V34.7104Z" fill="#47BBC6"/>
<path d="M17.8281 42.1547V40.3457H19.6277V42.1547H17.8281Z" fill="#47BBC6"/>
<path d="M47.8203 43.1039V41.2949H49.637V43.1039H47.8203Z" fill="#47BBC6"/>
<path d="M36.4967 47.7977H34.707V45.9707H36.4967V47.7977Z" fill="#47BBC6"/>
<path d="M43.094 47.8604V49.6523H41.2773V47.8604H43.094Z" fill="#47BBC6"/>
<path d="M29.0066 50.611H27.207V48.8101H29.0066V50.611Z" fill="#47BBC6"/>
<path d="M10.2994 15.9281H6.88911C5.90431 15.9281 5.61837 15.6279 5.60938 14.6274V11.4657C5.60938 10.6322 5.94031 10.3101 6.79114 10.3011C7.9369 10.2921 9.08266 10.3011 10.2994 10.3011V6.87021C10.2994 5.91169 10.5993 5.60752 11.5521 5.60752C12.6259 5.60752 13.7007 5.59851 14.7745 5.60752C15.5803 5.61652 15.9202 5.93871 15.9202 6.74514C15.9292 7.90977 15.9202 9.07439 15.9202 10.3011H19.3575C20.3063 10.3011 20.6012 10.6012 20.6102 11.5728C20.6102 12.6473 20.6192 13.7229 20.6102 14.7975C20.6012 15.5979 20.2703 15.9261 19.4645 15.9351C18.3187 15.9441 17.165 15.9351 15.9292 15.9351V18.8637C15.9292 20.5026 15.8133 20.6287 14.1746 20.6287C13.2618 20.6287 12.34 20.6377 11.4272 20.6287C10.6573 20.6197 10.3174 20.2885 10.3084 19.5181C10.2994 18.3374 10.2994 17.1728 10.2994 15.9281ZM12.179 7.50854C12.179 8.74421 12.188 9.92685 12.179 11.1185C12.1948 11.2603 12.1787 11.4039 12.1319 11.5387C12.085 11.6735 12.0085 11.796 11.9081 11.8973C11.8077 11.9987 11.6859 12.0762 11.5517 12.1243C11.4174 12.1724 11.2741 12.1897 11.1322 12.1751C10.8993 12.1841 10.6663 12.1751 10.4324 12.1751H7.54998V14.0541H10.9333C11.8911 14.0541 12.186 14.3543 12.186 15.3168V18.7116H14.0656C14.0656 17.485 14.0566 16.3023 14.0656 15.1097C14.0491 14.9681 14.0648 14.8247 14.1116 14.69C14.1584 14.5554 14.235 14.4332 14.3357 14.3324C14.4364 14.2316 14.5586 14.1549 14.6931 14.1081C14.8276 14.0613 14.9709 14.0456 15.1124 14.0621C15.3454 14.0531 15.5783 14.0621 15.8123 14.0621H18.6946V12.1811H15.3074C14.3496 12.1811 14.0546 11.8809 14.0456 10.9184V7.51656C13.4148 7.50755 12.8329 7.50854 12.179 7.50854Z" fill="#47BBC6"/>
</svg>
