<svg width="60" height="61" viewBox="0 0 60 61" fill="none" xmlns="http://www.w3.org/2000/svg">
<path d="M8.00665 23.0009V1.48306C8.00665 0.289013 8.28269 0 9.46282 0H42.5204C43.7146 0 44.0036 0.276005 44.0036 1.45605V4.00016H46.7329C47.665 4.00016 48.006 4.34117 48.006 5.28621V20.0008H48.6881C50.4203 20.0008 52.1395 19.9878 53.8717 20.0008C55.3674 19.9672 56.8214 20.4958 57.9463 21.4821C59.0712 22.4685 59.7852 23.8408 59.9473 25.328C59.9996 25.8036 59.9595 26.2847 59.8293 26.7451C57.2837 36.0214 54.7251 45.3025 52.1535 54.5882C52.0721 54.8678 52.0106 55.1529 51.9695 55.4412C51.8571 56.7341 51.2471 57.9329 50.2679 58.7848C49.2888 59.6367 48.017 60.075 46.7209 60.0074H5.22834C4.53297 60.0391 3.83863 59.9253 3.18978 59.6732C2.54092 59.4212 1.95184 59.0365 1.46023 58.5437C0.968629 58.0509 0.585334 57.4609 0.334881 56.8114C0.0844272 56.162 -0.0276658 55.4674 0.00577348 54.7722V28.2101C-0.023503 27.5209 0.0904149 26.833 0.340328 26.19C0.590242 25.5469 0.970733 24.9627 1.45779 24.474C1.94485 23.9854 2.52791 23.6031 3.17017 23.3511C3.81243 23.0991 4.49993 22.9829 5.18934 23.0099C6.10644 23.0009 7.02554 23.0009 8.00665 23.0009ZM25.9706 57.9943H46.5849C47.0445 58.0526 47.5113 58.0053 47.9499 57.8562C48.3885 57.7071 48.7874 57.46 49.1162 57.1337C49.445 56.8074 49.6952 56.4104 49.8477 55.973C50.0002 55.5356 50.051 55.0692 49.9962 54.6092V33.3663C50.0505 32.9127 50.0014 32.4527 49.8528 32.0207C49.7042 31.5887 49.4599 31.1959 49.1381 30.8716C48.8163 30.5473 48.4253 30.2999 47.9944 30.148C47.5636 29.9961 47.1039 29.9435 46.6499 29.9942C38.567 29.9942 30.4838 29.9985 22.4002 30.0072C22.1432 30.0197 21.8866 29.9757 21.6485 29.8783C21.4104 29.7808 21.1965 29.6323 21.0221 29.4432C19.6839 28.0781 18.3318 26.7141 16.9546 25.389C16.7039 25.1666 16.3844 25.037 16.0495 25.022C12.4931 24.996 8.92475 25.009 5.36836 25.009C4.9143 24.9583 4.45466 25.0109 4.02379 25.1628C3.59292 25.3147 3.20197 25.5621 2.88016 25.8864C2.55835 26.2107 2.31401 26.6035 2.1654 27.0355C2.0168 27.4675 1.96778 27.9275 2.022 28.3811V54.5572C2.022 56.8403 3.19013 57.9953 5.49939 57.9953L25.9706 57.9943ZM10.0309 23.0009C12.2881 23.0009 14.4924 22.9749 16.6966 23.0269C17.1406 23.0502 17.5627 23.2269 17.8907 23.5269C19.2819 24.839 20.62 26.217 21.9712 27.5811C22.099 27.7254 22.2567 27.8401 22.4334 27.9172C22.6102 27.9942 22.8016 28.0317 22.9943 28.0271C29.0963 28.0138 35.197 28.0095 41.2963 28.0141H41.9394V2.04708H10.0309V23.0009ZM48.019 28.0521C51.0194 28.9442 52.0865 31.2142 52.0195 33.8523C51.9275 38.0775 51.9935 42.3027 51.9935 46.5269V47.1959C52.0992 47.1197 52.1738 47.0078 52.2035 46.8809C54.1064 39.9659 56.0089 33.0513 57.9111 26.137C57.9723 25.8747 57.9811 25.6028 57.9371 25.337C57.7859 24.3927 57.2993 23.5345 56.5665 22.9199C55.8338 22.3053 54.904 21.9755 53.9477 21.9909C52.4915 21.9779 51.0344 21.9909 49.5782 21.9909H48.03C48.019 24.077 48.019 26.071 48.019 28.0531V28.0521ZM45.9588 27.9861V6.04924H44.0426V27.9871L45.9588 27.9861Z" fill="#47BBC6"/>
<path d="M30.9984 38.9956H35.7089C36.654 38.9956 36.9951 39.3366 36.9951 40.2686V47.7079C36.9951 48.6659 36.654 48.994 35.6699 48.994H30.9984V53.5341C30.9984 54.7152 30.7224 54.9902 29.5153 54.9902H22.3425C21.3324 54.9902 21.0043 54.6622 21.0043 53.6391V48.994H16.2038C15.3767 48.994 15.0097 48.6269 15.0097 47.8129C14.9967 45.2678 15.0097 42.7347 15.0097 40.1896C15.0097 39.3496 15.3767 38.9956 16.2428 38.9956H21.0063V36.3584C21.0063 35.6234 20.9933 34.9024 21.0063 34.1674C21.0193 33.3533 21.3734 32.9863 22.2005 32.9863H29.8243C30.6374 32.9863 31.0054 33.3533 31.0054 34.1804C31.0114 35.7674 30.9984 37.3425 30.9984 38.9956ZM17.0239 46.9959H21.8134C22.6265 46.9959 22.9946 47.3629 22.9946 48.1769C23.0076 49.056 22.9946 49.922 22.9946 50.801V52.9401H28.9952V48.4529C28.9952 47.2589 29.2713 46.9829 30.4654 46.9829H34.9439V40.9826H30.1673C29.3543 40.9826 28.9862 40.6156 28.9862 39.8016C28.9862 38.9876 28.9862 38.1355 28.9862 37.3085V35.0384H22.9856V39.4606C22.9856 40.7336 22.7235 40.9956 21.4504 40.9956H17.0149L17.0239 46.9959Z" fill="#47BBC6"/>
<path d="M14.008 19.9709H12.0528C11.9957 18.808 12.0044 17.6427 12.0788 16.4808C12.1793 15.7813 12.5325 15.1428 13.0716 14.6858C13.6108 14.2289 14.2985 13.9852 15.0051 14.0007C15.3157 14.0318 15.6289 14.023 15.9372 13.9747C16.2783 13.8566 16.7243 13.6856 16.8693 13.3976C16.9304 13.2237 16.9531 13.0387 16.9358 12.8551C16.9186 12.6716 16.8618 12.494 16.7693 12.3346C16.299 11.6209 16.0397 10.789 16.0212 9.9345C15.9813 9.01877 16.0208 8.1013 16.1392 7.19238C16.3183 6.23036 16.8517 5.37048 17.634 4.7826C18.4164 4.19473 19.3907 3.92163 20.3647 4.01725C21.3498 4.10572 22.2674 4.55534 22.9409 5.27959C23.6144 6.00384 23.9963 6.95156 24.0131 7.94042C24.0261 8.62244 24.0131 9.31847 24.0131 10.0005C23.9821 10.837 23.7235 11.6492 23.265 12.3496C23.1726 12.509 23.1157 12.6866 23.0985 12.8701C23.0812 13.0537 23.1039 13.2387 23.165 13.4126C23.3911 13.7164 23.7244 13.9227 24.0971 13.9897C24.6612 14.1077 25.2652 14.0157 25.8293 14.1467C26.4315 14.2953 26.9694 14.6352 27.3621 15.1154C27.7548 15.5955 27.9813 16.19 28.0075 16.8098C28.0466 17.8468 28.0205 18.8829 28.0205 19.9719H26.0173V17.6718C26.0173 16.2027 25.8173 15.9927 24.3111 16.0187C23.7685 16.0546 23.2259 15.9474 22.7376 15.7078C22.2494 15.4683 21.8326 15.1048 21.5288 14.6537C21.3873 14.4256 21.2604 14.1888 21.1488 13.9447H18.8785C18.7058 14.4608 18.396 14.9203 17.9822 15.2739C17.5683 15.6274 17.0661 15.8617 16.5293 15.9517C16.0944 16.0089 15.6552 16.0263 15.2171 16.0037C14.3641 16.0167 14.023 16.3708 14.01 17.2368C13.997 18.1028 14.008 19.0129 14.008 19.9709ZM21.9989 9.02846C21.9989 8.64844 22.0249 8.28044 21.9989 7.90042C21.9768 7.39021 21.7595 6.908 21.3918 6.55357C21.0241 6.19913 20.5342 5.99959 20.0235 5.99625C19.5128 5.99291 19.0204 6.18602 18.6481 6.53562C18.2758 6.88522 18.0522 7.36454 18.0235 7.87442C17.9841 8.62193 17.9841 9.371 18.0235 10.1185C18.0539 10.6229 18.275 11.0968 18.6417 11.4443C19.0085 11.7919 19.4937 11.987 19.999 11.9904C20.5043 11.9937 20.992 11.8048 21.3633 11.4621C21.7346 11.1194 21.9618 10.6484 21.9989 10.1445C22.0249 9.7755 21.9989 9.39647 21.9989 9.02846Z" fill="#47BBC6"/>
<path d="M35.0028 4.00138H38.8033C39.6163 4.00138 39.9844 4.3684 39.9844 5.18243C39.9977 6.38981 39.9977 7.59686 39.9844 8.80358C39.9844 9.61661 39.6173 9.98462 38.8033 9.98462C36.258 9.99762 33.7247 9.99762 31.1794 9.98462C30.3653 9.98462 29.9983 9.61761 29.9983 8.80358C29.9849 7.5962 29.9849 6.38915 29.9983 5.18243C29.9983 4.3694 30.3653 4.00138 31.1794 4.00138C32.4566 3.98838 33.7297 4.00138 35.0028 4.00138ZM32.0505 6.00847V7.95055H37.9511V6.00847H32.0505Z" fill="#47BBC6"/>
<path d="M39.9501 13.9745H30.043V12.0454H39.9501V13.9745Z" fill="#47BBC6"/>
<path d="M30.0547 16.0205H39.9618V17.9626H30.0547V16.0205Z" fill="#47BBC6"/>
<path d="M39.9488 21.9909H30.0547V20.0488H39.9488V21.9909Z" fill="#47BBC6"/>
<path d="M30.043 24.0249H39.9501V25.954H30.043V24.0249Z" fill="#47BBC6"/>
</svg>
