<svg width="60" height="61" viewBox="0 0 60 61" fill="none" xmlns="http://www.w3.org/2000/svg">
<path d="M0 19.6472C0.270644 18.128 0.432279 16.5739 0.82227 15.0777C1.72897 11.5766 3.51597 8.40503 5.99082 5.90467C8.5515 3.22186 11.7717 1.36274 15.2811 0.541082C19.9874 -0.627337 24.9339 0.11142 29.1563 2.61332C29.2766 2.66026 29.3858 2.73442 29.4765 2.83069C29.5673 2.92695 29.6373 3.04302 29.6817 3.17089C29.7262 3.29876 29.744 3.43538 29.734 3.57131C29.724 3.70723 29.6864 3.83922 29.6238 3.95818C29.5612 4.07713 29.4751 4.18021 29.3714 4.26029C29.2678 4.34037 29.149 4.39554 29.0233 4.422C28.8976 4.44847 28.7681 4.44558 28.6435 4.41355C28.519 4.38152 28.4025 4.32111 28.3021 4.23648C26.3166 3.07011 24.1394 2.31981 21.8883 2.02625C17.1789 1.40809 12.4313 2.80295 8.6869 5.90489C4.94246 9.00684 2.50684 13.5626 1.91424 18.5731C1.52276 21.7195 1.90651 24.9201 3.02783 27.8611C3.16879 28.2291 3.30975 28.5862 3.42816 28.9612C3.4771 29.0744 3.50446 29.1969 3.50863 29.3215C3.5128 29.446 3.4937 29.5702 3.45245 29.6869C3.41119 29.8035 3.34859 29.9103 3.26829 30.001C3.18798 30.0917 3.09155 30.1646 2.9846 30.2154C2.87576 30.2656 2.75836 30.2913 2.63975 30.291C2.52113 30.2906 2.40385 30.2642 2.29526 30.2135C2.18667 30.1627 2.0891 30.0886 2.00866 29.9958C1.92822 29.903 1.86665 29.7936 1.82779 29.6743C1.05169 27.9073 0.516287 26.0315 0.237752 24.1037C0.161633 23.5396 0.0864558 22.9646 0 22.4035V19.6472Z" fill="#47BBC6"/>
<path d="M38.9665 17.1606C39.8722 22.6105 38.7208 28.2207 35.7622 32.7723C32.8037 37.3239 28.277 40.4492 23.1657 41.4693C23.8466 44.027 25.0381 46.3982 26.6587 48.4211C29.372 51.8572 33.1504 54.1473 37.3116 54.8778C39.2977 55.2499 41.3302 55.2421 43.3137 54.8548C43.8305 54.7419 44.3682 54.8318 44.8276 55.1078C47.1409 56.4943 49.6559 57.4591 52.2684 57.9621C53.0042 58.0891 53.772 58.0891 54.5182 58.1461C54.5387 58.0775 54.5641 58.0106 54.5943 57.9461C54.4317 57.7461 54.2917 57.5461 54.1188 57.3711C52.8429 55.9908 51.8489 54.3449 51.199 52.5365C50.9067 51.7304 50.9396 51.4544 51.5664 50.9023C53.5107 49.2209 55.1053 47.1277 56.2491 44.7557C57.9066 41.2789 58.5225 37.3448 58.0138 33.4839C57.5052 29.623 55.8965 26.0209 53.4046 23.1633C53.3007 23.0423 53.2032 22.9155 53.1123 22.7832C52.9761 22.5979 52.9115 22.3642 52.9318 22.1299C52.952 21.8957 53.0555 21.6784 53.2212 21.5227C53.3869 21.3669 53.6022 21.2843 53.8232 21.2918C54.0442 21.2994 54.2541 21.3964 54.4101 21.5631C54.8722 22.0413 55.2989 22.5569 55.6862 23.1053C57.6408 25.6884 58.981 28.7353 59.5928 31.9873C60.2047 35.2393 60.0702 38.6004 59.2009 41.7853C58.2201 45.6831 56.1539 49.1738 53.2739 51.7984C53.2152 51.8388 53.1646 51.8912 53.1251 51.9527C53.0856 52.0141 53.058 52.0833 53.0439 52.1562C53.0298 52.2291 53.0295 52.3043 53.043 52.3773C53.0565 52.4503 53.0836 52.5198 53.1226 52.5815C53.7042 53.9236 54.5022 55.1469 55.4804 56.1959C55.8089 56.5506 56.0826 56.9584 56.2914 57.4041C56.3929 57.6014 56.4532 57.8196 56.4683 58.044C56.4835 58.2683 56.4531 58.4935 56.3792 58.7043C56.3053 58.915 56.1896 59.1063 56.04 59.2652C55.8905 59.4242 55.7105 59.547 55.5124 59.6253C54.4444 60.0535 53.28 60.1298 52.1707 59.8443C49.421 59.3309 46.7664 58.3517 44.3079 56.944C44.0199 56.7917 43.6977 56.728 43.3776 56.76C40.4557 57.2557 37.4661 57.0378 34.6351 56.1226C31.804 55.2074 29.2056 53.6189 27.0365 51.4774C24.5788 49.1103 22.7414 46.104 21.7044 42.7534C21.5964 42.4194 21.4986 42.0864 21.3906 41.7293C20.3738 41.7293 19.3899 41.7413 18.3947 41.7293C17.9846 41.7275 17.5756 41.685 17.173 41.6023C16.4863 41.4579 15.7737 41.589 15.1723 41.9704C12.8555 43.3087 10.3378 44.2082 7.73148 44.6286C6.80779 44.7649 5.8697 44.7453 4.95174 44.5706C3.51301 44.2826 3.092 42.9935 3.92461 41.6933C4.19525 41.2673 4.59558 40.9332 4.86435 40.5082C5.53532 39.4721 6.17339 38.413 6.82181 37.3658C7.01634 37.0438 6.91579 36.8598 6.68086 36.5828C5.66406 35.4436 4.68015 34.2575 3.68497 33.0954C3.63186 33.0339 3.58464 32.9668 3.54402 32.8953C3.15497 32.2853 3.18691 31.7562 3.63047 31.4102C4.06275 31.0881 4.5392 31.2102 4.93953 31.7672C5.24256 32.2257 5.5675 32.6673 5.91309 33.0904C6.72408 33.9905 7.54636 34.8626 8.41091 35.7027C8.63074 35.8745 8.7869 36.123 8.85216 36.4048C8.91742 36.6867 8.88763 36.984 8.768 37.2448C8.1216 39.0747 7.12329 40.7408 5.83698 42.1364C5.66407 42.3204 5.51276 42.5274 5.29662 42.7804C6.44747 42.9621 7.6218 42.8716 8.73606 42.5154C10.7561 42.0392 12.7013 41.2561 14.5117 40.1902C15.3602 39.6873 16.3485 39.5201 17.3018 39.7181C21.7763 40.4182 26.3298 39.215 29.9769 36.3687C32.18 34.7059 33.9994 32.5323 35.2977 30.0118C36.596 27.4913 37.3394 24.6899 37.4717 21.819C37.604 18.948 37.1218 16.0826 36.0615 13.439C35.0012 10.7954 33.3904 8.44269 31.3508 6.55844C31.2448 6.46446 31.1438 6.36429 31.0482 6.2584C30.9463 6.18019 30.8612 6.07973 30.7986 5.96372C30.736 5.84771 30.6975 5.71883 30.6855 5.58569C30.6734 5.45255 30.6882 5.3182 30.7289 5.19163C30.7696 5.06507 30.8351 4.94919 30.9212 4.85175C31.0073 4.75431 31.112 4.67755 31.2282 4.62658C31.3444 4.57562 31.4695 4.55163 31.5951 4.55622C31.7207 4.56081 31.8439 4.59387 31.9566 4.6532C32.0692 4.71253 32.1687 4.79677 32.2483 4.90027C35.031 7.37944 37.1094 10.6349 38.2504 14.3013C38.3265 14.5543 38.4017 14.8194 38.4881 15.0724C38.5097 15.1304 38.5313 15.1874 38.5642 15.2724C39.4946 15.2724 40.424 15.2374 41.3543 15.2844C45.0998 15.4633 48.7136 16.808 51.7478 19.1518C51.8609 19.2145 51.9602 19.3019 52.0395 19.4082C52.1187 19.5145 52.176 19.6373 52.2077 19.7687C52.2393 19.9002 52.2446 20.0372 52.2232 20.171C52.2017 20.3047 52.1541 20.4321 52.0833 20.545C52.008 20.6543 51.9116 20.7453 51.8007 20.8119C51.6897 20.8785 51.5667 20.9192 51.4398 20.9312C51.3129 20.9432 51.1851 20.9263 51.0648 20.8816C50.9445 20.8369 50.8346 20.7655 50.7423 20.672C48.9614 19.3182 46.9644 18.3199 44.8483 17.7257C42.9368 17.1551 40.943 16.9636 38.9665 17.1606Z" fill="#47BBC6"/>
<path d="M29.4067 17.7832C29.9362 17.7877 30.4526 17.959 30.8908 18.2754C31.329 18.5918 31.6694 19.0391 31.8691 19.5611C32.0688 20.083 32.1189 20.6562 32.0129 21.2084C31.907 21.7605 31.6499 22.2669 31.274 22.6638C30.898 23.0607 30.4201 23.3303 29.9005 23.4386C29.3808 23.5468 28.8426 23.489 28.3538 23.2723C27.865 23.0556 27.4474 22.6898 27.1537 22.2209C26.8599 21.752 26.7031 21.2011 26.7031 20.6375C26.711 19.8791 26.9991 19.1545 27.505 18.6204C28.0109 18.0863 28.6941 17.7855 29.4067 17.7832ZM30.3155 20.6495C30.3076 20.3994 30.2143 20.1608 30.0531 19.9786C29.8919 19.7963 29.6738 19.6829 29.4396 19.6594C29.1945 19.6591 28.9587 19.7595 28.7813 19.9397C28.604 20.1198 28.4988 20.3659 28.4877 20.6265C28.4826 20.7567 28.5021 20.8865 28.545 21.0085C28.588 21.1304 28.6534 21.242 28.7376 21.3365C28.8218 21.431 28.923 21.5066 29.0351 21.5587C29.1472 21.6109 29.2681 21.6385 29.3904 21.64C29.5128 21.6416 29.6342 21.617 29.7475 21.5677C29.8607 21.5184 29.9635 21.4454 30.0498 21.353C30.136 21.2606 30.204 21.1508 30.2496 21.0299C30.2953 20.9091 30.3177 20.7797 30.3155 20.6495Z" fill="#47BBC6"/>
<path d="M40.3193 32.8379C40.6694 32.8364 41.0164 32.9083 41.3404 33.0495C41.6644 33.1907 41.9591 33.3984 42.2076 33.6608C42.4562 33.9232 42.6538 34.2351 42.7891 34.5788C42.9244 34.9225 42.9947 35.2911 42.9962 35.6637C42.9976 36.0363 42.93 36.4056 42.7974 36.7504C42.6647 37.0952 42.4695 37.4088 42.2229 37.6734C41.9764 37.9379 41.6833 38.1482 41.3604 38.2922C41.0375 38.4361 40.691 38.511 40.3409 38.5125C39.6339 38.5156 38.9546 38.2196 38.4526 37.6896C37.9506 37.1597 37.667 36.4392 37.6641 35.6867C37.6612 34.9342 37.9394 34.2113 38.4373 33.6771C38.9353 33.1428 39.6122 32.841 40.3193 32.8379ZM40.3409 34.7141C40.1614 34.7107 39.9851 34.7644 39.8343 34.8682C39.6836 34.972 39.5654 35.1212 39.4947 35.2969C39.4241 35.4725 39.4043 35.6666 39.4377 35.8543C39.4712 36.042 39.5565 36.2148 39.6827 36.3507C39.8089 36.4866 39.9703 36.5794 40.1463 36.6172C40.3223 36.655 40.5048 36.6361 40.6707 36.563C40.8365 36.4898 40.9782 36.3657 41.0774 36.2065C41.1767 36.0474 41.2291 35.8603 41.228 35.6692C41.2236 35.4193 41.129 35.1807 40.9639 35.0029C40.7987 34.8252 40.5757 34.7218 40.3409 34.7141Z" fill="#47BBC6"/>
<path d="M12.555 20.6495C12.5485 21.208 12.3869 21.7519 12.0907 22.2129C11.7945 22.6738 11.3767 23.0313 10.8901 23.2402C10.4034 23.4492 9.86956 23.5003 9.35568 23.3871C8.8418 23.2739 8.37085 23.0016 8.00207 22.6042C7.63329 22.2069 7.38316 21.7024 7.28314 21.1542C7.18313 20.6059 7.23769 20.0384 7.43998 19.5231C7.64227 19.0078 7.98326 18.5676 8.42001 18.258C8.85677 17.9485 9.36981 17.7832 9.89458 17.7832C10.6041 17.7893 11.2824 18.0943 11.7811 18.6316C12.2797 19.1688 12.558 19.8944 12.555 20.6495ZM10.792 20.6495C10.7899 20.4599 10.7349 20.2752 10.6339 20.119C10.5329 19.9627 10.3905 19.842 10.2249 19.7721C10.0593 19.7022 9.87782 19.6862 9.70366 19.7263C9.52951 19.7665 9.3705 19.8608 9.24684 19.9973C9.12319 20.1339 9.04048 20.3065 9.00923 20.4932C8.97798 20.6799 8.99961 20.8722 9.07136 21.0458C9.14311 21.2194 9.26174 21.3664 9.41218 21.468C9.56261 21.5696 9.73805 21.6214 9.91619 21.6166C10.1515 21.6078 10.3744 21.502 10.5378 21.3216C10.7013 21.1411 10.7924 20.9001 10.792 20.6495Z" fill="#47BBC6"/>
<path d="M19.5873 23.4918C18.886 23.4641 18.2228 23.1451 17.7399 22.6031C17.257 22.0611 16.9929 21.3393 17.0043 20.5925C17.0156 19.8457 17.3014 19.1333 17.8004 18.6082C18.2994 18.083 18.972 17.7869 19.6738 17.7832C20.0308 17.7814 20.3846 17.8554 20.7145 18.0009C21.0443 18.1465 21.3436 18.3607 21.5946 18.6309C21.8457 18.9011 22.0435 19.2219 22.1766 19.5745C22.3096 19.9272 22.3752 20.3046 22.3695 20.6845C22.3637 21.0645 22.2867 21.4394 22.1431 21.7873C21.9994 22.1352 21.7919 22.4491 21.5328 22.7105C21.2737 22.972 20.9682 23.1758 20.6341 23.3099C20.3 23.4441 19.9441 23.5059 19.5873 23.4918ZM19.6305 19.6594C19.447 19.6596 19.2676 19.7184 19.1157 19.828C18.9638 19.9377 18.8462 20.0932 18.7781 20.2746C18.71 20.4561 18.6945 20.655 18.7336 20.8459C18.7727 21.0368 18.8646 21.2108 18.9975 21.3456C19.1304 21.4804 19.2982 21.5697 19.4792 21.6021C19.6602 21.6345 19.8462 21.6084 20.0132 21.5273C20.1802 21.4462 20.3206 21.3137 20.4162 21.1469C20.5118 20.9801 20.5582 20.7867 20.5496 20.5915C20.5339 20.3418 20.4308 20.1075 20.2606 19.9347C20.0905 19.762 19.8657 19.6644 19.6305 19.6594Z" fill="#47BBC6"/>
<path d="M52.7232 35.6694C52.7231 36.2284 52.5676 36.7749 52.2762 37.24C51.9848 37.7051 51.5706 38.068 51.0857 38.2829C50.6009 38.4979 50.0671 38.5553 49.5516 38.4479C49.0361 38.3405 48.5621 38.0731 48.1892 37.6794C47.8163 37.2858 47.5612 36.7834 47.4561 36.2357C47.351 35.688 47.4007 35.1195 47.5987 34.6017C47.7968 34.084 48.1344 33.6403 48.569 33.3264C49.0037 33.0125 49.5159 32.8426 50.0411 32.8381C50.3927 32.8336 50.7416 32.9036 51.0675 33.044C51.3934 33.1844 51.6898 33.3924 51.9394 33.6559C52.189 33.9194 52.3868 34.2331 52.5214 34.5788C52.6559 34.9245 52.7246 35.2952 52.7232 35.6694ZM50.9602 35.7044C50.9647 35.5143 50.9158 35.3271 50.8198 35.1667C50.7238 35.0063 50.5851 34.8801 50.4213 34.804C50.2575 34.728 50.0762 34.7057 49.9004 34.7399C49.7247 34.7741 49.5625 34.8633 49.4346 34.9961C49.3067 35.129 49.219 35.2993 49.1826 35.4855C49.1461 35.6716 49.1627 35.8651 49.2301 36.0412C49.2975 36.2173 49.4128 36.368 49.5611 36.474C49.7094 36.5801 49.8841 36.6366 50.0628 36.6365C50.1794 36.6383 50.2952 36.6156 50.4035 36.5697C50.5118 36.5237 50.6105 36.4554 50.6939 36.3687C50.7773 36.2819 50.8438 36.1785 50.8895 36.0643C50.9352 35.9502 50.9592 35.8275 50.9602 35.7034V35.7044Z" fill="#47BBC6"/>
</svg>
