<svg width="60" height="61" viewBox="0 0 60 61" fill="none" xmlns="http://www.w3.org/2000/svg">
<path d="M59.9696 30.7211C59.9186 30.8842 59.8576 31.0472 59.8065 31.2113C59.547 32.1297 58.9996 32.9406 58.2449 33.5246C57.4902 34.1086 56.568 34.4349 55.614 34.4555C54.6787 34.47 53.763 34.1861 53 33.6448C52.2369 33.1035 51.6661 32.3331 51.3705 31.4454C51.3581 31.3572 51.3278 31.2725 51.2815 31.1965C51.2353 31.1205 51.174 31.0546 51.1015 31.0031C51.0289 30.9515 50.9467 30.9152 50.8597 30.8965C50.7727 30.8778 50.6827 30.877 50.5954 30.8942C49.9523 30.9352 49.3103 30.9042 48.6062 30.9042C48.3895 35.1767 46.7153 39.2459 43.8626 42.4333C45.4338 43.9939 46.984 45.5455 48.5952 47.147C49.5501 46.4817 50.6969 46.1482 51.8596 46.1977C52.4225 46.2316 52.9799 46.3276 53.5218 46.4838C54.2159 46.6679 54.5009 47.1571 54.3069 47.6842C54.1229 48.1844 53.6538 48.3575 52.9907 48.1534C52.1827 47.8788 51.3064 47.8804 50.4994 48.158C49.6924 48.4356 49.0005 48.9735 48.5324 49.6872C48.0643 50.4009 47.8464 51.2499 47.9131 52.1009C47.9798 52.9519 48.3272 53.7566 48.9008 54.3886C49.4743 55.0206 50.2416 55.4442 51.0819 55.5927C51.9223 55.7411 52.7882 55.6062 53.5435 55.209C54.2989 54.8118 54.9009 54.1749 55.2551 53.3982C55.6092 52.6216 55.6954 51.7493 55.5 50.9184C55.306 50.0311 55.459 49.6129 56.0101 49.4799C56.6322 49.3268 57.0102 49.664 57.2242 50.5713C57.4253 51.4551 57.4092 52.3744 57.1773 53.2507C56.9454 54.1269 56.5047 54.9338 55.8928 55.6023C55.2809 56.2709 54.5162 56.7811 53.664 57.0894C52.8119 57.3976 51.8977 57.4947 50.9999 57.3722C50.102 57.2498 49.2472 56.9115 48.5087 56.3863C47.7701 55.8611 47.1698 55.1647 46.7592 54.3567C46.3486 53.5487 46.1399 52.6532 46.1511 51.7469C46.1622 50.8406 46.3927 49.9505 46.823 49.1528C46.935 48.9527 47.058 48.7446 47.2 48.4995C46.4149 47.7243 45.6288 46.939 44.8537 46.1527C44.0786 45.3664 43.3235 44.6021 42.5285 43.8058C39.3131 46.7178 35.1909 48.4296 30.859 48.6516C30.859 49.4579 30.839 50.2332 30.879 50.9984C30.889 51.1315 31.1791 51.3046 31.3581 51.3756C32.1276 51.6292 32.8129 52.0891 33.3392 52.7053C33.8656 53.3214 34.213 54.0701 34.3435 54.87C34.474 55.6698 34.3827 56.4901 34.0794 57.2417C33.7762 57.9932 33.2727 58.6472 32.6237 59.1324C31.9747 59.6176 31.2051 59.9155 30.3987 59.9936C29.5922 60.0717 28.7798 59.927 28.0498 59.5754C27.3198 59.2237 26.7002 58.6785 26.2585 57.9991C25.8167 57.3198 25.5697 56.5322 25.5444 55.7222C25.5115 54.7983 25.7734 53.888 26.2924 53.123C26.8113 52.3581 27.5603 51.7783 28.4308 51.4676C28.5426 51.4502 28.6497 51.4099 28.7452 51.3491C28.8408 51.2884 28.9227 51.2086 28.9859 51.1146C29.0491 51.0207 29.0922 50.9147 29.1125 50.8032C29.1328 50.6918 29.1298 50.5775 29.1038 50.4672C29.0628 49.886 29.0938 49.3038 29.0938 48.6516C24.8006 48.4307 20.7134 46.7416 17.5164 43.8669C15.9452 45.4484 14.405 46.989 12.8159 48.5806C13.3108 49.2873 13.6348 50.0995 13.7622 50.9529C13.8896 51.8064 13.8169 52.6778 13.5499 53.4983C13.1661 54.7437 12.3504 55.8111 11.2497 56.5084C10.1378 57.2278 8.80708 57.5299 7.49368 57.3611C6.18029 57.1922 4.96919 56.5633 4.07537 55.5861C3.18155 54.6088 2.66282 53.3464 2.61126 52.0228C2.55971 50.6993 2.97867 49.4003 3.79377 48.3565C4.69122 47.2116 5.99431 46.4555 7.43348 46.2447C8.87265 46.034 10.3378 46.3846 11.5257 47.2241C11.6377 47.124 11.7497 47.024 11.8627 46.908C13.3009 45.4794 14.7291 44.0409 16.2083 42.5614C13.2983 39.3528 11.5868 35.2366 11.3637 30.9102C10.5576 30.9102 9.80349 30.8792 9.0484 30.9302C8.89538 30.9402 8.70136 31.2363 8.63035 31.4304C8.33533 32.3089 7.77241 33.0729 7.02077 33.6148C6.26913 34.1567 5.36657 34.4494 4.44002 34.4516C3.51346 34.4538 2.60951 34.1655 1.8553 33.6271C1.10108 33.0888 0.534533 32.3275 0.235329 31.4504C-0.13911 30.3461 -0.0644596 29.1388 0.443163 28.0891C0.950786 27.0393 1.85068 26.2313 2.94866 25.8393C3.49616 25.6419 4.07751 25.5557 4.65873 25.5856C5.23995 25.6156 5.80936 25.7612 6.33365 26.0139C6.85795 26.2666 7.32659 26.6214 7.71219 27.0574C8.09778 27.4934 8.39258 28.002 8.57934 28.5533C8.59324 28.6511 8.62737 28.745 8.67954 28.8289C8.73172 28.9128 8.80079 28.9849 8.88237 29.0406C8.96395 29.0963 9.05624 29.1345 9.15336 29.1525C9.25048 29.1706 9.3503 29.1682 9.44645 29.1455C10.0685 29.1145 10.6906 29.1355 11.3637 29.1355C11.5769 24.8384 13.2626 20.7458 16.1373 17.5453L11.4367 12.8436C10.4362 13.5146 9.25464 13.8637 8.05028 13.844C6.73549 13.8078 5.47524 13.3105 4.4899 12.4391C3.50456 11.5676 2.85683 10.3774 2.65997 9.07662C2.4631 7.77584 2.72964 6.44722 3.41296 5.32309C4.09628 4.19896 5.1529 3.35085 6.39808 2.92705C7.06116 2.70297 7.54022 2.86603 7.72424 3.36622C7.91827 3.89641 7.65323 4.32556 6.96915 4.58065C6.16905 4.85882 5.48349 5.39402 5.01939 6.10278C4.55528 6.81153 4.33872 7.65399 4.4035 8.49876C4.46827 9.34353 4.81072 10.1431 5.37745 10.7728C5.94418 11.4025 6.70333 11.8268 7.53647 11.9797C8.36961 12.1326 9.22991 12.0054 9.9832 11.6179C10.7365 11.2305 11.3404 10.6046 11.7007 9.83779C12.0611 9.07103 12.1576 8.20655 11.9752 7.37916C11.7929 6.55178 11.3419 5.80802 10.6926 5.2639L10.4176 5.04982C10.3124 4.98699 10.2215 4.90281 10.1509 4.80272C10.0802 4.70262 10.0313 4.58883 10.0072 4.46867C9.98321 4.34851 9.98461 4.22465 10.0114 4.10506C10.0381 3.98548 10.0896 3.87282 10.1625 3.77436C10.2325 3.67359 10.3234 3.58913 10.4291 3.52674C10.5347 3.46436 10.6526 3.42553 10.7746 3.41289C10.8966 3.40026 11.0199 3.41413 11.1361 3.45355C11.2523 3.49297 11.3585 3.55702 11.4477 3.64132C12.3036 4.221 12.9744 5.03513 13.3797 5.98626C13.785 6.93739 13.9076 7.9852 13.733 9.00426C13.5337 9.86933 13.2607 10.7157 12.9169 11.5342C14.386 13.0137 15.9362 14.5643 17.5174 16.1558C20.7123 13.2855 24.796 11.5999 29.0848 11.3811C29.0848 10.5548 29.1048 9.76953 29.0648 8.97324C29.0648 8.8612 28.8098 8.72815 28.6468 8.66713C27.8742 8.43362 27.1826 7.98831 26.6501 7.38168C26.1177 6.77504 25.7658 6.03134 25.6344 5.23489C25.4247 4.1284 25.6459 2.98358 26.2529 2.03502C26.8598 1.08646 27.8065 0.40599 28.8988 0.133044C29.0318 0.102033 29.1538 0.0410148 29.2759 0H30.683C30.805 0.0410148 30.9281 0.100032 31.0601 0.133044C32.1531 0.403756 33.1003 1.08426 33.7058 2.03382C34.3113 2.98339 34.5289 4.1294 34.3135 5.23489C34.1797 6.02952 33.8273 6.77119 33.2958 7.37671C32.7642 7.98224 32.0746 8.4277 31.3041 8.66313C31.1311 8.72415 30.886 8.89821 30.876 9.03026C30.835 9.80554 30.856 10.5708 30.856 11.3771C35.1483 11.594 39.2357 13.2797 42.4334 16.1518L47.126 11.4581C46.5354 10.6148 46.1877 9.62538 46.1211 8.59787C46.0545 7.57037 46.2714 6.5443 46.7482 5.63172C47.2249 4.71914 47.9432 3.95514 48.8246 3.42316C49.706 2.89118 50.7166 2.61166 51.746 2.61513C52.7754 2.61861 53.7841 2.90495 54.6618 3.44288C55.5396 3.98081 56.2527 4.74964 56.7233 5.66542C57.1939 6.5812 57.4039 7.6087 57.3303 8.63574C57.2567 9.66277 56.9024 10.6498 56.3061 11.4891C54.5109 13.9901 51.6546 14.4782 48.5442 12.8667C46.963 14.4382 45.4028 15.9888 43.8316 17.5603C46.698 20.7572 48.3797 24.8418 48.5952 29.1305C49.2953 29.1305 49.9214 29.0995 50.5434 29.1405C51.0025 29.1715 51.2065 29.0485 51.3695 28.5693C51.6648 27.6821 52.2357 26.9124 52.9991 26.3725C53.7625 25.8327 54.6783 25.5509 55.613 25.5682C56.5562 25.587 57.4689 25.9055 58.2189 26.4779C58.9689 27.0502 59.5173 27.8465 59.7845 28.7514C59.8355 28.9355 59.9066 29.1085 59.9686 29.2926C59.9696 29.7828 59.9696 30.2519 59.9696 30.7211ZM46.852 30.0209C46.851 26.6843 45.8609 23.4229 44.0068 20.6492C42.1527 17.8754 39.5179 15.7139 36.4357 14.438C33.3534 13.1621 29.9621 12.829 26.6906 13.4809C23.4191 14.1328 20.4144 15.7404 18.0563 18.1004C15.6982 20.4605 14.0928 23.4669 13.443 26.7396C12.7932 30.0122 13.1282 33.4041 14.4057 36.4864C15.6831 39.5686 17.8457 42.2027 20.6198 44.0556C23.394 45.9085 26.6552 46.8969 29.9909 46.896C34.4637 46.8907 38.7515 45.1102 41.9129 41.9455C45.0744 38.7809 46.8511 34.4906 46.853 30.0168L46.852 30.0209ZM47.9031 8.25898C47.9058 9.28176 48.3145 10.2616 49.0394 10.9829C49.7643 11.7043 50.746 12.108 51.7686 12.1054C52.7911 12.1027 53.7707 11.6939 54.4919 10.9688C55.213 10.2437 55.6167 9.26176 55.614 8.23898C55.6127 7.73255 55.5117 7.23134 55.3167 6.76396C55.1218 6.29658 54.8367 5.8722 54.4777 5.51503C54.1188 5.15786 53.693 4.87489 53.2248 4.6823C52.7565 4.48972 52.2549 4.39127 51.7486 4.39259C51.2423 4.3939 50.7412 4.49495 50.2739 4.68997C49.8066 4.88498 49.3824 5.17014 49.0253 5.52917C48.6682 5.8882 48.3853 6.31406 48.1928 6.78244C48.0002 7.25083 47.9018 7.75255 47.9031 8.25898ZM12.0698 51.8447C12.0779 51.0808 11.8589 50.3316 11.4407 49.6922C11.0225 49.0529 10.4238 48.5523 9.72065 48.2538C9.01749 47.9553 8.24155 47.8725 7.49126 48.0158C6.74097 48.1591 6.05015 48.5222 5.50645 49.0588C4.96275 49.5955 4.59068 50.2816 4.43744 51.0301C4.28419 51.7786 4.35668 52.5557 4.64571 53.263C4.93474 53.9702 5.42729 54.5756 6.06086 55.0024C6.69442 55.4292 7.44045 55.6581 8.2043 55.6601C9.22194 55.662 10.1991 55.2617 10.9231 54.5464C11.6471 53.831 12.0592 52.8586 12.0698 51.8407V51.8447ZM58.2153 30.0369C58.2192 29.5091 58.0668 28.992 57.7774 28.5508C57.4879 28.1096 57.0744 27.7639 56.5888 27.5574C56.1033 27.3508 55.5675 27.2927 55.049 27.3903C54.5304 27.4879 54.0524 27.7368 53.6751 28.1057C53.2978 28.4746 53.0381 28.947 52.9288 29.4633C52.8194 29.9796 52.8654 30.5167 53.0607 31.007C53.2561 31.4972 53.5922 31.9186 54.0267 32.2181C54.4611 32.5176 54.9745 32.6817 55.502 32.6898C56.212 32.6934 56.8949 32.417 57.4027 31.9207C57.9105 31.4244 58.2025 30.7479 58.2153 30.0379V30.0369ZM29.9809 58.2471C30.5086 58.247 31.0244 58.0908 31.4634 57.798C31.9024 57.5052 32.2449 57.089 32.4478 56.6018C32.6506 56.1146 32.7048 55.5782 32.6033 55.0603C32.5019 54.5424 32.2495 54.0661 31.8779 53.6914C31.5062 53.3168 31.032 53.0606 30.515 52.9551C29.998 52.8496 29.4614 52.8995 28.9727 53.0986C28.4841 53.2977 28.0653 53.637 27.7692 54.0738C27.473 54.5106 27.3128 55.0253 27.3086 55.5531C27.3102 56.2637 27.5916 56.9452 28.0921 57.4496C28.5925 57.9541 29.2715 58.241 29.9819 58.2481L29.9809 58.2471ZM30.0219 1.78564C29.4939 1.77977 28.976 1.93051 28.5336 2.21881C28.0911 2.50712 27.744 2.92007 27.536 3.40554C27.328 3.89101 27.2684 4.42723 27.3649 4.94652C27.4613 5.46582 27.7093 5.9449 28.0777 6.32329C28.4461 6.70169 28.9184 6.96243 29.4348 7.07261C29.9512 7.18279 30.4887 7.13746 30.9794 6.94235C31.4701 6.74724 31.892 6.41109 32.1919 5.97634C32.4917 5.54159 32.6561 5.02773 32.6643 4.49962C32.6676 3.79114 32.3924 3.10973 31.8982 2.60225C31.4039 2.09477 30.7301 1.80085 30.0219 1.78564ZM1.75752 30.0119C1.75556 30.54 1.91008 31.057 2.2016 31.4974C2.49312 31.9378 2.90855 32.2819 3.39545 32.4864C3.88235 32.6908 4.41889 32.7464 4.93734 32.6461C5.4558 32.5458 5.93291 32.2941 6.30847 31.9227C6.68402 31.5514 6.94117 31.0771 7.04746 30.5598C7.15374 30.0424 7.1044 29.5051 6.90565 29.0158C6.70691 28.5264 6.36767 28.1069 5.93077 27.8103C5.49387 27.5136 4.97889 27.353 4.45084 27.3489C3.74107 27.3462 3.05916 27.6249 2.55438 28.124C2.0496 28.6231 1.76307 29.3019 1.75752 30.0119Z" fill="#47BBC6"/>
<path d="M34.0827 39.0661C34.0827 38.5149 34.0727 38.0768 34.0827 37.6276C34.0765 37.5096 34.0942 37.3915 34.1348 37.2806C34.1755 37.1696 34.2382 37.068 34.3193 36.9821C34.4003 36.8961 34.498 36.8274 34.6063 36.7803C34.7147 36.7331 34.8315 36.7085 34.9496 36.7078C35.0678 36.7071 35.1848 36.7305 35.2937 36.7763C35.4025 36.8222 35.501 36.8898 35.583 36.9748C35.665 37.0599 35.7289 37.1607 35.7709 37.2712C35.8128 37.3817 35.8319 37.4995 35.8269 37.6176C35.8469 38.0768 35.8269 38.5459 35.8269 39.0361H38.9583C39.0367 37.3567 39.023 35.6742 38.9173 33.9963C38.7788 33.1057 38.3154 32.298 37.6165 31.729C36.9176 31.16 36.0328 30.8701 35.1329 30.9152C33.3786 30.8952 31.6245 30.9152 29.8592 30.9152C28.217 30.9152 26.5848 30.9052 24.9426 30.9152C24.4089 30.8864 23.875 30.97 23.3757 31.1606C22.8763 31.3513 22.4225 31.6447 22.0437 32.0219C21.6648 32.3992 21.3695 32.8517 21.1766 33.3504C20.9838 33.849 20.8977 34.3826 20.9241 34.9166C20.9141 36.2731 20.9241 37.6406 20.9241 39.0381H24.1245V37.8237C24.1345 37.1404 24.4616 36.7323 24.9916 36.7233C25.5217 36.7143 25.8687 37.1234 25.8787 37.8047V39.0901C26.5728 39.0901 27.2149 39.0801 27.858 39.0901C28.286 39.1001 28.6741 39.2742 28.7351 39.7123C28.7544 40.0272 28.6681 40.3394 28.4901 40.5997C28.4071 40.6775 28.3092 40.7375 28.2022 40.7761C28.0952 40.8146 27.9815 40.8308 27.868 40.8237C25.2877 40.8337 22.7174 40.8438 20.136 40.8338C19.483 40.8338 19.1769 40.5276 19.1769 39.8544C19.1669 38.0537 19.1359 36.2631 19.1969 34.4675C19.254 33.1077 19.8114 31.8169 20.7621 30.8432C21.7129 29.8695 22.9898 29.2817 24.3476 29.1926C24.6536 29.1725 24.9596 29.1515 25.3067 29.1315C24.6251 28.4707 24.0868 27.6767 23.7251 26.7989C23.3635 25.9211 23.1862 24.9782 23.2044 24.029C23.2226 23.0798 23.4359 22.1444 23.8309 21.2811C24.226 20.4178 24.7943 19.6451 25.5007 19.0109C26.8487 17.8471 28.5983 17.2569 30.3756 17.3664C32.1528 17.476 33.8168 18.2766 35.0117 19.5971C36.2066 20.9176 36.8377 22.6532 36.7701 24.433C36.7025 26.2128 35.9415 27.8955 34.6498 29.1215C34.9559 29.1415 35.2209 29.1625 35.4859 29.1825C36.8857 29.2418 38.2106 29.8315 39.1918 30.8319C40.173 31.8323 40.737 33.1685 40.7696 34.5695C40.8206 36.3241 40.7896 38.0788 40.7796 39.8444C40.7796 40.5387 40.4735 40.8448 39.7794 40.8448C37.2398 40.8548 34.7035 40.8548 32.1705 40.8448C31.5584 40.8448 31.1814 40.5286 31.1604 40.0185C31.1394 39.5083 31.5174 39.1181 32.1495 39.1001C32.7666 39.0561 33.3887 39.0661 34.0827 39.0661ZM29.9822 29.1285C30.9768 29.1266 31.9484 28.8296 32.7743 28.2753C33.6001 27.721 34.2431 26.9341 34.6219 26.0143C35.0007 25.0945 35.0982 24.0829 34.9023 23.1076C34.7063 22.1323 34.2256 21.2371 33.5209 20.535C32.8162 19.833 31.9193 19.3557 30.9434 19.1636C29.9676 18.9715 28.9567 19.0731 28.0386 19.4556C27.1205 19.8381 26.3365 20.4844 25.7856 21.3126C25.2347 22.1409 24.9417 23.1139 24.9436 24.1087C24.9481 25.4422 25.481 26.7196 26.4255 27.6607C27.37 28.6019 28.649 29.1301 29.9822 29.1295V29.1285Z" fill="#47BBC6"/>
</svg>
