<svg width="60" height="61" viewBox="0 0 60 61" fill="none" xmlns="http://www.w3.org/2000/svg">
<path d="M0.00377136 40.431C0.145233 39.2265 0.365884 38.034 0.664119 36.8621C2.08576 32.5499 3.52627 28.2466 5.11866 24.0044C6.1139 21.3611 7.38271 18.8377 8.54965 16.2634C8.76572 15.8241 9.00967 15.4009 9.27981 14.9967C10.0864 13.5719 11.3445 12.4977 12.8292 11.9662C14.3139 11.4346 15.9284 11.4804 17.3842 12.0952C20.6926 13.3419 22.3793 15.9552 22.7113 19.6041C22.7962 20.4886 22.8821 21.3731 22.9764 22.3386C23.0884 22.2511 23.1932 22.1537 23.2896 22.0474C24.1707 20.9218 25.0433 19.7752 25.9433 18.6456C26.6399 17.7936 27.0117 16.6965 26.9857 15.569C26.9668 10.8666 26.9763 6.17015 26.9763 1.46169C26.9683 1.25371 26.9746 1.04539 26.9951 0.838368C27.0021 0.718847 27.0316 0.602023 27.082 0.494852C27.1324 0.38768 27.2025 0.292348 27.2883 0.214508C27.3742 0.136669 27.4738 0.0779085 27.5815 0.0417346C27.6891 0.00556075 27.8025 -0.00728979 27.9149 0.00393418C28.0236 0.00214708 28.1314 0.0240295 28.2318 0.0682377C28.3322 0.112446 28.423 0.178026 28.4985 0.260934C28.574 0.343843 28.6327 0.442313 28.6709 0.550239C28.7091 0.658165 28.726 0.773249 28.7205 0.888382C28.7394 1.80286 28.73 2.70833 28.73 3.62281C28.73 3.76388 28.7394 3.90395 28.7488 4.09505H31.1846C31.1846 3.16057 31.1751 2.2551 31.1846 1.35063C31.1764 1.10359 31.2018 0.856585 31.2601 0.617245C31.3222 0.427701 31.442 0.265407 31.6005 0.155808C31.759 0.0462083 31.9473 -0.00449235 32.136 0.0116439C32.3246 0.0277801 32.5028 0.109851 32.6427 0.244981C32.7826 0.380111 32.8763 0.560659 32.909 0.758325C32.9376 0.984769 32.947 1.21345 32.9373 1.44168C32.9373 6.10611 32.9468 10.7605 32.9279 15.425C32.8906 16.6575 33.3051 17.8575 34.0845 18.7727C34.9184 19.7882 35.7052 20.8438 36.5202 21.8743C36.6249 22.0154 36.7476 22.1455 36.956 22.3866C37.0608 21.261 37.1645 20.2655 37.2391 19.26C37.2209 19.0975 37.1656 18.9422 37.0777 18.8077C35.8633 16.3333 35.4404 13.5072 35.8726 10.7555C36.3049 8.00389 37.5689 5.4759 39.4741 3.55272C41.3794 1.62954 43.8225 0.415436 46.4351 0.0935042C49.0477 -0.228428 51.6882 0.359254 53.9584 1.76793C56.2286 3.17661 58.0055 5.32992 59.021 7.90316C60.0366 10.4764 60.2358 13.3301 59.5887 16.0339C58.9415 18.7377 57.4831 21.1451 55.4332 22.893C53.3834 24.6409 50.8533 25.6347 48.2245 25.7243C46.58 25.7953 44.9395 25.5029 43.4073 24.8656C41.875 24.2283 40.4845 23.2601 39.3239 22.0224C39.2003 21.8913 39.0777 21.7613 38.9465 21.6302C38.9013 21.6046 38.8535 21.5845 38.8041 21.5702C38.7097 22.5046 38.605 23.4101 38.5484 24.3146C38.539 24.4657 38.6909 24.6468 38.7947 24.7768C40.3116 26.7268 41.8181 28.6869 43.3445 30.6179C43.8399 31.2874 44.5338 31.76 45.314 31.9592C46.0942 32.1584 46.9149 32.0725 47.6433 31.7154C47.8047 31.6554 47.966 31.5644 48.1263 31.5043C48.2345 31.4434 48.3533 31.407 48.4754 31.3975C48.5975 31.388 48.7202 31.4055 48.8355 31.449C48.9509 31.4925 49.0564 31.561 49.1455 31.6501C49.2345 31.7392 49.3051 31.847 49.3527 31.9666C49.4044 32.0803 49.4323 32.2044 49.4345 32.3306C49.4366 32.4568 49.413 32.582 49.3653 32.6976C49.3175 32.8132 49.2467 32.9165 49.1577 33.0003C49.0688 33.0841 48.9638 33.1465 48.8499 33.1832C48.0952 33.4744 47.2858 33.6455 46.4991 33.8566C46.312 33.8926 46.1229 33.916 45.933 33.9266C46.5773 34.761 47.1839 35.5044 47.7433 36.2888C48.0053 36.6449 48.1917 37.0568 48.2898 37.4963C48.3879 37.9358 48.3954 38.3926 48.3118 38.8354C48.2281 39.2783 48.0553 39.6968 47.8051 40.0623C47.555 40.4278 47.2333 40.7317 46.8622 40.9533C46.6443 41.0843 46.417 41.1844 46.151 41.3254C46.7104 42.0698 47.2217 42.7832 47.7811 43.4766C47.9389 43.6172 48.1413 43.6888 48.3471 43.6767C49.1905 43.6967 50.0244 43.6767 50.8687 43.6867C51.5507 43.6967 51.9677 44.0389 51.9875 44.5872C52.0064 45.1705 51.5894 45.5317 50.8555 45.5427C50.0593 45.5527 49.2631 45.5427 48.382 45.5427V48.108C48.382 48.9324 48.0688 49.3746 47.4915 49.3646C46.932 49.3546 46.6424 48.9224 46.6292 48.138C46.7504 47.0711 46.7118 45.9905 46.5151 44.9363C46.042 44.0074 45.4308 43.1654 44.7048 42.443C42.4961 39.5682 40.2908 36.693 38.089 33.8175C37.9654 33.6565 37.8428 33.5174 37.6343 33.2643C37.5013 34.5309 37.3787 35.6965 37.257 36.8531C36.9532 39.8387 36.691 42.8242 36.3466 45.7998C36.0923 47.4876 36.4662 49.2141 37.3893 50.6151C38.3125 52.0161 39.7127 52.9819 41.2945 53.3087C42.5454 53.6089 43.8256 53.821 45.0576 54.2092C45.8233 54.4959 46.5452 54.9004 47.2 55.4098C48.1197 56.0731 48.9442 56.8776 49.8536 57.5509C50.1629 57.8009 50.5208 57.9749 50.9013 58.0602C51.2817 58.1456 51.6753 58.1402 52.0536 58.0444C52.4319 57.9487 52.7853 57.765 53.0885 57.5066C53.3916 57.2482 53.6368 56.9216 53.8063 56.5504C55.1147 53.4138 56.4411 50.2671 57.4741 47.0304C58.5818 43.4074 58.4882 39.4916 57.209 35.9326C56.3081 33.2182 55.3609 30.5298 54.4412 27.8284C54.3483 27.6231 54.2905 27.4019 54.2704 27.1751C54.2572 26.9537 54.3246 26.7355 54.4587 26.5653C54.5928 26.3951 54.7834 26.2861 54.9912 26.2606C55.2058 26.2118 55.43 26.2538 55.6159 26.3778C55.8018 26.5017 55.9347 26.6976 55.9864 26.9239C56.4892 28.3117 57.0099 29.6984 57.4646 31.1061C58.1656 33.2773 58.9618 35.4184 59.474 37.6405C60.3922 41.7231 60.0278 46.0121 58.4363 49.8549C57.5168 52.1975 56.5785 54.5363 55.6213 56.8716C55.3711 57.5783 54.9661 58.2117 54.4395 58.7197C53.913 59.2277 53.2801 59.5955 52.5931 59.793C51.9061 59.9904 51.1847 60.0117 50.4885 59.8552C49.7922 59.6986 49.141 59.3687 48.5886 58.8926C47.7902 58.2984 47.0213 57.6609 46.2849 56.9826C45.6411 56.3735 44.8504 55.9661 44.001 55.806C42.9115 55.5649 41.8209 55.3337 40.7408 55.0616C38.8063 54.6031 37.1031 53.3947 35.9651 51.6734C34.8271 49.952 34.3364 47.8419 34.5892 45.7568C35.0923 41.0323 35.5725 36.3008 36.0297 31.5624C36.0466 31.3425 35.9857 31.1239 35.8589 30.9491C33.9637 28.4958 32.0581 26.0635 30.1525 23.6202C30.0868 23.5493 30.0172 23.4824 29.9441 23.4201C28.8542 24.8175 27.7706 26.2049 26.6933 27.5823C25.8688 28.6378 25.0726 29.7034 24.2292 30.7389C24.101 30.8893 24.0076 31.0694 23.9567 31.2648C23.9058 31.4603 23.8986 31.6656 23.9358 31.8645C24.1346 33.6134 24.3147 35.3627 24.4764 37.1123C24.5613 38.0467 24.3245 38.479 23.7462 38.55C23.1302 38.6201 22.8076 38.2078 22.7227 37.2733C22.5991 35.9867 22.467 34.69 22.3151 33.2422C22.0878 33.5234 21.9378 33.6945 21.8029 33.8856C19.0829 37.4341 16.3625 40.9859 13.6419 44.5411C13.461 44.798 13.3554 45.1055 13.3381 45.4256C13.3004 46.3261 13.3287 47.2455 13.3193 48.16C13.3098 48.9444 12.9872 49.3666 12.4184 49.3606C11.8684 49.3506 11.575 48.9484 11.5693 48.195C11.5599 47.3506 11.5693 46.4942 11.5693 45.5407H10.4486C9.93639 45.5407 9.43452 45.5507 8.92228 45.5306C8.80078 45.5436 8.67807 45.5292 8.56214 45.4886C8.4462 45.4479 8.33962 45.3818 8.24932 45.2947C8.15902 45.2075 8.08703 45.1011 8.038 44.9825C7.98898 44.8639 7.96403 44.7357 7.96477 44.6062C7.96708 44.4759 7.99473 44.3475 8.046 44.229C8.09727 44.1106 8.17104 44.0047 8.2627 43.9179C8.35436 43.8311 8.46193 43.7653 8.57868 43.7247C8.69542 43.684 8.81882 43.6694 8.94114 43.6817C9.84205 43.6617 10.742 43.6917 11.6325 43.6617C11.8526 43.6481 12.0609 43.552 12.2203 43.3905C12.7514 42.7372 13.258 42.0438 13.7843 41.3295C13.6429 41.2474 13.4975 41.1736 13.3485 41.1083C12.9303 40.9152 12.5596 40.6226 12.2653 40.253C11.971 39.8834 11.761 39.4468 11.6515 38.9772C11.542 38.5076 11.536 38.0175 11.634 37.545C11.732 37.0725 11.9313 36.6304 12.2165 36.2528C12.6429 35.6595 13.107 35.0972 13.5532 34.5239C13.6862 34.3528 13.8089 34.1817 13.9607 33.9806C13.2787 33.8396 12.6721 33.7495 12.0655 33.5884C11.6902 33.4824 11.3278 33.3307 10.9854 33.1362C10.8831 33.0851 10.7915 33.0127 10.7162 32.9233C10.6409 32.8338 10.5833 32.7291 10.5471 32.6156C10.5108 32.502 10.4965 32.3818 10.505 32.2622C10.5135 32.1426 10.5447 32.0261 10.5967 31.9196C10.6999 31.7058 10.8755 31.5414 11.0883 31.4593C11.3011 31.3773 11.5353 31.3837 11.7439 31.4773C12.3638 31.7089 13.0013 31.8836 13.6494 31.9996C14.1671 32.0699 14.6931 31.9987 15.1775 31.7927C15.6619 31.5868 16.0887 31.253 16.4173 30.823C18.0474 28.7819 19.6398 26.7208 21.2284 24.6508C21.3367 24.4865 21.3871 24.2872 21.3708 24.0875C21.2001 22.3586 21.0482 20.6297 20.8303 18.9008C20.6982 17.9728 20.3733 17.0875 19.879 16.309C19.3848 15.5306 18.7335 14.8783 17.9724 14.3996C17.2113 13.9208 16.3594 13.6274 15.4783 13.5407C14.5972 13.454 13.7089 13.5761 12.8778 13.8982C12.1006 14.2004 11.4493 14.7845 11.0392 15.547C10.0722 17.3159 9.07699 19.0759 8.26192 20.9248C6.02806 26.0499 4.10597 31.3214 2.50744 36.707C1.25591 40.8562 1.49548 45.3496 3.18005 49.3226C4.09039 51.5848 4.99036 53.856 5.91014 56.1182C6.0508 56.5799 6.29813 56.997 6.62963 57.3314C6.96113 57.6658 7.36625 57.9069 7.80809 58.0329C8.24993 58.1588 8.71444 58.1654 9.15933 58.0522C9.60421 57.939 10.0153 57.7096 10.3552 57.3848C11.2269 56.6915 12.0995 55.9771 12.9334 55.2337C13.7667 54.5793 14.7383 54.1513 15.7635 53.9871C16.8437 53.7259 17.9436 53.5248 19.0238 53.2327C20.4765 52.8423 21.7446 51.9024 22.5895 50.5897C23.4344 49.277 23.7978 47.682 23.6113 46.1049C23.4594 44.8283 23.3368 43.5516 23.2132 42.2749C23.1817 42.1431 23.1767 42.0058 23.1984 41.8718C23.2201 41.7377 23.2681 41.61 23.3392 41.4969C23.4103 41.3838 23.503 41.2877 23.6113 41.2149C23.7196 41.1421 23.8411 41.0942 23.9679 41.0743C24.4801 40.9943 24.8877 41.3855 24.9537 42.0498C25.1056 43.4506 25.2669 44.8443 25.3801 46.252C25.5289 48.2543 24.9972 50.2469 23.8812 51.8695C22.7652 53.492 21.1385 54.6375 19.2954 55.0986C18.0445 55.4098 16.7644 55.6319 15.5324 55.9991C14.9274 56.1991 14.3575 56.5033 13.8457 56.8996C12.8693 57.6229 11.9882 58.4774 11.0024 59.1817C10.4924 59.5589 9.91239 59.8162 9.30113 59.9365C8.68986 60.0567 8.06144 60.0372 7.45785 59.8793C6.85426 59.7213 6.28943 59.4285 5.80111 59.0204C5.31279 58.6123 4.91223 58.0983 4.62623 57.5129C3.23289 54.3062 2.00086 51.0185 0.816003 47.7078C0.486375 46.5207 0.248493 45.307 0.104713 44.0789C0.0669785 43.8978 0.0292441 43.7267 0 43.5456C0.00377343 42.5051 0.00377136 41.4665 0.00377136 40.431ZM37.4909 12.8666C37.4909 15.0434 38.0995 17.1712 39.2398 18.9811C40.38 20.791 42.0006 22.2016 43.8968 23.0346C45.7929 23.8676 47.8794 24.0856 49.8923 23.6609C51.9052 23.2362 53.7542 22.188 55.2055 20.6489C56.6567 19.1097 57.645 17.1486 58.0454 15.0137C58.4458 12.8788 58.2403 10.666 57.4549 8.65492C56.6695 6.64389 55.3395 4.92502 53.633 3.71569C51.9265 2.50637 49.9202 1.86089 47.8679 1.86089C45.1166 1.86433 42.479 3.02494 40.5335 5.08814C38.588 7.15134 37.4944 9.94868 37.4909 12.8666ZM28.7422 14.1233C28.7422 14.4555 28.7234 14.7666 28.7422 15.0678C28.7957 16.0085 28.6696 16.9509 28.3715 17.8387C28.0734 18.7265 27.6094 19.5414 27.0074 20.2345C22.5812 25.8374 18.2115 31.4933 13.8325 37.1333C13.6205 37.396 13.4624 37.7027 13.3683 38.0337C13.32 38.3114 13.3622 38.5982 13.4878 38.8471C13.6135 39.096 13.8152 39.2922 14.0598 39.4035C14.3425 39.5305 14.6589 39.5455 14.9512 39.4458C15.2436 39.3461 15.4923 39.1382 15.6522 38.8602C20.1067 33.1505 24.5584 27.4372 29.0073 21.7202C29.7563 20.7547 30.1827 20.7447 30.9506 21.7302C35.3391 27.3598 39.7276 32.9928 44.1161 38.6291C44.2454 38.8114 44.3879 38.9827 44.5425 39.1413C44.7527 39.3636 45.0333 39.495 45.3298 39.5098C45.6263 39.5246 45.9173 39.4218 46.1462 39.2214C46.3877 39.0213 46.5485 38.7315 46.5959 38.4104C46.6434 38.0894 46.574 37.7613 46.4019 37.4925C46.3182 37.3534 46.2236 37.2222 46.1189 37.1003C41.6448 31.3499 37.1585 25.5933 32.66 19.8303C31.6981 18.6396 31.1821 17.1157 31.2101 15.548C31.2195 15.0758 31.2101 14.6135 31.2101 14.1203L28.7422 14.1233ZM31.1497 8.2022V6.05108H28.7422C28.7422 6.66439 28.7234 7.25171 28.7611 7.81C28.7705 7.94107 28.9601 8.17219 29.0743 8.17219C29.7563 8.22222 30.4384 8.2022 31.1497 8.2022ZM28.7762 10.0882V12.1693H31.1553V10.0882H28.7762Z" fill="#47BBC6"/>
<path d="M53.1374 11.0687C53.5072 11.0086 53.8676 10.9276 54.227 10.8776C54.3477 10.8421 54.4741 10.8341 54.5979 10.8541C54.7217 10.8741 54.8401 10.9216 54.9454 10.9935C55.0507 11.0655 55.1404 11.1602 55.2088 11.2715C55.2771 11.3828 55.3225 11.5081 55.342 11.6393C55.3614 11.7705 55.3546 11.9046 55.3218 12.0328C55.289 12.161 55.2309 12.2804 55.1516 12.3831C55.0722 12.4859 54.9733 12.5697 54.8613 12.629C54.7492 12.6884 54.6266 12.7219 54.5015 12.7275C54.1242 12.7976 53.7468 12.8686 53.3544 12.9486C54.4251 15.7431 54.094 17.7131 52.3686 19.1408C50.6913 20.5286 48.6819 20.3875 46.549 18.6986C46.3782 19.1209 46.2264 19.5431 46.0462 19.9453C46.0068 20.0624 45.9457 20.17 45.8662 20.2615C45.7868 20.353 45.6909 20.4266 45.5841 20.4778C45.4772 20.5291 45.3618 20.5571 45.2446 20.56C45.1273 20.5629 45.0107 20.5407 44.9018 20.4947C44.7928 20.4488 44.6937 20.38 44.6104 20.2926C44.527 20.2051 44.4612 20.1007 44.4167 19.9856C44.3723 19.8706 44.3501 19.7472 44.3516 19.6228C44.3531 19.4985 44.3783 19.3757 44.4255 19.2619C44.5585 18.8617 44.7293 18.4615 44.9085 17.9852C44.2096 18.0194 43.5132 17.8746 42.8781 17.5633C42.243 17.2519 41.6879 16.7831 41.2596 16.1963C40.6343 15.3618 40.3147 14.3156 40.3596 13.2508C40.4034 12.0567 40.8823 10.9273 41.6956 10.1003C42.509 9.27337 43.5931 8.81347 44.7198 8.81748C44.8766 8.11654 45.1828 7.46304 45.6149 6.90717C46.0469 6.35129 46.5933 5.90782 47.2122 5.61081C48.0821 5.16496 49.0732 5.06176 50.0083 5.31965C52.2846 5.92997 53.3553 7.85998 53.1374 11.0687ZM44.7113 10.7065C44.2007 10.6884 43.6969 10.8355 43.2669 11.1282C42.837 11.4209 42.5011 11.8454 42.3039 12.3453C42.1024 12.8441 42.048 13.396 42.1479 13.9282C42.2477 14.4604 42.4972 14.9481 42.8634 15.3271C43.2296 15.7061 43.6954 15.9586 44.1996 16.0514C44.7037 16.1442 45.2225 16.073 45.6877 15.8471C46.6641 15.4049 46.948 15.525 47.3858 16.5705C47.5414 16.9569 47.78 17.2994 48.0827 17.5705C48.3853 17.8417 48.7436 18.034 49.1288 18.1321C49.514 18.2303 49.9155 18.2315 50.3013 18.1357C50.687 18.0399 51.0463 17.8497 51.3504 17.5804C51.6545 17.311 51.895 16.97 52.0527 16.5845C52.2103 16.1991 52.2808 15.7798 52.2585 15.3603C52.2361 14.9408 52.1216 14.5326 51.924 14.1684C51.7264 13.8042 51.4513 13.4941 51.1205 13.2628C50.3337 12.6895 50.2772 12.2623 50.8743 11.5039C51.2118 11.0699 51.4162 10.537 51.4602 9.97642C51.5042 9.41585 51.3857 8.8544 51.1205 8.36725C50.8769 7.91613 50.5131 7.55142 50.0747 7.31894C49.6363 7.08646 49.1429 6.99657 48.6565 7.06057C48.1202 7.13697 47.6191 7.38617 47.2207 7.77447C46.8224 8.16277 46.5461 8.67144 46.4292 9.2317C46.1518 10.7355 46.1518 10.7355 44.7113 10.7055V10.7065Z" fill="#47BBC6"/>
<path d="M42.8166 5.51758C43.0525 5.52179 43.2773 5.62448 43.4423 5.80336C43.6072 5.98223 43.699 6.22287 43.6978 6.47308C43.6877 6.71203 43.5917 6.93784 43.4296 7.10416C43.2675 7.27048 43.0516 7.36471 42.8261 7.36754C42.5948 7.36887 42.3724 7.27269 42.208 7.10016C42.0435 6.92763 41.9505 6.69289 41.9492 6.44757C41.948 6.20225 42.0387 5.96645 42.2014 5.79204C42.364 5.61764 42.5853 5.5189 42.8166 5.51758Z" fill="#47BBC6"/>
<path d="M49.1289 8.62427C49.3599 8.6461 49.5732 8.76422 49.7222 8.9527C49.8711 9.14119 49.9435 9.38463 49.9233 9.62963C49.9032 9.87463 49.7923 10.1012 49.6149 10.2595C49.4375 10.4178 49.2081 10.4951 48.9771 10.4742C48.8624 10.4639 48.7507 10.4297 48.6485 10.3735C48.5463 10.3173 48.4555 10.2403 48.3814 10.1469C48.3073 10.0535 48.2513 9.94551 48.2166 9.8291C48.1818 9.7127 48.1691 9.59018 48.1791 9.46855C48.1891 9.34692 48.2216 9.22857 48.2748 9.12029C48.3279 9.012 48.4007 8.91589 48.4889 8.83747C48.5771 8.75905 48.6791 8.69986 48.7889 8.66328C48.8987 8.62669 49.0143 8.61343 49.1289 8.62427Z" fill="#47BBC6"/>
<path d="M44.6171 14.3436C44.5004 14.3456 44.3846 14.3229 44.2763 14.2767C44.168 14.2306 44.0695 14.162 43.9865 14.075C43.9036 13.9879 43.8379 13.8842 43.7933 13.7699C43.7486 13.6555 43.7259 13.5329 43.7266 13.4091C43.7371 13.1702 43.8313 12.9441 43.9908 12.7749C44.1503 12.6058 44.3635 12.5058 44.5888 12.4946C44.7053 12.4948 44.8205 12.5194 44.928 12.567C45.0355 12.6146 45.133 12.6844 45.2149 12.7722C45.2968 12.86 45.3615 12.9641 45.4053 13.0786C45.449 13.1931 45.471 13.3156 45.4699 13.4391C45.4704 13.558 45.4487 13.6759 45.406 13.7859C45.3633 13.8959 45.3005 13.9958 45.2212 14.0799C45.142 14.164 45.0478 14.2306 44.9441 14.2758C44.8404 14.3211 44.7292 14.3441 44.6171 14.3436Z" fill="#47BBC6"/>
<path d="M49.8514 16.6564C49.6263 16.6628 49.4076 16.5762 49.2414 16.415C49.0753 16.2537 48.9747 16.0303 48.9609 15.7919C48.9497 15.6685 48.963 15.5441 48.9998 15.4264C49.0366 15.3088 49.0962 15.2006 49.1747 15.1088C49.2531 15.0169 49.3488 14.9435 49.4556 14.8932C49.5624 14.8428 49.678 14.8167 49.7948 14.8164C50.0206 14.8054 50.2413 14.8888 50.4098 15.0485C50.5782 15.2083 50.6809 15.4317 50.6957 15.6708C50.7035 15.9193 50.6197 16.1613 50.4621 16.3453C50.3045 16.5293 50.0854 16.6409 49.8514 16.6564Z" fill="#47BBC6"/>
</svg>
