<svg width="60" height="61" viewBox="0 0 60 61" fill="none" xmlns="http://www.w3.org/2000/svg">
<path d="M53.0301 60.0142H36.992C36.3246 59.6752 35.6372 59.3572 34.9807 58.9772C34.0365 58.4432 33.1133 57.8471 32.1692 57.3131C31.854 57.1286 31.498 57.0254 31.1331 57.0131C28.1167 56.9921 25.0893 57.0031 22.0719 56.9921C21.9308 56.979 21.789 57.0082 21.6645 57.0758C21.54 57.1435 21.4384 57.2466 21.3725 57.3721C21.0246 57.9673 20.4987 58.4381 19.8692 58.7182C19.2396 58.9982 18.5381 59.0734 17.8635 58.9332C17.35 58.8014 16.8486 58.6261 16.3648 58.4092C15.8283 59.2217 14.9964 59.7928 14.0458 60.0012H12.8759C12.2567 59.8614 11.6824 59.5685 11.2056 59.1492C10.7287 58.7299 10.3645 58.1977 10.1462 57.6011C9.69998 57.8382 9.20773 57.9757 8.70332 58.0042C8.19891 58.0326 7.69435 57.9513 7.22433 57.7659C6.75432 57.5805 6.33002 57.2953 5.98065 56.9301C5.63128 56.5648 5.36512 56.1281 5.2005 55.6501C5.14175 55.6524 5.08328 55.6595 5.02565 55.6711C4.54832 55.8988 4.02561 56.0152 3.49684 56.0116C2.96806 56.0079 2.447 55.8843 1.97285 55.65C1.4987 55.4157 1.08382 55.0768 0.759413 54.6589C0.435004 54.2409 0.20951 53.7548 0.099912 53.237C0.0758242 53.1862 0.0418609 53.1406 0 53.103V37.0496C0.338707 36.3716 0.656432 35.6935 1.02611 35.0365C1.55965 34.0915 2.15514 33.1775 2.68867 32.2224C2.87309 31.907 2.97611 31.5506 2.98842 31.1854C3.0094 28.1663 2.99841 25.1463 3.0094 22.1272C3.01689 21.9767 2.98128 21.8272 2.90676 21.6963C2.83225 21.5653 2.72192 21.4584 2.58876 21.3881C2.01003 21.0358 1.55378 20.5136 1.28206 19.8925C1.01033 19.2715 0.936307 18.5817 1.07007 17.9171C1.19703 17.4017 1.37232 16.8994 1.59362 16.417C0.786942 15.8748 0.217886 15.0444 0.00299576 14.096V12.9199C0.140777 12.3031 0.430924 11.7307 0.846877 11.2552C1.26283 10.7796 1.79131 10.4161 2.38394 10.1978C2.15352 9.74569 2.02185 9.24964 1.99768 8.74264C1.9735 8.23565 2.05737 7.7293 2.24372 7.25724C2.43008 6.78517 2.71464 6.3582 3.07852 6.00466C3.4424 5.65112 3.87726 5.37912 4.35423 5.20671C4.35292 5.15147 4.34589 5.0965 4.33325 5.04271C4.08448 4.4734 3.98717 3.84934 4.05078 3.23123C4.11439 2.61313 4.33675 2.02203 4.69624 1.51543C5.05574 1.00883 5.54011 0.603982 6.10225 0.340277C6.6644 0.0765729 7.28516 -0.0370099 7.90416 0.0105716C12.6451 0.102574 17.3859 0.0415686 22.1268 0.0315683C22.8507 0.0202107 23.5628 0.216256 24.1791 0.596586C25.378 1.32561 26.577 2.05462 27.8009 2.74264C28.1025 2.91386 28.4398 3.01247 28.7861 3.03065C31.8335 3.05165 34.8708 3.05165 37.9192 3.03065C38.0428 3.01839 38.1625 2.98006 38.2703 2.91818C38.3781 2.8563 38.4716 2.77228 38.5446 2.67164C38.9026 2.08107 39.4331 1.6147 40.0644 1.33554C40.6956 1.05637 41.3973 0.977855 42.0746 1.1106C42.5848 1.23727 43.0827 1.40929 43.5623 1.62461C43.9085 1.07062 44.4079 0.629149 44.9999 0.353812C45.592 0.0784753 46.2511 -0.0188806 46.8974 0.0735693C47.5531 0.157928 48.1723 0.423687 48.6854 0.840962C49.1985 1.25824 49.5852 1.81048 49.8019 2.43563C50.2497 2.20054 50.7432 2.06588 51.2483 2.04101C51.7533 2.01614 52.2577 2.10166 52.7264 2.29163C53.1907 2.48119 53.6098 2.76667 53.9564 3.1294C54.3029 3.49213 54.5692 3.92397 54.7376 4.39669C54.8375 4.38669 54.8815 4.39669 54.9125 4.37569C55.4808 4.1262 56.1037 4.02764 56.7212 4.08953C57.3386 4.15142 57.9297 4.37167 58.4373 4.72898C58.9449 5.0863 59.3518 5.56861 59.6187 6.12931C59.8856 6.69001 60.0036 7.31014 59.9611 7.92979C59.8792 12.6749 59.9301 17.42 59.9401 22.1652C59.9509 22.9084 59.748 23.6391 59.3556 24.2702C58.6472 25.4203 57.9498 26.5603 57.2934 27.7413C57.0757 28.1275 56.956 28.5611 56.9447 29.0044C56.9137 31.9524 56.9347 34.9045 56.9237 37.8476C56.9011 38.0164 56.9314 38.1882 57.0105 38.339C57.0896 38.4899 57.2136 38.6124 57.3654 38.6896C57.7442 38.9173 58.0714 39.2218 58.3259 39.5834C58.5803 39.945 58.7565 40.3559 58.8431 40.7897C58.9478 41.2645 58.9536 41.7558 58.8601 42.2329C58.7666 42.7101 58.5758 43.1628 58.2995 43.5628C58.8573 43.9257 59.3026 44.4374 59.585 45.0403C59.8674 45.6432 59.9758 46.3131 59.8979 46.9743C59.8199 47.6356 59.5588 48.2618 59.1439 48.7824C58.729 49.3029 58.177 49.6969 57.5502 49.9199C57.7792 50.3611 57.9097 50.8467 57.9328 51.3432C57.9559 51.8398 57.8711 52.3355 57.6841 52.796C57.4915 53.268 57.2007 53.6936 56.831 54.0443C56.4613 54.395 56.0212 54.6629 55.5399 54.8301C55.5809 54.9741 55.6119 55.0561 55.6398 55.1481C55.8301 55.6049 55.9217 56.0969 55.9086 56.5917C55.8955 57.0864 55.778 57.5729 55.5639 58.019C55.3497 58.4651 55.0437 58.8609 54.6659 59.1803C54.2881 59.4996 53.8471 59.7354 53.3718 59.8722C53.2659 59.9012 53.153 59.9632 53.0301 60.0142ZM37.9152 5.0457H37.2378C34.5081 5.0457 31.7785 5.03571 29.0389 5.05571C28.1547 5.08063 27.2837 4.83655 26.541 4.35569C25.433 3.65567 24.314 2.98965 23.1749 2.34264C22.8384 2.15366 22.4616 2.04804 22.0759 2.03462C17.356 2.01362 12.6351 2.02463 7.91515 2.02463C6.74517 2.02463 5.99581 2.60964 5.97583 3.51367C5.95485 4.45869 6.69421 5.0337 7.92514 5.0337C9.26898 5.0337 10.6138 5.02371 11.9686 5.04371C12.2255 5.03532 12.4753 5.12889 12.6636 5.30403C12.8519 5.47917 12.9634 5.72168 12.9738 5.97873C12.9787 6.23458 12.8877 6.483 12.7186 6.67498C12.5496 6.86695 12.3148 6.98854 12.0606 7.01576C11.8866 7.03302 11.7118 7.04003 11.537 7.03676C9.58771 7.03676 7.64039 7.02676 5.68808 7.03676C5.47833 7.01905 5.26717 7.0439 5.06725 7.10983C4.86734 7.17577 4.68277 7.28143 4.52463 7.42047C4.36649 7.55952 4.23803 7.72909 4.14695 7.91902C4.05586 8.10895 4.00402 8.31534 3.99454 8.5258C3.9973 8.73659 4.04392 8.94448 4.13142 9.13623C4.21892 9.32798 4.34539 9.49937 4.50276 9.63947C4.66012 9.77958 4.84494 9.88531 5.04541 9.94994C5.24589 10.0146 5.45762 10.0367 5.6671 10.0148C6.94999 10.0248 8.24287 10.0148 9.52576 10.0148C10.5009 10.0148 11.0035 10.3739 10.9825 11.0519C10.9615 11.7089 10.4999 12.0169 9.52576 12.0169C7.63739 12.0169 5.73904 12.0069 3.85167 12.0269C3.50089 12.0215 3.15241 12.0844 2.82556 12.2119C2.53884 12.3424 2.30362 12.5647 2.15693 12.8436C2.01024 13.1226 1.9604 13.4425 2.01525 13.7529C2.09158 14.1208 2.29477 14.45 2.58924 14.6829C2.88371 14.9158 3.25069 15.0376 3.62587 15.027C5.67809 15.037 7.72232 15.027 9.77255 15.037C10.5109 15.037 10.9715 15.417 10.9835 16.013C10.9935 16.629 10.5219 17.03 9.75256 17.03H4.71392C4.50558 17.0035 4.294 17.0207 4.09271 17.0807C3.89142 17.1407 3.70487 17.2421 3.54498 17.3784C3.3851 17.5147 3.25541 17.6829 3.16422 17.8723C3.07302 18.0616 3.02233 18.268 3.0154 18.4781C3.01665 18.6933 3.06197 18.9059 3.14857 19.1029C3.23518 19.2999 3.36121 19.477 3.5189 19.6233C3.67658 19.7696 3.86257 19.882 4.06537 19.9535C4.26816 20.025 4.48345 20.0542 4.69794 20.0391C4.8518 20.0491 5.00567 20.0391 5.16953 20.0391H14.9491C15.3187 20.0391 15.6874 20.0181 16.0571 20.0491C16.2287 20.0574 16.395 20.1112 16.539 20.2049C16.683 20.2986 16.7996 20.4289 16.8768 20.5825C16.9541 20.736 16.9892 20.9074 16.9785 21.079C16.9679 21.2506 16.912 21.4163 16.8164 21.5592C16.6936 21.7592 16.5287 21.9292 16.3858 22.1142C15.6055 23.0692 14.8262 24.0142 14.0568 24.9692C13.8781 25.1675 13.771 25.42 13.7529 25.6865C13.7348 25.9529 13.8066 26.2177 13.9569 26.4383C14.0809 26.6646 14.2804 26.8401 14.5206 26.9341C14.7608 27.0281 15.0263 27.0345 15.2708 26.9523C15.5965 26.8318 15.8885 26.6346 16.122 26.3773C19.2104 23.3372 22.2887 20.2971 25.3471 17.216C25.7152 16.8116 26.1686 16.4942 26.6744 16.2866C27.1802 16.0791 27.7257 15.9867 28.2715 16.016C29.2057 16.057 30.1289 16.026 30.9912 16.026C30.9641 15.4074 31.002 14.7877 31.1041 14.177C31.2482 13.6626 31.517 13.1918 31.8864 12.8063C32.2559 12.4208 32.7147 12.1325 33.2221 11.9669C33.7296 11.8013 34.27 11.7636 34.7955 11.8571C35.321 11.9506 35.8153 12.1724 36.2346 12.5029C36.7892 12.9139 37.3117 13.3759 37.9282 13.869C37.9152 10.8899 37.9152 8.01379 37.9152 5.0457ZM22.01 55.0021C24.9854 55.0021 27.8899 55.0121 30.8023 54.9921C31.7225 54.9622 32.6305 55.2092 33.4091 55.7011C34.5081 56.4011 35.6362 57.0671 36.7642 57.7141C37.0272 57.8797 37.3266 57.9785 37.6364 58.0021C42.5309 58.0228 47.429 58.0228 52.3307 58.0021C52.6418 57.993 52.9455 57.9045 53.2129 57.7451C53.4862 57.5904 53.7008 57.3497 53.8233 57.0603C53.9458 56.771 53.9694 56.4492 53.8904 56.1451C53.8113 55.8068 53.6158 55.5072 53.3381 55.2987C53.0604 55.0903 52.7183 54.9863 52.3717 55.0051C50.9869 54.9841 49.6011 55.0051 48.2163 54.9951C47.9643 55.0061 47.7128 54.9642 47.4779 54.8721C47.2769 54.7852 47.1148 54.6273 47.0227 54.4284C46.9305 54.2296 46.9147 54.0038 46.9783 53.794C47.0242 53.5599 47.1536 53.3505 47.3425 53.205C47.5313 53.0594 47.7666 52.9876 48.0045 53.003C49.0206 52.993 50.0367 53.003 51.0518 52.993C52.1599 52.993 53.2789 53.003 54.3869 52.983C54.7917 52.9857 55.1812 52.8288 55.4713 52.5462C55.7613 52.2636 55.9285 51.878 55.9366 51.473C55.9256 51.0772 55.7587 50.7019 55.4724 50.4287C55.186 50.1556 54.8034 50.0069 54.4079 50.0149C54.1921 50.0049 53.9773 50.0149 53.7615 50.0149H50.0777C49.6161 50.0149 49.1784 49.8709 49.0516 49.3989C49.003 49.2385 48.9889 49.0696 49.0101 48.9033C49.0312 48.737 49.0872 48.577 49.1744 48.4339C49.4508 48.1774 49.8137 48.0346 50.1906 48.0339C52.2018 47.9929 54.2131 48.0239 56.2143 48.0129C56.4287 48.0362 56.6455 48.0144 56.851 47.9488C57.0564 47.8833 57.2458 47.7755 57.4072 47.6324C57.5685 47.4893 57.6982 47.3139 57.7879 47.1177C57.8775 46.9214 57.9252 46.7086 57.9279 46.4928C57.9125 46.283 57.8561 46.0783 57.7616 45.8904C57.6672 45.7025 57.5367 45.5351 57.3775 45.3977C57.2184 45.2603 57.0337 45.1557 56.8341 45.0898C56.6345 45.0239 56.4239 44.9981 56.2143 45.0138C55.2152 45.0038 54.2241 45.0138 53.2279 45.0138C52.1399 45.0138 51.0418 45.0238 49.9548 45.0038C49.821 45.0091 49.6875 44.9872 49.5624 44.9395C49.4373 44.8917 49.3232 44.8191 49.2269 44.726C49.1306 44.6329 49.0542 44.5213 49.0022 44.3978C48.9502 44.2743 48.9237 44.1415 48.9244 44.0075C48.9251 43.8735 48.9529 43.7411 49.0061 43.6181C49.0594 43.4952 49.1369 43.3843 49.2341 43.2922C49.3314 43.2 49.4462 43.1286 49.5718 43.0821C49.6974 43.0356 49.831 43.0151 49.9647 43.0217C50.1646 43.0117 50.3544 43.0217 50.5492 43.0217C52.1708 43.0217 53.7914 43.0317 55.403 43.0117C55.7792 43.0223 56.145 42.8872 56.4241 42.6346C56.7033 42.382 56.8744 42.0314 56.9018 41.6557C56.9303 41.2721 56.812 40.892 56.5708 40.5926C56.3295 40.2932 55.9835 40.097 55.6029 40.0437C55.3513 40.0093 55.0973 39.9955 54.8435 40.0027H44.4206C44.2048 40.0111 43.9888 40.004 43.7741 39.9817C43.6192 39.961 43.4717 39.9029 43.3442 39.8124C43.2167 39.7219 43.1132 39.6018 43.0425 39.4623C42.9717 39.3228 42.936 39.1682 42.9383 39.0118C42.9406 38.8554 42.9809 38.7019 43.0557 38.5646C43.1775 38.3632 43.3184 38.174 43.4764 37.9996C44.2667 37.0346 45.057 36.0686 45.8463 35.0925C46.0278 34.8969 46.1393 34.6467 46.1636 34.3809C46.1878 34.115 46.1233 33.8487 45.9802 33.6235C45.8628 33.3939 45.6679 33.2133 45.4302 33.1137C45.1924 33.0141 44.9271 33.002 44.6813 33.0795C44.3546 33.1946 44.0593 33.3847 43.8191 33.6345C40.6884 36.7159 37.5688 39.8073 34.4602 42.9087C34.1226 43.2757 33.7089 43.5644 33.248 43.7544C32.7872 43.9444 32.2904 44.0312 31.7925 44.0088C31.3409 43.9878 30.8993 44.0088 30.4487 44.0088H28.92C28.9469 44.6199 28.9134 45.2323 28.8201 45.8368C28.6767 46.3555 28.407 46.8305 28.0352 47.2192C27.6633 47.608 27.2009 47.8983 26.6894 48.0642C26.1779 48.2301 25.6333 48.2664 25.1043 48.1698C24.5753 48.0732 24.0786 47.8468 23.6585 47.5109C23.115 47.0899 22.5914 46.6478 21.996 46.1658C22.0099 49.1789 22.01 52.055 22.01 55.0021ZM54.9285 37.9836V37.3056C54.9285 34.5115 54.9384 31.7184 54.9285 28.9354C54.9189 28.1707 55.1268 27.4191 55.5279 26.7683C56.2563 25.5873 56.9647 24.4062 57.6621 23.2042C57.8241 22.9401 57.9191 22.6404 57.9388 22.3312C57.9595 17.4524 57.9628 12.5739 57.9489 7.69578C57.9592 7.48569 57.9277 7.27565 57.8562 7.07786C57.7847 6.88007 57.6746 6.69848 57.5324 6.54364C57.3901 6.3888 57.2185 6.26381 57.0276 6.17593C56.8367 6.08805 56.6302 6.03903 56.4202 6.03173C56.2149 6.03991 56.0134 6.08931 55.8276 6.17698C55.6418 6.26465 55.4755 6.38881 55.3386 6.54208C55.2017 6.69535 55.0969 6.8746 55.0306 7.06918C54.9643 7.26377 54.9377 7.46971 54.9524 7.67478C54.9424 8.2398 54.9524 8.80481 54.9524 9.36983C54.9524 10.2639 54.9624 11.1699 54.9424 12.0609C54.9411 12.3085 54.8443 12.5459 54.6723 12.7239C54.5004 12.9018 54.2664 13.0064 54.0193 13.0159C53.7735 13.0268 53.5324 12.947 53.3414 12.7919C53.1505 12.6367 53.023 12.4168 52.9831 12.1739C52.9572 11.98 52.9469 11.7844 52.9522 11.5889V6.01973C52.9606 5.80383 52.9536 5.58762 52.9312 5.37272C52.8834 5.00163 52.7035 4.66024 52.4246 4.41117C52.1456 4.16209 51.7863 4.02203 51.4125 4.01668C51.0359 4.02261 50.6765 4.17497 50.4102 4.4415C50.1439 4.70804 49.9917 5.06783 49.9857 5.44472C49.9548 6.72875 49.9757 8.02279 49.9647 9.30682C49.9647 9.52283 49.9747 9.73784 49.9647 9.95384C49.9697 10.0912 49.9472 10.2281 49.8985 10.3565C49.8498 10.485 49.776 10.6024 49.6813 10.7019C49.5866 10.8014 49.4731 10.881 49.3472 10.9359C49.2214 10.9909 49.0859 11.0201 48.9486 11.0219C48.8116 11.0191 48.6766 10.9882 48.5521 10.931C48.4275 10.8738 48.316 10.7916 48.2246 10.6895C48.1331 10.5873 48.0636 10.4675 48.0204 10.3373C47.9772 10.2071 47.9613 10.0695 47.9735 9.93284C47.9635 7.86878 47.9735 5.79373 47.9635 3.73267C47.9857 3.52267 47.9644 3.31033 47.9009 3.10895C47.8373 2.90758 47.7329 2.7215 47.5942 2.56238C47.4555 2.40326 47.2854 2.27452 47.0947 2.18422C46.904 2.09393 46.6967 2.04402 46.4858 2.03763C46.271 2.04559 46.0601 2.09723 45.8659 2.18939C45.6717 2.28155 45.4983 2.4123 45.3562 2.57368C45.2142 2.73507 45.1064 2.92371 45.0395 3.12812C44.9726 3.33253 44.9479 3.54843 44.9671 3.76267C44.9571 5.34472 44.9671 6.92576 44.9671 8.5078C44.9671 9.00082 44.9771 9.48383 44.9671 9.97684C44.9808 10.115 44.9657 10.2544 44.9227 10.3864C44.8797 10.5183 44.8097 10.6399 44.7171 10.7433C44.6246 10.8467 44.5116 10.9297 44.3853 10.987C44.2589 11.0442 44.1221 11.0746 43.9834 11.076C43.8447 11.0775 43.7073 11.0501 43.5798 10.9955C43.4523 10.9408 43.3375 10.8603 43.2429 10.7588C43.1482 10.6574 43.0756 10.5374 43.0298 10.4064C42.984 10.2753 42.966 10.1362 42.9768 9.99784C42.9668 9.82284 42.9768 9.64883 42.9768 9.47383C42.9768 7.85078 42.9868 6.23874 42.9668 4.61569C42.9834 4.23081 42.8506 3.85444 42.5962 3.56534C42.3418 3.27624 41.9855 3.09683 41.602 3.06466C41.2092 3.04012 40.8222 3.16862 40.522 3.42325C40.2218 3.67788 40.0317 4.03889 39.9914 4.43069C39.9654 4.66307 39.9551 4.89694 39.9604 5.13071V15.555C39.9673 15.75 39.964 15.9453 39.9504 16.14C39.9358 16.3062 39.8788 16.4659 39.7848 16.6038C39.6908 16.7416 39.563 16.8529 39.4136 16.9271C39.2643 17.0013 39.0984 17.0359 38.9319 17.0274C38.7654 17.019 38.6038 16.9679 38.4627 16.879C38.2542 16.7367 38.054 16.5824 37.8632 16.417C36.929 15.657 35.9958 14.876 35.0517 14.127C34.8417 13.9462 34.5778 13.8402 34.3013 13.8254C34.0247 13.8105 33.7511 13.8877 33.523 14.0449C33.3125 14.1734 33.1508 14.3684 33.0634 14.5991C32.976 14.8299 32.9679 15.0831 33.0404 15.319C33.1608 15.645 33.3578 15.9373 33.6149 16.171C36.6423 19.2421 39.6587 22.3232 42.717 25.3633C43.144 25.7494 43.4783 26.227 43.6951 26.7605C43.9119 27.294 44.0055 27.8696 43.9689 28.4443C43.918 29.3444 43.959 30.2624 43.959 31.1554C44.0719 31.1764 44.1028 31.1964 44.1438 31.1964C44.8272 31.0167 45.5504 31.0649 46.204 31.3336C46.8576 31.6023 47.4058 32.0769 47.7657 32.6855C48.1132 33.3027 48.2523 34.0157 48.1623 34.7184C48.0722 35.4212 47.7579 36.076 47.2661 36.5856C46.8964 37.0276 46.5377 37.4796 46.1171 38.0026C49.0895 37.9836 51.963 37.9836 54.9285 37.9836ZM4.99468 22.0742V22.7312C4.99468 25.4223 4.9737 28.1233 5.00467 30.8144C5.03784 31.7735 4.77629 32.7198 4.25532 33.5255C3.5879 34.5525 2.95644 35.6105 2.36695 36.6886C2.14355 37.0923 2.01699 37.5425 1.99727 38.0036C1.9663 42.6867 1.97629 47.3709 1.97629 52.054C1.96792 52.2492 1.97494 52.4448 1.99727 52.639C2.0433 52.981 2.1977 53.2992 2.43778 53.5469C2.67786 53.7946 2.99097 53.9586 3.33112 54.015C3.64401 54.0497 3.95972 53.9825 4.23147 53.8234C4.50321 53.6644 4.71653 53.4219 4.83981 53.132C4.93737 52.837 4.98926 52.5287 4.99368 52.218C5.01466 50.852 4.99368 49.4859 5.00367 48.1179C4.99054 47.9811 5.00588 47.8431 5.04874 47.7125C5.0916 47.5819 5.16104 47.4617 5.25268 47.3594C5.34432 47.257 5.45616 47.1748 5.58114 47.1179C5.70613 47.061 5.84154 47.0307 5.97883 47.0288C6.11558 47.0294 6.25083 47.0575 6.37654 47.1114C6.50225 47.1653 6.61586 47.2439 6.71063 47.3426C6.8054 47.4413 6.8794 47.558 6.92824 47.6859C6.97708 47.8137 6.99976 47.9501 6.99494 48.0869C7.00494 48.2409 6.99494 48.3949 6.99494 48.5589C6.99494 50.4899 6.98496 52.421 7.00494 54.351C6.99073 54.5604 7.01889 54.7704 7.08771 54.9686C7.15654 55.1668 7.26463 55.349 7.4055 55.5044C7.54637 55.6598 7.71713 55.7851 7.90754 55.8728C8.09795 55.9606 8.3041 56.009 8.51363 56.0151C8.71952 56.0103 8.92219 55.963 9.10902 55.8763C9.29585 55.7896 9.46282 55.6653 9.59951 55.5111C9.7362 55.3569 9.83968 55.1762 9.90348 54.9802C9.96729 54.7843 9.99006 54.5772 9.97037 54.372C9.98037 53.047 9.97037 51.722 9.98036 50.3869C9.97358 50.191 9.98731 49.995 10.0213 49.8019C10.0667 49.5689 10.195 49.3603 10.3824 49.2147C10.5698 49.0692 10.8035 48.9966 11.0403 49.0104C11.2771 49.0242 11.5009 49.1234 11.6701 49.2898C11.8393 49.4561 11.9426 49.6782 11.9606 49.9149C11.9779 50.1094 11.9849 50.3047 11.9816 50.4999C11.9816 52.41 11.9716 54.321 11.9816 56.2411C11.9816 57.3091 12.5661 57.9972 13.4384 58.0182C13.658 58.0112 13.8739 57.9591 14.0725 57.8649C14.2711 57.7707 14.4482 57.6366 14.5926 57.4709C14.7371 57.3052 14.8459 57.1114 14.9122 56.9017C14.9785 56.692 15.0009 56.4709 14.978 56.2521C14.988 55.0811 14.978 53.91 14.978 52.74C14.978 51.846 14.968 50.9399 14.988 50.0489C14.9858 49.9162 15.01 49.7843 15.0592 49.661C15.1084 49.5377 15.1816 49.4255 15.2746 49.3308C15.3676 49.2361 15.4785 49.1609 15.6008 49.1096C15.7232 49.0583 15.8545 49.0319 15.9872 49.0319C16.2533 49.0376 16.5067 49.1472 16.6933 49.3371C16.8799 49.5271 16.9851 49.7825 16.9863 50.0489C16.9963 50.2239 16.9863 50.3979 16.9863 50.5729C16.9863 52.216 16.9763 53.849 16.9963 55.4921C16.9852 55.868 17.1183 56.2338 17.3681 56.5146C17.618 56.7954 17.9658 56.9698 18.3401 57.0021C18.7228 57.0326 19.1027 56.9156 19.402 56.6751C19.7014 56.4345 19.8977 56.0886 19.9507 55.7081C19.9885 55.4566 20.0055 55.2024 20.0017 54.9481V44.7008C20.0017 44.5468 20.0117 44.3928 20.0017 44.2288C19.9631 44.0053 19.9995 43.7752 20.1052 43.5746C20.211 43.374 20.3801 43.214 20.5862 43.1197C20.7948 43.0328 21.0252 43.0127 21.2457 43.0623C21.4661 43.1119 21.6658 43.2288 21.8171 43.3968C22.8532 44.2598 23.8903 45.1118 24.9364 45.9538C25.1345 46.1327 25.3868 46.2399 25.653 46.258C25.9192 46.2762 26.1837 46.2042 26.4041 46.0538C26.6296 45.929 26.8043 45.7293 26.8981 45.4891C26.9919 45.2489 26.9988 44.9835 26.9177 44.7388C26.8091 44.4287 26.6259 44.1501 26.3842 43.9278C23.3568 40.8567 20.3404 37.7756 17.2721 34.7455C16.8357 34.3566 16.4934 33.8734 16.2711 33.3325C16.0489 32.7916 15.9524 32.2071 15.9892 31.6234C16.0401 30.7294 15.9992 29.8364 15.9992 28.9234C15.6814 28.9644 15.4247 29.0054 15.1779 29.0154C14.5479 29.0605 13.9186 28.9186 13.3689 28.6074C12.8191 28.2962 12.3733 27.8296 12.0873 27.2659C11.8013 26.7023 11.6879 26.0668 11.7611 25.4389C11.8344 24.811 12.0911 24.2187 12.4992 23.7362C12.9198 23.2022 13.3614 22.6682 13.843 22.0822C10.8246 22.0742 7.94113 22.0742 4.99468 22.0742ZM30.4227 18.0381C29.3866 18.0381 28.6782 17.9871 27.9808 18.0591C27.6031 18.0881 27.2441 18.2354 26.9547 18.4801C24.0502 21.3152 21.1777 24.1802 18.3042 27.0563C18.1202 27.2446 18.0108 27.4934 17.9964 27.7563C17.9655 29.1844 17.9555 30.6014 17.9964 32.0284C18.0119 32.3886 18.1493 32.7328 18.3861 33.0045C21.2486 35.9316 24.1431 38.8386 27.0366 41.7347C27.2015 41.8897 27.4161 41.9808 27.6421 41.9917C29.0888 42.0127 30.5256 42.0327 31.9723 41.9817C32.335 41.9614 32.6795 41.8162 32.9475 41.5707C35.8616 38.7153 38.7555 35.8429 41.629 32.9535C41.8066 32.7592 41.9087 32.5076 41.9167 32.2444C41.9477 30.8994 41.9067 29.5534 41.9377 28.2083C41.9476 27.9486 41.9004 27.6898 41.7994 27.4503C41.6984 27.2108 41.5461 26.9964 41.3532 26.8223C39.0342 24.5112 36.6743 22.2312 34.4472 19.8281C33.2362 18.5111 32.0043 17.514 30.4247 18.0381H30.4227Z" fill="#47BBC6"/>
</svg>
