<svg width="60" height="61" viewBox="0 0 60 61" fill="none" xmlns="http://www.w3.org/2000/svg">
<path d="M39.613 26.0775C39.6421 26.6774 39.6384 27.2784 39.602 27.8779C39.3421 30.2084 38.0426 31.4437 35.6706 31.8338C33.4828 32.1156 31.2595 31.8894 29.1732 31.1727C25.1218 29.9804 21.1035 28.6911 17.0781 27.4338C15.3652 26.8132 13.8191 25.8043 12.5609 24.4861C11.7702 23.7379 10.9686 23.0008 10.1349 22.3076C9.29669 21.5973 8.22144 21.2297 7.12411 21.2783C5.15291 21.3324 3.17071 21.3003 1.19951 21.2893C0.440819 21.2893 0 20.9313 0 20.3251C0 19.719 0.443817 19.3609 1.19951 19.3609C3.13873 19.3609 5.06595 19.4149 7.00517 19.3389C7.8528 19.3011 8.69954 19.4309 9.49696 19.721C10.2944 20.011 11.0268 20.4556 11.6523 21.0293C12.5839 21.8295 13.4715 22.6767 14.3712 23.5109C15.317 24.42 16.4371 25.1281 17.6639 25.5924C22.3055 27.3075 27.0524 28.7231 31.8751 29.8303C33.2362 30.1397 34.6517 30.1174 36.0024 29.7653C37.6378 29.3422 37.8867 27.9549 37.6018 26.4276C37.5595 26.3054 37.4924 26.1932 37.4049 26.098C37.3174 26.0028 37.2112 25.9267 37.093 25.8744C35.517 25.0075 33.7465 24.5562 31.9481 24.5631C31.6012 24.5851 31.0594 24.7692 30.9735 25.0182C30.9352 25.1406 30.9224 25.2695 30.9359 25.3971C30.9494 25.5246 30.9888 25.648 31.0517 25.7597C31.1146 25.8714 31.1998 25.969 31.3018 26.0465C31.4039 26.1241 31.5208 26.1799 31.6452 26.2105C32.5008 26.5036 33.3785 26.7306 34.2441 26.9697C34.515 27.0457 34.8069 27.0697 35.0678 27.1537C35.2963 27.2117 35.4937 27.3556 35.6188 27.5555C35.7439 27.7555 35.7872 27.996 35.7395 28.227C35.7263 28.3486 35.6885 28.4662 35.6284 28.5726C35.5683 28.6791 35.4871 28.7722 35.3898 28.8463C35.2925 28.9203 35.1812 28.9737 35.0626 29.0033C34.944 29.0328 34.8206 29.0379 34.7 29.0182C33.349 28.7214 32.0176 28.3413 30.7136 27.8799C30.215 27.6738 29.788 27.3255 29.4859 26.8784C29.1837 26.4313 29.0197 25.905 29.0143 25.3653C28.9278 24.8427 29.0295 24.3064 29.3014 23.852C29.5732 23.3975 29.9975 23.0544 30.4987 22.8837C30.1145 22.4785 29.8294 21.9897 29.6659 21.4557C29.5023 20.9217 29.4647 20.357 29.556 19.806C29.6469 19.2633 29.8894 18.7575 30.2556 18.347C30.6218 17.9365 31.0966 17.6381 31.6252 17.4865C31.4449 17.1483 31.2821 16.8011 31.1374 16.4462C30.9542 16.0152 30.8833 15.5448 30.9313 15.0789C30.9794 14.613 31.1448 14.167 31.412 13.7825C31.6793 13.398 32.0397 13.0877 32.4595 12.8806C32.8793 12.6735 33.3448 12.5764 33.8123 12.5983C36.1921 12.6247 38.5545 13.0084 40.8205 13.7366C43.1495 14.5058 45.4776 15.2649 47.8396 15.9371C50.1387 16.5983 52.4648 17.1724 54.7938 17.7035C55.5836 17.8482 56.3905 17.8738 57.1879 17.7795C57.9875 17.7145 58.2714 17.2164 57.8876 16.5112C57.6176 15.9997 57.2083 15.5752 56.7071 15.287C55.7438 14.786 54.7408 14.3654 53.7083 14.0297C49.397 12.5993 45.0758 11.201 40.7535 9.79166C40.5797 9.73635 40.4097 9.66952 40.2447 9.59162C40.0132 9.49814 39.8277 9.31736 39.7281 9.08827C39.6286 8.85918 39.623 8.60013 39.7125 8.36695C39.8021 8.13377 39.9797 7.94514 40.2069 7.84174C40.4342 7.73835 40.693 7.72845 40.9274 7.8142C42.011 8.17228 43.0826 8.59438 44.1771 8.94146C47.7187 10.0907 51.2743 11.174 54.8028 12.3663C55.9932 12.792 57.1455 13.3177 58.2474 13.9376C58.6477 14.1564 58.9968 14.4581 59.2714 14.8225C59.546 15.187 59.7397 15.6058 59.8398 16.0511C60.3486 18.1516 59.34 19.5409 57.1859 19.715C55.2904 19.8092 53.3927 19.5781 51.5751 19.0318C49.452 18.4687 47.3618 17.8315 45.2497 17.2214C45.0218 17.1564 44.7949 17.0914 44.502 17.0043C44.578 19.0528 43.9172 20.6132 41.8371 21.2053C42.5808 23.5949 41.4322 25.5463 39.613 26.0775ZM34.598 14.5348C33.8293 14.5238 33.2116 14.4267 32.9517 15.0439C32.8519 15.325 32.856 15.6326 32.9632 15.9109C33.0705 16.1893 33.2738 16.42 33.5364 16.5612C34.2496 17.1079 35.0238 17.5698 35.8435 17.9376C36.9697 18.3656 38.1198 18.7276 39.2881 19.0218C39.9039 19.1904 40.5352 19.2956 41.1723 19.3359C41.4166 19.3568 41.661 19.2986 41.8697 19.1698C42.0783 19.041 42.24 18.8485 42.3309 18.6207C42.4534 18.4279 42.5343 18.2116 42.5684 17.9856C42.6025 17.7597 42.5891 17.5291 42.529 17.3086C42.4688 17.0882 42.3633 16.8827 42.2192 16.7054C42.0751 16.5282 41.8956 16.383 41.6921 16.2792C41.4185 16.1098 41.1324 15.9614 40.8365 15.8351C38.8385 15.0752 36.733 14.6364 34.598 14.5348ZM32.3229 19.3149C32.0601 19.4254 31.8221 19.5877 31.6232 19.792C31.4763 19.9884 31.3987 20.2281 31.4027 20.4734C31.4067 20.7187 31.492 20.9558 31.6452 21.1473C32.1971 21.8987 32.9752 22.4533 33.8653 22.7297C34.9699 23.0978 36.0854 23.4238 37.191 23.7699C37.6236 23.928 38.0648 24.0616 38.5124 24.17C38.6826 24.221 38.862 24.2335 39.0376 24.2066C39.2133 24.1797 39.3807 24.1142 39.5279 24.0146C39.6751 23.9151 39.7984 23.7841 39.8888 23.631C39.9792 23.478 40.0346 23.3068 40.0508 23.1298C40.2677 22.2086 40.0838 21.7855 39.0872 21.2443C36.9743 20.1798 34.6792 19.5258 32.3229 19.3149Z" fill="#47BBC6"/>
<path d="M44.4889 40.5026C46.9879 39.8304 49.417 39.1913 51.854 38.5411C53.6952 38.053 55.5525 37.5549 57.3887 37.0558C58.3633 36.7957 58.7322 37.0228 59.0031 38.02C59.274 39.0173 59.5449 40.0035 59.8157 40.9897C60.1086 42.063 59.9027 42.409 58.8302 42.7021C54.7465 43.7857 50.6665 44.8733 46.5901 45.9649C46.4172 46.0079 46.2432 46.0649 46.0163 46.1379C46.1793 46.7381 46.3302 47.3082 46.4821 47.8933C46.6986 48.5267 46.7817 49.198 46.7259 49.865C46.6702 50.532 46.477 51.1803 46.1584 51.7689C45.8399 52.3574 45.4029 52.8736 44.875 53.2848C44.3472 53.6959 43.7399 53.9932 43.0915 54.1578C37.1126 56.0249 31.119 57.8673 25.1108 59.6851C24.4306 59.9262 23.7035 60.0043 22.9877 59.9131C22.4485 59.8074 21.9527 59.5439 21.5632 59.1561C21.1737 58.7683 20.908 58.2736 20.7995 57.7346C19.3914 52.5107 17.9833 47.2829 16.5752 42.051C16.4445 41.6456 16.4036 41.2166 16.4554 40.7938C16.5071 40.371 16.6504 39.9645 16.8751 39.6028C17.0998 39.241 17.4007 38.9326 17.7566 38.699C18.1126 38.4653 18.5151 38.3122 18.9363 38.2501C25.1538 36.8497 31.3746 35.4514 37.5987 34.0551C38.2449 33.8694 38.9224 33.8185 39.589 33.9056C40.2557 33.9927 40.8973 34.2159 41.4742 34.5614C42.0511 34.9069 42.5508 35.3673 42.9425 35.9141C43.3342 36.4609 43.6095 37.0823 43.7513 37.74C43.9912 38.6392 44.229 39.5274 44.4889 40.5026ZM38.8242 35.8095C38.6531 35.8286 38.4832 35.8577 38.3154 35.8965C32.0546 37.2968 25.7975 38.7022 19.544 40.1125C18.4285 40.3615 18.2226 40.7196 18.5254 41.8249C19.8249 46.6374 21.1244 51.4531 22.4239 56.2723C22.9547 58.2337 23.0846 58.3428 25.0338 57.7466C30.9481 55.9255 36.8584 54.0831 42.7647 52.2193C43.1247 52.1129 43.4602 51.9364 43.7521 51.7001C44.0439 51.4638 44.2863 51.1722 44.4654 50.842C44.6445 50.5118 44.7568 50.1496 44.7958 49.7759C44.8348 49.4023 44.7998 49.0246 44.6929 48.6645C43.7506 45.0877 42.7866 41.5145 41.801 37.945C41.6128 37.3085 41.2179 36.7529 40.6788 36.3662C40.1397 35.9794 39.4871 35.7835 38.8242 35.8095ZM45.5075 44.2525C48.0855 43.5693 50.5765 42.8981 53.0785 42.226C52.8946 41.5648 52.7316 40.9907 52.5587 40.3506C50.0137 41.0337 47.5217 41.6949 44.9977 42.366C45.1717 43.0062 45.3336 43.5923 45.5075 44.2545V44.2525ZM54.9527 41.7269C55.9163 41.4668 56.837 41.2268 57.8016 40.9677C57.6286 40.3286 57.4657 39.7324 57.2928 39.0923C56.3392 39.3523 55.4295 39.5924 54.4549 39.8514C54.6268 40.4916 54.7788 41.0777 54.9527 41.7279V41.7269Z" fill="#47BBC6"/>
<path d="M5.66781 6.71973C7.31414 6.71973 8.98246 6.81975 10.6178 6.69772C12.6977 6.42126 14.7115 5.77529 16.5644 4.79027C18.5576 3.88005 20.5288 2.92583 22.543 2.03762C24.2001 1.29114 26.0007 0.917601 27.8178 0.943367C30.0709 0.986377 32.335 0.90036 34.5871 0.965375C36.5614 1.0317 38.5349 0.812725 40.4467 0.315222C41.2089 0.123531 41.9901 0.018183 42.7758 0.00115291C45.2348 -0.0528597 45.6676 1.80157 45.3857 3.32893C45.1629 4.30269 44.5833 5.15746 43.7614 5.72448C42.1538 6.96457 40.1929 7.65939 38.1637 7.70795C36.2512 7.81241 34.3662 8.21083 32.5749 8.88923C32.2227 9.03694 31.8876 9.22241 31.5753 9.44236C31.3786 9.60467 31.1255 9.68215 30.8717 9.65776C30.6179 9.63338 30.3841 9.50912 30.2219 9.31233C30.1301 9.21579 30.0612 9.0999 30.0201 8.97318C29.9791 8.84647 29.9669 8.71214 29.9845 8.5801C30.0022 8.44806 30.0492 8.32167 30.1221 8.2102C30.195 8.09874 30.2919 8.00503 30.4058 7.936C31.2674 7.43052 32.1739 7.00595 33.1137 6.66771C35.0448 6.09652 37.0378 5.76068 39.0493 5.66748C40.3851 5.54044 41.6488 5.0027 42.6668 4.12812C42.9233 3.94894 43.135 3.71291 43.2853 3.43844C43.4356 3.16397 43.5205 2.85847 43.5335 2.54575C43.5335 2.10164 43.3336 1.88459 42.9267 1.9276C42.1864 1.97216 41.4509 2.0772 40.7276 2.24167C38.8555 2.73628 36.9227 2.96258 34.987 2.91383C32.9178 2.85982 30.8276 2.98985 28.7585 2.88082C26.3754 2.80762 24.0116 3.32908 21.8803 4.39818C19.4862 5.50344 17.1032 6.6307 14.6772 7.66094C12.8879 8.40794 10.9616 8.76986 9.02346 8.72319C6.56446 8.69018 4.10545 8.71218 1.64744 8.71218H1.34756C0.469914 8.71218 0.0150966 8.38711 0.004101 7.75796C-0.00689455 7.12882 0.447926 6.78273 1.31458 6.77173H5.66882L5.66781 6.71973Z" fill="#47BBC6"/>
<path d="M4.86506 29.0361H8.4936C9.36025 29.0361 9.73909 29.4592 9.65213 30.3364C9.11035 35.745 8.56523 41.157 8.01679 46.5722C7.92982 47.4725 7.84386 48.3727 7.7459 49.2819C7.68093 49.982 7.42102 50.3011 6.7383 50.3221C5.42783 50.3551 4.11736 50.3551 2.81689 50.3221C2.58038 50.3163 2.35567 50.2176 2.1914 50.0472C2.02714 49.8769 1.93655 49.6486 1.93925 49.4119C1.69001 47.006 1.44811 44.5998 1.21354 42.1932C0.823699 38.3243 0.444854 34.4544 0.0440166 30.5855C-0.0749353 29.4042 0.216946 29.0461 1.41946 29.0461C2.56899 29.0361 3.71653 29.0361 4.86506 29.0361ZM5.89364 48.3716C6.4784 42.5403 7.05218 36.7849 7.62695 31.0196H2.0382C2.62297 36.829 3.19674 42.5843 3.7715 48.3716H5.89364Z" fill="#47BBC6"/>
<path d="M53.1533 32.9029C50.2545 32.8919 48.6151 30.7134 49.5248 27.9277C49.911 27.0009 50.3485 26.0963 50.8352 25.2181C51.3223 24.1665 51.7889 23.1043 52.2347 22.0313C52.2902 21.8267 52.4093 21.645 52.5748 21.5125C52.7403 21.38 52.9436 21.3035 53.1553 21.2942C53.3589 21.2686 53.5648 21.3183 53.7344 21.434C53.9039 21.5496 54.0254 21.7233 54.0759 21.9223C54.5723 23.4934 55.2752 24.9916 56.1661 26.3774C56.5876 27.1308 56.8736 27.9525 57.0108 28.8049C57.2687 31.4195 55.8062 32.9159 53.1533 32.9029ZM53.1643 24.958C52.5036 26.2473 51.8758 27.3426 51.377 28.5018C51.215 28.8428 51.1593 29.2247 51.2173 29.5977C51.2752 29.9708 51.4441 30.3177 51.7019 30.5933C52.122 30.829 52.5908 30.9644 53.0718 30.9888C53.5528 31.0133 54.033 30.9262 54.4748 30.7344C54.7578 30.4949 54.9657 30.1787 55.0733 29.8238C55.181 29.4689 55.1838 29.0904 55.0815 28.7339C55.0367 28.4956 54.9565 28.2653 54.8436 28.0508C54.3338 27.0735 53.795 26.1093 53.1643 24.96V24.958Z" fill="#47BBC6"/>
<path d="M8.69971 56.1543C8.69773 56.9188 8.46949 57.6657 8.04377 58.3005C7.61805 58.9354 7.01394 59.4299 6.30767 59.7215C5.6014 60.0132 4.8246 60.089 4.07533 59.9394C3.32605 59.7897 2.63786 59.4213 2.0976 58.8807C1.55733 58.3401 1.18919 57.6515 1.03964 56.9017C0.8901 56.152 0.965852 55.3747 1.25733 54.668C1.54881 53.9613 2.04296 53.3568 2.67742 52.9308C3.31189 52.5048 4.05823 52.2764 4.82228 52.2744C5.33169 52.2736 5.83626 52.3734 6.30704 52.5681C6.77783 52.7628 7.20559 53.0486 7.5658 53.409C7.92601 53.7695 8.21159 54.1975 8.40617 54.6686C8.60075 55.1397 8.7005 55.6446 8.69971 56.1543ZM6.76049 56.1653C6.76385 55.782 6.65342 55.4063 6.44316 55.0859C6.2329 54.7655 5.93229 54.5149 5.57946 54.3656C5.22663 54.2164 4.83747 54.1753 4.46129 54.2477C4.08512 54.32 3.73888 54.5025 3.46647 54.772C3.19407 55.0414 3.00777 55.3858 2.93118 55.7614C2.8546 56.1369 2.89119 56.5268 3.0363 56.8815C3.18142 57.2362 3.42853 57.5399 3.74631 57.7539C4.06409 57.9679 4.43821 58.0828 4.82127 58.0838C5.33265 58.0854 5.82393 57.8846 6.18795 57.5252C6.55198 57.1658 6.75921 56.677 6.76449 56.1653H6.76049Z" fill="#47BBC6"/>
<path d="M19.9736 19.3565H19.5298C18.8301 19.3565 18.3813 18.9884 18.3713 18.4022C18.3613 17.8161 18.7831 17.438 19.4978 17.427C20.9723 17.4698 22.4383 17.1892 23.793 16.605C25.1476 16.0208 26.3582 15.1471 27.3397 14.0452C27.9684 13.2375 28.5162 12.3698 28.975 11.4546C29.3538 10.7825 29.7987 10.5004 30.3504 10.7544C30.9022 11.0085 31.0651 11.5456 30.7622 12.2398C29.9484 14.1854 28.6156 15.8697 26.9096 17.1084C25.2036 18.3471 23.1901 19.0926 21.0892 19.2634C20.6793 19.3024 20.2575 19.3245 19.9736 19.3565Z" fill="#47BBC6"/>
<path d="M25.869 55.4603C25.3966 55.4854 24.9308 55.3409 24.5555 55.0528C24.1801 54.7647 23.92 54.352 23.8218 53.889C23.0854 51.1903 22.356 48.4917 21.6337 45.7931C21.4607 45.1319 21.2658 44.4708 21.1029 43.8096C21.0161 43.5499 20.9858 43.2746 21.0143 43.0022C21.0427 42.7298 21.1291 42.4667 21.2676 42.2305C21.4062 41.9944 21.5937 41.7907 21.8175 41.6331C22.0414 41.4755 22.2964 41.3677 22.5653 41.317C26.3891 40.4502 30.2162 39.5976 34.0467 38.7594C34.5171 38.6567 35.0089 38.7391 35.4204 38.9893C35.8318 39.2396 36.1313 39.6386 36.2568 40.1037C37.1451 43.2791 38.0044 46.4656 38.8347 49.663C38.8922 49.9051 38.9009 50.1562 38.8604 50.4017C38.82 50.6473 38.7311 50.8823 38.599 51.0931C38.4669 51.3039 38.2942 51.4864 38.091 51.6298C37.8878 51.7732 37.6581 51.8747 37.4153 51.9285C35.1189 52.6547 32.8155 53.3735 30.5051 54.085C29.1836 54.4971 27.8512 54.9092 26.5297 55.3093C26.2808 55.3843 25.9989 55.4283 25.869 55.4603ZM22.9441 43.2125C23.8868 46.6913 24.7964 50.0731 25.728 53.5089C29.5085 52.3496 33.213 51.2003 36.9605 50.0511C36.1048 46.8643 35.2712 43.7646 34.4255 40.6539C30.5701 41.5111 26.7896 42.3563 22.9441 43.2125Z" fill="#47BBC6"/>
<path d="M40.9645 42.4323C40.9755 43.1914 40.7157 43.5165 40.2169 43.6245C40.01 43.688 39.7866 43.6693 39.5931 43.5725C39.3996 43.4757 39.2507 43.3081 39.1773 43.1044C38.9157 42.3664 38.7128 41.6089 38.5705 40.8389C38.5662 40.6311 38.6299 40.4276 38.7519 40.2595C38.8739 40.0913 39.0475 39.9677 39.2463 39.9075C39.4451 39.8473 39.6581 39.8539 39.8528 39.9261C40.0476 39.9984 40.2133 40.1324 40.3248 40.3077C40.6177 41.0669 40.8016 41.8691 40.9645 42.4323Z" fill="#47BBC6"/>
<path d="M41.2135 45.4909C41.3917 45.5101 41.5592 45.5857 41.6917 45.7065C41.8242 45.8274 41.9147 45.9873 41.9502 46.1631C42.1341 46.8243 42.3291 47.4744 42.481 48.1466C42.5236 48.3783 42.4792 48.6176 42.3561 48.8185C42.2331 49.0194 42.0403 49.1677 41.8146 49.235C41.589 49.3022 41.3464 49.2836 41.1336 49.1828C40.9208 49.082 40.7527 48.906 40.6617 48.6887C40.4295 48.0052 40.2448 47.3063 40.109 46.5972C39.99 45.9551 40.4338 45.4789 41.2135 45.4909Z" fill="#47BBC6"/>
</svg>
