<svg width="34" height="32" viewBox="0 0 34 32" fill="none" xmlns="http://www.w3.org/2000/svg">
<path d="M23.8678 31.9996H9.85547L11.6777 23.2979H22.0242L23.8678 31.9996ZM11.6201 30.5572H22.1028L20.8527 24.3538H12.8656L11.6201 30.5572Z" fill="#47BBC6"/>
<path d="M23.7054 14.3678H20.0411C19.8825 14.3678 19.7236 14.3582 19.5604 14.3532C19.0602 13.6559 18.5633 12.9587 18.0696 12.2615C17.9832 12.1414 17.906 12.0162 17.8242 11.8914C18.3387 11.1846 18.8532 10.4824 19.3677 9.77552C19.7812 9.20664 20.1033 9.20344 20.5168 9.77552C21.5598 11.2181 22.6017 12.6624 23.6425 14.1083C23.6905 14.1851 23.7388 14.2622 23.7818 14.344L23.7054 14.3678Z" stroke="#47BBC6"/>
<path d="M30.0889 24.383H3.63587C1.63092 24.383 0 22.8598 0 20.9872V3.39587C0 1.52318 1.63092 0 3.63587 0H30.0953C32.1003 0 33.7312 1.52318 33.7312 3.39587V20.9868C33.7248 22.8598 32.0939 24.383 30.0889 24.383ZM3.63587 1.37599C2.39784 1.37599 1.38594 2.28229 1.38594 3.39125V20.9832C1.38594 22.0968 2.39322 22.9985 3.63587 22.9985H30.0953C31.3333 22.9985 32.3452 22.0922 32.3452 20.9832V3.39587C32.3452 2.28229 31.338 1.38061 30.0953 1.38061H3.63409L3.63587 1.37599Z" fill="#47BBC6"/>
<path d="M26.9275 31.9991H6.79977C6.61679 31.9869 6.44528 31.9056 6.32 31.7717C6.19471 31.6378 6.125 31.4613 6.125 31.2779C6.125 31.0945 6.19471 30.9179 6.32 30.784C6.44528 30.6501 6.61679 30.5688 6.79977 30.5566H26.924C27.107 30.5684 27.2787 30.6492 27.4044 30.7828C27.53 30.9164 27.6001 31.0928 27.6006 31.2762C27.601 31.4596 27.5318 31.6363 27.4068 31.7705C27.2818 31.9048 27.1105 31.9865 26.9275 31.9991Z" fill="#47BBC6"/>
<path d="M16.8505 22.3671C17.3418 22.3671 17.7401 21.9688 17.7401 21.4775C17.7401 20.9862 17.3418 20.5879 16.8505 20.5879C16.3592 20.5879 15.9609 20.9862 15.9609 21.4775C15.9609 21.9688 16.3592 22.3671 16.8505 22.3671Z" fill="#47BBC6"/>
<path d="M7.71094 14.4197C8.19662 13.6374 8.77368 12.9242 9.31092 12.1797C10.4409 10.6121 11.5864 9.05901 12.7242 7.50098C13.1619 6.89974 13.5064 6.90472 13.9551 7.51556C14.9744 8.90529 15.9907 10.2982 17.004 11.6944C17.0712 11.7857 17.1483 11.8721 17.2205 11.9589C17.3023 12.084 17.3791 12.2078 17.4659 12.329C17.9611 13.0263 18.4614 13.7235 18.9567 14.4207L7.71094 14.4197Z" stroke="#47BBC6"/>
<path d="M25.5669 15.7753H7.27488C7.1208 15.7753 6.96822 15.745 6.82587 15.686C6.68352 15.6271 6.55417 15.5406 6.44522 15.4317C6.33626 15.3227 6.24984 15.1934 6.19087 15.051C6.13191 14.9087 6.10156 14.7561 6.10156 14.602C6.10156 14.4479 6.13191 14.2954 6.19087 14.153C6.24984 14.0107 6.33626 13.8813 6.44522 13.7724C6.55417 13.6634 6.68352 13.577 6.82587 13.518C6.96822 13.4591 7.1208 13.4287 7.27488 13.4287H25.5719C25.8831 13.4287 26.1816 13.5523 26.4016 13.7724C26.6216 13.9924 26.7452 14.2908 26.7452 14.602C26.7449 14.7564 26.7142 14.9093 26.6548 15.0518C26.5954 15.1943 26.5085 15.3238 26.3991 15.4327C26.2897 15.5417 26.1599 15.628 26.0171 15.6868C25.8743 15.7456 25.7214 15.7757 25.5669 15.7753Z" fill="white" stroke="#47BBC6"/>
</svg>
