<svg width="60" height="61" viewBox="0 0 60 61" fill="none" xmlns="http://www.w3.org/2000/svg">
<path d="M28.8252 0C29.9717 0.232389 31.0235 0.765705 31.8571 1.53735C32.3837 2.02956 32.7927 2.62061 33.0569 3.27149C33.3212 3.92237 33.4348 4.61825 33.3902 5.3132C33.3003 7.04959 33.2115 8.78598 33.1323 10.5224C33.1216 10.6894 33.1323 10.8675 33.1323 10.9305L39.6102 12.9389C39.7471 12.4263 39.966 11.936 40.2595 11.4846C40.7926 10.9571 41.3771 10.4772 42.0055 10.0513C42.8111 10.9195 43.6102 11.7877 44.4329 12.6769C46.1564 10.8255 47.8564 9.00504 49.5799 7.15362C51.5152 9.2771 53.4313 11.3696 55.3645 13.482C53.3168 15.9093 51.2991 18.2978 49.3114 20.6477C56.1027 29.9998 56.1808 39.4669 50.0945 49.1641C51.1911 50.1263 52.3411 51.1416 53.4955 52.1558C55.4757 53.8922 57.4453 55.6396 59.448 57.357C59.6284 57.4851 59.7704 57.6544 59.8605 57.8487C59.9507 58.0429 59.9858 58.2556 59.9626 58.4662C59.9177 58.9473 59.9519 59.4394 59.9519 59.9726H41.2663V58.2782H57.7256C54.2572 55.2345 50.9118 52.2948 47.6114 49.3972C54.0561 40.4011 54.4476 31.3631 48.1153 22.084C47.6874 22.5841 47.3547 22.9842 47.0187 23.3703C46.6828 23.7564 46.3693 24.1235 46.012 24.5525C45.2845 23.7684 44.602 23.0152 43.8724 22.22C41.0908 25.1907 38.3339 28.1214 35.5362 31.091C34.9318 30.7249 34.3498 30.3689 33.724 29.9818C35.4913 24.9186 37.2373 19.8875 39.0164 14.8033C37.1419 13.8862 35.1323 13.234 33.0532 12.8679C32.6167 21.5299 32.1802 30.1278 31.7555 38.7898H24.3041C24.0463 33.5596 23.7777 28.3394 23.521 23.0462H25.4007C25.6353 27.6699 25.8703 32.332 26.1057 37.0324H29.9571C30.002 36.2372 30.0577 35.463 30.0908 34.6888C30.4039 28.4208 30.7135 22.1583 31.0194 15.9016C31.1981 12.3558 31.3885 8.79999 31.5458 5.25219C31.5955 4.45454 31.3323 3.66733 30.8055 3.03819C30.2787 2.40906 29.5245 1.98122 28.6843 1.83492C27.8442 1.68862 26.9758 1.83392 26.242 2.24355C25.5083 2.65318 24.9596 3.29901 24.6989 4.05992C24.5556 4.50748 24.4952 4.97464 24.5202 5.44123C24.7556 10.5354 25.0241 15.6195 25.2809 20.7137C25.2916 20.8497 25.2809 20.9857 25.2809 21.1848H23.4343C23.3002 18.4648 23.1576 15.7172 23.0064 12.9419C21.0592 13.316 19.1688 13.9133 17.378 14.7203C16.9501 14.9084 17.1202 15.1384 17.2101 15.3895C18.4853 19.0403 19.757 22.6911 21.0251 26.342C21.3942 27.4192 21.7633 28.4964 22.1548 29.5637C22.2778 29.8988 22.2329 30.0868 21.8863 30.2638C21.4166 30.5049 20.9801 30.808 20.488 31.101C17.7129 28.1514 14.9613 25.2217 12.1519 22.23C11.4362 23.0042 10.7536 23.7574 10.0122 24.5525C9.34038 23.7684 8.70276 23.0252 8.05445 22.272C4.02653 26.2159 2.31481 36.6663 4.78718 42.2205C6.04241 41.4796 7.45391 41.0007 8.92527 40.8165C10.3966 40.6323 11.8932 40.7472 13.3127 41.1533C15.309 41.7114 17.0717 42.8332 18.3591 44.365C19.8091 46.0829 20.5977 48.2075 20.5977 50.3959C20.5977 52.5843 19.8091 54.7089 18.3591 56.4268C19.6236 56.8028 20.8314 57.2219 22.0628 57.536C24.1482 58.0436 26.2971 58.2865 28.4518 58.2582C31.8303 58.2482 35.2206 58.2582 38.6002 58.2582H39.3053V60.0136H28.2314C24.5245 60.0383 20.8547 59.3222 17.4679 57.9131C17.3161 57.8379 17.1431 57.8086 16.9728 57.8292C16.8024 57.8498 16.6431 57.9193 16.5168 58.0281C14.464 59.4859 11.9008 60.1703 9.33412 59.9461C6.76748 59.7218 4.38429 58.6052 2.65593 56.817C0.927568 55.0289 -0.0201089 52.6994 0.000323653 50.2894C0.0207562 47.8793 1.00782 45.5642 2.76628 43.8019C2.89812 43.7009 2.99275 43.5637 3.03689 43.4098C3.08103 43.2559 3.07245 43.0929 3.01234 42.9437C1.71924 39.3059 1.36143 35.4344 1.96794 31.6431C2.57446 27.8519 4.12822 24.2476 6.5032 21.1228C6.58129 21.0077 6.65938 20.8927 6.77171 20.7457C4.73547 18.3291 2.68783 15.9056 0.628761 13.475C2.55446 11.3746 4.44377 9.3011 6.41333 7.15662C8.13683 8.99803 9.82609 10.8174 11.5603 12.6799C12.3766 11.7907 13.165 10.9435 13.9663 10.0793C15.0961 10.8845 16.2707 11.6276 16.3381 13.071C18.5313 12.3808 20.657 11.7106 22.8053 11.0205C22.8053 10.4874 22.8277 9.84923 22.8053 9.21108C22.7603 8.03982 22.6822 6.86755 22.6148 5.69629C22.4546 4.41042 22.8232 3.11567 23.646 2.07447C24.4688 1.03326 25.6843 0.323491 27.0461 0.089017C27.1041 0.0690177 27.1603 0.0445987 27.214 0.0160025C27.7276 -1.16069e-06 28.2764 0 28.8252 0ZM10.2743 42.4916C8.61025 42.4906 6.98317 42.9507 5.59858 43.8138C4.21399 44.6768 3.134 45.9041 2.49499 47.3406C1.85598 48.7772 1.68662 50.3585 2.0083 51.885C2.32997 53.4115 3.12824 54.8146 4.30232 55.9172C5.47639 57.0198 6.97361 57.7723 8.60487 58.0799C10.2361 58.3874 11.9283 58.2361 13.4676 57.645C15.0069 57.054 16.3244 56.0497 17.2537 54.759C18.1829 53.4684 18.6822 51.9492 18.6886 50.3934C18.6948 49.357 18.4816 48.3298 18.0614 47.3708C17.6413 46.4117 17.0223 45.5399 16.2402 44.8054C15.4581 44.071 14.5284 43.4884 13.5045 43.0913C12.4806 42.6942 11.3828 42.4904 10.2743 42.4916ZM41.7594 12.5008C40.0584 17.3759 38.3916 22.177 36.713 26.9781C36.7462 26.9881 36.7805 27.0091 36.8136 27.0201C39.1523 24.5305 41.4792 22.051 43.851 19.5304C44.556 20.3046 45.2161 21.0308 45.9211 21.7799C48.2747 19.0083 50.5759 16.2667 52.9028 13.5161C51.7731 12.2818 50.6765 11.0785 49.5457 9.84423C47.8339 11.6856 46.1329 13.5051 44.3987 15.3785C43.5161 14.4153 42.6656 13.4941 41.7594 12.5028V12.5008ZM19.0683 26.9471C19.1156 26.9267 19.1607 26.9023 19.2032 26.8741C17.5471 22.114 15.8803 17.3549 14.191 12.5008C13.2624 13.5011 12.4343 14.4153 11.5613 15.3675C9.83785 13.5161 8.13789 11.6956 6.41439 9.84423C5.27288 11.0895 4.17631 12.2918 3.05726 13.5161C5.38414 16.2777 7.70033 18.9973 10.039 21.7699C10.7665 20.9857 11.4298 20.2696 12.1198 19.5314C14.4478 22.03 16.7522 24.4885 19.0683 26.9471Z" fill="#47BBC6"/>
<path d="M27.9009 49.3541C27.2859 49.3458 26.6788 49.2244 26.1141 48.9967C25.5493 48.7691 25.0381 48.4396 24.6095 48.0273C24.1809 47.6149 23.8435 47.1276 23.6163 46.5933C23.3892 46.0589 23.2768 45.488 23.2856 44.9131C23.2945 44.3382 23.4244 43.7705 23.6679 43.2425C23.9114 42.7145 24.2637 42.2365 24.7048 41.8358C25.1459 41.4352 25.6671 41.1196 26.2386 40.9073C26.8101 40.6949 27.4208 40.5898 28.0357 40.5981C29.2776 40.6148 30.4616 41.0921 31.3271 41.9249C32.1926 42.7578 32.6688 43.878 32.6509 45.0391C32.6331 46.2002 32.1226 47.3072 31.2318 48.1164C30.341 48.9256 29.1428 49.3708 27.9009 49.3541ZM27.9908 47.5967C28.5427 47.5947 29.0816 47.4401 29.5397 47.1524C29.9979 46.8648 30.3548 46.4568 30.5656 45.9799C30.7763 45.5031 30.8315 44.9785 30.7241 44.4724C30.6168 43.9663 30.3518 43.5011 29.9623 43.1355C29.5729 42.7699 29.0765 42.5201 28.5356 42.4176C27.9947 42.3152 27.4334 42.3645 26.9225 42.5596C26.4115 42.7546 25.9737 43.0866 25.6641 43.5138C25.3545 43.9409 25.1869 44.4441 25.1825 44.9601C25.1809 45.3054 25.2522 45.6476 25.3923 45.9671C25.5324 46.2866 25.7386 46.5771 25.9989 46.822C26.2593 47.0669 26.5688 47.2614 26.9096 47.3944C27.2505 47.5273 27.6161 47.596 27.9854 47.5967H27.9908Z" fill="#47BBC6"/>
<path d="M44.9812 54.7202V56.4146H43.1797V54.7202H44.9812Z" fill="#47BBC6"/>
<path d="M46.9844 56.4466V54.7202H48.8309C48.8309 55.2123 48.8416 55.7145 48.8202 56.1956C48.8095 56.2796 48.6062 56.4156 48.4843 56.4256C48.0135 56.4566 47.5321 56.4466 46.9844 56.4466Z" fill="#47BBC6"/>
<path d="M10.3762 53.9564C9.60383 54.7195 8.98547 55.3377 8.42916 55.8918C7.06406 54.6155 5.75458 53.4022 4.39054 52.1259C4.98323 51.6338 5.65508 51.0697 6.38257 50.4736C5.59945 49.7734 4.93937 49.1873 4.32422 48.6431C5.72249 47.3358 7.03196 46.1216 8.40776 44.8423C8.95552 45.3864 9.57173 46.0036 10.2425 46.6837C10.9251 45.9726 11.5263 45.3554 12.0612 44.8003L16.0784 48.5561C15.5435 49.0273 14.8813 49.6024 14.1763 50.2085C14.9926 50.9087 15.6644 51.4848 16.3159 52.0499C14.8727 53.3682 13.5526 54.5715 12.2206 55.7738C11.6964 55.2747 11.0695 54.6575 10.3762 53.9564ZM7.00843 52.0939C7.50055 52.6061 7.89211 53.0251 8.42916 53.5793C9.08925 52.9201 9.70439 52.293 10.3987 51.6018C11.0256 52.219 11.6408 52.8261 12.2452 53.4113C12.7042 53.0032 13.1289 52.6271 13.6777 52.1459C12.962 51.5458 12.2795 50.9847 11.4964 50.3255C12.2459 49.6587 12.906 49.073 13.4766 48.5682C13.0626 48.1391 12.6603 47.7309 12.1928 47.2498C11.5659 47.867 10.9508 48.4842 10.2575 49.1853C9.60812 48.5162 8.99295 47.885 8.42273 47.3018C7.91884 47.7729 7.50482 48.1601 6.97953 48.6412C7.62143 49.1953 8.27724 49.7714 9.00473 50.4086C8.26119 51.0047 7.61288 51.5719 7.00843 52.095V52.0939Z" fill="#47BBC6"/>
</svg>
