<svg width="60" height="61" viewBox="0 0 60 61" fill="none" xmlns="http://www.w3.org/2000/svg">
<path d="M57.9597 28.963C58.6143 29.5941 59.1325 30.3678 59.479 31.231C59.8255 32.0942 59.992 33.0266 59.9671 33.9644C59.9625 34.9176 59.7537 35.8571 59.3564 36.7121C58.9591 37.5672 58.3838 38.3152 57.6739 38.8999C57.4767 39.0669 57.2701 39.171 57.3786 39.5571C57.6302 40.4726 57.6885 41.4357 57.5493 42.3778C57.4101 43.3199 57.0768 44.2179 56.5732 45.008C56.0696 45.798 55.408 46.4607 54.6354 46.9489C53.8629 47.4371 52.9984 47.7388 52.1035 47.8325C51.9908 47.8469 51.879 47.8679 51.7686 47.8956C51.8719 49.0055 51.7083 50.1251 51.2932 51.1499C50.878 52.1747 50.2247 53.0712 49.3944 53.7558C48.564 54.4405 47.5836 54.8909 46.5446 55.065C45.5057 55.2391 44.4421 55.1313 43.4531 54.7516C43.4057 54.8595 43.3663 54.9712 43.3352 55.0857C42.7248 58.5707 39.4779 60.3242 36.5847 59.9691C33.1302 59.541 31.1529 57.1623 31.1227 53.3952C31.0935 50.1082 31.1133 46.8212 31.1133 43.5233V42.793C30.1096 43.5443 30.1096 43.5443 29.0465 42.783V43.5032C29.0465 46.8742 29.0955 50.2542 29.0267 53.6252C28.995 54.691 28.7179 55.7324 28.2196 56.6586C27.7212 57.5848 27.0167 58.3676 26.1675 58.9388C25.3183 59.51 24.3502 59.8521 23.3477 59.9355C22.3452 60.0188 21.3386 59.8408 20.4159 59.4169C19.4952 58.9816 18.6836 58.3235 18.0461 57.4954C17.4087 56.6672 16.9632 55.6922 16.7454 54.6485C15.7573 55.0415 14.6914 55.1628 13.6472 55.0012C12.603 54.8396 11.6143 54.4003 10.7734 53.7243C9.93241 53.0482 9.26654 52.1574 8.8378 51.1349C8.40905 50.1124 8.23139 48.9915 8.32137 47.8765C7.37448 47.8171 6.45319 47.5273 5.62888 47.0297C4.80458 46.532 4.09937 45.8398 3.5679 45.0067C3.01752 44.1724 2.66105 43.2118 2.5276 42.2035C2.39414 41.1952 2.48749 40.1677 2.80002 39.205C2.02279 38.6718 1.37059 37.9576 0.893073 37.1167C0.415561 36.2758 0.125344 35.3304 0.0445368 34.3525C-0.0690681 33.3676 0.0353876 32.3681 0.349621 31.4334C0.663855 30.4987 1.17921 29.6546 1.8548 28.9679C1.11171 28.1307 0.591677 27.0993 0.347865 25.979C0.104053 24.8587 0.145216 23.6899 0.46715 22.5921C0.76527 21.4881 1.33851 20.4897 2.12654 19.7019C2.91457 18.9142 3.88826 18.3662 4.94517 18.1157C4.47799 17.0408 4.29051 15.8529 4.40215 14.6752C4.5138 13.4975 4.92052 12.3729 5.58012 11.418C6.23973 10.4632 7.12821 9.71279 8.15345 9.24471C9.17868 8.77663 10.3033 8.60789 11.4108 8.75598C11.5051 8.29685 11.5778 7.85571 11.6938 7.43059C12.0442 6.12987 12.7688 4.97765 13.7666 4.1348C14.7644 3.29194 15.9856 2.80054 17.2595 2.7292C17.5801 2.66558 17.8711 2.48941 18.0858 2.22905C18.8236 1.31023 19.7935 0.633862 20.8814 0.279464C21.9692 -0.074933 23.1299 -0.0926292 24.227 0.228462C25.3009 0.461678 26.2917 1.00966 27.0866 1.81015C27.8815 2.61064 28.4488 3.63153 28.7238 4.7568C28.8961 5.47972 28.9754 6.224 28.9597 6.96945C28.9889 9.80729 28.9691 12.6461 28.9691 15.495C29.0186 15.7782 29.1361 16.0432 29.3102 16.2643C29.4844 16.4855 29.7093 16.6552 29.9634 16.7573C30.2879 16.7994 31.036 15.9431 31.036 15.505C31.036 12.7502 31.0162 9.99535 31.0454 7.24054C31.0248 6.40902 31.1041 5.57811 31.2812 4.76781C31.5513 3.6281 32.1242 2.59454 32.9318 1.78988C33.7395 0.985229 34.748 0.443302 35.8375 0.228462C36.9175 -0.076325 38.0572 -0.047705 39.1224 0.31096C40.1876 0.669625 41.134 1.34342 41.8504 2.25306C42.0315 2.49303 42.2855 2.65885 42.5692 2.72219C44.0135 2.78684 45.3889 3.39457 46.4492 4.43655C47.5094 5.47852 48.1852 6.88669 48.3556 8.40888C48.3754 8.50891 48.3848 8.61794 48.4047 8.74298C49.517 8.5403 50.6609 8.68034 51.7005 9.14649C52.74 9.61263 53.6316 10.3853 54.2694 11.3728C54.9514 12.3214 55.37 13.4531 55.4778 14.6405C55.5856 15.8279 55.3785 17.0236 54.8797 18.0927C55.9377 18.3468 56.9109 18.9002 57.696 19.694C58.481 20.4879 59.0484 21.4925 59.3379 22.6011C59.6348 23.6985 59.6641 24.8579 59.4231 25.9706C59.182 27.0833 58.6785 28.1129 57.9597 28.963ZM32.9075 15.0318C32.9621 15.0481 33.018 15.0585 33.0745 15.0628C33.3103 15.0108 33.5462 14.9378 33.7735 14.8858C35.6048 14.4026 37.5353 14.575 39.2647 15.3759C44.5398 17.8177 47.0189 25.707 42.0796 30.9655C39.2062 34.0235 36.3526 37.0913 33.4396 40.0962C32.7406 40.8164 32.9679 41.5467 32.9085 42.497C33.5399 41.7748 34.2997 41.192 35.144 40.7819C35.9884 40.3718 36.9008 40.1426 37.8289 40.1072C38.577 40.0762 38.9807 40.4073 38.9902 41.0675C38.9996 41.7277 38.6553 42.0588 37.9468 42.1008C36.5811 42.1417 35.2859 42.7535 34.3439 43.8029C33.4018 44.8522 32.8892 46.254 32.9179 47.7025C32.9078 49.6224 32.9078 51.5423 32.9179 53.4622C32.8798 54.0521 32.9564 54.6441 33.1429 55.2013C33.3294 55.7586 33.6219 56.2693 34.0022 56.7017C34.3825 57.1342 34.8426 57.4792 35.3538 57.7153C35.8651 57.9515 36.4166 58.0737 36.9743 58.0746C37.5814 58.146 38.196 58.0744 38.7741 57.865C39.3522 57.6555 39.8796 57.3133 40.3186 56.8628C40.7576 56.4123 41.0974 55.8646 41.3137 55.2588C41.5301 54.653 41.6177 54.004 41.5702 53.3582C41.5409 52.858 41.5994 52.3248 42.0626 52.1578C42.4391 52.0699 42.833 52.1372 43.1644 52.3459C43.8563 52.8242 44.6532 53.1047 45.4775 53.1601C46.1165 53.1812 46.7517 53.0478 47.3349 52.7701C47.9181 52.4924 48.4341 52.0776 48.8437 51.5571C49.2534 51.0366 49.546 50.4242 49.6994 49.766C49.8528 49.1079 49.863 48.4214 49.7291 47.7585C49.5225 47.7065 49.3055 47.6585 49.0895 47.5915C47.9952 47.3108 47.0202 46.6518 46.3182 45.7185C45.6162 44.7852 45.2271 43.6306 45.2124 42.4369C45.2058 42.3021 45.2253 42.1673 45.2697 42.0407C45.3141 41.9142 45.3825 41.7987 45.4706 41.7013C45.5588 41.6039 45.6648 41.5266 45.7822 41.4743C45.8995 41.422 46.0258 41.3958 46.1531 41.3972C46.2804 41.3987 46.4061 41.4277 46.5224 41.4827C46.6387 41.5376 46.7431 41.6172 46.8293 41.7166C46.9155 41.816 46.9815 41.9331 47.0234 42.0606C47.0652 42.1881 47.082 42.3233 47.0727 42.4579C47.0718 43.2478 47.3403 44.0113 47.8287 44.6077C48.3171 45.2041 48.9924 45.5931 49.73 45.7029C50.898 45.9791 52.118 45.8623 53.2204 45.3688C53.7654 45.1963 54.2667 44.8957 54.6869 44.4892C55.1071 44.0828 55.4354 43.581 55.6473 43.0213C55.8592 42.4617 55.9492 41.8585 55.9107 41.2568C55.8723 40.655 55.7062 40.0703 55.425 39.5461C55.0212 38.5858 55.1099 38.3047 55.9957 37.7455C56.4941 37.4414 56.9291 37.033 57.2741 36.5452C57.6192 36.0573 57.8672 35.5002 58.0031 34.9077C58.1829 34.2514 58.2023 33.5575 58.0594 32.8911C57.9164 32.2247 57.616 31.6078 57.1862 31.0986C57.0975 31.2986 57.0286 31.4987 56.94 31.6828C56.4953 32.7317 55.7756 33.6229 54.8665 34.25C53.9574 34.8772 52.8975 35.2138 51.8129 35.2198C51.1337 35.2408 50.7696 34.9067 50.7498 34.2915C50.73 33.6763 51.0649 33.3212 51.7243 33.2582C52.7131 33.2467 53.6613 32.8391 54.3787 32.1173C55.096 31.3954 55.5294 30.4126 55.5919 29.3661C55.6478 28.8369 55.8991 28.3527 56.2909 28.0197C56.9124 27.4617 57.3699 26.7265 57.6092 25.9012C57.8485 25.0759 57.8596 24.1952 57.6411 23.3634C57.4227 22.5316 56.9839 21.7837 56.3767 21.2084C55.7696 20.633 55.0196 20.2544 54.2156 20.1173C53.7395 19.9933 53.2436 19.9819 52.7629 20.0839C52.2822 20.1859 51.8285 20.3988 51.4341 20.7076C51.0397 21.0163 50.7142 21.4133 50.4807 21.8703C50.2471 22.3274 50.1113 22.8333 50.0829 23.3523C50.0338 24.1525 49.6989 24.5316 49.0791 24.4896C48.4594 24.4476 48.1934 24.0305 48.2301 23.2063C48.2805 22.0037 48.7075 20.8533 49.4435 19.9368C50.1794 19.0203 51.1825 18.3901 52.294 18.1458C52.4809 18.1151 52.6575 18.0349 52.8072 17.9125C52.957 17.79 53.0751 17.6294 53.1506 17.4455C53.5421 16.6913 53.7145 15.8312 53.6462 14.9733C53.5779 14.1154 53.2719 13.2981 52.7666 12.6241C52.3172 11.919 51.6774 11.3742 50.9311 11.0613C50.1847 10.7484 49.3665 10.682 48.5839 10.8706C48.3075 10.9564 48.0675 11.1409 47.9047 11.3928C47.1464 12.766 45.9885 13.8414 44.6049 14.4577C43.5328 14.9339 42.3267 14.9414 41.2494 14.4787C41.0241 14.402 40.8366 14.2338 40.7279 14.0109C40.6192 13.7881 40.5981 13.5286 40.6693 13.2893C40.698 13.1694 40.749 13.0568 40.8192 12.958C40.8895 12.8592 40.9776 12.7763 41.0784 12.714C41.1793 12.6518 41.2908 12.6116 41.4065 12.5956C41.5222 12.5796 41.6398 12.5883 41.7523 12.6211C41.9692 12.6631 42.1853 12.7362 42.3918 12.7982C44.271 13.3303 46.9482 10.6695 46.5246 8.62394C46.3565 7.54253 45.8259 6.56179 45.0305 5.86199C44.235 5.16218 43.228 4.79034 42.1947 4.81482C41.9159 4.85252 41.6328 4.80696 41.3771 4.68325C41.1214 4.55954 40.9034 4.3626 40.7476 4.11461C40.2656 3.27752 39.5304 2.63822 38.6619 2.3009C37.7934 1.96358 36.8427 1.94813 35.9649 2.25706C35.0672 2.53261 34.2813 3.11678 33.7309 3.91769C33.1805 4.71861 32.8969 5.6908 32.9245 6.68136C32.9151 8.45489 32.9245 10.2294 32.9245 12.0029C32.9075 12.9972 32.9075 14.0215 32.9075 15.0318ZM27.0815 15.0218C27.0815 12.058 27.1504 9.08408 27.0617 6.13121C27.0175 5.20326 26.6845 4.31702 26.1147 3.61114C25.545 2.90526 24.7706 2.41956 23.9128 2.23005C23.1222 1.95013 22.2669 1.95263 21.4777 2.23716C20.6886 2.52169 20.0091 3.07258 19.5433 3.80552C19.3641 4.14717 19.094 4.42534 18.7667 4.60535C18.4395 4.78536 18.0695 4.85925 17.7028 4.81782C16.819 4.80967 15.9569 5.10832 15.248 5.66819C14.5391 6.22806 14.0224 7.01843 13.7767 7.91874C13.5725 8.56308 13.5318 9.25305 13.6588 9.91933C13.9484 10.9036 14.5807 11.7341 15.427 12.2419C16.2733 12.7497 17.2702 12.8967 18.2151 12.6531C18.4422 12.5566 18.6961 12.5595 18.9211 12.6611C19.1462 12.7627 19.3242 12.9548 19.4159 13.1953C19.4682 13.3132 19.4949 13.4421 19.494 13.5724C19.4932 13.7028 19.4648 13.8312 19.4109 13.9484C19.3571 14.0656 19.2792 14.1684 19.1829 14.2495C19.0866 14.3305 18.9745 14.3876 18.8547 14.4167C18.1568 14.6658 17.4197 14.7677 16.685 14.7167C15.7531 14.5791 14.8648 14.2107 14.0921 13.6414C13.3193 13.0721 12.6839 12.3179 12.2372 11.4398C12.093 11.1739 11.8617 10.9734 11.5872 10.8766C10.8033 10.6946 9.98622 10.7607 9.23744 11.0668C8.48865 11.3728 7.84111 11.9053 7.3752 12.5981C6.86819 13.2435 6.55122 14.0326 6.46367 14.8674C6.37613 15.7021 6.52187 16.5458 6.88278 17.2935C6.96708 17.5171 7.10484 17.7135 7.28248 17.8635C7.46013 18.0134 7.67155 18.1118 7.89592 18.1488C9.02497 18.4164 10.035 19.0824 10.7607 20.0379C11.4864 20.9933 11.8849 22.1815 11.8909 23.4083C11.9099 23.5794 11.8856 23.7528 11.8207 23.9107C11.7557 24.0687 11.6524 24.2055 11.5212 24.3072C11.3901 24.4089 11.2359 24.4719 11.0743 24.4897C10.9126 24.5075 10.7495 24.4795 10.6014 24.4086C10.159 24.2316 10.0703 23.8344 10.0307 23.3753C10.0271 22.925 9.93874 22.48 9.77071 22.0664C9.60268 21.6528 9.35841 21.279 9.05223 20.9669C8.74606 20.6548 8.38416 20.4108 7.9878 20.2491C7.59143 20.0874 7.16859 20.0113 6.74411 20.0253C5.83003 19.9872 4.92849 20.2607 4.1717 20.8056C3.41492 21.3506 2.8427 22.1383 2.53897 23.0533C2.23523 23.9683 2.21596 24.9624 2.48398 25.8898C2.752 26.8173 3.29321 27.6293 4.02824 28.2067C4.27574 28.4398 4.43636 28.7592 4.48105 29.107C4.48785 30.1881 4.89122 31.224 5.60573 31.9953C6.32025 32.7666 7.28981 33.2127 8.30911 33.2392C9.05717 33.3022 9.36186 33.6043 9.35243 34.2615C9.343 34.9187 8.9751 35.2428 8.25061 35.2008C7.17622 35.177 6.12991 34.8326 5.23173 34.207C4.33355 33.5813 3.61989 32.6999 3.17264 31.6638C3.07831 31.4637 2.99529 31.2566 2.89719 31.0376C2.52317 31.5273 2.25084 32.0953 2.09802 32.7043C1.94519 33.3133 1.9153 33.9496 2.0103 34.5717C2.10531 35.1938 2.32307 35.7877 2.64934 36.3144C2.97561 36.8412 3.40305 37.2889 3.90372 37.6285C4.87819 38.2857 4.99611 38.6828 4.5433 39.8412C4.29571 40.4457 4.17781 41.101 4.19812 41.7598C4.21843 42.4185 4.37645 43.0643 4.66076 43.6504C4.94507 44.2365 5.34858 44.7483 5.84215 45.149C6.33572 45.5496 6.90702 45.829 7.51481 45.967C8.38446 46.1253 9.27346 46.122 10.142 45.957C10.8982 45.8376 11.5917 45.443 12.1034 44.8406C12.6152 44.2383 12.9133 43.4659 12.9465 42.656C13.0154 41.9148 13.3701 41.5497 13.9597 41.6017C14.521 41.6537 14.8087 42.0398 14.7964 42.781C14.7404 43.9834 14.3101 45.1323 13.5729 46.0479C12.8358 46.9634 11.8333 47.5942 10.7222 47.8415C10.2986 47.9416 10.1712 48.1236 10.1609 48.5507C10.1094 49.4004 10.2911 50.2477 10.684 50.9902C11.0769 51.7327 11.6642 52.3387 12.3749 52.735C13.0527 53.1919 13.8451 53.4204 14.6477 53.3906C15.4504 53.3608 16.2258 53.074 16.8718 52.5679C17.2557 52.2968 17.6198 52.0568 18.0924 52.3279C18.5651 52.5989 18.516 53.0791 18.5641 53.5492C18.5965 54.2851 18.7395 55.0108 18.9877 55.6989C19.4071 56.5972 20.0982 57.3207 20.9507 57.7539C21.8033 58.187 22.7681 58.3048 23.6911 58.0885C24.6323 57.8659 25.4776 57.3194 26.0953 56.5342C26.713 55.7489 27.0684 54.769 27.106 53.7473C27.1456 51.8467 27.1155 49.9462 27.1155 48.0456C27.1615 47.3075 27.0662 46.5671 26.8353 45.8691C26.6044 45.1711 26.2427 44.5298 25.772 43.9839C25.3013 43.4379 24.7313 42.9986 24.0963 42.6924C23.4614 42.3861 22.7745 42.2193 22.0771 42.2019C21.3488 42.1388 21.014 41.7947 21.0338 41.1586C21.0536 40.5014 21.4375 40.1673 22.2044 40.1983C23.6637 40.2364 25.0722 40.7744 26.2193 41.7317C26.4947 41.9618 26.7608 42.2119 27.0683 42.4829C27.179 42.0361 27.1762 41.5661 27.0602 41.1208C26.9442 40.6754 26.7192 40.2705 26.4079 39.9472C24.892 38.4547 23.4657 36.8463 22.0092 35.2828C20.4347 33.6023 18.7613 32.0169 17.3349 30.2013C16.1844 28.8299 15.4634 27.1139 15.2712 25.2897C15.0791 23.4655 15.4254 21.623 16.2624 20.0163C16.9738 18.3344 18.1515 16.9221 19.6387 15.9677C21.126 15.0133 22.8521 14.5619 24.5873 14.6737C25.4235 14.7378 26.2554 14.854 27.0787 15.0218H27.0815ZM30.0143 40.9845C33.665 37.0403 37.2667 33.1682 40.8495 29.281C44.7662 25.0128 42.4833 18.6899 38.0544 16.9884C36.8235 16.4878 35.4812 16.3811 34.1938 16.6816C32.9063 16.9821 31.7303 17.6765 30.8114 18.6789C30.2011 19.2741 29.7983 19.2631 29.2464 18.6999C28.1763 17.5863 26.7961 16.8681 25.3106 16.6518C23.8251 16.4356 22.3134 16.7329 20.9998 17.4996C19.6627 18.2454 18.5816 19.4194 17.9102 20.8546C17.2389 22.2897 17.0115 23.9128 17.2604 25.4929C17.6016 27.2418 18.4519 28.8331 19.6914 30.0423C22.4865 33.0161 25.3307 35.944 28.1541 38.9019C28.7616 39.5541 29.3521 40.2533 30.0115 40.9835L30.0143 40.9845Z" fill="#47BBC6"/>
<path d="M40.2854 10.2629C40.3052 11.0251 40.0024 11.4312 39.41 11.4632C38.8393 11.4943 38.5044 11.1291 38.4355 10.4199C38.4049 9.71832 38.1342 9.05259 37.674 8.54736C37.2139 8.04213 36.5959 7.73203 35.9357 7.67513C35.5878 7.63903 35.2634 7.47272 35.0206 7.20599C34.9241 7.05568 34.8698 6.87945 34.8638 6.69771C34.8579 6.51598 34.9006 6.33618 34.9871 6.17916C35.0736 6.02213 35.2003 5.89429 35.3525 5.81047C35.5047 5.72665 35.6761 5.69028 35.847 5.70555C36.9979 5.71315 38.1016 6.19118 38.9284 7.04011C39.7551 7.88904 40.2412 9.04344 40.2854 10.2629Z" fill="#47BBC6"/>
<path d="M45.295 31.2789C45.3496 30.0772 45.8262 28.9407 46.6312 28.0929C47.4361 27.2451 48.5111 26.7473 49.6447 26.6975C50.3239 26.6875 50.6823 26.9976 50.6974 27.6258C50.7125 28.254 50.4145 28.5861 49.7334 28.6591C49.0528 28.6863 48.4074 28.9872 47.9286 29.5008C47.4497 30.0143 47.1732 30.702 47.1552 31.4239C47.1613 31.5625 47.139 31.7009 47.0899 31.8295C47.0407 31.9582 46.9659 32.074 46.8705 32.169C46.7751 32.2641 46.6615 32.3361 46.5373 32.3801C46.4132 32.4242 46.2816 32.4392 46.1515 32.4242C45.5799 32.3852 45.2648 31.9781 45.295 31.2789Z" fill="#47BBC6"/>
<path d="M41.3569 46.5686C42.0173 46.5586 42.4097 46.8916 42.4493 47.4768C42.489 48.093 42.1739 48.4471 41.4947 48.5311C41.2166 48.5306 40.9413 48.5883 40.6843 48.7009C40.4274 48.8134 40.194 48.9787 39.9974 49.1871C39.8008 49.3956 39.645 49.6431 39.5388 49.9156C39.4326 50.188 39.3783 50.48 39.3788 50.7748C39.2901 51.5051 38.9165 51.8811 38.3354 51.8181C37.7741 51.7551 37.4864 51.3379 37.5091 50.6287C37.5494 49.5622 37.9683 48.5511 38.6818 47.7982C39.3954 47.0453 40.3509 46.6061 41.3569 46.5686Z" fill="#47BBC6"/>
<path d="M14.7111 31.3002C14.7205 31.9895 14.396 32.4066 13.8253 32.4276C13.2546 32.4486 12.8999 32.0835 12.8414 31.3843C12.8173 30.673 12.5422 29.9972 12.0705 29.4909C11.5987 28.9846 10.9648 28.6846 10.2944 28.6505C9.57557 28.5775 9.25673 28.2334 9.3105 27.5762C9.35012 26.961 9.69444 26.6759 10.4029 26.6889C11.5395 26.732 12.6179 27.233 13.4183 28.0897C14.2188 28.9465 14.6811 30.0946 14.7111 31.3002Z" fill="#47BBC6"/>
<path d="M20.3361 6.21395C21.469 6.27764 22.5391 6.78627 23.3378 7.64076C24.1365 8.49525 24.6066 9.6344 24.6566 10.8363C24.6748 10.9727 24.6665 11.1117 24.632 11.2445C24.5975 11.3774 24.5376 11.5013 24.4561 11.6086C24.3745 11.7159 24.273 11.8042 24.1579 11.8682C24.0428 11.9321 23.9166 11.9703 23.787 11.9803C23.6574 11.9904 23.5272 11.972 23.4046 11.9265C23.2819 11.8809 23.1694 11.8091 23.074 11.7156C22.9787 11.622 22.9024 11.5086 22.8501 11.3825C22.7978 11.2563 22.7705 11.1201 22.7699 10.9824C22.7657 10.2483 22.4921 9.54473 22.0072 9.02081C21.5223 8.49688 20.864 8.19371 20.1719 8.17553C19.522 8.0815 19.1975 7.7064 19.2286 7.10122C19.2729 6.48504 19.6371 6.19294 20.3361 6.21395Z" fill="#47BBC6"/>
<path d="M18.7273 46.5771C19.7299 46.6366 20.6748 47.0934 21.3747 47.8569C22.0746 48.6204 22.4785 49.6349 22.5062 50.6993C22.5062 51.3565 22.211 51.7636 21.6695 51.8156C21.1082 51.8786 20.7262 51.5235 20.6318 50.8343C20.4252 49.3419 19.8442 48.6947 18.565 48.5286C17.8273 48.4346 17.5019 48.0906 17.5519 47.4744C17.6028 46.9012 18.0462 46.5561 18.7273 46.5771Z" fill="#47BBC6"/>
</svg>
