<svg width="60" height="61" viewBox="0 0 60 61" fill="none" xmlns="http://www.w3.org/2000/svg">
<path d="M0.113003 32.5633C0.230015 31.4863 0.336031 30.4203 0.465044 29.3433C0.839762 25.2326 1.9203 21.219 3.65838 17.4816C4.97415 14.5417 7.24314 12.141 10.092 10.6744C11.9646 9.74968 14.0453 9.33723 16.1256 9.4784C17.067 9.58838 17.9442 10.015 18.6156 10.6895C19.287 11.3639 19.7134 12.2468 19.826 13.1956C19.92 14.7467 19.885 16.3088 19.908 17.8719V18.6061C20.3917 18.3683 20.8594 18.0988 21.3082 17.7993C21.4492 17.7045 21.4842 17.3959 21.4842 17.1841C21.4962 12.3663 21.4962 7.55222 21.4842 2.74182C21.4477 2.2866 21.5317 1.82975 21.7276 1.41798C21.9235 1.00621 22.2243 0.654275 22.5993 0.398126C22.9437 0.166622 23.3426 0.0309066 23.7557 0.00468466C24.1688 -0.0215373 24.5815 0.0626592 24.952 0.248785C25.3224 0.434911 25.6376 0.716366 25.8657 1.06469C26.0937 1.41301 26.2265 1.81587 26.2507 2.23254C26.3567 4.22124 26.2977 6.22205 26.2737 8.21076C26.2777 8.32999 26.2574 8.44878 26.214 8.55976C26.1706 8.67074 26.1051 8.77154 26.0214 8.8559C25.9377 8.94026 25.8378 9.00638 25.7277 9.05015C25.6176 9.09391 25.4998 9.11439 25.3816 9.11031C25.2581 9.10514 25.1371 9.07439 25.0259 9.01999C24.9147 8.96558 24.8159 8.88869 24.7355 8.79409C24.6551 8.69948 24.5949 8.58919 24.5586 8.47009C24.5223 8.351 24.5107 8.22565 24.5245 8.10184C24.5125 6.36122 24.5245 4.6337 24.5245 2.89308C24.5245 2.69139 24.5715 2.45541 24.4775 2.31321C24.3245 2.10043 24.0665 1.81604 23.8554 1.82814C23.6444 1.84024 23.4094 2.13572 23.2684 2.36061C23.1744 2.5028 23.2334 2.73979 23.2334 2.94048C23.2334 7.79425 23.2214 12.647 23.2454 17.5008C23.2742 17.8917 23.1844 18.2823 22.9879 18.6205C22.7914 18.9588 22.4975 19.2288 22.1453 19.3947C19.845 20.6613 17.5668 21.9512 15.2896 23.2652C14.9931 23.4569 14.651 23.5646 14.2991 23.577C13.9471 23.5894 13.5984 23.5061 13.2894 23.3358C11.8572 22.649 10.4131 22.0097 8.96892 21.3592C8.83991 21.2997 8.72189 21.2412 8.59287 21.1938C8.51766 21.1454 8.43283 21.1143 8.34439 21.1026C8.25594 21.0908 8.16602 21.0988 8.08096 21.1259C7.99591 21.1531 7.91779 21.1987 7.85211 21.2595C7.78642 21.3204 7.73476 21.395 7.70078 21.4782C7.50076 21.8816 7.71278 22.1771 8.06482 22.3546C8.73389 22.6863 9.40296 22.9939 10.096 23.2894C10.4042 23.3666 10.6793 23.5425 10.88 23.7906C11.0808 24.0387 11.1964 24.3457 11.2096 24.6657C11.2228 24.9856 11.1328 25.3012 10.9531 25.5653C10.7735 25.8293 10.5138 26.0275 10.213 26.1303C9.17993 26.698 8.15883 27.2789 7.13772 27.8588C6.97371 27.9536 6.73768 28.0363 6.66767 28.1906C6.60441 28.3006 6.56447 28.4226 6.55035 28.549C6.53624 28.6754 6.54826 28.8033 6.58566 28.9247C6.67329 29.0166 6.77943 29.0884 6.89691 29.1354C7.0144 29.1823 7.14051 29.2034 7.26673 29.197C7.47634 29.1512 7.67295 29.0581 7.8418 28.9247C12.3733 26.3683 16.9277 23.8229 21.4362 21.2301C22.1613 20.7595 23.0059 20.5103 23.8682 20.5125C24.7305 20.5146 25.5739 20.768 26.2967 21.2422C29.525 23.124 32.8234 24.8878 36.0407 26.7938C36.4262 27.0709 36.8879 27.2199 37.3613 27.2199C37.8348 27.2199 38.2964 27.0709 38.6819 26.7938C38.3529 26.6042 38.0359 26.4036 37.6959 26.2372C37.0388 25.8943 36.4627 25.4909 36.5097 24.6387C36.5567 23.832 37.1318 23.4669 37.8009 23.1946C38.3639 22.9576 38.901 22.6974 39.456 22.4483C40.0311 22.1882 40.2311 21.8433 40.0191 21.4661C39.7491 20.9921 39.373 21.0758 38.951 21.2644C37.4018 21.9703 35.8507 22.6611 34.3025 23.3822C34.0249 23.5285 33.7141 23.599 33.4011 23.5866C33.0881 23.5742 32.7837 23.4794 32.5183 23.3116C30.1701 21.9744 27.8178 20.6361 25.4626 19.3221C25.1438 19.1715 24.8776 18.9271 24.6991 18.6211C24.5206 18.3151 24.4381 17.9618 24.4625 17.6077C24.4975 15.9508 24.4745 14.2928 24.4745 12.6359C24.4745 11.9018 24.8145 11.4762 25.3666 11.4873C25.8946 11.4994 26.2237 11.9139 26.2237 12.6117C26.2357 14.1244 26.2467 15.6543 26.2117 17.169C26.1859 17.3402 26.2197 17.5152 26.3074 17.6641C26.3951 17.8131 26.5313 17.9267 26.6927 17.9859C27.0328 18.1402 27.3388 18.3408 27.7378 18.5657C27.7498 18.2934 27.7608 18.0807 27.7608 17.879C27.7838 16.3753 27.7138 14.8717 27.8428 13.3802C27.8844 12.8136 28.0372 12.2611 28.2924 11.7546C28.5476 11.2481 28.9 10.7979 29.3293 10.4299C29.7585 10.062 30.256 9.78379 30.7929 9.61144C31.3297 9.43909 31.8951 9.37603 32.4563 9.42595C37.3398 9.63874 40.8572 12.0419 43.3274 16.1827C45.0385 19.2203 46.1905 22.545 46.7278 25.9961C46.7436 26.1844 46.8209 26.3621 46.9476 26.5013C47.0743 26.6405 47.2432 26.7335 47.4278 26.7656C54.1545 28.7543 58.369 33.2198 59.7071 40.142C60.4584 44.3718 59.5829 48.7314 57.2589 52.3334C54.9348 55.9353 51.3369 58.5088 47.1975 59.5301C43.0581 60.5514 38.6883 59.9437 34.9776 57.8306C31.2669 55.7176 28.4941 52.2581 27.2238 48.1563C26.0766 44.617 26.1762 40.7869 27.5058 37.3132C27.7266 36.5857 27.8104 35.8229 27.7528 35.0643C27.7298 32.6732 27.7408 30.2932 27.7408 27.9042C27.7408 26.8029 27.7288 25.6855 27.7528 24.5893C27.768 24.4452 27.7374 24.2999 27.6655 24.1743C27.5937 24.0487 27.4842 23.9493 27.3528 23.8905C26.5777 23.476 25.8036 23.0383 25.0526 22.6006C24.6715 22.3562 24.2288 22.2273 23.7772 22.2295C23.3255 22.2316 22.884 22.3646 22.5053 22.6127C21.7652 23.0504 21.0141 23.4891 20.2511 23.8794C20.1005 23.9445 19.9748 24.0567 19.8923 24.1995C19.8098 24.3422 19.775 24.5078 19.793 24.672C19.805 28.0817 19.793 31.5024 19.805 34.912C19.8451 36.0388 19.6624 37.1623 19.2675 38.217C18.8725 39.2718 18.2733 40.2368 17.5048 41.0556C16.796 41.8519 15.934 42.4944 14.9712 42.9442C14.0084 43.3939 12.9649 43.6414 11.9042 43.6716C9.23678 43.6455 6.65054 44.5962 4.62547 46.3471C4.32146 46.6442 3.95061 46.8626 3.54463 46.9837C3.13865 47.1048 2.70962 47.1249 2.29424 47.0424C1.87887 46.9598 1.4895 46.777 1.15945 46.5096C0.829403 46.2423 0.568501 45.8982 0.399043 45.507C0.26215 45.0812 0.171604 44.6416 0.129011 44.196C0.070005 43.8289 0.0470048 43.4618 0 43.0948C0.113012 39.5823 0.113003 36.0788 0.113003 32.5633ZM43.3374 28.006C40.3688 28.0024 37.4657 28.8866 34.9954 30.5468C32.5251 32.2069 30.5985 34.5684 29.4592 37.3327C28.3199 40.0969 28.0191 43.1398 28.5949 46.0764C29.1706 49.0131 30.597 51.7116 32.6937 53.8308C34.7904 55.95 37.4632 57.3946 40.3742 57.982C43.2851 58.5694 46.3034 58.2732 49.0474 57.1308C51.7914 55.9885 54.1378 54.0512 55.7899 51.5641C57.442 49.0771 58.3256 46.1518 58.329 43.1583C58.3143 39.1502 56.7312 35.31 53.924 32.4725C51.1167 29.6349 47.3122 28.0294 43.3374 28.005V28.006ZM9.03393 24.7628C8.35286 24.4431 7.7778 24.195 7.21474 23.8985C6.64805 23.6144 6.21651 23.1148 6.01508 22.5098C5.81365 21.9048 5.85881 21.2439 6.14063 20.6724C6.42245 20.101 6.91784 19.6658 7.51783 19.4627C8.11782 19.2596 8.77327 19.3051 9.33996 19.5893C10.8401 20.2408 12.3223 20.9629 13.8404 21.6133C13.9575 21.6632 14.0833 21.6889 14.2105 21.6889C14.3376 21.6889 14.4634 21.6632 14.5805 21.6133C15.6726 21.0335 16.7407 20.4173 17.8088 19.79C17.893 19.7381 17.9657 19.6692 18.0223 19.5876C18.0789 19.506 18.1183 19.4136 18.1379 19.316C18.1499 17.4221 18.1969 15.5282 18.1148 13.6343C18.1063 13.2915 18.028 12.9541 17.8847 12.6431C17.7413 12.3322 17.5361 12.0542 17.2817 11.8267C17.0273 11.5991 16.7292 11.4267 16.4059 11.3203C16.0827 11.2138 15.7411 11.1756 15.4026 11.2079C13.8808 11.2211 12.3798 11.5653 11.0021 12.2171C9.62437 12.8689 8.40242 13.8129 7.41975 14.9847C5.47536 17.3707 4.10604 20.1789 3.41934 23.1886C2.37758 27.1374 1.83986 31.2041 1.81919 35.2902C1.78418 38.3086 1.9252 41.3279 2.03021 44.3342C2.0499 44.5099 2.10869 44.679 2.20221 44.8286C2.29572 44.9782 2.42152 45.1047 2.57025 45.1984C2.74109 45.2353 2.9175 45.2375 3.0892 45.205C3.2609 45.1724 3.42446 45.1058 3.57036 45.0089C3.92884 44.7693 4.27008 44.5044 4.59147 44.2162C6.72496 42.7203 9.25966 41.9151 11.8582 41.9078C13.4936 41.865 15.0509 41.1939 16.2118 40.0317C17.3728 38.8695 18.0496 37.304 18.1039 35.6553C18.2209 32.2456 18.1389 28.837 18.1509 25.4153C18.1352 25.3403 18.1075 25.2685 18.0688 25.2025C17.8688 25.3094 17.6928 25.4042 17.5288 25.498C14.5952 27.1552 11.6642 28.8125 8.73589 30.4697C8.50171 30.6085 8.25846 30.7312 8.00782 30.8368C7.4306 31.0611 6.7896 31.0509 6.21969 30.8083C5.64978 30.5658 5.19536 30.1098 4.95206 29.5363C4.70876 28.9628 4.69552 28.3165 4.91514 27.7333C5.13476 27.1502 5.57013 26.6757 6.12962 26.4096C7.02772 25.8862 7.98981 25.3548 9.03492 24.7618L9.03393 24.7628ZM45.0976 26.3017C44.5646 22.7987 43.3348 19.4405 41.4822 16.4288C40.5389 14.8837 39.23 13.5989 37.6727 12.6898C36.1155 11.7807 34.3588 11.2756 32.5603 11.22C32.1797 11.1675 31.7923 11.2004 31.4258 11.3163C31.0593 11.4323 30.7227 11.6284 30.4401 11.8908C30.1574 12.1531 29.9358 12.4752 29.7909 12.8339C29.646 13.1927 29.5815 13.5793 29.602 13.9661C29.579 15.7067 29.579 17.4342 29.614 19.1748C29.6288 19.3004 29.67 19.4213 29.7348 19.5295C29.7997 19.6376 29.8867 19.7306 29.9901 19.8021C31.0112 20.4173 32.0683 20.974 33.1014 21.5891C33.2266 21.6746 33.3724 21.7242 33.5234 21.7325C33.6744 21.7409 33.8248 21.7077 33.9585 21.6365C35.4146 20.9498 36.8698 20.2993 38.3259 19.6196C38.6385 19.455 38.9823 19.3593 39.3344 19.339C39.6865 19.3186 40.0389 19.3741 40.3681 19.5016C40.7866 19.6547 41.1516 19.9279 41.4182 20.2875C41.6847 20.6471 41.8412 21.0775 41.8683 21.5256C41.9243 21.9814 41.8421 22.4436 41.6325 22.8513C41.4229 23.2591 41.0958 23.5932 40.6942 23.8098C40.0941 24.1527 39.45 24.4249 38.734 24.7688C39.661 25.2892 40.4831 25.7632 41.3162 26.2251C41.4213 26.2789 41.5387 26.3033 41.6562 26.2957L45.0976 26.3017ZM29.637 25.1652V33.3802C31.1206 31.311 33.0313 29.5908 35.2376 28.3378C33.3354 27.2477 31.5272 26.2301 29.637 25.1642V25.1652Z" fill="#47BBC6"/>
<path d="M57.3324 43.1693C57.3212 46.4738 56.1635 49.6701 54.0601 52.2041C51.9567 54.7381 49.0402 56.4499 45.8163 57.0428C45.1002 57.1729 44.6301 56.9359 44.5251 56.3802C44.4191 55.8478 44.7712 55.4565 45.4992 55.2911C47.5667 54.917 49.5038 54.0125 51.1241 52.6648C52.7445 51.3171 53.9936 49.5715 54.7511 47.596C55.5087 45.6206 55.7493 43.4817 55.4497 41.3854C55.15 39.289 54.3204 37.3057 53.0404 35.6263C51.7605 33.947 50.0735 32.628 48.1417 31.7965C46.2098 30.965 44.0983 30.6489 42.0102 30.8787C39.9222 31.1084 37.9279 31.8762 36.2194 33.1082C34.5108 34.3402 33.1456 35.995 32.2549 37.9132C31.0111 40.601 30.7679 43.6504 31.5698 46.5041C32.3717 49.3578 34.1651 51.8253 36.6223 53.4557C37.9656 54.3407 39.4638 54.9596 41.0368 55.279C41.1898 55.3143 41.3418 55.3385 41.4948 55.3859C41.6014 55.4081 41.7025 55.4517 41.792 55.5142C41.8815 55.5767 41.9576 55.6568 42.0156 55.7496C42.0737 55.8425 42.1126 55.9462 42.13 56.0545C42.1474 56.1629 42.143 56.2737 42.1169 56.3802C42.1067 56.4905 42.0732 56.5972 42.0188 56.6934C41.9644 56.7896 41.8903 56.8729 41.8015 56.9379C41.7126 57.0029 41.611 57.048 41.5034 57.0703C41.3959 57.0926 41.2849 57.0914 41.1778 57.067C40.331 56.9221 39.4954 56.7166 38.6776 56.4519C36.3171 55.6118 34.2231 54.149 32.6137 52.2158C31.0043 50.2826 29.9382 47.9497 29.5266 45.4599C29.1149 42.9702 29.3727 40.4147 30.2731 38.0596C31.1735 35.7044 32.6836 33.6357 34.6461 32.0689C36.6087 30.5021 38.9518 29.4945 41.4317 29.1509C43.9115 28.8074 46.4374 29.1405 48.7462 30.1156C51.0551 31.0906 53.0625 32.672 54.5594 34.6951C56.0563 36.7181 56.988 39.1088 57.2575 41.6183C57.3205 42.1396 57.3094 42.6489 57.3324 43.1693Z" fill="#47BBC6"/>
<path d="M45.2294 39.8548C45.2325 40.4121 45.1267 40.9645 44.9181 41.4806C44.7094 41.9966 44.402 42.4662 44.0134 42.8624C43.6248 43.2587 43.1626 43.5739 42.6532 43.79C42.1438 44.0062 41.5972 44.119 41.0445 44.1221C40.4918 44.1252 39.944 44.0185 39.4322 43.8082C38.9204 43.5978 38.4548 43.2878 38.0618 42.896C37.6688 42.5041 37.3563 42.038 37.1419 41.5244C36.9276 41.0107 36.8157 40.4595 36.8126 39.9022C36.8063 38.7767 37.2437 37.6948 38.0286 36.8945C38.8134 36.0942 39.8814 35.6411 40.9975 35.6348C42.1136 35.6285 43.1866 36.0696 43.9802 36.861C44.7738 37.6524 45.2232 38.7293 45.2294 39.8548ZM43.4682 39.8669C43.4682 39.2123 43.2104 38.5845 42.7513 38.1216C42.2923 37.6587 41.6697 37.3986 41.0205 37.3986C40.3713 37.3986 39.7487 37.6587 39.2897 38.1216C38.8306 38.5845 38.5728 39.2123 38.5728 39.8669C38.5662 40.1952 38.6246 40.5216 38.7447 40.8268C38.8647 41.1321 39.044 41.4102 39.2719 41.6447C39.4999 41.8793 39.7719 42.0656 40.0722 42.1928C40.3724 42.32 40.6948 42.3855 41.0205 42.3855C41.3462 42.3855 41.6686 42.32 41.9688 42.1928C42.2691 42.0656 42.5411 41.8793 42.7691 41.6447C42.997 41.4102 43.1763 41.1321 43.2963 40.8268C43.4164 40.5216 43.4748 40.1952 43.4682 39.8669Z" fill="#47BBC6"/>
<path d="M46.9547 49.549C46.9565 50.3084 46.735 51.0512 46.3183 51.6837C45.9016 52.3162 45.3083 52.8099 44.6135 53.1026C43.9186 53.3952 43.1533 53.4736 42.4143 53.3279C41.6752 53.1822 40.9956 52.8188 40.4613 52.2838C39.9269 51.7488 39.5618 51.0661 39.412 50.3219C39.2623 49.5777 39.3346 48.8055 39.6199 48.1027C39.9052 47.4 40.3907 46.7983 41.0149 46.3736C41.6392 45.949 42.3743 45.7204 43.1273 45.7168C44.1363 45.7215 45.103 46.1259 45.819 46.8428C46.535 47.5597 46.9429 48.5317 46.9547 49.549ZM45.1935 49.5611C45.1941 49.0125 44.9799 48.4859 44.5975 48.0958C44.215 47.7056 43.6953 47.4835 43.1513 47.4776C42.8821 47.4753 42.615 47.5265 42.3654 47.6282C42.1158 47.73 41.8885 47.8803 41.6965 48.0707C41.5045 48.261 41.3515 48.4876 41.2464 48.7375C41.1412 48.9875 41.0859 49.2558 41.0836 49.5273C41.0813 49.7988 41.1321 50.0681 41.233 50.3198C41.3339 50.5715 41.483 50.8007 41.6717 50.9943C41.8605 51.188 42.0852 51.3422 42.3331 51.4482C42.5809 51.5543 42.8471 51.61 43.1163 51.6123C43.6614 51.618 44.1865 51.4052 44.5761 51.0208C44.9658 50.6364 45.1882 50.1118 45.1945 49.5621L45.1935 49.5611Z" fill="#47BBC6"/>
<path d="M46.215 36.9541C46.2109 36.5839 46.2794 36.2165 46.4166 35.8731C46.5538 35.5297 46.757 35.2169 47.0144 34.9529C47.2719 34.6889 47.5785 34.4788 47.9167 34.3347C48.255 34.1906 48.6181 34.1154 48.9853 34.1133C49.7248 34.1133 50.434 34.4095 50.9569 34.9368C51.4798 35.4641 51.7736 36.1792 51.7736 36.9249C51.7736 37.6706 51.4798 38.3857 50.9569 38.913C50.434 39.4403 49.7248 39.7365 48.9853 39.7365C48.2532 39.7339 47.5518 39.4402 47.0332 38.9193C46.5145 38.3984 46.2205 37.6923 46.215 36.9541ZM50.0064 36.9067C49.9939 36.6397 49.8816 36.3874 49.6922 36.2003C49.5028 36.0132 49.2503 35.9053 48.9853 35.8983C48.8489 35.9009 48.7145 35.9311 48.5899 35.9871C48.4653 36.043 48.3531 36.1236 48.2598 36.224C48.1666 36.3244 48.0943 36.4426 48.0471 36.5716C47.9999 36.7007 47.9789 36.8379 47.9852 36.9753C47.9948 37.2421 48.109 37.4942 48.3027 37.6762C48.4964 37.8583 48.7537 37.9555 49.0183 37.9465C49.2827 37.9307 49.5313 37.8149 49.7146 37.6221C49.8978 37.4293 50.0021 37.1737 50.0064 36.9067Z" fill="#47BBC6"/>
<path d="M47.7266 40.8258C48.059 40.8226 48.3888 40.8862 48.6965 41.013C49.0042 41.1398 49.2837 41.3271 49.5188 41.5641C49.7538 41.8011 49.9396 42.083 50.0653 42.3933C50.191 42.7036 50.2542 43.036 50.2509 43.3712C50.2491 44.0507 49.9797 44.7017 49.5021 45.1811C49.0244 45.6605 48.3776 45.929 47.7037 45.9277C47.0402 45.9122 46.4082 45.6386 45.94 45.1643C45.4718 44.6899 45.2036 44.0514 45.1914 43.3823C45.191 43.0464 45.2563 42.7139 45.3836 42.4035C45.5108 42.0932 45.6976 41.8112 45.9331 41.5737C46.1686 41.3362 46.4483 41.1479 46.756 41.0196C47.0638 40.8913 47.3936 40.8254 47.7266 40.8258ZM47.8087 42.6017C47.702 42.5912 47.5943 42.6032 47.4925 42.6371C47.3908 42.6709 47.2971 42.7258 47.2176 42.7982C47.138 42.8706 47.0744 42.959 47.0306 43.0577C46.9869 43.1563 46.964 43.2631 46.9636 43.3712C46.9651 43.5716 47.0448 43.7633 47.1853 43.905C47.3258 44.0467 47.516 44.127 47.7147 44.1286C47.8169 44.1323 47.9188 44.1146 48.0139 44.0765C48.109 44.0384 48.1951 43.9808 48.2669 43.9073C48.3387 43.8337 48.3945 43.746 48.4308 43.6495C48.4671 43.5531 48.4831 43.45 48.4778 43.347C48.4838 43.2535 48.4712 43.1597 48.4407 43.0713C48.4102 42.9828 48.3624 42.9013 48.3001 42.8318C48.2378 42.7623 48.1622 42.7062 48.078 42.6666C47.9938 42.6271 47.9015 42.605 47.8087 42.6017Z" fill="#47BBC6"/>
<path d="M33.8867 46.3419C33.8851 45.7328 34.1235 45.1482 34.5495 44.7164C34.9754 44.2846 35.554 44.0412 36.158 44.0396C36.7619 44.038 37.3417 44.2783 37.7699 44.7078C38.1981 45.1373 38.4396 45.7208 38.4412 46.3298C38.442 46.6313 38.3839 46.9301 38.2701 47.209C38.1564 47.4879 37.9894 47.7415 37.7785 47.9553C37.3525 48.387 36.7739 48.6305 36.1699 48.6321C35.8709 48.6329 35.5746 48.5743 35.298 48.4596C35.0214 48.345 34.77 48.1765 34.5579 47.9638C34.1297 47.5343 33.8883 46.9509 33.8867 46.3419ZM36.887 46.3187C36.523 46.0938 36.287 45.8336 36.124 45.8689C36.0116 45.9149 35.9128 45.9891 35.8368 46.0844C35.7609 46.1797 35.7103 46.293 35.6899 46.4135C35.6779 46.5557 35.9949 46.8511 36.1599 46.8511C36.364 46.8279 36.552 46.5789 36.887 46.3187Z" fill="#47BBC6"/>
<path d="M49.3187 49.207C49.172 49.2112 49.0269 49.1765 48.8977 49.1063C48.7685 49.0362 48.6599 48.933 48.5827 48.8072C48.5054 48.6815 48.4622 48.5374 48.4575 48.3895C48.4527 48.2417 48.4866 48.0951 48.5556 47.9646C48.8108 47.5728 49.1473 47.2415 49.5417 46.9935C49.6698 46.9285 49.8123 46.8981 49.9555 46.9053C50.0986 46.9126 50.2375 46.9571 50.3584 47.0347C50.4794 47.1122 50.5783 47.2201 50.6455 47.3477C50.7127 47.4754 50.7459 47.6185 50.7419 47.7629C50.6593 48.1123 50.4827 48.4319 50.2316 48.6867C49.9806 48.9415 49.6647 49.1215 49.3187 49.207Z" fill="#47BBC6"/>
</svg>
