<svg width="60" height="61" viewBox="0 0 60 61" fill="none" xmlns="http://www.w3.org/2000/svg">
<path d="M26.5327 60.0042C26.2266 59.8782 25.9023 59.7732 25.6024 59.6272C24.8952 59.2474 24.3668 58.6125 24.1293 57.8571C23.8918 57.1018 23.9639 56.2854 24.3303 55.5813C24.5231 55.2043 24.7577 54.8373 24.9821 54.4703C23.6458 54.0823 22.3299 53.7473 21.0364 53.3173C18.7415 52.5304 16.5764 51.4187 14.6098 50.0174C13.9793 49.5664 13.8824 48.9064 14.3955 48.5074C14.8556 48.1404 15.2728 48.3184 15.7003 48.6224C17.7023 50.0466 19.9221 51.1506 22.2768 51.8933C23.3357 52.2283 24.4262 52.4493 25.5065 52.7213C25.6614 52.7789 25.8329 52.7763 25.9859 52.714C26.1389 52.6517 26.2619 52.5345 26.3297 52.3864C29.8157 46.7678 33.3089 41.1562 36.8092 35.5517C36.9302 35.377 37.004 35.175 37.0234 34.9647C36.9377 33.0357 36.8632 31.1068 36.7031 29.1788C36.5244 27.4262 36.009 25.7226 35.1841 24.1579C35.0985 23.9799 34.9914 23.8119 34.9169 23.6339C34.8107 23.4318 34.7892 23.197 34.857 22.9795C34.9248 22.7621 35.0767 22.5792 35.28 22.4699C35.3841 22.4093 35.5001 22.3708 35.6204 22.3571C35.7406 22.3433 35.8625 22.3546 35.9781 22.3902C36.0936 22.4258 36.2002 22.4849 36.2908 22.5636C36.3815 22.6423 36.4542 22.7388 36.5042 22.8469C37.0387 24.0469 37.509 25.2579 38.0017 26.4639C38.0659 26.6209 38.1037 26.7779 38.1832 27.0088C39.7567 25.5474 40.791 23.6155 41.1242 21.516C41.3721 20.0665 41.2509 18.5795 40.7712 17.187C40.7331 17.0921 40.6725 17.0075 40.5945 16.94C40.5165 16.8726 40.4232 16.8243 40.3224 16.799C37.2743 16.778 34.2273 16.778 31.0293 16.778C31.3822 17.051 31.6413 17.239 31.8739 17.449C32.4941 17.994 33.1246 18.539 33.7244 19.105C33.8339 19.1811 33.9252 19.2797 33.992 19.3939C34.0588 19.5081 34.0994 19.6351 34.111 19.7662C34.1226 19.8973 34.1051 20.0293 34.0594 20.1531C34.0138 20.2769 33.9412 20.3894 33.8468 20.483C33.4296 20.871 32.9481 20.818 32.435 20.315C29.9637 17.7838 26.7146 16.1158 23.1847 15.5661C22.3503 15.4301 21.4954 15.3981 20.6079 15.3041V20.409C22.7757 21.1353 24.7442 22.3403 26.3613 23.9309C27.5656 24.8174 29.0487 25.2625 30.5529 25.1889C30.9273 25.2099 31.3118 25.1789 31.6862 25.1679C32.3493 25.1369 32.7665 25.4199 32.8308 25.9329C32.8951 26.4459 32.5105 26.8659 31.826 26.9079C31.1741 26.9499 30.5111 26.9178 29.8582 26.8978C29.5695 26.8878 29.2808 26.8558 28.885 26.8138C29.1635 27.2438 29.388 27.5788 29.5991 27.9138C30.5054 29.2701 31.1842 30.76 31.6097 32.3267C31.6994 32.5986 31.6842 32.8932 31.5669 33.1547C31.3644 33.4026 31.072 33.5642 30.7508 33.6057C30.302 33.6477 30.0449 33.3117 29.9164 32.9057C28.8076 29.3514 26.6085 26.2183 23.6183 23.9329C22.6896 23.1473 21.6098 22.552 20.4427 22.1819C20.3784 22.4439 20.3142 22.6639 20.2611 22.8949C19.7449 24.8466 18.496 26.5351 16.7642 27.6228C16.294 27.9478 15.791 28.2408 15.3422 28.5978C15.2652 28.6685 15.2052 28.755 15.1664 28.8511C15.1276 28.9473 15.111 29.0506 15.1178 29.1538C15.329 30.4981 15.8171 31.7861 16.5524 32.9395C17.2878 34.0929 18.255 35.0875 19.395 35.8627C20.3468 36.5017 21.2129 37.2566 22.1116 37.9696C23.0173 38.7726 24.1209 39.3302 25.3135 39.5877C26.5061 39.8451 27.7466 39.7934 28.9126 39.4376C29.0308 39.384 29.1595 39.3562 29.2898 39.3564C29.42 39.3565 29.5487 39.3845 29.6668 39.4384C29.7849 39.4923 29.8896 39.5707 29.9736 39.6684C30.0575 39.766 30.1188 39.8804 30.153 40.0036C30.1848 40.1221 30.1916 40.2458 30.1729 40.3669C30.1542 40.4881 30.1105 40.6042 30.0444 40.7083C29.9783 40.8123 29.8912 40.902 29.7885 40.9718C29.6858 41.0417 29.5696 41.0903 29.4471 41.1146C28.2133 41.5094 26.9034 41.6206 25.6187 41.4396C25.383 41.4086 25.1484 41.3666 24.8913 41.3396C25.3514 42.3145 25.8003 43.2475 26.2389 44.1805C26.3198 44.3369 26.3808 44.5025 26.4205 44.6735C26.48 44.8756 26.4577 45.0924 26.3581 45.2787C26.2585 45.4651 26.0894 45.6065 25.8859 45.6735C25.7855 45.7212 25.676 45.7482 25.5645 45.7528C25.4529 45.7574 25.3416 45.7395 25.2374 45.7002C25.1331 45.661 25.0382 45.6011 24.9585 45.5245C24.8788 45.4478 24.816 45.3559 24.774 45.2545C24.5384 44.8035 24.3568 44.3215 24.1538 43.8605C23.1244 41.5376 21.4817 39.5259 19.395 38.0326C18.8493 37.6446 18.3148 37.2466 17.7486 36.8266C17.6201 37.6336 17.5446 38.4096 17.3528 39.1536C17.1692 39.8314 16.9223 40.4912 16.6153 41.1246C16.5755 41.2419 16.51 41.3493 16.4235 41.4393C16.337 41.5293 16.2314 41.5997 16.1143 41.6456C15.9972 41.6915 15.8712 41.7117 15.7453 41.705C15.6193 41.6983 15.4964 41.6647 15.385 41.6066C15.2727 41.5531 15.1731 41.4771 15.0928 41.3834C15.0125 41.2896 14.9533 41.1804 14.9191 41.0627C14.8848 40.945 14.8762 40.8215 14.8939 40.7004C14.9117 40.5792 14.9553 40.4631 15.0219 40.3596C15.5985 39.2712 15.877 38.0546 15.8301 36.8291C15.7833 35.6035 15.4127 34.4108 14.7546 33.3677C14.2 32.2516 13.7249 31.0992 13.3326 29.9188C12.9797 30.1708 12.5736 30.4428 12.188 30.7368C10.1926 32.2019 8.42409 33.9426 6.9376 35.9047C6.86569 36.0196 6.81824 36.1476 6.79808 36.2809C6.77792 36.4143 6.78547 36.5502 6.82028 36.6807C7.88143 39.9889 9.69522 43.0177 12.1248 45.5385C12.7664 46.2095 12.8521 46.6815 12.4247 47.1004C11.9646 47.5404 11.473 47.4354 10.8099 46.7444C8.14492 43.9058 6.14173 40.5329 4.93922 36.8597C4.38327 35.2247 3.5172 33.6837 2.79701 32.1007C1.99051 30.5369 1.27297 28.9305 0.647663 27.2888C-0.0827198 25.2268 -0.198016 23.0033 0.315308 20.8793C0.828633 18.7552 1.94928 16.8188 3.54576 15.2971C3.67667 15.17 3.7794 15.0179 3.84751 14.8501C3.91562 14.6823 3.94764 14.5026 3.94156 14.3221C3.93136 10.9992 3.93136 7.68623 3.93136 4.3633C3.92431 3.26578 4.34764 2.20755 5.11387 1.4073C5.88011 0.607046 6.93068 0.125934 8.04848 0.0633859C9.14106 -0.105355 10.2591 0.116091 11.1992 0.68742C12.1392 1.25875 12.8387 2.14197 13.1704 3.17632C13.3136 4.08116 13.371 4.99706 13.3418 5.91227C13.3632 6.35226 13.3418 6.79325 13.3418 7.33824C14.0048 6.51025 14.5822 5.77627 15.178 5.06329C15.4738 4.71908 15.7954 4.39686 16.1399 4.0993C16.2208 4.00577 16.3209 3.92994 16.4336 3.87672C16.5463 3.82349 16.6692 3.79406 16.7942 3.79033C16.9193 3.7866 17.0437 3.80865 17.1595 3.85505C17.2753 3.90145 17.3799 3.97118 17.4665 4.05971C17.5531 4.14823 17.6197 4.25359 17.6621 4.36897C17.7045 4.48435 17.7218 4.60718 17.7127 4.72949C17.7036 4.85181 17.6684 4.97089 17.6094 5.07903C17.5504 5.18718 17.4689 5.28196 17.3702 5.35727C16.2021 6.4241 15.2291 7.67925 14.4935 9.06821C14.2262 9.5822 14.0018 10.1272 13.7233 10.7242C14.7424 10.81 15.7332 11.0977 16.6356 11.5696C17.5381 12.0416 18.3335 12.6882 18.9738 13.4701C19.0482 13.2701 19.1023 13.1451 19.1451 13.0091C19.6465 11.3962 20.6676 9.98593 22.0553 8.98971C23.4431 7.99348 25.1228 7.46493 26.8428 7.48324C30.1255 7.46224 33.4194 7.48324 36.7021 7.48324H37.4294C37.408 7.25224 37.3978 7.06424 37.3651 6.88324C37.0351 5.45078 36.2226 4.16904 35.0585 3.2447C33.8944 2.32037 32.4466 1.80734 30.9487 1.78835C28.7045 1.78835 26.447 1.83035 24.216 2.04034C23.1026 2.23371 22.0179 2.56118 20.9864 3.01532C20.2805 3.25632 19.799 3.17232 19.5644 2.65933C19.3298 2.14635 19.5746 1.71635 20.2703 1.40136C22.2236 0.49884 24.356 0.0300317 26.5153 0.0283829C28.3662 -0.0330876 30.2191 0.00530848 32.0657 0.143386C33.8466 0.376068 35.5033 1.16577 36.7898 2.39516C38.0763 3.62454 38.9238 5.22799 39.2064 6.96724C39.2809 7.39723 39.4308 7.50223 39.8582 7.50223C42.4462 7.51223 43.8999 8.45621 44.5844 10.5322C44.951 11.5745 44.95 12.7073 44.5815 13.749C44.2131 14.7907 43.4985 15.681 42.5523 16.2771C42.5207 16.2981 42.4993 16.3291 42.5421 16.2871C42.7717 17.4335 42.9325 18.5921 43.0236 19.757C43.0895 21.4513 42.7574 23.1377 42.0529 24.6862C41.3485 26.2347 40.2904 27.6038 38.9606 28.6878C38.819 28.7868 38.7087 28.9229 38.6425 29.0805C38.5763 29.2381 38.5568 29.4108 38.5862 29.5788C38.6719 30.3128 38.6505 31.0568 38.6719 31.8007C38.6821 31.9897 38.7035 32.1678 38.7249 32.5137C38.982 32.1258 39.1421 31.8638 39.3135 31.6018C39.5829 31.1298 39.9763 30.7371 40.4527 30.4645C40.9292 30.1919 41.4714 30.0493 42.0231 30.0514C42.5748 30.0535 43.1158 30.2004 43.5901 30.4767C44.0643 30.753 44.4545 31.1487 44.72 31.6228C46.9867 35.2227 49.233 38.8456 51.4894 42.4515C51.8526 43.0285 51.7679 43.5515 51.2966 43.8355C50.8253 44.1195 50.3347 43.9615 49.9603 43.3635C47.7256 39.7889 45.4906 36.211 43.2552 32.6297C42.7951 31.8858 42.1004 31.5918 41.469 31.9488C41.1373 32.1587 40.8651 32.4472 40.6774 32.7877C36.529 39.4229 32.3836 46.0618 28.2413 52.7043C27.5354 53.8363 26.8407 54.9683 26.1236 56.1043C25.9534 56.3112 25.8502 56.5634 25.8273 56.8283C25.8044 57.0933 25.8628 57.3588 25.9951 57.591C26.1273 57.8231 26.3274 58.0111 26.5695 58.1309C26.8117 58.2507 27.0848 58.2968 27.3539 58.2632C37.1169 58.2526 46.8759 58.2526 56.6307 58.2632C56.8987 58.2954 57.1705 58.2525 57.4146 58.1394C57.6587 58.0263 57.8651 57.8477 58.0099 57.6242C58.149 57.3871 58.2122 57.1144 58.1913 56.8416C58.1704 56.5688 58.0663 56.3084 57.8926 56.0943C56.1064 53.2533 54.3426 50.4024 52.5677 47.5614C52.445 47.3842 52.3423 47.1945 52.2616 46.9955C52.1812 46.8132 52.1728 46.6082 52.2381 46.4203C52.3033 46.2323 52.4375 46.0748 52.6146 45.9785C52.7876 45.8559 53.0022 45.8038 53.2135 45.8331C53.4249 45.8623 53.6164 45.9707 53.7479 46.1355C53.9016 46.3126 54.0344 46.5061 54.1437 46.7125C55.8116 49.3964 57.408 52.1213 59.1912 54.7313C60.6673 56.8802 60.0073 59.2492 57.5233 60.0142C47.1713 60.0042 36.8411 60.0009 26.5327 60.0042ZM5.85119 34.2907C6.01134 34.1227 6.12967 34.0077 6.23576 33.8717C7.99212 31.7671 10.0543 29.9268 12.3564 28.4098C13.607 27.5708 14.8801 26.7638 16.0991 25.9049C16.8261 25.4339 17.434 24.8068 17.8768 24.0711C18.3195 23.3354 18.5855 22.5105 18.6545 21.6589C18.7503 20.412 18.7565 19.164 18.7503 17.917C18.7546 17.0053 18.524 16.1073 18.0799 15.3063C17.6358 14.5052 16.9925 13.8271 16.2097 13.3347C15.4269 12.8423 14.53 12.5517 13.6021 12.4897C12.6742 12.4277 11.7454 12.5964 10.9017 12.9801C9.7041 13.5041 8.51671 14.0601 7.35176 14.6571C5.02526 15.8326 3.24718 17.838 2.38371 20.2601C1.52024 22.6822 1.63713 25.3367 2.7103 27.6768C3.65083 29.7838 4.66685 31.8598 5.65125 33.9457C5.71246 34.0597 5.77672 34.1547 5.85119 34.2907ZM37.3437 15.0031C36.7862 14.1498 36.4873 13.1589 36.4817 12.1456C36.4761 11.1324 36.764 10.1384 37.3121 9.27921C33.4836 9.27921 29.7409 9.14321 26.0094 9.33121C23.5387 9.4572 21.882 10.9982 20.9619 13.2521C20.9357 13.3481 20.9213 13.4468 20.9191 13.5461C21.0211 13.5671 21.1007 13.5881 21.1649 13.5981C23.315 13.6711 25.4355 14.111 27.4314 14.8981C27.6767 14.9737 27.9334 15.0075 28.1903 14.9981C31.013 15.0081 33.8468 14.9981 36.6704 14.9981L37.3437 15.0031ZM5.77672 7.38323V13.4001C7.62718 12.5931 9.4552 11.8001 11.2853 10.9892C11.3873 10.9372 11.5423 10.8212 11.5423 10.7272C11.5637 9.6272 11.5525 8.52722 11.5525 7.34124C10.6929 7.88433 9.69349 8.17664 8.67084 8.18407C7.64819 8.19151 6.64446 7.91376 5.77672 7.38323ZM43.043 12.4991C43.11 11.5584 42.7992 10.6293 42.1769 9.91019C41.9944 9.70999 41.7725 9.54805 41.5245 9.43414C41.2765 9.32023 41.0075 9.25669 40.7338 9.24735C40.4601 9.238 40.1873 9.28305 39.9318 9.37977C39.6763 9.4765 39.4435 9.62291 39.2472 9.81019C38.6324 10.4284 38.291 11.2592 38.2969 12.1225C38.3028 12.9858 38.6556 13.8121 39.2788 14.4221C39.4942 14.6411 39.7589 14.8076 40.0519 14.908C40.3448 15.0084 40.6577 15.0399 40.9653 15.0001C41.273 14.9604 41.5668 14.8503 41.8231 14.6789C42.0794 14.5074 42.2911 14.2794 42.4411 14.0131C42.6911 13.5274 42.8943 13.0199 43.0481 12.4971L43.043 12.4991ZM8.56363 1.66035C7.95882 1.82024 7.37149 2.03795 6.81008 2.31034C6.48225 2.48325 6.20764 2.73908 6.01482 3.05125C5.822 3.36341 5.71799 3.72052 5.71361 4.08542C5.70924 4.45033 5.80466 4.80972 5.98995 5.12624C6.17524 5.44276 6.44364 5.70485 6.76724 5.88526C7.34526 6.25305 8.02321 6.44089 8.71211 6.42411C9.401 6.40734 10.0686 6.18674 10.6273 5.79127C10.9007 5.60891 11.1258 5.36516 11.2836 5.0803C11.4415 4.79544 11.5277 4.47772 11.535 4.15361C11.5423 3.82949 11.4705 3.50836 11.3255 3.21696C11.1806 2.92556 10.9667 2.67233 10.7018 2.47834C10.083 2.01472 9.34401 1.73062 8.56873 1.65836L8.56363 1.66035Z" fill="#47BBC6"/>
<path d="M44.4766 43.8817C44.4766 45.0347 44.4868 46.1876 44.4766 47.3306C44.4866 47.6481 44.4326 47.9644 44.3175 48.2614C44.2024 48.5583 44.0285 48.83 43.8059 49.0608C43.5833 49.2917 43.3164 49.4771 43.0204 49.6065C42.7245 49.7358 42.4053 49.8065 42.0814 49.8145C41.7513 49.8352 41.4204 49.7897 41.1089 49.6808C40.7974 49.5719 40.5118 49.4018 40.2695 49.181C40.0273 48.9603 39.8336 48.6934 39.7001 48.3967C39.5667 48.1 39.4964 47.7798 39.4934 47.4556C39.4397 45.0557 39.4397 42.6557 39.4934 40.2557C39.5069 39.608 39.7824 38.992 40.2592 38.5433C40.4953 38.3212 40.7738 38.1468 41.0786 38.0301C41.3835 37.9134 41.7088 37.8567 42.036 37.8633C42.3632 37.8699 42.6859 37.9395 42.9856 38.0683C43.2853 38.1972 43.5563 38.3826 43.7829 38.614C44.0095 38.8455 44.1874 39.1184 44.3065 39.4173C44.4255 39.7161 44.4833 40.035 44.4766 40.3557C44.4878 41.5347 44.4766 42.7087 44.4766 43.8817ZM42.6904 43.9027V40.5687C42.6904 39.9507 42.4231 39.5937 41.9631 39.6467C41.4173 39.6987 41.2684 40.0767 41.2684 40.5687V47.1816C41.2684 47.6636 41.4071 48.0416 41.9824 48.0726C42.4425 48.0936 42.6884 47.7896 42.6884 47.1916L42.6904 43.9027Z" fill="#47BBC6"/>
<path d="M42.0072 56.3874C41.6736 56.3926 41.3422 56.3334 41.032 56.2129C40.7218 56.0924 40.4389 55.913 40.1995 55.6852C39.9601 55.4573 39.769 55.1854 39.637 54.8849C39.5051 54.5845 39.4349 54.2615 39.4305 53.9344C39.4221 53.6014 39.4812 53.2702 39.6043 52.9598C39.7275 52.6494 39.9123 52.366 40.148 52.1261C40.3837 51.8863 40.6656 51.6947 40.9774 51.5624C41.2892 51.4301 41.6247 51.3597 41.9644 51.3555C42.6488 51.3586 43.3046 51.625 43.7906 52.0975C44.2765 52.5699 44.5538 53.2106 44.5626 53.8814C44.5573 54.5443 44.2864 55.1785 43.8083 55.6473C43.3303 56.1161 42.6834 56.3819 42.0072 56.3874ZM41.9542 54.6264C42.0547 54.6271 42.1543 54.6083 42.2474 54.5712C42.3405 54.5341 42.4252 54.4795 42.4967 54.4103C42.5682 54.3411 42.6251 54.2588 42.6642 54.168C42.7033 54.0773 42.7237 53.9799 42.7244 53.8814C42.725 53.7829 42.7059 53.6853 42.6681 53.594C42.6303 53.5028 42.5745 53.4197 42.5039 53.3496C42.4333 53.2795 42.3494 53.2237 42.2568 53.1854C42.1642 53.1472 42.0649 53.1271 41.9644 53.1264C41.7615 53.1251 41.5664 53.2028 41.4219 53.3426C41.2775 53.4823 41.1956 53.6725 41.1942 53.8714C41.1929 54.0703 41.2722 54.2616 41.4147 54.4032C41.5572 54.5448 41.7513 54.6251 41.9542 54.6264Z" fill="#47BBC6"/>
</svg>
