<svg width="62" height="61" viewBox="0 0 62 61" fill="none" xmlns="http://www.w3.org/2000/svg">
<path d="M59.9339 12.1031C59.8356 12.6324 59.7501 13.1711 59.6341 13.7004C59.2316 15.5972 58.4113 17.393 57.2262 18.9717C56.0412 20.5503 54.5179 21.8766 52.755 22.8645C50.7095 23.9941 48.9989 25.5918 47.7813 27.5101C47.2284 28.3578 46.7928 29.2688 46.4851 30.2209C46.2197 31.2261 45.664 32.1423 44.8799 32.8676C44.0958 33.5928 43.1138 34.0989 42.0432 34.3294C40.9726 34.5599 39.8552 34.5059 38.8151 34.1734C37.7751 33.8409 36.8531 33.2429 36.1516 32.4459C36.0911 32.5053 36.0362 32.5695 35.9875 32.6378C35.639 33.296 35.1508 33.8796 34.5532 34.3523C33.9556 34.825 33.2613 35.1767 32.5135 35.3856C29.6488 36.1991 26.9887 37.5519 24.6937 39.3623C22.3988 41.1728 20.5166 43.4032 19.161 45.919C18.8416 46.4938 18.5124 47.0695 18.1645 47.6258C17.6159 48.5258 16.7686 49.2304 15.7533 49.6309C14.738 50.0315 13.6112 50.1056 12.5468 49.842C11.4823 49.5783 10.5395 48.9915 9.86377 48.1721C9.18803 47.3527 8.81697 46.3462 8.80784 45.3081C8.79801 44.6239 8.75969 43.9295 8.81767 43.2454C8.86582 42.7067 8.68205 42.4787 8.12091 42.296C5.97321 41.6009 4.12023 40.2712 2.83684 38.5042C1.55345 36.7372 0.908011 34.627 0.996264 32.4866C1.08452 30.3462 1.90177 28.2897 3.32678 26.6221C4.75179 24.9545 6.70864 23.7646 8.9071 23.2289C9.06249 23.2043 9.20547 23.1334 9.31511 23.0267C9.42474 22.9199 9.49528 22.7829 9.5164 22.6356C10.6154 18.6249 12.9587 15.015 16.2461 12.2685C19.5334 9.52195 23.6152 7.76379 27.9683 7.21924C29.1438 7.05997 30.3326 7.00503 31.519 7.05515C33.2319 7.15527 34.2569 7.82183 35.7447 9.47388C35.7831 9.46461 35.8322 9.46461 35.843 9.44607C36.4424 8.64389 37.2476 7.99826 38.1835 7.56957C39.1193 7.14088 40.1551 6.94315 41.194 6.99488C44.842 7.03104 48.48 7.00415 52.127 7.00415C52.298 6.99802 52.4693 7.00112 52.64 7.01343C52.8545 7.02376 53.0567 7.11063 53.2058 7.25644C53.3549 7.40226 53.4397 7.59609 53.4429 7.79866C53.4494 8.01022 53.3681 8.2158 53.2163 8.37165C53.0645 8.52749 52.8542 8.62127 52.6302 8.63302C52.4595 8.64516 52.2882 8.64825 52.1172 8.64229H41.0122C40.4202 8.60527 39.8265 8.68803 39.2711 8.88501C38.7157 9.08199 38.2114 9.38865 37.7918 9.78445C37.3722 10.1803 37.0471 10.6561 36.8383 11.18C36.6295 11.704 36.5418 12.2639 36.581 12.8225C36.581 18.18 36.5712 23.5385 36.5909 28.8961C36.5569 29.6639 36.7745 30.4229 37.2141 31.0699C37.6537 31.7168 38.294 32.2203 39.0477 32.5117C39.7585 32.8502 40.5635 32.9715 41.3507 32.8587C42.1379 32.7459 42.8684 32.4046 43.4406 31.8822C43.9927 31.4116 44.4118 30.8186 44.6601 30.1569C45.8735 26.4715 48.5021 23.3465 52.0307 21.3942C53.5507 20.5348 54.8624 19.3839 55.8808 18.0159C56.8993 16.6479 57.6018 15.0933 57.9428 13.4529C58.1106 12.656 58.2014 11.8465 58.2141 11.0341C58.2547 10.4656 58.061 9.90417 57.6733 9.46713C57.2857 9.03009 56.7341 8.75118 56.1336 8.68865C56.0011 8.68756 55.8702 8.66013 55.7496 8.60814C55.629 8.55615 55.5214 8.48077 55.4338 8.38691C55.3462 8.29305 55.2805 8.18283 55.2411 8.06342C55.2016 7.94401 55.1893 7.8181 55.2049 7.6939C55.3209 7.18308 55.7661 6.95223 56.4628 7.08202C57.2549 7.20211 57.9933 7.53575 58.5889 8.04271C59.1845 8.54967 59.612 9.20831 59.8199 9.93927C59.8582 10.0579 59.9182 10.1673 59.9555 10.2767C59.9339 10.871 59.9339 11.4828 59.9339 12.1031ZM11.247 22.8191C12.0401 22.9016 12.7948 22.9563 13.5496 23.075C14.8007 23.2753 15.9976 23.7066 17.0717 24.3442C17.1754 24.3936 17.2673 24.4626 17.3416 24.5469C17.416 24.6313 17.4711 24.7291 17.5038 24.8343C17.5364 24.9396 17.5457 25.05 17.5312 25.1588C17.5168 25.2676 17.4788 25.3725 17.4196 25.4669C17.2997 25.6539 17.1062 25.7886 16.8814 25.8415C16.6566 25.8945 16.4187 25.8614 16.2197 25.7496C16.1165 25.7003 16.0164 25.6455 15.9199 25.5855C14.503 24.7992 12.8756 24.4155 11.2332 24.4803C9.59069 24.545 8.00295 25.0557 6.66056 25.9508C5.24656 26.7844 4.1272 27.9957 3.44475 29.4309C2.7623 30.866 2.54758 32.4602 2.82787 34.0108C2.99196 35.1492 3.40374 36.2433 4.03737 37.2244C4.671 38.2056 5.51281 39.0526 6.50993 39.7122C7.50705 40.3719 8.63796 40.8299 9.83166 41.0577C11.0254 41.2854 12.2561 41.2779 13.4466 41.0356C14.637 40.7933 15.7616 40.3215 16.7495 39.6497C17.7375 38.9779 18.5676 38.1207 19.1878 37.1319C19.8079 36.1431 20.2046 35.0441 20.353 33.9037C20.5015 32.7634 20.3985 31.6065 20.0504 30.5055C19.6498 29.5337 19.1475 28.602 18.5507 27.7243C18.3375 27.3534 18.251 26.9576 18.6087 26.6924C18.9012 26.5245 19.247 26.4589 19.5855 26.507C19.7821 26.5256 19.9629 26.7898 20.1084 26.9817C21.1467 28.3228 21.8135 29.8874 22.0482 31.5333C22.2829 33.1793 22.0781 34.8544 21.4525 36.4067C20.8268 37.9591 19.8001 39.3394 18.4654 40.4224C17.1308 41.5055 15.5306 42.2569 13.81 42.6085C12.7232 42.7708 11.6283 42.8803 10.5296 42.9366C10.5296 43.7033 10.5198 44.5127 10.5296 45.3192C10.5389 45.9845 10.7756 46.6291 11.2046 47.1572C11.6335 47.6853 12.2317 48.0686 12.9101 48.2502C13.5886 48.4318 14.3111 48.4019 14.9701 48.1649C15.629 47.928 16.1893 47.4966 16.5676 46.9351C17.0127 46.2593 17.3999 45.5445 17.8058 44.8538C18.828 43.0478 20.1004 41.378 21.5893 39.8884C24.4442 37.0536 28.0271 34.9628 31.9907 33.8189C32.8448 33.6057 33.5953 33.1222 34.1166 32.4493C34.638 31.7764 34.8984 30.955 34.8544 30.1226C34.8544 24.2264 34.8544 18.3268 34.8544 12.4238C34.8782 11.9143 34.7885 11.4058 34.591 10.931C34.3935 10.4562 34.0926 10.0259 33.7078 9.66764C33.323 9.30942 32.8628 9.03134 32.3569 8.85137C31.8511 8.6714 31.3108 8.59354 30.7711 8.62282C27.6399 8.62872 24.5532 9.32344 21.7565 10.6518C18.9597 11.9801 16.5299 13.9055 14.6601 16.2749C13.0719 18.2202 11.9115 20.4451 11.247 22.8191Z" fill="#47BBC6"/>
<path d="M8.59065 30.4398C9.26002 30.0929 9.83722 29.7993 10.3967 29.4886C10.4644 29.4494 10.523 29.3971 10.5688 29.335C10.6147 29.2728 10.6467 29.202 10.663 29.1272C10.6993 28.7089 10.663 28.2826 10.6816 27.8553C10.7095 27.3132 11.0298 26.9835 11.5064 26.9925C11.622 26.9873 11.7373 27.0075 11.8436 27.0517C11.95 27.0959 12.0447 27.1629 12.1205 27.2476C12.1964 27.3324 12.2515 27.4327 12.2817 27.5411C12.3119 27.6494 12.3165 27.763 12.295 27.8733C12.1665 28.905 12.3685 29.6521 13.5322 29.9511C13.8115 30.0225 14.0275 30.298 14.3021 30.5112C14.7602 30.2619 15.2191 29.9864 15.6986 29.737C15.7923 29.674 15.8987 29.631 16.0107 29.6108C16.1228 29.5905 16.238 29.5935 16.3488 29.6195C16.4596 29.6455 16.5634 29.694 16.6535 29.7617C16.7436 29.8295 16.818 29.915 16.8716 30.0125C16.9266 30.1049 16.9612 30.2074 16.9734 30.3134C16.9855 30.4194 16.9749 30.5267 16.9422 30.6286C16.9095 30.7304 16.8554 30.8246 16.7833 30.9051C16.7112 30.9857 16.6228 31.0509 16.5234 31.0966C16.0654 31.3812 15.5925 31.6305 15.1391 31.888C15.1754 32.2972 15.2396 32.6622 15.2396 33.0262C15.2235 33.3893 15.1868 33.7512 15.1298 34.1103C15.5608 34.3596 16.0188 34.6081 16.4592 34.8664C16.5653 34.9087 16.661 34.9723 16.74 35.0531C16.819 35.1338 16.8796 35.2298 16.9176 35.3348C16.9557 35.4398 16.9704 35.5514 16.9609 35.6624C16.9514 35.7733 16.9178 35.8811 16.8623 35.9785C16.8085 36.0822 16.7314 36.1729 16.6366 36.2437C16.5419 36.3145 16.4319 36.3637 16.3148 36.3877C16.1978 36.4116 16.0766 36.4097 15.9605 36.382C15.8443 36.3544 15.736 36.3017 15.6437 36.2279C15.3134 35.9302 14.8826 35.7596 14.432 35.7482C13.9815 35.7367 13.542 35.8851 13.1962 36.1655C12.8798 36.2917 12.6177 36.5197 12.4541 36.8112C12.2905 37.1027 12.2353 37.44 12.2978 37.7663C12.3131 37.9234 12.31 38.0815 12.2885 38.2379C12.2814 38.4409 12.1933 38.6333 12.0427 38.7745C11.8922 38.9156 11.6911 38.9945 11.4818 38.9945C11.2725 38.9945 11.0713 38.9156 10.9208 38.7745C10.7703 38.6333 10.6822 38.4409 10.6751 38.2379C10.6472 37.8024 10.6844 37.3571 10.6472 36.9126C10.6397 36.8329 10.6155 36.7555 10.5761 36.6851C10.5367 36.6147 10.483 36.5529 10.4181 36.5034C9.84094 36.1836 9.25443 35.89 8.56645 35.5431C8.24526 35.7237 7.80585 35.9704 7.3655 36.2098C7.27238 36.2823 7.16448 36.3349 7.04892 36.364C6.93336 36.3932 6.81276 36.3983 6.69502 36.379C6.57728 36.3598 6.46508 36.3165 6.36579 36.2521C6.26651 36.1878 6.18237 36.1038 6.11893 36.0056C5.85268 35.5783 6.00907 35.1429 6.55927 34.8312C6.981 34.5909 7.40274 34.3506 7.77792 34.1464V31.8518C7.44835 31.6648 7.00801 31.4245 6.57697 31.1761C6.01839 30.8473 5.84336 30.438 6.10031 30.0017C6.35726 29.5654 6.8153 29.4949 7.37481 29.7885C7.83005 30.0134 8.25178 30.2537 8.59065 30.4398ZM11.5148 30.9376C11.2376 30.9327 10.9621 30.9812 10.7043 31.0802C10.4465 31.1793 10.2115 31.327 10.0129 31.5148C9.8143 31.7026 9.65602 31.9267 9.54725 32.1742C9.43847 32.4217 9.38135 32.6876 9.37918 32.9567C9.37138 33.2298 9.41977 33.5017 9.52152 33.7564C9.62327 34.0111 9.77635 34.2436 9.97179 34.4403C10.1672 34.6369 10.4011 34.7938 10.6598 34.9017C10.9184 35.0096 11.1966 35.0664 11.4782 35.0687C11.7597 35.0711 12.0389 35.0189 12.2994 34.9153C12.5599 34.8118 12.7965 34.6588 12.9954 34.4654C13.1943 34.272 13.3515 34.0421 13.4577 33.7891C13.5639 33.5361 13.6171 33.2651 13.6142 32.9919C13.6159 32.7232 13.5629 32.4567 13.4582 32.2079C13.3535 31.9591 13.1992 31.7328 13.0041 31.542C12.8091 31.3512 12.5771 31.1997 12.3215 31.0961C12.0659 30.9925 11.7918 30.939 11.5148 30.9385V30.9376Z" fill="#47BBC6"/>
<path d="M27.9617 30.9925C27.3688 30.9899 26.7899 30.8114 26.2983 30.4796C25.8067 30.1477 25.4244 29.6774 25.1999 29.1282C24.9753 28.579 24.9185 27.9754 25.0367 27.3939C25.1549 26.8124 25.4427 26.279 25.8637 25.8611C26.2848 25.4433 26.8202 25.1598 27.4023 25.0464C27.9844 24.9331 28.5869 24.9951 29.1338 25.2244C29.6807 25.4538 30.1474 25.8403 30.4748 26.3351C30.8022 26.8299 30.9756 27.4107 30.9732 28.0041C30.9733 28.3987 30.8953 28.7895 30.7437 29.1538C30.5921 29.5181 30.3699 29.8487 30.0899 30.1265C29.8099 30.4044 29.4777 30.624 29.1124 30.7726C28.7471 30.9213 28.356 30.996 27.9617 30.9925ZM29.4289 27.9875C29.4289 27.6971 29.3429 27.4132 29.1817 27.1717C29.0204 26.9302 28.7913 26.742 28.5232 26.6309C28.2551 26.5198 27.9601 26.4907 27.6755 26.5474C27.3909 26.604 27.1295 26.7439 26.9243 26.9492C26.7191 27.1545 26.5794 27.4162 26.5227 27.701C26.4661 27.9858 26.4952 28.2811 26.6062 28.5494C26.7173 28.8177 26.9053 29.047 27.1466 29.2083C27.3879 29.3697 27.6716 29.4558 27.9617 29.4558C28.3505 29.4546 28.723 29.2995 28.9979 29.0244C29.2728 28.7493 29.4277 28.3765 29.4289 27.9875Z" fill="#47BBC6"/>
<path d="M31.9732 15.989C31.9732 16.5825 31.7974 17.1626 31.4679 17.6561C31.1385 18.1496 30.6702 18.5342 30.1223 18.7613C29.5744 18.9884 28.9716 19.0478 28.3899 18.932C27.8083 18.8163 27.2741 18.5305 26.8548 18.1108C26.4354 17.6912 26.1499 17.1565 26.0342 16.5744C25.9185 15.9923 25.9779 15.389 26.2048 14.8407C26.4317 14.2924 26.816 13.8237 27.3091 13.494C27.8022 13.1643 28.3819 12.9883 28.9749 12.9883C29.7696 12.9899 30.5313 13.3066 31.0933 13.869C31.6552 14.4313 31.9716 15.1937 31.9732 15.989ZM28.9661 14.5315C28.5838 14.5429 28.221 14.7035 27.9554 14.979C27.6897 15.2545 27.5423 15.623 27.5446 16.0059C27.5469 16.3887 27.6987 16.7555 27.9676 17.0277C28.2365 17.3 28.6012 17.4563 28.9836 17.4631C29.366 17.4517 29.7288 17.2911 29.9944 17.0156C30.26 16.7401 30.4075 16.3716 30.4052 15.9888C30.4029 15.6059 30.2511 15.2392 29.9822 14.9669C29.7133 14.6946 29.3486 14.5383 28.9661 14.5315Z" fill="#47BBC6"/>
<path d="M19.9744 21.9902C19.3806 21.9893 18.8006 21.812 18.3076 21.4808C17.8147 21.1497 17.4311 20.6795 17.2054 20.1299C16.9798 19.5803 16.9223 18.976 17.0402 18.3936C17.1581 17.8113 17.4461 17.2771 17.8677 16.8587C18.2893 16.4403 18.8255 16.1566 19.4084 16.0436C19.9912 15.9305 20.5945 15.9932 21.1417 16.2237C21.689 16.4541 22.1555 16.842 22.4823 17.3381C22.809 17.8343 22.9812 18.4163 22.9771 19.0105C22.9724 19.8037 22.6538 20.5627 22.091 21.1213C21.5281 21.6798 20.767 21.9923 19.9744 21.9902ZM21.4372 19.0026C21.4407 18.713 21.3582 18.4289 21.2003 18.1863C21.0424 17.9436 20.8162 17.7532 20.5501 17.6393C20.2841 17.5253 19.9903 17.4929 19.7059 17.546C19.4214 17.5992 19.1591 17.7356 18.9522 17.938C18.7452 18.1403 18.6028 18.3996 18.5431 18.6829C18.4833 18.9663 18.5089 19.261 18.6165 19.5298C18.7242 19.7986 18.9091 20.0295 19.1478 20.1931C19.3865 20.3567 19.6684 20.4459 19.9577 20.4492C20.1502 20.4525 20.3414 20.4176 20.5202 20.3465C20.699 20.2754 20.862 20.1694 20.9996 20.0347C21.1373 19.9001 21.2468 19.7395 21.3219 19.5621C21.397 19.3848 21.4362 19.1952 21.4372 19.0026Z" fill="#47BBC6"/>
<path d="M22.4662 24.9913C22.5355 24.9901 22.6044 25.0024 22.6684 25.0274C22.7324 25.0524 22.7902 25.0896 22.838 25.1366C22.8858 25.1836 22.9227 25.2395 22.9463 25.3005C22.9698 25.3616 22.9796 25.4266 22.9749 25.4914C22.9773 25.5565 22.9656 25.6214 22.9405 25.6823C22.9154 25.7431 22.8774 25.7985 22.8288 25.8452C22.7802 25.8919 22.7221 25.929 22.6578 25.9541C22.5936 25.9792 22.5245 25.9919 22.4549 25.9914C22.3226 25.9784 22.2002 25.9196 22.1118 25.8266C22.0233 25.7336 21.9751 25.613 21.9766 25.4885C21.9781 25.364 22.0291 25.2445 22.1198 25.1533C22.2104 25.0622 22.3342 25.006 22.4668 24.9958L22.4662 24.9913Z" fill="#47BBC6"/>
<path d="M32.9713 30.4921C32.974 30.5566 32.9633 30.621 32.9397 30.6814C32.9161 30.7419 32.8803 30.7971 32.8342 30.8438C32.7882 30.8905 32.7329 30.9277 32.6717 30.9532C32.6104 30.9788 32.5445 30.9921 32.4779 30.9924C32.4109 30.9925 32.3446 30.9796 32.2827 30.9546C32.2209 30.9296 32.1649 30.8928 32.1179 30.8466C32.0709 30.8003 32.0339 30.7454 32.009 30.6851C31.9841 30.6248 31.9719 30.5603 31.973 30.4954C31.9704 30.4305 31.9813 30.3657 32.005 30.305C32.0288 30.2442 32.0649 30.1887 32.1112 30.1418C32.1575 30.0948 32.2131 30.0574 32.2747 30.0317C32.3362 30.006 32.4025 29.9926 32.4695 29.9922C32.5366 29.9918 32.603 30.0045 32.6648 30.0295C32.7267 30.0546 32.7827 30.0914 32.8296 30.1378C32.8765 30.1842 32.9132 30.2393 32.9377 30.2998C32.9621 30.3603 32.9738 30.4249 32.9719 30.4899L32.9713 30.4921Z" fill="#47BBC6"/>
<path d="M27.975 21.9903C27.9776 22.1201 27.9535 22.2491 27.904 22.3698C27.8546 22.4905 27.7809 22.6006 27.687 22.6936C27.5932 22.7866 27.4812 22.8608 27.3574 22.9117C27.2337 22.9626 27.1007 22.9894 26.9662 22.9904C26.8314 22.9937 26.6974 22.9697 26.5728 22.92C26.4482 22.8703 26.3357 22.7959 26.2427 22.7017C26.1498 22.6074 26.0783 22.4954 26.0329 22.3729C25.9875 22.2504 25.9692 22.1201 25.9792 21.9903C25.9733 21.8607 25.9948 21.7312 26.0423 21.6098C26.0898 21.4883 26.1624 21.3775 26.2556 21.284C26.3489 21.1904 26.4609 21.1162 26.5848 21.0657C26.7088 21.0152 26.8421 20.9895 26.9766 20.9902C27.1106 20.9912 27.2431 21.0181 27.3663 21.0691C27.4895 21.1202 27.6008 21.1945 27.6938 21.2876C27.7868 21.3808 27.8596 21.4909 27.9079 21.6116C27.9562 21.7323 27.979 21.861 27.975 21.9903Z" fill="#47BBC6"/>
</svg>
