<svg width="60" height="61" viewBox="0 0 60 61" fill="none" xmlns="http://www.w3.org/2000/svg">
<path d="M7.33043 57.238C7.04526 57.1529 6.77539 57.0678 6.49022 56.9827C5.51184 56.6812 4.65621 56.1005 4.041 55.3203C3.42579 54.5401 3.08122 53.5988 3.05465 52.6258C3.02497 48.8509 3.03936 45.076 3.03936 41.3157V24.6368C3.03936 23.6293 3.42978 23.1187 4.19444 23.1468C4.92941 23.1613 5.30454 23.6718 5.30454 24.6368C5.30454 33.7761 5.33422 42.9146 5.27485 52.0377C5.24706 52.4502 5.31273 52.8634 5.46743 53.2499C5.62214 53.6364 5.86232 53.9871 6.17192 54.2787C6.48151 54.5703 6.85338 54.7959 7.26262 54.9406C7.67186 55.0852 8.10903 55.1455 8.54489 55.1174C20.7263 55.0748 32.924 55.1029 45.1054 55.1029C47.2204 55.1029 48.2261 54.0528 48.3611 52.0658C48.4167 51.4557 48.3163 50.8419 48.0683 50.2763C47.8202 49.7106 47.4319 49.2098 46.9361 48.816C42.7359 44.9561 38.6247 41.011 34.4839 37.0796C34.382 36.951 34.2317 36.8644 34.0642 36.838C33.8966 36.8115 33.7248 36.8471 33.5843 36.9375C30.3691 38.3903 26.7139 38.7194 23.2668 37.8663C19.8196 37.0132 16.8031 35.0331 14.752 32.277C12.7009 29.5209 11.7477 26.1668 12.0614 22.8093C12.3751 19.4519 13.9355 16.3079 16.4658 13.9348C18.9962 11.5618 22.3331 10.1128 25.885 9.8449C29.4369 9.57699 32.9744 10.5074 35.8703 12.4712C38.7662 14.435 40.8336 17.3053 41.7058 20.5733C42.578 23.8413 42.1988 27.2959 40.6353 30.3246C40.5658 30.4145 40.5348 30.5258 40.5487 30.6364C40.5625 30.7469 40.6202 30.8484 40.71 30.9203C43.1689 33.2332 45.6194 35.5464 48.0615 37.8599C48.127 37.9169 48.197 37.969 48.2711 38.0156V14.21H42.5703C42.2082 14.2388 41.8439 14.1926 41.5026 14.0745C41.1613 13.9563 40.8514 13.7692 40.5945 13.5262C40.3375 13.2831 40.1397 12.99 40.0149 12.6672C39.89 12.3443 39.8411 11.9997 39.8716 11.6571V4.95922H8.39556C7.97353 4.91416 7.5462 4.95941 7.14516 5.09162C6.74412 5.22384 6.37962 5.43963 6.07862 5.72305C5.77762 6.00647 5.5478 6.35027 5.40619 6.72902C5.26457 7.10777 5.21477 7.51178 5.26046 7.91119V14.6091C5.26533 14.7556 5.23842 14.9015 5.18137 15.0378C5.12432 15.1741 5.03835 15.2979 4.92877 15.4016C4.81919 15.5053 4.68832 15.5866 4.54423 15.6405C4.40014 15.6945 4.24588 15.72 4.09098 15.7154C3.9402 15.7151 3.79112 15.6852 3.65324 15.6275C3.51536 15.5697 3.39171 15.4854 3.29015 15.38C3.1886 15.2746 3.11137 15.1503 3.06338 15.0151C3.0154 14.8799 2.99773 14.7367 3.01147 14.5946C2.99618 12.3668 2.99618 10.139 3.01147 7.89673C2.99851 7.52656 3.02351 7.15608 3.08613 6.79048C3.28782 5.66192 3.91322 4.64009 4.84744 3.91271C5.78166 3.18532 6.96197 2.80122 8.17155 2.83096C14.7278 2.81649 21.2832 2.83096 27.8242 2.83096C32.1152 2.83096 36.4054 2.84543 40.6812 2.81649C40.9505 2.80577 41.2187 2.85547 41.4639 2.96151C41.709 3.06754 41.9241 3.22692 42.0917 3.42663C44.7306 6.34996 47.3811 9.25912 50.0433 12.1541C50.3869 12.5041 50.5702 12.9685 50.5534 13.4458C50.5381 22.1733 50.5534 30.9007 50.5381 39.6282C50.5265 39.8108 50.5582 39.9934 50.6309 40.1629C50.7036 40.3324 50.8154 40.4843 50.9582 40.6077C52.5037 42.0407 54.0339 43.5009 55.5641 44.9646C56.1997 45.5013 56.6487 46.2074 56.8521 46.9901C57.0555 47.7727 57.0039 48.5952 56.7039 49.3496C56.4556 50.1558 55.9591 50.8739 55.2777 51.4122C54.5963 51.9505 53.7609 52.2847 52.8779 52.3722C52.1125 52.3837 51.3479 52.3172 50.5975 52.1739C50.5646 52.6856 50.4842 53.1936 50.3573 53.692C50.1225 54.5661 49.6248 55.3571 48.9245 55.9691C48.2242 56.5811 47.3513 56.9878 46.4116 57.1401C46.3238 57.1599 46.2385 57.1884 46.157 57.2252C33.24 57.2383 20.2978 57.2425 7.33043 57.238ZM37.287 31.3688C38.7213 29.5915 39.6052 27.4721 39.8402 25.2473C40.0752 23.0224 39.652 20.7795 38.6179 18.7689C37.5838 16.7583 35.9793 15.059 33.9837 13.8608C31.988 12.6625 29.6796 12.0124 27.3161 11.9829C24.9526 11.9535 22.6269 12.5458 20.5985 13.6939C18.5702 14.842 16.919 16.5007 15.8292 18.4848C14.7394 20.4689 14.2539 22.7005 14.4268 24.9304C14.5998 27.1604 15.4244 29.301 16.8086 31.1135C18.1601 28.9499 20.2344 27.2733 22.7045 26.3481C21.3344 25.2811 20.4652 23.7455 20.286 22.0753C20.1067 20.4051 20.6319 18.7356 21.7473 17.4299C22.8628 16.1242 24.4782 15.2879 26.2421 15.1031C28.006 14.9183 29.7757 15.3998 31.1662 16.4429C32.5003 17.4221 33.3729 18.859 33.5951 20.4424C33.7741 21.5316 33.6496 22.6462 33.2339 23.6759C32.8181 24.7057 32.1256 25.615 31.2246 26.3141C34.7699 28.1317 35.3403 28.6142 37.2906 31.3671L37.287 31.3688ZM35.6371 33.1141C35.5922 33.029 35.5769 32.972 35.5319 32.9014C34.7805 31.4009 33.6042 30.1268 32.1337 29.2204C30.6631 28.3141 28.9558 27.8109 27.2013 27.7669C25.4467 27.7228 23.7136 28.1395 22.1942 28.9708C20.6749 29.802 19.4288 31.0153 18.5943 32.4759C18.5454 32.5323 18.5102 32.5982 18.4911 32.6689C18.472 32.7396 18.4696 32.8134 18.4839 32.8851C18.4982 32.9569 18.529 33.0247 18.574 33.084C18.619 33.1432 18.6772 33.1924 18.7445 33.2281C20.2127 34.4449 21.9585 35.3238 23.8454 35.7963C25.7324 36.2687 27.7093 36.3217 29.6215 35.9512C31.8699 35.557 33.9556 34.572 35.6399 33.109L35.6371 33.1141ZM41.8633 41.1608C42.0122 41.2431 42.1528 41.3383 42.2834 41.445C44.2187 43.2604 46.149 45.0863 48.0741 46.9226C49.0043 47.8025 49.9192 48.6824 50.8493 49.5478C51.0728 49.8109 51.3637 50.0156 51.6943 50.1424C52.025 50.2691 52.3845 50.3138 52.7385 50.272C53.1757 50.2004 53.5825 50.0131 53.9117 49.7317C54.241 49.4504 54.4792 49.0866 54.5989 48.6824C54.7483 48.3062 54.7708 47.8953 54.6633 47.5065C54.5559 47.1176 54.3238 46.7698 53.9988 46.5108C51.1033 43.7718 48.203 41.0328 45.2979 38.2939C45.208 38.2088 45.1027 38.1382 45.073 38.1092C44.0259 39.1014 42.9914 40.0809 41.866 41.1591L41.8633 41.1608ZM31.4063 21.4066C31.4079 20.5749 31.149 19.7614 30.6621 19.0689C30.1753 18.3763 29.4824 17.8358 28.671 17.5155C27.8596 17.1952 26.966 17.1096 26.1032 17.2694C25.2404 17.4291 24.4469 17.8272 23.8231 18.4133C23.1993 18.9993 22.773 19.7471 22.5982 20.5622C22.4233 21.3773 22.5078 22.2231 22.8408 22.9928C23.1738 23.7625 23.7404 24.4216 24.4692 24.8869C25.198 25.3521 26.0561 25.6027 26.9353 25.6069C27.5216 25.6119 28.1032 25.5068 28.6462 25.2977C29.1893 25.0887 29.6832 24.7798 30.0992 24.389C30.5153 23.9982 30.8453 23.5333 31.0701 23.0211C31.2949 22.5088 31.4101 21.9595 31.409 21.4049L31.4063 21.4066ZM40.2125 39.3865C41.2479 38.4071 42.2978 37.4293 43.2576 36.5196L39.402 32.8724L36.3568 35.7529C37.5299 36.8311 38.8955 38.122 40.2197 39.3857L40.2125 39.3865ZM46.9937 12.0826C45.3744 10.2956 43.828 8.60558 42.2834 6.91727C42.1637 8.56303 42.1637 10.139 42.1781 11.7278C42.1781 11.8554 42.3733 12.0681 42.4786 12.0681C43.9512 12.0817 45.4068 12.0818 46.9964 12.0818L46.9937 12.0826Z" fill="#47BBC6"/>
<path d="M26.951 44.0993H20.2594C20.1017 44.1101 19.9428 44.0955 19.7924 44.0563C19.6421 44.0172 19.5034 43.9543 19.385 43.8715C19.2665 43.7887 19.1708 43.6878 19.1036 43.5749C19.0363 43.4619 18.999 43.3394 18.9939 43.2148C18.9777 42.9805 19.0747 42.7501 19.2655 42.5699C19.4563 42.3897 19.7267 42.2731 20.0223 42.2436C20.1219 42.2328 20.2225 42.2286 20.323 42.2309H33.6436C33.9319 42.2079 34.2211 42.2669 34.459 42.3972C34.6968 42.5275 34.8676 42.7205 34.9404 42.9414C35.0129 43.1371 34.9957 43.3467 34.8916 43.5335C34.7875 43.7202 34.6033 43.8721 34.3712 43.9626C34.1021 44.054 33.8103 44.0966 33.5174 44.0873C31.3337 44.0993 29.1519 44.0993 26.951 44.0993Z" fill="#47BBC6"/>
<path d="M18.985 49.7265C18.0192 49.7265 17.0676 49.7392 16.1025 49.7265C15.881 49.7369 15.6617 49.6831 15.4776 49.5735C15.2934 49.4638 15.1544 49.304 15.0813 49.1182C14.9939 48.9563 14.97 48.7732 15.0131 48.5978C15.0563 48.4225 15.1641 48.265 15.3196 48.1502C15.5637 47.9802 15.8629 47.8844 16.173 47.8769C18.062 47.8524 19.9375 47.8642 21.8264 47.8642C21.9741 47.8466 22.1243 47.8578 22.2667 47.897C22.409 47.9362 22.54 48.0024 22.6505 48.091C22.7611 48.1797 22.8485 48.2887 22.9068 48.4104C22.965 48.5321 22.9927 48.6636 22.9878 48.7958C22.9878 49.3542 22.5397 49.7146 21.7979 49.7272C20.8748 49.7399 19.9224 49.7265 18.985 49.7265Z" fill="#47BBC6"/>
<path d="M35.5276 47.8695C36.5676 47.8695 37.6077 47.8569 38.6477 47.8695C38.8148 47.8538 38.9842 47.866 39.1449 47.9054C39.3055 47.9447 39.4537 48.0104 39.5796 48.098C39.7055 48.1856 39.8063 48.2931 39.8753 48.4135C39.9444 48.5339 39.9801 48.6644 39.9801 48.7965C39.9801 48.9285 39.9444 49.059 39.8753 49.1794C39.8063 49.2998 39.7055 49.4073 39.5796 49.4949C39.4537 49.5825 39.3055 49.6482 39.1449 49.6876C38.9842 49.727 38.8148 49.7392 38.6477 49.7234C36.5506 49.736 34.4375 49.736 32.3405 49.7234C32.1736 49.7384 32.0046 49.7262 31.844 49.6875C31.6834 49.6488 31.5347 49.5844 31.4074 49.4985C31.2801 49.4125 31.1768 49.3068 31.104 49.1881C31.0313 49.0693 30.9907 48.94 30.9847 48.8083C30.9687 48.2521 31.5047 47.8688 32.3566 47.8562C33.4004 47.8695 34.4564 47.8695 35.5276 47.8695Z" fill="#47BBC6"/>
<path d="M3.00168 19.2181C3.0055 18.9397 3.09715 18.6686 3.26501 18.4392C3.43287 18.2097 3.66941 18.0322 3.94472 17.929C4.22002 17.8258 4.52172 17.8016 4.81166 17.8595C5.10159 17.9174 5.36673 18.0548 5.57354 18.2542C5.78035 18.4537 5.91956 18.7062 5.97353 18.98C6.02749 19.2537 5.99379 19.5364 5.87671 19.7921C5.75963 20.0479 5.56442 20.2653 5.31577 20.4168C5.06712 20.5684 4.77622 20.6473 4.47983 20.6435C4.28115 20.6476 4.08371 20.6132 3.89979 20.5425C3.71587 20.4719 3.54941 20.3664 3.41075 20.2327C3.2721 20.099 3.16423 19.9399 3.09386 19.7654C3.02348 19.5908 2.9921 19.4045 3.00168 19.2181Z" fill="#47BBC6"/>
<path d="M27.4783 47.857C27.5443 47.8517 27.6101 47.8717 27.6719 47.9155C27.7336 47.9594 27.79 48.0263 27.8376 48.1122C27.8852 48.1981 27.9231 48.3012 27.9489 48.4153C27.9746 48.5295 27.9879 48.6522 27.9877 48.7762C27.9903 49.0249 27.9402 49.2654 27.8484 49.4448C27.7566 49.6242 27.6306 49.7277 27.4981 49.7327C27.3657 49.7376 27.2376 49.6436 27.142 49.4712C27.0465 49.2988 26.9913 49.0622 26.9887 48.8134C26.9859 48.6896 26.9965 48.5659 27.0199 48.45C27.0433 48.334 27.0789 48.2282 27.1246 48.1388C27.1704 48.0494 27.2253 47.9783 27.2861 47.9299C27.3469 47.8815 27.4123 47.8567 27.4783 47.857Z" fill="#47BBC6"/>
</svg>
