<svg width="60" height="61" viewBox="0 0 60 61" fill="none" xmlns="http://www.w3.org/2000/svg">
<path d="M22.8646 0C23.2392 0.104339 23.6065 0.233415 23.964 0.386378C24.6916 0.709381 25.3084 1.23951 25.7375 1.91083C26.1667 2.58215 26.3893 3.36501 26.3776 4.16205C26.4026 7.22803 26.3896 10.294 26.3896 13.359V14.0947C26.5895 13.9946 26.7384 13.9456 26.8754 13.8575C28.1696 13.1098 29.4739 12.362 30.7731 11.5893C31.1505 11.3434 31.5905 11.2116 32.0407 11.2094C32.4908 11.2073 32.9321 11.335 33.3117 11.5773C34.568 12.313 35.8373 13.0477 37.0946 13.7794C37.7042 14.1408 37.8781 14.6022 37.6043 15.0757C37.3304 15.5491 36.8047 15.6492 36.1861 15.2879C34.9868 14.5872 33.7874 13.9045 32.6021 13.1939C32.4476 13.0806 32.2622 13.0175 32.0708 13.013C31.8795 13.0085 31.6913 13.0629 31.5317 13.1688C29.9636 14.1037 28.3715 15.0256 26.7784 15.9355C26.6476 15.9923 26.5382 16.0894 26.4663 16.2127C26.3944 16.3361 26.3637 16.4792 26.3786 16.6212C26.4036 17.5221 26.3906 18.4159 26.3906 19.3879C26.6025 19.2878 26.7514 19.2257 26.9003 19.1386C28.1326 18.428 29.3889 17.7553 30.5982 17.0076C31.0195 16.7254 31.5144 16.5737 32.0211 16.5716C32.5279 16.5694 33.0241 16.7169 33.4476 16.9956C37.7902 19.513 42.1427 21.9804 46.5002 24.4478C46.8012 24.6155 47.1392 24.7053 47.4837 24.7091C49.0388 24.7341 50.5949 24.7211 52.3119 24.7211C52.0381 24.5339 51.9011 24.4348 51.7642 24.3597C47.9191 22.1289 44.0783 19.8934 40.2418 17.6532C40.0664 17.5643 39.8992 17.4601 39.742 17.3419C39.6526 17.2808 39.5763 17.2023 39.5177 17.1111C39.459 17.0199 39.4192 16.9179 39.4006 16.8111C39.3819 16.7043 39.3849 16.5948 39.4092 16.4891C39.4335 16.3834 39.4787 16.2837 39.5422 16.1958C39.6428 16.0123 39.8113 15.8756 40.0113 15.815C40.2114 15.7544 40.4272 15.7747 40.6126 15.8715C40.8812 15.9906 41.1393 16.1322 41.3841 16.2949C45.4658 18.6625 49.5432 21.0345 53.6162 23.4108C53.7031 23.4609 53.7901 23.5109 53.865 23.56C54.1803 23.7219 54.4302 23.9875 54.5729 24.3123C54.7155 24.6371 54.7422 25.0012 54.6484 25.3433C54.5546 25.6854 54.346 25.9848 54.0577 26.191C53.7695 26.3973 53.4191 26.4978 53.0655 26.4758C51.4854 26.4878 49.9053 26.4758 48.3242 26.4758H47.6396V47.8116H50.8997C51.1305 47.7981 51.3619 47.8235 51.5843 47.8867C51.762 47.9541 51.9124 48.0786 52.012 48.2407C52.1116 48.4028 52.1549 48.5933 52.135 48.7826C52.1152 48.9718 52.0333 49.1492 51.9022 49.287C51.7712 49.4248 51.5982 49.5153 51.4104 49.5443C51.2367 49.5607 51.062 49.5647 50.8877 49.5563H12.8603C12.2757 49.5313 11.8899 49.1949 11.9019 48.6834C11.9043 48.561 11.9318 48.4403 11.9827 48.3289C12.0336 48.2175 12.1069 48.1178 12.1979 48.036C12.2889 47.9541 12.3957 47.8919 12.5117 47.8531C12.6277 47.8143 12.7505 47.7999 12.8723 47.8106C13.8308 47.7986 14.7882 47.8106 15.7347 47.8106H16.4193V26.4828H11.2682C10.2108 26.4828 9.60117 26.0964 9.41427 25.3237C9.22738 24.5509 9.53821 23.9403 10.4217 23.4298C11.8029 22.629 13.1722 21.8223 14.5404 20.8753H14.0307C10.8954 20.8753 7.74722 20.8003 4.611 20.9004C3.99816 20.936 3.38472 20.8415 2.81085 20.6232C2.23698 20.4049 1.71563 20.0676 1.28094 19.6335C0.846251 19.1994 0.508033 18.6782 0.28843 18.104C0.0688276 17.5299 -0.0272058 16.9158 0.00662331 16.3019C0.0935739 12.3981 0.031603 8.48827 0.031603 4.59047C-0.0677918 3.54612 0.227122 2.50237 0.858175 1.66504C1.48923 0.827715 2.41063 0.257581 3.44068 0.0670667C3.47663 0.0509868 3.51024 0.0300991 3.54061 0.00499449L22.8646 0ZM26.8464 47.7936V38.8849C26.811 38.5812 26.8445 38.2734 26.9443 37.9844C27.0442 37.6955 27.2078 37.4328 27.4231 37.2159C27.6383 36.9991 27.8997 36.8337 28.1876 36.732C28.4755 36.6303 28.7827 36.595 29.0861 36.6287C31.052 36.6167 33.0309 36.6167 34.9967 36.6287C35.3053 36.5951 35.6175 36.6318 35.9099 36.7361C36.2023 36.8405 36.4673 37.0097 36.6851 37.2311C36.903 37.4526 37.068 37.7205 37.1678 38.0149C37.2676 38.3093 37.2996 38.6224 37.2615 38.9309V47.7796H45.8226C45.8346 47.6544 45.8476 47.5794 45.8476 47.5053C45.8476 40.5135 45.8596 33.5227 45.8356 26.5308C45.8149 26.3991 45.7665 26.2732 45.6936 26.1616C45.6207 26.05 45.525 25.9551 45.4128 25.8832C41.1453 23.4278 36.8517 20.9854 32.5841 18.53C32.4283 18.4187 32.2422 18.3579 32.0508 18.3558C31.8594 18.3536 31.672 18.4103 31.5137 18.518C30.2195 19.2778 28.9382 20.0636 27.6069 20.7362C27.1973 20.862 26.8469 21.1319 26.6204 21.4962C26.3939 21.8604 26.3066 22.2945 26.3746 22.7181C26.393 22.9148 26.366 23.113 26.2959 23.2976C26.2258 23.4823 26.1144 23.6483 25.9702 23.783C25.826 23.9178 25.6529 24.0176 25.4642 24.0749C25.2754 24.1322 25.0761 24.1454 24.8815 24.1135C24.4492 24.029 24.0486 23.8263 23.7242 23.5279C23.6182 23.4072 23.4698 23.332 23.3099 23.318C23.15 23.304 22.9909 23.3523 22.8656 23.4528C21.5094 24.2536 20.1402 25.0354 18.759 25.7961C18.5951 25.8711 18.4588 25.9956 18.3691 26.1522C18.2795 26.3087 18.2411 26.4894 18.2593 26.669C18.2719 33.4863 18.2759 40.3033 18.2712 47.1199V47.7675C21.1346 47.7936 23.947 47.7936 26.8464 47.7936ZM24.6316 22.0585V4.42431C24.6683 4.06667 24.6248 3.70535 24.5046 3.36661C24.3843 3.02787 24.1902 2.72023 23.9364 2.46601C23.6826 2.2118 23.3754 2.0174 23.0372 1.89696C22.699 1.77652 22.3382 1.73305 21.9811 1.76971H4.48607C4.12507 1.73008 3.7598 1.77216 3.41719 1.89281C3.07459 2.01345 2.7634 2.20961 2.50661 2.4668C2.24981 2.724 2.05396 3.03566 1.93349 3.3788C1.81303 3.72193 1.77104 4.08777 1.81061 4.44933C1.81061 8.37515 1.86057 12.301 1.78561 16.2268C1.74403 16.6238 1.79196 17.0251 1.92585 17.4012C2.05974 17.7772 2.27619 18.1183 2.55924 18.3994C2.84228 18.6804 3.18469 18.8943 3.56124 19.0252C3.9378 19.1561 4.33889 19.2007 4.73494 19.1557C9.66214 19.0806 14.6023 19.1306 19.5265 19.1306C20.6503 19.1031 21.7416 19.5091 22.5748 20.2647C23.2124 20.8373 23.8601 21.3858 24.6316 22.0585ZM35.4445 47.7936C35.4658 47.7411 35.4825 47.6868 35.4945 47.6314C35.4945 44.7286 35.4945 41.8117 35.5065 38.9079C35.5065 38.4214 35.2326 38.3844 34.8718 38.3844C33.0049 38.3844 31.126 38.3964 29.26 38.3724C28.7503 38.3604 28.5884 38.5346 28.5884 39.0451C28.6134 41.7247 28.6004 44.3912 28.6004 47.0709V47.7816C30.9151 47.7936 33.1678 47.7936 35.4445 47.7936ZM11.8019 24.671C12.0628 24.6961 12.2017 24.7331 12.3496 24.7331C13.0489 24.6999 13.7495 24.7039 14.4484 24.7451C16.2178 24.9671 18.0047 24.4987 19.4386 23.4368C20.1852 22.9013 21.0317 22.5019 21.8522 22.0285C20.8528 20.9694 19.1148 20.4579 18.1443 21.0065C16.0585 22.1706 13.9927 23.4048 11.8019 24.676V24.671Z" fill="#47BBC6"/>
<path d="M59.9571 57.4277L59.7333 57.9513C59.5087 58.5388 59.1164 59.0471 58.6052 59.4127C58.094 59.7784 57.4867 59.9851 56.8589 60.0073C56.7427 60.0135 56.6263 60.0135 56.5101 60.0073H7.60789C7.164 60.0359 6.71895 59.973 6.30032 59.8224C5.8817 59.6718 5.4984 59.4367 5.17415 59.1318C4.84989 58.8268 4.59159 58.4584 4.41523 58.0494C4.23886 57.6405 4.14819 57.1996 4.14884 56.7541V44.1048C4.14037 43.9882 4.1444 43.8711 4.16084 43.7554C4.26078 43.319 4.54661 42.9957 4.96937 43.0547C5.30678 43.1476 5.60427 43.3492 5.81589 43.6283C5.93982 43.7654 5.90284 44.0767 5.90284 44.3009V56.4268C5.90284 57.723 6.42556 58.2465 7.70683 58.2465H56.4351C57.6674 58.2465 58.2141 57.698 58.2141 56.4648V34.5584C58.2141 33.2752 57.6794 32.7387 56.4102 32.7267C54.5192 32.7267 52.6273 32.7267 50.7364 32.7147C50.6189 32.7217 50.5012 32.7048 50.3904 32.6649C50.2796 32.625 50.1781 32.5629 50.092 32.4825C50.0059 32.4021 49.937 32.305 49.8896 32.1971C49.8421 32.0892 49.817 31.9727 49.8159 31.8548C49.8252 31.6274 49.9179 31.4113 50.0763 31.2481C50.2347 31.0848 50.4477 30.9858 50.6744 30.97H50.7863C52.8142 30.97 54.843 30.9329 56.8709 30.982C57.5512 30.9973 58.2084 31.2325 58.7444 31.6525C59.2804 32.0724 59.6665 32.6546 59.8452 33.3122C59.8822 33.4243 59.9322 33.5244 59.9691 33.6366C59.9571 41.5629 59.9532 49.4933 59.9571 57.4277Z" fill="#47BBC6"/>
<path d="M10.1587 30.9572H12.9092C13.6088 30.9572 13.9915 31.2815 14.0085 31.8171C14.0205 32.3906 13.6347 32.7019 12.9012 32.718H7.81205C6.40585 32.718 5.89615 33.2184 5.89615 34.5998V39.1732C5.89615 39.8959 5.56033 40.3194 4.99665 40.3074C4.46195 40.2953 4.13814 39.8959 4.13814 39.2063C4.13814 37.5617 4.12615 35.9291 4.13814 34.2835C4.12421 33.8476 4.19903 33.4134 4.35805 33.0074C4.51707 32.6013 4.75696 32.232 5.06309 31.9218C5.36923 31.6117 5.73522 31.3671 6.13875 31.2032C6.54228 31.0393 6.97491 30.9593 7.41029 30.9682C8.32976 30.9452 9.23825 30.9572 10.1587 30.9572Z" fill="#47BBC6"/>
<path d="M13.2473 16.6871C11.4961 16.7044 9.79818 16.0844 8.46901 14.9424C7.01284 13.7332 5.57066 12.512 4.11348 11.2908C3.40389 10.6902 3.40389 10.1897 4.08851 9.60816C5.64362 8.29989 7.17475 6.97859 8.76685 5.71936C10.024 4.72108 11.5796 4.17475 13.1839 4.16803C14.7883 4.16132 16.3484 4.69461 17.6138 5.68232C19.2559 6.96557 20.837 8.33691 22.4291 9.68623C22.5624 9.76587 22.6724 9.87933 22.7479 10.0151C22.8234 10.1509 22.8619 10.3043 22.8594 10.4597C22.8568 10.6152 22.8134 10.7672 22.7335 10.9004C22.6535 11.0337 22.5399 11.1435 22.4041 11.2187C20.849 12.527 19.3059 13.8363 17.7258 15.1225C16.4623 16.1539 14.8771 16.7077 13.2473 16.6871ZM5.80652 10.468C7.37463 11.7262 8.79283 13.0605 10.3859 14.1195C11.1909 14.6964 12.1529 15.0128 13.1426 15.0262C14.1324 15.0396 15.1025 14.7495 15.9228 14.1946C17.5778 13.1226 19.046 11.7643 20.6511 10.481C19.2199 9.29685 17.9256 8.15074 16.5534 7.09071C15.607 6.35094 14.4421 5.94704 13.2416 5.94251C12.0411 5.93798 10.8731 6.33307 9.92119 7.06568C8.54297 8.1127 7.2507 9.25982 5.80652 10.468Z" fill="#47BBC6"/>
<path d="M16.1081 10.4684C16.0996 11.0379 15.923 11.592 15.6006 12.0611C15.2782 12.5302 14.8243 12.8932 14.2963 13.1044C13.7682 13.3156 13.1896 13.3656 12.6333 13.248C12.0769 13.1304 11.5677 12.8505 11.1699 12.4436C10.7721 12.0367 10.5035 11.521 10.3978 10.9614C10.2922 10.4019 10.3542 9.82349 10.5762 9.29919C10.7982 8.7749 11.1701 8.32812 11.6451 8.01517C12.1202 7.70221 12.6771 7.53709 13.2457 7.54058C13.6256 7.54437 14.0011 7.62313 14.3507 7.77236C14.7002 7.92159 15.017 8.13837 15.2828 8.4103C15.5486 8.68222 15.7584 9.00394 15.9 9.35709C16.0416 9.71025 16.1123 10.0879 16.1081 10.4684ZM14.3411 10.4684C14.3424 10.2461 14.2781 10.0284 14.1563 9.84248C14.0346 9.65659 13.8608 9.51084 13.6566 9.4235C13.4525 9.33617 13.2272 9.31113 13.0089 9.35152C12.7906 9.39191 12.5891 9.49595 12.4296 9.65058C12.2701 9.80521 12.1598 10.0035 12.1124 10.2207C12.065 10.4379 12.0826 10.6643 12.1632 10.8715C12.2437 11.0786 12.3835 11.2574 12.5651 11.3853C12.7466 11.5132 12.9618 11.5846 13.1837 11.5905C13.3344 11.5966 13.4848 11.5721 13.6257 11.5184C13.7666 11.4646 13.8953 11.3829 14.0038 11.278C14.1123 11.1732 14.1985 11.0474 14.2572 10.9082C14.3158 10.7691 14.3457 10.6195 14.3451 10.4684H14.3411Z" fill="#47BBC6"/>
</svg>
