<svg width="60" height="61" viewBox="0 0 60 61" fill="none" xmlns="http://www.w3.org/2000/svg">
<path d="M35.2589 60.0142C34.0087 59.9062 32.7656 59.744 31.5342 59.528C29.5444 59.1214 27.5797 58.6274 25.6479 58.0479C24.8417 57.7508 24.1298 57.2903 23.5722 56.7053C23.1236 56.2014 22.5401 55.7995 21.872 55.5342C21.204 55.269 20.4715 55.1484 19.7376 55.1827C19.2619 55.1856 18.7871 55.1468 18.3205 55.0668C17.6188 55.0086 16.9533 54.7703 16.4093 54.3823C15.8652 53.9943 15.4676 53.4744 15.2674 52.8894C14.9986 52.1913 14.7787 51.4724 14.5838 50.7535C14.4934 50.3694 14.2928 50.0112 14.0004 49.7119C13.7081 49.4125 13.3334 49.1817 12.9109 49.0407C12.2023 48.7759 11.5068 48.5017 10.8222 48.2059C10.0839 47.9184 9.47373 47.4308 9.08377 46.8167C8.69382 46.2026 8.54527 45.4954 8.66056 44.8018C8.73351 44.0085 8.83145 43.2057 8.84344 42.4124C8.84691 42.1048 8.73543 41.8043 8.52564 41.556C6.94824 39.9665 6.0779 37.9419 6.07118 35.8465C5.86578 32.4174 5.86176 28.9815 6.05918 25.552C6.23127 23.8894 6.8374 22.2823 7.83181 20.8521C8.82622 19.4218 10.1829 18.2058 11.7996 17.2957C11.9944 17.191 12.1521 17.0419 12.2556 16.8647C12.359 16.6876 12.4042 16.4892 12.3862 16.2913C12.3622 13.7333 12.3742 11.1744 12.3742 8.61635C12.3419 8.34242 12.3809 8.06571 12.4883 7.80653C12.5958 7.54736 12.7689 7.31231 12.995 7.11865C13.2211 6.92498 13.4945 6.77762 13.7951 6.6874C14.0956 6.59717 14.4157 6.56637 14.7318 6.59726C15.3664 6.59726 15.99 6.58687 16.6246 6.59726C17.1841 6.5993 17.7201 6.79264 18.1158 7.13516C18.5115 7.47768 18.7349 7.94165 18.7372 8.42604C18.7492 8.94509 18.7372 9.46413 18.7372 10.1562C20.8522 7.58925 23.8284 5.64783 27.2619 4.59547C27.03 3.79181 26.7852 3.00978 26.5623 2.22774C26.3794 1.58326 26.6483 1.10314 27.2709 0.980297C27.8325 0.864377 28.3092 1.17062 28.5161 1.79434C28.76 2.54523 28.9928 3.29525 29.2366 4.07815C30.1161 3.97261 30.9836 3.87745 31.899 3.76066C31.899 2.81945 31.875 1.91026 31.899 0.992408C31.923 0.213837 32.7534 -0.265421 33.398 0.157603C33.6858 0.385373 33.8642 0.698483 33.8977 1.03479C33.9587 1.92323 33.9217 2.82118 33.9217 3.76239C34.8012 3.86793 35.6436 3.97347 36.596 4.09026C36.8399 3.29698 37.0847 2.47256 37.3536 1.65852C37.5005 1.21473 37.8532 0.897249 38.3799 0.982026C38.7503 1.07888 39.0672 1.28923 39.2714 1.57374C39.4053 1.73205 39.2953 2.05992 39.2344 2.303C39.0345 3.04265 38.7947 3.77363 38.5628 4.54442C38.7337 4.61882 38.8926 4.68197 39.0515 4.74512C42.2672 5.80301 45.0444 7.66845 47.0268 10.1021C49.0092 12.5358 50.1064 15.4267 50.1775 18.4039C50.2015 19.102 50.2015 19.8096 50.1895 20.5077C50.1775 21.1315 49.8107 21.4697 49.2001 21.4697C48.5895 21.4697 48.2227 21.1315 48.1738 20.5181C48.1584 19.0372 48.0443 17.5584 47.832 16.0889C47.0781 12.8799 44.9727 10.0282 41.925 8.08812C38.8773 6.14807 35.1051 5.25834 31.3417 5.59187C27.5783 5.92541 24.0927 7.45838 21.5624 9.89278C19.032 12.3272 17.6379 15.4891 17.6509 18.7637C17.6509 19.3875 17.6389 20.0112 17.6509 20.6349C17.6559 21.1391 17.8912 21.6211 18.3054 21.9755C18.7196 22.33 19.2791 22.5282 19.8615 22.5268C20.455 22.531 21.0263 22.3324 21.4516 21.9742C21.8769 21.6159 22.1218 21.1269 22.1331 20.6133C22.1225 19.1746 22.2613 17.7379 22.5478 16.3208C23.1177 14.3642 24.4179 12.6252 26.2464 11.3738C28.075 10.1224 30.3297 9.42863 32.6605 9.40012C35.5917 9.35773 38.5228 9.37936 41.455 9.38974C41.756 9.37339 42.0576 9.4134 42.3391 9.50703C42.6206 9.60067 42.8755 9.74572 43.0865 9.93233C43.2974 10.1189 43.4594 10.3427 43.5614 10.5884C43.6634 10.8341 43.703 11.0959 43.6776 11.3561C43.6896 12.5095 43.6896 13.6629 43.6776 14.8164C43.7081 15.0811 43.6703 15.3485 43.567 15.599C43.4636 15.8496 43.2972 16.0772 43.0799 16.2653C42.8625 16.4535 42.5997 16.5975 42.3102 16.687C42.0207 16.7764 41.7119 16.8091 41.406 16.7827C38.6947 16.7931 35.9954 16.7827 33.2841 16.7827C32.9284 16.7381 32.5656 16.7657 32.2244 16.8634C31.8832 16.9612 31.573 17.1263 31.3183 17.3458C31.0635 17.5653 30.8713 17.8331 30.7569 18.128C30.6424 18.4229 30.6088 18.7368 30.6588 19.0449C30.6588 19.8235 30.6708 20.6098 30.6588 21.3919C30.6468 22.0476 30.28 22.4066 29.6594 22.4066C29.0388 22.4066 28.646 22.026 28.646 21.3919C28.634 20.5354 28.634 19.6686 28.646 18.8122C28.632 18.3119 28.7356 17.8143 28.9504 17.3496C29.1652 16.885 29.4867 16.4629 29.8955 16.1091C30.3043 15.7552 30.7919 15.4768 31.3287 15.2909C31.8655 15.105 32.4403 15.0154 33.0183 15.0275C35.5957 15.0067 38.1601 15.0275 40.7364 15.0275H41.6039V11.1476H40.9563C38.3789 11.1476 35.8145 11.1372 33.2381 11.1476C32.0332 11.1104 30.8324 11.2888 29.7107 11.6715C28.589 12.0542 27.5706 12.633 26.719 13.3718C25.8674 14.1106 25.2009 14.9935 24.7613 15.9653C24.3217 16.937 24.1183 17.9769 24.1638 19.0198C24.2113 19.8181 24.1664 20.6186 24.0299 21.4092C23.8183 22.3097 23.2179 23.1064 22.351 23.6369C21.4841 24.1673 20.4162 24.3916 19.3648 24.2639C18.3491 24.1528 17.4137 23.7282 16.7306 23.068C16.0474 22.4079 15.6624 21.5565 15.6462 20.6704C15.6222 19.6323 15.6462 18.6089 15.6462 17.4462C15.0356 17.6997 14.4619 17.89 13.9362 18.1651C12.1256 19.043 10.6159 20.3204 9.56059 21.8672C8.50526 23.414 7.94198 25.1752 7.92802 26.9716C7.86706 28.5893 7.91602 30.2061 7.91602 31.8662C8.09798 31.8925 8.28148 31.9101 8.46568 31.919C10.0407 31.919 11.6287 31.9398 13.2047 31.919C13.935 31.9434 14.6635 31.8411 15.3474 31.6182C16.0313 31.3953 16.6568 31.0563 17.1871 30.621C17.7174 30.1857 18.1418 29.6631 18.4353 29.0837C18.7288 28.5044 18.8855 27.8801 18.8961 27.2476C18.9451 26.642 19.3359 26.2856 19.9225 26.296C20.5331 26.3064 20.9219 26.7086 20.9219 27.3341C20.8796 28.6111 20.406 29.8495 19.5595 30.896C18.7129 31.9426 17.5307 32.7515 16.1589 33.2227C15.951 33.2971 15.7441 33.3602 15.4993 33.445C15.4993 34.2911 15.4753 35.1259 15.5113 35.9719C15.5512 36.1747 15.6671 36.3604 15.8411 36.5005C16.9893 37.5152 18.1616 38.5196 19.3219 39.5343C19.9215 40.0533 19.9815 40.5724 19.4928 40.9617C19.029 41.3423 18.4794 41.2895 17.8938 40.7817C17.1362 40.126 16.4037 39.4495 15.6592 38.773C15.5982 38.7938 15.5492 38.8258 15.4883 38.8474V41.0465C15.4883 41.4591 15.5123 41.8709 15.4763 42.2731C15.4684 42.3856 15.4349 42.4957 15.3779 42.597C15.3208 42.6983 15.2412 42.7889 15.1436 42.8635C15.0461 42.9381 14.9325 42.9954 14.8093 43.032C14.6862 43.0686 14.5559 43.0838 14.4259 43.0768C14.1729 43.0723 13.9319 42.9826 13.754 42.8267C13.5762 42.6708 13.4756 42.4611 13.4735 42.242C13.4615 42.0837 13.4616 41.9245 13.4616 41.7766V33.7313H7.86505C7.98698 34.7461 8.09691 35.7504 8.23183 36.7591C8.40805 38.1254 9.06935 39.4109 10.1246 40.4383C10.4868 40.8768 10.7372 41.3768 10.8594 41.9053C10.9815 42.4339 10.9726 42.9788 10.8332 43.5042C10.7842 44.012 10.7233 44.5189 10.6743 45.0163C10.6158 45.3474 10.6875 45.6859 10.878 45.9774C11.0685 46.2689 11.3667 46.4965 11.7246 46.6236C12.5181 46.9515 13.3126 47.2681 14.1061 47.596C14.6709 47.822 15.1708 48.1535 15.5699 48.5666C15.9691 48.9797 16.2576 49.4642 16.4147 49.9853C16.6465 50.6938 16.8664 51.4127 17.0863 52.1316C17.1614 52.4707 17.3707 52.7766 17.6782 52.9966C17.9858 53.2165 18.3723 53.3368 18.7712 53.3366C19.6257 53.3894 20.4811 53.4638 21.3236 53.5373C21.8003 53.5506 22.269 53.6474 22.7013 53.8218C23.1337 53.9962 23.5207 54.2446 23.839 54.5521C25.7079 56.6136 28.3822 57.1741 31.1055 57.6707C33.6305 58.1963 36.2397 58.3499 38.8236 58.1249C41.2648 57.8129 43.5113 56.7927 45.1953 55.2313C46.8792 53.6699 47.9008 51.6599 48.0928 49.5303C48.1658 48.378 48.2147 47.2361 48.3497 46.0838C48.4267 45.5828 48.5785 45.0925 48.8014 44.6253C49.1448 43.9425 49.2824 43.1954 49.2013 42.4541C49.1202 41.7127 48.8231 41.0012 48.3377 40.3864C47.4862 39.3646 47.028 38.1367 47.028 36.8768C47.028 35.6169 47.4862 34.389 48.3377 33.3671C49.6808 31.528 49.6199 30.3013 47.886 28.7156C46.1336 27.1615 44.8645 25.2484 44.1973 23.1549C44.043 22.4562 43.6122 21.826 42.9791 21.3725C42.346 20.9191 41.5502 20.6708 40.7284 20.6704C39.922 20.628 39.1165 20.5752 38.225 20.5121C38.225 21.6851 38.213 22.7613 38.237 23.853C38.237 24.0113 38.4449 24.1809 38.6038 24.3184C39.788 25.3565 41.0023 26.3946 42.1945 27.4266C42.3876 27.5648 42.5153 27.7595 42.5536 27.9738C42.592 28.1881 42.5381 28.4071 42.4024 28.5893C42.2966 28.7533 42.1258 28.8787 41.9215 28.9423C41.7173 29.0059 41.4934 29.0034 41.2911 28.9353C41.0425 28.8513 40.8205 28.7172 40.6435 28.5443C39.899 27.8998 39.1654 27.2467 38.286 26.4621C38.1521 28.4916 38.0781 30.342 39.4223 31.938C40.9001 33.7063 41.6369 35.858 41.5109 38.0377C41.438 42.3934 41.487 46.7491 41.487 51.1004C41.4973 51.3155 41.4892 51.5309 41.463 51.7449C41.4578 51.8439 41.4298 51.9409 41.3807 52.0304C41.3316 52.1199 41.2623 52.2 41.1769 52.266C41.0916 52.332 40.9918 52.3826 40.8836 52.4147C40.7753 52.4469 40.6607 52.4601 40.5466 52.4534C40.1606 52.3605 39.8185 52.1642 39.5692 51.8928C39.4223 51.7553 39.4592 51.449 39.4592 51.2163C39.4472 48.8694 39.4592 46.5328 39.4592 44.1858V43.4462C39.1784 43.6685 39.0195 43.7844 38.8726 43.922C37.5414 45.0639 36.2223 46.2162 34.9031 47.3581C34.2925 47.8866 33.7188 47.929 33.2541 47.5164C32.8144 47.115 32.8754 46.6392 33.462 46.1323C35.3308 44.5146 37.1987 42.9081 39.0435 41.2696C39.2842 41.0312 39.425 40.7295 39.4432 40.4132C39.4922 39.2817 39.4552 38.151 39.4552 37.0195C39.4753 35.7584 39.0191 34.5261 38.1561 33.5099C36.7994 31.9085 36.1065 29.9579 36.1893 27.9734C36.2263 25.732 36.2013 23.4801 36.2013 21.2396V20.5415C35.4078 20.5415 34.6872 20.5622 33.9787 20.5415C33.729 20.5282 33.4941 20.4343 33.3205 20.2784C33.1469 20.1224 33.0471 19.9158 33.041 19.6993C33.0348 19.4828 33.1227 19.2722 33.2873 19.109C33.4518 18.9459 33.6811 18.8421 33.9297 18.8182C36.653 18.839 39.3893 18.6279 42.0876 19.1141C42.8492 19.2199 43.5676 19.4905 44.1761 19.9007C44.7846 20.311 45.2635 20.8478 45.5684 21.4611C46.0201 22.3261 46.3009 23.2691 46.7777 24.1255C47.2083 24.9108 47.7147 25.6632 48.2917 26.3747C48.7914 26.9984 49.452 27.5166 49.9906 28.13C50.7508 28.9396 51.1976 29.9357 51.2677 30.9773C51.3379 32.0189 51.0278 33.0532 50.3814 33.9338C49.8847 34.6044 49.4944 35.3298 49.2211 36.0904C49.0586 36.6629 49.0478 37.2598 49.1896 37.8365C49.3313 38.4131 49.6219 38.9545 50.0396 39.4201C50.6122 40.0338 51.0101 40.7555 51.2011 41.5268C51.392 42.2982 51.3707 43.0976 51.1389 43.8606C50.3324 46.0803 50.3454 48.3538 50.0026 50.5943C49.5835 52.9562 48.2943 55.1378 46.3269 56.8141C44.3595 58.4904 41.8193 59.5719 39.0845 59.8974C38.9347 59.9263 38.7877 59.9651 38.6447 60.0133C37.5185 60.0142 36.3822 60.0142 35.2589 60.0142ZM14.4359 15.973C14.9246 15.8354 15.3763 15.7299 15.8041 15.5716C15.9487 15.4925 16.0534 15.3688 16.0969 15.2256C16.5354 14.1865 16.7465 13.0858 16.7195 11.9798C16.6336 10.9547 16.7075 9.9183 16.6955 8.88193C16.6919 8.7191 16.6755 8.55668 16.6466 8.39576H14.4239C14.4359 10.9304 14.4359 13.4253 14.4359 15.973Z" fill="#47BBC6"/>
<path d="M55.6049 31.2071C55.5972 33.0212 54.9635 34.7919 53.785 36.292C53.6233 36.4631 53.5339 36.6769 53.5317 36.8979C53.5295 37.119 53.6147 37.334 53.773 37.5075C54.7769 38.825 55.3977 40.3332 55.5827 41.9034C55.7677 43.4736 55.5113 45.0592 54.8354 46.5251C54.6272 47.1211 54.5284 47.7417 54.5426 48.3642C54.5605 49.9471 54.3178 51.5241 53.822 53.0477C53.5782 53.7242 53.1135 54.0097 52.5148 53.8514C51.8922 53.6931 51.7333 53.2458 51.8672 52.5832C52.1241 51.2198 52.3669 49.8556 52.4898 48.481C52.5391 47.4698 52.7362 46.4682 53.0764 45.4999C53.5432 44.3848 53.711 43.1925 53.5672 42.013C53.4233 40.8336 52.9715 39.6978 52.246 38.6917C51.9385 38.3082 51.6883 37.8926 51.5014 37.4547C51.399 37.1221 51.3864 36.7737 51.4648 36.4362C51.5431 36.0988 51.7103 35.7816 51.9532 35.5091C53.0681 34.1422 53.6382 32.498 53.5772 30.8256C53.5161 29.5518 53.0187 28.3226 52.1481 27.2943C52.0381 27.1464 51.9042 27.0088 51.8062 26.8618C51.7308 26.7681 51.6775 26.6624 51.6493 26.5508C51.6211 26.4393 51.6186 26.324 51.6418 26.2115C51.665 26.0991 51.7136 25.9918 51.7848 25.8956C51.856 25.7995 51.9483 25.7164 52.0566 25.6511C52.1649 25.5858 52.287 25.5397 52.4158 25.5152C52.5447 25.4908 52.6779 25.4886 52.8078 25.5087C52.9376 25.5288 53.0617 25.5709 53.1728 25.6325C53.2839 25.6941 53.3798 25.7741 53.4552 25.8678C54.8894 27.3663 55.6525 29.2616 55.6049 31.2071Z" fill="#47BBC6"/>
<path d="M4.31424 44.7281C4.43736 43.7396 4.17984 42.7436 3.5817 41.8949C3.13564 41.1529 2.75578 40.3825 2.44541 39.5904C2.38081 39.4751 2.34614 39.349 2.34387 39.2209C2.3416 39.0928 2.37177 38.9658 2.43225 38.8489C2.49274 38.732 2.58208 38.628 2.69399 38.5441C2.8059 38.4603 2.93766 38.3987 3.08001 38.3637C3.62967 38.2261 4.10637 38.5012 4.3792 39.0505C4.77895 39.875 5.1727 40.6994 5.63741 41.503C6.17064 42.4123 6.423 43.4256 6.36996 44.4443C6.24803 47.4998 7.36933 49.1157 10.6323 50.3433C11.1685 50.5136 11.6431 50.8039 12.0077 51.1845C12.3723 51.5652 12.6139 52.0226 12.708 52.5103C12.8841 53.6547 13.4859 54.7184 14.4224 55.5405C15.3589 56.3625 16.5792 56.8983 17.8987 57.0667C18.0406 57.0751 18.1785 57.1105 18.3027 57.1705C18.4269 57.2304 18.5342 57.3133 18.6171 57.4133C18.7 57.5133 18.7563 57.6279 18.7821 57.7489C18.8078 57.87 18.8024 57.9944 18.7662 58.1134C18.7372 58.2338 18.6787 58.3473 18.5948 58.4465C18.5108 58.5456 18.4032 58.628 18.2793 58.6881C18.1555 58.7481 18.0181 58.7846 17.8766 58.7948C17.7351 58.8051 17.5927 58.7889 17.459 58.7475C15.9484 58.5775 14.5315 58.0192 13.3913 57.1448C12.2511 56.2704 11.4401 55.1201 11.063 53.8425C10.9188 53.3217 10.6358 52.8372 10.2367 52.4279C9.83758 52.0186 9.33341 51.6958 8.76445 51.4852C7.30876 50.8931 6.09995 49.9261 5.30336 48.7166C4.50678 47.507 4.16131 46.114 4.31424 44.7281Z" fill="#47BBC6"/>
<path d="M59.8944 32.4006C59.719 33.8167 59.2905 35.2006 58.6242 36.5028C58.5085 36.7412 58.4954 37.0077 58.5872 37.2537C59.8468 39.6926 60.2583 42.3962 59.7715 45.0342C59.6375 45.8483 59.2098 46.2393 58.5502 46.1441C57.8906 46.049 57.6218 45.5836 57.7687 44.76C58.1538 42.8468 57.9603 40.8798 57.207 39.0505C56.1327 36.5876 56.0837 37.2952 57.207 34.758C57.5162 33.925 57.733 33.0685 57.8546 32.1999C57.9765 31.5866 58.3923 31.2059 58.9779 31.2483C59.5886 31.2803 59.9313 31.693 59.8944 32.4006Z" fill="#47BBC6"/>
<path d="M0.0250804 46.0918C0.00488977 45.955 -0.00313089 45.8171 0.00109333 45.6792C-0.00129084 45.5707 0.0212185 45.4629 0.067336 45.3621C0.113454 45.2612 0.182255 45.1693 0.269739 45.0916C0.357223 45.014 0.461649 44.9521 0.576965 44.9097C0.692281 44.8672 0.816191 44.845 0.941498 44.8444C1.06587 44.8285 1.1927 44.8351 1.31394 44.8639C1.43519 44.8926 1.5482 44.9429 1.64583 45.0114C1.74345 45.08 1.82357 45.1654 1.88106 45.2622C1.93856 45.359 1.9722 45.465 1.97985 45.5737C2.10177 46.187 2.13874 46.8211 2.29764 47.424C2.62608 48.665 3.2686 49.8275 4.17883 50.8275C5.08907 51.8276 6.24435 52.6403 7.56135 53.2071C7.88543 53.334 8.17231 53.5225 8.40069 53.7585C8.62907 53.9945 8.79307 54.272 8.88052 54.5704C9.07851 55.0867 9.32345 55.5886 9.61306 56.0714C9.69134 56.1781 9.74373 56.2974 9.76705 56.4222C9.79037 56.5469 9.78412 56.6744 9.74869 56.797C9.71326 56.9196 9.64939 57.0347 9.56096 57.1353C9.47252 57.2358 9.36139 57.3198 9.2343 57.382C8.69664 57.6147 8.14698 57.414 7.7932 56.8534C7.76573 56.8217 7.74508 56.7859 7.73224 56.7479C7.23582 55.487 6.22387 54.4267 4.88702 53.7668C3.44825 52.8983 2.26082 51.7536 1.41744 50.4223C0.574059 49.091 0.0975464 47.6089 0.0250804 46.0918Z" fill="#47BBC6"/>
</svg>
