<svg width="60" height="61" viewBox="0 0 60 61" fill="none" xmlns="http://www.w3.org/2000/svg">
<path d="M0 38.1899H0.815673C0.849178 38.1882 0.882291 38.1818 0.914065 38.1709C0.67005 36.7026 0.332568 35.2444 0.191866 33.7751C-0.161508 30.5934 0.538184 27.3828 2.18039 24.6505C5.36045 19.3975 11.447 17.8053 16.9393 20.7498C18.9445 21.8693 20.7285 23.3562 22.2014 25.1356C22.3136 25.2686 22.4267 25.3926 22.5763 25.5546C24.6622 22.8211 27.5034 20.7827 30.736 19.7006C29.9913 17.2101 29.8821 14.5679 30.4186 12.0227C30.9551 9.47741 32.1197 7.11271 33.8029 5.151C33.981 5.29403 34.103 5.38905 34.2152 5.48506C34.5251 5.76111 34.8252 6.03816 35.1253 6.31421C32.8666 8.92479 31.6954 12.3261 31.8595 15.7988C32.0237 19.2714 33.5103 22.5429 36.0048 24.9214C38.4994 27.2998 41.8063 28.5985 45.226 28.5429C48.6457 28.4873 51.9101 27.0816 54.3285 24.6233C56.7469 22.1649 58.1297 18.8467 58.1844 15.3705C58.2392 11.8943 56.9615 8.53278 54.6217 5.99702C52.2819 3.46126 49.0636 1.95012 45.6473 1.78327C42.2311 1.61642 38.885 2.80694 36.3169 5.10299C35.9508 4.68392 35.576 4.26385 35.2099 3.84477C37.3193 1.91508 39.9319 0.64561 42.7338 0.188913C45.5358 -0.267784 48.4079 0.10772 51.005 1.27031C54.1576 2.66992 56.7387 5.13214 58.3129 8.24152C59.8871 11.3509 60.3579 14.9171 59.646 18.3383C58.934 21.7596 57.0829 24.8265 54.4049 27.0215C51.7269 29.2166 48.386 30.4055 44.9459 30.3875C45.2314 33.4771 44.7909 36.5914 43.6609 39.4741H45.124V44.8421C43.8203 44.8421 42.554 44.8321 41.2867 44.8521C41.1685 44.8551 41.052 44.8819 40.9441 44.9311C40.8362 44.9802 40.7389 45.0505 40.658 45.1382C36.9151 50.2692 32.174 54.5629 26.7294 57.7524C25.5005 58.5155 24.2342 59.2307 22.9679 59.9258C22.8539 59.9806 22.7299 60.0106 22.6038 60.0139C22.4778 60.0172 22.3524 59.9936 22.2358 59.9448C16.9787 57.2631 12.1918 53.7197 8.06724 49.4569C6.58536 47.7498 5.18903 45.9679 3.88357 44.118C3.78269 43.9247 3.62898 43.7652 3.44096 43.6587C3.25293 43.5523 3.03863 43.5033 2.82387 43.5179C1.88619 43.5659 0.947522 43.5279 0.0196753 43.5279C-3.30255e-06 41.7555 0 39.9722 0 38.1899ZM28.6255 32.3259C28.7849 32.5259 28.9069 32.6789 29.0191 32.831C30.5481 34.9093 32.0738 36.991 33.5963 39.0761C33.6807 39.2166 33.8013 39.3308 33.9451 39.4065C34.0889 39.4821 34.2504 39.5163 34.412 39.5051C36.675 39.4861 38.938 39.4861 41.2011 39.5051C41.3596 39.5319 41.5222 39.498 41.6575 39.4098C41.7927 39.3217 41.8909 39.1856 41.9331 39.0281C42.95 36.4847 43.3873 33.7403 43.2122 31.0006C43.2241 30.8876 43.2128 30.7732 43.1788 30.6649C43.1448 30.5565 43.0891 30.4565 43.015 30.3713C42.941 30.2861 42.8503 30.2174 42.7487 30.1698C42.6472 30.1221 42.5369 30.0965 42.4251 30.0945C38.7454 29.481 35.4416 27.445 33.2047 24.4124C32.5012 23.4783 31.9384 22.4291 31.2821 21.3999C27.4644 22.5341 24.8669 25.3006 22.653 28.3792C21.4152 27.0159 20.2916 25.6147 19.0046 24.3844C17.0952 22.4408 14.562 21.2598 11.8672 21.0568C9.95076 20.9724 8.05669 21.5022 6.45264 22.5716C4.8486 23.6409 3.61569 25.1956 2.92817 27.0159C1.59106 30.3981 1.50785 34.1589 2.694 37.5988C2.70814 37.6926 2.74065 37.7826 2.7896 37.8635C2.83855 37.9443 2.90296 38.0144 2.979 38.0695C3.05505 38.1246 3.14119 38.1637 3.23234 38.1843C3.32349 38.205 3.41779 38.2069 3.50967 38.1899C9.75665 38.1709 15.9938 38.1799 22.2408 38.1709C22.4218 38.1554 22.6036 38.1898 22.767 38.2704C22.9304 38.351 23.0695 38.4749 23.1696 38.629C23.6202 39.2581 24.126 39.8492 24.6455 40.4973C25.9905 37.7318 27.2942 35.0624 28.6255 32.3259ZM5.69991 43.5279C5.66252 43.5849 5.61529 43.6519 5.5779 43.7089C6.6002 44.9771 7.56642 46.2924 8.65465 47.5036C12.5898 51.731 17.1928 55.2597 22.2732 57.9434C22.3897 57.9899 22.5148 58.0097 22.6396 58.0014C22.7644 57.9931 22.8859 57.9569 22.9954 57.8954C24.8334 56.7802 26.6999 55.695 28.473 54.4818C32.1912 52.0163 35.4942 48.9579 38.2552 45.4242C38.3772 45.2622 38.4894 45.0901 38.6586 44.8521C36.3326 44.8521 34.1375 44.8421 31.9335 44.8621C31.7348 44.8841 31.5341 44.8484 31.3547 44.7589C31.1752 44.6695 31.0245 44.5301 30.92 44.357C30.5166 43.7369 30.0473 43.1568 29.5602 42.4977C28.2663 45.1582 27.002 47.7316 25.7229 50.3631C25.5536 50.1721 25.4415 50.039 25.3293 49.905C23.8751 48.0647 22.3844 46.2533 20.9774 44.375C20.7922 44.0829 20.5315 43.8482 20.2237 43.6968C19.916 43.5454 19.5732 43.4832 19.2329 43.5169C17.8357 43.5929 16.4375 43.5359 15.0305 43.5359V41.7525C16.9984 41.7525 18.9328 41.7425 20.8642 41.7716C20.9735 41.7907 21.0778 41.8318 21.1712 41.8924C21.2647 41.953 21.3453 42.032 21.4083 42.1246C22.5999 43.5929 23.7629 45.0801 24.9446 46.5674C25.0666 46.7294 25.2073 46.8725 25.3756 47.0725C26.6891 44.393 27.9544 41.7906 29.2493 39.1301C29.4087 39.3211 29.5209 39.4541 29.6242 39.5882C30.3277 40.5413 31.0587 41.4755 31.716 42.4577C31.8447 42.6706 32.0304 42.842 32.2513 42.9518C32.4722 43.0616 32.7192 43.1053 32.9636 43.0778C36.2185 43.0488 39.4822 43.0678 42.737 43.0678H43.347V41.2845H42.6721C39.6219 41.2845 36.5845 41.2745 33.5363 41.2945C33.3849 41.3074 33.2328 41.2789 33.096 41.2119C32.9591 41.1449 32.8424 41.0418 32.758 40.9134C32.0692 39.9502 31.3697 38.9971 30.6661 38.0529C30.1132 37.2998 29.5504 36.5466 28.9403 35.7175C27.6081 38.454 26.3142 41.0944 24.9918 43.8029C24.063 42.6297 23.1725 41.5335 22.3096 40.4083C22.2114 40.2648 22.078 40.1498 21.9228 40.0745C21.7675 39.9993 21.5956 39.9665 21.4241 39.9792C15.0646 39.9886 8.70548 39.9919 2.34667 39.9892C2.15874 39.9892 1.9718 40.0082 1.80256 40.0182V41.8106H9.68089V43.5459C8.33782 43.5289 7.01542 43.5289 5.70679 43.5289L5.69991 43.5279Z" fill="#47BBC6"/>
<path d="M56.4444 16.0528H51.1637C51.2816 14.9721 51.1293 13.8787 50.721 12.8738C50.3127 11.8688 49.6615 10.9849 48.8278 10.3037C47.6908 9.37479 46.2623 8.89395 44.8045 8.94949C43.9453 8.98921 43.1033 9.20742 42.3302 9.59067C41.5571 9.97393 40.8695 10.5141 40.3097 11.1779C39.7499 11.8417 39.3299 12.615 39.0754 13.4501C38.8209 14.2853 38.7374 15.1645 38.8301 16.0338H33.5966C33.4746 11.686 35.0036 8.12034 38.5487 5.6699C40.2901 4.35688 42.3799 3.60698 44.5462 3.51779C46.7126 3.42859 48.8552 4.00424 50.6953 5.16981C54.7471 7.51723 56.5202 11.2739 56.4444 16.0528ZM35.4159 14.2884C35.9226 14.2884 36.3447 14.2694 36.7668 14.2984C37.0955 14.3174 37.1702 14.1654 37.245 13.8604C37.4343 13.0986 37.6722 12.3502 37.9574 11.62C38.2025 11.118 38.4813 10.6338 38.7917 10.1707C38.3883 9.75163 38.0134 9.36056 37.5913 8.93148C36.3435 10.4477 35.5841 12.317 35.4159 14.2864V14.2884ZM54.6153 14.2024C54.4478 12.2953 53.7115 10.4857 52.5048 9.01549C52.0541 9.42557 51.6419 9.79764 51.3241 10.0837C51.7747 11.0939 52.2096 12.038 52.6091 12.9912C52.7872 13.4013 52.7872 14.0494 53.0686 14.2214C53.4346 14.4315 54.0063 14.2694 54.4943 14.2594C54.513 14.2674 54.5317 14.2524 54.6182 14.2014L54.6153 14.2024ZM44.1109 5.42086C42.2167 5.58606 40.4171 6.33447 38.9521 7.56624C39.3644 8.02432 39.7491 8.4434 40.1328 8.87247C41.2865 7.96727 42.6552 7.38827 44.1 7.19417C44.1109 6.58306 44.1109 6.04097 44.1109 5.42086ZM45.9302 7.20417C47.3919 7.39182 48.776 7.9795 49.9348 8.90448C50.3569 8.4854 50.7504 8.07533 51.1725 7.64625C49.6858 6.37973 47.8525 5.60751 45.9203 5.43386C45.9301 6.03997 45.9302 6.61307 45.9302 7.20417Z" fill="#47BBC6"/>
<path d="M49.1025 16.9473C49.4587 17.3473 49.8149 17.7574 50.2281 18.2345C49.5246 18.9586 48.765 19.7698 47.9651 20.5419C47.7661 20.6864 47.6197 20.8937 47.5485 21.1316C47.4773 21.3694 47.4854 21.6245 47.5715 21.8572C47.6929 22.414 47.6278 22.9961 47.3864 23.5109C47.145 24.0258 46.7413 24.4438 46.2393 24.6987C45.7434 24.9614 45.1781 25.0568 44.6253 24.971C44.0726 24.8852 43.561 24.6226 43.1649 24.2214C42.7688 23.8202 42.5086 23.3012 42.4222 22.7396C42.3358 22.178 42.4276 21.603 42.6843 21.098C42.9302 20.5851 43.3385 20.1709 43.8435 19.9219C44.3486 19.6729 44.9213 19.6035 45.4698 19.7248C45.6915 19.8044 45.9326 19.8093 46.1573 19.7389C46.3819 19.6685 46.5783 19.5264 46.7174 19.3337C47.4397 18.5336 48.2179 17.7794 48.9805 17.0073C48.9992 16.9763 49.0464 16.9763 49.1025 16.9473ZM45.8949 22.3342C45.8994 22.2153 45.8804 22.0968 45.8389 21.9855C45.7974 21.8742 45.7344 21.7726 45.6535 21.6866C45.5726 21.6007 45.4755 21.5321 45.368 21.485C45.2605 21.438 45.1447 21.4134 45.0277 21.4127C44.9107 21.4121 44.7947 21.4353 44.6867 21.4811C44.5787 21.527 44.4808 21.5944 44.399 21.6794C44.3171 21.7645 44.2529 21.8654 44.2102 21.9762C44.1675 22.0869 44.1472 22.2053 44.1504 22.3242C44.1566 22.5544 44.2506 22.773 44.4124 22.934C44.5743 23.095 44.7914 23.1857 45.0178 23.187C45.2443 23.1883 45.4624 23.1001 45.6261 22.941C45.7897 22.7818 45.8861 22.5643 45.8949 22.3342Z" fill="#47BBC6"/>
<path d="M41.3903 34.1281H39.7305V32.4028H41.3903V34.1281Z" fill="#47BBC6"/>
<path d="M39.6543 35.9585V37.6748H37.957V35.9585H39.6543Z" fill="#47BBC6"/>
<path d="M11.5 43.51V41.8037H13.1884V43.51H11.5Z" fill="#47BBC6"/>
</svg>
