<svg width="60" height="61" viewBox="0 0 60 61" fill="none" xmlns="http://www.w3.org/2000/svg">
<path d="M35.0368 26.7322H37.9214C39.3931 26.7322 40.8649 26.7222 42.3376 26.7322C42.7519 26.7117 43.1659 26.7782 43.5529 26.9275C43.9399 27.0768 44.2914 27.3055 44.5846 27.5989C44.8779 27.8923 45.1066 28.2439 45.2558 28.631C45.405 29.0181 45.4715 29.4322 45.4511 29.8466C45.4611 33.0301 45.4511 36.2136 45.4511 39.3971C45.4916 39.8313 45.4373 40.2691 45.2921 40.6802C45.1468 41.0914 44.914 41.466 44.6097 41.7783C44.3054 42.0906 43.937 42.333 43.5298 42.4888C43.1227 42.6446 42.6865 42.71 42.2516 42.6806C42.1126 42.6806 41.9827 42.6906 41.7747 42.7106C41.7747 43.7057 41.7847 44.6709 41.7747 45.6361C41.7547 46.4362 41.1978 46.9093 40.5319 46.6802C40.2934 46.5773 40.0796 46.4245 39.905 46.2321C38.8905 45.1973 37.886 44.1495 36.8915 43.0887C36.7773 42.9537 36.6336 42.8467 36.4715 42.776C36.3095 42.7053 36.1333 42.6726 35.9567 42.6806C33.3811 42.7006 30.8046 42.6906 28.219 42.6906C27.7748 42.7351 27.3263 42.6807 26.9056 42.5312C26.4849 42.3817 26.1025 42.1408 25.7859 41.826C25.4693 41.5111 25.2264 41.13 25.0745 40.71C24.9227 40.2901 24.8657 39.8417 24.9076 39.3971V36.5117C24.5284 36.3903 24.1215 36.3862 23.7399 36.4999C23.3584 36.6135 23.02 36.8397 22.769 37.1487C21.9231 38.1639 20.9393 39.0791 20.0244 40.0442C19.8957 40.2396 19.705 40.386 19.4831 40.46C19.2612 40.534 19.0208 40.5312 18.8006 40.4523C18.5863 40.3581 18.4089 40.1961 18.2956 39.9912C18.1823 39.7862 18.1395 39.5497 18.1737 39.3181V36.4827C17.8458 36.4727 17.5738 36.4526 17.2989 36.4426C16.5534 36.417 15.8464 36.1048 15.3251 35.5712C14.8037 35.0375 14.5079 34.3234 14.4994 33.5772C14.4794 30.1947 14.4794 26.8022 14.4994 23.4197C14.5023 23.0246 14.5857 22.6342 14.7442 22.2723C14.9028 21.9104 15.1333 21.5846 15.4218 21.3147C15.7102 21.0448 16.0506 20.8364 16.4221 20.7022C16.7936 20.568 17.1885 20.5109 17.5828 20.5342C20.7253 20.5242 23.8688 20.5342 27.0112 20.5342C28.6419 20.5342 30.2737 20.5242 31.9044 20.5342C32.3235 20.5077 32.7435 20.5709 33.1362 20.7196C33.5289 20.8684 33.8854 21.0992 34.1819 21.3967C34.4784 21.6942 34.708 22.0516 34.8554 22.4449C35.0029 22.8383 35.0647 23.2585 35.0368 23.6777V26.7322ZM39.831 43.1347C39.831 42.7346 39.821 42.2796 39.831 41.8215C39.8115 41.6749 39.8261 41.5258 39.8738 41.3859C39.9216 41.2459 40.001 41.119 40.106 41.0149C40.211 40.9108 40.3387 40.8325 40.479 40.7861C40.6194 40.7397 40.7685 40.7264 40.9148 40.7473C41.3148 40.7373 41.7207 40.7473 42.1286 40.7473C43.1635 40.7373 43.5114 40.3993 43.5114 39.3641V30.0557C43.5114 28.9915 43.1835 28.6725 42.0897 28.6725H28.244C27.1602 28.6725 26.8313 29.0005 26.8313 30.0727V39.3251C26.8313 40.4193 27.1692 40.7473 28.293 40.7473C31.0285 40.7473 33.7731 40.7573 36.5086 40.7373C36.7667 40.727 37.0238 40.7743 37.2612 40.8759C37.4987 40.9774 37.7105 41.1306 37.8814 41.3244C38.4983 41.9645 39.1741 42.5316 39.83 43.1387L39.831 43.1347ZM24.8726 29.4486H24.1667C22.715 29.4486 21.2672 29.4586 19.8105 29.4386C19.6793 29.4509 19.5469 29.4364 19.4214 29.3961C19.296 29.3558 19.18 29.2904 19.0805 29.2039C18.9811 29.1174 18.9002 29.0116 18.8428 28.8929C18.7854 28.7742 18.7527 28.6452 18.7466 28.5135C18.747 28.377 18.7754 28.242 18.8299 28.1169C18.8844 27.9918 18.9639 27.8791 19.0636 27.7859C19.1632 27.6927 19.2809 27.6208 19.4093 27.5748C19.5378 27.5288 19.6743 27.5095 19.8105 27.5183C19.9694 27.5083 20.1284 27.5183 20.2974 27.5183C21.8491 27.5183 23.3969 27.5083 24.9516 27.5283C25.4705 27.5498 25.9847 27.4221 26.4333 27.1602C26.9121 26.907 27.4436 26.77 27.9851 26.7602C29.4768 26.7102 30.9686 26.7402 32.4603 26.7402H33.1072V23.7957C33.1072 22.8006 32.7592 22.4625 31.7544 22.4625H17.6718C16.846 22.4625 16.439 22.8106 16.439 23.5367C16.429 26.8372 16.429 30.1527 16.439 33.4562C16.4298 33.5932 16.4495 33.7307 16.4969 33.8596C16.5442 33.9885 16.6181 34.106 16.7139 34.2045C16.8096 34.303 16.9249 34.3802 17.0524 34.4312C17.1799 34.4821 17.3167 34.5057 17.4539 34.5004C17.8718 34.5204 18.2997 34.5104 18.7267 34.5104C19.8265 34.5104 20.1094 34.7894 20.1094 35.9106V37.0047C20.6795 36.5194 21.2175 35.9975 21.7201 35.4425C21.9633 35.0946 22.299 34.8218 22.6891 34.6548C23.0792 34.4877 23.5083 34.4332 23.9278 34.4974C24.2355 34.5205 24.5444 34.5238 24.8526 34.5073V33.0351H24.2657C22.794 33.0351 21.3222 33.0451 19.8495 33.0351C19.7136 33.0514 19.5758 33.0389 19.445 32.9986C19.3142 32.9582 19.1934 32.8908 19.0903 32.8008C18.9872 32.7108 18.9041 32.6001 18.8465 32.4759C18.7888 32.3517 18.7579 32.2169 18.7556 32.08C18.7606 31.9431 18.7932 31.8087 18.8515 31.6848C18.9097 31.5609 18.9924 31.4501 19.0946 31.359C19.1968 31.2679 19.3163 31.1984 19.4461 31.1548C19.5758 31.1111 19.713 31.0941 19.8495 31.1048C20.0884 31.0948 20.3364 31.1048 20.5753 31.1048H24.8746L24.8726 29.4486Z" fill="#47BBC6"/>
<path d="M53.826 50.7195C54.7334 51.2513 55.613 51.8292 56.4615 52.4508C58.3977 54.0163 59.6438 56.2782 59.9329 58.7517C59.9778 58.909 59.9831 59.0749 59.9482 59.2346C59.9133 59.3944 59.8393 59.543 59.7329 59.6672C59.6266 59.7914 59.491 59.8872 59.3385 59.9461C59.1861 60.0051 59.0213 60.0253 58.8591 60.005C53.0808 60.015 47.2991 60.015 41.5141 60.005C41.3517 60.0277 41.1862 60.0091 41.0329 59.9507C40.8797 59.8923 40.7437 59.7962 40.6375 59.6711C40.5314 59.5461 40.4586 59.3962 40.4258 59.2355C40.3931 59.0748 40.4015 58.9083 40.4503 58.7517C40.6457 57.0705 41.2797 55.4703 42.2888 54.1117C43.2979 52.7531 44.6465 51.684 46.1993 51.0116C46.3283 50.9516 46.4482 50.8925 46.6372 50.8025C45.9648 50.2162 45.4451 49.4751 45.1228 48.6431C44.8006 47.8111 44.6855 46.9132 44.7875 46.0268C44.8622 45.3227 45.0767 44.6405 45.4184 44.0204C45.76 43.4002 46.222 42.8545 46.7772 42.4153C47.8835 41.5226 49.2947 41.0976 50.7098 41.2311C52.1249 41.3646 53.432 42.0459 54.352 43.1297C55.272 44.2135 55.7322 45.6141 55.6345 47.0325C55.5368 48.451 54.8889 49.7752 53.829 50.7225L53.826 50.7195ZM57.7543 58.0517C57.5153 55.0772 53.965 52.2218 50.3946 52.1117C48.6073 52.0414 46.8512 52.5958 45.4281 53.6797C44.005 54.7637 43.0036 56.3095 42.5959 58.0517H57.7543ZM53.677 46.6299C53.6615 45.71 53.2853 44.8331 52.6295 44.188C51.9737 43.543 51.0908 43.1816 50.1711 43.1816C49.2514 43.1816 48.3685 43.543 47.7127 44.188C47.0569 44.8331 46.6807 45.71 46.6652 46.6299C46.6574 47.0954 46.7422 47.5579 46.9149 47.9903C47.0876 48.4226 47.3445 48.8163 47.6709 49.1483C47.9972 49.4803 48.3864 49.744 48.8156 49.924C49.2449 50.104 49.7057 50.1967 50.1711 50.1967C50.6366 50.1967 51.0973 50.104 51.5266 49.924C51.9559 49.744 52.345 49.4803 52.6714 49.1483C52.9977 48.8163 53.2547 48.4226 53.4273 47.9903C53.6 47.5579 53.6848 47.0954 53.677 46.6299Z" fill="#47BBC6"/>
<path d="M13.4655 50.6589C14.6024 51.4111 15.695 52.2282 16.7379 53.1062C18.2747 54.5647 19.2441 56.5215 19.4735 58.6281C19.6024 59.6032 19.2645 60.0013 18.2497 60.0013H1.27158C0.23676 60.0013 -0.128179 59.5733 0.0387925 58.5691C0.269729 56.9021 0.929047 55.3236 1.95231 53.9878C2.97558 52.652 4.32779 51.6046 5.87679 50.948C5.96678 50.9079 6.05576 50.8579 6.20473 50.7889C5.51645 50.1886 4.98868 49.4261 4.6692 48.5704C4.34972 47.7147 4.24862 46.7928 4.37505 45.8882C4.54816 44.511 5.26007 43.2586 6.35471 42.4056C7.4568 41.5233 8.8581 41.103 10.2637 41.2332C11.6693 41.3635 12.9696 42.0341 13.8909 43.1039C14.8122 44.1738 15.2827 45.5595 15.2034 46.9693C15.124 48.3792 14.501 49.7032 13.4655 50.6629V50.6589ZM2.17743 58.031H17.3648C16.9275 56.2493 15.8751 54.6793 14.3934 53.598C12.9117 52.5168 11.0959 51.9937 9.26621 52.1211C5.90679 52.2711 2.52537 55.0666 2.17743 58.031ZM6.25473 46.6593C6.25577 47.3545 6.46336 48.0336 6.85112 48.6105C7.23888 49.1874 7.78931 49.636 8.43249 49.8993C9.07567 50.1626 9.78257 50.2287 10.4634 50.0892C11.1442 49.9498 11.7682 49.611 12.2562 49.116C12.7441 48.621 13.0739 47.9921 13.2038 47.3092C13.3336 46.6262 13.2576 45.9201 12.9854 45.2805C12.7132 44.6408 12.257 44.0966 11.6749 43.7169C11.0928 43.3371 10.411 43.139 9.71613 43.1478C9.25746 43.1478 8.80338 43.2391 8.38026 43.4162C7.95713 43.5933 7.57341 43.8528 7.25137 44.1795C6.92933 44.5062 6.67538 44.8936 6.50429 45.3194C6.3332 45.7451 6.24837 46.2005 6.25473 46.6593Z" fill="#47BBC6"/>
<path d="M26.3825 9.62011C23.9959 6.70466 23.9259 3.77021 26.1435 1.57188C27.1051 0.619071 28.3879 0.0600784 29.7403 0.00456841C31.0926 -0.0509416 32.4169 0.401042 33.4533 1.27184C34.0653 1.77118 34.5579 2.40105 34.8953 3.11539C35.2326 3.82972 35.4061 4.61045 35.4029 5.40046C35.4141 6.16707 35.262 6.92728 34.9567 7.63052C34.6514 8.33376 34.1999 8.96392 33.6323 9.47909C34.6699 10.1304 35.6712 10.8379 36.6317 11.5984C38.3692 13.141 39.4687 15.2766 39.7152 17.5873C39.7516 17.7359 39.7522 17.891 39.717 18.0399C39.6818 18.1888 39.6118 18.3272 39.5127 18.4437C39.4137 18.5603 39.2884 18.6517 39.1472 18.7104C39.006 18.7691 38.8528 18.7935 38.7004 18.7815C38.3424 18.8015 37.9745 18.7915 37.6166 18.7915H21.6093C20.4095 18.7915 20.0776 18.4334 20.2765 17.2493C20.508 15.6557 21.1356 14.1458 22.1018 12.8578C23.0679 11.5698 24.3418 10.5449 25.8066 9.87714C25.9846 9.79913 26.1655 9.72012 26.3825 9.62011ZM37.5716 16.8332C37.1303 15.0778 36.0963 13.5288 34.6446 12.4482C33.1929 11.3676 31.4126 10.8219 29.6049 10.9033C26.1635 11.0423 22.7721 13.8037 22.3842 16.8332H37.5716ZM29.9629 8.954C30.6584 8.95638 31.3389 8.75209 31.9182 8.36704C32.4975 7.98199 32.9494 7.43353 33.2167 6.79121C33.4839 6.14889 33.5545 5.44165 33.4194 4.75917C33.2843 4.07669 32.9496 3.44971 32.4578 2.95775C31.966 2.4658 31.3392 2.13101 30.657 1.99586C29.9747 1.86071 29.2677 1.93129 28.6256 2.19863C27.9835 2.46597 27.4352 2.91804 27.0502 3.49751C26.6653 4.07698 26.4611 4.75774 26.4635 5.45347C26.4669 6.38116 26.837 7.26985 27.4929 7.92564C28.1489 8.58143 29.0375 8.95111 29.9649 8.954H29.9629Z" fill="#47BBC6"/>
<path d="M52.3431 32.2934C52.2541 31.1392 52.2141 29.9851 52.0551 28.8409C51.1092 21.4033 47.4205 14.5873 41.7119 9.72898C41.095 9.1919 40.996 8.6348 41.4119 8.16673C41.7999 7.72867 42.3468 7.73868 42.9037 8.20675C44.8347 9.82937 46.5584 11.684 48.0358 13.7286C51.7042 18.7322 53.8395 24.6946 54.1818 30.8902C54.1918 31.1292 54.2218 31.3673 54.2618 31.7953C54.7197 31.0792 55.0776 30.5021 55.4615 29.935C55.5248 29.8192 55.6115 29.7178 55.716 29.6373C55.8206 29.5567 55.9407 29.4987 56.0688 29.4669C56.1969 29.4351 56.3301 29.4303 56.4602 29.4527C56.5902 29.4751 56.7142 29.5242 56.8243 29.597C56.9317 29.6635 57.0245 29.751 57.0975 29.8541C57.1704 29.9573 57.2219 30.074 57.2488 30.1974C57.2758 30.3208 57.2776 30.4484 57.2544 30.5726C57.2311 30.6967 57.1831 30.8149 57.1133 30.9202C56.0884 32.5814 55.0546 34.2427 53.9908 35.875C53.9118 36.0193 53.796 36.1402 53.6552 36.2253C53.5144 36.3105 53.3536 36.357 53.1891 36.36C53.0246 36.3631 52.8622 36.3226 52.7184 36.2427C52.5746 36.1628 52.4544 36.0463 52.3701 35.905C51.3262 34.4917 50.3115 33.0695 49.3066 31.6273C49.2255 31.5297 49.1653 31.4165 49.1298 31.2946C49.0942 31.1728 49.084 31.045 49.0999 30.919C49.1157 30.7931 49.1572 30.6718 49.2219 30.5626C49.2865 30.4534 49.3728 30.3586 49.4755 30.2841C49.58 30.2045 49.6996 30.1471 49.827 30.1155C49.9544 30.0838 50.0869 30.0786 50.2164 30.1C50.3459 30.1215 50.4696 30.1692 50.58 30.2402C50.6904 30.3113 50.7852 30.4041 50.8584 30.5131C51.3163 31.1132 51.7432 31.7373 52.1911 32.3434C52.2427 32.3299 52.2935 32.3132 52.3431 32.2934Z" fill="#47BBC6"/>
<path d="M15.7464 12.4158C15.6516 12.6149 15.5384 12.8047 15.4085 12.9829C10.6492 18.0518 7.79962 24.6183 7.34786 31.5577C7.24788 32.9409 7.33787 34.3331 7.33787 35.7163C7.33787 35.8753 7.35785 36.0344 7.35785 36.2034C7.37861 36.3389 7.3715 36.4772 7.33692 36.6098C7.30234 36.7424 7.24104 36.8666 7.15678 36.9746C7.07252 37.0827 6.96708 37.1724 6.84692 37.2383C6.72676 37.3041 6.59442 37.3447 6.45801 37.3576C6.32103 37.365 6.18401 37.3436 6.05578 37.2948C5.92756 37.246 5.81096 37.171 5.71348 37.0744C5.61601 36.9778 5.53982 36.8619 5.48983 36.7341C5.43983 36.6063 5.41713 36.4695 5.42319 36.3324C5.33696 34.4227 5.35032 32.5098 5.46319 30.6015C6.07778 23.8282 8.84601 17.4301 13.3618 12.3458C13.5618 12.1267 13.7498 11.8977 14.0617 11.5396C13.2758 11.7087 12.662 11.8577 12.0331 11.9777C11.2972 12.1267 10.8393 11.8977 10.7003 11.3206C10.5513 10.7205 10.8693 10.2764 11.6251 10.0964C13.4248 9.67836 15.2245 9.2603 17.0352 8.87224C17.2048 8.81565 17.3866 8.806 17.5613 8.84429C17.736 8.88259 17.897 8.96743 18.0275 9.0898C18.1579 9.21217 18.2528 9.36753 18.3022 9.53945C18.3516 9.71137 18.3536 9.89345 18.308 10.0664C18.039 11.7377 17.7611 13.3989 17.4821 15.0672C17.4775 15.2039 17.4439 15.3381 17.3837 15.4609C17.3235 15.5837 17.238 15.6924 17.1328 15.7798C17.0276 15.8672 16.905 15.9313 16.7733 15.9679C16.6415 16.0046 16.5035 16.0129 16.3683 15.9923C15.8014 15.9223 15.4935 15.4752 15.5684 14.7921C15.6584 14.056 15.7974 13.3299 15.9164 12.5918C15.8614 12.5258 15.8024 12.4758 15.7464 12.4158Z" fill="#47BBC6"/>
<path d="M21.6997 52.7388C22.2366 53.3258 22.6945 53.8029 23.1314 54.301C23.2349 54.3903 23.3186 54.5002 23.3772 54.6237C23.4358 54.7472 23.4681 54.8816 23.4718 55.0183C23.4756 55.1549 23.4508 55.2909 23.3991 55.4174C23.3474 55.544 23.2698 55.6584 23.1714 55.7532C23.072 55.8474 22.9537 55.9192 22.8244 55.9642C22.6952 56.0091 22.5578 56.026 22.4215 56.0138C22.2851 56.0016 22.153 55.9606 22.0337 55.8934C21.9144 55.8262 21.8108 55.7345 21.7297 55.6242C20.4369 54.241 19.1441 52.8588 17.8703 51.4456C17.7358 51.3335 17.6351 51.186 17.5797 51.0199C17.5242 50.8537 17.5162 50.6753 17.5565 50.5048C17.5968 50.3343 17.6838 50.1785 17.8078 50.0547C17.9318 49.931 18.0878 49.8443 18.2583 49.8043C19.8693 49.1776 21.487 48.5675 23.1114 47.974C23.2307 47.9191 23.3602 47.8897 23.4916 47.8878C23.6229 47.8859 23.7532 47.9116 23.8741 47.9631C23.9949 48.0147 24.1036 48.0909 24.1932 48.187C24.2828 48.2831 24.3513 48.3969 24.3942 48.5211C24.4417 48.6449 24.4629 48.7772 24.4567 48.9096C24.4504 49.042 24.4168 49.1716 24.3578 49.2903C24.2989 49.409 24.216 49.5143 24.1144 49.5993C24.0127 49.6843 23.8945 49.7473 23.7673 49.7843C23.0478 50.046 22.3464 50.3551 21.6677 50.7094C22.6125 50.8985 23.5374 51.1175 24.4922 51.2665C29.9747 52.1295 35.5889 51.4579 40.7134 49.3262C40.9824 49.2172 41.3603 49.0572 41.5683 49.1672C41.9126 49.3362 42.182 49.627 42.3241 49.9833C42.3529 50.0919 42.3594 50.2052 42.3432 50.3163C42.3269 50.4275 42.2884 50.5342 42.2298 50.63C42.1712 50.7258 42.0938 50.8087 42.0022 50.8738C41.9107 50.9388 41.807 50.9847 41.6972 51.0085C40.1055 51.5656 38.5248 52.1827 36.8981 52.6007C32.0412 53.8551 26.9528 53.9132 22.0686 52.7698C21.9876 52.7568 21.9076 52.7568 21.6997 52.7388Z" fill="#47BBC6"/>
<path d="M35.1958 37.3488H39.96C40.7359 37.3488 41.1738 37.6968 41.1738 38.2939C41.1738 38.891 40.7159 39.279 39.974 39.279C36.7516 39.289 33.5391 39.289 30.3167 39.279C29.3818 39.279 28.8349 38.4629 29.3418 37.8168C29.5946 37.5499 29.9397 37.3896 30.3067 37.3687C31.9444 37.3287 33.5751 37.3488 35.1958 37.3488Z" fill="#47BBC6"/>
<path d="M35.1773 35.6766H30.2241C29.9793 35.7024 29.7341 35.6316 29.5408 35.4791C29.3475 35.3266 29.2213 35.1046 29.1893 34.8605C29.1425 34.6511 29.1732 34.4319 29.2756 34.2434C29.378 34.0549 29.5452 33.91 29.7462 33.8353C29.914 33.7702 30.0932 33.7395 30.2731 33.7453C33.5356 33.7453 36.788 33.7353 40.0494 33.7453C40.1847 33.7281 40.322 33.7387 40.4529 33.7765C40.5839 33.8143 40.7058 33.8785 40.811 33.9652C40.9163 34.0518 41.0027 34.1591 41.065 34.2804C41.1273 34.4017 41.1641 34.5344 41.1732 34.6705C41.1718 34.8113 41.1412 34.9502 41.0832 35.0785C41.0252 35.2068 40.9411 35.3217 40.8364 35.4157C40.7316 35.5098 40.6085 35.581 40.4747 35.6249C40.341 35.6688 40.1995 35.6844 40.0595 35.6706C38.4437 35.6866 36.808 35.6766 35.1773 35.6766Z" fill="#47BBC6"/>
<path d="M37.7128 32.0647C36.9269 32.0647 36.1411 32.0747 35.3552 32.0647C34.6793 32.0547 34.2814 31.6867 34.2814 31.1096C34.2789 30.9723 34.3058 30.836 34.3603 30.7099C34.4148 30.5838 34.4955 30.4708 34.5972 30.3784C34.6989 30.2861 34.8191 30.2165 34.9498 30.1745C35.0806 30.1324 35.2188 30.1188 35.3552 30.1345C36.9463 30.1245 38.5377 30.1245 40.1294 30.1345C40.2656 30.1257 40.4021 30.145 40.5305 30.191C40.659 30.237 40.7766 30.3088 40.8763 30.402C40.9759 30.4953 41.0555 30.6079 41.11 30.733C41.1645 30.8581 41.1928 30.9931 41.1932 31.1296C41.1875 31.2605 41.1553 31.3889 41.0987 31.5071C41.0421 31.6252 40.9621 31.7307 40.8637 31.8171C40.7652 31.9036 40.6503 31.9692 40.5258 32.01C40.4013 32.0508 40.2699 32.0661 40.1394 32.0548C39.3235 32.0748 38.5187 32.0647 37.7128 32.0647Z" fill="#47BBC6"/>
<path d="M31.0206 32.0648C30.7206 32.0648 30.4137 32.0848 30.1157 32.0648C29.9942 32.0664 29.8736 32.0439 29.7608 31.9987C29.6479 31.9536 29.5451 31.8865 29.4583 31.8015C29.3714 31.7165 29.3022 31.6151 29.2546 31.5032C29.207 31.3914 29.1819 31.2712 29.1809 31.1496C29.1682 31.0324 29.1791 30.9138 29.213 30.8009C29.2469 30.6879 29.3031 30.5829 29.3782 30.492C29.4533 30.4011 29.5458 30.3262 29.6504 30.2717C29.7549 30.2171 29.8693 30.1841 29.9868 30.1745C30.6882 30.1098 31.394 30.1098 32.0954 30.1745C32.2135 30.182 32.3286 30.2143 32.4333 30.2694C32.5381 30.3244 32.63 30.4008 32.7032 30.4938C32.7764 30.5867 32.8292 30.6941 32.8582 30.8088C32.8871 30.9235 32.8916 31.0431 32.8713 31.1597C32.8735 31.2772 32.8523 31.3941 32.8088 31.5033C32.7653 31.6126 32.7005 31.712 32.6181 31.7959C32.5357 31.8797 32.4373 31.9462 32.3289 31.9916C32.2204 32.0369 32.104 32.0601 31.9864 32.0598C31.6685 32.0898 31.3395 32.0698 31.0216 32.0698L31.0206 32.0648Z" fill="#47BBC6"/>
<path d="M27.219 23.9277C28.0449 23.9277 28.8697 23.9177 29.6956 23.9277C29.8256 23.9133 29.9571 23.9257 30.0822 23.964C30.2072 24.0024 30.3231 24.0659 30.4227 24.1507C30.5223 24.2354 30.6036 24.3396 30.6615 24.4569C30.7194 24.5743 30.7527 24.7021 30.7594 24.8328C30.7661 24.9696 30.7437 25.1063 30.6938 25.2338C30.6439 25.3613 30.5675 25.4768 30.4698 25.5727C30.372 25.6686 30.2551 25.7427 30.1266 25.7902C29.9982 25.8376 29.8612 25.8573 29.7246 25.848C28.0335 25.868 26.3428 25.868 24.6524 25.848C24.5189 25.8579 24.3849 25.8399 24.2587 25.7951C24.1326 25.7503 24.0171 25.6798 23.9197 25.5879C23.8224 25.496 23.7452 25.3848 23.6931 25.2615C23.641 25.1381 23.6152 25.0053 23.6173 24.8714C23.6194 24.7375 23.6493 24.6055 23.7052 24.4839C23.7611 24.3622 23.8418 24.2535 23.942 24.1647C24.0422 24.0759 24.1598 24.009 24.2873 23.9682C24.4148 23.9274 24.5493 23.9136 24.6824 23.9277C25.5323 23.9177 26.3742 23.9277 27.219 23.9277Z" fill="#47BBC6"/>
<path d="M20.4857 25.8474C20.2072 25.864 19.9279 25.8607 19.6498 25.8374C19.4066 25.8177 19.1794 25.7078 19.013 25.5293C18.8465 25.3507 18.7527 25.1164 18.75 24.8723C18.7513 24.7468 18.7773 24.6229 18.8265 24.5075C18.8757 24.3921 18.9471 24.2876 19.0367 24.1998C19.1263 24.112 19.2323 24.0428 19.3487 23.996C19.465 23.9492 19.5894 23.9258 19.7148 23.9271C20.2147 23.9071 20.7147 23.9071 21.2146 23.9271C21.3393 23.9205 21.4641 23.9386 21.5819 23.9802C21.6997 24.0219 21.8081 24.0864 21.9009 24.1699C21.9938 24.2535 22.0693 24.3546 22.123 24.4674C22.1768 24.5802 22.2079 24.7025 22.2144 24.8273C22.2202 24.9584 22.1996 25.0894 22.1539 25.2124C22.1082 25.3354 22.0383 25.4481 21.9484 25.5436C21.8585 25.6392 21.7503 25.7158 21.6302 25.7688C21.5102 25.8218 21.3808 25.8503 21.2496 25.8524C20.9913 25.8723 20.7319 25.8723 20.4737 25.8524L20.4857 25.8474Z" fill="#47BBC6"/>
</svg>
