<svg width="60" height="61" viewBox="0 0 60 61" fill="none" xmlns="http://www.w3.org/2000/svg">
<path d="M40.2932 60.0126C40.2932 55.5625 40.3142 51.1104 40.2832 46.6632C40.3189 46.1856 40.1978 45.7093 39.9384 45.3067C39.6789 44.9041 39.2953 44.5973 38.8457 44.4327C37.3672 43.8495 35.9087 43.1924 34.4472 42.5322C34.3102 42.4467 34.1459 42.4165 33.9874 42.4475C33.829 42.4785 33.6882 42.5685 33.5935 42.6992C32.8437 43.4914 32.042 44.2316 31.2942 45.0338C31.0866 45.2725 30.9624 45.5724 30.9404 45.888C30.9094 47.4404 30.9194 49.0038 30.9194 50.5892H29.045V50.0501C29.045 48.6438 29.055 47.2364 29.035 45.84C29.0275 45.5801 28.932 45.3304 28.7641 45.1318C27.9644 44.2876 27.1286 43.4544 26.2849 42.6512C26.1958 42.5827 26.092 42.5358 25.9817 42.5141C25.8714 42.4924 25.7576 42.4966 25.6492 42.5262C23.9927 43.2144 22.3373 43.8915 20.7228 44.6627C20.3825 44.8546 20.1044 45.1402 19.9217 45.4856C19.739 45.8311 19.6593 46.2218 19.6921 46.6112C19.6712 51.0824 19.6821 55.5525 19.6821 60.0146H17.8108C17.8108 55.5025 17.8208 51.0003 17.8008 46.4882C17.9248 45.3824 18.346 44.3309 19.0194 43.4454C19.1343 43.2454 19.4672 43.1454 19.7072 43.0393C21.4776 42.2681 23.227 41.4759 25.0184 40.7567C25.5912 40.5277 25.6121 40.0686 25.8101 39.6415C26.06 39.1203 25.8621 38.8282 25.4972 38.4531C24.1886 37.1048 23.4564 35.2994 23.4559 33.4199C23.3829 30.7622 23.4139 28.1186 23.4459 25.4579C23.4815 25.0774 23.6645 24.7259 23.9557 24.4786C25.6961 23.1746 27.8119 22.4697 29.9862 22.4697C32.1605 22.4697 34.2762 23.1746 36.0166 24.4786C36.311 24.7442 36.4903 25.1141 36.5165 25.5099C36.5585 28.0315 36.5685 30.5431 36.5265 33.0648C36.5502 34.1222 36.3542 35.173 35.9508 36.1507C35.5474 37.1283 34.9456 38.0115 34.1833 38.7442C34.0752 38.8833 34.0267 39.0595 34.0483 39.2344C34.0839 39.637 34.2402 40.0196 34.4967 40.3319C34.7532 40.6442 35.098 40.8718 35.4858 40.9848C37.1423 41.5999 38.7557 42.3391 40.3702 43.0853C40.7385 43.2835 41.0486 43.5745 41.2699 43.9295C41.9556 45.021 42.2799 46.301 42.1966 47.5875C42.1346 51.7245 42.1756 55.8616 42.1756 59.9986C41.5368 60.0126 40.922 60.0126 40.2932 60.0126ZM34.6591 31.7925C34.1465 31.7241 33.6551 31.544 33.2197 31.2649C32.7842 30.9858 32.4153 30.6144 32.1389 30.1771C32.0153 30.0682 31.8558 30.0087 31.6911 30.01C30.5555 30 29.4309 30 28.2922 30.01C28.1363 30.01 27.9074 30.062 27.8444 30.1771C27.5699 30.6161 27.2015 30.9887 26.7657 31.268C26.3299 31.5473 25.8376 31.7265 25.3243 31.7925C25.1622 33.3834 25.4816 34.9864 26.2409 36.3936C26.609 36.9615 27.101 37.4385 27.6799 37.7886C28.2588 38.1388 28.9095 38.353 29.5831 38.4152C30.2567 38.4774 30.9356 38.386 31.5688 38.1477C32.2019 37.9095 32.7729 37.5307 33.2386 37.0398C34.382 35.545 34.8932 33.6606 34.6621 31.7925H34.6591ZM34.6691 29.833C34.6691 28.5196 34.6791 27.2693 34.6591 26.019C34.6457 25.9303 34.6137 25.8455 34.5653 25.77C34.5169 25.6945 34.4532 25.6301 34.3782 25.5809C33.0599 24.7694 31.5429 24.3389 29.9951 24.3372C28.4473 24.3354 26.9293 24.7624 25.6092 25.5709C25.5353 25.6072 25.4707 25.6599 25.4201 25.7249C25.3695 25.7898 25.3344 25.8654 25.3173 25.946C25.2963 27.2273 25.3073 28.4996 25.3073 29.823C25.8591 29.7079 26.182 29.4789 26.2649 28.9578C26.2868 28.7192 26.4018 28.4989 26.5851 28.3448C26.7683 28.1906 27.005 28.1151 27.2436 28.1346C29.077 28.1246 30.9094 28.1246 32.7328 28.1346C32.9703 28.1126 33.2069 28.1859 33.3904 28.3384C33.5739 28.4909 33.6894 28.7101 33.7114 28.9477C33.7954 29.4689 34.1103 29.7079 34.6731 29.833H34.6691ZM29.9827 43.6935C30.6825 42.9853 31.3362 42.3281 31.993 41.661C32.7118 40.9418 32.7118 40.9418 32.2219 39.9205C30.7113 40.4243 29.0754 40.4059 27.5765 39.8685C27.5555 40.3786 27.3576 40.9418 27.5455 41.1689C28.2782 42.0571 29.132 42.8283 29.9867 43.6935H29.9827Z" fill="#47BBC6"/>
<path d="M0.000720215 27.7801C2.70848 24.0912 5.4199 20.4023 8.13498 16.7133C8.86374 15.7231 9.5825 14.7228 10.3223 13.7436C10.9161 12.9514 11.5828 12.9514 12.1656 13.7436C15.4778 18.256 18.7897 22.7719 22.1013 27.291C22.3722 27.6661 22.6221 28.0412 22.3822 28.5203C22.1323 29.0204 21.6824 29.0724 21.1946 29.0724C20.095 29.0624 18.9763 29.0724 17.8307 29.0724V35.5861H15.9773C15.9674 35.419 15.9464 35.253 15.9464 35.076V28.4523C15.9464 27.4941 16.2593 27.191 17.2069 27.181C17.9677 27.181 18.7274 27.181 19.4882 27.171C19.5192 27.171 19.5511 27.14 19.6551 27.0879C16.8641 23.287 14.083 19.481 11.2579 15.625C8.43588 19.481 5.66481 23.264 2.82177 27.14H11.2189V29.0264H6.6055V45.8877H4.71913V29.0614H2.71981C2.25096 29.0614 1.78212 29.0404 1.31428 29.0614C1.05236 29.0993 0.785203 29.0517 0.552514 28.9256C0.319825 28.7994 0.134025 28.6015 0.022716 28.3613C0.00488642 28.1681 -0.00245841 27.9741 0.000720215 27.7801Z" fill="#47BBC6"/>
<path d="M59.9707 28.3738C59.8562 28.6119 59.6701 28.8082 59.4385 28.9352C59.2069 29.0622 58.9414 29.1135 58.6792 29.082C57.5795 29.051 56.4609 29.072 55.2803 29.072V45.9122H53.4159V29.093H48.7605V27.2175H57.1867C54.3226 23.3095 51.5416 19.5156 48.7195 15.6606C45.8975 19.5056 43.1264 23.2995 40.2523 27.2075H42.2417C42.5126 27.2075 42.7935 27.1975 43.0644 27.2175C43.1927 27.2114 43.3209 27.2324 43.4406 27.2791C43.5603 27.3258 43.6688 27.3971 43.7592 27.4885C43.8495 27.58 43.9196 27.6894 43.9649 27.8097C44.0102 27.9299 44.0297 28.0584 44.0221 28.1868C44.0431 30.6464 44.0321 33.106 44.0321 35.6066H42.1927V29.083H40.1334C39.6646 29.083 39.1957 29.073 38.7279 29.083C38.5047 29.12 38.2756 29.0868 38.0722 28.9879C37.8687 28.8889 37.701 28.7292 37.5922 28.5308C37.5074 28.331 37.4859 28.1099 37.5305 27.8974C37.5752 27.6849 37.684 27.4912 37.8421 27.3425C40.6019 23.5803 43.3583 19.8183 46.1114 16.0567C46.6742 15.2855 47.236 14.5143 47.8108 13.7431C48.4046 12.9509 49.0714 12.9619 49.6542 13.7531C53.081 18.4209 56.5005 23.0965 59.9127 27.7796C59.9227 27.7896 59.9547 27.7897 59.9647 27.7897C59.9707 27.9777 59.9707 28.1758 59.9707 28.3738Z" fill="#47BBC6"/>
<path d="M30.213 0.00700556C30.5121 0.246849 30.7876 0.514802 31.0357 0.807204C34.2746 5.20498 37.5068 9.60977 40.7324 14.0216C40.8154 14.1366 40.9403 14.2296 40.9613 14.3546C41.0343 14.6987 41.2112 15.1258 41.0763 15.3759C40.9686 15.5264 40.8304 15.6524 40.6707 15.7458C40.511 15.8393 40.3335 15.8979 40.1496 15.918C39.1599 15.9911 38.1603 15.939 37.1706 15.939H36.5558V19.649H34.6914C34.6914 18.0546 34.6604 16.4602 34.7124 14.8658C34.7334 14.3026 35.2023 14.0656 35.7541 14.0656H38.4412C35.5871 10.1646 32.8071 6.37462 29.984 2.51864C27.162 6.36362 24.3909 10.1576 21.5169 14.0656H23.2163C23.5702 14.0656 23.9161 14.0556 24.2679 14.0656C24.4005 14.0513 24.5347 14.0662 24.6609 14.1092C24.7872 14.1523 24.9025 14.2224 24.9988 14.3148C25.0951 14.4071 25.17 14.5194 25.2183 14.6438C25.2667 14.7682 25.2873 14.9016 25.2786 15.0348C25.2996 16.5562 25.2886 18.0776 25.2886 19.636H23.4432V15.931H21.3839C20.9151 15.931 20.4462 15.921 19.9784 15.931C19.7553 15.9681 19.5261 15.9348 19.3227 15.8359C19.1193 15.737 18.9516 15.5773 18.8428 15.3789C18.7575 15.1809 18.7358 14.9613 18.7805 14.7505C18.8253 14.5396 18.9343 14.3478 19.0927 14.2016C21.8524 10.4393 24.6088 6.67736 27.3619 2.91574C27.8827 2.20756 28.3826 1.48838 28.9244 0.800206C29.1778 0.512836 29.4529 0.245315 29.7471 0C29.9111 0.00700177 30.057 0.00700556 30.213 0.00700556Z" fill="#47BBC6"/>
<path d="M22.4844 60.0122V54.4268H24.3587V60.0122H22.4844Z" fill="#47BBC6"/>
<path d="M35.6094 60.0122V54.4268H37.4837V60.0122H35.6094Z" fill="#47BBC6"/>
<path d="M15.9766 37.5234H17.758V39.3369H15.9766V37.5234Z" fill="#47BBC6"/>
<path d="M44.0103 37.5332V39.3256H42.2109V37.5332H44.0103Z" fill="#47BBC6"/>
<path d="M6.52187 49.675H4.73047V47.8516H6.52187V49.675Z" fill="#47BBC6"/>
<path d="M53.4297 49.644V47.8516H55.2521V49.644H53.4297Z" fill="#47BBC6"/>
</svg>
