<svg width="60" height="61" viewBox="0 0 60 61" fill="none" xmlns="http://www.w3.org/2000/svg">
<path d="M52.0096 41.123C51.1696 41.632 50.3816 42.09 49.6176 42.582C49.5457 42.6316 49.4851 42.6958 49.4398 42.7704C49.3945 42.845 49.3654 42.9284 49.3546 43.015C49.3414 43.574 49.2117 44.1241 48.9737 44.6301C48.7356 45.1361 48.3945 45.5867 47.9722 45.9532C47.5499 46.3197 47.0557 46.5939 46.5212 46.7584C45.9868 46.9228 45.4238 46.9737 44.8686 46.908C44.797 46.9056 44.7256 46.914 44.6566 46.933C44.6891 48.0064 44.3013 49.0502 43.5759 49.842C42.8505 50.6339 41.8447 51.1115 40.7726 51.173C40.8535 51.8084 40.7871 52.4539 40.5785 53.0596C40.37 53.6652 40.0249 54.2148 39.5699 54.6657C39.1149 55.1166 38.5623 55.4568 37.9548 55.6599C37.3473 55.863 36.7012 55.9236 36.0666 55.837C36.0076 56.219 35.9816 56.617 35.8886 56.99C35.7467 57.5733 35.474 58.1168 35.0912 58.5793C34.7084 59.0418 34.2254 59.4112 33.6788 59.6595C33.1322 59.9078 32.5363 60.0287 31.9361 60.0128C31.336 59.997 30.7473 59.8448 30.2146 59.568C30.0266 59.4522 29.8133 59.384 29.5931 59.3692C29.3728 59.3544 29.1523 59.3934 28.9506 59.483C28.118 59.8042 27.2013 59.834 26.3497 59.5676C25.498 59.3012 24.7617 58.7543 24.2606 58.016C24.1676 57.88 24.0736 57.745 23.9606 57.567C23.425 58.0045 22.7863 58.2974 22.1054 58.418C21.4244 58.5385 20.724 58.4826 20.0708 58.2556C19.4176 58.0286 18.8335 57.638 18.3741 57.1211C17.9147 56.6042 17.5954 55.9783 17.4466 55.303C16.788 55.5167 16.0851 55.5553 15.4071 55.4151C14.7291 55.2748 14.0993 54.9605 13.5796 54.503C13.0544 54.0597 12.6543 53.4868 12.4192 52.841C12.1842 52.1952 12.1222 51.4991 12.2396 50.822C11.8496 50.763 11.4676 50.729 11.0866 50.644C10.2432 50.4649 9.48421 50.0083 8.93079 49.3473C8.37738 48.6862 8.06148 47.8587 8.03356 46.997C8.05502 46.6295 7.99568 46.2618 7.85971 45.9197C7.72374 45.5776 7.51444 45.2695 7.24656 45.017C7.01756 44.78 6.82256 44.508 6.57656 44.211L6.27156 44.627C6.20787 44.7488 6.11819 44.8551 6.00887 44.9384C5.89955 45.0217 5.77327 45.0799 5.63894 45.109C5.50462 45.1381 5.36555 45.1374 5.23156 45.1068C5.09757 45.0762 4.97194 45.0165 4.86356 44.932C3.37056 43.914 1.86956 42.888 0.436558 41.786C0.154351 41.4697 0.00530024 41.0566 0.0205577 40.633C-0.00444234 34.094 0.00355556 27.547 0.00355556 21.008C0.00355556 19.422 -0.00444444 17.845 0.00355556 16.259C0.0115556 15.14 0.741556 14.715 1.70356 15.275C6.68156 18.2083 11.6656 21.137 16.6556 24.061C17.4696 24.536 17.5796 24.994 17.1306 25.817C17.0306 25.995 16.9306 26.173 16.8426 26.36C17.2273 26.6879 17.6741 26.9349 18.1564 27.0865C18.6386 27.238 19.1464 27.2909 19.6496 27.242C21.4136 27.225 23.1856 27.115 24.9496 27.013C25.2316 26.9575 25.4928 26.8253 25.7046 26.631C28.1092 24.6926 30.8647 23.2357 33.8206 22.34C35.2966 21.933 36.8396 21.78 38.3496 21.517C38.5106 21.492 38.6716 21.483 38.8326 21.458C38.8496 21.39 38.8666 21.322 38.8836 21.246C38.6227 21.1399 38.349 21.0686 38.0696 21.034C34.2196 21.017 30.3606 20.941 26.5106 21.051C25.9016 21.1056 25.288 21.0258 24.7133 20.8172C24.1386 20.6086 23.6167 20.2763 23.1845 19.8439C22.7523 19.4114 22.4203 18.8893 22.2121 18.3144C22.0039 17.7395 21.9245 17.1259 21.9796 16.517C21.9876 16.373 21.9796 16.229 21.9796 15.898C21.664 16.0033 21.3645 16.1517 21.0896 16.339C20.0126 17.382 18.9606 18.451 17.9006 19.519C17.5446 19.875 17.1716 20.164 16.6366 19.952C16.0766 19.74 15.9756 19.274 15.9756 18.731C15.9836 13.88 15.9756 9.02098 15.9836 4.16998C15.9605 3.61557 16.0535 3.06245 16.2565 2.54603C16.4595 2.0296 16.7681 1.56124 17.1625 1.1709C17.5569 0.78056 18.0284 0.47684 18.5469 0.279175C19.0654 0.0815108 19.6194 -0.00574593 20.1736 0.0229841C24.6509 0.0189841 29.1286 0.0169835 33.6066 0.0169835C34.1914 -0.0369877 34.781 0.0380463 35.3337 0.23679C35.8864 0.435534 36.3887 0.753145 36.8053 1.16721C37.2218 1.58128 37.5424 2.08172 37.7444 2.63321C37.9465 3.18471 38.025 3.77382 37.9746 4.35898V5.01698H39.7136C40.2832 4.97895 40.8544 5.0633 41.3887 5.26436C41.9231 5.46542 42.4082 5.77854 42.8114 6.18266C43.2147 6.58678 43.5268 7.07255 43.7267 7.6073C43.9266 8.14206 44.0098 8.71342 43.9706 9.28298V21.583H46.8036C46.7356 21.295 46.6766 21.04 46.6036 20.783C46.3406 19.783 46.5106 19.46 47.5196 19.095C50.4709 18.0283 53.4222 16.957 56.3736 15.881C57.0186 15.644 57.6626 15.406 58.3076 15.181C59.3936 14.791 59.9616 15.181 59.9696 16.326V38.503C59.9696 39.58 59.8846 39.703 58.8756 40.123C57.2986 40.776 55.7296 41.438 54.1516 42.091C52.8246 42.667 52.5186 42.531 52.0096 41.123ZM15.8096 28.105C13.0466 32.88 10.3266 37.587 7.59656 42.311C8.03756 42.854 8.46156 43.38 8.92756 43.956C9.07156 43.727 9.18156 43.556 9.28356 43.379C9.86856 42.37 10.4286 41.352 11.0396 40.36C11.4592 39.6655 12.0809 39.1156 12.8215 38.784C13.5621 38.4523 14.3863 38.3547 15.1838 38.5041C15.9814 38.6535 16.7144 39.0428 17.2847 39.6199C17.8551 40.1971 18.2357 40.9347 18.3756 41.734C18.4348 42.2011 18.4682 42.6712 18.4756 43.142C19.5431 43.1155 20.5785 43.5081 21.36 44.2358C22.1415 44.9635 22.6069 45.9683 22.6566 47.035C23.6895 46.8942 24.7379 47.1443 25.596 47.7362C26.4542 48.3282 27.0603 49.2193 27.2956 50.235C28.9956 49.624 30.3656 50.435 31.7396 51.261C32.9866 52.016 34.2586 52.728 35.5216 53.449C35.7492 53.6174 36.0099 53.7358 36.2865 53.7965C36.5631 53.8572 36.8494 53.8588 37.1267 53.8012C37.4039 53.7436 37.6659 53.628 37.8954 53.4622C38.1249 53.2963 38.3168 53.0838 38.4586 52.8386C38.6003 52.5935 38.6886 52.3211 38.7178 52.0394C38.747 51.7578 38.7163 51.4731 38.6279 51.2041C38.5394 50.9351 38.3951 50.6878 38.2045 50.4784C38.0138 50.269 37.7811 50.1022 37.5216 49.989C36.4786 49.378 35.4356 48.776 34.3836 48.174C34.1818 48.0867 34.0141 47.9359 33.9058 47.7446C33.7975 47.5533 33.7546 47.3319 33.7836 47.114C33.8048 46.9417 33.8708 46.7779 33.975 46.639C34.0792 46.5002 34.218 46.391 34.3775 46.3224C34.537 46.2538 34.7117 46.2282 34.8842 46.2482C35.0566 46.2681 35.2209 46.3328 35.3606 46.436C36.7176 47.199 38.0486 48.022 39.4226 48.76C39.8759 49.0014 40.3852 49.1184 40.8986 49.099C41.307 49.0571 41.6905 48.8828 41.9906 48.6026C42.2907 48.3223 42.4909 47.9516 42.5606 47.547C42.6432 47.1349 42.5923 46.7072 42.4154 46.326C42.2384 45.9448 41.9446 45.6299 41.5766 45.427C40.4466 44.753 39.3056 44.117 38.1866 43.439C38.063 43.3814 37.9531 43.2984 37.8639 43.1954C37.7747 43.0924 37.7083 42.9717 37.669 42.8412C37.6297 42.7107 37.6184 42.5734 37.6359 42.4382C37.6535 42.3031 37.6993 42.1732 37.7706 42.057C37.8404 41.9408 37.9329 41.8398 38.0425 41.76C38.1521 41.6802 38.2766 41.6232 38.4086 41.5923C38.5406 41.5615 38.6775 41.5574 38.8111 41.5804C38.9447 41.6033 39.0724 41.6528 39.1866 41.726C39.3306 41.802 39.4746 41.887 39.6196 41.972C41.1716 42.862 42.7196 43.772 44.2666 44.652C44.4949 44.799 44.7509 44.898 45.0188 44.9429C45.2867 44.9878 45.5609 44.9777 45.8248 44.9131C46.0886 44.8485 46.3366 44.7309 46.5535 44.5673C46.7703 44.4038 46.9516 44.1978 47.0863 43.9618C47.221 43.7259 47.3061 43.4651 47.3367 43.1951C47.3672 42.9252 47.3424 42.6519 47.2638 42.3919C47.1852 42.1319 47.0545 41.8906 46.8796 41.6827C46.7047 41.4749 46.4893 41.3048 46.2466 41.183C41.9299 38.681 37.6076 36.181 33.2796 33.683C32.9658 33.4789 32.6003 33.3689 32.226 33.3659C31.8518 33.3628 31.4845 33.467 31.1676 33.666C29.3866 34.658 27.5886 35.617 25.7906 36.575C25.3605 36.8261 24.9111 37.0425 24.4466 37.222C23.5491 37.587 22.5483 37.6071 21.6369 37.2783C20.7256 36.9494 19.9682 36.295 19.5106 35.441C19.0543 34.5757 18.931 33.5732 19.1639 32.6231C19.3969 31.673 19.9699 30.8412 20.7746 30.285C21.1646 29.985 21.5546 29.7 22.0806 29.301C19.8336 29.233 17.6886 29.505 15.8056 28.105H15.8096ZM43.9916 23.593C43.9996 24.255 43.8986 24.729 43.3386 24.95C42.7386 25.187 42.3546 24.831 41.9816 24.441C41.855 24.3331 41.7386 24.2139 41.6336 24.085C41.4573 23.856 41.2251 23.6764 40.9592 23.5634C40.6932 23.4504 40.4027 23.4079 40.1156 23.44C37.2348 23.4138 34.3844 24.0287 31.7706 25.24C29.2988 26.5297 26.9608 28.0608 24.7906 29.811C23.7986 30.54 22.8066 31.253 21.8306 32.011C21.4864 32.271 21.2386 32.6383 21.1265 33.0548C21.0144 33.4713 21.0443 33.9134 21.2116 34.311C21.3392 34.6907 21.5957 35.0137 21.9364 35.2243C22.2772 35.4349 22.6809 35.5196 23.0776 35.464C23.6087 35.3721 24.1214 35.1944 24.5956 34.938C26.5466 33.92 28.4886 32.869 30.4216 31.817C30.991 31.4846 31.6405 31.3144 32.2998 31.3248C32.959 31.3352 33.6029 31.5258 34.1616 31.876C34.7976 32.232 35.4506 32.563 36.0526 32.97C36.6942 33.4053 37.4577 33.6252 38.2326 33.598C39.4706 33.573 40.6916 33.505 41.5236 32.334C41.5948 32.2354 41.6852 32.1523 41.7895 32.0896C41.8937 32.027 42.0095 31.9861 42.13 31.9695C42.2505 31.9528 42.3731 31.9608 42.4904 31.9928C42.6077 32.0249 42.7173 32.0804 42.8126 32.156C42.9193 32.222 43.0119 32.3084 43.0851 32.4104C43.1582 32.5123 43.2105 32.6277 43.2388 32.75C43.2672 32.8722 43.2711 32.9989 43.2503 33.1226C43.2294 33.2463 43.1843 33.3647 43.1176 33.471C42.6443 34.2667 41.9007 34.8658 41.0226 35.159C40.8226 35.235 40.6326 35.312 40.3356 35.422C40.9126 35.753 41.3956 36.007 41.8456 36.296C44.1526 37.789 46.7896 38.772 48.8256 40.723C49.5716 40.274 50.3256 39.799 51.1066 39.358C51.1775 39.3328 51.2424 39.293 51.297 39.2412C51.3516 39.1893 51.3947 39.1265 51.4235 39.0569C51.4522 38.9873 51.466 38.9125 51.464 38.8372C51.4619 38.7619 51.4441 38.6879 51.4116 38.62C50.9626 37.043 50.5546 35.448 50.1306 33.862C49.2566 30.605 48.3916 27.362 47.5016 24.109C47.4506 23.909 47.2476 23.626 47.1116 23.617C46.0736 23.568 45.0556 23.594 43.9876 23.594L43.9916 23.593ZM17.9916 16.605C18.7376 15.859 19.3826 15.24 19.9916 14.587C20.1644 14.3945 20.3784 14.2435 20.6177 14.1452C20.857 14.0468 21.1153 14.0037 21.3736 14.019C25.4736 14.036 29.5736 14.027 33.6736 14.027C33.9858 14.0719 34.3042 14.0439 34.6039 13.9451C34.9035 13.8463 35.1761 13.6794 35.4004 13.4575C35.6247 13.2357 35.7945 12.9648 35.8965 12.6663C35.9986 12.3678 36.0301 12.0497 35.9886 11.737V4.30798C36.0308 3.9993 36.0013 3.68503 35.9022 3.38964C35.8031 3.09425 35.6372 2.82573 35.4173 2.60498C35.1974 2.38424 34.9295 2.21723 34.6346 2.11698C34.3396 2.01672 34.0254 1.98592 33.7166 2.02698C29.2219 2.02698 24.7272 2.02965 20.2326 2.03499C19.9298 2.0002 19.623 2.03412 19.3351 2.13422C19.0472 2.23432 18.7856 2.39803 18.5697 2.61317C18.3538 2.82831 18.1891 3.08935 18.088 3.37688C17.9869 3.66442 17.9519 3.97105 17.9856 4.27398V16.605H17.9916ZM15.0466 25.434C10.6876 22.873 6.37956 20.346 1.99456 17.776V28.224C1.99456 32.142 1.98656 36.06 2.00256 39.97C1.99113 40.2263 2.07928 40.4771 2.24855 40.67C3.15555 41.357 4.10556 41.993 5.08956 42.688C8.40156 36.934 11.7006 31.226 15.0466 25.434ZM53.8466 40.08C55.1016 39.554 56.2636 39.045 57.4466 38.587C57.6201 38.5408 57.7705 38.4322 57.8691 38.282C57.9676 38.1318 58.0073 37.9506 57.9806 37.773C57.9636 31.217 57.9726 24.662 57.9726 18.106V17.461C54.8346 18.597 51.7816 19.7 48.6866 20.819C50.4076 27.249 52.1116 33.617 53.8466 40.08ZM24.0316 16.029C23.7316 17.971 24.6086 19.099 26.6696 19.057C30.5796 18.972 34.4976 19.049 38.4156 19.015C38.7338 18.9921 39.053 19.0433 39.348 19.1648C39.643 19.2863 39.9058 19.4746 40.1156 19.715C40.6666 20.343 41.2856 20.902 41.9726 21.598C41.9726 17.239 41.9806 13.058 41.9646 8.86799C41.962 8.44447 41.8102 8.03542 41.5359 7.71278C41.2615 7.39013 40.8822 7.17456 40.4646 7.10399C39.6377 7.04031 38.8075 7.03195 37.9796 7.07898V11.737C38.0207 12.3115 37.9376 12.8881 37.7358 13.4275C37.534 13.967 37.2183 14.4566 36.8103 14.8631C36.4022 15.2695 35.9113 15.5833 35.3711 15.7829C34.8308 15.9826 34.2539 16.0634 33.6796 16.02C32.0796 16.028 30.4736 16.02 28.8706 16.02C27.2676 16.02 25.6606 16.029 24.0316 16.029ZM9.89456 46.704C9.91089 47.1518 10.068 47.583 10.3436 47.9364C10.6192 48.2897 10.9992 48.5471 11.4296 48.672C11.8514 48.8004 12.3044 48.7804 12.7132 48.6153C13.1221 48.4503 13.4621 48.1502 13.6766 47.765C14.5076 46.374 15.3136 44.965 16.1106 43.559C16.2653 43.3311 16.3713 43.0738 16.422 42.803C16.4726 42.5323 16.4668 42.254 16.4048 41.9856C16.3429 41.7173 16.2262 41.4646 16.0621 41.2434C15.8979 41.0222 15.6899 40.8373 15.4509 40.7003C15.212 40.5633 14.9473 40.4771 14.6735 40.4472C14.3997 40.4172 14.1227 40.4442 13.8598 40.5263C13.5969 40.6084 13.3538 40.7439 13.1457 40.9244C12.9376 41.1048 12.769 41.3263 12.6506 41.575C11.8616 42.915 11.0816 44.263 10.3266 45.62C10.1565 45.9704 10.0121 46.3327 9.89456 46.704ZM20.7156 47.187C20.7003 46.7409 20.5432 46.3112 20.2672 45.9604C19.9912 45.6096 19.6106 45.3558 19.1806 45.236C18.758 45.1103 18.305 45.1335 17.8975 45.3017C17.49 45.4699 17.1525 45.7729 16.9416 46.16C16.1106 47.551 15.3046 48.96 14.5076 50.366C14.3666 50.5929 14.2726 50.8458 14.231 51.1097C14.1894 51.3735 14.2011 51.6431 14.2654 51.9024C14.3297 52.1616 14.4453 52.4054 14.6054 52.6193C14.7654 52.8332 14.9667 53.0128 15.1973 53.1476C15.4279 53.2824 15.6832 53.3697 15.9481 53.4042C16.213 53.4388 16.4821 53.4199 16.7396 53.3487C16.997 53.2775 17.2376 53.1555 17.4472 52.9898C17.6567 52.8241 17.8309 52.6181 17.9596 52.384C18.7736 51.01 19.5706 49.619 20.3516 48.228C20.4955 47.8893 20.6171 47.5416 20.7156 47.187ZM19.2826 54.472C19.3075 54.9087 19.4656 55.3273 19.7355 55.6714C20.0055 56.0156 20.3744 56.2688 20.7926 56.397C21.2129 56.5337 21.6675 56.5214 22.0798 56.3622C22.4922 56.203 22.8371 55.9067 23.0566 55.523C23.7346 54.404 24.3796 53.267 25.0246 52.123C25.1742 51.8972 25.2764 51.6434 25.325 51.3769C25.3736 51.1104 25.3676 50.8368 25.3073 50.5728C25.2469 50.3087 25.1336 50.0596 24.9741 49.8407C24.8147 49.6217 24.6124 49.4374 24.3796 49.299C24.1436 49.1542 23.8799 49.0606 23.6055 49.0242C23.3311 48.9878 23.0521 49.0095 22.7866 49.0879C22.5212 49.1662 22.2751 49.2995 22.0644 49.479C21.8537 49.6585 21.6831 49.8803 21.5636 50.13C20.9276 51.207 20.2996 52.284 19.6976 53.37C19.5357 53.728 19.3971 54.0961 19.2826 54.472ZM27.7036 57.763C27.9989 57.7484 28.2864 57.6629 28.5418 57.5137C28.7971 57.3646 29.0128 57.1561 29.1706 56.906C29.5894 56.2634 29.9746 55.5995 30.3246 54.917C30.5519 54.4678 30.5996 53.949 30.4578 53.4659C30.3161 52.9829 29.9956 52.572 29.5616 52.317C29.1342 52.0473 28.6179 51.9566 28.1242 52.0646C27.6306 52.1725 27.1993 52.4705 26.9236 52.894C26.4829 53.5435 26.0895 54.224 25.7466 54.93C25.6034 55.2458 25.5444 55.5933 25.5754 55.9387C25.6064 56.2841 25.7263 56.6155 25.9235 56.9008C26.1207 57.1861 26.3883 57.4154 26.7005 57.5665C27.0126 57.7176 27.3575 57.7853 27.7036 57.763ZM32.7586 54.184C32.1986 55.405 31.6646 56.584 31.1386 57.754C31.3655 57.8823 31.6163 57.9628 31.8755 57.9902C32.1348 58.0177 32.3969 57.9917 32.6457 57.9138C32.8945 57.8359 33.1246 57.7078 33.3219 57.5374C33.5192 57.3669 33.6794 57.1578 33.7926 56.923C33.9218 56.6782 33.9976 56.4088 34.0148 56.1325C34.0321 55.8562 33.9905 55.5795 33.8927 55.3205C33.7949 55.0615 33.6433 54.8263 33.4478 54.6304C33.2522 54.4344 33.0173 54.2823 32.7586 54.184Z" fill="#47BBC6"/>
<path d="M23.9721 7.99845C23.9786 8.19638 23.9261 8.39178 23.8214 8.55987C23.7167 8.72796 23.5644 8.86117 23.3839 8.94262C23.2034 9.02406 23.0028 9.05008 22.8074 9.01735C22.6121 8.98463 22.4309 8.89465 22.2868 8.75882C22.1427 8.62298 22.0421 8.44742 21.9979 8.25438C21.9537 8.06133 21.9678 7.85951 22.0384 7.67449C22.109 7.48947 22.233 7.32958 22.3946 7.2151C22.5562 7.10062 22.7481 7.0367 22.9461 7.03144C23.2097 7.02626 23.4648 7.12464 23.6566 7.30544C23.8484 7.48624 23.9617 7.73505 23.9721 7.99845Z" fill="#47BBC6"/>
<path d="M26.9481 9.0228C26.7518 9.01779 26.5613 8.95466 26.4009 8.8414C26.2404 8.72814 26.1171 8.56984 26.0466 8.38651C25.9761 8.20319 25.9616 8.00307 26.0048 7.81148C26.0481 7.61989 26.1472 7.44542 26.2896 7.31015C26.432 7.17488 26.6113 7.08488 26.8049 7.05153C26.9984 7.01818 27.1975 7.04298 27.377 7.12279C27.5565 7.20261 27.7082 7.33386 27.8131 7.49993C27.918 7.666 27.9712 7.85944 27.9661 8.05579C27.9575 8.31839 27.8459 8.56705 27.6554 8.748C27.4649 8.92895 27.2108 9.02767 26.9481 9.0228Z" fill="#47BBC6"/>
<path d="M31.0031 9.02278C30.8067 9.02786 30.6133 8.97459 30.4472 8.86972C30.2811 8.76485 30.1499 8.61309 30.0701 8.43363C29.9903 8.25416 29.9654 8.05507 29.9988 7.86151C30.0321 7.66795 30.1222 7.48862 30.2574 7.34622C30.3927 7.20381 30.5671 7.10472 30.7587 7.06148C30.9503 7.01823 31.1505 7.03277 31.3338 7.10327C31.5171 7.17376 31.6754 7.29704 31.7886 7.45751C31.9019 7.61797 31.965 7.80843 31.97 8.00478C31.9749 8.26747 31.8762 8.52153 31.6953 8.71203C31.5143 8.90253 31.2657 9.01416 31.0031 9.02278Z" fill="#47BBC6"/>
</svg>
