<svg width="60" height="61" viewBox="0 0 60 61" fill="none" xmlns="http://www.w3.org/2000/svg">
<path d="M31.7545 0C32.9602 0.244149 34.1988 0.407246 35.3596 0.753457C38.566 1.70221 41.327 3.61231 43.1945 6.17376C45.1056 8.74404 46.687 11.5061 47.9077 14.4058C48.1642 15.0271 47.9636 15.5365 47.4057 15.7066C46.8478 15.8767 46.4192 15.6355 46.1112 15.0442C45.1072 13.108 44.147 11.1518 43.0312 9.25764C41.9726 7.30564 40.4513 5.59321 38.5778 4.24458C37.0602 3.1728 35.3057 2.41479 33.4356 2.02299C31.5656 1.6312 29.6246 1.61498 27.7469 1.97545C25.8693 2.33592 24.0999 3.06447 22.5611 4.11071C21.0223 5.15695 19.7509 6.49589 18.8348 8.03489C17.3931 10.28 16.5753 12.8132 16.4528 15.4132C16.3303 18.0133 16.9069 20.6012 18.1322 22.951C18.6123 23.9516 19.1034 24.9522 19.6503 26.0379C20.6774 25.8037 21.7154 25.5586 22.6186 25.3454C22.6186 23.9596 22.5298 22.6968 22.6525 21.4431C22.7864 20.5748 23.0299 19.7236 23.3782 18.9065C23.6237 18.2141 24.1597 17.9689 24.7395 18.1831C25.2755 18.3832 25.4421 18.8835 25.1637 19.5279C24.4637 21.0961 24.2701 22.8145 24.6058 24.4799C26.0533 23.7731 27.3468 22.8303 28.4224 21.6982C28.8685 21.2299 29.2708 20.7206 29.672 20.2213C30.0961 19.702 30.6201 19.5689 31.0969 19.8751C31.2154 19.9451 31.3152 20.0386 31.3887 20.1486C31.4622 20.2587 31.5076 20.3824 31.5215 20.5107C31.5354 20.6389 31.5175 20.7684 31.469 20.8895C31.4205 21.0105 31.3428 21.1201 31.2416 21.2099C30.2255 22.3106 29.159 23.3702 28.0947 24.4299C27.9379 24.583 27.7483 24.705 27.5368 24.8781C28.0173 25.2184 28.5797 25.4494 29.1773 25.5523C29.775 25.6551 30.3908 25.6267 30.9741 25.4695C31.9453 25.2354 32.4582 25.3694 32.6479 25.9278C32.8375 26.5081 32.4363 26.9564 31.4871 27.1806C30.5838 27.4036 29.6358 27.4304 28.719 27.2587C27.8023 27.087 26.9424 26.7217 26.2083 26.1919C26.0515 26.0799 25.7512 25.9678 25.6284 26.0288C23.9238 26.8632 22.0798 27.4345 20.171 27.7199C20.0822 28.6204 20.0033 29.4619 19.9145 30.3995C20.1517 30.4289 20.3864 30.4731 20.6171 30.5316C21.8228 30.8578 23.0285 31.184 24.2222 31.5602C24.3722 31.6219 24.5369 31.6477 24.7008 31.6353C24.8647 31.6229 25.0225 31.5726 25.1593 31.4892C26.0515 30.9754 27.0935 30.7208 28.1475 30.759C29.2016 30.7973 30.2182 31.1265 31.0629 31.7033C31.6877 32.1206 31.8444 32.6609 31.4871 33.0992C31.1298 33.5374 30.5938 33.5574 29.958 33.1502C29.5014 32.832 28.9628 32.6265 28.394 32.5534C27.8252 32.4804 27.2453 32.5422 26.7103 32.7329C26.8999 32.876 27.0391 32.9881 27.1674 33.0791C28.7528 34.1185 30.1212 35.409 31.2076 36.8895C31.6318 37.4698 31.5978 37.9591 31.1188 38.2853C30.6168 38.6215 30.0698 38.4784 29.6117 37.8781C28.3898 36.2176 26.7721 34.8311 24.8798 33.8226C24.6452 33.7005 24.3997 33.5985 24.0764 33.4454C23.9551 34.7412 24.3822 36.0303 25.27 37.0476C25.4377 37.2407 25.7085 37.4858 25.6832 37.6789C25.6485 38.026 25.4876 38.3525 25.2262 38.6065C25.1403 38.6668 25.042 38.7107 24.9371 38.7356C24.8323 38.7606 24.723 38.7661 24.6158 38.7518C24.5086 38.7375 24.4056 38.7038 24.313 38.6525C24.2203 38.6013 24.1399 38.5336 24.0764 38.4534C23.0941 37.5401 22.4637 36.3602 22.2799 35.0914C22.1703 34.3269 22.1703 33.5424 22.1122 32.6459C21.2747 32.4928 20.3584 32.2997 19.4333 32.1666C19.338 32.1701 19.2452 32.1953 19.1633 32.2399C19.0814 32.2845 19.013 32.347 18.9642 32.4217C15.8841 37.9951 15.6825 43.5775 19.2985 48.9978C23.707 55.6099 32.9931 56.1602 38.774 51.9826C38.8653 51.9116 38.9401 51.8245 38.9937 51.7265C39.0474 51.6285 39.0789 51.5217 39.0863 51.4123C38.8397 48.8479 39.7145 46.2986 41.5197 44.321C41.6486 44.1471 41.7114 43.9393 41.6983 43.7296C41.6764 42.7921 41.6424 41.8545 41.5887 40.9179C41.5246 40.6376 41.5571 40.346 41.6816 40.0831C41.8061 39.8202 42.0166 39.5989 42.2842 39.4494C42.5518 39.3 42.8635 39.2297 43.1766 39.2483C43.4897 39.2669 43.7888 39.3733 44.033 39.5531C44.7806 39.9703 45.5281 40.3686 46.4324 40.8539C46.9574 39.0808 47.5373 37.4098 47.9275 35.7087C49.1842 30.3176 49.0811 24.7362 47.626 19.3868C47.549 19.1456 47.5263 18.8927 47.5592 18.6433C47.5846 18.4452 47.6928 18.2636 47.8613 18.1364C48.0297 18.0093 48.2455 17.9464 48.4635 17.9609C48.6925 17.9495 48.9177 18.0178 49.0937 18.152C49.2697 18.2863 49.3833 18.4766 49.4116 18.6844C49.7021 19.9682 50.0473 21.2319 50.26 22.5257C51.262 28.6156 50.6416 34.8362 48.4514 40.6608C48.4174 40.7528 48.3955 40.8439 48.3626 40.9459C51.1154 40.7059 53.862 41.4565 56.0175 43.0378C58.173 44.6192 59.5669 46.9063 59.9023 49.4121C60.1874 51.695 59.5595 53.9951 58.1341 55.8889C56.7088 57.7827 54.5819 59.1426 52.1452 59.7184C49.6047 60.3068 46.9151 60.0109 44.6004 58.8884C42.2856 57.7658 40.5115 55.8969 39.6234 53.6457C39.4042 53.7777 39.1992 53.8898 38.9987 54.0129C36.3422 55.6406 33.193 56.466 29.9952 56.3729C26.7975 56.2797 23.7124 55.2726 21.175 53.4936C17.9054 51.0861 15.7431 47.6472 15.1147 43.8557C14.4148 40.5168 14.7671 37.0651 16.1308 33.9016C16.1757 33.8016 16.1976 33.6875 16.2404 33.5454C15.1695 33.5454 14.1424 33.4844 13.1264 33.5554C12.2216 33.6311 11.3761 33.9989 10.742 34.5929C10.1079 35.1868 9.7267 35.9678 9.66706 36.7954C9.64514 37.0706 9.64515 37.3457 9.64515 37.6109V46.9336C9.65051 47.1478 9.63916 47.3622 9.61117 47.575C9.58035 47.7836 9.46701 47.9748 9.2925 48.1124C9.11799 48.25 8.89436 48.3246 8.66376 48.3222C8.43315 48.3197 8.2115 48.2404 8.04056 48.099C7.86962 47.9577 7.76121 47.7642 7.73575 47.5549C7.71155 47.3794 7.70421 47.2023 7.71382 47.0256V37.4828C7.65174 36.7183 7.77122 35.9505 8.06409 35.232C8.35697 34.5135 8.81633 33.8612 9.41078 33.3197C10.0052 32.7782 10.7207 32.3602 11.5084 32.0944C12.2961 31.8285 13.1374 31.7211 13.9747 31.7794C14.89 31.7794 15.8162 31.7893 16.7314 31.7693C16.8296 31.7727 16.9274 31.7566 17.0181 31.722C17.1087 31.6875 17.1901 31.6353 17.2564 31.5692C17.7121 30.8708 18.0048 30.094 18.1163 29.2875C18.2277 28.481 18.1555 27.6622 17.9042 26.8824C17.8483 26.7293 17.6478 26.5151 17.525 26.5151C15.2144 26.5562 12.8929 26.281 10.6196 26.7803C8.25935 27.2894 6.14236 28.4808 4.58384 30.177C3.02532 31.8733 2.10862 33.9837 1.97027 36.194C1.94835 36.6013 1.93629 37.0095 1.93629 37.4268V58.5266C1.94559 58.7603 1.93827 58.9943 1.91437 59.2271C1.91089 59.3357 1.88324 59.4425 1.83307 59.5411C1.78291 59.6396 1.71129 59.7278 1.62258 59.8003C1.53387 59.8727 1.42993 59.9279 1.31709 59.9625C1.20425 59.9971 1.08488 60.0104 0.966243 60.0015C0.726787 60.0089 0.493882 59.9294 0.318319 59.7806C0.142757 59.6318 0.0387794 59.4256 0.0290751 59.207C0.0106562 59.072 0.00333212 58.9359 0.00715677 58.7998C0.00715677 51.5154 -0.0147628 44.2199 0.0181201 36.9355C-0.0286931 34.1647 0.977697 31.4647 2.86602 29.295C4.75435 27.1253 7.40793 25.62 10.3751 25.0352C11.3166 24.8637 12.2728 24.7683 13.2327 24.7501C14.4263 24.699 15.632 24.7401 16.9375 24.7401C16.7698 24.4039 16.6361 24.1397 16.499 23.8635C15.103 21.2517 14.4347 18.3657 14.5534 15.4616C14.6722 12.5574 15.5743 9.72495 17.1797 7.21539C18.2964 5.24138 19.9381 3.55492 21.9543 2.31068C23.9705 1.06644 26.2967 0.30427 28.7194 0.094059C28.8448 0.072917 28.968 0.0421188 29.0877 0.00200012L31.7545 0ZM43.6187 41.3852C43.6187 42.2407 43.5738 43.0152 43.6297 43.7867C43.6593 44.077 43.6231 44.3698 43.5233 44.6467C43.4236 44.9237 43.2624 45.179 43.0498 45.3966C42.2019 46.2694 41.5863 47.3093 41.2513 48.4351C40.9163 49.5609 40.8708 50.7421 41.1185 51.8866C41.4236 53.4086 42.2193 54.813 43.4036 55.9199C44.5879 57.0269 46.1071 57.7861 47.7667 58.1004C49.4264 58.4148 51.151 58.27 52.72 57.6845C54.289 57.099 55.6309 56.0996 56.5742 54.8139C57.5174 53.5283 58.0191 52.0151 58.0149 50.4677C58.0107 48.9204 57.501 47.4094 56.5508 46.1281C55.6007 44.8467 54.2533 43.8533 52.6812 43.2748C51.1091 42.6964 49.3837 42.5593 47.7258 42.8811C47.3963 42.9599 47.0519 42.9725 46.7166 42.9179C46.3812 42.8633 46.0629 42.7429 45.7835 42.5649C45.1028 42.1497 44.3662 41.7924 43.6176 41.3852H43.6187Z" fill="#47BBC6"/>
<path d="M43.3402 21.9973C43.3456 22.3443 43.2749 22.6888 43.1323 23.0105C42.9896 23.3322 42.7779 23.6247 42.5096 23.8705C42.2413 24.1164 41.9218 24.3108 41.5699 24.4422C41.218 24.5737 40.8409 24.6395 40.4607 24.6359C39.6942 24.6356 38.9592 24.3575 38.4172 23.8628C37.8752 23.368 37.5706 22.697 37.5703 21.9973C37.5829 21.3054 37.8889 20.645 38.4238 20.1548C38.9587 19.6646 39.681 19.3828 40.4388 19.3687C41.2048 19.3678 41.9399 19.6439 42.4836 20.1365C43.0273 20.629 43.3353 21.298 43.3402 21.9973ZM40.4717 21.1307C40.2231 21.1336 39.9844 21.2206 39.8021 21.375C39.6199 21.5294 39.5069 21.7401 39.4852 21.9662C39.4801 22.0823 39.5004 22.1981 39.5449 22.3068C39.5895 22.4156 39.6575 22.5151 39.7448 22.5996C39.8321 22.684 39.937 22.7517 40.0534 22.7986C40.1697 22.8455 40.2952 22.8708 40.4223 22.8728C40.5441 22.8771 40.6656 22.8594 40.7799 22.8206C40.8941 22.7819 40.9989 22.723 41.0881 22.6472C41.1773 22.5714 41.2493 22.4803 41.2998 22.3791C41.3503 22.2778 41.3784 22.1685 41.3825 22.0573C41.3932 21.9411 41.3777 21.8242 41.337 21.7136C41.2964 21.6031 41.2314 21.5014 41.1461 21.4146C41.0608 21.3278 40.957 21.2579 40.841 21.2091C40.725 21.1603 40.5994 21.1336 40.4717 21.1307Z" fill="#47BBC6"/>
<path d="M29.0628 47.8139C29.0772 48.5136 28.7868 49.1899 28.2553 49.6942C27.7238 50.1985 26.9948 50.4896 26.2283 50.5035C25.4616 50.5027 24.7256 50.2285 24.1772 49.7393C23.6289 49.2501 23.3116 48.5847 23.293 47.8849C23.2927 47.1946 23.5876 46.5315 24.115 46.0368C24.6424 45.5421 25.3606 45.2549 26.1165 45.2364C26.4966 45.2246 26.8754 45.2824 27.2306 45.4063C27.5859 45.5303 27.9103 45.7179 28.1849 45.9581C28.4595 46.1983 28.6786 46.4863 28.8294 46.805C28.9802 47.1237 29.0595 47.4668 29.0628 47.8139ZM26.213 48.7415C26.3411 48.7363 26.4667 48.7077 26.5825 48.6575C26.6983 48.6073 26.802 48.5363 26.8873 48.4489C26.9726 48.3616 27.0379 48.2595 27.0792 48.1487C27.1206 48.0379 27.1373 47.9207 27.1282 47.8039C27.1157 47.5789 27.0069 47.3674 26.8253 47.2149C26.6437 47.0623 26.4037 46.981 26.1571 46.9884C25.9085 46.9938 25.6719 47.0871 25.4971 47.2485C25.3223 47.4099 25.223 47.627 25.2199 47.8539C25.227 48.091 25.3351 48.3162 25.5211 48.4817C25.7071 48.6472 25.9565 48.7401 26.2163 48.7405L26.213 48.7415Z" fill="#47BBC6"/>
<path d="M41.9105 35.0173C41.906 35.7158 41.5978 36.384 41.0535 36.875C40.5093 37.366 39.7737 37.6395 39.0086 37.6354C38.2435 37.6313 37.5115 37.3499 36.9736 36.8531C36.4358 36.3563 36.1362 35.6848 36.1407 34.9863C36.1452 34.2878 36.4534 33.6196 36.9976 33.1286C37.5419 32.6376 38.2775 32.3641 39.0426 32.3682C39.8077 32.3723 40.5397 32.6537 41.0776 33.1505C41.6154 33.6474 41.915 34.3188 41.9105 35.0173ZM39.0091 34.1168C38.8815 34.1155 38.7548 34.1376 38.6366 34.1818C38.5185 34.226 38.4112 34.2914 38.3213 34.3741C38.2313 34.4568 38.1604 34.5551 38.1128 34.6633C38.0652 34.7714 38.0418 34.8872 38.0441 35.0038C38.0463 35.1203 38.0742 35.2352 38.126 35.3418C38.1778 35.4483 38.2525 35.5443 38.3456 35.624C38.4388 35.7038 38.5485 35.7656 38.6683 35.806C38.7881 35.8463 38.9156 35.8643 39.0431 35.8588C39.1708 35.8555 39.2965 35.8291 39.4129 35.7811C39.5293 35.7331 39.6342 35.6644 39.7213 35.5792C39.8085 35.4939 39.8763 35.3937 39.9207 35.2844C39.9652 35.1751 39.9854 35.0588 39.9803 34.9423C39.967 34.717 39.8582 34.5053 39.6769 34.352C39.4957 34.1987 39.2562 34.1158 39.0091 34.1208V34.1168Z" fill="#47BBC6"/>
<path d="M9.59054 55.3736C9.59054 56.6063 9.62451 57.8391 9.56861 59.0618C9.54163 59.2356 9.47379 59.4021 9.36974 59.5498C9.26568 59.6974 9.12786 59.8228 8.96576 59.9173C8.80088 59.9586 8.62791 59.9654 8.45975 59.9372C8.2916 59.9089 8.13259 59.8464 7.99461 59.7542C7.89007 59.6603 7.80826 59.5473 7.75446 59.4227C7.70065 59.2981 7.67604 59.1646 7.68222 59.0308C7.6603 56.5953 7.6603 54.1508 7.67126 51.7153C7.67126 51.074 8.07353 50.6967 8.64241 50.7067C9.21128 50.7167 9.57957 51.094 9.57957 51.7464C9.60149 52.9591 9.59054 54.1608 9.59054 55.3736Z" fill="#47BBC6"/>
<path d="M25.2255 9.07743C25.2674 8.12236 25.7018 7.21671 26.4421 6.54083C27.1825 5.86495 28.1746 5.46842 29.2208 5.4302C29.4794 5.41127 29.736 5.48382 29.9376 5.63282C30.1391 5.78183 30.2702 5.99589 30.3037 6.23069C30.3129 6.34748 30.2964 6.46477 30.2551 6.57561C30.2138 6.68646 30.1485 6.78863 30.0632 6.87604C29.9778 6.96346 29.8741 7.03437 29.7583 7.08456C29.6424 7.13475 29.5166 7.16321 29.3885 7.16826C29.0916 7.16572 28.7972 7.21723 28.5224 7.31976C28.2476 7.4223 27.9979 7.57382 27.788 7.76546C27.5781 7.95709 27.4121 8.185 27.2998 8.43586C27.1875 8.68673 27.131 8.95552 27.1338 9.22652C27.1283 9.3435 27.0971 9.45828 27.0421 9.56407C26.9871 9.66985 26.9095 9.7645 26.8137 9.8424C26.718 9.92031 26.606 9.97988 26.4846 10.0176C26.3632 10.0553 26.2347 10.0704 26.1068 10.062C25.8496 10.0324 25.6147 9.9137 25.4507 9.73044C25.2866 9.54719 25.206 9.31341 25.2255 9.07743Z" fill="#47BBC6"/>
<path d="M38.0475 15.5273C38.0585 16.1687 37.7187 16.5669 37.1432 16.5869C36.5952 16.6069 36.2061 16.2507 36.1272 15.6594C36.1153 15.1449 35.8854 14.6546 35.4858 14.2917C35.0861 13.9287 34.5479 13.7213 33.9843 13.7132C33.3266 13.6421 32.9682 13.3059 32.9978 12.7756C33.0044 12.6533 33.0392 12.5336 33.0999 12.4245C33.1607 12.3153 33.246 12.2191 33.3503 12.1421C33.4546 12.0651 33.5755 12.0091 33.7052 11.9777C33.8348 11.9464 33.9703 11.9404 34.1027 11.9601C35.1285 12.0001 36.1011 12.3878 36.8306 13.0475C37.56 13.7071 37.9939 14.5912 38.0475 15.5273Z" fill="#47BBC6"/>
<path d="M35.5912 46.1321C34.5651 46.0876 33.5939 45.6955 32.8675 45.0323C32.1411 44.3692 31.7116 43.4826 31.6628 42.5459C31.6435 42.4248 31.651 42.3014 31.6849 42.183C31.7187 42.0646 31.7784 41.9536 31.8602 41.8566C31.942 41.7596 32.0442 41.6787 32.161 41.6185C32.2777 41.5583 32.4065 41.5201 32.5397 41.5063C33.0878 41.4652 33.4889 41.8065 33.5777 42.4068C33.5885 42.9332 33.8234 43.435 34.2326 43.806C34.6419 44.177 35.1932 44.3879 35.7699 44.394C36.4276 44.4861 36.797 44.8523 36.7411 45.3416C36.7225 45.4625 36.678 45.5788 36.6102 45.6839C36.5423 45.7891 36.4524 45.881 36.3456 45.9544C36.2389 46.0278 36.1173 46.0813 35.9878 46.1118C35.8584 46.1423 35.7236 46.1492 35.5912 46.1321Z" fill="#47BBC6"/>
<path d="M49.4791 51.6243C48.9771 51.5532 48.5299 51.5122 48.1068 51.4312C47.8799 51.4173 47.6618 51.3456 47.4774 51.2241C47.2929 51.1027 47.1495 50.9365 47.0635 50.7443C46.9775 50.5521 46.9524 50.3418 46.9909 50.1372C47.0294 49.9326 47.1301 49.742 47.2814 49.587C48.2975 48.2862 49.3355 46.9995 50.3724 45.7057C50.4389 45.5936 50.5308 45.4956 50.6418 45.4183C50.7529 45.341 50.8807 45.2861 51.0168 45.2572C51.1528 45.2284 51.294 45.2262 51.431 45.2509C51.568 45.2756 51.6978 45.3266 51.8116 45.4005C51.9236 45.4773 52.0163 45.5752 52.0831 45.6876C52.15 45.8 52.1896 45.9242 52.1992 46.0518C52.2087 46.1795 52.1881 46.3074 52.1386 46.4271C52.0891 46.5467 52.012 46.6553 51.9124 46.7453C51.1309 47.7459 50.3385 48.7325 49.4791 49.8122L50.8854 50.0363C51.1074 50.0472 51.3217 50.1144 51.5041 50.2304C51.6866 50.3464 51.8299 50.5066 51.918 50.6929C52.0062 50.8792 52.0357 51.0844 52.0031 51.2851C51.9706 51.4859 51.8773 51.6744 51.7338 51.8294C50.6958 53.1642 49.6358 54.489 48.5748 55.8028C48.5075 55.9095 48.4158 56.0016 48.306 56.073C48.1962 56.1444 48.0708 56.1934 47.9384 56.2165C47.806 56.2397 47.6696 56.2366 47.5387 56.2073C47.4077 56.1781 47.2852 56.1233 47.1795 56.0469C47.0718 55.9739 46.9821 55.881 46.9162 55.7742C46.8504 55.6674 46.8098 55.5492 46.7972 55.4272C46.7846 55.3053 46.8002 55.1822 46.843 55.0661C46.8858 54.95 46.9549 54.8434 47.0457 54.7532C47.7264 53.8767 48.4181 53.0111 49.1108 52.1446C49.227 52.0005 49.3224 51.8374 49.4791 51.6243Z" fill="#47BBC6"/>
</svg>
