<svg width="60" height="61" viewBox="0 0 60 61" fill="none" xmlns="http://www.w3.org/2000/svg">
<path d="M18.2161 59.9842C17.9884 59.8562 17.806 59.6716 17.6906 59.4525C17.5753 59.2334 17.5319 58.9889 17.5654 58.7481C17.5864 56.5079 17.5765 54.2587 17.5765 52.0185C17.5765 51.0624 17.7046 50.9084 18.6006 50.6474C18.6664 49.3636 18.652 48.0774 18.5575 46.7951C18.4107 46.0464 18.0461 45.3467 17.5014 44.7679C14.9384 41.7218 13.4312 38.0559 13.1708 34.2341C13.1388 33.886 13.0957 33.534 13.0957 33.182C13.0761 33.0553 13.0861 32.9264 13.1248 32.8035C13.1636 32.6805 13.2303 32.5663 13.3207 32.4681C13.4111 32.3699 13.5232 32.2898 13.6497 32.2332C13.7763 32.1765 13.9146 32.1443 14.0557 32.1389C14.6081 32.1289 14.9947 32.4869 15.0268 33.104C15.1228 35.7633 15.812 38.3776 17.0528 40.7896C17.5398 41.7016 18.1295 42.5656 18.8127 43.3678C20.0643 44.7317 20.7241 46.4618 20.6686 48.2342C20.6477 49.0343 20.6686 49.8274 20.6686 50.6674H37.9556C37.9666 50.5034 37.9987 50.3394 37.9987 50.1754C37.9987 49.3753 38.0097 48.5753 37.9987 47.7752C37.9868 46.6728 38.4063 45.6021 39.183 44.7529C39.7696 44.0769 40.3352 43.3918 40.8997 42.7058C41.3416 42.1847 41.8487 42.0497 42.3359 42.3387C42.459 42.4116 42.5624 42.5086 42.6386 42.6225C42.7148 42.7365 42.7618 42.8644 42.7761 42.9969C42.7904 43.1295 42.7717 43.2632 42.7213 43.3883C42.6709 43.5134 42.5902 43.6267 42.485 43.7199C41.9194 44.4339 41.3328 45.1289 40.7252 45.815C40.1953 46.3881 39.9113 47.1149 39.9253 47.8622C39.9463 48.7793 39.9253 49.6964 39.9253 50.6814C41.0234 50.7294 41.0665 51.4155 41.0555 52.1816C41.0345 54.3447 41.0345 56.5169 41.0555 58.6821C41.087 58.9317 41.0489 59.1844 40.9444 59.4172C40.84 59.6499 40.6727 59.8552 40.4578 60.0142H27.7832C27.3777 59.7052 26.9944 59.3862 27.2308 58.8361C27.4672 58.2861 27.9555 58.2471 28.5001 58.2471C30.4412 58.2571 32.3822 58.2471 34.3232 58.2471H39.0603V52.5126H19.5385V58.2471C21.01 58.2471 22.4506 58.2571 23.8901 58.2371C24.4424 58.2271 24.9462 58.3051 25.1484 58.8371C25.3505 59.3692 25.0092 59.7162 24.5507 59.9952L18.2161 59.9842Z" fill="#47BBC6"/>
<path d="M34.0131 29.9111C33.6927 29.718 33.4155 29.544 33.0962 29.361C32.6796 29.94 32.0945 30.4035 31.4053 30.7004C30.7161 30.9973 29.9497 31.1162 29.1907 31.0437C28.4317 30.9713 27.7095 30.7105 27.1038 30.29C26.4982 29.8696 26.0326 29.3058 25.7585 28.661C22.8575 29.723 21.5671 29.414 19.6825 27.2228C19.0182 27.6748 18.2207 27.9381 17.3909 27.9794C16.5612 28.0207 15.7366 27.8381 15.0216 27.4549V29.695C15.0105 30.4191 14.7012 30.7861 14.0936 30.8051C13.4639 30.8241 13.0806 30.4281 13.0806 29.695C13.0695 26.5478 13.1767 23.4005 13.0485 20.2623C12.971 19.5658 13.1074 18.8635 13.4428 18.2327C13.7782 17.602 14.2995 17.0674 14.9492 16.6879C15.599 16.3084 16.3519 16.0987 17.1249 16.0819C17.8979 16.0651 18.661 16.242 19.3301 16.5929C19.453 15.9782 19.7424 15.4007 20.1724 14.912C20.6023 14.4234 21.1593 14.0388 21.7936 13.7927C22.432 13.5436 23.1297 13.4448 23.8217 13.5057C24.5136 13.5665 25.1773 13.785 25.7508 14.1407C25.9769 13.6252 26.3223 13.1594 26.7638 12.7747C27.2053 12.39 27.7327 12.0954 28.3105 11.9105C28.9007 11.7285 29.5288 11.6699 30.1476 11.7391C30.7664 11.8084 31.3598 12.0038 31.8832 12.3106C31.9583 12.1756 32.0323 12.0696 32.0853 11.9436C32.4477 11.1567 33.099 10.5072 33.9293 10.1049C34.7595 9.70265 35.7177 9.5722 36.6419 9.73565C37.5661 9.8991 38.3997 10.3464 39.0016 11.002C39.6036 11.6576 39.937 12.4812 39.9456 13.3337C39.9776 14.9168 39.9566 16.4909 39.9566 18.1221C40.4361 18.1611 40.8735 18.1801 41.322 18.2221C42.2616 18.299 43.1614 18.6019 43.9282 19.0993C44.695 19.5967 45.3011 20.2707 45.6836 21.0513C46.3834 22.4191 46.7751 23.8993 46.8358 25.4057C47.1536 30.4021 46.4226 35.4078 44.6816 40.1579C44.6492 40.2766 44.5898 40.3879 44.5073 40.4846C44.4248 40.5814 44.3209 40.6616 44.2023 40.7201C44.0837 40.7786 43.953 40.8141 43.8184 40.8243C43.6839 40.8346 43.5484 40.8194 43.4207 40.7797C43.2929 40.74 43.1757 40.6767 43.0765 40.5937C42.9773 40.5108 42.8982 40.4101 42.8443 40.298C42.7904 40.1859 42.7629 40.0648 42.7635 39.9426C42.7641 39.8203 42.7928 39.6995 42.8477 39.5879C44.5369 35.0048 45.2217 30.1673 44.8639 25.3467C44.7631 24.1834 44.468 23.0406 43.9889 21.9574C43.7413 21.3233 43.2696 20.781 42.6468 20.4144C42.024 20.0479 41.2849 19.8777 40.5443 19.9302H30.5188C29.7455 19.9302 29.4627 20.2203 29.5588 20.9153C29.6253 21.6415 29.9569 22.3271 30.5014 22.8638C31.0459 23.4005 31.7722 23.7579 32.5659 23.8795C34.7842 24.3042 36.9937 24.7323 39.1943 25.1637C40.0781 25.3377 40.3355 25.7137 40.1113 26.5158C39.866 27.4038 39.6528 28.3019 39.3225 29.171C39.2531 29.3456 39.1455 29.5057 39.0062 29.6418C38.8668 29.7779 38.6987 29.8872 38.5116 29.9631C36.5212 30.567 34.6942 31.5449 33.1503 32.8327C31.6065 34.1205 30.3807 35.6891 29.5533 37.4357C29.244 38.0637 28.7424 38.2857 28.1779 38.0637C27.6134 37.8417 27.4742 37.3637 27.7835 36.7316C28.9792 34.1391 30.9705 31.911 33.5215 30.3111C33.6607 30.2241 33.8098 30.1371 33.9479 30.0411C33.938 30.0171 33.9579 29.9781 34.0131 29.9111ZM25.5343 21.4243C25.5343 20.0432 25.5553 18.6531 25.5232 17.273C25.5343 17.0134 25.4878 16.7545 25.3864 16.5114C25.2851 16.2684 25.1309 16.0463 24.933 15.8581C24.7352 15.67 24.4977 15.5196 24.2345 15.416C23.9714 15.3124 23.688 15.2576 23.401 15.2548C23.1139 15.2514 22.829 15.3009 22.5637 15.4002C22.2984 15.4996 22.0582 15.6468 21.8577 15.8329C21.6572 16.019 21.5006 16.24 21.3975 16.4826C21.2944 16.7252 21.2469 16.9843 21.2578 17.244C21.2368 20.0152 21.2258 22.7855 21.2788 25.5567C21.3196 26.0179 21.5022 26.4596 21.8058 26.8318C22.069 27.1323 22.4302 27.35 22.838 27.454C23.2457 27.558 23.6793 27.5429 24.0771 27.4108C24.5119 27.282 24.8885 27.0285 25.1502 26.6888C25.4119 26.3491 25.5444 25.9416 25.5276 25.5277C25.5553 24.1566 25.5343 22.7855 25.5343 21.4243ZM19.3057 22.0804C19.3057 21.3373 19.3168 20.5933 19.3057 19.8502C19.3178 19.5919 19.2724 19.334 19.1723 19.0918C19.0722 18.8497 18.9195 18.6281 18.7231 18.4404C18.5267 18.2526 18.2907 18.1025 18.029 17.9988C17.7674 17.8952 17.4854 17.8401 17.1998 17.8369C16.9142 17.8337 16.6308 17.8824 16.3664 17.9801C16.102 18.0779 15.8619 18.2227 15.6604 18.4059C15.459 18.5892 15.3002 18.8072 15.1935 19.0471C15.0868 19.2869 15.0343 19.5437 15.0392 19.8022C15.0072 21.2893 15.0072 22.7665 15.0392 24.2536C15.04 24.5072 15.0959 24.7582 15.2037 24.9922C15.3116 25.2263 15.4694 25.4388 15.668 25.6177C15.8666 25.7965 16.1021 25.9382 16.3612 26.0346C16.6203 26.1311 16.8979 26.1804 17.178 26.1797C17.4582 26.1791 17.7354 26.1285 17.994 26.0308C18.2525 25.9332 18.4873 25.7904 18.6848 25.6106C18.8824 25.4308 19.0389 25.2175 19.1455 24.983C19.252 24.7484 19.3065 24.4972 19.3057 24.2436C19.3157 23.5315 19.2947 22.8045 19.3057 22.0804ZM37.9913 18.1411C37.9913 16.4709 38.0344 14.8778 37.9802 13.2847C37.9618 12.7738 37.7199 12.2905 37.3078 11.9411C36.8958 11.5917 36.3472 11.4048 35.7829 11.4215C35.2186 11.4382 34.6847 11.6572 34.2988 12.0302C33.9128 12.4033 33.7063 12.8998 33.7248 13.4107C33.7038 14.5978 33.7137 15.7859 33.7137 16.983V18.1511C35.1731 18.1411 36.5408 18.1411 37.9913 18.1411ZM27.4863 21.3854C27.4863 23.3745 27.4653 25.3537 27.4974 27.3428C27.4853 27.5971 27.5302 27.851 27.6292 28.0891C27.7283 28.3273 27.8795 28.5449 28.0738 28.7288C28.2681 28.9128 28.5015 29.0593 28.7599 29.1595C29.0183 29.2597 29.2965 29.3116 29.5776 29.312C29.8581 29.3192 30.1373 29.2757 30.399 29.1841C30.6607 29.0924 30.8995 28.9545 31.1016 28.7783C31.3038 28.6022 31.465 28.3913 31.5761 28.158C31.6871 27.9248 31.7457 27.6738 31.7484 27.4199C31.7805 26.8955 31.7805 26.37 31.7484 25.8457C31.7341 25.7675 31.7008 25.6931 31.6509 25.6279C31.6011 25.5627 31.5359 25.5084 31.4601 25.4687C30.4579 25.1669 29.562 24.63 28.8638 23.9127C28.1655 23.1954 27.691 22.3233 27.4863 21.3854ZM27.4863 20.0722C28.19 18.1321 29.9389 18.0831 31.7738 18.1721V15.6519C31.7754 15.4774 31.761 15.3031 31.7307 15.1308C31.6501 14.664 31.3853 14.2394 30.9853 13.9358C30.5854 13.6322 30.0774 13.4701 29.5555 13.4797C29.0235 13.4961 28.5178 13.6929 28.1385 14.0309C27.7591 14.3689 27.5339 14.8236 27.5073 15.3048C27.4753 15.8459 27.4963 16.3959 27.4963 16.946C27.4852 17.9871 27.4863 19.0312 27.4863 20.0722ZM33.79 25.9327C33.569 27.3998 34.3235 28.3949 35.6559 28.5009C35.9352 28.531 36.2184 28.5078 36.4872 28.4327C36.756 28.3576 37.0045 28.2323 37.2165 28.065C37.4285 27.8976 37.5995 27.6919 37.7183 27.4611C37.8371 27.2302 37.9011 26.9794 37.9062 26.7248C36.5507 26.4638 35.1863 26.2027 33.7888 25.9317L33.79 25.9327Z" fill="#47BBC6"/>
<path d="M30.9593 3.45647C30.9593 4.25654 30.9704 5.0496 30.9593 5.85067C30.9483 6.49773 30.586 6.88376 30.0104 6.89376C29.4348 6.90376 29.0294 6.50773 29.0161 5.83167C29.0051 4.23854 29.0051 2.6314 29.0161 1.04327C29.0161 0.396217 29.3895 0.0101858 29.9651 0.000184982C30.5627 -0.00981585 30.9461 0.386214 30.9593 1.06227C30.9715 1.85334 30.9593 2.65441 30.9593 3.45647Z" fill="#47BBC6"/>
<path d="M3.78593 28.0085C2.87894 28.0085 1.97306 28.0185 1.07712 28.0085C0.942913 28.0214 0.807203 28.009 0.678602 27.9719C0.550001 27.9348 0.431307 27.874 0.330042 27.7932C0.228778 27.7125 0.147152 27.6136 0.0903365 27.5028C0.0335214 27.3919 0.00276402 27.2716 0 27.1495C0.00153594 27.0274 0.0304726 26.9069 0.0850602 26.7953C0.139648 26.6837 0.218746 26.5833 0.317535 26.5003C0.416323 26.4172 0.532742 26.3532 0.659714 26.3121C0.786687 26.271 0.921553 26.2538 1.05612 26.2614C2.88999 26.2514 4.71391 26.2514 6.54888 26.2614C6.68353 26.248 6.8198 26.2605 6.94873 26.2982C7.07766 26.3358 7.19635 26.3977 7.29701 26.4797C7.39767 26.5618 7.47803 26.6622 7.53283 26.7743C7.58762 26.8865 7.61561 27.0078 7.61496 27.1305C7.61496 27.6715 7.22056 27.9995 6.51022 28.0095C5.59881 28.0175 4.69182 28.0085 3.78593 28.0085Z" fill="#47BBC6"/>
<path d="M56.1962 28.0086C55.2892 28.0086 54.3834 28.0186 53.4874 28.0086C52.7627 27.9986 52.3672 27.6805 52.3672 27.1395C52.3672 26.5985 52.7837 26.2604 53.4874 26.2604C55.2683 26.2504 57.0601 26.2504 58.8409 26.2604C58.9811 26.2442 59.1234 26.255 59.2586 26.292C59.3939 26.3291 59.519 26.3916 59.6257 26.4754C59.7324 26.5593 59.8183 26.6626 59.8778 26.7786C59.9374 26.8946 59.9691 27.0206 59.9711 27.1485C59.9711 27.6695 59.5292 28.0076 58.8299 28.0176C57.966 28.0176 57.0811 28.0086 56.1962 28.0086Z" fill="#47BBC6"/>
<path d="M14.6005 12.2611C14.3342 12.5311 14.1531 12.8981 13.8758 12.9611C13.6878 12.9977 13.4936 12.9995 13.3049 12.9663C13.1162 12.9331 12.9368 12.8657 12.7777 12.7681C12.1775 12.2959 11.6077 11.793 11.0709 11.262C10.3561 10.6149 9.63469 9.96786 8.92766 9.32181C8.40512 8.83877 8.37529 8.32773 8.81055 7.9407C8.91395 7.85406 9.0365 7.7883 9.17009 7.74778C9.30369 7.70727 9.44527 7.69293 9.58545 7.70569C9.72563 7.71846 9.86121 7.75805 9.98321 7.82184C10.1052 7.88563 10.2108 7.97216 10.2931 8.0757C11.5518 9.1958 12.7998 10.3256 14.0371 11.465C14.2527 11.7134 14.4413 11.9799 14.6005 12.2611Z" fill="#47BBC6"/>
<path d="M51.6131 8.50444C51.4711 8.77358 51.2998 9.02921 51.1016 9.2675C49.8327 10.4356 48.5563 11.594 47.2726 12.7428C47.188 12.8456 47.0788 12.9297 46.9532 12.9888C46.8276 13.048 46.6888 13.0806 46.5473 13.0844C46.4058 13.0881 46.2651 13.0629 46.1359 13.0105C46.0067 12.9581 45.8923 12.8799 45.8011 12.7818C45.7074 12.6931 45.6356 12.5875 45.5903 12.4719C45.545 12.3562 45.5273 12.2332 45.5384 12.1109C45.5494 11.9886 45.589 11.8699 45.6545 11.7624C45.7199 11.655 45.8098 11.5614 45.9182 11.4877C47.1875 10.3296 48.4779 9.18051 49.7472 8.01241C49.88 7.8564 50.0693 7.74766 50.2818 7.70524C50.4943 7.66282 50.7164 7.68941 50.9094 7.78038C51.1859 7.98544 51.4237 8.23001 51.6131 8.50444Z" fill="#47BBC6"/>
<path d="M38.6921 8.33226C37.8813 8.35126 37.3808 7.82021 37.5719 7.28017C37.8154 6.59577 38.1039 5.92519 38.4358 5.272C38.4808 5.1712 38.548 5.07976 38.6333 5.00324C38.7186 4.92673 38.8202 4.86675 38.932 4.82697C39.0437 4.7872 39.1633 4.76845 39.2833 4.77188C39.4033 4.77532 39.5213 4.80087 39.6301 4.84696C39.7414 4.87304 39.8456 4.91954 39.9363 4.98359C40.0269 5.04763 40.1021 5.12784 40.1571 5.21926C40.2121 5.31069 40.2458 5.41138 40.256 5.51506C40.2663 5.61875 40.2529 5.72324 40.2167 5.82205C39.9695 6.54643 39.663 7.25311 39.2997 7.93623C39.1826 8.13924 38.8092 8.25525 38.6921 8.33226Z" fill="#47BBC6"/>
<path d="M20.9029 4.77832C21.0409 4.89433 21.4044 5.05835 21.5657 5.32837C21.8799 5.92653 22.1507 6.54256 22.3766 7.17253C22.4216 7.277 22.4433 7.38851 22.4402 7.50061C22.4372 7.61271 22.4096 7.72315 22.3591 7.82551C22.3085 7.92787 22.2359 8.02012 22.1456 8.09688C22.0553 8.17363 21.9491 8.23336 21.8331 8.27261C21.7197 8.32042 21.5966 8.34631 21.4716 8.34863C21.3466 8.35094 21.2225 8.32962 21.1071 8.28604C20.9917 8.24247 20.8875 8.17759 20.8014 8.09555C20.7153 8.01351 20.649 7.91612 20.6068 7.80958C20.3026 7.20877 20.0356 6.59311 19.807 5.96543C19.5595 5.33838 19.9937 4.78832 20.9029 4.77832Z" fill="#47BBC6"/>
<path d="M6.20746 17.7354C7.12032 18.0524 8.01386 18.4132 8.88424 18.8164C9.00183 18.9409 9.08356 19.0898 9.12211 19.2498C9.16066 19.4098 9.15484 19.576 9.10519 19.7335C8.99471 19.9845 8.48653 20.3126 8.25233 20.2646C7.36291 20.0523 6.50112 19.7546 5.68161 19.3765C5.56178 19.2527 5.47536 19.1055 5.42916 18.9463C5.38295 18.7872 5.37823 18.6205 5.41537 18.4594C5.51369 18.1894 5.91912 17.9964 6.20746 17.7354Z" fill="#47BBC6"/>
<path d="M50.7551 19.2029C50.9322 18.9727 51.1573 18.7759 51.4179 18.6239C52.015 18.3606 52.6315 18.1347 53.2628 17.9478C53.384 17.8973 53.5153 17.8699 53.6486 17.8674C53.7819 17.8648 53.9144 17.8872 54.0378 17.933C54.1612 17.9789 54.2728 18.0472 54.3657 18.1339C54.4586 18.2205 54.5308 18.3235 54.5778 18.4365C54.6248 18.5494 54.6456 18.67 54.6389 18.7906C54.6322 18.9111 54.5981 19.0292 54.5388 19.1373C54.4795 19.2454 54.3961 19.3413 54.2941 19.419C54.192 19.4967 54.0734 19.5546 53.9455 19.589C53.3395 19.8359 52.7201 20.0549 52.0896 20.245C51.3638 20.449 50.723 20.033 50.7551 19.2029Z" fill="#47BBC6"/>
</svg>
