<svg width="60" height="61" viewBox="0 0 60 61" fill="none" xmlns="http://www.w3.org/2000/svg">
<path d="M32.6941 60.0113C32.6081 59.9733 32.5311 59.9113 32.4452 59.8873C32.0026 59.7565 31.5964 59.5248 31.2582 59.2105C30.9201 58.8963 30.6593 58.5079 30.4963 58.0759C30.3332 57.6439 30.2724 57.1799 30.3185 56.7204C30.3646 56.2609 30.5164 55.8184 30.7621 55.4274C32.1487 52.9869 33.5546 50.5561 34.9799 48.1349C35.0959 47.9598 35.1678 47.7591 35.1894 47.5501C35.211 47.341 35.1816 47.1299 35.1038 46.9347C34.3174 44.4393 33.8263 41.8601 33.6406 39.2501C33.2514 35.0461 33.2929 30.8132 33.7645 26.6176C33.8794 25.6704 33.7355 25.0963 32.818 24.7232C32.3013 24.5132 31.8905 24.0231 31.3647 23.871C30.6961 23.6859 30.001 23.6149 29.3088 23.661C28.5442 23.699 28.0175 23.4789 27.9035 22.8608C27.7986 22.2767 28.1904 21.8176 28.917 21.6746C29.6366 21.5276 30.3784 21.5273 31.0982 21.6737C31.8179 21.8201 32.5007 22.1102 33.1058 22.5267C33.439 22.7468 33.7831 22.9765 34.1383 23.2159C34.3688 21.9608 34.6756 20.7209 35.0568 19.5031C35.2894 19.0015 35.3601 18.4397 35.2589 17.896C35.1577 17.3523 34.8896 16.8537 34.4921 16.4695C32.8777 14.5234 32.0186 12.0599 32.0724 9.53112C32.0534 6.73655 32.0624 3.94198 32.0624 1.14742C32.0624 0.391264 32.5311 -0.0678292 33.1618 0.00818623C33.7165 0.0751998 34.0513 0.486285 34.0613 1.18543C34.0713 2.76475 34.0424 4.35307 34.0713 5.93239C34.1003 7.64574 34.0813 9.36808 34.2432 11.0814C34.4785 12.8144 35.2434 14.4323 36.4331 15.7134C36.624 15.4133 36.8159 15.1292 36.9978 14.8422C37.4733 14.028 38.1918 13.3834 39.0523 12.9989C39.9128 12.6144 40.8721 12.5095 41.7953 12.6988C43.8199 12.9861 45.7677 13.6708 47.527 14.7138C49.2863 15.7567 50.8224 17.1372 52.0469 18.776C54.7294 22.3172 56.6297 26.3881 57.622 30.7194C58.8202 35.392 59.5319 40.1761 59.7459 44.9953C59.8698 47.3588 59.9278 49.7133 59.9658 52.0767C59.9963 53.2098 59.6611 54.3226 59.0099 55.2501C58.3587 56.1775 57.4262 56.8704 56.3507 57.2258C56.2304 57.2849 56.0995 57.3191 55.9657 57.3263C55.8319 57.3334 55.698 57.3134 55.5721 57.2675C55.4462 57.2215 55.331 57.1506 55.2332 57.0589C55.1354 56.9672 55.0572 56.8566 55.0032 56.7339C54.9493 56.6112 54.9207 56.4788 54.9191 56.3447C54.9176 56.2106 54.9432 56.0776 54.9944 55.9537C55.0456 55.8298 55.1213 55.7175 55.217 55.6236C55.3126 55.5297 55.4263 55.4562 55.5511 55.4074C55.9194 55.2306 56.2772 55.0326 56.6225 54.8143C56.9962 54.5937 57.3111 54.2863 57.5408 53.9181C57.7705 53.5498 57.908 53.1316 57.9419 52.6989C57.9988 50.8515 57.9609 49.0051 57.9609 47.1767C57.0613 47.0997 56.3067 47.0047 55.5511 46.9767C55.3982 46.9667 55.2163 47.1587 55.0734 47.2828C54.4517 47.8569 53.868 48.498 53.1993 49.0241C53.0946 49.1146 52.9713 49.181 52.8382 49.2188C52.7051 49.2566 52.5654 49.2649 52.4288 49.243C52.2921 49.2211 52.1619 49.1695 52.0473 49.092C51.9327 49.0144 51.8364 48.9128 51.7651 48.7941C51.6905 48.6746 51.6411 48.5411 51.62 48.4018C51.5989 48.2625 51.6065 48.1204 51.6424 47.9841C51.6782 47.8479 51.7416 47.7204 51.8285 47.6096C51.9155 47.4988 52.0241 47.407 52.1479 47.3398C52.5587 47.0337 52.9415 46.6886 53.3333 46.3736C52.5207 45.7895 51.7841 45.2924 51.0854 44.7372C50.9586 44.6613 50.85 44.5584 50.7674 44.4357C50.6848 44.3131 50.6301 44.1738 50.6073 44.0276C50.5845 43.8815 50.5942 43.7321 50.6355 43.5901C50.6769 43.4481 50.7489 43.3169 50.8466 43.2059C50.9458 43.0977 51.067 43.0119 51.2021 42.9544C51.3372 42.8969 51.483 42.869 51.6298 42.8726C51.7765 42.8762 51.9209 42.9112 52.053 42.9753C52.1851 43.0393 52.302 43.1309 52.3957 43.2439C53.7421 44.4614 55.4967 45.1276 57.3112 45.1103C57.4451 45.1103 57.5691 45.0913 57.77 45.0723C57.684 43.9911 57.636 42.9479 57.5021 41.9047C57.2252 39.6942 56.9024 37.5038 56.5936 35.2913C56.5556 35.0043 56.4886 34.8222 56.1438 34.8322C54.3323 34.7958 52.5877 34.1408 51.1994 32.9759C50.4348 32.4018 49.6882 31.8086 48.9006 31.2535C48.3937 30.832 47.7669 30.581 47.1093 30.5363C46.4517 30.4916 45.7967 30.6554 45.2375 31.0045C45.1241 31.0799 44.9963 31.131 44.8622 31.1547C44.7281 31.1784 44.5905 31.1741 44.4581 31.1421C44.3257 31.1102 44.2014 31.0512 44.0928 30.9689C43.9842 30.8867 43.8938 30.7829 43.8272 30.664C43.7606 30.5452 43.7192 30.4138 43.7056 30.2782C43.692 30.1426 43.7066 30.0057 43.7484 29.876C43.7901 29.7462 43.8582 29.6265 43.9483 29.5244C44.0384 29.4222 44.1486 29.3397 44.272 29.2821C44.6928 29.0521 45.1715 28.918 45.6013 28.689C45.7642 28.603 45.8502 28.3829 45.9651 28.2199C45.9841 28.1909 45.9651 28.1429 45.9651 28.1049C45.9841 27.5398 46.185 26.8796 45.9651 26.4395C45.7652 26.0395 45.0756 25.8944 44.6358 25.5974C44.2473 25.3365 43.8824 25.042 43.5454 24.7172C43.4398 24.629 43.3535 24.5199 43.292 24.3969C43.2304 24.2738 43.195 24.1393 43.1877 24.0018C43.1805 23.8644 43.2017 23.7269 43.25 23.5981C43.2983 23.4692 43.3727 23.3517 43.4684 23.2529C43.6572 23.0645 43.9124 22.9579 44.179 22.956C44.4456 22.9542 44.7023 23.0572 44.8937 23.2429C45.3524 23.597 45.8122 23.943 46.3189 24.3241C46.3959 24.1041 46.4529 23.98 46.4908 23.855C46.5132 23.7194 46.5636 23.5899 46.6388 23.4749C46.714 23.3599 46.8124 23.2619 46.9276 23.1872C47.0429 23.1124 47.1725 23.0626 47.3081 23.0408C47.4437 23.0191 47.5824 23.0259 47.7152 23.0609C48.2699 23.1849 48.5148 23.683 48.4328 24.3341C48.2699 25.5684 48.146 26.8126 47.993 28.0469C47.9361 28.497 48.165 28.631 48.5378 28.832C49.5156 29.3497 50.4581 29.9314 51.3593 30.5734C52.4509 31.5496 53.7388 32.2805 55.1363 32.7168C55.3276 32.7548 55.5188 32.7835 55.71 32.8028C55.8413 32.8058 55.9725 32.7961 56.1018 32.7738C54.7535 27.3857 52.9555 22.2567 48.8916 18.2709C46.7796 16.1134 43.9464 14.8117 40.9348 14.6151C40.5542 14.5615 40.1662 14.6198 39.8181 14.783C39.4701 14.9462 39.1771 15.2073 38.9748 15.5343C38.3462 16.5138 37.8146 17.5522 37.3876 18.635C36.4146 21.5443 35.8263 24.5686 35.6375 27.6308C35.2851 31.4249 35.2818 35.2434 35.6275 39.0381C35.8095 41.7678 36.363 44.4599 37.2727 47.0397C37.3591 47.2563 37.3912 47.4909 37.3661 47.7228C37.341 47.9547 37.2595 48.1769 37.1287 48.37C35.6175 50.9632 34.113 53.5637 32.6151 56.1716C31.9844 57.2628 32.4052 57.9799 33.6865 57.9799H48.9686C50.2499 57.9799 50.6616 57.2718 50.03 56.1716C47.4766 51.7407 44.9233 47.3131 42.37 42.8889C41.7483 41.8077 40.9927 41.7887 40.3041 42.8409C40.2432 42.9637 40.157 43.0722 40.0512 43.1593C39.9454 43.2464 39.8224 43.3101 39.6903 43.3463C39.5581 43.3825 39.4198 43.3903 39.2845 43.3692C39.1491 43.3481 39.0197 43.2986 38.9048 43.2239C38.7889 43.16 38.6876 43.0728 38.6071 42.9677C38.5267 42.8626 38.4689 42.7419 38.4374 42.6133C38.406 42.4847 38.4015 42.351 38.4243 42.2206C38.4471 42.0902 38.4967 41.9659 38.57 41.8557C38.8023 41.3345 39.1788 40.8909 39.6551 40.5772C40.1313 40.2634 40.6874 40.0927 41.2576 40.0853C41.8092 40.0612 42.3562 40.1952 42.8343 40.4716C43.3123 40.748 43.7016 41.1553 43.9562 41.6456C46.6054 46.2199 49.2481 50.8008 51.884 55.3884C52.1441 55.7889 52.3038 56.2463 52.3493 56.7218C52.3948 57.1972 52.3249 57.6767 52.1455 58.1193C51.9661 58.5619 51.6826 58.9546 51.3189 59.264C50.9553 59.5734 50.5224 59.7903 50.057 59.8963C50.0045 59.9227 49.9561 59.9564 49.9131 59.9963C44.1681 60.013 38.4284 60.018 32.6941 60.0113Z" fill="#47BBC6"/>
<path d="M0.0189873 48.642C0.0959471 47.4558 0.171909 46.2685 0.238874 45.0823C0.471784 39.9325 1.26711 34.8238 2.61064 29.8472C3.61286 25.8827 5.39428 22.1578 7.85089 18.89C10.1582 15.7319 13.5815 13.5726 17.4239 12.8517C18.3858 12.7397 19.3559 12.714 20.3224 12.7747C20.5731 12.8071 20.8142 12.8919 21.03 13.0238C21.7087 13.3489 21.9575 13.866 21.7186 14.4241C21.4608 14.9982 20.9341 15.0082 20.1794 14.8642C19.3267 14.7029 18.4517 14.6995 17.5978 14.8542C14.4255 15.491 11.5994 17.2767 9.66095 19.8692C7.20989 23.0459 5.44053 26.6947 4.46366 30.5873C4.25377 31.3145 4.08086 32.0516 3.87997 32.8268C4.70325 32.8748 5.52132 32.6677 6.22275 32.2337C7.02122 31.7495 7.7908 31.2192 8.52754 30.6453C9.47347 29.8272 10.5499 29.1737 11.7119 28.712C11.7904 28.6568 11.8547 28.5839 11.8996 28.499C11.9444 28.4141 11.9685 28.3198 11.9697 28.2239C11.8838 27.0756 11.7699 25.9364 11.6449 24.7882C11.6259 24.5971 11.545 24.4051 11.521 24.214C11.472 23.9666 11.5191 23.7098 11.6526 23.4958C11.7861 23.2818 11.996 23.1268 12.2397 23.0622C12.4834 22.9976 12.7425 23.0283 12.9643 23.1481C13.1862 23.2678 13.3541 23.4677 13.434 23.7069C13.491 23.87 13.5339 24.042 13.6249 24.3381C14.1126 23.974 14.5714 23.6679 14.9922 23.3239C15.0853 23.2166 15.1995 23.1298 15.3278 23.0688C15.456 23.0079 15.5954 22.9741 15.7373 22.9696C15.8792 22.9651 16.0205 22.9899 16.1523 23.0426C16.2841 23.0954 16.4037 23.1748 16.5034 23.2759C16.6041 23.3837 16.6802 23.5123 16.7262 23.6526C16.7722 23.793 16.7871 23.9416 16.7697 24.0883C16.7524 24.2349 16.7033 24.376 16.6259 24.5017C16.5485 24.6275 16.4446 24.7348 16.3215 24.8162C15.6697 25.308 14.9859 25.7557 14.2745 26.1564C14.0257 26.3095 13.9017 26.4245 13.9207 26.7306C13.9587 27.2377 13.9307 27.7448 13.9977 28.2519C14.0228 28.3496 14.0681 28.441 14.1308 28.5201C14.1935 28.5992 14.2721 28.6642 14.3615 28.711C14.7923 28.941 15.27 29.065 15.6908 29.3041C15.8118 29.3618 15.9198 29.4436 16.0082 29.5443C16.0967 29.6451 16.1638 29.7628 16.2054 29.8903C16.247 30.0178 16.2624 30.1524 16.2504 30.286C16.2385 30.4196 16.1995 30.5494 16.136 30.6675C16.0724 30.7856 15.9855 30.8895 15.8806 30.973C15.7757 31.0565 15.6549 31.1177 15.5256 31.1531C15.3963 31.1884 15.2611 31.1971 15.1284 31.1786C14.9956 31.1601 14.868 31.1148 14.7533 31.0454C14.1515 30.6691 13.4429 30.5008 12.7364 30.5666C12.0298 30.6324 11.3644 30.9285 10.8423 31.4095C10.0008 32.0406 9.16921 32.6918 8.31765 33.3099C7.03356 34.287 5.47374 34.8331 3.86098 34.8702C3.69807 34.8702 3.41122 35.0702 3.40222 35.2053C2.99144 38.4209 2.60863 41.6366 2.22583 44.8422C2.22888 44.9322 2.23857 45.0218 2.25482 45.1103C4.08634 45.2285 5.89447 44.6469 7.31418 43.4829C7.4671 43.3589 7.60103 43.2249 7.76394 43.1099C7.96311 42.9483 8.21741 42.8709 8.47275 42.894C8.72809 42.9172 8.96434 43.0391 9.13123 43.2339C9.21846 43.3279 9.28567 43.4386 9.32876 43.5594C9.37185 43.6802 9.38993 43.8085 9.38188 43.9365C9.37384 44.0645 9.33985 44.1895 9.28198 44.304C9.22411 44.4184 9.14357 44.5199 9.04527 44.6022C8.30865 45.2023 7.52507 45.7504 6.66452 46.3915C6.98935 46.6686 7.33416 47.0137 7.72596 47.3007C8.34763 47.7598 8.54853 48.3149 8.19472 48.832C8.11275 48.9553 8.00445 49.0589 7.87762 49.1352C7.75079 49.2116 7.60861 49.2587 7.46134 49.2734C7.31407 49.288 7.16539 49.2698 7.02604 49.2199C6.88668 49.17 6.76013 49.0898 6.65552 48.9851C6.02836 48.4674 5.44317 47.9009 4.90543 47.2907C4.8335 47.1832 4.73196 47.0989 4.61311 47.0479C4.49425 46.997 4.36319 46.9816 4.23579 47.0037C3.55714 47.0897 2.8775 47.1277 2.12189 47.1857C2.08391 48.0089 2.03593 48.88 2.01694 49.7502C1.99795 50.5504 2.00695 51.3505 1.99796 52.1507C1.97878 52.7196 2.11353 53.2831 2.38798 53.7817C2.66243 54.2803 3.06638 54.6955 3.55714 54.9833C4.48849 55.5718 5.57304 55.8713 6.67417 55.844C7.7753 55.8168 8.84375 55.4641 9.74491 54.8302C12.7454 52.5682 16.2059 50.9934 19.8816 50.2173C20.3087 50.1245 20.7116 49.9431 21.0642 49.6846C21.4168 49.4262 21.7113 49.0965 21.9285 48.717C22.7881 47.1807 23.3739 45.5064 23.6596 43.769C24.4824 39.4472 24.7777 35.0414 24.5392 30.6483C24.454 27.1155 23.9671 23.6038 23.0879 20.1812C22.888 19.4541 22.6382 18.7269 22.3803 18.0188C22.2721 17.7883 22.2444 17.5281 22.3017 17.28C22.359 17.0319 22.4979 16.8102 22.6961 16.6505C23.7551 15.7034 24.5941 14.5358 25.1543 13.2297C25.7144 11.9236 25.982 10.5106 25.9384 9.08999C25.9195 6.55348 25.9284 4.00796 25.9384 1.47244C25.927 1.21853 25.9495 0.964237 26.0054 0.716294C26.053 0.503428 26.1762 0.315097 26.3522 0.186317C26.5281 0.0575378 26.7448 -0.00293303 26.9619 0.0161472C27.1897 0.00884962 27.4119 0.0868093 27.5853 0.234781C27.7587 0.382753 27.8707 0.590105 27.8994 0.816312C27.9282 1.0096 27.9379 1.20524 27.9284 1.40043C27.9284 3.97495 27.9184 6.55848 27.9284 9.133C27.9823 12.2184 26.8354 15.2039 24.7301 17.4587C24.6539 17.5565 24.6007 17.6702 24.5742 17.7914C24.5478 17.9125 24.5488 18.0381 24.5772 18.1588C25.6433 21.6728 26.2727 25.3049 26.4512 28.973C26.7386 33.0289 26.6234 37.1033 26.1074 41.1365C25.8698 43.7837 25.1978 46.3736 24.1184 48.802C23.7351 49.6116 23.2178 50.3506 22.5882 50.9875C22.0441 51.4848 21.3877 51.8427 20.6752 52.0307C17.9539 52.6516 15.338 53.6672 12.9103 55.0453C12.2696 55.4454 11.6579 55.9165 11.0552 56.3656C9.77901 57.2808 8.25468 57.7856 6.68485 57.8129C5.11503 57.8403 3.57407 57.3888 2.26681 56.5186C1.11118 55.7031 0.302506 54.4842 0 53.1019C0.0189901 51.6186 0.0189873 50.1253 0.0189873 48.642Z" fill="#47BBC6"/>
<path d="M42.3157 48.9973C42.3157 49.6194 42.3257 50.2416 42.3157 50.8637C42.3314 51.0002 42.3177 51.1384 42.2756 51.2692C42.2335 51.3999 42.1639 51.5201 42.0715 51.6217C41.9791 51.7233 41.866 51.8039 41.7398 51.8581C41.6137 51.9123 41.4774 51.9388 41.3402 51.9359C41.2024 51.9411 41.0652 51.9171 40.9373 51.8655C40.8095 51.8139 40.6939 51.736 40.5983 51.6366C40.5026 51.5373 40.429 51.4189 40.3822 51.2892C40.3354 51.1594 40.3165 51.0212 40.3267 50.8837C40.3078 49.6014 40.3078 48.3092 40.3267 47.0269C40.3196 46.8901 40.3406 46.7532 40.3885 46.6248C40.4364 46.4965 40.5102 46.3794 40.6052 46.2807C40.7003 46.182 40.8145 46.1039 40.9409 46.0513C41.0674 45.9986 41.2033 45.9726 41.3402 45.9747C41.4764 45.9805 41.6101 46.0136 41.7334 46.0719C41.8566 46.1303 41.967 46.2128 42.0579 46.3145C42.1488 46.4162 42.2185 46.535 42.2627 46.6641C42.307 46.7931 42.325 46.9298 42.3157 47.066V48.9993V48.9973Z" fill="#47BBC6"/>
<path d="M42.3154 55.0155C42.3154 55.7907 41.9236 56.2598 41.3159 56.2498C40.7082 56.2398 40.3164 55.7497 40.3164 54.9865C40.3164 54.2234 40.6892 53.7612 41.3299 53.7612C41.9705 53.7612 42.3154 54.2124 42.3154 55.0155Z" fill="#47BBC6"/>
</svg>
