<svg width="60" height="61" viewBox="0 0 60 61" fill="none" xmlns="http://www.w3.org/2000/svg">
<path d="M58.9703 54.6124C58.6338 54.7967 58.2697 54.924 57.8924 54.9893C54.6512 55.0228 51.3984 55.011 48.1573 55.011C47.2015 55.011 46.9814 54.7782 46.9814 53.8253C46.9814 52.3516 46.9706 50.8897 46.9814 49.416C46.9623 48.583 47.2545 47.7731 47.7999 47.1471C48.3454 46.5211 49.1043 46.1248 49.926 46.0366C50.1312 45.992 50.3446 46.0056 50.5425 46.0759C50.7405 46.1463 50.9151 46.2706 51.0471 46.4351C51.2837 46.7287 51.5818 46.9658 51.9201 47.1293C52.2584 47.2928 52.6284 47.3787 53.0035 47.3808C53.3787 47.3828 53.7496 47.301 54.0896 47.1413C54.4297 46.9815 54.7304 46.7478 54.9701 46.4569C55.1151 46.2804 55.3063 46.1484 55.5219 46.0758C55.7375 46.0033 55.969 45.9932 56.19 46.0465C56.8027 46.1291 57.3786 46.3885 57.8484 46.7935C58.3183 47.1984 58.662 47.7317 58.8383 48.3291L58.9703 48.6615V54.6124ZM57.3992 53.4159C57.3992 51.9204 57.4207 50.4803 57.3884 49.0283C57.3698 48.7613 57.2831 48.5037 57.1368 48.2804C56.9904 48.0572 56.7893 47.8758 56.5529 47.7539C56.4305 47.656 56.2753 47.6095 56.1197 47.624C55.9641 47.6385 55.8201 47.7129 55.7175 47.8318C54.9879 48.5094 54.0356 48.8911 53.0437 48.9033C52.0518 48.9155 51.0905 48.5574 50.3447 47.8979C49.8955 47.5103 49.5425 47.5547 49.2236 47.9088C48.9005 48.1983 48.6739 48.5814 48.575 49.0057C48.4978 50.4685 48.5417 51.9304 48.5417 53.415L57.3992 53.4159Z" fill="#47BBC6"/>
<path d="M55.7405 9.89389V25.3893C55.7405 27.616 54.4152 28.8565 52.0457 28.8565H42.1812C42.4392 29.0892 42.5801 29.2332 42.7441 29.3546C44.3423 30.6947 45.9335 32.0385 47.5176 33.386C47.6877 33.5201 47.8412 33.672 47.9751 33.8387C48.0805 33.9781 48.127 34.1497 48.1054 34.3197C48.0837 34.4898 47.9955 34.6461 47.8581 34.7578C47.7407 34.8875 47.5781 34.9732 47.3996 34.9996C47.2211 35.026 47.0385 34.9914 46.8848 34.9018C46.7272 34.8069 46.5815 34.6954 46.4504 34.5695C44.5853 33.0075 42.7326 31.4346 40.8675 29.8734C40.7265 29.7512 40.5856 29.6516 40.4216 29.5194C38.4395 31.1919 36.4689 32.8417 34.4983 34.4998C34.3661 34.6231 34.2251 34.7378 34.0764 34.843C33.9206 34.9629 33.7209 35.0198 33.5209 35.0011C33.321 34.9824 33.1369 34.8898 33.0091 34.7434C32.934 34.6753 32.8742 34.5936 32.8333 34.5032C32.7925 34.4128 32.7714 34.3155 32.7714 34.2172C32.7714 34.119 32.7925 34.0217 32.8333 33.9313C32.8742 33.8408 32.934 33.7592 33.0091 33.6911C33.0984 33.598 33.1966 33.5128 33.3025 33.4367C34.9327 32.0521 36.5753 30.6784 38.2055 29.2939C38.3465 29.1834 38.475 29.0612 38.685 28.862C38.3915 28.8511 38.2055 28.8284 38.0051 28.8284H28.7879C28.2905 28.8771 27.7879 28.8202 27.3168 28.662C26.8457 28.5037 26.418 28.248 26.065 27.9136C25.7119 27.5791 25.4425 27.1745 25.2764 26.7291C25.1102 26.2838 25.0515 25.809 25.1046 25.3395V9.87215C24.6702 9.87215 24.3068 9.88302 23.9319 9.87215C23.3565 9.86129 23.017 9.60592 23.0055 9.08614C22.9825 7.31403 22.9825 5.55459 23.0055 3.78067C23.0009 3.67771 23.019 3.57498 23.0586 3.47897C23.0982 3.38295 23.1585 3.29574 23.2357 3.22288C23.3129 3.15001 23.4052 3.09307 23.5069 3.05566C23.6085 3.01825 23.7173 3.00118 23.8264 3.00553C23.9903 2.99467 24.1668 3.00553 24.3308 3.00553H56.6332C57.7705 3.00553 57.97 3.19388 57.97 4.27961V8.68772C57.97 9.6512 57.7235 9.88392 56.7234 9.88392C56.4203 9.89388 56.1279 9.89389 55.7405 9.89389ZM26.7578 9.92738V25.3675C26.7578 26.7412 27.3447 27.2945 28.7984 27.2945H52.1167C53.5129 27.2945 54.0988 26.7512 54.0988 25.4336V9.91652C44.9381 9.92739 35.8705 9.92738 26.7569 9.92738H26.7578ZM56.2803 8.32099V4.63276H24.6693V8.32099H56.2803Z" fill="#47BBC6"/>
<path d="M6.25411 32.5867C5.84829 32.7033 5.43282 32.7851 5.01241 32.8312C4.61521 32.8562 4.21709 32.7987 3.84426 32.6627C3.47143 32.5266 3.13234 32.3151 2.84927 32.0419C2.5662 31.7688 2.34557 31.4403 2.2019 31.0779C2.05824 30.7156 1.99479 30.3276 2.01573 29.9396C2.00455 26.4251 2.01573 22.9106 2.01573 19.3916C1.98892 18.9134 1.99639 18.4339 2.03809 17.9567C2.17934 16.8804 2.71331 15.8898 3.54207 15.1667C4.37084 14.4435 5.43887 14.0362 6.55034 14.0194H6.66398C8.99276 13.9639 8.99927 13.9639 10.6406 15.5543C11.0737 15.9771 11.4724 16.4554 11.9168 16.9337C12.8855 16.0435 13.763 15.2761 14.606 14.4786C14.7592 14.3157 14.9492 14.1898 15.1608 14.1109C15.3724 14.032 15.5999 14.0022 15.8254 14.0239C16.7327 14.0253 17.6388 14.0884 18.537 14.2131C19.5286 14.4396 20.4113 14.9897 21.039 15.7725C21.6668 16.5552 22.002 17.5237 21.9892 18.5178C21.9892 22.3369 21.9892 26.156 21.978 29.9751C22.0081 30.4435 21.9147 30.9116 21.7067 31.3346C21.4986 31.7577 21.1829 32.1216 20.7897 32.3916C20.3965 32.6616 19.9389 32.8287 19.4607 32.8768C18.9825 32.925 18.4996 32.8526 18.0582 32.6667C17.9724 32.6423 17.8849 32.6237 17.7965 32.6112C17.7741 32.8112 17.7508 32.9749 17.7396 33.145C17.58 38.419 17.4248 43.6909 17.2739 48.9606C17.2997 49.7062 17.0354 50.4337 16.5343 50.9969C16.0332 51.5601 15.3324 51.9173 14.5725 51.9968C14.1044 52.0431 13.6316 51.9853 13.1895 51.8278C12.7475 51.6704 12.3477 51.4173 12.0202 51.0875C11.7048 51.411 11.3187 51.6608 10.8906 51.8183C10.4625 51.9757 10.0036 52.0367 9.54793 51.9968C8.79713 51.9406 8.09582 51.6096 7.5845 51.07C7.07318 50.5304 6.78964 49.8221 6.79067 49.087C6.61989 43.7597 6.45283 38.4356 6.2895 33.115C6.27646 32.9204 6.25411 32.7431 6.25411 32.5867ZM16.2809 28.3602V27.8928C16.2809 26.1914 16.2697 24.4892 16.2809 22.7761C16.2809 22.1978 16.6116 21.8422 17.1016 21.875C17.5673 21.8968 17.8533 22.2196 17.8533 22.8088C17.8645 24.0882 17.8533 25.3667 17.8533 26.6461C17.8533 27.8137 17.8309 28.9931 17.8756 30.1606C17.8769 30.3171 17.9097 30.4719 17.9722 30.616C18.0347 30.7601 18.1257 30.8908 18.24 31.0006C18.3542 31.1104 18.4896 31.1971 18.6382 31.2558C18.7868 31.3145 18.9458 31.344 19.1062 31.3427C19.4376 31.3401 19.7548 31.2104 19.9891 30.9816C20.2235 30.7528 20.3564 30.4432 20.3591 30.1197C20.3702 29.9378 20.3702 29.7641 20.3702 29.5859V21.8113C20.3702 20.8329 20.3358 19.8535 20.4047 18.886C20.4877 18.1642 20.292 17.438 19.8559 16.8495C19.4197 16.261 18.7744 15.8523 18.0461 15.7034C17.4016 15.6061 16.7484 15.5756 16.0974 15.6125C15.8518 15.6226 15.6178 15.7173 15.437 15.8798C14.5054 16.7028 13.6028 17.5593 12.6909 18.3932C12.6134 18.4998 12.5109 18.5867 12.3919 18.6467C12.273 18.7067 12.141 18.738 12.0071 18.738C11.8732 18.738 11.7413 18.7067 11.6223 18.6467C11.5034 18.5867 11.4009 18.4998 11.3234 18.3932C10.7421 17.8476 10.173 17.302 9.60289 16.7564C8.32672 15.5443 8.32672 15.5443 6.52891 15.6107C5.74003 15.6397 4.99358 15.9668 4.44713 16.523C3.90069 17.0791 3.59702 17.8208 3.60024 18.5914C3.61141 20.9829 3.62259 23.3853 3.6347 25.775V30.0351C3.60901 30.3303 3.70134 30.6237 3.89236 30.8539C4.08337 31.0841 4.35823 31.2332 4.65936 31.27C4.8495 31.3029 5.04486 31.2929 5.23042 31.2407C5.41599 31.1885 5.58683 31.0955 5.72984 30.9688C5.87284 30.8421 5.98422 30.6851 6.0554 30.5098C6.12658 30.3346 6.15568 30.1457 6.14047 29.9578C6.15165 28.8348 6.14047 27.7218 6.14047 26.5988C6.14047 25.2976 6.12929 24.0073 6.15164 22.7061C6.16282 22.0277 6.85773 21.6149 7.3477 22.0168C7.58145 22.2485 7.71488 22.5591 7.72031 22.8843C7.75478 24.3192 7.73149 25.765 7.73149 27.1999V28.3674C10.6173 28.3602 13.4202 28.3602 16.2809 28.3602ZM7.80415 29.9733V30.6098C7.95257 35.3146 8.09695 40.0194 8.2373 44.7241C8.28294 46.2145 8.3174 47.7049 8.4236 49.1952C8.44522 49.5371 8.60247 49.8573 8.86195 50.0878C9.12143 50.3184 9.46273 50.4411 9.81341 50.4301C10.1621 50.4371 10.5012 50.3185 10.766 50.0969C11.0308 49.8754 11.2027 49.5663 11.2489 49.2289C11.2735 49.0176 11.281 48.8048 11.2712 48.5924V33.0877C11.2636 32.9097 11.2673 32.7314 11.2824 32.5539C11.3024 32.3731 11.3903 32.206 11.5292 32.0848C11.668 31.9635 11.8479 31.8968 12.0341 31.8974C12.219 31.8807 12.4034 31.9337 12.5496 32.0454C12.6957 32.1572 12.7926 32.3192 12.8203 32.4984C12.8586 32.7262 12.8739 32.957 12.866 33.1877V48.5369C12.8604 48.7859 12.8719 49.035 12.9004 49.2825C12.9466 49.6094 13.1148 49.9082 13.3726 50.1216C13.6304 50.335 13.9598 50.4481 14.2977 50.4392C14.4938 50.4348 14.6868 50.3905 14.8643 50.3091C15.0419 50.2277 15.2001 50.111 15.3288 49.9666C15.4575 49.8221 15.5539 49.653 15.6118 49.4701C15.6697 49.2871 15.6879 49.0944 15.6652 48.9042C15.8477 43.2204 16.0185 37.5406 16.1775 31.8647C16.1999 31.2527 16.1775 30.6298 16.1775 29.9851C13.409 29.9733 10.6294 29.9733 7.80415 29.9733Z" fill="#47BBC6"/>
<path d="M25.9517 55.013H21.0699C20.2031 55.013 19.9931 54.7911 19.9931 53.9161C19.9931 52.3981 19.9823 50.88 19.9931 49.352C19.9801 48.5481 20.2604 47.7675 20.7806 47.1587C21.3009 46.5499 22.0248 46.1555 22.8145 46.0505C23.0353 45.9971 23.2665 46.0072 23.4819 46.0798C23.6973 46.1523 23.8883 46.2843 24.0331 46.4608C24.2712 46.747 24.5685 46.9772 24.9042 47.1351C25.2398 47.293 25.6056 47.3748 25.9759 47.3748C26.3462 47.3748 26.7121 47.293 27.0477 47.1351C27.3833 46.9772 27.6807 46.747 27.9188 46.4608C28.0645 46.285 28.255 46.1528 28.4699 46.0785C28.6847 46.0043 28.9156 45.9909 29.1374 46.0396C29.9198 46.1407 30.6389 46.526 31.1602 47.1235C31.6815 47.721 31.9692 48.4897 31.9696 49.2859C31.9911 50.8809 31.9803 52.4651 31.9696 54.061C31.9696 54.7476 31.7057 55.003 31.004 55.003C29.3133 55.013 27.6334 55.013 25.9517 55.013ZM30.4081 53.4288C30.4081 51.966 30.4189 50.5593 30.3973 49.1409C30.386 48.8564 30.301 48.5798 30.1508 48.3387C30.0006 48.0977 29.7904 47.9005 29.5413 47.7669C29.4189 47.669 29.2639 47.6225 29.1085 47.637C28.9531 47.6515 28.8091 47.7259 28.7067 47.8448C27.978 48.5214 27.0279 48.9034 26.0378 48.9178C25.0477 48.9322 24.0871 48.5779 23.3394 47.9227C22.8907 47.535 22.5488 47.5794 22.2195 47.9227C21.9074 48.1996 21.688 48.5673 21.5913 48.9752C21.5258 50.4488 21.5581 51.9334 21.5581 53.4397C24.5159 53.4279 27.4252 53.4279 30.4108 53.4279L30.4081 53.4288Z" fill="#47BBC6"/>
<path d="M39.4328 55.0021H34.0837C33.2395 55.0021 33.0012 54.7697 32.9896 53.9954C32.9896 52.4242 32.9779 50.853 32.9896 49.2818C32.9881 48.4863 33.2993 47.7176 33.8646 47.1205C34.4299 46.5235 35.2103 46.1392 36.059 46.0399C36.2899 45.9913 36.5307 46.0039 36.7543 46.0764C36.9778 46.1488 37.175 46.2781 37.3233 46.4496C37.5804 46.7352 37.901 46.9655 38.2632 47.1246C38.6253 47.2836 39.0202 47.3676 39.4206 47.3708C39.8211 47.374 40.2175 47.2963 40.5825 47.143C40.9475 46.9898 41.2723 46.7646 41.5346 46.4832C41.6964 46.2997 41.9109 46.1628 42.1532 46.0883C42.3955 46.0138 42.6555 46.0049 42.903 46.0625C43.7694 46.1701 44.5623 46.5721 45.1291 47.191C45.6958 47.81 45.9962 48.6021 45.9724 49.4148C45.9841 50.9308 45.9724 52.4468 45.9724 53.9727C45.9724 54.7579 45.6991 55.013 44.8423 55.013C43.0401 55.0021 41.2408 55.0021 39.4328 55.0021ZM34.6984 53.4092H44.2743C44.2743 51.9158 44.2976 50.455 44.2626 48.9951C44.2385 48.7367 44.144 48.4882 43.9879 48.2733C43.8319 48.0584 43.6195 47.884 43.3708 47.7667C43.2329 47.6607 43.0557 47.6095 42.8776 47.6241C42.6994 47.6386 42.5345 47.7178 42.4186 47.8444C41.6282 48.5081 40.6065 48.8837 39.5418 48.902C38.4771 48.9203 37.4412 48.5801 36.625 47.944C36.0658 47.5125 35.7925 47.4917 35.3043 47.9883C34.9986 48.2748 34.795 48.6417 34.7207 49.0394C34.6497 50.4885 34.6974 51.9267 34.6974 53.4092H34.6984Z" fill="#47BBC6"/>
<path d="M16.9914 8.53795C16.9125 9.32718 16.7811 10.1095 16.5981 10.879C16.2671 11.8784 15.6261 12.7288 14.7801 13.291C13.9342 13.8531 12.9334 14.0935 11.9419 13.9729C10.9503 13.8523 10.0267 13.3778 9.32252 12.6271C8.61831 11.8764 8.17522 10.8941 8.06586 9.84114C7.95132 8.78443 7.97792 7.71586 8.14489 6.66705C8.36882 5.54585 8.97694 4.55283 9.85139 3.88043C10.7258 3.20803 11.8043 2.90413 12.8779 3.02766C13.949 3.14396 14.9446 3.66654 15.6819 4.49943C16.4192 5.33232 16.8486 6.41958 16.8912 7.56152C16.9023 7.88342 16.8912 8.20629 16.8912 8.52818C16.9249 8.52566 16.9587 8.52896 16.9914 8.53795ZM15.35 8.47844H15.294C15.294 8.16825 15.305 7.86976 15.294 7.55957C15.2549 6.7877 14.9399 6.06071 14.4133 5.52679C13.8866 4.99287 13.188 4.69221 12.4597 4.68612C11.7315 4.68002 11.0284 4.96895 10.4939 5.49398C9.95944 6.01902 9.63372 6.74065 9.58316 7.51178C9.54916 8.14387 9.56111 8.76425 9.58316 9.39731C9.60842 10.1077 9.8693 10.7859 10.3198 11.312C10.7702 11.8381 11.3814 12.1785 12.0452 12.2729C12.727 12.3872 13.4245 12.2299 14.0035 11.8312C14.5826 11.4325 15.0023 10.8206 15.1818 10.1133C15.2712 9.57282 15.3267 9.02669 15.3482 8.47844H15.35Z" fill="#47BBC6"/>
<path d="M25.9741 39.0092C26.7653 39.0071 27.5394 39.2107 28.1985 39.5941C28.8575 39.9775 29.3718 40.5235 29.6763 41.163C29.9807 41.8025 30.0616 42.5067 29.9088 43.1865C29.7559 43.8663 29.376 44.4911 28.8174 44.9817C28.2588 45.4724 27.5465 45.8069 26.7706 45.9428C25.9948 46.0788 25.1903 46.0101 24.4591 45.7454C23.7278 45.4807 23.1027 45.032 22.6629 44.4561C22.2231 43.8802 21.9883 43.2029 21.9883 42.5101C21.988 41.5834 22.4075 40.6944 23.1547 40.0381C23.9018 39.3818 24.9158 39.0118 25.9741 39.0092ZM28.2691 42.5101C28.2655 42.1197 28.1304 41.7389 27.8807 41.4154C27.631 41.092 27.2778 40.8403 26.8654 40.6919C26.453 40.5434 25.9998 40.5049 25.5625 40.5811C25.1252 40.6573 24.7233 40.8448 24.4072 41.1201C24.0911 41.3955 23.8749 41.7464 23.7856 42.1289C23.6962 42.5114 23.7379 42.9085 23.9052 43.2704C24.0725 43.6323 24.358 43.9428 24.7261 44.1632C25.0941 44.3836 25.5283 44.5039 25.9741 44.5092C26.2752 44.5115 26.5738 44.4615 26.8527 44.362C27.1315 44.2625 27.3851 44.1155 27.5986 43.9295C27.8121 43.7435 27.9813 43.5223 28.0964 43.2787C28.2115 43.035 28.2702 42.7738 28.2691 42.5101Z" fill="#47BBC6"/>
<path d="M38.9968 39.0092C39.7886 39.0124 40.5614 39.2214 41.2174 39.6097C41.8733 39.998 42.3829 40.5481 42.6813 41.1903C42.9798 41.8325 43.0538 42.5378 42.894 43.2169C42.7341 43.8959 42.3476 44.5181 41.7834 45.0046C41.2192 45.491 40.5028 45.8198 39.7249 45.9493C38.9471 46.0788 38.1428 46.0031 37.4142 45.7318C36.6855 45.4605 36.0653 45.0059 35.632 44.4256C35.1988 43.8452 34.9721 43.1653 34.9807 42.472C34.9943 41.548 35.4237 40.6659 36.1757 40.0176C36.9277 39.3692 37.9415 39.0068 38.9968 39.0092ZM41.258 42.4826C41.2532 42.0897 41.1157 41.7068 40.8629 41.3821C40.6101 41.0574 40.2533 40.8054 39.8373 40.6579C39.4214 40.5104 38.9649 40.474 38.5253 40.5533C38.0858 40.6325 37.6828 40.8238 37.3671 41.1031C37.0515 41.3825 36.8373 41.7374 36.7515 42.1231C36.6657 42.5088 36.7121 42.9081 36.8849 43.2708C37.0577 43.6335 37.3492 43.9433 37.7227 44.1612C38.0962 44.3791 38.5349 44.4953 38.9837 44.4954C39.285 44.4973 39.5837 44.4464 39.8622 44.3457C40.1407 44.245 40.3934 44.0964 40.6054 43.9089C40.8173 43.7213 40.9842 43.4985 41.0963 43.2535C41.2084 43.0086 41.2634 42.7465 41.258 42.4826Z" fill="#47BBC6"/>
<path d="M55.9689 42.4821C55.9744 43.1736 55.7752 43.8512 55.3963 44.4294C55.0175 45.0077 54.4761 45.4608 53.8403 45.7315C53.2045 46.0022 52.5028 46.0784 51.8238 45.9505C51.1448 45.8226 50.5188 45.4963 50.0248 45.0128C49.5309 44.5293 49.191 43.9103 49.0482 43.2337C48.9054 42.5572 48.966 41.8535 49.2223 41.2113C49.4786 40.5692 49.9192 40.0175 50.4885 39.6256C51.0578 39.2338 51.7303 39.0194 52.4212 39.0096C52.8825 39.0025 53.3407 39.0869 53.7692 39.2579C54.1978 39.4289 54.5883 39.6832 54.9181 40.006C55.248 40.3289 55.5107 40.7139 55.691 41.1389C55.8714 41.5639 55.9658 42.0204 55.9689 42.4821ZM54.466 42.4927C54.4639 42.0977 54.3451 41.712 54.1244 41.3844C53.9038 41.0568 53.5912 40.8019 53.2261 40.6516C52.861 40.5014 52.4596 40.4627 52.0725 40.5403C51.6855 40.6179 51.3299 40.8083 51.0508 41.0877C50.7717 41.367 50.5814 41.7228 50.5038 42.1102C50.4263 42.4975 50.465 42.8992 50.6151 43.2646C50.7652 43.63 51.02 43.9428 51.3474 44.1636C51.6747 44.3844 52.06 44.5034 52.4548 44.5055C52.9881 44.5052 53.4996 44.2931 53.8767 43.9157C54.2538 43.5383 54.4658 43.0265 54.466 42.4927Z" fill="#47BBC6"/>
<path d="M40.4673 18.0097H49.7614C49.96 17.9953 50.1592 18.0097 50.3551 18.0525C50.5363 18.0942 50.699 18.2165 50.8126 18.3965C50.9262 18.5765 50.9829 18.8018 50.9721 19.0301C50.9772 19.2488 50.919 19.4625 50.808 19.6324C50.6971 19.8024 50.5407 19.9174 50.3672 19.9567C50.1905 19.9991 50.0102 20.0136 49.8305 19.9996H31.1395C30.9947 20.0093 30.8496 20.0046 30.7054 19.9857C30.6049 19.9784 30.5066 19.9466 30.416 19.8922C30.3254 19.8377 30.2444 19.7616 30.1775 19.6682C30.1107 19.5748 30.0593 19.466 30.0264 19.3479C29.9935 19.2299 29.9797 19.105 29.9858 18.9803C29.9825 18.7394 30.0543 18.5063 30.186 18.3293C30.3178 18.1524 30.4995 18.0454 30.6933 18.0305C30.8565 18.0117 31.0206 18.0071 31.1843 18.0166L40.4673 18.0097Z" fill="#47BBC6"/>
<path d="M40.4623 22.9957H31.1726C31.0091 23.0123 30.8446 23.0077 30.6819 22.9818C30.489 22.9609 30.3097 22.8494 30.1804 22.6701C30.0511 22.4907 29.9816 22.2569 29.9859 22.016C29.9741 21.7864 30.0321 21.5596 30.1484 21.3807C30.2647 21.2018 30.4308 21.0839 30.6138 21.0502C30.7948 21.0143 30.9782 20.9999 31.1614 21.0073H49.7856C49.9845 20.9979 50.1836 21.017 50.379 21.0642C50.5522 21.1048 50.7076 21.2221 50.8167 21.3943C50.9258 21.5665 50.9811 21.7819 50.9724 22.0009C50.982 22.2299 50.9233 22.4553 50.8073 22.6336C50.6914 22.8119 50.5265 22.9306 50.3445 22.9667C50.1636 23.0045 49.9796 23.0139 49.7968 22.9945L40.4623 22.9957Z" fill="#47BBC6"/>
<path d="M38.5178 15.0131H45.7485C45.9389 14.9941 46.1306 15.0034 46.3191 15.041C46.5098 15.0747 46.6829 15.1927 46.8041 15.3717C46.9253 15.5507 46.9858 15.7775 46.9735 16.0073C46.987 16.2254 46.9325 16.4418 46.8205 16.6148C46.7085 16.7878 46.5469 16.9053 46.3668 16.9445C46.1423 16.9924 45.9141 17.0115 45.6862 17.0014H31.1025C30.3529 16.9875 29.9844 16.646 29.9844 15.9934C29.9844 15.3407 30.3645 15.0131 31.1141 15.0131H38.5178Z" fill="#47BBC6"/>
</svg>
