<svg width="60" height="61" viewBox="0 0 60 61" fill="none" xmlns="http://www.w3.org/2000/svg">
<path d="M32.0433 0.0329998C33.162 0.154009 34.2916 0.245021 35.4103 0.386033C40.8955 0.939863 46.1532 2.69187 50.7375 5.49344C53.584 7.20744 55.9165 9.54206 57.5235 12.2857C59.1305 15.0294 59.9612 18.0953 59.9405 21.2057C60.0534 23.7412 59.8377 26.28 59.2978 28.7693C58.5157 31.845 56.8313 34.6689 54.4248 36.939C53.2952 38.0597 52.114 39.1335 50.8812 40.1602C50.5351 40.436 50.2573 40.7758 50.0663 41.1571C49.8753 41.5383 49.7755 41.9523 49.7735 42.3714C49.7625 43.1895 49.8514 44.0075 49.9062 44.8256C49.9501 45.5126 49.6956 45.8857 49.1198 45.9667C48.5111 46.0477 48.0461 45.7037 48.0011 45.0276C47.9163 43.8443 47.909 42.6574 47.9792 41.4733C48.0991 40.5309 48.6005 39.6632 49.3852 39.0401C51.0238 37.54 52.7073 36.0509 54.211 34.4398C56.4374 31.9807 57.7207 28.9251 57.8654 25.7391C58.1335 23.3297 58.0967 20.9002 57.7557 18.4985C57.3626 16.1664 56.4407 13.9346 55.0488 11.9456C53.6568 9.95661 51.8254 8.25404 49.6715 6.94656C45.9616 4.64562 41.7487 3.10545 37.3231 2.43219C32.7417 1.56561 28.0167 1.54147 23.4249 2.36119C18.7441 3.10083 14.4833 5.28244 11.354 8.54168C10.5112 9.56923 9.74187 10.6452 9.05079 11.7629C8.97292 11.874 8.92906 12.015 8.85119 12.127C8.80165 12.2351 8.72826 12.3327 8.63559 12.4138C8.54291 12.4949 8.43293 12.5578 8.31248 12.5985C8.19202 12.6392 8.06367 12.6569 7.9354 12.6504C7.80713 12.644 7.68169 12.6135 7.56687 12.561C7.45051 12.5109 7.34645 12.4399 7.26094 12.3522C7.17542 12.2645 7.11021 12.1619 7.06924 12.0507C7.02826 11.9394 7.01237 11.8218 7.02249 11.7048C7.03262 11.5878 7.06857 11.4739 7.12818 11.3699C7.92435 9.7013 9.02541 8.16806 10.3845 6.83555C13.6655 3.68556 17.9442 1.54947 22.6221 0.726056C24.117 0.426032 25.6678 0.302023 27.1846 0.100006C27.3528 0.0763044 27.5191 0.0429029 27.6826 0C29.1314 0.0330026 30.5933 0.0329998 32.0433 0.0329998Z" fill="#47BBC6"/>
<path d="M20.4375 27.4902C18.4107 26.1981 17.7022 24.632 18.4436 22.9768C18.7691 22.3482 19.2241 21.7826 19.7839 21.3107C19.8751 21.2124 19.9901 21.135 20.12 21.0844C20.2498 21.0338 20.3908 21.0116 20.5317 21.0195C20.6725 21.0273 20.8095 21.0651 20.9316 21.1297C21.0537 21.1943 21.1575 21.284 21.2349 21.3917C21.3111 21.4918 21.3645 21.6049 21.3918 21.7242C21.4192 21.8434 21.42 21.9665 21.3942 22.0861C21.3685 22.2057 21.3166 22.3193 21.2418 22.4203C21.1669 22.5212 21.0706 22.6074 20.9585 22.6738C20.7397 22.8079 20.5531 22.9811 20.4099 23.183C20.2667 23.3848 20.1699 23.611 20.1254 23.848C20.0809 24.0849 20.0896 24.3276 20.151 24.5614C20.2124 24.7952 20.3252 25.0151 20.4825 25.208C20.7896 25.5251 21.1723 25.7738 21.6012 25.9351C21.8484 25.9999 22.0632 26.1411 22.2087 26.3345C22.3542 26.528 22.4213 26.7615 22.3985 26.9952C22.372 27.5129 22.4752 28.0293 22.7004 28.5051C22.9256 28.981 23.2669 29.4037 23.6982 29.7412C24.1296 30.0787 24.6396 30.3221 25.1896 30.4528C25.7397 30.5834 26.3151 30.598 26.8722 30.4954C27.0903 30.4435 27.3202 30.4501 27.5342 30.5145C27.7483 30.5789 27.9374 30.6984 28.0787 30.8585C28.3106 31.1301 28.6032 31.3537 28.9369 31.5147C29.2706 31.6756 29.638 31.7702 30.0148 31.7921C30.3916 31.814 30.7692 31.7628 31.1226 31.6419C31.4761 31.5209 31.7974 31.333 32.0654 31.0905C32.2418 30.9204 32.478 30.8122 32.7329 30.7846C32.9879 30.757 33.2453 30.8118 33.4605 30.9395C33.9917 31.2565 34.5947 31.4596 35.2243 31.5337C35.8539 31.6078 36.4938 31.551 37.0958 31.3673C37.6979 31.1837 38.2465 30.8782 38.7006 30.4736C39.1546 30.069 39.5023 29.5759 39.7175 29.0313C39.9368 28.5873 40.2659 28.2543 40.7912 28.4053C41.1126 28.4963 41.378 28.8393 41.5886 29.1223C41.6774 29.2433 41.5776 29.5064 41.5107 29.6774C41.3889 29.9774 41.2222 30.2774 41.0786 30.5774C42.085 31.2854 43.3029 31.699 44.572 31.7638C45.8411 31.8286 47.102 31.5416 48.1889 30.9405C49.661 30.1431 50.7266 28.8462 51.1521 27.3338C51.5776 25.8215 51.3285 24.217 50.4592 22.8718C49.8943 22.0038 49.9272 21.8617 50.6785 21.1547C51.3803 20.5539 51.8816 19.7845 52.1245 18.9351C52.3675 18.0858 52.3422 17.1911 52.0517 16.3543C51.8184 15.5149 51.3263 14.7539 50.6336 14.1616C49.9408 13.5693 49.0765 13.1703 48.1428 13.012C47.8403 12.973 47.5572 12.8535 47.3287 12.6685C47.1003 12.4835 46.9367 12.2412 46.8585 11.9719C46.5994 11.2348 46.1486 10.5658 45.5447 10.0218C44.9407 9.47786 44.2014 9.07514 43.3899 8.84802C42.5783 8.62091 41.7186 8.57612 40.884 8.71746C40.0494 8.8588 39.2646 9.18209 38.5966 9.65976C37.6994 10.2858 37.3342 10.2248 36.6696 9.36674C35.8909 8.32702 34.7586 7.54996 33.4473 7.15557C33.3256 7.11556 33.2038 7.08456 33.0821 7.03455C32.847 6.95673 32.6549 6.79779 32.5472 6.592C32.4395 6.38621 32.4248 6.15004 32.5063 5.93446C32.5428 5.82655 32.6029 5.72649 32.6828 5.64022C32.7627 5.55395 32.8609 5.48325 32.9715 5.43237C33.0821 5.3815 33.2028 5.35146 33.3264 5.34408C33.4499 5.3367 33.5739 5.35212 33.6908 5.38942C34.9975 5.71731 36.1932 6.33863 37.1686 7.19657C37.4121 7.40859 37.6896 7.59659 38.0098 7.85261C38.0537 7.83261 38.1985 7.78162 38.3389 7.71161C39.2226 7.26665 40.1986 6.99516 41.2043 6.91458C42.2099 6.834 43.2229 6.94613 44.1782 7.24374C45.1335 7.54135 46.0099 8.01787 46.7513 8.6427C47.4926 9.26753 48.0824 10.0268 48.4828 10.8719C48.6152 11.1179 48.8448 11.309 49.1255 11.4069C50.2422 11.7291 51.2565 12.2935 52.0813 13.0518C52.9061 13.8101 53.5168 14.7396 53.8609 15.7604C54.2051 16.7813 54.2725 17.863 54.0572 18.9129C53.842 19.9627 53.3506 20.9492 52.6253 21.7877C52.4976 21.9078 52.4166 22.0626 52.3946 22.2286C52.3726 22.3946 52.4109 22.5625 52.5035 22.7068C53.3784 24.4448 53.5042 26.4193 52.8558 28.2379C52.2074 30.0565 50.8323 31.5861 49.0038 32.5226C48.8167 32.5993 48.6544 32.7184 48.5322 32.8687C48.4101 33.0189 48.3323 33.1952 48.3062 33.3807C48.1288 34.3172 47.6835 35.1945 47.0152 35.9239C46.347 36.6533 45.4794 37.2089 44.5002 37.5347C43.5211 37.8605 42.465 37.9449 41.4386 37.7793C40.4122 37.6138 39.4519 37.2042 38.6547 36.5919C38.1789 36.359 37.6677 36.1922 37.1379 36.0969C37.2267 36.4609 37.2706 36.6419 37.3266 36.8239C37.581 37.591 37.8475 38.3491 38.102 39.1161C38.7216 40.9743 37.7038 42.0164 35.5882 41.6713C34.7689 41.5403 33.943 41.4293 33.1183 41.3083C32.5531 41.2409 32.0196 41.0314 31.5776 40.7032C31.1356 40.375 30.8024 39.9412 30.6155 39.4502C29.7183 37.41 28.7883 35.3708 27.8802 33.3307C27.7791 33.0145 27.56 32.7405 27.2608 32.556C26.9615 32.3716 26.601 32.2883 26.2416 32.3206C25.2513 32.336 24.274 32.1136 23.4078 31.6759C22.5415 31.2381 21.8167 30.6002 21.3062 29.8264C21.1965 29.6644 21.0956 29.4934 21.0408 29.4124C20.0696 29.7184 19.0736 29.9548 18.062 30.1194C16.8748 30.2693 15.6654 30.1088 14.5744 29.6564C13.4834 29.2041 12.5557 28.4785 11.8993 27.5642C11.1876 26.6751 10.7567 25.6253 10.6532 24.5287C10.5498 23.432 10.7778 22.3305 11.3125 21.3437C11.4462 21.0557 11.4656 20.7342 11.3673 20.4346C11.0273 19.569 10.8789 18.6505 10.9307 17.7323C10.9825 16.814 11.2335 15.9143 11.6691 15.085C12.1047 14.2558 12.7164 13.5136 13.4686 12.9013C14.2208 12.289 15.0988 11.8188 16.0516 11.5179C16.2116 11.4779 16.3577 11.4012 16.4759 11.2951C16.5942 11.189 16.6807 11.0571 16.7272 10.9119C17.3067 9.47683 18.4694 8.30002 19.9743 7.62515C21.4792 6.95028 23.2112 6.82905 24.8114 7.28657C24.965 7.33304 25.1296 7.34066 25.2876 7.30861C25.4456 7.27656 25.5911 7.20604 25.7086 7.10457C26.5757 6.54295 27.4821 6.03349 28.422 5.57944C28.54 5.50991 28.6735 5.46526 28.8129 5.44872C28.9522 5.43218 29.0939 5.44417 29.2275 5.48383C29.3611 5.52349 29.4834 5.58981 29.5854 5.67797C29.6873 5.76613 29.7665 5.87391 29.817 5.99347C29.8697 6.11153 29.8936 6.23858 29.8873 6.36589C29.8809 6.4932 29.8444 6.61774 29.7802 6.73094C29.716 6.84414 29.6256 6.9433 29.5153 7.02161C29.4051 7.09992 29.2775 7.15551 29.1414 7.18456C28.0793 7.55612 27.1381 8.16763 26.4061 8.96171C26.25 9.16302 26.0155 9.30235 25.7505 9.35124C25.4855 9.40013 25.21 9.35488 24.9803 9.22473C24.3439 8.92695 23.6405 8.7676 22.9252 8.75916C22.21 8.75073 21.5023 8.89345 20.8576 9.17613C20.213 9.45881 19.6489 9.87376 19.2095 10.3885C18.7701 10.9032 18.4674 11.5037 18.3252 12.143C18.2778 12.3517 18.1645 12.5431 17.9993 12.6938C17.834 12.8445 17.624 12.9478 17.3951 12.991C16.5349 13.143 15.7255 13.4763 15.0317 13.9643C14.3379 14.4523 13.7787 15.0814 13.399 15.8015C13.0192 16.5216 12.8293 17.3126 12.8445 18.1115C12.8597 18.9104 13.0794 19.695 13.4863 20.4026C13.5901 20.6247 13.6245 20.8686 13.5858 21.1074C13.5471 21.3462 13.4367 21.5706 13.2669 21.7557C12.7375 22.5645 12.5066 23.5068 12.6083 24.4442C12.7099 25.3815 13.1387 26.2644 13.8316 26.9629C14.5245 27.6615 15.445 28.1388 16.4576 28.3249C17.4702 28.5109 18.5216 28.3957 19.457 27.9962C19.7993 27.8537 20.1273 27.6843 20.4375 27.4902ZM30.1384 33.7307C30.1384 33.6397 30.1165 33.7007 30.1384 33.7507C30.9061 35.4778 31.6662 37.214 32.4635 38.9311C32.5281 39.0622 32.6214 39.1799 32.7375 39.2771C32.8537 39.3742 32.9903 39.4488 33.1391 39.4962C34.169 39.7082 35.223 39.8392 36.3833 40.0212C35.597 37.709 34.8665 35.4968 34.1021 33.3057C33.9803 32.9626 33.0503 32.7406 32.6851 32.8716C31.8888 33.1647 31.0684 33.4177 30.1384 33.7307ZM46.2959 33.4307C45.1982 33.6021 44.0741 33.5734 42.9887 33.3463C41.9032 33.1192 40.8779 32.6982 39.9719 32.1076C38.6317 32.6026 37.4494 33.0466 36.2287 33.4907C36.4064 34.2377 36.9482 34.6518 38.034 34.5208C38.3558 34.4769 38.6846 34.509 38.989 34.6141C39.2933 34.7191 39.563 34.8936 39.7723 35.1208C40.2679 35.552 40.8784 35.8577 41.5434 36.0076C42.2084 36.1574 42.9048 36.1463 43.5637 35.9752C44.2225 35.8041 44.8208 35.4791 45.2995 35.0322C45.7781 34.5854 46.1205 34.0323 46.2926 33.4277L46.2959 33.4307Z" fill="#47BBC6"/>
<path d="M3.90365 38.6469C4.31384 39.091 4.76791 39.586 5.23293 40.0711C5.36534 40.164 5.4714 40.2846 5.54223 40.4226C5.61307 40.5606 5.64662 40.7121 5.64007 40.8644C5.63352 41.0166 5.58705 41.1653 5.50458 41.2978C5.42211 41.4303 5.30602 41.5429 5.16602 41.6262C4.95494 41.8329 4.75893 42.0521 4.57925 42.2822C5.01138 42.4742 5.36564 42.6153 5.68699 42.7823C5.93874 42.8845 6.16274 43.036 6.34316 43.2259C6.52359 43.4159 6.65601 43.6396 6.73104 43.8814C6.80607 44.1232 6.82187 44.3771 6.77734 44.6251C6.73281 44.8731 6.62904 45.1091 6.47336 45.3165C6.23558 45.6932 6.08767 46.1114 6.0393 46.5438C5.99093 46.9761 6.04319 47.413 6.19268 47.8257C6.34217 48.2384 6.5855 48.6177 6.90677 48.9387C7.22805 49.2598 7.62004 49.5154 8.05709 49.6888C9.58996 50.259 11.2718 50.4098 12.8971 50.1229C14.3371 49.9509 15.7761 49.7588 17.2161 49.5878C18.7841 49.3548 20.3927 49.5532 21.8365 50.1576C23.2804 50.762 24.4939 51.745 25.3223 52.9811C26.2056 54.2418 26.9828 55.5617 27.6474 56.9294C28.2791 58.1295 28.8209 58.4235 30.2171 58.1005C36.2968 56.6664 42.3802 55.2359 48.4672 53.8091C50.0027 53.4461 50.4052 52.7591 49.8842 51.386C49.6407 50.7599 49.4082 50.1339 49.1867 49.5078C48.9761 48.8918 49.1976 48.4377 49.7625 48.2757C50.3273 48.1137 50.7814 48.3667 51.0248 48.9828C51.2793 49.6388 51.5228 50.3059 51.7783 50.9719C51.9926 51.4173 52.0942 51.9009 52.0756 52.387C52.0569 52.873 51.9185 53.349 51.6707 53.7796C51.4228 54.2103 51.0718 54.5845 50.6437 54.8746C50.2156 55.1646 49.7213 55.3631 49.1976 55.4553C45.3955 56.364 41.5898 57.2594 37.7804 58.1415L30.5823 59.8416C29.6687 60.1203 28.6713 60.0593 27.8067 59.6717C26.9421 59.2842 26.2799 58.6014 25.9639 57.7715C25.2817 56.3709 24.4716 55.025 23.5422 53.7482C22.8612 52.8116 21.8854 52.0847 20.7431 51.663C19.6008 51.2412 18.3454 51.1443 17.1416 51.385C15.3253 51.637 13.4981 51.829 11.6709 52.001C10.0186 52.1648 8.35124 51.858 6.8978 51.123C6.29269 50.838 5.75509 50.4471 5.31569 49.9727C4.87629 49.4982 4.54372 48.9495 4.33696 48.3578C4.13021 47.7661 4.05332 47.143 4.1107 46.5243C4.16808 45.9055 4.3586 45.3031 4.67138 44.7514C4.72622 44.6514 4.78106 44.5394 4.84906 44.4084C4.16249 43.9744 3.13263 44.0344 2.87489 43.0753C2.77015 42.6971 2.75651 42.3028 2.83489 41.9193C2.91327 41.5359 3.08182 41.1725 3.32895 40.8541C3.05257 40.6221 2.78057 40.3901 2.48774 40.1671C2.23127 39.9893 2.02566 39.7578 1.88838 39.4921C1.7511 39.2264 1.68621 38.9344 1.69924 38.6409C1.71227 38.3474 1.80282 38.0611 1.9632 37.8064C2.12359 37.5517 2.34906 37.336 2.62045 37.1778C3.11349 36.8453 3.56317 36.4625 3.96069 36.0367C3.5505 35.8747 3.28508 35.7847 3.01966 35.6627C2.42945 35.4401 1.86234 35.1697 1.32517 34.8546C0.961244 34.6188 0.656461 34.3151 0.431026 33.9637C0.205591 33.6123 0.0646502 33.2212 0.0175656 32.8163C-0.029519 32.4115 0.0183167 32.0021 0.157907 31.6154C0.297498 31.2287 0.525663 30.8735 0.827249 30.5733C1.35686 30.0671 1.93091 29.6012 2.54368 29.1802C3.69702 28.3361 4.69199 27.3265 5.48957 26.1909C5.64169 26.003 5.72468 25.7761 5.72665 25.5425C5.72863 25.309 5.64948 25.0808 5.50055 24.8908C5.14629 24.3758 4.803 23.8607 4.49262 23.3257C4.25299 22.9745 4.11422 22.5739 4.08911 22.1609C4.064 21.7479 4.15336 21.3357 4.34894 20.9625C5.18849 19.3999 5.65642 17.6931 5.72209 15.9541C5.73288 15.7994 5.76645 15.6467 5.8219 15.5001C5.87989 15.2978 6.02242 15.1242 6.21901 15.0166C6.41559 14.9089 6.65059 14.8757 6.87369 14.924C6.98797 14.9286 7.09997 14.9547 7.20265 15.0007C7.30533 15.0467 7.39647 15.1116 7.47033 15.1912C7.54419 15.2709 7.59917 15.3636 7.63183 15.4636C7.66448 15.5635 7.67409 15.6686 7.66006 15.7721C7.47142 17.4782 7.48239 19.2254 6.51944 20.7725C6.22729 21.1587 6.08789 21.624 6.12417 22.092C6.16044 22.56 6.37022 23.0028 6.71904 23.3477C6.96178 23.6468 7.16948 23.9682 7.33871 24.3068C7.58608 24.7089 7.70851 25.1648 7.69286 25.6257C7.67721 26.0865 7.52406 26.5347 7.24988 26.922C6.32293 28.333 5.12216 29.5783 3.70624 30.5973C3.22997 30.9262 2.77513 31.2802 2.34406 31.6574C2.19692 31.7812 2.0836 31.9347 2.01317 32.1057C1.94275 32.2766 1.91718 32.4602 1.9385 32.6417C1.95982 32.8233 2.02743 32.9978 2.13594 33.1513C2.24446 33.3047 2.39085 33.4329 2.56341 33.5255C3.04046 33.7808 3.54507 33.9906 4.06926 34.1516C5.86356 34.7876 6.27266 36.1007 5.07719 37.4838C4.67797 37.9009 4.22391 38.3249 3.90365 38.6469Z" fill="#47BBC6"/>
<path d="M33.0061 14.3724C34.0807 13.4082 35.5251 12.8639 37.0326 12.8551C38.5402 12.8462 39.9921 13.3735 41.0803 14.325C42.1684 15.2765 42.807 16.5772 42.8605 17.951C42.9139 19.3248 42.3781 20.6635 41.3667 21.683C41.0563 21.983 40.747 22.283 40.4256 22.561C40.3403 22.6617 40.2325 22.7446 40.1094 22.8045C39.9864 22.8644 39.8508 22.8998 39.7116 22.9084C39.5724 22.917 39.4328 22.8986 39.302 22.8544C39.1712 22.8102 39.0522 22.7412 38.9527 22.652C38.8611 22.557 38.7918 22.4459 38.7492 22.3255C38.7066 22.2051 38.6916 22.078 38.7051 21.9521C38.7185 21.8262 38.7602 21.7041 38.8275 21.5935C38.8948 21.4828 38.9863 21.386 39.0964 21.3089C39.4177 20.9959 39.772 20.7029 40.0714 20.3799C40.4143 20.0288 40.6736 19.6166 40.8329 19.1695C40.9923 18.7224 41.0483 18.2499 40.9973 17.7821C40.9462 17.3143 40.7894 16.8611 40.5366 16.4514C40.2838 16.0416 39.9405 15.6841 39.5285 15.4015C39.1338 15.1083 38.6791 14.8896 38.1909 14.7581C37.7026 14.6267 37.1905 14.5851 36.6845 14.6358C36.1784 14.6865 35.6885 14.8286 35.2432 15.0536C34.7979 15.2786 34.4062 15.5821 34.0908 15.9465C33.9336 16.1562 33.7516 16.3494 33.5479 16.5226C33.0719 16.8556 32.5509 16.6946 32.042 16.0885C31.5103 15.4048 30.728 14.917 29.8364 14.7132C28.9447 14.5095 28.0026 14.6032 27.1801 14.9774C26.627 15.2143 26.1448 15.5694 25.7743 16.0124C25.4037 16.4554 25.1558 16.9734 25.0515 17.5224C24.9472 18.0714 24.9896 18.6352 25.1752 19.1661C25.3607 19.6969 25.6839 20.1792 26.1173 20.5719C28.2099 22.49 30.3366 24.3992 32.4182 26.3273C32.8503 26.7274 33.1717 26.7274 33.5808 26.3273C34.2388 25.6813 34.932 25.0752 35.6185 24.4592C36.1395 23.9951 36.6594 23.9591 37.0915 24.3282C37.5236 24.6972 37.5017 25.2172 36.9698 25.7113C36.2393 26.3883 35.4968 27.0744 34.7433 27.7414C34.5251 27.9654 34.2573 28.1447 33.9576 28.2674C33.6579 28.3902 33.333 28.4537 33.0044 28.4537C32.6759 28.4537 32.351 28.3902 32.0513 28.2674C31.7516 28.1447 31.4838 27.9654 31.2655 27.7414C29.0947 25.7726 26.9278 23.8001 24.765 21.824C23.7084 20.89 23.094 19.6163 23.053 18.2749C23.012 16.9335 23.5477 15.6306 24.5457 14.6444C25.5376 13.6259 26.9216 12.9948 28.4103 12.8819C29.899 12.7691 31.3782 13.1832 32.541 14.0384C32.6847 14.1304 32.8284 14.2414 33.0061 14.3724Z" fill="#47BBC6"/>
</svg>
