<svg width="60" height="61" viewBox="0 0 60 61" fill="none" xmlns="http://www.w3.org/2000/svg">
<path d="M59.9696 45.1262C59.8696 45.5803 59.7837 46.0444 59.6697 46.4884C59.1982 48.2083 58.3595 49.8053 57.2116 51.1694C56.0637 52.5335 54.6338 53.6322 53.0205 54.3898C51.1007 55.379 49.0071 55.9854 46.8561 56.1752C46.8561 56.5152 46.8661 56.8563 46.8561 57.2063C46.857 57.5749 46.785 57.9399 46.6444 58.2805C46.5037 58.6211 46.2971 58.9305 46.0364 59.1908C45.7757 59.4511 45.4661 59.6572 45.1255 59.7973C44.7849 59.9373 44.4199 60.0086 44.0517 60.0068C34.6804 60.0168 25.3127 60.0168 15.9488 60.0068C15.5766 60.0114 15.2073 59.9414 14.8625 59.801C14.5178 59.6605 14.2046 59.4525 13.9415 59.1891C13.6783 58.9258 13.4704 58.6124 13.3301 58.2674C13.1898 57.9224 13.1198 57.5528 13.1244 57.1803C13.1144 56.8713 13.1244 56.5612 13.1244 56.2722C12.001 56.0351 10.9076 55.8721 9.84625 55.5501C7.99743 55.0787 6.26701 54.227 4.76532 53.0493C3.26362 51.8716 2.02358 50.3937 1.12425 48.7098C0.41135 47.3349 0.0300534 45.812 0.0108884 44.263C0.000894133 43.4999 0.350692 43.1488 1.11026 43.1488C1.92479 43.1388 2.73933 43.1488 3.6568 43.1488L3.15209 42.3747C1.59343 39.8649 0.601208 37.0447 0.244756 34.1112C-0.0781906 32.3412 -0.0815777 30.5275 0.234759 28.7563C0.977334 25.2387 4.15252 22.1431 7.5026 21.772C8.31987 21.7238 9.13935 21.7272 9.95619 21.782C10.338 21.792 10.7298 21.8341 11.1935 21.8751C11.1837 21.1941 11.0329 20.5226 10.7508 19.9029C10.4687 19.2832 10.0614 18.7287 9.55442 18.2744C9.21581 18.052 8.83216 17.9076 8.43107 17.8513C7.82242 17.7273 7.44163 17.3252 7.51359 16.7781C7.53134 16.6463 7.57664 16.5196 7.64654 16.4063C7.71644 16.2931 7.80937 16.1959 7.91929 16.121C8.02921 16.0461 8.15366 15.9952 8.28453 15.9716C8.41541 15.948 8.54979 15.9522 8.67892 15.984C9.48864 16.0817 10.2571 16.396 10.9033 16.894C11.5495 17.3919 12.0495 18.0551 12.3508 18.8135C12.4847 18.6585 12.5877 18.5455 12.6906 18.4214C13.2817 17.678 14.0281 17.073 14.8775 16.6488C15.7269 16.2246 16.6588 15.9916 17.6078 15.966C18.3914 15.935 18.7622 16.3171 18.7312 17.1112C18.6959 18.5879 18.1494 20.0066 17.1851 21.1249C17.0611 21.269 16.9272 21.414 16.8033 21.569C16.7953 21.5811 16.7917 21.5956 16.7933 21.61C21.9993 23.0333 24.4739 26.4999 24.3889 31.9268C25.3274 31.7828 26.2339 31.6068 27.1623 31.5038C31.7397 30.9987 36.3061 30.4616 40.8835 30.0495C42.0093 29.9653 43.1399 30.1286 44.1959 30.5279C45.252 30.9272 46.2081 31.5528 46.997 32.3609C47.1492 32.5544 47.2774 32.7657 47.3788 32.99C47.8382 31.9557 48.5571 31.0577 49.4656 30.3834C50.3741 29.709 51.4413 29.2812 52.5638 29.1413C53.4961 29.0569 54.4334 29.0395 55.3682 29.0893C55.9149 29.0993 56.2337 29.5224 56.2137 30.1515C56.1727 31.4718 56.0898 32.782 56.0138 34.2263C57.5789 34.8122 58.9474 35.8275 59.9626 37.1558V37.8559C58.9066 39.2204 57.4833 40.2548 55.8599 40.8374C56.0038 41.6316 56.1388 42.3537 56.2827 43.1278C57.0452 43.1278 57.8188 43.1588 58.6023 43.1178C58.8625 43.0816 59.1277 43.1185 59.3681 43.2245C59.6085 43.3305 59.8147 43.5013 59.9636 43.7179C59.9696 44.187 59.9696 44.6511 59.9696 45.1262ZM2.00274 45.0262C2.17696 46.9026 2.98002 48.665 4.28145 50.0271C5.57816 51.4318 7.1591 52.5439 8.91896 53.2893C10.6788 54.0347 12.5772 54.3962 14.4876 54.3498C24.8277 54.4018 35.1678 54.3708 45.5078 54.3598C47.4841 54.3613 49.4392 53.9527 51.2496 53.1596C52.6673 52.6211 53.9584 51.7952 55.0419 50.7335C56.1255 49.6719 56.978 48.3976 57.5459 46.9905C57.7575 46.3432 57.9363 45.6856 58.0816 45.0202L2.00274 45.0262ZM19.075 42.0857C18.8891 42.0336 18.7352 41.9926 18.5902 41.9516C17.0331 41.5286 15.4461 41.1775 13.9199 40.6514C12.799 40.2708 11.7317 39.7471 10.7447 39.0931C10.476 38.9264 10.254 38.6942 10.0993 38.4182C9.94462 38.1422 9.86239 37.8315 9.86029 37.5151C9.8582 37.1987 9.9363 36.887 10.0873 36.609C10.2383 36.331 10.4573 36.0959 10.7238 35.9256C11.2502 35.5248 11.8251 35.1921 12.4348 34.9354C15.1147 33.8696 17.9 33.0915 20.744 32.614C22.538 32.2529 22.548 32.2739 22.497 30.4476C22.3971 26.8679 19.1989 22.9783 14.7345 23.6074C13.0509 23.8207 11.3476 23.8277 9.66236 23.6284C8.67673 23.486 7.67186 23.5621 6.71887 23.8513C5.76588 24.1405 4.88804 24.6358 4.14748 25.3021C3.40692 25.9684 2.82174 26.7894 2.43333 27.7071C2.04492 28.6248 1.86279 29.6167 1.89981 30.6126C1.8746 33.094 2.27553 35.5613 3.08512 37.9069C3.61871 39.6469 4.5226 41.2507 5.73461 42.6078C5.88267 42.7819 6.06797 42.9205 6.27677 43.0132C6.48558 43.106 6.71255 43.1507 6.94092 43.1438C10.333 43.1128 13.724 43.0918 17.1261 43.1538C17.5189 43.1805 17.9111 43.0937 18.256 42.9038C18.601 42.7139 18.8842 42.4289 19.072 42.0827L19.075 42.0857ZM32.8071 42.4367C34.725 42.6367 36.56 42.8498 38.4039 42.9938C39.8927 43.219 41.4089 43.1909 42.8883 42.9108C44.1666 42.6279 45.3089 41.9138 46.1236 40.8882C46.9383 39.8626 47.3758 38.5879 47.3628 37.2778C47.1979 33.9562 43.8268 31.3967 40.3008 31.9648V37.2658C40.3008 38.0089 39.961 38.442 39.3733 38.442C38.7857 38.442 38.4349 38.0189 38.4249 37.2868V31.9528C34.6101 32.4169 30.9092 32.871 27.1773 33.3351V38.236C27.1773 38.9581 26.8065 39.4022 26.2189 39.3812C25.6522 39.3712 25.3014 38.9481 25.3014 38.257C25.2914 36.9257 25.3014 35.6055 25.3014 34.2743C25.3014 34.0882 25.2804 33.9032 25.2704 33.5621C21.9923 34.2943 18.7861 34.9554 15.6209 35.7385C14.4635 36.067 13.3413 36.5092 12.2709 37.0588C11.6422 37.3588 11.6832 37.6679 12.2709 38.0699L12.5187 38.225C14.4947 39.088 16.563 39.7216 18.6832 40.1133C18.7142 40.0303 18.7352 39.9893 18.7452 39.9583C18.7552 39.5452 18.7552 39.1431 18.7552 38.73C18.7651 37.9459 19.106 37.5128 19.7036 37.5228C20.2813 37.5328 20.6211 37.9559 20.6211 38.709V40.5764C24.0641 41.1335 27.4662 41.6766 30.9302 42.2377V41.5666C30.9302 40.5664 30.8992 39.5752 30.9512 38.585C30.9563 38.4249 30.9937 38.2674 31.061 38.122C31.1283 37.9766 31.2242 37.8463 31.343 37.7389C31.4758 37.6553 31.6265 37.6043 31.7828 37.5899C31.9391 37.5754 32.0965 37.598 32.2424 37.6559C32.5384 37.8779 32.7348 38.2078 32.7891 38.574C32.8351 39.8232 32.8041 41.0925 32.8041 42.4327L32.8071 42.4367ZM15.0443 56.2822C14.9104 57.9125 15.1162 58.1395 16.6624 58.1395H43.518C43.7139 58.1465 43.9101 58.1431 44.1056 58.1295C44.322 58.1226 44.5286 58.038 44.6875 57.891C44.8465 57.744 44.9472 57.5446 44.9711 57.3294C44.9952 56.9825 44.9985 56.6345 44.9811 56.2872L15.0443 56.2822ZM57.7138 37.5058C56.651 36.393 55.1995 35.7341 53.6627 35.6668C52.1259 35.5995 50.6225 36.129 49.4666 37.1448C49.1577 37.4448 49.2187 37.6499 49.5075 37.9079C50.6654 38.9074 52.1631 39.4228 53.6904 39.3472C55.2176 39.2716 56.6572 38.6108 57.7109 37.5018L57.7138 37.5058ZM48.8689 35.2154C50.2989 34.2482 51.9882 33.7374 53.7141 33.7502C53.7979 33.7281 53.8747 33.6854 53.9378 33.6261C54.0008 33.5667 54.0479 33.4924 54.0749 33.4101C54.2189 32.616 54.3228 31.8208 54.4357 31.0267C51.5044 30.5996 48.721 32.716 48.8659 35.2114L48.8689 35.2154ZM54.3947 43.1288C54.3018 42.6288 54.2089 42.2007 54.1469 41.7776C54.0849 41.3545 53.8581 41.2415 53.4253 41.2415C51.9761 41.2529 50.554 40.8482 49.3277 40.0753L48.8759 39.8172C48.8903 40.4476 49.0471 41.0666 49.3346 41.6276C49.6221 42.1887 50.0328 42.6773 50.536 43.0568C50.6029 43.093 50.6769 43.1141 50.7528 43.1188C51.9272 43.1248 53.1135 43.1248 54.3918 43.1248L54.3947 43.1288ZM16.7163 17.9974C15.8857 18.1667 15.1232 18.5769 14.5237 19.1767C13.9243 19.7766 13.5145 20.5397 13.3453 21.371C14.1687 21.1853 14.9225 20.769 15.5185 20.1708C16.1145 19.5726 16.5282 18.817 16.7113 17.9924L16.7163 17.9974ZM24.1491 43.1188C24.1574 43.0952 24.1644 43.0712 24.1701 43.0468C23.2936 42.8818 22.4281 42.7268 21.5516 42.5467C21.0778 42.4537 20.9119 42.7118 20.789 43.1038C21.9383 43.1178 23.0417 43.1178 24.1441 43.1178L24.1491 43.1188ZM47.5357 42.2937C47.2359 42.5517 46.936 42.8198 46.6282 43.0878H47.9994C47.8035 42.7638 47.6596 42.5057 47.5357 42.2887V42.2937Z" fill="#47BBC6"/>
<path d="M40.6491 0C41.5356 0.200036 42.4431 0.330056 43.3196 0.588102C46.6565 1.57179 49.5098 3.75993 51.3268 6.72862C53.1437 9.69731 53.795 13.2352 53.1543 16.657C52.5137 20.0787 50.6268 23.1407 47.8592 25.2498C45.0916 27.3589 41.6403 28.3648 38.1738 28.0729C34.7074 27.7809 31.4727 26.2118 29.0962 23.6695C26.7198 21.1271 25.3708 17.7926 25.3107 14.3118C25.2506 10.8311 26.4835 7.45185 28.7707 4.82883C31.0579 2.20582 34.2365 0.525719 37.6908 0.114019C37.8207 0.0916504 37.9484 0.0581904 38.0726 0.0140024C38.9281 -6.14782e-08 39.7966 0 40.6491 0ZM51.5359 14.0305C51.5297 11.6278 50.8136 9.28052 49.478 7.28392C48.1423 5.28732 46.2465 3.73051 44.029 2.80925C41.8116 1.888 39.3715 1.64342 37.0155 2.10629C34.6595 2.56915 32.4929 3.71879 30.7881 5.41063C29.0833 7.10247 27.9163 9.26099 27.4341 11.6148C26.9518 13.9685 27.1757 16.4124 28.0776 18.6392C28.9795 20.866 30.5191 22.7762 32.503 24.1296C34.4868 25.483 36.8262 26.2192 39.227 26.2457C40.839 26.261 42.438 25.9563 43.9316 25.3491C45.4252 24.742 46.7837 23.8444 47.9284 22.7084C49.0731 21.5725 49.9813 20.2206 50.6005 18.731C51.2198 17.2415 51.5377 15.6438 51.5359 14.0305Z" fill="#47BBC6"/>
<path d="M37.5548 16.589C37.8027 16.2799 37.9676 16.0109 38.1835 15.7948C40.1217 13.8452 42.0666 11.8988 44.0182 9.9558C44.1473 9.80933 44.2925 9.67782 44.4509 9.56374C44.6295 9.44384 44.8442 9.38973 45.0583 9.41065C45.2723 9.43156 45.4725 9.5262 45.6246 9.6784C45.7767 9.83059 45.8712 10.0309 45.8921 10.2451C45.913 10.4594 45.859 10.6742 45.7392 10.853C45.6363 10.9956 45.5187 11.127 45.3884 11.245L38.3984 18.2403C37.6868 18.9404 37.285 18.9404 36.5734 18.2303L33.3463 15.0007C32.7376 14.3916 32.6557 13.8865 33.0884 13.4324C33.5212 12.9783 34.0579 13.0503 34.6965 13.6905C35.596 14.6086 36.5034 15.5268 37.5548 16.589Z" fill="#47BBC6"/>
</svg>
