<svg width="60" height="62" viewBox="0 0 60 62" fill="none" xmlns="http://www.w3.org/2000/svg">
<path d="M7.12957 52.6606C9.10339 53.3728 11.01 54.068 12.9994 54.7961C12.9937 51.3043 13.34 47.8203 14.0333 44.3935C14.6692 44.5065 15.2875 44.6196 16.0071 44.7656C14.7664 50.137 15.0207 55.5403 15.0207 60.9927H13.0138C13.0138 59.8604 12.9807 58.7281 13.0304 57.5789C13.0527 57.4693 13.0522 57.3565 13.0289 57.2472C13.0055 57.1378 12.9598 57.0341 12.8943 56.9421C12.8289 56.8501 12.7451 56.7717 12.6479 56.7115C12.5507 56.6513 12.442 56.6106 12.3283 56.5916C10.8735 56.1065 9.43323 55.5563 7.9464 55.0222V60.9927H6.03977C6.01938 60.8267 6.00834 60.6597 6.00669 60.4926C5.95603 58.5831 5.93949 56.6586 5.87331 54.7491C5.87198 54.6403 5.84579 54.5331 5.79664 54.4353C5.74748 54.3374 5.67658 54.2512 5.58898 54.183C5.37477 54.0722 5.20352 53.8971 5.10097 53.6841C4.99842 53.4711 4.97011 53.2316 5.0203 53.0017C5.4556 49.6368 5.85676 46.271 6.35823 42.9221C6.48685 41.4806 6.80728 40.0612 7.31155 38.6991C8.96588 34.8811 12.1112 32.9556 16.3256 32.5835C17.496 32.4835 18.6665 32.3405 20.022 32.1954C18.6505 31.3095 17.4964 30.1435 16.641 28.7794C15.7857 27.4153 15.2499 25.8865 15.0714 24.3004C14.6538 24.2398 14.2397 24.1587 13.8306 24.0574C13.2355 23.878 12.6919 23.5665 12.2434 23.1477C11.7949 22.7289 11.4538 22.2145 11.2474 21.6454C11.0411 21.0764 10.9752 20.4685 11.0549 19.8704C11.1347 19.2724 11.358 18.7006 11.7069 18.2009C11.8985 17.9227 12.0029 17.5969 12.0078 17.2627C12.0243 14.787 12.0243 12.2954 12.0243 9.82077C12.0069 8.65744 12.2307 7.50254 12.6824 6.42425C13.1341 5.34596 13.8045 4.36614 14.6541 3.54266C15.5037 2.71918 16.5152 2.06873 17.6289 1.6297C18.7427 1.19068 19.9361 0.971984 21.1386 0.986537C25.0191 0.970533 28.8985 0.986537 32.7789 0.986537C33.6731 0.93103 34.561 1.16479 35.3028 1.651C36.0446 2.1372 36.5982 2.84826 36.8765 3.67223C36.9687 3.86143 37.1295 4.01128 37.3283 4.09332C38.1562 4.36442 38.871 4.88777 39.3655 5.58493C39.8601 6.28209 40.1077 7.1155 40.0714 7.9603C40.0714 11.0501 40.0714 14.1409 40.0879 17.2306C40.0925 17.5802 40.1966 17.9218 40.3888 18.2179C40.7725 18.7686 41.003 19.4056 41.0582 20.0675C41.1134 20.7294 40.9915 21.3939 40.7041 21.997C40.4167 22.6001 39.9736 23.1213 39.4175 23.5106C38.8613 23.8998 38.2109 24.144 37.5289 24.2194C37.3614 24.2354 37.2115 24.2514 37.0605 24.2684C36.3598 27.2397 35.2519 30.1071 33.7664 32.7946C37.0275 33.3127 40.0735 34.1539 41.9946 37.1627C42.1114 35.7063 43.5166 35.6423 44.2186 34.8331C44.0677 34.7201 43.9012 34.59 43.7502 34.477C42.0783 33.3117 40.3888 32.1474 38.7159 30.9981C38.08 30.561 37.9135 30.1249 38.1803 29.6228C38.4315 29.1377 38.8824 28.9916 39.5679 29.1857L52.9638 32.8746C54.2511 33.2307 54.4351 33.9749 53.4994 34.8811C52.7756 35.5813 52.0446 36.2725 51.3085 36.9686C52.4458 38.9101 53.5666 40.7866 54.6698 42.6801C54.7867 42.8741 54.9707 43.0682 54.9707 43.2622C54.9707 43.6023 54.9542 44.0554 54.737 44.2335C54.4128 44.4135 54.0391 44.4924 53.6669 44.4595C53.4828 44.4595 53.2988 44.2815 53.1313 44.1685L42.8951 37.8589C42.7276 37.7588 42.5436 37.6648 42.3937 37.5678C43.9157 41.3377 43.8154 45.3017 44.0325 49.2327C44.049 49.5888 44.0325 49.9609 44.0325 50.317C44.0689 51.2065 43.7728 52.0788 43.1983 52.7741C42.6239 53.4695 41.8096 53.9413 40.9048 54.103C40.7241 54.1519 40.5394 54.1854 40.3527 54.203C40.1653 54.2097 39.9813 54.2533 39.8119 54.3312C39.6426 54.409 39.4914 54.5195 39.3677 54.6558C39.244 54.7922 39.1504 54.9515 39.0925 55.124C39.0347 55.2966 39.0138 55.4787 39.0312 55.6594V60.9657H37.0492V56.6356C35.8953 57.1387 34.6018 57.2583 33.3704 56.9757C32.6266 56.8046 31.9275 56.4862 31.3173 56.0407C30.7071 55.5951 30.1989 55.0321 29.8249 54.387C27.9321 51.1649 26.7958 47.5791 26.4966 43.8844C26.3126 41.9589 26.0282 40.0504 25.7439 38.1249C25.7047 38.0139 25.6388 37.9134 25.5516 37.8319C25.4644 37.7503 25.3584 37.69 25.2424 37.6558C24.308 37.5176 23.4339 37.124 22.7229 36.5216C22.0118 35.9191 21.4934 35.1327 21.2286 34.2549C21.1955 34.1739 21.1614 34.1089 21.0952 33.9799C20.3094 34.0609 19.506 34.1419 18.7037 34.2389C17.4991 34.368 16.2956 34.449 15.1076 34.66C13.3913 34.9724 11.8238 35.8087 10.6349 37.0462C9.44596 38.2836 8.69831 39.8571 8.50162 41.5358C8.03324 45.0627 7.58141 48.5736 7.13061 52.1004C7.14765 52.2868 7.14729 52.4743 7.12957 52.6606ZM38.0025 16.5815C38.0233 16.5179 38.0403 16.4531 38.0531 16.3874C38.0531 13.5077 38.0697 10.612 38.0531 7.73125C38.0515 7.23908 37.8543 6.76636 37.5022 6.41106C37.1501 6.05576 36.6703 5.84511 36.162 5.82277C35.4258 5.74174 35.1281 5.48268 35.0578 4.83552C35.0559 4.56643 34.9963 4.30066 34.8829 4.05497C34.7694 3.80928 34.6045 3.589 34.3987 3.40806C34.1928 3.22712 33.9504 3.08945 33.6867 3.00372C33.423 2.918 33.1439 2.8861 32.8668 2.91003C28.9864 2.91003 25.1069 2.89402 21.2265 2.91003C20.2753 2.88552 19.3288 3.04872 18.4449 3.38966C17.561 3.73059 16.7581 4.24213 16.0852 4.89307C15.4123 5.54402 14.8836 6.32072 14.5311 7.17583C14.1787 8.03094 14.01 8.94654 14.0354 9.86679V16.5975C14.42 16.5325 14.7043 16.4844 15.0393 16.4354V16.0473C15.0559 14.769 15.273 14.547 16.6109 14.547H23.8021C25.2067 14.5788 26.5996 14.2942 27.871 13.7158C29.1423 13.1374 30.2572 12.281 31.1277 11.2141C31.7295 10.5019 32.2816 10.4699 32.9671 11.1331C33.9204 12.0393 34.8406 12.9616 35.8105 13.8678C36.5632 14.58 37.4328 15.2101 37.0316 16.4404C37.3997 16.4834 37.7005 16.5325 38.0025 16.5805V16.5815ZM21.362 28.3925C22.1014 27.4809 23.1018 26.8001 24.2385 26.435C25.006 26.1963 25.8158 26.112 26.6182 26.1872C27.4207 26.2623 28.1988 26.4954 28.9047 26.8721C29.9076 25.8848 30.8951 24.9306 31.8815 23.9714C32.2062 23.6381 32.6263 23.4062 33.0881 23.3053C33.5499 23.2045 34.0323 23.2393 34.4736 23.4052C34.6411 23.4532 34.8075 23.5342 34.9905 23.5993C35.0071 23.4992 35.0412 23.4372 35.0412 23.3892V16.1874C35.0487 16.049 35.0075 15.9122 34.9244 15.7993C34.0042 14.8931 33.0508 13.9868 32.0975 13.0646C30.9337 14.2411 29.5175 15.1565 27.9485 15.7463C26.3795 16.3361 24.6959 16.5861 23.0163 16.4785C21.2431 16.4135 19.4709 16.4624 17.6976 16.4624H17.0121C17.0121 18.1629 16.9956 19.7793 17.0121 21.3967C16.9894 22.4823 17.0339 23.5681 17.1455 24.6485C17.4684 26.5843 18.4589 28.3574 19.9559 29.6793C21.4529 31.0013 23.3682 31.7943 25.3903 31.9294C25.4828 31.9284 25.5738 31.9058 25.6553 31.8635C25.7369 31.8211 25.8066 31.7603 25.8586 31.6863C26.3942 30.602 26.8926 29.5018 27.4479 28.3045C26.9016 28.2007 26.349 28.1305 25.7935 28.0944C25.1927 28.1349 24.6076 28.2985 24.0771 28.5745C23.5466 28.8504 23.0828 29.2323 22.7165 29.6948C22.2636 29.2487 21.8293 28.8286 21.362 28.3915V28.3925ZM39.0426 50.298C38.2568 49.8769 37.5537 49.5048 36.7514 49.0847C36.8351 49.5218 36.8848 49.7969 36.952 50.12C36.3161 50.298 35.7309 50.46 35.1126 50.6381C35.0454 50.476 34.9957 50.363 34.945 50.217C33.8755 46.3833 32.4192 42.6604 30.5973 39.1022C30.208 38.3724 30.0106 37.5611 30.0223 36.7399C30.034 35.9188 30.2546 35.1131 30.6645 34.394C31.4337 32.9216 32.203 31.4332 32.9557 29.9609C33.6268 28.6802 33.9925 27.2703 34.0259 25.8348C34.0289 25.7308 34.0079 25.6275 33.9644 25.5323C33.921 25.4372 33.8561 25.3526 33.7746 25.2847C33.672 25.2686 33.567 25.2764 33.4681 25.3074C33.3692 25.3383 33.2794 25.3916 33.206 25.4627C32.1193 26.498 30.9819 27.4852 29.9945 28.6015C28.9763 29.6504 28.2159 30.9081 27.77 32.2807C27.324 33.6534 27.204 35.1057 27.4189 36.5295C27.5223 37.1607 27.8201 37.7749 27.9038 38.406C28.1551 40.2505 28.3557 42.0949 28.5242 43.9394C28.818 47.3052 29.8682 50.5684 31.6013 53.5008C31.9152 54.0684 32.3951 54.5338 32.981 54.8389C33.5669 55.144 34.2328 55.2753 34.8954 55.2163C35.5491 55.2129 36.1875 55.0241 36.7315 54.6733C37.2754 54.3225 37.7012 53.8252 37.9559 53.2427C38.4036 52.3045 38.6714 51.3012 39.0385 50.298H39.0426ZM32.8885 34.54C32.3034 35.4119 32.0457 36.4518 32.1587 37.4856C32.2716 38.5193 32.7483 39.4842 33.5089 40.2184C33.6929 39.3452 33.877 38.455 34.0776 37.5488C34.7631 37.7108 35.3824 37.8719 35.9511 38.0019C35.6999 39.5223 35.4341 40.9466 35.249 42.37C35.0933 43.0787 35.0876 43.8106 35.2325 44.5215C35.734 46.334 35.8012 46.322 37.5238 47.2392C37.8588 47.4173 38.1762 47.5953 38.5101 47.7734C39.664 48.3885 40.8345 49.0187 42.0556 49.6658C42.0721 49.4878 42.0886 49.3908 42.0886 49.2937C41.8715 46.527 41.7537 43.7443 41.4031 40.9776C41.2792 39.6495 40.7338 38.3909 39.8416 37.3743C38.9494 36.3578 37.7541 35.633 36.4195 35.2992C35.2428 34.9931 34.0724 34.7981 32.8844 34.54H32.8885ZM44.9134 36.7886C46.9876 38.0669 48.9945 39.2962 51.0138 40.5425C51.0303 40.4425 51.0469 40.4295 51.0303 40.4135C50.4616 39.4423 49.9095 38.488 49.3408 37.5128C49.2339 37.3984 49.1542 37.2627 49.1075 37.1153C49.0608 36.9679 49.0481 36.8123 49.0704 36.6597C49.0927 36.507 49.1494 36.3609 49.2365 36.2318C49.3236 36.1026 49.439 35.9936 49.5745 35.9124C50.0915 35.4272 50.6281 34.9741 51.2805 34.412C48.9024 33.7648 46.7818 33.1667 44.6074 32.5675C44.658 32.6485 44.658 32.6806 44.6746 32.6806C45.295 33.1177 45.9288 33.5538 46.5357 34.0069C46.6995 34.0901 46.8364 34.2154 46.9313 34.369C47.0263 34.5226 47.0756 34.6985 47.0739 34.8775C47.0722 35.0565 47.0195 35.2315 46.9216 35.3833C46.8238 35.5352 46.6845 35.658 46.5192 35.7383C46.0301 36.0924 45.5111 36.4005 44.9072 36.7886H44.9134ZM14.9938 18.442C14.7309 18.4361 14.4694 18.4812 14.2247 18.5745C13.9801 18.6678 13.7571 18.8075 13.569 18.9854C13.3809 19.1632 13.2315 19.3756 13.1294 19.6101C13.0274 19.8446 12.9748 20.0965 12.9748 20.3509C12.9748 20.6054 13.0274 20.8573 13.1294 21.0918C13.2315 21.3263 13.3809 21.5387 13.569 21.7165C13.7571 21.8944 13.9801 22.034 14.2247 22.1274C14.4694 22.2207 14.7309 22.2658 14.9938 22.2599V18.442ZM37.0864 22.2429C37.3576 22.2402 37.6254 22.184 37.8735 22.0779C38.1216 21.9718 38.3448 21.818 38.5295 21.6258C38.7141 21.4336 38.8564 21.207 38.9477 20.9599C39.0389 20.7128 39.0772 20.4503 39.0602 20.1884C39.0095 19.3632 38.1069 18.2789 37.0864 18.473V22.2429ZM25.3127 35.7363V33.8919L23.1052 33.5358C23.2319 34.0614 23.5037 34.5439 23.8918 34.9317C24.2799 35.3194 24.7696 35.5979 25.3086 35.7373L25.3127 35.7363ZM40.8324 51.2402C40.729 51.5803 40.6318 51.8714 40.4984 52.3085C40.9503 52.0494 41.2511 51.8874 41.6027 51.6934C41.3132 51.5273 41.1291 51.4143 40.8283 51.2342L40.8324 51.2402Z" fill="#47BBC6"/>
<path d="M39.1535 22.4061C38.5858 22.0463 38.0512 21.7174 37.5341 21.3731C37.3529 21.2986 37.199 21.176 37.0916 21.0203C36.9841 20.8647 36.9278 20.6829 36.9295 20.4975C36.9313 20.3121 36.991 20.1312 37.1015 19.9774C37.2119 19.8236 37.368 19.7035 37.5506 19.632C41.1227 17.4886 44.7123 15.3606 48.2844 13.2171C48.475 13.061 48.7208 12.977 48.9738 12.9816C49.2269 12.9862 49.469 13.079 49.653 13.2419C49.837 13.4047 49.9496 13.6261 49.9689 13.8626C49.9882 14.0991 49.9127 14.3338 49.7572 14.521C48.5724 16.4459 47.403 18.3698 46.2016 20.341L48.4558 22.4535C49.2742 23.236 49.0905 23.9712 47.9717 24.2681C43.448 25.4888 38.9068 26.693 34.3655 27.9137C34.129 28.0054 33.864 28.0088 33.6249 27.9231C33.3858 27.8375 33.1907 27.6693 33.0796 27.4532C32.9686 27.237 32.9501 26.9892 33.0278 26.7607C33.1055 26.5321 33.2736 26.3401 33.4975 26.2239C35.2005 25.0816 36.92 23.9392 38.623 22.7814C38.7695 22.6721 38.9367 22.5628 39.1535 22.4061ZM39.7727 20.5287C40.3238 20.873 40.8048 21.17 41.292 21.4834C42.1434 22.0308 42.1599 22.6886 41.3425 23.267C40.7233 23.6897 40.104 24.096 39.4847 24.5187L39.5353 24.6154C41.6553 24.0524 43.7927 23.473 46.1459 22.8472C45.5112 22.3152 44.9941 21.909 44.51 21.4544C43.7876 20.7976 43.7752 20.5625 44.2768 19.7133L45.9282 16.9914L45.8446 16.9131C43.8278 18.1038 41.8255 19.2935 39.7727 20.5287Z" fill="#47BBC6"/>
</svg>
