<svg width="60" height="61" viewBox="0 0 60 61" fill="none" xmlns="http://www.w3.org/2000/svg">
<path d="M35.4227 59.9782C32.9397 59.3673 32.6134 57.5657 32.3051 55.7654C31.8021 52.3379 30.835 48.9734 29.4235 45.7411C28.9621 44.7267 28.3401 43.7726 27.5751 42.9061C27.3385 42.5833 27.0172 42.3131 26.6372 42.1176C26.2573 41.9221 25.8294 41.8067 25.3883 41.7807C24.9471 41.7548 24.5051 41.819 24.098 41.9683C23.6909 42.1175 23.3302 42.3475 23.0452 42.6397C22.3034 43.3899 21.652 44.2034 21.101 45.0677C20.9621 45.2562 20.901 45.5058 20.7385 45.6942C20.6169 45.8627 20.4275 45.9863 20.2067 46.0412C19.986 46.0962 19.7495 46.0786 19.5428 45.9919C19.4314 45.9652 19.3273 45.9194 19.2366 45.8574C19.146 45.7954 19.0705 45.7184 19.0148 45.6309C18.959 45.5433 18.9241 45.447 18.912 45.3477C18.8999 45.2483 18.9109 45.1478 18.9443 45.0521C19.8692 42.8593 21.1732 40.9173 23.9825 40.2128C24.8008 39.9959 25.6737 39.9852 26.4987 40.1821C27.3238 40.3789 28.0667 40.7752 28.6403 41.3242C30.0856 42.649 31.1419 44.2543 31.7204 46.0051C32.9885 49.3457 33.8983 52.78 34.4381 56.2647C34.4942 56.5953 34.5872 56.9205 34.7158 57.2357C34.7472 57.4126 34.824 57.5812 34.9406 57.7291C35.0571 57.8771 35.2105 58.0006 35.3894 58.0907C35.5684 58.1808 35.7683 58.2352 35.9747 58.2499C36.1811 58.2645 36.3887 58.2391 36.5823 58.1755C38.649 57.7333 40.4361 56.6143 41.5663 55.0549C42.8407 53.3785 43.5672 51.4356 43.6689 49.4318C43.8869 46.472 43.923 43.4954 43.9771 40.5357C43.8475 38.1122 44.1591 35.6862 44.9006 33.3463C45.3172 32.2817 45.9519 31.2783 46.4046 30.2257C46.9601 28.9054 47.4739 27.5792 47.9808 26.2649C48.0211 26.0948 48.0393 25.9213 48.0349 25.7476C45.873 26.1372 43.6388 26.1148 41.4879 25.6821C39.3371 25.2493 37.3212 24.4165 35.5806 23.2417C33.8401 22.0669 32.4168 20.5783 31.4098 18.8796C30.4028 17.1809 29.8364 15.3129 29.7498 13.4057C29.3152 13.6253 28.9527 13.7969 28.5903 13.9698C27.5185 14.5471 26.2802 14.8519 25.0173 14.8491C23.7544 14.8463 22.5179 14.5362 21.4496 13.9542C20.635 13.5712 19.8591 13.1295 19.1304 12.6339C16.303 10.6295 13.259 10.7075 10.0872 11.8346C5.66551 13.3949 3.38245 16.4398 2.47563 20.3394C1.58554 23.7087 2.119 27.2421 3.97961 30.3013C5.21412 32.1066 6.00943 34.1107 6.31682 36.1908C6.44319 37.5111 6.42511 38.8373 6.45566 40.1696C6.52787 43.193 6.52789 46.2152 6.69176 49.2385C6.7951 50.7828 7.23172 52.2967 7.97909 53.7022C8.86554 55.5234 10.5075 56.9926 12.5827 57.8214C12.691 57.8682 12.7826 57.8994 12.8909 57.9414C14.6962 58.5835 15.5364 58.1922 15.8989 56.5155C16.3877 54.2603 16.896 51.9895 17.4029 49.7342C17.4753 49.4058 17.5846 49.0842 17.7292 48.7741C17.7638 48.6747 17.821 48.5824 17.8974 48.5024C17.9739 48.4224 18.068 48.3564 18.1743 48.3083C18.2806 48.2601 18.3969 48.2307 18.5165 48.2219C18.6361 48.213 18.7565 48.2249 18.8707 48.2568C18.984 48.2698 19.0929 48.3031 19.1905 48.3546C19.288 48.406 19.3721 48.4744 19.4374 48.5555C19.5028 48.6365 19.5478 48.7285 19.5698 48.8254C19.5918 48.9223 19.5901 49.0222 19.565 49.1185C19.4748 49.6982 19.2873 50.2623 19.1846 50.8408C18.7679 52.7516 18.3333 54.6816 17.9528 56.5887C17.6445 58.1862 16.9557 59.5017 14.9629 59.9722H13.477C11.0219 59.3792 8.87402 58.0808 7.38751 56.2911C6.09659 54.6784 5.25312 52.8302 4.92256 50.8901C4.30405 47.4086 4.14608 43.8776 4.45176 40.3652C4.73253 37.1786 3.97283 33.9878 2.25903 31.1559C0.874176 28.9458 0.104086 26.4872 0.00983613 23.9751C-0.0844138 21.463 0.499738 18.9665 1.71601 16.6835C2.82336 14.373 4.74045 12.4205 7.1979 11.1002C9.65535 9.77987 12.5297 9.15819 15.417 9.32248C16.9064 9.46478 18.3257 9.94559 19.5303 10.716C20.5024 11.2801 21.4745 11.8754 22.4661 12.3963C23.2443 12.8443 24.1585 13.0833 25.0935 13.0833C26.0286 13.0833 26.9427 12.8443 27.7209 12.3963C28.3736 12.0518 29.0263 11.6917 29.6415 11.3005C29.8528 11.1368 29.9933 10.9158 30.0401 10.6739C30.517 8.37153 31.7028 6.22267 33.4727 4.45323C35.2427 2.68378 37.5314 1.3591 40.0985 0.61841C40.369 0.517393 40.6563 0.453806 40.9498 0.429977C41.178 0.397466 41.412 0.44147 41.604 0.552992C41.796 0.664515 41.9315 0.83515 41.9829 1.03009C42.0674 1.22569 42.062 1.44183 41.9677 1.63405C41.8734 1.82627 41.6975 1.97997 41.4761 2.0635C41.2297 2.15982 40.9753 2.24006 40.7151 2.30354C37.7029 3.18383 35.166 4.98407 33.5807 7.36633C31.9954 9.74859 31.4707 12.549 32.105 15.242C32.7394 17.9349 34.4892 20.3352 37.0259 21.9921C39.5627 23.6491 42.712 24.4488 45.8826 24.2412C49.0533 24.0335 52.0272 22.8329 54.2462 20.8645C56.4651 18.8961 57.7766 16.2954 57.9342 13.5506C58.0919 10.8058 57.085 8.1057 55.1025 5.95707C53.12 3.80843 50.2982 2.35906 47.167 1.88105C46.7684 1.81864 46.3699 1.78745 45.9533 1.76104C45.1561 1.69863 44.7576 1.35416 44.8118 0.790049C44.8659 0.225941 45.3367 -0.0501212 46.1352 0.00748983C49.0153 0.205777 51.7661 1.12547 54.0508 2.654C56.1349 4.02967 57.7672 5.85186 58.7862 7.94022C59.8052 10.0286 60.1755 12.3107 59.8605 14.5608C59.5456 16.8109 58.5562 18.9508 56.9904 20.7689C55.4247 22.587 53.3367 24.0202 50.9332 24.9267C50.7233 24.9789 50.5381 25.0876 50.4045 25.2369C50.2709 25.3863 50.1958 25.5685 50.1902 25.7572C49.9663 27.5473 49.3538 29.2848 48.3849 30.8786C46.8122 33.3801 46.025 36.194 46.1019 39.0402C46.0838 41.6399 46.1199 44.2396 46.0477 46.8417C46.0411 49.1883 45.5816 51.5175 44.6881 53.7334C44.1869 54.9818 43.4032 56.1316 42.3828 57.1157C41.3624 58.0999 40.1256 58.8987 38.7445 59.4657C38.1666 59.6811 37.5733 59.8643 36.9683 60.0142C36.4198 59.9782 35.9129 59.9782 35.4227 59.9782Z" fill="#47BBC6"/>
<path d="M42.4005 12.4276C42.6366 12.2391 42.8171 12.0987 42.999 11.9475C44.6488 10.5216 46.2791 9.09695 47.9275 7.68668C48.2357 7.39133 48.61 7.15311 49.0278 6.98646C49.4456 6.81982 49.8982 6.72821 50.3581 6.71719C50.8181 6.70617 51.2758 6.77597 51.7037 6.92236C52.1315 7.06875 52.5205 7.28868 52.8471 7.56883C53.1737 7.84898 53.4311 8.18351 53.6037 8.55217C53.7762 8.92082 53.8604 9.31593 53.8512 9.71354C53.8419 10.1111 53.7393 10.503 53.5496 10.8653C53.36 11.2277 53.0872 11.553 52.7478 11.8215C50.3555 13.9203 47.9451 16.0035 45.5168 18.0711C45.1251 18.4408 44.6484 18.7358 44.1172 18.9371C43.586 19.1384 43.0119 19.2416 42.4319 19.2401C41.8519 19.2387 41.2786 19.1325 40.7488 18.9285C40.219 18.7245 39.7442 18.4272 39.3551 18.0555C38.5399 17.3509 37.7247 16.662 36.9082 15.9406C36.5738 15.6711 36.3059 15.346 36.1204 14.9848C35.9348 14.6236 35.8356 14.2337 35.8285 13.8386C35.8215 13.4434 35.9067 13.0511 36.0793 12.6851C36.2518 12.3192 36.5079 11.987 36.8325 11.7086C37.157 11.4302 37.5432 11.2113 37.968 11.065C38.3927 10.9186 38.8472 10.8479 39.3044 10.857C39.7615 10.8661 40.2118 10.9548 40.6283 11.1178C41.0448 11.2809 41.419 11.5149 41.7284 11.8059C41.9657 12.0021 42.1901 12.2097 42.4005 12.4276ZM42.4547 17.627C43.0336 17.4019 43.5807 17.12 44.085 16.7868C45.6612 15.5026 47.1651 14.1559 48.7066 12.826C49.612 12.0435 50.5369 11.2658 51.4243 10.4604C51.5491 10.354 51.6483 10.2272 51.7159 10.0874C51.7836 9.94762 51.8184 9.79758 51.8184 9.64605C51.8184 9.49451 51.7836 9.3445 51.7159 9.2047C51.6483 9.0649 51.5491 8.93811 51.4243 8.8317C51.175 8.63173 50.8503 8.51675 50.5103 8.50814C50.1703 8.49953 49.8383 8.59787 49.576 8.78489C49.4043 8.91244 49.2411 9.04829 49.0871 9.19177C47.2929 10.7425 45.5168 12.2932 43.7226 13.8283C43.5788 14.0017 43.3889 14.1428 43.1689 14.2397C42.9489 14.3365 42.7052 14.3862 42.4583 14.3847C42.2114 14.3832 41.9686 14.3304 41.7502 14.2309C41.5318 14.1313 41.3443 13.9879 41.2035 13.8127L40.3883 13.1081C40.2711 12.9725 40.1219 12.8601 39.9504 12.7783C39.779 12.6965 39.5894 12.6473 39.3942 12.6339C39.199 12.6205 39.0027 12.6433 38.8185 12.7007C38.6343 12.7582 38.4665 12.8489 38.3261 12.9668C38.1857 13.0848 38.076 13.2273 38.0044 13.3848C37.9329 13.5424 37.9011 13.7113 37.911 13.8803C37.921 14.0493 37.9726 14.2145 38.0624 14.3649C38.1521 14.5153 38.278 14.6474 38.4316 14.7524C39.2287 15.4726 40.0258 16.1927 40.8965 16.8516C41.3812 17.1596 41.903 17.4197 42.4547 17.627Z" fill="#47BBC6"/>
<path d="M6.03065 23.6568C5.94706 21.6974 6.59159 19.7664 7.86982 18.1465C9.14804 16.5267 10.9928 15.3031 13.1339 14.6551C13.2603 14.6239 13.388 14.5771 13.5144 14.5459C13.6442 14.4958 13.7847 14.4697 13.9268 14.4695C14.0689 14.4692 14.2096 14.4947 14.3396 14.5444C14.4696 14.594 14.5861 14.6666 14.6817 14.7575C14.7772 14.8485 14.8496 14.9557 14.8942 15.0724C14.9388 15.189 14.9546 15.3125 14.9406 15.4347C14.9266 15.557 14.883 15.6753 14.8128 15.7821C14.7426 15.8889 14.6472 15.9818 14.5329 16.0547C14.4186 16.1277 14.2878 16.1792 14.149 16.2058C12.8707 16.5391 11.6987 17.1232 10.7245 17.9125C9.78969 18.7118 9.06976 19.6789 8.6157 20.7455C8.16164 21.812 7.98457 22.9518 8.09706 24.0841C8.11511 24.413 8.15122 24.7418 8.18733 25.0707C8.2097 25.1862 8.2047 25.3044 8.17266 25.4182C8.14062 25.532 8.08222 25.6389 8.00094 25.7326C7.91966 25.8263 7.81722 25.9048 7.69983 25.9633C7.58244 26.0218 7.45253 26.059 7.31799 26.0729C7.18744 26.0897 7.05431 26.0833 6.92669 26.0542C6.79907 26.0251 6.67965 25.9738 6.5757 25.9035C6.47175 25.8332 6.38544 25.7454 6.32206 25.6453C6.25868 25.5453 6.21955 25.4351 6.20704 25.3215C6.12094 24.7994 6.10287 24.2209 6.03065 23.6568Z" fill="#47BBC6"/>
<path d="M6.8819 28.8261C6.8458 28.1528 7.13605 27.7615 7.75124 27.7135C8.36644 27.6655 8.78443 27.9644 8.9108 28.6065C8.98301 28.9509 9.03718 29.2954 9.09134 29.6399C9.1816 30.2508 8.9108 30.6733 8.34838 30.7837C8.20451 30.811 8.05557 30.8114 7.91152 30.7848C7.76747 30.7582 7.63168 30.7052 7.51328 30.6295C7.39487 30.5538 7.29658 30.457 7.22505 30.3457C7.15352 30.2344 7.11038 30.1112 7.09855 29.9843C7.00828 29.6086 6.95412 29.2174 6.8819 28.8261Z" fill="#47BBC6"/>
</svg>
