<svg width="60" height="61" viewBox="0 0 60 61" fill="none" xmlns="http://www.w3.org/2000/svg">
<path d="M19.6851 60.0122C14.7988 58.712 12.1235 55.4116 10.1945 51.4811C8.40943 47.569 7.5796 43.3569 7.76134 39.1305C7.8258 34.0155 6.5713 28.9569 4.09658 24.3526C3.50578 23.2255 2.81059 22.1453 2.1154 21.0652C0.835506 19.0878 0.113399 16.8579 0.0123058 14.5709C-0.088787 12.2839 0.434223 10.0094 1.53553 7.94663C2.63683 5.88384 4.28285 4.09563 6.32947 2.73859C8.3761 1.38156 10.7609 0.497059 13.2751 0.162536C15.5983 -0.166148 17.9749 0.00521417 20.2104 0.6626C26.5512 2.56194 33.4034 2.56755 39.748 0.678608C41.9447 0.0491153 44.2697 -0.131393 46.5536 0.15022C48.8376 0.431834 51.0231 1.16848 52.9511 2.30656C54.8791 3.44464 56.5011 4.95551 57.6991 6.72923C58.8971 8.50296 59.6409 10.4949 59.8764 12.5601C60.2528 15.6153 59.4818 18.6959 57.6864 21.3102C55.3148 24.8139 53.6658 28.6748 52.819 32.7067C52.3586 34.9943 52.1491 37.3171 52.1937 39.6416C52.2833 43.1603 51.6709 46.665 50.3858 49.9889C49.9077 51.1989 49.3205 52.3716 48.63 53.4954C46.7177 56.5477 44.1802 59.0061 40.2689 59.9962H38.5831C38.5486 59.9802 38.5131 59.9332 38.4787 59.9332C34.9672 59.1191 33.3336 57.2408 33.3336 53.9694V42.558C33.3393 42.2066 33.3103 41.8555 33.2469 41.5088C33.1102 40.8631 32.7484 40.2734 32.2139 39.8257C31.6794 39.378 31.0002 39.0956 30.2752 39.0195C29.5247 38.954 28.7723 39.126 28.1474 39.506C27.5226 39.8861 27.0643 40.4503 26.8514 41.1018C26.7231 41.5354 26.6644 41.9833 26.677 42.4319C26.6593 46.4085 26.677 50.4 26.6593 54.3765C26.6937 55.5475 26.3106 56.6977 25.5661 57.6583C24.8216 58.6189 23.755 59.3394 22.5225 59.7141C22.1572 59.8241 21.7752 59.9142 21.412 60.0142L19.6851 60.0122ZM24.396 48.3027C24.396 47.5826 24.396 46.8625 24.4138 46.1424C24.4316 44.4992 24.3438 42.855 24.5359 41.2268C24.6401 40.5631 24.8946 39.9257 25.2837 39.3543C25.6727 38.7829 26.1881 38.2897 26.7977 37.9051C27.4074 37.5206 28.0983 37.2531 28.8275 37.1191C29.5568 36.9851 30.3088 36.9875 31.037 37.1263C32.3463 37.3762 33.5149 38.0357 34.3358 38.9876C35.1567 39.9396 35.5766 41.1226 35.5213 42.3269C35.5391 45.4573 35.5213 48.5727 35.5213 51.7041C35.5213 52.7212 35.4869 53.7394 35.5391 54.7565C35.5655 55.3083 35.7406 55.8459 36.0495 56.323C36.3583 56.8002 36.7916 57.2023 37.3118 57.4948C37.8319 57.7873 38.4234 57.9613 39.035 58.0017C39.6466 58.0421 40.2599 57.9478 40.8219 57.7269C41.9306 57.2438 42.9505 56.6104 43.8459 55.8487C45.7446 54.1796 47.1797 52.1309 48.0348 49.8689C49.3681 46.5979 50.0049 43.13 49.9116 39.6466C49.8729 36.8544 50.1761 34.0669 50.8156 31.3345C51.7558 27.48 53.3879 23.7894 55.6475 20.4081C56.9184 18.6326 57.6316 16.5803 57.7111 14.469C57.7907 12.3578 57.2338 10.2666 56.0995 8.41759C54.648 5.90592 52.2469 3.94464 49.33 2.88813C46.413 1.83163 43.1727 1.74959 40.1944 2.65686C33.5344 4.63704 26.344 4.63704 19.684 2.65686C17.7314 2.07726 15.6564 1.91188 13.6211 2.17363C11.5857 2.43537 9.6451 3.11717 7.95062 4.16579C6.25614 5.21442 4.85365 6.6015 3.85262 8.21879C2.85159 9.83608 2.27908 11.6398 2.17981 13.4892C2.08909 16.0002 2.82725 18.479 4.30093 20.6122C7.79113 25.8365 9.72511 31.7837 9.91578 37.8784C9.98574 39.7256 9.98574 41.5888 10.1768 43.4351C10.4663 46.6931 11.5399 49.8554 13.3229 52.7023C14.5198 54.8242 16.438 56.5464 18.7978 57.6179C19.5229 57.9097 20.3192 58.0282 21.1099 57.9619C22.0139 57.8601 22.8447 57.4624 23.4441 56.8445C24.0436 56.2267 24.3697 55.4319 24.3605 54.6115C24.4304 52.4822 24.396 50.4009 24.396 48.3027Z" fill="#47BBC6"/>
<path d="M34.3883 17.0096H38.5772C38.909 16.9757 39.245 17.0094 39.5604 17.1081C39.8758 17.2068 40.1626 17.368 40.3996 17.5799C40.6365 17.7917 40.8176 18.0488 40.9295 18.3322C41.0414 18.6155 41.0812 18.9178 41.046 19.2169C41.046 20.454 41.0637 21.6742 41.046 22.9113C41.0688 23.1909 41.0249 23.4716 40.9171 23.7346C40.8092 23.9975 40.6401 24.2366 40.4209 24.4356C40.2018 24.6347 39.9378 24.7891 39.6468 24.8885C39.3557 24.9878 39.0444 25.0298 38.7338 25.0116C37.5344 25.0276 36.3528 25.0116 35.1535 25.0116H34.3883V28.5811C34.3883 30.3183 33.5887 31.0234 31.6597 31.0234H27.9572C27.6319 31.0531 27.3033 31.0172 26.9953 30.9184C26.6872 30.8196 26.4075 30.6603 26.1762 30.452C25.945 30.2438 25.7681 29.9918 25.6584 29.7144C25.5487 29.437 25.5088 29.1411 25.5418 28.8481V25.0286H24.1503C23.0898 25.0286 22.0292 25.0446 20.9697 25.0126C20.4184 25.0029 19.8933 24.7993 19.5066 24.4453C19.1199 24.0912 18.9025 23.615 18.9008 23.1184C18.8664 21.7562 18.8664 20.379 18.9008 19.0178C18.8949 18.7526 18.9491 18.4891 19.0601 18.2434C19.1712 17.9978 19.3367 17.775 19.5466 17.5889C19.7564 17.4028 20.0063 17.2572 20.2807 17.1611C20.5552 17.0649 20.8486 17.0202 21.143 17.0296C22.3768 17.0136 23.6117 17.0296 24.8455 17.0296C25.0543 17.0296 25.2631 17.0136 25.5407 16.9986V13.4141C25.5407 11.7859 26.3403 11.0508 28.1482 11.0508H32.0418C32.3568 11.0294 32.6733 11.0692 32.9698 11.1676C33.2662 11.266 33.5357 11.4206 33.7599 11.6211C33.9842 11.8215 34.1579 12.063 34.2694 12.3293C34.3809 12.5955 34.4275 12.8802 34.4061 13.1641C34.4061 14.4112 34.3883 15.6794 34.3883 17.0096ZM21.1264 23.0204H26.1326C27.4364 23.0204 27.7496 23.3204 27.7496 24.4605V29.0001H32.1817V24.2885C32.1817 23.3654 32.5637 23.0204 33.6065 23.0204H38.7694V19.0289H33.6609C32.5315 19.0289 32.1661 18.7158 32.1661 17.7137V13.0641H27.734V17.7647C27.734 18.6878 27.352 19.0168 26.3092 19.0328H21.1119C21.1264 20.376 21.1264 21.6472 21.1264 23.0214V23.0204Z" fill="#47BBC6"/>
<path d="M4.45712 14.0084C4.48295 11.6278 5.44272 9.33206 7.16672 7.52725C8.89071 5.72244 11.2679 4.5248 13.8778 4.14614C14.6551 4.03613 15.1471 4.22415 15.3725 4.67821C15.7057 5.35129 15.2337 5.97837 14.2953 6.11839C12.8951 6.30642 11.5647 6.7916 10.4138 7.53387C9.26279 8.27614 8.32428 9.25423 7.6757 10.3875C7.02712 11.5207 6.68704 12.7766 6.68352 14.0515C6.67999 15.3264 7.01313 16.5838 7.65544 17.7199C7.7254 17.8449 7.79426 17.9549 7.86422 18.0799C7.95198 18.1959 8.01166 18.3271 8.0394 18.4652C8.06714 18.6033 8.06232 18.7451 8.02524 18.8813C7.98815 19.0176 7.91963 19.1453 7.82415 19.2562C7.72866 19.3671 7.60833 19.4586 7.47099 19.5249C7.33365 19.5911 7.18236 19.6306 7.02697 19.6408C6.87157 19.6509 6.71556 19.6315 6.56903 19.5838C6.42251 19.5361 6.28877 19.4612 6.17651 19.3639C6.06426 19.2666 5.97599 19.1491 5.91745 19.019C5.03127 17.6511 4.52994 16.1088 4.45712 14.5265C4.43935 14.3494 4.45712 14.1774 4.45712 14.0084Z" fill="#47BBC6"/>
</svg>
