<svg width="60" height="61" viewBox="0 0 60 61" fill="none" xmlns="http://www.w3.org/2000/svg">
<path d="M16.3648 59.9872C15.4143 59.179 14.4346 58.3868 13.5124 57.5526C13.4289 57.4773 13.3629 57.3861 13.3187 57.2848C13.2745 57.1836 13.253 57.0746 13.2557 56.965C13.2583 56.8553 13.2851 56.7474 13.3342 56.6482C13.3833 56.5491 13.4536 56.4609 13.5407 56.3893C13.6183 56.3035 13.7135 56.2339 13.8206 56.1848C13.9276 56.1357 14.044 56.1082 14.1626 56.1039C14.2813 56.0997 14.3995 56.1189 14.5101 56.1602C14.6206 56.2016 14.721 56.2643 14.8051 56.3443C15.3756 56.8444 15.9366 57.3616 16.459 57.9157C16.8107 58.2878 17.0483 58.2338 17.401 57.8977C20.2244 55.1817 23.0573 52.4747 25.8995 49.7768C26.2324 49.4587 26.2606 49.2406 25.9089 48.9136C21.1365 44.3625 16.3672 39.8051 11.601 35.2414C11.2493 34.9053 11.0212 34.9503 10.6883 35.2684C7.86489 37.9843 5.02858 40.6913 2.17936 43.3893C1.77008 43.7804 1.87475 44.0074 2.22646 44.3435C5.29689 47.2595 8.36453 50.1879 11.4294 53.1286C11.5833 53.2574 11.7236 53.4005 11.8481 53.5557C11.9903 53.7228 12.0623 53.9345 12.0503 54.1495C12.0383 54.3646 11.9431 54.5677 11.7832 54.7195C11.6232 54.8712 11.4099 54.9607 11.1847 54.9706C10.9596 54.9805 10.7386 54.91 10.5648 54.773C10.4249 54.659 10.2918 54.5378 10.166 54.4099L0.888727 45.5438C0.614623 45.3495 0.391618 45.0969 0.237367 44.8061C0.0831153 44.5152 0.0018597 44.194 3.1548e-05 43.8679C-0.0017966 43.5418 0.075852 43.2198 0.226833 42.9273C0.377815 42.6349 0.597978 42.38 0.869888 42.183L9.11191 34.3071C10.5564 32.9258 11.3101 32.8628 12.8864 33.953C13.7709 33.1078 14.645 32.2636 15.5577 31.4004C15.2625 31.1094 14.9108 30.7643 14.579 30.4102C13.3657 29.1415 12.6993 27.4814 12.7135 25.7628C12.7276 24.0442 13.4214 22.3943 14.6554 21.144C15.7105 20.0538 16.8421 19.0365 17.9349 17.9823C18.0772 17.8462 18.2102 17.7002 18.4582 17.4462C18.2586 17.3289 18.068 17.1982 17.8878 17.0551C15.0357 14.3391 12.1869 11.6198 9.34114 8.89714C7.54389 7.17974 7.53447 5.33631 9.3223 3.6279C10.2351 2.7557 11.1384 1.87449 12.0606 1.02029C12.39 0.689627 12.7879 0.42819 13.2289 0.252642C13.6699 0.0770938 14.1443 -0.00871258 14.622 0.000698255C15.0996 0.0101091 15.57 0.114534 16.003 0.307304C16.4361 0.500074 16.8224 0.776963 17.1372 1.12032C17.2429 1.19467 17.3309 1.28967 17.3952 1.39899C17.4595 1.50832 17.4988 1.62947 17.5104 1.7544C17.5219 1.87933 17.5056 2.00519 17.4623 2.12361C17.4191 2.24203 17.35 2.35032 17.2596 2.44126C17.1692 2.53221 17.0596 2.60374 16.9381 2.6511C16.8166 2.69847 16.6859 2.72058 16.5547 2.71598C16.4236 2.71138 16.2949 2.68017 16.1773 2.62442C16.0598 2.56866 15.956 2.48964 15.8728 2.39261C15.714 2.19014 15.5069 2.02673 15.2689 1.91591C15.0308 1.80508 14.7685 1.75003 14.5038 1.75531C14.239 1.76059 13.9794 1.82605 13.7464 1.94626C13.5134 2.06648 13.3137 2.238 13.1638 2.44662C12.2605 3.30083 11.3666 4.15403 10.4737 5.01723C10.2763 5.16221 10.1165 5.3486 10.0064 5.56201C9.89642 5.77541 9.8392 6.01012 9.8392 6.24802C9.8392 6.48592 9.89642 6.72063 10.0064 6.93404C10.1165 7.14745 10.2763 7.33383 10.4737 7.47881C11.7298 8.7051 13.0026 9.91338 14.2284 11.1037L19.7332 5.87144C19.5344 5.78342 19.3489 5.67038 19.1815 5.53535C18.6299 5.01723 18.5734 4.51811 19.0109 4.11802C19.4202 3.73693 19.9331 3.79094 20.4554 4.28106C21.5021 5.27129 22.5374 6.27053 23.5831 7.26076C25.2181 8.82313 26.8437 10.3855 28.5739 12.0389C29.068 11.5298 29.5432 11.0386 30.009 10.5585C30.5906 9.87475 31.3741 9.37408 32.2576 9.12169C33.1411 8.8693 34.0837 8.87686 34.9626 9.14341C35.8415 9.40995 36.6162 9.92313 37.1857 10.6162C37.7552 11.3092 38.0932 12.15 38.1557 13.0291C38.8958 12.7671 39.6938 12.6908 40.4735 12.8075C41.2533 12.9241 41.9887 13.2299 42.6095 13.6955C43.2303 14.1612 43.7159 14.7711 44.0197 15.4671C44.3236 16.1632 44.4356 16.922 44.3451 17.6712C45.1275 17.5846 45.9201 17.6912 46.6471 17.9808C47.3742 18.2704 48.0113 18.7333 48.4977 19.3253C48.9841 19.9173 49.3034 20.6186 49.4253 21.3622C49.5471 22.1058 49.4673 22.8669 49.1936 23.5726C49.5076 23.6276 49.7641 23.6636 50.0205 23.7176C50.7839 23.8922 51.4867 24.2536 52.0596 24.7663C52.6326 25.279 53.0561 25.9253 53.2884 26.6418C53.5207 27.3583 53.5539 28.1202 53.3847 28.8527C53.2155 29.5851 52.8497 30.2629 52.3233 30.8193C51.7058 31.4825 50.9731 32.0636 50.2508 32.7268C51.1154 33.553 51.8387 34.3531 52.6845 35.0273C54.7741 36.6986 56.3046 38.9192 57.086 41.4138C57.847 43.6753 58.8655 45.8558 59.7761 48.0724C59.9666 48.5265 60.1278 48.9726 59.6903 49.3727C59.281 49.7448 58.8257 49.6087 58.3693 49.4367C54.9276 48.1464 51.486 46.8751 48.0547 45.5758C47.7369 45.4469 47.4493 45.2585 47.209 45.0217C45.5928 43.4953 44.0049 41.9599 42.3605 40.3886C41.476 41.2338 40.6302 42.051 39.7845 42.8591C38.6584 44.0364 37.1851 44.8595 35.5591 45.2196C33.9331 45.5796 32.231 45.4597 30.6778 44.8756C30.5816 44.8455 30.4796 44.8365 30.3792 44.8491C30.2788 44.8618 30.1827 44.8958 30.098 44.9486C29.1381 45.8208 28.2065 46.7291 27.2456 47.6493C27.3503 47.7763 27.4361 47.8763 27.5209 47.9764C27.712 48.1696 27.8614 48.3969 27.9605 48.6453C28.0596 48.8938 28.1065 49.1584 28.0986 49.4242C28.0906 49.6899 28.0279 49.9516 27.9141 50.1942C27.8002 50.4368 27.6374 50.6556 27.4351 50.838C24.4498 53.7054 21.455 56.564 18.4509 59.414C18.1591 59.6481 17.8402 59.8495 17.5005 60.0142C17.0975 59.9872 16.7363 59.9872 16.3648 59.9872ZM28.7707 27.5795C28.8874 28.742 28.6876 29.9134 28.1908 30.9803C27.8862 31.5895 27.3921 31.8255 26.8792 31.5985C26.3852 31.3894 26.2418 30.8983 26.4898 30.2982C26.9089 29.3686 27.0534 28.3471 26.9076 27.3446C26.7618 26.3421 26.3314 25.397 25.6629 24.6118C24.7502 23.4216 24.7313 23.4116 25.844 22.3503L25.9298 22.2683C26.852 21.3871 27.1273 21.3871 28.0401 22.2593C29.6751 23.8217 31.2912 25.393 32.9451 26.9374C33.2727 27.2547 33.6638 27.5058 34.095 27.6758C34.5262 27.8458 34.9888 27.9312 35.4552 27.927C35.9217 27.9228 36.3825 27.8291 36.8102 27.6513C37.238 27.4736 37.624 27.2155 37.9454 26.8924C38.4583 26.3833 38.4583 26.1842 37.9265 25.6751C34.9601 22.8404 32.0135 19.9978 29.0376 17.1811C28.5453 16.6882 27.9542 16.2951 27.2995 16.0251C26.6449 15.7552 25.94 15.6139 25.227 15.6097C24.514 15.6055 23.8074 15.7385 23.1493 16.0007C22.4912 16.2629 21.8951 16.6491 21.3964 17.1361C19.6281 18.7891 17.879 20.4605 16.1491 22.1503C15.6459 22.6184 15.2451 23.1775 14.9699 23.795C14.6948 24.4125 14.5509 25.0761 14.5465 25.7472C14.5421 26.4183 14.6774 27.0836 14.9444 27.7043C15.2115 28.325 15.605 28.8888 16.102 29.363C16.863 30.1261 17.6512 30.8713 18.4404 31.6065C19.2752 32.4312 20.4149 32.9105 21.6152 32.9418C22.3032 32.916 22.9874 32.8309 23.6595 32.6877C23.9041 32.6112 24.1704 32.6302 24.4003 32.7408C24.6302 32.8514 24.8049 33.0445 24.8862 33.2779C24.9194 33.3913 24.928 33.51 24.9117 33.6267C24.8953 33.7434 24.8544 33.8557 24.7912 33.9568C24.7281 34.0579 24.6441 34.1457 24.5444 34.2149C24.4447 34.284 24.3313 34.3331 24.2111 34.3591C23.923 34.457 23.6273 34.533 23.3266 34.5862C22.842 34.6682 22.3573 34.7222 21.8716 34.7862C24.41 37.2388 26.8531 39.7004 29.4082 42.054C30.43 42.9913 31.762 43.5587 33.1747 43.6582C34.5873 43.7577 35.9921 43.3831 37.1467 42.5991C38.4868 41.5592 39.7628 40.4461 40.9683 39.2653C36.8714 35.3234 32.8404 31.4715 28.7717 27.5835L28.7707 27.5795ZM14.378 35.2654L25.8618 46.2439C26.7264 45.4177 27.6297 44.5545 28.4378 43.7914C24.6256 40.1305 20.7757 36.4236 16.9918 32.7808C16.0895 33.641 15.2144 34.4782 14.378 35.2684V35.2654ZM44.7041 34.6932C45.2645 34.5512 45.7974 34.3243 46.2826 34.0211C47.9176 32.5497 49.5275 31.0504 51.0547 29.479C51.4643 28.9855 51.6687 28.3648 51.6288 27.7361C51.5888 27.1074 51.3073 26.5149 50.8382 26.0724C50.3692 25.6298 49.7456 25.3684 49.0872 25.3383C48.4288 25.3082 47.7819 25.5115 47.2707 25.9092C45.664 27.3445 44.1054 28.8438 42.5939 30.3782C42.2396 30.7398 42.0154 31.2001 41.9538 31.6919C41.8923 32.1838 41.9966 32.6816 42.2516 33.1129C42.4749 33.5622 42.8202 33.9461 43.2516 34.2246C43.6829 34.5031 44.1845 34.666 44.7041 34.6962V34.6932ZM39.2287 28.1977C39.7209 28.527 40.3192 28.6794 40.9176 28.6277C41.5161 28.5761 42.0761 28.3239 42.4987 27.9156C43.9641 26.5533 45.4058 25.1756 46.8238 23.7827C47.3281 23.2984 47.6104 22.6425 47.6086 21.9594C47.6069 21.2762 47.3211 20.6217 46.8144 20.1398C46.3076 19.6579 45.6212 19.3881 44.9063 19.3898C44.1914 19.3915 43.5064 19.6645 43.0021 20.1488C42.0234 21.057 41.0625 21.9932 40.0933 22.9104C39.6945 23.2915 39.2852 23.6646 38.8958 24.0367C40.5214 25.9572 40.5727 26.5843 39.2287 28.2017V28.1977ZM50.0572 41.3878C48.374 39.7794 46.6542 38.136 44.9281 36.5096C44.751 36.3874 44.5385 36.3207 44.32 36.3186C43.2408 36.2391 42.227 35.7934 41.4616 35.062C40.6963 34.3307 40.2299 33.3619 40.1466 32.3307C40.1302 32.0874 40.0338 31.8554 39.8714 31.6675C39.1679 30.9587 38.4453 30.2682 37.7036 29.596C37.6366 29.5319 37.5565 29.4818 37.4682 29.4489C37.3799 29.416 37.2853 29.401 37.1907 29.405C36.0325 29.7572 34.788 29.754 33.6317 29.396C38.4705 34.0197 43.3127 38.6438 48.1584 43.2682C48.7257 42.7001 49.3653 42.073 50.0572 41.3918V41.3878ZM33.9426 19.1446C35.1882 20.3348 36.4339 21.5341 37.669 22.7234C39.0099 21.4521 40.4261 20.1618 41.7858 18.8085C42.2579 18.3363 42.5197 17.7074 42.5162 17.0544C42.5127 16.4014 42.2441 15.7752 41.767 15.3077C41.3133 14.8193 40.6758 14.5222 39.9938 14.4814C39.3117 14.4405 38.6404 14.6592 38.1264 15.0896C36.6432 16.4189 35.2835 17.8372 33.9426 19.1446ZM32.4688 17.8633C33.5239 16.873 34.6272 15.9098 35.6436 14.8746C36.0158 14.4648 36.2385 13.9504 36.2779 13.4091C36.3174 12.8678 36.1715 12.329 35.8623 11.8738C35.565 11.4135 35.1215 11.0559 34.5965 10.8533C34.0716 10.6507 33.4926 10.6137 32.944 10.7476C32.6419 10.7928 32.3571 10.9117 32.1171 11.0927C30.9196 12.2829 29.7599 13.5002 28.7037 14.5935C29.874 15.6107 31.1751 16.746 32.4688 17.8633ZM53.3073 38.3851C51.8052 36.9498 50.3408 35.5504 48.8869 34.1521C48.2787 34.6792 47.6036 35.2694 47.0028 35.7875C48.4954 37.2228 50.0069 38.6582 51.4619 40.0665C52.0868 39.5114 52.7379 38.9022 53.3083 38.3851H53.3073ZM49.8844 44.3715C50.7784 44.7076 51.7194 45.0797 52.6698 45.4067C52.7634 45.4165 52.8581 45.406 52.9469 45.376C53.0357 45.3461 53.1163 45.2974 53.1827 45.2337C53.9332 44.5435 54.666 43.8434 55.3882 43.1262C55.4929 43.0172 55.607 42.8081 55.5588 42.6901C55.2071 41.7639 54.8177 40.8547 54.466 39.9895C52.9179 41.4648 51.4158 42.9092 49.8886 44.3715H49.8844ZM15.7283 12.2949C16.1941 12.7581 16.6599 13.2122 17.0305 13.5953C18.7796 11.9329 20.5569 10.2525 22.2872 8.60808L20.9662 7.29077L15.7283 12.2949ZM27.1074 13.2402C25.9665 12.1499 24.835 11.0777 23.7516 10.0394C23.134 10.6206 22.4683 11.2397 21.7272 11.9289C22.0271 12.1479 22.3097 12.3876 22.573 12.646C22.8652 13.1224 23.3075 13.4984 23.8366 13.7202C24.3658 13.9421 24.9548 13.9984 25.5195 13.8813C25.5606 13.8707 25.6042 13.8739 25.643 13.8903C25.9287 13.9676 26.2339 13.9441 26.5028 13.8239C26.7717 13.7038 26.9863 13.4952 27.1074 13.2362V13.2402ZM19.6756 16.1839C20.4366 15.6207 21.1682 15.0756 21.7952 14.6125C21.3294 14.1404 20.8532 13.6403 20.4167 13.1952L18.4394 15.0306C18.856 15.4107 19.2736 15.8008 19.6735 16.1829L19.6756 16.1839ZM57.4073 47.1792C57.0274 46.2709 56.7134 45.5078 56.4381 44.8356C55.8959 45.2987 55.3735 45.7358 54.8125 46.2159C55.6656 46.524 56.4548 46.8241 57.4053 47.1782L57.4073 47.1792Z" fill="#47BBC6"/>
</svg>
