<svg width="60" height="61" viewBox="0 0 60 61" fill="none" xmlns="http://www.w3.org/2000/svg">
<path d="M26.8277 2.41496L32.3688 7.95502C32.0619 8.24581 31.6901 8.55458 31.3693 8.90833C30.9739 9.27733 30.7048 9.76158 30.6004 10.2922C30.4959 10.8229 30.5615 11.3729 30.7876 11.8642C30.984 12.3774 31.3352 12.8167 31.7927 13.1211C32.2501 13.4255 32.791 13.58 33.3403 13.563C33.793 13.579 34.2608 13.563 34.7455 13.563V21.2995H33.4692C32.9013 21.2561 32.3345 21.3958 31.8519 21.6981C31.3692 22.0004 30.9962 22.4495 30.7876 22.9793C30.5486 23.4997 30.4887 24.0847 30.6173 24.6427C30.7458 25.2008 31.0556 25.7006 31.4982 26.0641C31.8051 26.3549 32.1279 26.6137 32.4677 26.9205C32.2418 27.1623 32.1119 27.3082 31.983 27.4531C30.4968 28.939 29.0266 30.425 27.5244 31.8949C27.3644 32.039 27.2381 32.2164 27.1544 32.4146C27.0706 32.6129 27.0314 32.8271 27.0396 33.0421C27.0556 37.7388 27.0556 42.4264 27.0396 47.1271C27.0374 47.4989 26.9311 47.8627 26.7328 48.1773C24.4713 51.6015 22.1989 55.0204 19.9154 58.434C18.5101 60.5325 16.2644 60.5495 14.8591 58.434C12.5603 54.9934 10.2705 51.5689 7.99274 48.1293C7.81467 47.8494 7.7194 47.5248 7.71789 47.193C7.7019 42.4444 7.7019 37.6798 7.71789 32.9302C7.7247 32.7518 7.69245 32.574 7.6234 32.4093C7.55435 32.2447 7.45016 32.0971 7.31811 31.9769C5.79992 30.4779 4.29671 28.956 2.77852 27.4541C2.6336 27.3092 2.50367 27.1633 2.29378 26.9375C2.66558 26.5987 3.03739 26.2909 3.37621 25.9382C3.77167 25.5692 4.04072 25.0849 4.14515 24.5543C4.24958 24.0236 4.18406 23.4736 3.9579 22.9823C3.76302 22.4696 3.41146 22.0313 2.95322 21.7297C2.49497 21.4282 1.95334 21.2787 1.40526 21.3025C0.952499 21.2865 0.484742 21.3025 0 21.3025V13.566H1.29231C1.85929 13.5963 2.4217 13.4498 2.90179 13.1467C3.38189 12.8436 3.75597 12.399 3.97236 11.8741C4.18874 11.3493 4.23675 10.7702 4.10972 10.2169C3.9827 9.66358 3.68691 9.16338 3.26326 8.78542C2.95643 8.49462 2.63359 8.23582 2.34275 7.99399C4.24873 6.08835 6.05878 4.29663 7.91679 2.42097C8.20764 2.72775 8.53046 3.09949 8.87028 3.42026C9.23943 3.81552 9.72377 4.08443 10.2545 4.18883C10.7852 4.29323 11.3353 4.22781 11.8267 4.00184C12.34 3.80555 12.7793 3.45432 13.0838 2.99696C13.3883 2.5396 13.5428 1.99881 13.5258 1.44967C13.5418 0.996989 13.5258 0.529317 13.5258 0.0446625H21.2637V1.3857C21.2334 1.94557 21.3817 2.5006 21.687 2.9709C21.9923 3.4412 22.439 3.80251 22.9628 4.00284C23.4657 4.22939 24.0276 4.2905 24.5676 4.17736C25.1075 4.06423 25.5975 3.78268 25.9672 3.37328C26.246 3.07749 26.5529 2.72175 26.8277 2.41496ZM19.2997 32.8932C19.3875 32.0548 19.6992 31.2555 20.2024 30.5791C20.7055 29.9027 21.3814 29.3742 22.1592 29.049C22.9236 28.7221 23.7617 28.6067 24.5859 28.7146C25.4102 28.8226 26.1903 29.1499 26.8447 29.6625L29.5753 26.9325C29.0647 26.2652 28.7403 25.4746 28.6349 24.6412C28.5295 23.8078 28.6471 22.9613 28.9755 22.188C29.3039 21.4148 29.8315 20.7424 30.5045 20.2395C31.1775 19.7365 31.9718 19.4209 32.8066 19.3249V15.4966C31.975 15.4052 31.1828 15.094 30.5113 14.595C29.8399 14.0961 29.3134 13.4274 28.986 12.6577C28.6586 11.888 28.5421 11.045 28.6485 10.2153C28.7549 9.38568 29.0803 8.5993 29.5913 7.93702C28.6547 7.00069 27.7652 6.09534 26.8607 5.20698C26.196 5.72223 25.4059 6.0512 24.5719 6.16008C23.7379 6.26895 22.8899 6.15379 22.1151 5.82645C21.3403 5.49911 20.6667 4.9714 20.1634 4.29755C19.6602 3.62369 19.3455 2.828 19.2518 1.99228H15.4058C15.3179 2.83528 15.0003 3.638 14.4877 4.31302C13.975 4.98805 13.2869 5.50948 12.4984 5.82054C11.7476 6.14278 10.924 6.25715 10.1139 6.15166C9.30376 6.04617 8.53692 5.7247 7.8938 5.22096C6.9403 6.17428 6.03579 7.07864 5.11527 7.983C5.62885 8.63396 5.95455 9.41299 6.05708 10.2357C6.15961 11.0585 6.03507 11.8936 5.69697 12.6507C5.37368 13.4221 4.84943 14.0927 4.17881 14.5928C3.50819 15.0928 2.71573 15.4039 1.88399 15.4936V19.3699C2.70932 19.4626 3.49541 19.772 4.16244 20.2668C4.82947 20.7615 5.35369 21.4239 5.68187 22.1867C6.01004 22.9495 6.1305 23.7855 6.03099 24.6099C5.93147 25.4343 5.61554 26.2177 5.11527 26.8805C6.05278 27.8338 6.9573 28.7382 7.87781 29.6585C8.5273 29.1424 9.30558 28.8137 10.1285 28.708C10.9513 28.6024 11.7875 28.7237 12.5463 29.059C13.32 29.3836 13.9922 29.9102 14.4925 30.5837C14.9927 31.2572 15.3027 32.0528 15.3898 32.8872L19.2997 32.8932ZM13.4868 46.4295V44.7308C13.4868 40.9675 13.5028 37.2041 13.4868 33.4388C13.5021 33.0297 13.425 32.6224 13.2612 32.2472C13.0974 31.8719 12.851 31.5385 12.5406 31.2715C12.2301 31.0046 11.8634 30.811 11.4678 30.7053C11.0722 30.5996 10.6578 30.5844 10.2555 30.6608C9.78679 30.7607 9.60889 30.9196 9.60889 31.4522C9.62488 36.2488 9.62488 41.0304 9.62488 45.828C9.62488 46.0218 9.64087 46.2157 9.65686 46.4276L13.4868 46.4295ZM25.1026 46.4295V31.6991C25.1026 30.7947 25.0027 30.6818 24.1032 30.6328C23.9027 30.6191 23.7014 30.6299 23.5035 30.6648C22.8493 30.7735 22.2576 31.1183 21.8407 31.634C21.4239 32.1497 21.2107 32.8004 21.2417 33.4628V46.0288C21.2417 46.1578 21.2737 46.3036 21.2737 46.4485C22.547 46.4295 23.7903 46.4295 25.0986 46.4295H25.1026ZM24.2301 48.4281H10.4784C11.7547 50.3337 12.9661 52.1755 14.2104 54.0012C14.2914 54.1301 14.5493 54.179 14.7272 54.195C15.8416 54.211 16.94 54.211 18.0554 54.195C18.8076 54.3272 19.5796 54.2931 20.3172 54.0951C20.9309 53.7563 21.2547 52.8839 21.6905 52.2374C22.53 51.0043 23.3546 49.7412 24.2271 48.4331L24.2301 48.4281ZM15.4738 34.8768V46.4096H19.2717V34.8808L15.4738 34.8768ZM15.6517 56.1496C15.9905 56.6662 16.2653 57.0699 16.5402 57.4906C16.5727 57.5427 16.6106 57.5913 16.6531 57.6356C16.7152 57.7465 16.8027 57.8411 16.9086 57.9115C17.0145 57.9818 17.1357 58.0259 17.2621 58.0401C17.3884 58.0542 17.5163 58.0381 17.6352 57.9929C17.754 57.9478 17.8604 57.8749 17.9455 57.7804C18.3559 57.2567 18.7389 56.712 19.0928 56.1486L15.6517 56.1496Z" fill="#47BBC6"/>
<path d="M50.2868 13.56V23.2351H57.7828C58.0714 23.2029 58.3636 23.2358 58.6378 23.3314C58.912 23.4269 59.1614 23.5827 59.3675 23.7873C59.5736 23.9918 59.7313 24.2399 59.8289 24.5134C59.9265 24.7869 59.9616 25.0787 59.9316 25.3676V34.6709C59.956 34.9541 59.9179 35.2392 59.8199 35.506C59.722 35.7729 59.5666 36.0149 59.3647 36.2151C59.1629 36.4153 58.9195 36.5687 58.6519 36.6645C58.3842 36.7602 58.0988 36.7961 57.8157 36.7694H50.2878V46.4445H57.8647C58.1433 46.4222 58.4234 46.461 58.6855 46.558C58.9476 46.6551 59.1854 46.8081 59.3823 47.0065C59.5791 47.2048 59.7304 47.4437 59.8254 47.7065C59.9205 47.9693 59.9571 48.2496 59.9326 48.528V57.8963C59.9557 58.1744 59.9181 58.4541 59.8226 58.7163C59.727 58.9785 59.5757 59.2168 59.3792 59.4148C59.1826 59.6129 58.9454 59.7659 58.684 59.8635C58.4225 59.961 58.143 60.0008 57.8647 59.9799H40.7538C40.4706 60.0042 40.1854 59.9661 39.9185 59.8682C39.6517 59.7702 39.4096 59.6149 39.2094 59.4131C39.0091 59.2113 38.8557 58.968 38.7599 58.7003C38.6641 58.4327 38.6283 58.1474 38.6549 57.8644V48.561C38.6295 48.2783 38.6662 47.9934 38.7625 47.7264C38.8587 47.4594 39.0122 47.2165 39.2121 47.015C39.412 46.8135 39.6536 46.6581 39.92 46.5598C40.1863 46.4614 40.4709 46.4224 40.7538 46.4455H48.2818V36.7704H40.8038C40.5152 36.8026 40.223 36.7697 39.9487 36.6741C39.6745 36.5786 39.4252 36.4228 39.219 36.2182C39.0129 36.0137 38.8553 35.7655 38.7576 35.4921C38.66 35.2186 38.6249 34.9267 38.6549 34.6379V25.3346C38.6306 25.0514 38.6687 24.7663 38.7666 24.4995C38.8646 24.2326 39.02 23.9906 39.2218 23.7904C39.4236 23.5902 39.667 23.4368 39.9347 23.341C40.2023 23.2452 40.4878 23.2094 40.7708 23.2361H48.2988V13.561H40.8028C40.5139 13.591 40.222 13.5559 39.9485 13.4583C39.675 13.3607 39.4268 13.203 39.2222 12.997C39.0176 12.7909 38.8618 12.5416 38.7662 12.2674C38.6707 11.9932 38.6377 11.7011 38.6699 11.4125V2.15712C38.6406 1.86913 38.6755 1.57822 38.772 1.30531C38.8686 1.03241 39.0245 0.784298 39.2284 0.57884C39.4324 0.373382 39.6794 0.21568 39.9516 0.117088C40.2238 0.0184955 40.5145 -0.0185301 40.8028 0.00865975H57.8627C58.1463 -0.0171672 58.4321 0.0199625 58.6996 0.117393C58.9672 0.214823 59.2098 0.370137 59.4104 0.572253C59.6109 0.774368 59.7643 1.01828 59.8596 1.28656C59.9549 1.55483 59.9897 1.84084 59.9616 2.12414V11.4275C59.9883 11.7105 59.9524 11.9959 59.8566 12.2635C59.7608 12.5311 59.6074 12.7744 59.4072 12.9762C59.207 13.178 58.9649 13.3334 58.698 13.4313C58.4311 13.5292 58.146 13.5674 57.8627 13.543C55.346 13.577 52.8394 13.56 50.2868 13.56ZM40.6259 1.97925V11.5724H57.9767V1.97925H40.6259ZM40.6099 34.8008H57.9606V25.2077H40.6099C40.6099 28.4044 40.6099 31.5861 40.6099 34.8008ZM40.6259 48.4171V58.0103H57.9606V48.4171H40.6259Z" fill="#47BBC6"/>
<path d="M7.6836 17.4052C7.68997 15.4903 8.26456 13.6203 9.3346 12.0321C10.4046 10.4439 11.922 9.20887 13.6946 8.48344C15.4671 7.75802 17.4151 7.57481 19.2919 7.95703C21.1686 8.33924 22.8897 9.26968 24.2372 10.6305C25.5847 11.9914 26.498 13.7214 26.8614 15.6016C27.2249 17.4817 27.0221 19.4274 26.2788 21.1923C25.5355 22.9571 24.2851 24.4617 22.6859 25.5156C21.0867 26.5695 19.2107 27.1251 17.2955 27.1123C14.7367 27.0888 12.2909 26.0555 10.4906 24.2374C8.69028 22.4193 7.68138 19.9636 7.6836 17.4052ZM25.0993 17.4702C25.1059 15.9392 24.6579 14.4406 23.8123 13.1642C22.9666 11.8878 21.7612 10.8909 20.3486 10.2998C18.936 9.70862 17.3798 9.54976 15.8769 9.84328C14.3739 10.1368 12.9919 10.8695 11.9057 11.9487C10.8194 13.0279 10.0778 14.405 9.77474 15.9058C9.47165 17.4065 9.62068 18.9635 10.203 20.3795C10.7853 21.7955 11.7747 23.007 13.0459 23.8606C14.3172 24.7142 15.8132 25.1715 17.3445 25.1747C19.3934 25.1766 21.3596 24.3668 22.8128 22.9227C24.2659 21.4786 25.0878 19.5177 25.0983 17.4692L25.0993 17.4702Z" fill="#47BBC6"/>
<path d="M46.358 7.74612H44.5V5.87246H46.358V7.74612Z" fill="#47BBC6"/>
<path d="M48.3789 5.85548H50.2369V7.71315H48.3789V5.85548Z" fill="#47BBC6"/>
<path d="M54.0963 7.72915H52.2383V5.85548H54.0963V7.72915Z" fill="#47BBC6"/>
<path d="M46.3424 30.9566H44.4844V29.0989H46.3424V30.9566Z" fill="#47BBC6"/>
<path d="M50.2213 30.9566H48.3633V29.0989H50.2213V30.9566Z" fill="#47BBC6"/>
<path d="M54.0963 30.9566H52.2383V29.0829H54.0963V30.9566Z" fill="#47BBC6"/>
<path d="M44.5 52.2774H46.358V54.151H44.5V52.2774Z" fill="#47BBC6"/>
<path d="M50.2213 54.167H48.3633V52.3093H50.2213V54.167Z" fill="#47BBC6"/>
<path d="M54.1123 52.2933V54.151H52.2383V52.2933H54.1123Z" fill="#47BBC6"/>
<path d="M11.9336 19.0361C12.3334 18.6363 12.7572 18.2127 13.2259 17.728C13.9255 18.4715 14.6151 19.182 15.3418 19.9404C17.4256 17.5661 19.4286 15.2728 21.4805 12.9304C21.9653 13.3501 22.434 13.7708 22.9347 14.2065C20.4471 17.0495 17.9754 19.8595 15.5517 22.6385C14.3243 21.4244 13.1449 20.2472 11.9336 19.0361Z" fill="#47BBC6"/>
</svg>
