<svg width="60" height="61" viewBox="0 0 60 61" fill="none" xmlns="http://www.w3.org/2000/svg">
<path d="M49.1756 20.7847C49.1756 20.5866 49.1916 20.3894 49.2089 20.1785C49.2089 20.1168 49.2249 20.055 49.2249 19.9933C49.2314 19.7414 49.2871 19.4915 49.3903 19.2516C50.434 17.2508 50.7428 15.078 50.2848 12.9582C49.6821 10.1063 47.7367 7.5084 44.7983 5.63167C41.8599 3.75493 38.1212 2.7224 34.2545 2.71973C32.5065 2.7247 30.7697 2.92912 29.1044 3.32593C28.928 3.37047 28.7439 3.39561 28.5578 3.40053C28.3471 3.39486 28.1427 3.3456 27.9673 3.25825C27.7919 3.17089 27.6525 3.04887 27.5645 2.9058C26.8352 2.02036 25.8151 1.28868 24.6009 0.78015C23.3867 0.271618 22.0187 0.00307581 20.6265 0C19.9794 0.00138726 19.3347 0.0589321 18.7054 0.171481C17.045 0.467937 15.5491 1.1424 14.4246 2.10155C13.3001 3.0607 12.6027 4.2571 12.4288 5.52521C12.2642 6.85341 12.6661 8.18646 13.5771 9.33386C14.5032 10.4572 15.8832 11.3318 17.5181 11.8315C17.6537 11.876 17.7863 11.9255 17.9154 11.9799C17.9647 12.0047 18.0153 12.0167 18.0647 12.0416L18.346 12.1531L18.2794 12.388C17.7001 14.5084 17.8828 16.7054 18.8087 18.756C18.9134 18.9344 18.9378 19.1333 18.8782 19.3228C18.8185 19.5124 18.6781 19.6824 18.478 19.8072C17.2356 20.7504 15.961 21.7364 14.5738 22.8245C14.4742 22.9189 14.3489 22.9963 14.2062 23.0518C14.0634 23.1072 13.9065 23.1393 13.7459 23.146C13.5468 23.1439 13.3522 23.1012 13.1832 23.0226C12.9781 22.9299 12.7442 22.8788 12.5046 22.8742C12.098 22.8979 11.7163 23.0297 11.4286 23.2455C8.30739 25.2744 5.71874 27.719 3.79472 30.4547C1.00772 34.4795 -0.284507 38.9883 0.0524059 43.5123C0.0684821 43.8458 0.217764 44.6372 1.21104 44.6372H1.24434C2.20431 44.6252 2.37082 43.9324 2.39264 43.5226C2.40871 43.2011 2.40872 42.8675 2.40872 42.546C2.4248 41.6809 2.42479 40.778 2.54076 39.9C3.13823 34.3155 6.49714 29.0968 11.9637 25.2596C12.1943 25.0694 12.5153 24.954 12.8582 24.938C13.0972 24.9459 13.33 24.9968 13.5369 25.0864C20.3088 27.6825 25.5576 32.0552 28.2753 37.3646C28.4177 37.6576 28.4851 37.9679 28.474 38.2795C28.4901 40.1709 28.4901 42.0881 28.474 43.9384V46.9C28.474 47.8766 28.474 48.8909 28.4901 49.8795C28.474 49.9991 28.4917 50.1199 28.5422 50.234C28.5926 50.3481 28.6746 50.4531 28.7829 50.542C28.8912 50.6309 29.0233 50.7019 29.1707 50.7502C29.318 50.7986 29.4774 50.8233 29.6384 50.8227H29.7877C30.4663 50.7729 30.7982 50.4025 30.7982 49.7346V33.7677H39.7078L39.7905 33.9907C39.8066 34.0155 39.8066 34.0275 39.8238 34.0404C39.8514 34.1002 39.868 34.1625 39.8732 34.2256V39.0477C39.8892 43.3134 39.8893 47.7154 39.8399 52.0556C39.8163 52.9983 39.4986 53.9239 38.9122 54.7589C38.3258 55.5939 37.4867 56.3152 36.4616 56.8657C35.4681 57.455 34.3167 57.878 33.0852 58.1058C31.8537 58.3337 30.571 58.3612 29.324 58.1864C28.077 58.0117 26.895 57.6388 25.8579 57.093C24.8209 56.5472 23.9532 55.8413 23.3135 55.0232C21.4923 52.7604 19.67 50.448 17.9165 48.2101C17.1047 47.1718 16.2767 46.1206 15.466 45.0814L15.3994 44.9956C15.3082 44.8657 15.2029 44.7416 15.0848 44.6244C14.9802 44.5251 14.847 44.4447 14.6952 44.389C14.5433 44.3334 14.3767 44.3039 14.2075 44.3028C13.9853 44.3059 13.7681 44.3529 13.5782 44.4392C13.3455 44.5469 13.1734 44.7143 13.0941 44.9101C13.0148 45.1058 13.0339 45.3164 13.1476 45.5024C13.2496 45.668 13.3646 45.8289 13.4921 45.9842C14.6507 47.3938 15.7772 48.8652 16.8704 50.2713C18.7915 52.769 20.7953 55.3533 23.031 57.7395L23.4904 58.2342H2.37771V54.6236C2.37771 53.9437 1.94711 53.5475 1.21909 53.5475C0.491064 53.5475 0.0604484 53.9557 0.0604484 54.6356V55.9955C0.0604484 56.8983 0.0765159 57.8252 0.0443635 58.7281C-0.0076042 58.9785 0.0419451 59.2347 0.186622 59.4639C0.331299 59.6931 0.564488 59.8848 0.856213 60.0142H32.2209C32.3196 59.9743 32.4256 59.9454 32.5355 59.9284C35.274 59.6153 37.7742 58.5854 39.5895 57.0227C41.3444 55.4261 42.2731 53.4122 42.2065 51.3474V33.3965C42.2065 32.2098 42.1399 32.1472 40.6173 31.8385L40.3026 31.7768V31.5299C40.3054 31.4439 40.3 31.358 40.2866 31.2726C40.2565 31.0294 40.2677 30.7842 40.3199 30.543C40.3533 30.3763 40.4305 30.2163 40.5469 30.0719C40.6634 29.9276 40.8169 29.8018 40.9985 29.7019C44.8918 27.9027 47.7399 25.0788 48.9803 21.7879C49.1266 21.4651 49.1928 21.1252 49.1756 20.7847ZM27.6644 5.89733C27.9634 5.64213 28.3297 5.43576 28.7404 5.29114C30.4439 4.72243 32.2897 4.43018 34.1558 4.43372C37.1724 4.4412 40.1079 5.16419 42.5384 6.49837C45.0379 7.84365 46.8394 9.7915 47.6391 12.0133C47.6724 12.0879 47.6724 12.1616 47.7057 12.2705C47.7226 12.3323 47.739 12.418 47.7551 12.5278L47.855 13.0473L47.1924 12.8759C46.0349 12.5588 44.8149 12.3875 43.5822 12.3691C41.6841 12.3651 39.855 12.9 38.4654 13.8653L38.1507 14.0754L37.8694 13.8405C37.4097 13.398 36.8228 13.0383 36.1521 12.788C35.4813 12.5376 34.7437 12.403 33.9939 12.394C33.5139 12.399 33.0362 12.4447 32.57 12.5303C31.5624 12.7306 30.667 13.1663 30.0146 13.7736C29.3622 14.3809 28.9869 15.1281 28.9436 15.906C28.8943 16.796 28.7289 17.1921 27.4371 17.1921H27.1064C25.0369 17.138 23.0035 16.772 21.1283 16.1161C20.8718 16.0548 20.652 15.9286 20.5069 15.7592C20.3618 15.5898 20.3006 15.3879 20.3337 15.1883C20.367 14.8548 20.4003 14.5084 20.4336 14.1594C20.4669 13.7307 20.5163 13.2694 20.5829 12.8244C20.6861 12.1913 21.064 11.6007 21.6588 11.143C22.8508 10.1287 24.0266 9.09036 25.1864 8.0889C25.9753 7.37295 26.8193 6.627 27.6644 5.89733ZM18.4241 10.2376C17.1429 9.85841 16.0802 9.15602 15.4206 8.2525C14.7611 7.34898 14.5463 6.30145 14.8138 5.29199C15.1042 4.25587 15.8778 3.33039 16.9968 2.68045C18.1158 2.03052 19.5075 1.69835 20.9239 1.74314H20.9572C21.8961 1.78243 22.8087 1.98935 23.6183 2.34652C24.428 2.70369 25.111 3.20069 25.6101 3.7958C25.8283 3.98943 25.9394 4.23786 25.9208 4.4905C25.9022 4.74314 25.7554 4.981 25.5102 5.15566C23.8211 6.57726 22.0332 8.14806 20.0122 9.95721C19.9014 10.0712 19.7575 10.1649 19.5912 10.2313C19.4249 10.2977 19.2406 10.335 19.0522 10.3405C18.836 10.336 18.6229 10.3011 18.4241 10.2376ZM24.0381 28.6121L23.6741 28.402L18.7892 25.4713L16.6695 24.1981L16.2882 23.9631L16.6522 23.7162L16.6683 23.7042L19.98 21.4663L20.344 21.2194L20.6093 21.5289C22.0528 23.1685 24.0076 24.5219 26.306 25.4731L26.7033 25.6445L26.4381 25.9292L25.5275 26.9307L24.2528 28.3403L24.0381 28.6121ZM30.5467 27.6106C30.4973 28.5623 30.5134 29.5021 30.5134 30.4049V31.6165L30.2837 31.7022L28.7909 32.2955L28.1777 32.5425L27.847 32.6788L27.6323 32.4439L26.987 31.7639L25.609 30.2926L25.4436 30.1211L25.609 29.9359L27.9607 27.3517L28.6394 26.5971L28.7542 26.4737L28.9528 26.4617C29.0355 26.4617 29.1021 26.4497 29.1687 26.4497C29.3465 26.4404 29.5249 26.4585 29.693 26.5027C29.8611 26.547 30.0152 26.6164 30.1459 26.7069C30.2972 26.8259 30.4115 26.9683 30.4806 27.1241C30.5497 27.2799 30.5719 27.4451 30.5455 27.608L30.5467 27.6106ZM46.709 21.5144C46.1056 23.0553 45.0842 24.4871 43.7083 25.7208C42.3325 26.9545 40.6315 27.9638 38.7111 28.6858C38.4803 28.7636 38.2885 28.8941 38.1634 29.0585C38.0384 29.223 37.9865 29.4128 38.0152 29.6007V31.938H32.9811L32.9317 31.6662C32.9286 31.6241 32.9174 31.5825 32.8984 31.5427C32.8728 31.4365 32.8563 31.3291 32.849 31.2212V27.079C32.8209 26.6608 32.9644 26.2461 33.2603 25.8903C33.5561 25.5346 33.9904 25.2547 34.5049 25.0881C37.7048 23.9624 40.3725 22.1388 42.156 19.8578C42.3717 19.5604 42.6891 19.3109 43.0761 19.135C43.463 18.959 43.9055 18.8629 44.3584 18.8564C44.7557 18.861 45.147 18.9285 45.5067 19.0544C46.0839 19.2771 46.5281 19.6535 46.7513 20.109C46.9746 20.5646 46.9607 21.0661 46.7124 21.5144H46.709ZM48.2018 15.0597L48.0697 15.8262L47.7884 17.3842L47.7218 17.7426L47.2625 17.644C46.9639 17.5822 46.6998 17.5205 46.4185 17.4588C45.9239 17.3277 45.4137 17.2323 44.8947 17.1741C44.68 17.1621 44.448 17.1492 44.2493 17.1492C43.452 17.1275 42.6623 17.2722 41.9689 17.5671C41.2756 17.862 40.7061 18.2954 40.3245 18.8186C38.6846 20.9126 36.2376 22.5889 33.3026 23.6288C32.9407 23.7759 32.6111 23.9635 32.3254 24.1852C32.1103 24.3376 31.8837 24.4808 31.6467 24.6139C31.3801 24.7708 31.0573 24.8654 30.7189 24.8857C30.6462 24.8844 30.574 24.8761 30.5042 24.8609C28.4629 24.4466 26.5759 23.6884 24.9884 22.6445C23.4008 21.6006 22.1549 20.2988 21.3465 18.8392L21.0479 18.3196L21.7932 18.3942C22.3891 18.4559 22.9851 18.5177 23.565 18.5794C24.8901 18.7278 26.1315 18.8641 27.4233 18.9224C27.5232 18.9224 27.622 18.9344 27.7046 18.9344C28.1827 18.9481 28.6594 18.8871 29.1041 18.7552C29.5487 18.6233 29.9515 18.4235 30.2867 18.1685C30.6219 17.9136 30.882 17.6091 31.0503 17.2747C31.2187 16.9403 31.2916 16.5833 31.2643 16.2267C31.2298 15.7461 31.4329 15.2727 31.8352 14.8966C32.2375 14.5206 32.8108 14.268 33.4461 14.1869C33.6115 14.1749 33.7608 14.162 33.9055 14.162C34.4979 14.1653 35.0712 14.3188 35.5315 14.5974C35.9917 14.8759 36.3116 15.263 36.4386 15.6951C36.6533 16.1769 37.0518 16.4616 37.5479 16.4616C37.8961 16.4474 38.2281 16.3473 38.4918 16.1769C38.8225 15.9789 39.1371 15.7688 39.4517 15.5707C39.6998 15.4104 39.965 15.2372 40.2303 15.064C41.1607 14.464 42.3459 14.1298 43.5753 14.1208C44.0445 14.1244 44.5114 14.1701 44.9659 14.2572C45.5791 14.3686 46.2083 14.4672 46.887 14.5667C47.2016 14.6164 47.5327 14.6659 47.8803 14.715L48.2615 14.7768L48.2018 15.0597Z" fill="#47BBC6"/>
<path d="M52.1742 36.5621C51.9916 36.3906 51.793 36.2191 51.6115 36.0425C51.5023 35.9264 51.359 35.8305 51.1927 35.762C51.0263 35.6935 50.8413 35.6543 50.6515 35.6472C50.4717 35.6525 50.296 35.6888 50.138 35.7532C49.9801 35.8176 49.8441 35.9084 49.7409 36.0185C48.5926 37.0474 47.4891 38.0583 46.4947 39.1223C45.8886 39.769 45.5788 40.5447 45.6118 41.3336C45.6447 42.1225 46.0185 42.8823 46.6773 43.4995C47.1476 43.9551 47.7523 44.3236 48.4444 44.5764C49.1364 44.8292 49.8972 44.9594 50.6676 44.9571C52.0024 44.9562 53.2821 44.5598 54.226 43.8551C55.1698 43.1504 55.7006 42.1948 55.7018 41.1981V40.9881L55.8005 40.9632C55.7339 40.8149 55.6684 40.6666 55.6018 40.5345C55.3958 40.0198 55.1066 39.5257 54.7406 39.0632C53.9476 38.1947 53.0909 37.3598 52.1742 36.5621ZM52.4555 42.7072C51.9651 43.0383 51.3287 43.2232 50.6676 43.2268C50.0093 43.2243 49.3744 43.0444 48.8797 42.7201C48.3797 42.3951 48.0603 41.9425 47.9838 41.4508C47.9074 40.9592 48.0794 40.464 48.4663 40.0621C48.8636 39.654 49.2782 39.2587 49.7295 38.8377C49.9281 38.6525 50.144 38.4544 50.3427 38.2563L50.6733 37.9348L51.0041 38.2563C51.22 38.4544 51.4186 38.6516 51.6173 38.8377C52.064 39.2578 52.4785 39.6411 52.8597 40.0621C53.2523 40.4596 53.4288 40.9533 53.3538 41.444C53.2788 41.9347 52.9579 42.386 52.4555 42.7072Z" fill="#47BBC6"/>
<path d="M59.0447 26.7197C58.1198 25.7158 57.1232 24.7498 56.0591 23.8259L55.7284 23.5164C55.627 23.4137 55.4949 23.33 55.3426 23.2721C55.1903 23.2142 55.022 23.1836 54.8511 23.1829C54.6772 23.1868 54.5067 23.2197 54.352 23.279C54.1973 23.3383 54.0622 23.4226 53.9566 23.5258C52.8301 24.5547 51.6599 25.6154 50.6115 26.7283C50.0378 27.3758 49.7544 28.1427 49.802 28.9183C49.8497 29.6939 50.2261 30.4381 50.8768 31.0437C51.345 31.4943 51.9451 31.8589 52.6312 32.1097C53.3173 32.3604 54.0712 32.4905 54.835 32.4902C55.4164 32.4894 55.9932 32.414 56.5402 32.2672C57.5129 32.009 58.3548 31.5326 58.9509 30.9033C59.5471 30.2741 59.8681 29.5226 59.8703 28.7518V28.5289L59.9702 28.504C59.9036 28.3677 59.8553 28.2322 59.8048 28.0959C59.6345 27.614 59.3789 27.1512 59.0447 26.7197ZM56.577 30.2934C56.0915 30.5908 55.4825 30.7527 54.8545 30.7513C54.2205 30.7462 53.6075 30.5805 53.116 30.2814C52.6061 29.9751 52.2688 29.537 52.1708 29.0539C52.0727 28.5707 52.2212 28.0777 52.5867 27.6723C52.984 27.2436 53.4146 26.8312 53.8785 26.399C54.0944 26.201 54.309 25.9909 54.5238 25.7808L54.8545 25.4593L55.1853 25.7929C55.4011 26.0029 55.6158 26.213 55.8305 26.4111C56.3105 26.8689 56.7584 27.289 57.1718 27.7589C57.5018 28.1632 57.6236 28.6433 57.5144 29.1097C57.4051 29.576 57.0712 29.9968 56.577 30.2934Z" fill="#47BBC6"/>
</svg>
