<svg width="60" height="61" viewBox="0 0 60 61" fill="none" xmlns="http://www.w3.org/2000/svg">
<path d="M18.0797 20.6781C17.4061 20.9371 16.8019 21.1271 16.2554 21.4061C15.8565 21.6069 15.5014 21.8881 15.2114 22.2328C14.9214 22.5776 14.7026 22.9788 14.568 23.4123C14.2073 24.5004 13.8074 25.5774 13.4262 26.6655C13.3914 26.7388 13.3652 26.816 13.3479 26.8955C13.2306 27.8636 13.1231 28.8317 12.997 29.8958C13.3577 30.0158 13.8456 30.1648 14.3334 30.3348C14.6089 30.4023 14.8674 30.5283 15.0922 30.7046C15.317 30.8809 15.5031 31.1036 15.6383 31.3582C15.7735 31.6128 15.8549 31.8937 15.8772 32.1825C15.8995 32.4714 15.8621 32.7618 15.7676 33.035C15.2113 34.9711 14.6257 36.8973 14.0313 38.8234C13.8428 39.3193 13.476 39.7226 13.0061 39.9508C12.5363 40.1789 11.9989 40.2146 11.5041 40.0505C8.11888 38.9924 4.74016 37.9147 1.36796 36.8173C1.12086 36.7359 0.89189 36.6055 0.69418 36.4335C0.49647 36.2614 0.333912 36.0511 0.215833 35.8147C0.0977539 35.5782 0.0264784 35.3202 0.00609173 35.0555C-0.014295 34.7908 0.0166054 34.5245 0.0970293 34.2721C0.653306 32.3359 1.24771 30.4098 1.85678 28.4936C1.93316 28.236 2.05923 27.9966 2.22754 27.7897C2.39586 27.5827 2.60301 27.4124 2.83676 27.2886C3.07051 27.1649 3.32613 27.0904 3.58851 27.0694C3.85089 27.0485 4.11473 27.0815 4.36443 27.1665C4.99891 27.3466 5.62265 27.5556 6.3197 27.7666C6.42401 27.3156 6.55759 26.8723 6.71955 26.4395C6.93074 26.0043 7.16507 25.5813 7.4215 25.1724C7.50582 25.0642 7.58383 24.951 7.65515 24.8334C8.45486 22.7472 9.22622 20.6521 10.065 18.5759C10.3075 17.9712 10.6704 17.4246 11.1305 16.9711C11.5907 16.5176 12.1381 16.1671 12.7379 15.9417C14.5133 15.2237 16.2789 14.4416 18.0934 13.8656C19.2055 13.5174 20.3653 13.3556 21.5278 13.3865C23.3182 13.4818 25.1024 13.6717 26.8736 13.9556C28.3967 14.195 29.8252 14.8617 31.0002 15.8817C32.0443 16.7598 33.107 17.6178 34.1022 18.5359C34.6035 19.002 35.2035 19.3428 35.8552 19.5316C36.507 19.7204 37.1926 19.752 37.8583 19.624C38.7558 19.494 39.6533 19.365 40.5507 19.245C41.2643 19.1481 41.9881 19.3171 42.59 19.721C43.1918 20.125 43.6315 20.737 43.8288 21.4451C44.122 23.5213 43.204 25.0774 41.458 25.3674C39.9934 25.6444 38.5149 25.8377 37.0293 25.9465C34.9166 26.0382 32.838 25.3788 31.1468 24.0803C30.4156 23.5413 29.6804 23.0022 28.8738 22.4142C28.8234 22.6413 28.7875 22.8714 28.7663 23.1032C28.5805 25.4484 28.4055 27.7836 28.21 30.1288C28.1709 30.5378 28.3078 30.6978 28.6685 30.8468C29.8104 31.3059 30.9415 31.7849 32.0639 32.2939C32.9146 32.6393 33.634 33.2558 34.1154 34.0522C34.5969 34.8485 34.8147 35.7823 34.7367 36.7153C34.5607 39.8585 34.3857 43.0157 34.1902 46.156C34.1423 46.5726 34.0143 46.9754 33.8135 47.3413C33.6127 47.7071 33.3432 48.0286 33.0204 48.2874C32.6977 48.5462 32.328 48.7371 31.9328 48.8492C31.5376 48.9612 31.1246 48.9921 30.7176 48.9402C30.3155 48.8999 29.9261 48.774 29.5745 48.5704C29.2228 48.3669 28.9168 48.0902 28.676 47.7583C28.4353 47.4264 28.2651 47.0465 28.1766 46.6433C28.0881 46.24 28.0832 45.8222 28.1621 45.4169C28.3772 42.9817 28.4837 40.5266 28.6402 38.0224C27.294 37.7223 25.9869 37.4333 24.5722 37.1143C24.6895 37.7143 24.7873 38.2424 24.9036 38.7804C25.1089 39.7685 25.3328 40.7466 25.5283 41.7346C25.7211 42.605 25.6072 43.517 25.2067 44.3098C23.5291 47.7031 21.8505 51.1103 20.2119 54.5286C20.0431 54.9077 19.8017 55.2483 19.5019 55.5302C19.2021 55.8122 18.8501 56.0297 18.4666 56.17C18.0832 56.3103 17.6761 56.3704 17.2695 56.3469C16.8629 56.3234 16.4651 56.2167 16.0996 56.033C15.734 55.8494 15.4082 55.5926 15.1414 55.2779C14.8746 54.9632 14.6723 54.5969 14.5463 54.2008C14.4204 53.8046 14.3734 53.3866 14.4082 52.9716C14.443 52.5565 14.5589 52.1528 14.7489 51.7844C16.1831 48.7701 17.6662 45.7769 19.0906 42.7527C19.2396 42.4045 19.2839 42.0187 19.2177 41.6446C18.6419 38.8444 17.9301 36.0762 17.4814 33.252C17.3485 31.8204 17.3714 30.3781 17.5498 28.9517C17.7063 26.3765 17.9106 23.8123 18.0963 21.2511C18.0993 21.1071 18.0797 20.9471 18.0797 20.6781ZM30.177 41.5456C30.0988 42.9827 30.001 44.4298 29.9336 45.8669C29.9264 46.0271 29.9512 46.1871 30.0063 46.3372C30.0615 46.4873 30.1459 46.6244 30.2544 46.7401C30.363 46.8558 30.4934 46.9477 30.6377 47.0103C30.782 47.0728 30.9373 47.1047 31.094 47.104C31.2433 47.1094 31.392 47.0835 31.5311 47.0278C31.6702 46.9721 31.7967 46.8879 31.9027 46.7804C32.0088 46.6728 32.0922 46.5442 32.1478 46.4024C32.2034 46.2606 32.2301 46.1087 32.2261 45.9559C32.3917 42.9524 32.5608 39.9485 32.7335 36.9443C32.8502 36.296 32.7285 35.6265 32.3917 35.0645C32.0549 34.5026 31.5269 34.0878 30.9093 33.9001C29.6119 33.331 28.3146 32.772 27.0261 32.1999C26.8812 32.1676 26.7443 32.1054 26.6238 32.0172C26.5032 31.9289 26.4014 31.8165 26.3248 31.6866C26.2481 31.5568 26.1981 31.4124 26.1778 31.2622C26.1575 31.1119 26.1674 30.959 26.2068 30.8128C26.4796 27.5126 26.7533 24.1963 27.0163 20.8931C27.0945 19.885 27.7182 19.556 28.5287 20.125C29.7283 20.9631 30.9093 21.8112 32.1088 22.6502C33.2658 23.5339 34.6733 24.0069 36.1171 23.9973C37.7557 23.9373 39.3952 23.6683 41.0239 23.4483C41.287 23.4036 41.5234 23.2578 41.6848 23.0406C41.8462 22.8235 41.9203 22.5514 41.8921 22.2802C41.8981 22.1087 41.8678 21.9379 41.8034 21.7794C41.7389 21.621 41.6418 21.4787 41.5186 21.3622C41.3954 21.2457 41.2491 21.1577 41.0897 21.1044C40.9302 21.0511 40.7614 21.0336 40.5947 21.0531C39.7363 21.1031 38.8682 21.2331 38.0196 21.3621C37.1006 21.5618 36.1485 21.5357 35.2413 21.2858C34.3341 21.036 33.4978 20.5696 32.801 19.925C31.8234 19.0069 30.7479 18.1889 29.7478 17.3008C28.8373 16.4775 27.7198 15.9312 26.5216 15.7237C25.0874 15.4937 23.6435 15.4047 22.2093 15.1847C20.484 14.9343 18.7247 15.1766 17.1255 15.8847C15.838 16.4238 14.5407 16.9128 13.2424 17.4218C12.7954 17.5883 12.3879 17.8495 12.0465 18.1883C11.7052 18.5272 11.4377 18.936 11.2617 19.388C10.6751 20.8151 10.0885 22.2322 9.50191 23.6593C9.3232 23.9262 9.21723 24.237 9.19489 24.5597C9.17256 24.8824 9.23466 25.2054 9.37482 25.4954C9.70624 26.0845 10.2723 26.4335 10.8188 26.0045C11.1815 25.7177 11.4696 25.344 11.6576 24.9164C11.9988 24.1083 12.2237 23.2503 12.5258 22.4162C12.7829 21.6313 13.2145 20.9182 13.7867 20.3328C14.3589 19.7475 15.056 19.3059 15.8233 19.0429C16.5077 18.7939 17.2086 18.5939 17.8627 18.2849C18.112 18.1895 18.3791 18.1526 18.6442 18.1768C18.9093 18.2011 19.1658 18.2858 19.3946 18.4249C19.6283 18.5249 19.7945 18.9039 19.8727 19.193C19.9148 19.4981 19.9082 19.8081 19.8531 20.111C19.5703 24.0327 19.2842 27.9579 18.9948 31.8869C18.9471 32.3102 19.0273 32.7384 19.2244 33.1138C19.4215 33.4892 19.7262 33.7939 20.0976 33.9871C20.4342 34.1728 20.797 34.304 21.173 34.3761C23.9631 35.0151 26.7533 35.6232 29.5435 36.2522C30.2845 36.4222 30.441 36.6213 30.4019 37.4103C30.3422 38.7904 30.2513 40.1675 30.176 41.5446L30.177 41.5456ZM12.3341 38.3624C12.8904 36.5263 13.3978 34.7301 13.9727 32.953C14.178 32.3339 13.9824 32.0749 13.4262 31.9449C12.558 31.7449 11.6605 31.6059 10.812 31.3259C8.63671 30.6078 6.48003 29.8258 4.32434 29.0407C3.74851 28.8307 3.53441 29.0107 3.37799 29.5697C2.92925 31.1468 2.46096 32.723 1.94379 34.2901C1.75804 34.8591 1.88513 35.0981 2.44141 35.2681C5.51413 36.2262 8.58782 37.2243 11.6605 38.2024C11.8717 38.2714 12.0897 38.3014 12.3332 38.3614L12.3341 38.3624ZM19.7779 36.0622C20.1875 37.9383 20.5776 39.7845 21.0165 41.6206C21.1513 42.1372 21.0884 42.687 20.8406 43.1577C19.3383 46.2113 17.8425 49.2652 16.3532 52.3194C15.9142 53.2195 16.1 53.9756 16.8313 54.3256C17.5156 54.6546 18.1873 54.3256 18.6164 53.4475C20.2452 50.1142 21.8847 46.781 23.4939 43.4467C23.6557 43.1408 23.7271 42.7934 23.6992 42.4467C23.4166 40.6605 23.0842 38.8744 22.7333 37.0973C22.6977 36.9912 22.6401 36.8943 22.5643 36.8134C22.4885 36.7324 22.3964 36.6692 22.2943 36.6283C21.4838 36.4262 20.6646 36.2552 19.7769 36.0662L19.7779 36.0622ZM8.11953 28.3476C9.15387 28.6767 10.1198 28.9767 11.1238 29.2957C11.2118 28.9267 11.29 28.6267 11.377 28.2576C10.8437 28.3591 10.2942 28.3248 9.77693 28.1577C9.25966 27.9906 8.79052 27.6959 8.41087 27.2996C8.30431 27.6836 8.22609 27.9726 8.11855 28.3516L8.11953 28.3476Z" fill="#47BBC6"/>
<path d="M54.5272 40.0572H58.6441C59.8055 40.0572 59.9707 40.2272 59.9707 41.4243V44.1485C59.9609 44.9366 59.6774 45.3166 59.1221 45.3066C58.5668 45.2966 58.3029 44.9276 58.2931 44.1195V41.8123H48.6741C48.6643 42.0323 48.6448 42.2514 48.6448 42.4714V46.8627C48.6448 47.8408 48.3818 48.1198 47.4257 48.1198H36.9962V48.8089C36.9962 50.186 37.006 51.5731 36.9962 52.9502C36.9864 53.7782 36.7137 54.0582 35.9032 54.0582H25.4748V54.6673C25.4748 56.0944 25.4845 57.5115 25.4748 58.9386C25.4748 59.6867 25.1727 60.0067 24.46 60.0067C21.0161 60.0167 17.5689 60.0167 14.1185 60.0067C13.4547 60.0067 13.1037 59.6777 13.1135 59.1286C13.1233 58.5796 13.4742 58.2806 14.1576 58.2806H23.757C23.7668 58.0705 23.7961 57.9015 23.7961 57.7215V53.5212C23.7961 52.5931 24.0308 52.3441 24.9185 52.3441H35.3284V47.7438C35.3284 46.6057 35.5337 46.3967 36.6159 46.3967H46.9662V45.6886C46.9662 44.1615 46.9564 42.6344 46.9662 41.1083C46.9662 40.3302 47.2291 40.0702 47.9907 40.0602C49.5227 40.0502 51.0537 40.0602 52.6345 40.0602V12.5032H42.7721C41.7084 12.5032 41.4357 12.2241 41.4357 11.1661V1.26532C41.4357 0.327247 41.7475 0.0182224 42.6743 0.0182224C46.2838 0.00822169 49.8834 0.00822718 53.4929 0.00822718C53.634 -0.0104868 53.7775 0.00281666 53.9131 0.047201C54.0487 0.0915854 54.1731 0.165963 54.2774 0.265044C54.3817 0.364125 54.4634 0.485479 54.5168 0.620501C54.5701 0.755523 54.5937 0.900895 54.5859 1.0463C54.6054 1.25631 54.5957 1.45533 54.5957 1.66535C54.5859 14.1796 54.5728 26.6939 54.5566 39.2081C54.5309 39.4903 54.5211 39.7738 54.5272 40.0572ZM52.613 10.548V2.01537H43.2961V10.548H52.613Z" fill="#47BBC6"/>
<path d="M19.8245 6.67407C19.8389 5.59342 20.1662 4.5414 20.7651 3.65105C21.364 2.76071 22.2076 2.07203 23.1891 1.67209C24.1706 1.27216 25.246 1.17893 26.2793 1.40421C27.3126 1.62949 28.2574 2.16315 28.9942 2.93771C29.731 3.71227 30.2267 4.69293 30.4187 5.7557C30.6107 6.81847 30.4902 7.91561 30.0727 8.90836C29.6551 9.90112 28.9591 10.7449 28.0727 11.333C27.1863 11.9212 26.1494 12.2272 25.093 12.2125C23.6779 12.1877 22.3299 11.5916 21.3429 10.554C20.3559 9.51645 19.8101 8.12172 19.8245 6.67407ZM28.6232 6.76408C28.6331 6.29416 28.5515 5.82693 28.3831 5.3896C28.2147 4.95227 27.963 4.55358 27.6425 4.21675C27.322 3.87991 26.9393 3.61166 26.5165 3.42763C26.0937 3.2436 25.6393 3.14746 25.1798 3.1448C24.7203 3.14215 24.2649 3.23304 23.8401 3.41218C23.4153 3.59132 23.0296 3.85512 22.7055 4.18823C22.3813 4.52134 22.1251 4.9171 21.952 5.35246C21.7788 5.78782 21.692 6.25407 21.6967 6.72407C21.7059 7.65405 22.0722 8.54302 22.7166 9.19915C23.3609 9.85528 24.2316 10.226 25.1407 10.2312C26.0498 10.2365 26.9246 9.87587 27.5761 9.22722C28.2276 8.57857 28.6037 7.69388 28.6232 6.76408Z" fill="#47BBC6"/>
<path d="M48.0008 3.20372C48.5883 3.21534 49.1594 3.40407 49.6426 3.74626C50.1258 4.08845 50.4995 4.56888 50.7169 5.12737C50.9343 5.68586 50.9858 6.29758 50.8649 6.88586C50.744 7.47415 50.456 8.01284 50.0371 8.43446C49.6183 8.85608 49.087 9.14188 48.5101 9.25604C47.9331 9.37019 47.336 9.30764 46.7936 9.07621C46.2513 8.84479 45.7877 8.45478 45.4611 7.95505C45.1344 7.45532 44.9593 6.8681 44.9574 6.26695C44.951 5.85862 45.0256 5.45321 45.1769 5.07529C45.3282 4.69737 45.553 4.35482 45.8376 4.06839C46.1221 3.78197 46.4606 3.55764 46.8324 3.40901C47.2043 3.26038 47.6018 3.19053 48.0008 3.20372ZM46.8501 6.25795C46.8521 6.48345 46.9195 6.70327 47.0438 6.88951C47.1681 7.07575 47.3437 7.22002 47.5483 7.304C47.7529 7.38798 47.9772 7.40789 48.1929 7.36121C48.4086 7.31453 48.6059 7.20336 48.7597 7.04181C48.9135 6.88025 49.0169 6.67559 49.0568 6.45381C49.0967 6.23203 49.0713 6.00311 48.9838 5.79612C48.8963 5.58913 48.7507 5.4134 48.5654 5.29122C48.3801 5.16904 48.1635 5.10591 47.9431 5.10987C47.797 5.10941 47.6523 5.13898 47.5176 5.19682C47.3828 5.25466 47.2608 5.33958 47.1588 5.44656C47.0567 5.55355 46.9767 5.68042 46.9236 5.81962C46.8704 5.95883 46.8451 6.10755 46.8491 6.25696L46.8501 6.25795Z" fill="#47BBC6"/>
</svg>
