<svg width="60" height="61" viewBox="0 0 60 61" fill="none" xmlns="http://www.w3.org/2000/svg">
<path d="M0 43.4853C0.157979 42.3432 0.29196 41.2001 0.473935 40.0701C0.622113 38.3698 1.20768 36.7367 2.1737 35.3298C2.86437 34.5116 3.62919 33.759 4.4584 33.0817C4.61817 32.9631 4.75222 32.8134 4.85242 32.6415C4.95262 32.4696 5.01689 32.2791 5.04133 32.0816C5.56426 28.5084 6.00119 24.9232 6.6411 21.3741C7.78295 15.1027 11.5404 10.9095 17.3217 8.43032C18.5356 7.82597 19.9147 7.63796 21.2461 7.89529C22.3232 8.13599 23.2912 8.72464 24.0005 9.57036C24.7097 10.4161 25.121 11.4718 25.1706 12.5746C25.3646 14.1176 25.5835 15.6617 25.8025 17.2748C26.2275 17.0678 26.6164 16.8858 26.9814 16.6748C27.0886 16.5775 27.1539 16.4423 27.1633 16.2978C27.1873 15.9087 27.1633 15.5197 27.1753 15.1307C27.2143 14.8682 27.1881 14.6001 27.0992 14.35C27.0103 14.1 26.8613 13.8756 26.6654 13.6966C25.9365 13.0286 25.9655 10.0624 26.6894 9.39638C26.8736 9.23236 27.0153 9.02614 27.1024 8.79536C27.1894 8.56459 27.2193 8.31615 27.1893 8.07131C27.1653 7.60928 27.1893 7.13526 27.1893 6.66123C27.2462 6.34235 27.2251 6.01444 27.1277 5.7055C27.0304 5.39657 26.8598 5.11579 26.6304 4.88713C25.9625 4.3041 26.0475 1.47194 26.5944 0.754896C26.7602 0.523516 26.9792 0.335405 27.2329 0.206434C27.4866 0.0774623 27.7676 0.0114158 28.0522 0.0138572C29.365 0.00185651 30.6649 -0.0101442 31.9767 0.0138572C32.4516 0.0138428 32.9073 0.201571 33.2444 0.536133C33.5815 0.870695 33.7728 1.32497 33.7764 1.79995C33.8004 2.38298 33.7764 2.96702 33.7884 3.56206C33.8169 3.89452 33.7617 4.22881 33.6279 4.53448C33.4941 4.84015 33.286 5.10749 33.0225 5.31216C32.908 5.43051 32.8392 5.58578 32.8286 5.75018C32.8166 6.71024 32.8046 7.65828 32.8286 8.61834C32.8361 8.71888 32.8636 8.81691 32.9094 8.90671C32.9553 8.99652 33.0185 9.07629 33.0955 9.14136C33.3147 9.32355 33.4906 9.55223 33.6104 9.81082C33.7303 10.0694 33.7911 10.3514 33.7884 10.6365C33.7884 11.2075 33.7764 11.7665 33.7884 12.3365C33.8114 12.6587 33.7559 12.9816 33.6269 13.2777C33.4979 13.5737 33.2991 13.8341 33.0475 14.0366C32.9246 14.1712 32.8479 14.3414 32.8286 14.5227C32.8063 14.8342 32.8023 15.1467 32.8166 15.4587C32.8166 16.7588 32.8166 16.7588 34.1894 17.2448C34.3594 15.9927 34.5173 14.7447 34.6893 13.5016C34.7743 12.8816 34.8353 12.2615 34.9693 11.6545C35.114 10.9933 35.3934 10.369 35.7901 9.82058C36.1868 9.27217 36.6922 8.81139 37.2748 8.46701C37.8574 8.12263 38.5047 7.90203 39.1763 7.81898C39.848 7.73593 40.5295 7.79221 41.1784 7.9843C47.6776 10.0624 51.908 14.3767 53.2768 21.146C54.0057 24.7682 54.4067 28.4744 54.9416 32.1326C54.9542 32.3217 55.0115 32.5051 55.1086 32.6678C55.2058 32.8305 55.3401 32.9679 55.5005 33.0687C56.556 33.7939 57.4482 34.7319 58.1197 35.8224C58.7913 36.913 59.2274 38.1319 59.4 39.401C60.5214 45.1094 59.9796 51.0197 57.8392 56.429C57.5494 57.3247 57.0204 58.1242 56.3094 58.7411C55.5983 59.358 54.7322 59.7688 53.8047 59.9292C53.7535 59.9529 53.7046 59.9813 53.6588 60.0142H52.14C51.0581 59.6252 49.9773 59.2481 48.9074 58.8591C48.2875 58.6281 48.0445 58.2031 48.2265 57.704C48.4205 57.181 48.8944 57.004 49.5263 57.23C50.2922 57.51 51.0571 57.8301 51.835 58.0811C52.6557 58.3737 53.5583 58.3326 54.349 57.9666C55.1397 57.6006 55.7553 56.939 56.0634 56.124C58.3564 50.6635 58.8503 44.6142 57.4732 38.854C57.25 37.7978 56.7833 36.8084 56.1103 35.9644C55.4373 35.1205 54.5766 34.4453 53.5968 33.9927C52.3569 33.3727 51.0971 32.8017 49.8423 32.2186C49.6243 32.1527 49.4388 32.0078 49.3219 31.8124C49.205 31.6169 49.1653 31.3848 49.2104 31.1616C49.2382 31.0266 49.2978 30.9003 49.3843 30.793C49.4707 30.6858 49.5815 30.6007 49.7075 30.5448C49.8334 30.489 49.9708 30.464 50.1083 30.472C50.2459 30.4799 50.3795 30.5206 50.4982 30.5905C51.3491 30.9676 52.187 31.3686 53.1228 31.8056C52.9409 30.5656 52.7829 29.4355 52.5999 28.2934C52.223 25.8023 51.992 23.2862 51.4091 20.843C50.0602 15.1917 46.3667 11.6185 40.9595 9.7224C40.4971 9.56265 40.0051 9.50729 39.5188 9.56033C39.0325 9.61337 38.564 9.77348 38.1469 10.0292C37.7298 10.2848 37.3746 10.6297 37.1066 11.039C36.8386 11.4483 36.6646 11.912 36.5971 12.3965C36.3901 14.2436 36.1111 16.0667 35.8802 17.9139C35.8809 18.0197 35.904 18.1243 35.948 18.2206C35.9919 18.3169 36.0557 18.4029 36.1351 18.4729C37.6299 19.652 39.1607 20.806 40.6555 21.9971C40.7565 22.0964 40.8872 22.1599 41.0276 22.1779C41.1681 22.196 41.3106 22.1676 41.4334 22.0971C42.0305 21.8484 42.5672 21.4745 43.0074 21.0006C43.4476 20.5266 43.781 19.9638 43.9851 19.3499C44.2721 18.4635 44.4757 17.5521 44.593 16.6278C44.702 15.9467 44.9699 15.5707 45.5289 15.5947C45.6625 15.5957 45.7942 15.6276 45.9135 15.6879C46.0328 15.7482 46.1365 15.8354 46.2165 15.9425C46.2965 16.0497 46.3507 16.1739 46.3746 16.3054C46.3986 16.437 46.3918 16.5723 46.3547 16.7008C46.1478 18.0009 45.8548 19.2899 45.5888 20.639C46.3993 20.7819 47.232 20.7318 48.0195 20.493C48.2018 20.424 48.4009 20.4127 48.5899 20.4604C48.7789 20.5082 48.9487 20.6127 49.0764 20.76C49.1732 20.8733 49.239 21.0098 49.2672 21.1561C49.2954 21.3025 49.2851 21.4536 49.2374 21.5948C49.1896 21.736 49.1059 21.8623 48.9946 21.9614C48.8833 22.0605 48.7482 22.129 48.6024 22.1601C47.3671 22.5601 46.0431 22.5979 44.787 22.2691C44.6559 22.2181 44.5125 22.2082 44.3757 22.2408C44.2389 22.2733 44.1152 22.3466 44.0211 22.4511C43.5111 22.9011 42.9522 23.2772 42.4053 23.6912C43.1342 24.6152 43.9611 25.5383 44.629 26.5593C45.5889 28.0294 46.4637 29.5495 47.3146 31.0806C48.0624 32.6321 49.1655 33.9855 50.5342 35.0308C51.0912 35.3873 51.6861 35.6808 52.3079 35.9058C52.9758 36.1729 53.2918 36.5869 53.1218 37.0969C52.9398 37.6319 52.4659 37.797 51.761 37.5829C50.0115 36.9941 48.4819 35.888 47.3746 34.4108C47.2656 34.2768 47.1556 34.1308 47.0467 33.9977C47.0227 33.9737 46.9857 33.9617 47.0706 34.0097C46.2807 34.3988 45.5639 34.7628 44.786 35.1518C45.0391 36.0068 45.246 36.8748 45.4059 37.752C45.6488 39.308 45.8058 40.8871 45.9648 42.4522C45.9578 42.5936 46.0017 42.7327 46.0887 42.8444C46.1757 42.956 46.3 43.0326 46.4387 43.0602C47.7878 43.4797 49.0105 44.2302 49.9953 45.2433C50.9801 46.2564 51.6958 47.5 52.077 48.8606C52.101 48.9606 52.126 49.0546 52.15 49.1406C52.1901 49.2553 52.206 49.3771 52.1968 49.4983C52.1875 49.6195 52.1532 49.7375 52.0961 49.8448C52.039 49.9521 51.9603 50.0464 51.8649 50.1218C51.7696 50.1971 51.6596 50.2519 51.542 50.2826C51.4278 50.3105 51.309 50.3148 51.1931 50.2952C51.0771 50.2757 50.9663 50.2328 50.8674 50.1691C50.7685 50.1054 50.6837 50.0222 50.618 49.9247C50.5523 49.8271 50.5071 49.7172 50.4852 49.6016C50.1648 48.4079 49.5509 47.3132 48.6994 46.4174C47.959 45.6569 47.0464 45.0858 46.0388 44.7523C46.0028 44.9464 45.9778 45.1044 45.9538 45.2754C45.7838 46.6244 45.6378 47.9855 45.4539 49.3346C45.3539 50.0346 44.9309 50.3917 44.372 50.2826C43.8491 50.1826 43.6431 49.7356 43.7041 49.0426C43.8981 47.1425 44.0691 45.2424 44.251 43.3423C44.275 43.1112 44.251 42.8802 44.251 42.5282C43.9961 42.7352 43.8511 42.8442 43.7161 42.9532C42.649 43.8534 41.3184 44.3824 39.9246 44.4603C39.2687 44.4963 38.8678 44.2053 38.8188 43.6823C38.7698 43.1592 39.1187 42.7822 39.7666 42.7222C40.6019 42.6876 41.4122 42.4277 42.1117 41.9699C42.8112 41.5122 43.3739 40.8737 43.7401 40.1221C43.8725 39.8679 43.9314 39.5818 43.9101 39.296C43.4982 36.1897 42.3756 33.2203 40.6295 30.6186C40.5935 30.5695 40.5565 30.5336 40.4355 30.3995C40.1356 30.8736 39.8156 31.2996 39.5727 31.7726C38.9853 32.9652 38.6659 34.2718 38.6368 35.6008C38.6363 35.9225 38.5199 36.2332 38.3088 36.4759C38.1913 36.5663 38.0535 36.6269 37.9074 36.6523C37.7613 36.6777 37.6111 36.6673 37.4699 36.6219C37.3252 36.5399 37.2008 36.4262 37.1061 36.2894C37.0114 36.1526 36.9488 35.9962 36.923 35.8319C36.8213 33.4667 37.5957 31.1471 39.0977 29.3175C39.1977 29.1955 39.2917 29.0865 39.4977 28.8315L35.4152 24.7112C35.3518 24.7477 35.291 24.7884 35.2332 24.8332C35.1723 25.6113 35.0993 26.3763 35.0633 27.1544C34.6594 33.0775 34.626 39.0201 34.9633 44.9473C35.2792 49.6746 38.0009 52.7378 42.3023 54.4879C43.3022 54.8879 44.307 55.2409 45.3019 55.6299C45.9578 55.885 46.2018 56.311 46.0188 56.83C45.8488 57.33 45.3259 57.523 44.694 57.28C42.5942 56.454 40.3945 55.8459 38.5338 54.4799C36.8872 53.3742 35.5359 51.8826 34.5977 50.135C33.6594 48.3874 33.1626 46.4369 33.1505 44.4533C33.0775 39.6771 33.1015 34.8888 33.1625 30.1005C33.1865 28.0584 33.3815 26.0003 33.5145 23.9632C33.5444 23.8136 33.5237 23.6583 33.4554 23.5219C33.3871 23.3855 33.2752 23.2758 33.1375 23.2102C32.1897 22.7101 31.2658 22.1651 30.3059 21.6791C30.2045 21.634 30.0949 21.6107 29.984 21.6107C29.873 21.6107 29.7634 21.634 29.662 21.6791C28.7021 22.1651 27.7782 22.7001 26.8304 23.2102C26.69 23.2705 26.574 23.3765 26.5014 23.511C26.4288 23.6456 26.4038 23.8007 26.4304 23.9512C26.5394 25.2513 26.6124 26.5643 26.6854 27.8644C26.7214 28.5934 26.3934 29.0195 25.8345 29.0195C25.2996 29.0195 24.9716 28.6194 24.9346 27.9374C24.8856 27.1234 24.8347 26.2963 24.7887 25.4823C24.7767 25.2513 24.7397 25.0322 24.7157 24.8142C24.6577 24.7762 24.5969 24.7428 24.5337 24.7142C23.1849 26.0753 21.824 27.4364 20.4342 28.8345C21.4888 29.8975 22.2397 31.2234 22.6089 32.6747C22.8219 33.6638 22.9682 34.6661 23.0469 35.6748C23.0753 35.8008 23.0745 35.9317 23.0446 36.0573C23.0147 36.183 22.9565 36.3001 22.8744 36.3998C22.7923 36.4995 22.6885 36.5791 22.5709 36.6325C22.4533 36.6859 22.3251 36.7117 22.196 36.7079C21.6611 36.7079 21.3211 36.3559 21.3091 35.6988C21.3052 34.3865 21.0105 33.0914 20.4462 31.9066C20.1579 31.3716 19.8415 30.8522 19.4984 30.3505C18.2422 32.1144 17.3045 34.0846 16.7277 36.1719C16.4728 37.1559 16.2538 38.141 16.0718 39.137C16.0157 39.4775 16.0667 39.8269 16.2178 40.1371C16.5518 40.8267 17.0543 41.421 17.6787 41.8649C18.3031 42.3089 19.0294 42.5883 19.7903 42.6772C19.9243 42.7012 20.0573 42.7012 20.2033 42.7262C20.8112 42.8112 21.1631 43.1643 21.1391 43.6503C21.1151 44.1733 20.7022 44.5013 20.0703 44.4643C18.6767 44.3844 17.3453 43.8605 16.2708 42.9692C16.1023 42.8127 15.8953 42.7036 15.6709 42.6532C15.7319 43.8933 15.7559 45.1324 15.8529 46.3604C15.9258 47.2475 16.0958 48.1345 16.2418 49.0216C16.3508 49.7386 16.0958 50.2006 15.5489 50.2856C15.002 50.3706 14.613 50.0186 14.504 49.2856C14.2851 47.8025 14.1041 46.3204 13.8841 44.7763C13.0567 45.032 12.2941 45.4632 11.6484 46.0404C10.6228 46.9545 9.8736 48.1375 9.48572 49.4556C9.41238 49.746 9.22968 49.9968 8.97579 50.1556C8.83057 50.2127 8.6734 50.2326 8.51853 50.2136C8.36367 50.1945 8.216 50.1371 8.0889 50.0466C7.97812 49.9127 7.89704 49.7569 7.85102 49.5893C7.805 49.4217 7.79508 49.2463 7.82194 49.0746C8.13892 47.7178 8.7944 46.4634 9.72719 45.4284C10.66 44.3935 11.8397 43.6118 13.1562 43.1562C13.4143 43.1097 13.6453 42.9675 13.8031 42.758C13.9608 42.5485 14.0337 42.2871 14.0071 42.0262C14.0913 39.6836 14.4919 37.3631 15.1979 35.1278C14.432 34.7508 13.7032 34.3988 12.9383 34.0337C12.4033 34.5928 11.7964 35.2738 11.1275 35.8928C10.2804 36.6802 9.26114 37.2586 8.15091 37.5819C7.458 37.789 6.96006 37.5819 6.81408 37.0349C6.6681 36.5349 6.97206 36.0989 7.62797 35.8928C8.66374 35.5283 9.61451 34.9568 10.4224 34.213C11.2303 33.4693 11.8784 32.5689 12.3273 31.5666C13.7106 28.7415 15.4586 26.1102 17.5266 23.7402C17.54 23.7224 17.5483 23.7013 17.5506 23.6792C16.9427 23.2051 16.3598 22.7191 15.7509 22.2691C15.6816 22.2239 15.6035 22.1941 15.5218 22.1815C15.44 22.1689 15.3566 22.1739 15.2769 22.1961C14.0266 22.5447 12.7025 22.5277 11.4614 22.1471C10.8415 21.9891 10.5506 21.5471 10.6836 21.041C10.8165 20.535 11.2665 20.341 11.8984 20.433C12.7373 20.555 13.5872 20.627 14.511 20.725C14.2311 19.753 13.9641 18.9509 13.7701 18.1249C13.657 17.6093 13.5921 17.0844 13.5762 16.5568C13.5527 16.4356 13.556 16.3107 13.5858 16.1909C13.6156 16.0711 13.6712 15.9592 13.7487 15.8631C13.8262 15.767 13.9237 15.689 14.0345 15.6345C14.1453 15.58 14.2666 15.5504 14.3901 15.5477C14.937 15.5117 15.2899 15.8757 15.3259 16.5078C15.337 18.0406 15.8442 19.5287 16.7717 20.749C16.9919 21.022 17.2448 21.2668 17.5246 21.478C18.6425 22.3531 18.8005 22.2921 19.8693 21.4171C21.1212 20.396 22.445 19.4599 23.7338 18.4759C23.8262 18.4087 23.904 18.3234 23.9624 18.2253C24.0208 18.1271 24.0587 18.0181 24.0737 17.9048C23.8548 16.0457 23.5638 14.1976 23.3568 12.3385C23.2921 11.8629 23.1233 11.4074 22.8627 11.0044C22.602 10.6014 22.2557 10.2608 21.8486 10.0068C21.4414 9.75271 20.9832 9.59151 20.5067 9.53459C20.0302 9.47766 19.547 9.52642 19.0914 9.6774C13.1612 11.7435 9.37074 15.7417 8.30088 22.0501C7.79095 25.0642 7.377 28.1024 6.92807 31.1406C6.90407 31.3226 6.90407 31.5176 6.87908 31.7726C7.72996 31.3836 8.49486 31.0196 9.27275 30.6546C9.95366 30.3385 10.4396 30.4355 10.6826 30.9466C10.9255 31.4576 10.7066 31.9186 10.0387 32.2347C9.10278 32.6727 8.1919 33.1587 7.23203 33.5467C5.86746 34.07 4.6748 34.9617 3.78672 36.1225C2.89864 37.2834 2.34995 38.6679 2.2017 40.1221C1.24553 45.4548 1.81856 50.9494 3.85448 55.97C3.99865 56.4084 4.23221 56.8123 4.54039 57.1558C4.84856 57.4994 5.22466 57.7754 5.6449 57.9661C6.06513 58.1569 6.52036 58.2585 6.98183 58.2643C7.4433 58.2701 7.90095 58.1802 8.32587 58.0001C11.6184 56.785 14.936 55.6419 18.1686 54.2569C22.494 52.3978 24.9366 49.0676 25.0586 44.2793C25.1586 40.3791 25.1316 36.4649 25.1676 32.5637C25.1676 32.3447 25.1186 32.0636 25.2286 31.9436C25.4226 31.7126 25.7285 31.4336 25.9815 31.4336C26.3064 31.4995 26.5984 31.6762 26.8074 31.9336C26.9294 32.0556 26.9164 32.3337 26.9164 32.5537C26.8804 36.7099 27.0164 40.8791 26.7704 45.0234C26.6876 47.3596 25.9218 49.6202 24.5676 51.5255C23.2134 53.4308 21.3303 54.8971 19.1514 55.7429C15.7519 57.25 12.2014 58.4171 8.72583 59.7292C8.43387 59.8382 8.14291 59.9112 7.85094 60.0092H6.33215C6.20897 59.9612 6.08311 59.9205 5.9552 59.8872C5.17631 59.7308 4.44679 59.3883 3.82889 58.8888C3.21099 58.3894 2.72304 57.7479 2.40667 57.019C1.50362 54.9458 0.854988 52.7709 0.474942 50.5417C0.280968 49.4116 0.158986 48.2685 0.00100694 47.1265C7.07907e-06 45.9154 0 44.7003 0 43.4853ZM24.3507 20.26C24.2167 20.333 24.1317 20.382 24.0508 20.43C19.9001 23.2235 16.5556 27.0583 14.3521 31.5506C14.2726 31.6777 14.2209 31.8201 14.2003 31.9686C14.1797 32.1171 14.1907 32.2682 14.2326 32.4122C14.2745 32.5561 14.3463 32.6895 14.4433 32.8038C14.5404 32.918 14.6604 33.0104 14.7957 33.075C14.9309 33.1396 15.0783 33.1749 15.2281 33.1786C15.3779 33.1822 15.5268 33.1541 15.6651 33.0962C15.8033 33.0383 15.9277 32.9519 16.0302 32.8425C16.1327 32.7332 16.211 32.6034 16.2598 32.4617C18.1299 28.6643 20.8794 25.3684 24.2797 22.8481C24.3551 22.7951 24.418 22.7263 24.4641 22.6465C24.5102 22.5667 24.5384 22.4779 24.5467 22.3861C24.5207 21.7061 24.4357 21.013 24.3507 20.26ZM35.6632 20.248C35.6142 20.625 35.5782 20.916 35.5412 21.196C35.5315 21.5095 35.5031 21.822 35.4562 22.1321C35.4126 22.2893 35.4237 22.4566 35.4877 22.6067C35.5516 22.7568 35.6646 22.8807 35.8082 22.9581C39.0949 25.3991 41.7656 28.5748 43.6071 32.2316C43.7021 32.4467 43.8248 32.6484 43.9721 32.8317C44.1211 33.018 44.3333 33.1432 44.5684 33.1836C44.8035 33.2239 45.0453 33.1766 45.2479 33.0507C45.4669 32.936 45.6376 32.7467 45.7293 32.5171C45.821 32.2875 45.8276 32.0327 45.7478 31.7986C45.6948 31.6321 45.6212 31.4729 45.5289 31.3246C44.2772 28.825 42.6641 26.5235 40.7415 24.4942C39.2177 22.8881 37.5136 21.4633 35.6632 20.248ZM28.9441 14.4387C28.9441 15.0827 28.9201 15.6787 28.9441 16.2858C28.9862 16.7269 28.8817 17.1697 28.6467 17.5454C28.4117 17.9211 28.0593 18.2088 27.6443 18.3639C27.2073 18.5709 26.7694 18.8019 26.3564 19.0449C26.2225 19.1179 26.0405 19.2879 26.0565 19.4099C26.1055 20.091 26.1905 20.783 26.2755 21.5251C26.7854 21.245 27.1993 21.002 27.6363 20.784C28.0862 20.541 28.5361 20.334 28.9851 20.091C29.299 19.9079 29.6562 19.8124 30.0196 19.8145C30.383 19.8166 30.7391 19.9162 31.0508 20.103C31.5367 20.358 32.0227 20.603 32.5086 20.856C32.9086 21.063 33.3085 21.294 33.7724 21.549C33.8454 20.735 34.1494 19.921 33.8944 19.3369C33.6875 18.8509 32.8376 18.6369 32.2536 18.3369C31.8828 18.1779 31.5704 17.9079 31.3593 17.5641C31.1482 17.2203 31.0488 16.8194 31.0748 16.4168C31.0868 15.7727 31.0748 15.1407 31.0748 14.4727C30.3409 14.4387 29.685 14.4387 28.9441 14.4387ZM31.9817 3.86507V1.82595H28.0082V3.86807L31.9817 3.86507ZM27.9822 10.5655C27.9822 11.1975 27.9702 11.7925 27.9942 12.3886C27.9942 12.4736 28.1522 12.6436 28.2252 12.6436C29.465 12.6556 30.7039 12.6556 31.9797 12.6556V10.5655H27.9822ZM31.0318 5.69218H28.9781V8.71835H31.0318V5.69218Z" fill="#47BBC6"/>
</svg>
