<svg width="50" height="61" viewBox="0 0 50 61" fill="none" xmlns="http://www.w3.org/2000/svg">
<path d="M0.746094 35.7594C0.746094 49.1331 11.6157 60.0143 24.983 60.0143C28.1664 60.0165 31.3191 59.3906 34.2606 58.1725C37.2021 56.9543 39.8748 55.1678 42.1259 52.9151C44.3769 50.6624 46.1621 47.9877 47.3794 45.0439C48.5966 42.1002 49.222 38.9452 49.2199 35.7594C49.2195 35.493 49.1136 35.2375 48.9254 35.0491C48.7371 34.8607 48.4818 34.7547 48.2156 34.7544H1.75035C1.4841 34.7547 1.22885 34.8607 1.04058 35.0491C0.852312 35.2375 0.746406 35.493 0.746094 35.7594ZM47.1889 36.7644C47.1214 38.2726 46.9009 39.7701 46.5308 41.2337H3.43751C3.06532 39.7704 2.84401 38.2728 2.77706 36.7644H47.1889ZM3.66317 42.0614H46.304C44.945 46.6653 42.1342 50.7058 38.2914 53.5792C34.4486 56.4527 29.78 58.005 24.983 58.0043C14.912 58.0043 6.3853 51.2672 3.66317 42.0614Z" fill="#47BBC6"/>
<path d="M31.971 53.547C34.2374 52.569 36.2521 51.0885 37.8631 49.2172C37.9347 49.134 38.0364 49.0826 38.1458 49.0744C38.2553 49.0662 38.3635 49.1018 38.4467 49.1735C38.5299 49.2452 38.5813 49.3469 38.5894 49.4565C38.5976 49.566 38.562 49.6743 38.4904 49.7576C36.795 51.7242 34.6758 53.2803 32.2924 54.3085C32.2408 54.3303 32.1854 54.3416 32.1293 54.3416C32.0339 54.3418 31.9414 54.309 31.8674 54.2488C31.7934 54.1885 31.7425 54.1045 31.7233 54.011C31.7041 53.9175 31.7178 53.8202 31.7621 53.7356C31.8064 53.6511 31.8785 53.5845 31.9663 53.547H31.971Z" fill="#47BBC6"/>
<path d="M45.4553 13.0254C47.3988 10.9716 46.9014 7.94121 46.879 7.82297C46.8487 7.64798 46.7726 7.48414 46.6585 7.34814C46.5443 7.21215 46.3962 7.10886 46.2292 7.04878C46.0622 6.9887 45.8822 6.97399 45.7077 7.00614C45.5332 7.03828 45.3702 7.11615 45.2356 7.23179L40.8263 11.0165L42.1625 4.38585C42.1982 4.20898 42.1856 4.02575 42.1261 3.85543C42.0666 3.6851 41.9623 3.53394 41.8243 3.41784C41.6863 3.30173 41.5196 3.22495 41.3417 3.19555C41.1638 3.16616 40.9813 3.18524 40.8133 3.25079C40.6809 3.30163 37.5488 4.55138 36.6781 7.54157C36.2788 8.90601 36.4158 10.3721 37.0822 11.9163C36.2217 11.7814 35.3418 11.8457 34.5101 12.1043C33.0604 12.5772 31.9498 13.6697 31.2102 15.3475C30.9854 15.8728 30.794 16.4119 30.6372 16.9614C30.6372 16.9733 30.6301 16.9863 30.6266 16.9981C29.5219 20.7745 28.8862 27.1073 29.0067 30.4368C29.0242 30.9843 29.1964 31.5156 29.5034 31.9691C29.8104 32.4226 30.2396 32.7797 30.7412 32.9989C31.1132 33.1642 31.5156 33.25 31.9226 33.2508C32.611 33.2501 33.2765 33.004 33.8 32.5567C35.3253 31.2632 37.4189 29.0889 39.2655 26.8814C40.6963 25.1694 41.8719 23.5708 42.6646 22.2584C42.9597 21.7791 43.2241 21.2815 43.4562 20.7686C44.197 19.092 44.2549 17.5361 43.6287 16.1444C43.3639 15.5663 42.9992 15.0395 42.5512 14.5884C43.7433 14.3283 44.7145 13.8081 45.4553 13.0254ZM38.7658 14.5624L38.7965 14.5778L38.8319 14.5955L38.8638 14.6109H38.8733L38.8957 14.6192L38.9359 14.6345L38.9572 14.6428C38.9973 14.6558 41.0838 15.3593 41.8034 16.978C42.1862 17.8376 42.1271 18.8118 41.6214 19.9563C41.4748 20.2801 41.3112 20.5958 41.1311 20.9022L39.4593 20.0095C39.4113 19.982 39.3583 19.9644 39.3034 19.9578C39.2484 19.9512 39.1928 19.9556 39.1396 19.9709C39.0864 19.9862 39.0369 20.012 38.9939 20.0468C38.9508 20.0816 38.9152 20.1247 38.8892 20.1735C38.8631 20.2223 38.847 20.2758 38.842 20.331C38.837 20.3861 38.843 20.4417 38.8598 20.4944C38.8766 20.5471 38.9038 20.596 38.9398 20.638C38.9758 20.68 39.0199 20.7144 39.0694 20.7391L40.701 21.6105C39.822 22.9536 38.8617 24.2416 37.8253 25.4673L34.6105 23.9858C34.5109 23.9399 34.3971 23.9354 34.2941 23.9735C34.1912 24.0115 34.1076 24.0889 34.0617 24.1886C34.0158 24.2883 34.0114 24.4022 34.0494 24.5052C34.0874 24.6082 34.1647 24.6919 34.2643 24.7378L37.2724 26.1306C35.6183 28.0661 33.8248 29.9071 32.5039 31.0268C32.3743 31.1371 32.2163 31.2087 32.0479 31.2333C31.8795 31.2578 31.7076 31.2344 31.5519 31.1656C31.3963 31.0969 31.2631 30.9856 31.1678 30.8445C31.0724 30.7035 31.0187 30.5384 31.0129 30.3682C30.903 27.3425 31.4465 21.7216 32.4082 18.0906L35.6159 19.5319C35.669 19.556 35.7266 19.5685 35.7849 19.5685C35.8794 19.5685 35.9711 19.5361 36.0447 19.4766C36.1183 19.4172 36.1692 19.3343 36.1891 19.2418C36.209 19.1493 36.1967 19.0527 36.1541 18.9683C36.1115 18.8838 36.0412 18.8165 35.955 18.7775L32.6374 17.2866C32.7525 16.9065 32.8886 16.5331 33.045 16.1681C33.5507 15.0235 34.2265 14.3236 35.1221 14.028C36.8116 13.464 38.7457 14.5435 38.7658 14.5565V14.5624ZM39.7204 6.34384L38.8107 10.8534C38.435 9.85781 38.3629 8.94503 38.5992 8.12329C38.81 7.44007 39.1967 6.82435 39.7204 6.33793V6.34384ZM44.7464 10.3024C44.6042 10.8063 44.3442 11.2691 43.9879 11.6526C43.5153 12.1516 42.8564 12.483 42.0113 12.647L44.7464 10.3024Z" fill="#47BBC6"/>
<path d="M18.9328 17.9261C17.4489 14.2607 14.0817 11.8476 10.6495 11.8476H10.5538C10.5431 11.8192 10.5313 11.7896 10.5195 11.7612C9.84488 10.1095 7.80801 9.37169 5.97081 10.1166C5.1251 10.4503 4.42682 11.0761 4.00246 11.8807C3.7903 12.2741 3.66691 12.7094 3.64099 13.1557C3.61506 13.6021 3.68723 14.0487 3.85242 14.4641C3.98995 14.8054 4.19034 15.1179 4.44316 15.3852C2.96749 17.8102 2.756 21.0806 3.93748 24.0081C5.4226 27.6734 8.74374 30.0819 12.1937 30.0878C12.7301 30.971 13.7379 31.483 14.8272 31.483C15.2891 31.4822 15.7465 31.3919 16.1741 31.217C17.8612 30.5336 18.732 28.734 18.1152 27.2159C18.0975 27.1745 18.0798 27.1331 18.0609 27.0917C19.8709 24.6241 20.2254 21.1172 18.9328 17.9261ZM16.0677 26.3586C15.8952 26.5483 15.8019 26.7969 15.8069 27.0534C15.812 27.3098 15.915 27.5546 16.0949 27.7373C16.1621 27.805 16.2151 27.8853 16.2509 27.9737C16.4482 28.4597 16.0666 29.0934 15.4238 29.3571C14.7811 29.6208 14.0592 29.4316 13.8619 28.9445C13.8487 28.9078 13.838 28.8703 13.83 28.8321C13.7763 28.5924 13.6367 28.3806 13.4374 28.237C13.2382 28.0934 12.9932 28.0279 12.749 28.053C9.91341 28.3403 7.0625 26.3669 5.80304 23.2561C4.73971 20.636 5.06107 17.7085 6.61708 15.799C6.71376 15.6804 6.78211 15.5413 6.81689 15.3922C6.85168 15.2432 6.85199 15.0882 6.8178 14.939C6.7836 14.7898 6.71582 14.6504 6.61961 14.5314C6.52339 14.4125 6.4013 14.317 6.26263 14.2525C6.01921 14.1478 5.82484 13.9541 5.71915 13.7109C5.66632 13.5632 5.64563 13.4059 5.65847 13.2495C5.67131 13.0931 5.71737 12.9412 5.79359 12.8041C5.99684 12.4244 6.32983 12.1306 6.73168 11.9764C7.528 11.6525 8.41175 11.8984 8.66104 12.512C8.70838 12.6332 8.73049 12.7627 8.72602 12.8928C8.72212 13.0395 8.75042 13.1853 8.80894 13.3199C8.86747 13.4546 8.95478 13.5747 9.06473 13.6719C9.17468 13.769 9.30459 13.8409 9.4453 13.8824C9.58602 13.9239 9.73411 13.934 9.87915 13.912C10.1403 13.8722 10.4042 13.8525 10.6684 13.8528C13.2936 13.8528 15.9011 15.773 17.0779 18.6769C18.1885 21.4388 17.7939 24.4527 16.0677 26.3586Z" fill="#47BBC6"/>
<path d="M14.8045 25.0462C14.748 25.0745 14.6857 25.0891 14.6226 25.0888C14.5294 25.0884 14.439 25.0565 14.3662 24.9982C14.2934 24.94 14.2424 24.8588 14.2215 24.7679C14.2006 24.677 14.2109 24.5817 14.2509 24.4974C14.2909 24.4132 14.3582 24.3449 14.4418 24.3037C15.0009 24.0275 15.4277 23.5407 15.6286 22.9499C15.8295 22.3592 15.7881 21.7129 15.5134 21.1527C15.4672 21.0544 15.4616 20.9418 15.4977 20.8393C15.5338 20.7368 15.6087 20.6526 15.7063 20.6049C15.8039 20.5573 15.9163 20.5499 16.0193 20.5845C16.1222 20.6191 16.2075 20.6928 16.2565 20.7898C16.44 21.1653 16.5477 21.5732 16.5735 21.9904C16.5993 22.4076 16.5427 22.8257 16.407 23.221C16.2713 23.6163 16.0591 23.9809 15.7825 24.2941C15.5059 24.6073 15.1704 24.8629 14.7951 25.0462H14.8045Z" fill="#47BBC6"/>
<path d="M24.0352 31.3009C24.0349 31.6787 24.1467 32.048 24.3562 32.3622C24.5658 32.6764 24.8638 32.9213 25.2125 33.066C25.5612 33.2107 25.945 33.2486 26.3152 33.175C26.6855 33.1013 27.0255 32.9194 27.2925 32.6523C27.5594 32.3852 27.7411 32.0448 27.8147 31.6743C27.8883 31.3038 27.8504 30.9198 27.7059 30.5708C27.5613 30.2218 27.3166 29.9236 27.0026 29.7139C26.6886 29.5042 26.3196 29.3923 25.9421 29.3926C25.4366 29.3935 24.9521 29.5949 24.5947 29.9525C24.2373 30.3102 24.0361 30.7951 24.0352 31.3009ZM24.8622 31.3009C24.8622 31.0869 24.9256 30.8777 25.0445 30.6997C25.1633 30.5218 25.3322 30.3831 25.5298 30.3013C25.7274 30.2194 25.9448 30.1981 26.1546 30.2399C26.3643 30.2818 26.5569 30.3849 26.7081 30.5363C26.8592 30.6878 26.9621 30.8806 27.0037 31.0906C27.0453 31.3005 27.0237 31.5181 26.9417 31.7157C26.8597 31.9134 26.7209 32.0823 26.543 32.201C26.3651 32.3197 26.1559 32.383 25.9421 32.3828C25.6556 32.3825 25.3809 32.2683 25.1784 32.0655C24.9759 31.8626 24.8622 31.5876 24.8622 31.3009Z" fill="#47BBC6"/>
<path d="M16.3276 6.97602C16.3276 6.53509 16.197 6.10405 15.9523 5.73739C15.7075 5.37073 15.3597 5.08491 14.9526 4.91606C14.5456 4.74722 14.0977 4.70292 13.6655 4.78877C13.2333 4.87462 12.8363 5.08677 12.5246 5.39839C12.2129 5.71002 12.0004 6.10713 11.9142 6.53954C11.828 6.97195 11.8717 7.42024 12.04 7.82774C12.2083 8.23525 12.4936 8.58368 12.8597 8.82899C13.2258 9.07431 13.6564 9.20549 14.097 9.20595C14.6882 9.20595 15.2552 8.97109 15.6735 8.55297C16.0917 8.13484 16.327 7.56765 16.3276 6.97602ZM15.5006 6.97602C15.5008 7.25332 15.4189 7.52446 15.2652 7.75516C15.1115 7.98587 14.8928 8.16579 14.637 8.27217C14.3811 8.37856 14.0994 8.40664 13.8276 8.35285C13.5558 8.29907 13.306 8.16585 13.1098 7.97002C12.9136 7.77419 12.7799 7.52455 12.7254 7.25266C12.671 6.98077 12.6983 6.69883 12.804 6.44249C12.9097 6.18614 13.0889 5.96691 13.319 5.81249C13.5492 5.65806 13.8199 5.5754 14.097 5.57493C14.4687 5.57461 14.8254 5.72201 15.0886 5.98474C15.3518 6.24746 15.5 6.60401 15.5006 6.97602Z" fill="#47BBC6"/>
<path d="M48.5133 25.4281C48.5135 24.9522 48.3727 24.487 48.1086 24.0913C47.8445 23.6956 47.4691 23.3871 47.0298 23.205C46.5905 23.0229 46.1071 22.9754 45.6408 23.0683C45.1744 23.1612 44.7461 23.3906 44.4101 23.7272C44.074 24.0638 43.8453 24.4927 43.7529 24.9595C43.6604 25.4262 43.7085 25.91 43.8909 26.3494C44.0733 26.7888 44.3818 27.1643 44.7775 27.4282C45.1732 27.692 45.6382 27.8325 46.1137 27.8318C46.75 27.8302 47.3598 27.5764 47.8096 27.1259C48.2593 26.6754 48.5124 26.0649 48.5133 25.4281ZM47.6863 25.4281C47.6863 25.7402 47.5937 26.0453 47.4204 26.3047C47.247 26.5642 47.0007 26.7663 46.7125 26.8856C46.4243 27.0049 46.1072 27.0359 45.8014 26.9748C45.4955 26.9136 45.2147 26.763 44.9944 26.5421C44.7742 26.3212 44.6243 26.0398 44.5639 25.7336C44.5035 25.4274 44.5352 25.1102 44.6551 24.822C44.7749 24.5339 44.9775 24.2878 45.2371 24.1149C45.4968 23.942 45.8018 23.8501 46.1137 23.8508C46.531 23.8521 46.9308 24.0187 47.2255 24.3144C47.5203 24.61 47.6859 25.0105 47.6863 25.4281Z" fill="#47BBC6"/>
<path d="M3.75391 30.4791C3.75367 30.7441 3.83198 31.0032 3.97893 31.2236C4.12588 31.4441 4.33486 31.616 4.57944 31.7175C4.82402 31.8191 5.09321 31.8458 5.35295 31.7943C5.61269 31.7427 5.85132 31.6152 6.03865 31.4279C6.22598 31.2406 6.35358 31.0019 6.40533 30.742C6.45708 30.4821 6.43064 30.2127 6.32936 29.9679C6.22807 29.723 6.0565 29.5137 5.83634 29.3665C5.61618 29.2192 5.35733 29.1406 5.09252 29.1406C4.7378 29.1409 4.39768 29.282 4.14674 29.5329C3.8958 29.7838 3.75453 30.1241 3.75391 30.4791ZM4.58094 30.4791C4.58094 30.3778 4.61095 30.2788 4.66716 30.1946C4.72337 30.1104 4.80327 30.0448 4.89675 30.0061C4.99023 29.9673 5.09309 29.9572 5.19233 29.9769C5.29156 29.9967 5.38272 30.0454 5.45427 30.117C5.52581 30.1886 5.57453 30.2799 5.59427 30.3792C5.61401 30.4785 5.60388 30.5814 5.56516 30.675C5.52644 30.7685 5.46087 30.8485 5.37674 30.9047C5.29261 30.961 5.1937 30.991 5.09252 30.991C4.95684 30.991 4.82672 30.9371 4.73078 30.8411C4.63484 30.7451 4.58094 30.6148 4.58094 30.4791Z" fill="#47BBC6"/>
<path d="M34.228 3.87819C34.228 3.61319 34.1495 3.35414 34.0023 3.13382C33.8552 2.91349 33.6461 2.74179 33.4014 2.64043C33.1567 2.53908 32.8875 2.51262 32.6278 2.5644C32.3681 2.61619 32.1296 2.74389 31.9424 2.93136C31.7553 3.11882 31.6279 3.35763 31.5764 3.61757C31.5248 3.8775 31.5515 4.14689 31.653 4.39166C31.7545 4.63642 31.9263 4.84555 32.1466 4.99261C32.3669 5.13967 32.6258 5.21803 32.8906 5.2178C33.2453 5.21717 33.5853 5.0758 33.836 4.82467C34.0867 4.57355 34.2277 4.23317 34.228 3.87819ZM33.401 3.87819C33.401 3.97949 33.3709 4.07852 33.3147 4.16274C33.2584 4.24696 33.1784 4.31258 33.0849 4.35129C32.9914 4.39 32.8884 4.40007 32.7892 4.38022C32.6899 4.36037 32.5987 4.3115 32.5272 4.23978C32.4557 4.16806 32.4071 4.07673 32.3875 3.97734C32.3679 3.87795 32.3782 3.77498 32.4171 3.68145C32.456 3.58792 32.5218 3.50804 32.606 3.45193C32.6903 3.39582 32.7893 3.36599 32.8906 3.36623C33.0261 3.36654 33.1559 3.42062 33.2516 3.51659C33.3472 3.61257 33.401 3.74261 33.401 3.87819Z" fill="#47BBC6"/>
<path d="M26.2204 18.4699C28.0376 16.065 30.0213 12.3701 29.1009 8.43283C28.3377 5.14114 25.69 2.34013 21.2346 0.106657C21.1147 0.0468188 20.984 0.0115849 20.8502 0.00302684C20.7164 -0.00553118 20.5823 0.0127594 20.4557 0.0568233C20.3292 0.100887 20.2126 0.169835 20.1131 0.259612C20.0135 0.34939 19.9329 0.458185 19.8759 0.579601C18.5763 3.34632 17.4302 6.08112 17.7492 9.11387C18.1108 12.5876 20.3816 15.78 24.6916 18.8742C24.7736 18.933 24.864 18.9788 24.9598 19.0102C24.8157 21.207 24.3821 23.087 23.6897 24.494C23.6656 24.5427 23.6514 24.5958 23.6478 24.65C23.6442 24.7043 23.6514 24.7587 23.6688 24.8102C23.6863 24.8617 23.7137 24.9093 23.7495 24.9502C23.7853 24.9911 23.8288 25.0245 23.8776 25.0485C23.9347 25.0762 23.9972 25.0908 24.0607 25.0911C24.1379 25.091 24.2134 25.0694 24.279 25.0286C24.3445 24.9879 24.3974 24.9297 24.4317 24.8605C25.1867 23.3235 25.6533 21.2863 25.7963 18.9168C25.902 18.8534 25.995 18.7708 26.0704 18.6732C26.12 18.6094 26.172 18.542 26.224 18.4722L26.2204 18.4699ZM25.7786 15.5234C25.5931 12.6515 24.9834 9.81383 24.0784 7.75061C24.0573 7.69988 24.0262 7.65387 23.9871 7.61527C23.948 7.57667 23.9016 7.54626 23.8506 7.52581C23.7996 7.50536 23.7451 7.49528 23.6902 7.49615C23.6353 7.49703 23.5811 7.50885 23.5308 7.53092C23.4804 7.55299 23.435 7.58487 23.3972 7.62469C23.3593 7.66452 23.3298 7.7115 23.3102 7.76288C23.2907 7.81426 23.2816 7.86902 23.2835 7.92396C23.2854 7.9789 23.2981 8.03291 23.3211 8.08285C24.297 10.3104 24.9149 13.4815 25.0012 16.5958C21.7415 14.0703 20.0189 11.5495 19.7436 8.90341C19.5156 6.70659 20.2741 4.55942 21.2523 2.38743C24.5924 4.24019 26.5749 6.424 27.1479 8.8904C27.7032 11.2717 26.8821 13.6258 25.7786 15.5234Z" fill="#47BBC6"/>
</svg>
