<svg width="60" height="61" viewBox="0 0 60 61" fill="none" xmlns="http://www.w3.org/2000/svg">
<path d="M0 22.3628C0.0666522 22.2258 0.134285 22.0888 0.196037 21.9437C0.403757 21.3804 0.769987 20.8924 1.24871 20.5409C1.72742 20.1893 2.29727 19.9901 2.88663 19.9681C3.48619 19.9486 4.07739 20.1157 4.58175 20.4471C5.08611 20.7785 5.47979 21.2586 5.71052 21.8237C5.87813 22.2168 6.02908 22.6239 6.18787 23.047C6.50201 22.6647 6.90041 22.3638 7.35045 22.1689C7.8005 21.974 8.28938 21.8906 8.77706 21.9257C9.26475 21.9607 9.73736 22.1131 10.1562 22.3705C10.5751 22.6278 10.9282 22.9827 11.1868 23.4061C11.6343 23.1651 12.1336 23.0417 12.6396 23.047C13.1456 23.0523 13.6423 23.1862 14.0849 23.4366C14.5275 23.687 14.9019 24.046 15.1744 24.4811C15.4469 24.9163 15.6088 25.4139 15.6456 25.9289H17.9833C18.2353 24.7826 18.4862 23.6112 18.7675 22.3538C18.1225 22.4989 17.5609 22.6449 17.0032 22.764C16.6796 22.8427 16.3441 22.8556 16.0156 22.8019C15.6872 22.7482 15.3724 22.629 15.0891 22.4511C14.8058 22.2733 14.5597 22.0401 14.3647 21.7651C14.1697 21.4901 14.0298 21.1786 13.9529 20.8484C13.7019 19.8651 13.4755 18.8818 13.2569 17.8895C13.0981 17.1893 13.3236 16.7261 13.8607 16.6071C14.4135 16.4871 14.8076 16.7782 14.9752 17.4624C15.1928 18.3686 15.3859 19.2839 15.6035 20.1902C15.7799 20.9254 16.1151 21.1305 16.8434 20.9594C20.2204 20.1472 23.5978 19.3319 26.9755 18.5137C27.7381 18.3336 27.939 17.9915 27.7802 17.2223C27.6881 16.7952 27.5793 16.376 27.4617 15.8969C26.8237 16.2789 26.0959 16.4767 25.3563 16.4691C24.6166 16.4615 23.8929 16.2489 23.2626 15.8539C22.7812 15.5647 22.3655 15.1744 22.0432 14.7087C21.721 14.2431 21.4994 13.7128 21.3934 13.1531C20.8484 10.6043 22.4716 8.70574 25.667 8.16658C25.5494 7.66643 25.4572 7.15728 25.3151 6.66613C25.2953 6.5519 25.2515 6.44343 25.1865 6.34822C25.1216 6.25301 25.0372 6.17334 24.9391 6.11473C24.841 6.05612 24.7316 6.01997 24.6185 6.00878C24.5054 5.9976 24.3912 6.01164 24.2839 6.04995C23.2949 6.28102 22.3059 6.52009 21.3258 6.76816C21.1335 6.84577 20.9217 6.85769 20.7222 6.80215C20.5227 6.74661 20.3462 6.62659 20.2191 6.46007C20.1087 6.29549 20.0517 6.09964 20.0563 5.90021C20.0608 5.70077 20.1267 5.50786 20.2446 5.34874C20.4778 4.95752 20.5924 4.50468 20.574 4.04717C20.5556 3.58966 20.405 3.14792 20.1413 2.7775C19.8775 2.40708 19.5123 2.12452 19.0916 1.96537C18.6709 1.80622 18.2135 1.77758 17.7769 1.88305C17.3402 1.98852 16.9439 2.22339 16.6378 2.55812C16.3316 2.89286 16.1293 3.3125 16.0562 3.76429C15.9832 4.21607 16.0427 4.67981 16.2272 5.09718C16.4117 5.51455 16.7131 5.86692 17.0933 6.10996C17.4707 6.37504 17.7638 6.71715 17.5707 7.14527C17.3966 7.47935 17.107 7.73537 16.7581 7.86349C15.8446 8.14558 14.9056 8.31662 13.9754 8.5567C13.2128 8.74475 13.0285 9.07885 13.204 9.86509C13.4637 11.0114 13.7323 12.1488 13.9881 13.2951C14.0296 13.4129 14.0467 13.5381 14.0384 13.6629C14.0301 13.7877 13.9965 13.9094 13.9398 14.0204C13.883 14.1313 13.8044 14.229 13.7088 14.3073C13.6132 14.3856 13.5027 14.4429 13.3843 14.4755C13.2658 14.5065 13.1422 14.5117 13.0216 14.4908C12.901 14.4698 12.786 14.4231 12.6843 14.3537C12.5826 14.2843 12.4963 14.1938 12.4311 14.0881C12.366 13.9824 12.3234 13.8639 12.3061 13.7403C11.9964 12.4659 11.669 11.1915 11.4093 9.9091C11.2819 9.24553 11.4128 8.55744 11.7742 7.9907C12.1356 7.42395 12.6991 7.02313 13.3451 6.87319C13.848 6.73615 14.3596 6.62512 14.9134 6.48808C13.9244 4.5555 13.9832 2.74196 15.5084 1.20249C16.0427 0.620373 16.743 0.224541 17.5099 0.0710474C18.2769 -0.0824457 19.0718 0.0141794 19.782 0.347238C20.6216 0.673878 21.3293 1.27897 21.7914 2.06536C22.2536 2.85175 22.4434 3.77383 22.3304 4.68354C22.8999 4.5555 23.4449 4.41846 23.9899 4.30742C24.6147 4.15956 25.2713 4.2623 25.8241 4.59441C26.3768 4.92653 26.7834 5.46264 26.9598 6.09196C27.2284 7.00723 27.4372 7.93951 27.6214 8.87179C27.66 9.05838 27.6518 9.2519 27.5975 9.43437C27.5432 9.61683 27.4445 9.78232 27.3107 9.91546C27.1769 10.0486 27.0124 10.1451 26.8323 10.1959C26.6521 10.2467 26.4624 10.2503 26.2806 10.2062C25.9769 10.137 25.6691 10.0886 25.3592 10.0611C24.8763 10.0449 24.4015 10.191 24.0079 10.4769C23.6142 10.7628 23.3234 11.1727 23.1803 11.6436C23.0308 12.1096 23.0295 12.6119 23.1767 13.0786C23.324 13.5453 23.6121 13.9526 23.9998 14.242C24.3876 14.5315 24.8551 14.6884 25.3356 14.6903C25.816 14.6922 26.2847 14.5389 26.6746 14.2524C28.1076 13.1921 28.6693 13.4142 29.0878 15.2107C29.1721 15.5618 29.2466 15.9039 29.3309 16.254C29.5444 16.7556 29.6324 17.3035 29.5871 17.8484C29.5417 18.3934 29.3645 18.9182 29.0711 19.3759C30.3111 19.658 31.5431 19.9491 32.7752 20.2312C33.1505 20.2781 33.5109 20.4089 33.8309 20.6143C34.151 20.8197 34.4227 21.0945 34.6267 21.4193C34.8308 21.7441 34.9621 22.1108 35.0115 22.4932C35.0608 22.8757 35.0268 23.2646 34.912 23.6322C34.8199 24.0774 34.7277 24.5215 34.6268 25.0096C36.7557 24.9836 38.3309 25.8099 39.018 27.9105C39.2844 28.638 39.326 29.4313 39.1372 30.1837C38.9485 30.9361 38.5385 31.6114 37.9623 32.1188C37.3094 32.7744 36.4565 33.1827 35.5451 33.276C34.6336 33.3693 33.7183 33.1421 32.9507 32.6319C32.8252 33.1711 32.7243 33.6672 32.5988 34.1624C32.5328 34.5215 32.3942 34.8626 32.1918 35.1639C31.9895 35.4652 31.7277 35.7202 31.4233 35.9125C31.119 36.1048 30.7786 36.2302 30.4241 36.2808C30.0695 36.3313 29.7086 36.3058 29.3642 36.206C28.6604 36.0519 27.9567 35.8899 27.2519 35.7268C26.0453 35.4358 25.7601 34.5555 26.556 33.5802C26.8192 33.281 27.0018 32.9171 27.0858 32.5243C27.1697 32.1314 27.1523 31.723 27.035 31.3391C26.9177 30.9552 26.7048 30.609 26.4169 30.3344C26.1291 30.0598 25.7763 29.8662 25.3931 29.7727C25.0099 29.6791 24.6094 29.6888 24.231 29.8007C23.8525 29.9127 23.5091 30.123 23.2343 30.4112C22.9595 30.6994 22.7628 31.0555 22.6634 31.4446C22.5641 31.8337 22.5655 32.2425 22.6676 32.6309C22.7589 32.8399 22.7982 33.0687 22.7821 33.2969C22.766 33.5251 22.6951 33.7458 22.5755 33.9393C22.4528 34.1214 22.2795 34.2619 22.0779 34.3426C21.8763 34.4234 21.6557 34.4407 21.4444 34.3924C20.8563 34.2724 20.2681 34.1354 19.534 33.9733C19.534 34.6145 19.5173 35.1967 19.5507 35.7739C19.5595 35.8939 19.7604 36.0389 19.9025 36.107C21.1013 36.7311 22.3079 37.3383 23.5145 37.9455C24.5972 38.4727 25.4869 39.3385 26.0541 40.4172C26.557 41.3575 27.0598 42.3078 27.5715 43.2391C27.951 43.9034 28.1916 44.6407 28.2782 45.4045C28.3647 46.1684 28.2953 46.9423 28.0743 47.6774C27.7176 48.8407 27.6005 50.0668 27.7302 51.2785C27.8145 51.9627 27.496 52.4078 26.9588 52.4669C26.4217 52.5259 26.062 52.1158 25.9865 51.4406C25.8243 50.0727 25.9472 48.6853 26.3472 47.3693C26.5306 46.7996 26.5897 46.1959 26.5203 45.6004C26.4508 45.0049 26.2546 44.4322 25.9453 43.9223C25.4758 43.1011 25.024 42.2548 24.5956 41.4075C24.1646 40.5491 23.4616 39.8647 22.601 39.466C21.1591 38.7557 19.7428 38.0125 18.3019 37.2933C17.0035 36.6455 15.822 35.778 14.8076 34.7275C13.4755 33.3501 12.1425 31.9817 10.7888 30.6263C10.6145 30.4289 10.4026 30.2699 10.1659 30.1591C9.9293 30.0483 9.67297 29.9881 9.41268 29.982C9.15238 29.9759 8.89362 30.0241 8.65225 30.1238C8.41088 30.2234 8.19201 30.3723 8.00905 30.5613C7.82608 30.7504 7.68289 30.9755 7.58826 31.2231C7.49363 31.4706 7.44955 31.7353 7.45873 32.0008C7.46791 32.2663 7.53015 32.5272 7.64163 32.7673C7.75312 33.0074 7.9115 33.2217 8.10706 33.3971C9.68221 35.0216 11.3171 36.6041 12.8501 38.2716C13.7544 39.2875 14.6076 40.3495 15.4065 41.4536C15.8505 42.0537 15.7583 42.5909 15.2722 42.907C14.8115 43.2071 14.3753 43.018 13.9479 42.4539C13.152 41.4185 12.3728 40.3752 11.4926 39.4259C10.0223 37.8355 8.46679 36.325 6.95045 34.7646C6.24444 34.1305 5.80258 33.2451 5.7153 32.2894C5.62802 31.3338 5.90192 30.3803 6.48094 29.624C6.52782 29.5359 6.55715 29.4392 6.56724 29.3394C6.57734 29.2397 6.568 29.1389 6.53976 29.0428C5.75561 26.9222 4.95579 24.8096 4.15106 22.6969C4.10904 22.5322 4.03437 22.378 3.93167 22.2438C3.82896 22.1097 3.7004 21.9985 3.55392 21.917C3.40744 21.8356 3.24615 21.7857 3.08002 21.7703C2.91389 21.755 2.74644 21.7746 2.58801 21.8279C2.42959 21.8812 2.28356 21.967 2.15893 22.0802C2.0343 22.1934 1.93373 22.3314 1.86343 22.4858C1.79313 22.6401 1.75459 22.8076 1.75018 22.9778C1.74578 23.1479 1.77561 23.3172 1.83784 23.4752C3.18722 28.2099 4.54215 32.9447 5.90264 37.6794C6.13239 38.426 6.5725 39.087 7.16805 39.58C10.5703 42.5989 13.9558 45.6348 17.3619 48.6537C17.5665 48.8178 17.7371 49.0218 17.8636 49.2538C17.9902 49.4858 18.0702 49.7412 18.099 50.0051C18.4597 52.964 18.8616 55.9239 19.239 58.8828C19.2692 59.0044 19.2742 59.1311 19.2537 59.2548C19.2332 59.3785 19.1875 59.4965 19.1197 59.6011C19.0518 59.7057 18.9633 59.7948 18.8598 59.8624C18.7563 59.9301 18.64 59.975 18.5185 59.9941C18.3969 60.0116 18.273 60.0027 18.1549 59.9681C18.0369 59.9335 17.9273 59.874 17.8332 59.7933C17.7392 59.7126 17.6629 59.6127 17.6092 59.4999C17.5555 59.3872 17.5257 59.2641 17.5217 59.1389C17.2119 56.8722 16.9179 54.6065 16.617 52.3308C16.5337 51.6976 16.4827 51.0654 16.3572 50.4403C16.2796 50.1836 16.1312 49.9551 15.9299 49.7821C12.6626 46.8478 9.38587 43.923 6.09965 41.0074C5.13003 40.1684 4.42967 39.0515 4.08931 37.8015C2.79057 33.1231 1.44282 28.4537 0.0999757 23.7753C0.0723718 23.7016 0.0396162 23.6301 0.00195928 23.5612L0 22.3628ZM28.3762 34.1144C28.879 34.2344 29.323 34.3534 29.7759 34.4395C30.4551 34.5595 30.7649 34.3454 30.9158 33.6612C31.1256 32.7289 31.3177 31.7967 31.5196 30.8604C31.6118 30.4243 31.7372 29.9961 32.2489 29.8941C32.4614 29.8565 32.6801 29.8904 32.8721 29.9907C33.0641 30.0911 33.219 30.2523 33.3133 30.4503C33.48 30.7027 33.6941 30.9189 33.9433 31.0863C34.1924 31.2537 34.4716 31.369 34.7647 31.4255C35.0578 31.4819 35.359 31.4785 35.6508 31.4153C35.9426 31.3521 36.2192 31.2305 36.4646 31.0574C36.9454 30.7224 37.2825 30.2126 37.4071 29.6323C37.5318 29.052 37.4344 28.445 37.1351 27.9355C36.9836 27.6733 36.7827 27.4444 36.544 27.262C36.3052 27.0796 36.0334 26.9473 35.7442 26.8729C35.455 26.7985 35.1543 26.7833 34.8593 26.8284C34.5644 26.8734 34.2811 26.9777 34.0259 27.1353C33.8672 27.2678 33.6715 27.3458 33.4668 27.358C33.262 27.3703 33.0587 27.3161 32.886 27.2033C32.7134 27.0676 32.5901 26.8771 32.5354 26.6619C32.4807 26.4467 32.4979 26.2191 32.5841 26.0149C32.7801 25.1427 32.9693 24.2704 33.1536 23.3981C33.3712 22.3888 33.2036 22.1238 32.2067 21.8977C30.3444 21.4786 28.482 21.0514 26.6089 20.6403C26.3847 20.5825 26.1514 20.5709 25.9228 20.6063C24.2892 20.9824 22.6578 21.3785 21.0288 21.7947C20.9351 21.8231 20.8492 21.8735 20.7779 21.9417C20.7066 22.01 20.6519 22.0942 20.6181 22.1878C19.9561 25.13 19.3053 28.0805 18.6656 31.0394C18.6362 31.1411 18.6276 31.2479 18.6403 31.3532C18.653 31.4584 18.6867 31.5599 18.7393 31.6513C18.792 31.7427 18.8624 31.8221 18.9463 31.8846C19.0303 31.9471 19.1258 31.9914 19.2272 32.0147C19.7388 32.1768 20.2662 32.2628 20.8112 32.3828C20.7282 31.4692 20.9484 30.5536 21.4363 29.7829C21.9242 29.0122 22.6515 28.431 23.5018 28.1326C24.2325 27.8205 25.0416 27.7542 25.8117 27.9435C26.5818 28.1327 27.2727 28.5676 27.7842 29.1849C28.4 29.8259 28.7917 30.6562 28.8987 31.5472C29.0057 32.4383 28.8221 33.3405 28.3762 34.1144ZM13.8862 31.2835V26.7982C13.8919 26.4806 13.8723 26.1631 13.8274 25.8489C13.7654 25.5444 13.5925 25.2753 13.3436 25.096C13.0947 24.9166 12.7884 24.8404 12.4865 24.8826C11.8327 24.9766 11.5896 25.3617 11.6573 26.106C11.7327 26.9782 11.7749 27.8505 11.8582 28.7227C11.877 28.9719 11.9673 29.2099 12.118 29.4069C12.6718 30.0431 13.2667 30.6423 13.8862 31.2835ZM10.0312 28.1826C9.95568 27.0712 9.89687 25.9819 9.79689 24.8986C9.78941 24.7341 9.74991 24.5728 9.68071 24.4241C9.61151 24.2754 9.51399 24.1422 9.39383 24.0323C9.27368 23.9225 9.13329 23.8381 8.98086 23.7842C8.82843 23.7303 8.667 23.7078 8.50599 23.7182C8.18712 23.7589 7.89428 23.9186 7.68382 24.1664C7.47336 24.4142 7.36017 24.7327 7.36605 25.0606C7.3757 26.1979 7.65446 27.316 8.17861 28.3196C8.80789 28.2646 9.38619 28.2216 10.0312 28.1786V28.1826ZM17.557 27.8825C17.377 27.7311 17.1557 27.6403 16.9231 27.6223C16.6906 27.6044 16.4584 27.6604 16.2582 27.7825C16.0596 27.8909 15.8985 28.0591 15.7966 28.2641C15.6947 28.4691 15.6571 28.7012 15.6887 28.9288C15.7476 30.2372 15.7642 31.5546 15.8142 32.872C15.8058 33.0266 15.8471 33.1797 15.9318 33.3081C16.5013 33.8643 17.0963 34.3854 17.7942 35.0276C17.8108 34.0783 18.0206 33.3601 17.3668 32.6929C17.144 32.4375 16.9886 32.1283 16.9154 31.7945C16.8421 31.4607 16.8535 31.1134 16.9483 30.7854C17.1463 29.8211 17.3492 28.8718 17.557 27.8795V27.8825Z" fill="#47BBC6"/>
<path d="M44.3221 26.0319C44.7661 23.5431 46.4844 22.5428 48.7467 23.4231C50.557 21.5415 52.0234 21.4225 53.7662 23.072C53.9171 22.6959 54.0602 22.3368 54.2023 21.9777C54.4631 21.2309 55.0003 20.6182 55.6986 20.271C56.3969 19.9237 57.2008 19.8696 57.9377 20.1203C58.6747 20.3709 59.2861 20.9064 59.6406 21.6117C59.9952 22.3171 60.0648 23.1361 59.8345 23.8932C58.4769 28.7087 57.09 33.5151 55.703 38.3216C55.3907 39.3357 54.7931 40.2339 53.9847 40.9043C50.658 43.8632 47.3395 46.8281 44.0291 49.799C43.7843 50.0349 43.6247 50.3483 43.5762 50.6883C43.191 53.4251 42.847 56.1699 42.4872 58.9158C42.4725 59.0137 42.4529 59.1109 42.4284 59.2068C42.4154 59.326 42.3789 59.4413 42.321 59.5457C42.2631 59.6501 42.1852 59.7414 42.0918 59.8142C41.9984 59.8871 41.8915 59.9398 41.7776 59.9693C41.6637 59.9988 41.5451 60.0045 41.429 59.986C41.3129 59.9674 41.2016 59.9251 41.102 59.8615C41.0023 59.798 40.9163 59.7145 40.8492 59.616C40.782 59.5176 40.735 59.4063 40.7111 59.2889C40.6873 59.1715 40.6869 59.0503 40.7102 58.9328C40.8778 57.5734 41.0542 56.2049 41.2297 54.8445C41.4473 53.185 41.6825 51.5345 41.8835 49.876C41.909 49.65 41.9785 49.4315 42.0879 49.2333C42.1973 49.035 42.3444 48.8611 42.5206 48.7217C45.9394 45.6858 49.3338 42.6409 52.7527 39.6049C53.4212 39.0215 53.903 38.247 54.1357 37.3813C55.4178 32.8569 56.7253 28.3326 58.024 23.8082C58.0662 23.6712 58.0995 23.5431 58.1329 23.4081C58.1871 23.2527 58.2104 23.0878 58.2012 22.9231C58.1921 22.7583 58.1509 22.5971 58.0798 22.4489C58.0088 22.3008 57.9094 22.1686 57.7875 22.0602C57.6657 21.9517 57.5238 21.8693 57.3703 21.8176C57.2182 21.7637 57.0571 21.7418 56.8965 21.7531C56.7359 21.7645 56.5792 21.8089 56.4359 21.8836C56.2926 21.9584 56.1656 22.062 56.0626 22.1882C55.9595 22.3144 55.8825 22.4605 55.8363 22.6179C55.5511 23.3361 55.2835 24.0633 55.0149 24.7905C54.4866 26.1849 53.9504 27.5703 53.4466 28.9638C53.4126 29.0755 53.4018 29.1932 53.4148 29.3095C53.4278 29.4257 53.4643 29.5379 53.5221 29.639C54.0712 30.3777 54.3324 31.298 54.2551 32.2218C54.1778 33.1457 53.7675 34.0075 53.1036 34.6405C51.5696 36.2309 49.9856 37.7704 48.4771 39.3869C47.595 40.3362 46.8108 41.3795 46.0218 42.4148C45.5856 42.979 45.1582 43.167 44.6976 42.8769C44.2075 42.5688 44.1192 42.0217 44.5632 41.4315C45.3312 40.3526 46.1564 39.3174 47.0353 38.3306C48.5937 36.6541 50.2199 35.0466 51.8293 33.4211C52.1135 33.1732 52.321 32.8464 52.4266 32.4804C52.5323 32.1144 52.5314 31.725 52.4243 31.3595C52.332 31.0323 52.1568 30.7358 51.9163 30.4999C51.6758 30.2639 51.3786 30.0969 51.0546 30.0158C50.7307 29.9346 50.3914 29.9421 50.0712 30.0375C49.751 30.1329 49.4611 30.3129 49.2309 30.5592C47.9821 31.7906 46.75 33.039 45.5434 34.3224C44.2724 35.678 42.7628 36.7774 41.0934 37.5633C39.7859 38.1875 38.5126 38.8807 37.2217 39.5299C36.474 39.8867 35.8595 40.4808 35.4701 41.2234C34.9507 42.2067 34.4145 43.173 33.895 44.1573C33.6521 44.5581 33.4932 45.0059 33.4282 45.4724C33.3633 45.939 33.3937 46.4142 33.5176 46.8681C34.1721 49.1536 34.1779 51.5816 33.5343 53.8702C33.1069 55.6068 32.7972 57.3713 32.4365 59.1218C32.3444 59.5669 32.1179 59.96 31.6523 59.951C31.3195 59.916 31.013 59.7503 30.7976 59.4889C30.6749 59.2211 30.6539 58.9163 30.7388 58.6337C31.1577 56.547 31.5935 54.4661 32.0464 52.3908C32.4076 50.8528 32.3643 49.2448 31.9209 47.7294C31.6837 46.9685 31.6073 46.165 31.6969 45.3718C31.7864 44.5786 32.0399 43.8139 32.4404 43.128C32.9305 42.2277 33.4206 41.3145 33.9107 40.4082C34.4847 39.3094 35.3894 38.4278 36.4915 37.8934C37.6481 37.3203 38.7881 36.7051 39.9525 36.1489C40.1222 36.0888 40.265 35.9684 40.355 35.8098C40.4449 35.6511 40.476 35.4647 40.4426 35.2846C40.3446 33.3351 40.3593 31.3765 40.174 29.4349C40.0868 28.8899 40.1429 28.331 40.3365 27.8153C40.5302 27.2996 40.8544 26.8456 41.2762 26.4995C41.6979 26.1535 42.2021 25.9279 42.7373 25.8458C43.2724 25.7636 43.8193 25.8278 44.3221 26.0319ZM42.1599 34.7985C42.2098 34.8415 42.2579 34.8755 42.302 34.9185C42.8901 34.3794 43.4782 33.8492 44.0447 33.2941C44.1213 33.1847 44.1596 33.0522 44.1535 32.9179C44.1957 31.5325 44.2712 30.1381 44.2457 28.7527C44.2227 28.5662 44.1625 28.3866 44.0687 28.2249C43.975 28.0631 43.8498 27.9228 43.7007 27.8124C43.5137 27.6943 43.2976 27.6327 43.0776 27.6349C42.8577 27.6371 42.6428 27.7029 42.4581 27.8248C42.2733 27.9466 42.1262 28.1194 42.0339 28.3231C41.9415 28.5269 41.9077 28.7532 41.9364 28.9758C41.9922 30.9154 42.0844 32.8569 42.1599 34.7985ZM46.0649 31.3435C46.751 30.6162 47.3891 29.949 48.0008 29.2738C48.0871 29.1425 48.131 28.9868 48.1262 28.8287C48.2105 27.8364 48.3105 26.8441 48.3272 25.8608C48.3165 25.7049 48.2736 25.553 48.2015 25.4151C48.1294 25.2772 48.0296 25.1565 47.9086 25.0606C47.7428 24.9532 47.5529 24.8908 47.3568 24.8793C47.1607 24.8679 46.9651 24.9077 46.7883 24.9951C46.6116 25.0825 46.4597 25.2145 46.3469 25.3786C46.2342 25.5427 46.1645 25.7335 46.1443 25.9328C46.0867 26.4666 46.0586 27.0033 46.06 27.5403C46.057 28.7517 46.0659 29.9751 46.0659 31.3435H46.0649ZM49.9454 28.1615C50.5149 28.2215 51.0177 28.2896 51.5206 28.3236C51.59 28.3249 51.6586 28.3083 51.7201 28.2755C51.7816 28.2426 51.834 28.1945 51.8724 28.1355C52.3707 27.1895 52.6272 26.1306 52.6184 25.0566C52.6225 24.7279 52.5077 24.4092 52.2959 24.1615C52.0841 23.9138 51.7902 23.7545 51.4706 23.7142C51.3094 23.7031 51.1477 23.725 50.995 23.7787C50.8423 23.8324 50.7016 23.9167 50.5813 24.0267C50.461 24.1367 50.3635 24.2701 50.2945 24.4192C50.2256 24.5682 50.1865 24.7298 50.1797 24.8945C50.0709 25.9809 50.0209 27.0672 49.9454 28.1615Z" fill="#47BBC6"/>
<path d="M47.507 8.42699C47.4258 9.31709 47.059 10.155 46.4635 10.8106C45.868 11.4662 45.0771 11.903 44.2136 12.0531C43.4732 12.2357 42.6958 12.1828 41.9857 11.9016C41.2756 11.6203 40.6668 11.1241 40.2409 10.4796C39.6861 9.7342 39.395 8.81896 39.4151 7.8831C39.4352 6.94723 39.7653 6.04592 40.3517 5.32606C39.8322 5.10399 39.3627 4.86391 38.8687 4.70987C38.7622 4.66873 38.6484 4.65117 38.5348 4.65834C38.4212 4.66551 38.3104 4.69724 38.2098 4.75145C38.1091 4.80565 38.0209 4.88108 37.951 4.97273C37.881 5.06438 37.831 5.17016 37.8042 5.28305C37.4357 6.20632 37.0495 7.11359 36.6897 8.03687C36.5221 8.482 36.2791 8.8241 35.7762 8.8371C35.3067 8.8371 35.0724 8.51201 34.8793 8.10188C34.6961 7.68907 34.3985 7.33998 34.0232 7.09763C33.648 6.85528 33.2115 6.73026 32.7675 6.73797C32.3234 6.74569 31.8913 6.8858 31.5243 7.14104C31.1574 7.39628 30.8716 7.7555 30.7023 8.17445C30.5329 8.59339 30.4873 9.05375 30.5711 9.4988C30.6549 9.94385 30.8645 10.3542 31.174 10.6792C31.4835 11.0042 31.8795 11.2296 32.313 11.3278C32.7466 11.426 33.1987 11.3927 33.6139 11.2318C33.793 11.1283 33.9995 11.085 34.2042 11.1079C34.4088 11.1309 34.6011 11.2191 34.7539 11.3599C34.902 11.521 34.9932 11.7279 35.0129 11.948C35.0326 12.168 34.9797 12.3884 34.8627 12.5742C34.4853 13.4745 34.1256 14.3748 33.7649 15.275C33.6907 15.3948 33.646 15.5311 33.6348 15.6723C33.6236 15.8135 33.6462 15.9554 33.7006 16.0858C33.7549 16.2161 33.8395 16.331 33.947 16.4207C34.0545 16.5103 34.1817 16.572 34.3177 16.6004C35.1812 16.9685 36.0526 17.3186 36.9073 17.6948C37.5111 17.9598 37.7454 18.405 37.5523 18.9091C37.5011 19.0334 37.4242 19.145 37.3269 19.2362C37.2295 19.3273 37.114 19.396 36.9883 19.4374C36.8625 19.4788 36.7295 19.492 36.5983 19.4761C36.4671 19.4602 36.3408 19.4156 36.2281 19.3453C35.3067 18.9691 34.3843 18.584 33.4708 18.1819C33.1566 18.0553 32.8705 17.8657 32.6292 17.6245C32.388 17.3832 32.1964 17.0951 32.066 16.7771C31.9356 16.4591 31.8688 16.1177 31.8697 15.773C31.8706 15.4282 31.9391 15.0872 32.0711 14.7699C32.2672 14.2477 32.473 13.7436 32.6749 13.2214C30.5127 12.8533 29.2639 11.768 28.8522 9.92843C28.6908 9.14296 28.756 8.32655 29.0402 7.57817C29.3243 6.8298 29.815 6.18161 30.4529 5.71217C31.978 4.60083 33.5453 4.67686 35.59 6.00326C35.7909 5.52411 35.9821 5.04497 36.1849 4.57483C36.3037 4.23546 36.4904 3.92508 36.7333 3.66351C36.9762 3.40195 37.2699 3.19494 37.5956 3.05572C37.9213 2.9165 38.2718 2.84813 38.6249 2.85496C38.9779 2.86179 39.3257 2.94367 39.646 3.09539C40.3919 3.39548 41.129 3.69557 41.8582 4.02766C42.0669 4.09125 42.2532 4.2149 42.3947 4.3838C42.5363 4.55271 42.6271 4.7597 42.6563 4.97995C42.6854 5.20019 42.6517 5.42436 42.5592 5.62556C42.4667 5.82675 42.3193 5.99644 42.1346 6.11429C41.7045 6.42483 41.3931 6.87797 41.2535 7.39652C41.114 7.91506 41.1549 8.46695 41.3693 8.95816C41.5838 9.44937 41.9584 9.84952 42.4295 10.0905C42.9006 10.3314 43.4389 10.3982 43.9529 10.2795C44.5014 10.1561 44.985 9.8281 45.309 9.3598C45.633 8.8915 45.7741 8.31663 45.7045 7.74778C45.6202 6.73048 46.1485 6.09728 46.9865 6.22532C47.1769 6.26732 47.3623 6.33038 47.5393 6.41338C48.2431 6.70447 48.9557 6.98655 49.6428 7.30265C49.9527 7.4296 50.2349 7.61806 50.4729 7.8571C50.711 8.09615 50.9001 8.38102 51.0295 8.69522C51.1589 9.00942 51.2259 9.34671 51.2266 9.68752C51.2273 10.0283 51.1617 10.3659 51.0337 10.6807C49.6614 14.1447 48.2598 17.6077 46.8434 21.0468C46.7178 21.3574 46.5331 21.6395 46.2999 21.8768C46.0667 22.114 45.7897 22.3017 45.485 22.429C45.1802 22.5563 44.8537 22.6206 44.5245 22.6182C44.1952 22.6158 43.8696 22.5468 43.5667 22.4152C42.4022 21.962 41.2535 21.4569 40.1057 20.9617C39.9806 20.9317 39.8634 20.8742 39.7624 20.7931C39.6614 20.712 39.5789 20.6094 39.5208 20.4925C39.4627 20.3755 39.4304 20.247 39.426 20.1159C39.4217 19.9849 39.4454 19.8544 39.4956 19.7337C39.5458 19.613 39.6212 19.5049 39.7166 19.417C39.812 19.3292 39.9251 19.2637 40.0479 19.225C40.1707 19.1864 40.3003 19.1757 40.4276 19.1935C40.5549 19.2113 40.6769 19.2573 40.7849 19.3282C41.8494 19.7644 42.9139 20.2285 43.9783 20.6627C44.6988 20.9627 45.0428 20.8167 45.3506 20.0625C46.666 16.8125 47.9902 13.5535 49.2978 10.3045C49.6163 9.52631 49.4654 9.1672 48.7195 8.85111C48.3588 8.69706 47.999 8.55102 47.6413 8.40598C47.5958 8.40632 47.5505 8.4134 47.507 8.42699Z" fill="#47BBC6"/>
<path d="M26.8094 55.5644C26.7996 55.336 26.8758 55.1125 27.0223 54.9396C27.1688 54.7667 27.3746 54.6575 27.5975 54.6344C27.8204 54.6114 28.0434 54.6763 28.2209 54.8157C28.3984 54.9551 28.5169 55.1586 28.5522 55.3844C28.7698 56.3677 28.9707 57.3599 29.1726 58.3522C29.224 58.5635 29.2633 58.7776 29.2903 58.9935C29.3251 59.2221 29.271 59.4556 29.1395 59.6442C29.0081 59.8327 28.8096 59.9614 28.5865 60.0027C28.4704 60.0214 28.3518 60.0165 28.2375 59.9883C28.1233 59.9602 28.0156 59.9092 27.9206 59.8385C27.8257 59.7678 27.7453 59.6787 27.6841 59.5762C27.623 59.4738 27.5822 59.3601 27.5642 59.2415C27.3377 58.2322 27.1368 57.2229 26.9271 56.2136C26.8927 55.9835 26.8516 55.7525 26.8094 55.5644Z" fill="#47BBC6"/>
</svg>
