<svg width="60" height="61" viewBox="0 0 60 61" fill="none" xmlns="http://www.w3.org/2000/svg">
<path d="M34.6621 59.9864C34.0568 59.8668 33.5025 59.6193 33.0571 59.2697C32.6118 58.92 32.2916 58.4811 32.1301 57.9985C32.0584 57.7332 32.0244 57.4622 32.0289 57.1908C32.0164 53.8504 32.0164 50.51 32.0289 47.1696C32.0002 46.1381 32.2981 45.1176 32.8949 44.2034C33.4917 43.2892 34.3679 42.5111 35.4416 41.9417C37.394 40.8407 39.3715 39.7717 41.3239 38.6717C41.4534 38.5997 41.5628 38.5069 41.6452 38.3992C41.7276 38.2915 41.7811 38.1713 41.8023 38.0461C41.8398 35.6239 41.8273 33.2017 41.8148 30.7794C41.8475 30.4639 41.7328 30.1499 41.493 29.8982C41.2532 29.6465 40.9054 29.4751 40.517 29.4172C40.179 29.3625 39.8278 29.4042 39.5242 29.535C39.2205 29.6659 38.9836 29.8777 38.8543 30.1338C38.7399 30.4312 38.6888 30.7418 38.7031 31.0527C38.6907 33.2627 38.7032 35.4627 38.6907 37.6728C38.697 37.8884 38.6845 38.1042 38.6532 38.3184C38.6331 38.5272 38.5104 38.721 38.3119 38.8573C38.1135 38.9935 37.8557 39.0611 37.5951 39.0451C37.003 39.0451 36.5496 38.7928 36.5496 38.3284C36.5371 35.5528 36.4359 32.7773 36.6383 30.0207C36.7198 29.6327 36.9004 29.2624 37.1687 28.9328C37.437 28.6033 37.7873 28.3217 38.1977 28.1056C38.6081 27.8895 39.0697 27.7436 39.5537 27.677C40.0376 27.6104 40.5335 27.6246 41.0104 27.7186C41.2602 27.7687 41.51 27.8187 41.7911 27.8798C41.3376 24.7769 44.2594 23.3386 47.1312 24.0552V22.8741C47.0833 22.1454 47.3614 21.427 47.9156 20.8479C48.4697 20.2688 49.2635 19.8672 50.1542 19.7152C51.0609 19.5731 52.0011 19.7034 52.7955 20.0813C53.59 20.4592 54.1829 21.0583 54.4613 21.7641C54.48 21.7954 54.5008 21.8258 54.5238 21.8552C55.2953 21.7689 56.0754 21.7417 56.8534 21.7741C57.7209 21.8728 58.5139 22.2213 59.084 22.7544C59.6542 23.2875 59.9625 23.9688 59.9514 24.6708C59.9639 30.4531 59.9888 36.2265 59.9389 42.0088C59.8865 44.0065 58.8759 45.9113 57.117 47.3277C54.9934 49.1844 52.9224 51.0721 50.7688 52.9188C50.1982 53.3598 49.7548 53.8954 49.4698 54.4881C49.1847 55.0808 49.0649 55.7163 49.1187 56.35C49.1312 56.4501 49.1062 56.5422 49.1187 56.6423C49.2823 57.3606 49.1058 58.102 48.6238 58.7217C48.1417 59.3414 47.3886 59.7948 46.5117 59.9934C42.5593 59.9864 38.617 59.9864 34.6621 59.9864ZM48.5928 39.9229C47.3436 38.4896 45.9483 38.2774 44.2095 39.2362L36.8032 43.324C35.978 43.7484 35.3041 44.3368 34.8472 45.032C34.3903 45.7272 34.166 46.5054 34.1962 47.2907C34.2087 50.5507 34.1962 53.8107 34.1962 57.0697C34.1962 57.9705 34.5485 58.2408 35.6952 58.2408H44.5367C46.8539 58.2408 46.9551 58.2007 46.8926 56.339C46.8518 55.489 47.0286 54.6413 47.4121 53.8481C47.7956 53.0549 48.3776 52.3329 49.1224 51.7268C51.2884 49.8701 53.3795 47.9623 55.5206 46.0956C57.0041 44.8308 57.8053 43.1483 57.7504 41.4132C57.7254 35.9832 57.7379 30.5542 57.7379 25.1242C57.7484 24.9288 57.7401 24.7331 57.7129 24.5387C57.6666 24.2351 57.4818 23.9559 57.1939 23.755C56.9061 23.5541 56.5356 23.4457 56.1539 23.4507C55.7722 23.4557 55.4064 23.5737 55.1269 23.7819C54.8473 23.9902 54.6739 24.274 54.64 24.5787C54.615 24.7909 54.615 25.0021 54.615 25.2243C54.615 28.6275 54.59 32.0166 54.6275 35.4177C54.6684 36.1792 54.4949 36.9384 54.12 37.6389C53.745 38.3394 53.1782 38.9633 52.4614 39.4644C50.018 41.2201 47.6247 43.0367 45.2063 44.8234C44.854 45.0856 44.5005 45.3679 44.1233 45.6101C43.9146 45.7668 43.6367 45.8505 43.3509 45.843C43.0651 45.8355 42.7948 45.7373 42.5993 45.5701C42.4038 45.4028 42.2993 45.1802 42.3087 44.9512C42.318 44.7222 42.4406 44.5056 42.6493 44.349C42.9141 44.1167 43.2164 43.9145 43.4937 43.7033C45.2163 42.4362 46.9039 41.174 48.5928 39.9229ZM50.2554 38.6407C50.9594 38.3097 51.5377 37.8314 51.9284 37.2571C52.319 36.6828 52.5071 36.0342 52.4727 35.3807C52.4102 31.3239 52.4477 27.2662 52.4477 23.1994C52.4565 22.9465 52.4398 22.6935 52.3977 22.4427C52.3412 22.1411 52.1425 21.8683 51.8425 21.6806C51.5424 21.4929 51.1639 21.4045 50.785 21.4338C49.8531 21.4738 49.3235 22.0294 49.311 22.9582C49.311 27.6405 49.336 32.3239 49.2861 37.0062C49.2523 37.323 49.3243 37.6414 49.4946 37.9286C49.6649 38.2158 49.9275 38.4615 50.2554 38.6407ZM47.1187 36.824V27.015C47.1427 26.8401 47.1202 26.6631 47.0529 26.4956C46.9855 26.3281 46.8747 26.174 46.7278 26.0432C46.5809 25.9124 46.4012 25.808 46.2004 25.7367C45.9997 25.6655 45.7824 25.629 45.5628 25.6297C45.3432 25.6304 45.1263 25.6683 44.9263 25.7408C44.7262 25.8134 44.5475 25.919 44.4019 26.0507C44.2564 26.1824 44.1472 26.3373 44.0815 26.5052C44.0158 26.6731 43.9952 26.8502 44.0208 27.025V36.9251C44.0246 36.9922 44.0329 37.059 44.0458 37.1253C45.0651 37.0062 46.0357 36.9151 47.1187 36.825V36.824Z" fill="#47BBC6"/>
<path d="M13.4697 59.9866C12.5899 59.7917 11.8337 59.339 11.3508 58.7183C10.8679 58.0977 10.6937 57.3543 10.8627 56.6355C10.942 55.9061 10.8131 55.1719 10.4859 54.4883C10.1587 53.8047 9.64164 53.1897 8.97395 52.6899C6.70672 50.7821 4.5282 48.8043 2.36091 46.8265C0.845331 45.4476 0.0199483 43.6682 0.0437005 41.8309C0.00622568 39.1364 0.0312158 36.4419 0.0312158 33.7474C0.0312158 33.0467 0.434693 32.6774 1.12673 32.6774C1.81876 32.6774 2.20975 33.0508 2.22224 33.7574C2.22224 36.3308 2.23473 38.9142 2.22224 41.4885C2.17401 43.1871 2.96092 44.8329 4.41326 46.0708C6.55432 47.9375 8.64543 49.8553 10.8115 51.702C11.5679 52.3111 12.1596 53.0385 12.5496 53.839C12.9397 54.6394 13.1198 55.4956 13.0787 56.3543C13.0162 58.201 13.1037 58.241 15.4521 58.241H24.2937C25.4266 58.241 25.7802 57.9587 25.7802 57.0599C25.7802 53.8199 25.7677 50.5809 25.7802 47.3409C25.8144 46.5369 25.586 45.7397 25.1176 45.0282C24.6491 44.3167 23.9569 43.7155 23.1095 43.2842C20.6911 41.962 18.2977 40.6197 15.8918 39.2975C14.0406 38.2786 12.8563 38.4297 11.2949 40.0142C11.5054 40.0893 11.7042 40.184 11.887 40.2964C13.625 41.5783 15.3547 42.8668 17.076 44.162C17.7306 44.6565 17.8192 45.1909 17.3408 45.5853C16.8874 45.9587 16.2166 45.9186 15.6033 45.4542C12.8826 43.4353 10.1869 41.4075 7.44124 39.4186C6.75742 38.945 6.21465 38.3546 5.8528 37.6909C5.49095 37.0272 5.31919 36.307 5.35013 35.5831C5.37512 32.1109 5.36263 28.6297 5.35013 25.1575C5.35013 24.0565 4.79552 23.4619 3.80119 23.4619C2.80686 23.4619 2.23974 24.0625 2.23974 25.1575V29.5475C2.23974 30.2342 1.83626 30.6275 1.14423 30.6175C0.452191 30.6075 0.0487134 30.2241 0.0487134 29.5375C0.0362218 28.0742 0.14989 26.6008 0.0237249 25.1475C-0.0512909 24.607 0.052319 24.0601 0.324159 23.5618C0.595999 23.0635 1.02653 22.6312 1.5726 22.3082C2.11866 21.9852 2.76107 21.7828 3.43547 21.7215C4.10987 21.6601 4.79255 21.7419 5.41509 21.9585C6.20831 20.303 7.68233 19.3561 9.91208 19.7565C12.7339 20.271 13.0612 22.0876 12.8713 24.0454C13.5444 23.8343 14.2762 23.7731 14.9892 23.8683C15.7022 23.9635 16.3697 24.2114 16.921 24.586C17.4724 24.9605 17.8869 25.4477 18.1207 25.9957C18.3545 26.5437 18.3988 27.1322 18.249 27.6988C18.9787 27.6551 19.7117 27.6618 20.44 27.7189C21.3166 27.837 22.1099 28.2059 22.6728 28.7572C23.2356 29.3085 23.5297 30.0047 23.5004 30.7166C23.5379 31.9477 23.5129 33.1789 23.5129 34.41C23.5129 36.4189 23.5504 38.4367 23.4879 40.4456C23.4424 40.7374 23.5083 41.0334 23.6769 41.2946C23.8454 41.5559 24.1088 41.77 24.4323 41.9089C25.3768 42.3822 26.1779 43.0182 26.7771 43.7706C27.3763 44.5231 27.7586 45.3732 27.8962 46.2589C27.9533 46.6271 27.9788 46.998 27.9724 47.369C27.9724 50.4979 27.9225 53.6157 27.9974 56.7446C28.1225 57.4551 27.9221 58.1778 27.4334 58.779C26.9447 59.3802 26.2007 59.8191 25.3392 60.0146C21.3619 59.9866 17.407 59.9866 13.4697 59.9866ZM9.70346 38.6209C10.0519 38.4527 10.3309 38.206 10.5055 37.9116C10.6801 37.6172 10.7427 37.2881 10.6853 36.9654C10.6478 32.3431 10.6728 27.7108 10.6603 23.0886C10.67 22.796 10.6279 22.5039 10.5354 22.2208C10.4201 21.974 10.209 21.7633 9.93325 21.6197C9.65748 21.4761 9.3315 21.4072 9.00321 21.4229C8.67491 21.4387 8.3616 21.5384 8.10924 21.7074C7.85689 21.8764 7.67879 22.1058 7.60112 22.3619C7.53816 22.6314 7.51303 22.9057 7.52618 23.1797C7.52618 27.1964 7.57614 31.2231 7.50119 35.2398C7.43936 35.9115 7.61231 36.5838 8.00064 37.1812C8.38896 37.7786 8.97733 38.2774 9.69972 38.6219L9.70346 38.6209ZM15.963 37.1075V34.6983C15.963 32.1249 15.9755 29.5415 15.963 26.9672C15.9825 26.7938 15.9565 26.6191 15.8866 26.4543C15.8168 26.2895 15.7046 26.1382 15.5574 26.0102C15.4102 25.8822 15.2312 25.7803 15.0319 25.7111C14.8327 25.6418 14.6175 25.6068 14.4003 25.6082C14.1831 25.6096 13.9686 25.6474 13.7707 25.7192C13.5729 25.791 13.3959 25.8952 13.2513 26.0251C13.1067 26.155 12.9977 26.3077 12.9312 26.4734C12.8646 26.6391 12.8421 26.8141 12.8651 26.9872C12.8526 30.1661 12.8651 33.355 12.8651 36.534C12.8723 36.629 12.889 36.7234 12.915 36.8162C13.9568 36.9263 14.9137 37.0164 15.9593 37.1075H15.963ZM21.177 40.0842C21.2182 40.0279 21.2481 39.9668 21.2657 39.9031C21.2657 36.8252 21.2907 33.7464 21.2657 30.6585C21.2747 30.4915 21.24 30.3247 21.1639 30.169C21.0878 30.0133 20.972 29.872 20.8238 29.7543C20.6756 29.6365 20.4984 29.5448 20.3035 29.4851C20.1085 29.4253 19.9002 29.3989 19.6917 29.4074C19.4841 29.409 19.2789 29.444 19.0884 29.5103C18.8979 29.5766 18.7259 29.6728 18.5827 29.7933C18.4394 29.9138 18.3278 30.056 18.2543 30.2117C18.1809 30.3674 18.1473 30.5333 18.1553 30.6996C18.1303 33.1519 18.1428 35.6141 18.1553 38.0674C18.1573 38.1591 18.183 38.2495 18.2307 38.3329C18.2784 38.4162 18.3472 38.4908 18.4326 38.5518C19.3095 39.0753 20.2152 39.5598 21.1733 40.0852L21.177 40.0842Z" fill="#47BBC6"/>
<path d="M10.756 7.50674C10.8385 6.08971 11.3985 4.71706 12.3766 3.53466C13.3547 2.35226 14.7144 1.40429 16.3111 0.791498C17.9077 0.178706 19.6818 -0.0760112 21.4447 0.0544135C23.2075 0.184838 24.8934 0.695534 26.3231 1.53223C27.18 2.00666 27.9732 2.56118 28.7914 3.08666C29.7732 3.71224 30.2142 3.71223 31.1723 3.10668C31.903 2.64225 32.6213 2.17782 33.3508 1.7244C34.6816 0.866462 36.2705 0.303908 37.9581 0.0931379C39.6458 -0.117632 41.373 0.0307875 42.9665 0.52352C44.56 1.01625 45.9639 1.83598 47.0373 2.90053C48.1108 3.96508 48.8162 5.23704 49.0827 6.58889C49.3734 7.80676 49.279 9.06356 48.8082 10.2447C48.3373 11.4259 47.505 12.4938 46.387 13.3511C45.2915 14.2389 44.0823 15.0267 42.8981 15.8534C42.7948 15.9368 42.6718 16.0028 42.5362 16.0475C42.4006 16.0922 42.2552 16.1148 42.1086 16.1138C41.9619 16.1129 41.817 16.0885 41.6823 16.0421C41.5476 15.9956 41.4259 15.9281 41.3242 15.8434C41.2203 15.7536 41.1412 15.6472 41.0921 15.5312C41.043 15.4152 41.025 15.2922 41.0393 15.1703C41.0536 15.0483 41.0998 14.9301 41.1749 14.8235C41.25 14.7168 41.3524 14.624 41.4754 14.5512C42.5709 13.7435 43.7426 13.0068 44.7881 12.159C46.1381 11.0874 46.9353 9.64789 47.0212 8.12677C47.1071 6.60566 46.4753 5.11436 45.2516 3.94942C44.0279 2.78448 42.3019 2.03124 40.4167 1.83948C38.5315 1.64773 36.6253 2.03151 35.0772 2.9145C34.1453 3.449 33.2759 4.04455 32.369 4.61007C31.7213 5.08243 30.877 5.34421 30.0012 5.34421C29.1254 5.34421 28.2811 5.08243 27.6334 4.61007C26.8652 4.12562 26.1094 3.63116 25.3412 3.15672C23.7986 2.16003 21.8302 1.68693 19.8577 1.83874C17.8851 1.99056 16.0651 2.75521 14.7875 3.96896C13.5098 5.18271 12.8761 6.74906 13.0219 8.3326C13.1677 9.91614 14.0816 11.391 15.5678 12.4413C19.7242 15.4187 23.9059 18.3758 28.1131 21.3125C28.6198 21.7066 29.2988 21.9263 30.005 21.9244C30.7112 21.9225 31.3884 21.6993 31.8918 21.3025C33.8905 19.9102 35.8716 18.4869 37.874 17.0986C37.9932 16.9734 38.1513 16.8754 38.3325 16.8145C38.5137 16.7535 38.7116 16.7316 38.9066 16.7511C39.1016 16.7705 39.2869 16.8306 39.4439 16.9253C39.6009 17.02 39.7242 17.146 39.8015 17.2908C40.1038 17.6741 39.8265 18.0375 39.4267 18.3197L34.8798 21.5387C34.3002 21.9521 33.7206 22.3765 33.116 22.7698C32.2298 23.3683 31.1064 23.694 29.9474 23.6885C28.7885 23.683 27.67 23.3466 26.7927 22.7398C22.4348 19.7023 18.1044 16.6412 13.8015 13.5563C12.7824 12.7818 11.983 11.8407 11.4575 10.797C10.9321 9.75319 10.6928 8.63109 10.756 7.50674Z" fill="#47BBC6"/>
</svg>
