<svg width="60" height="61" viewBox="0 0 60 61" fill="none" xmlns="http://www.w3.org/2000/svg">
<path d="M11.3531 0.0090107C12.0027 0.388348 11.9587 1.03893 11.9267 1.6785C12.4684 1.83063 12.987 1.97075 13.4957 2.11188C14.3831 0.973867 14.6649 0.810723 15.1836 1.13601C15.7022 1.4613 15.6833 1.83664 15.1076 3.00067C15.4974 3.369 15.8981 3.73733 16.3418 4.1497C16.4937 4.06262 16.7316 3.92249 16.9694 3.80239C17.1662 3.68825 17.3997 3.65577 17.6201 3.71188C17.8405 3.768 18.0302 3.90825 18.1486 4.10265C18.2156 4.19537 18.2618 4.30153 18.2839 4.41382C18.3061 4.52612 18.3037 4.64188 18.2769 4.75315C18.2501 4.86443 18.1996 4.96857 18.1288 5.05843C18.058 5.14828 17.9686 5.22172 17.8668 5.27369C17.2392 5.58797 17.1673 5.92427 17.3581 6.58485C17.531 7.17037 17.7049 7.43061 18.3435 7.37656C18.4614 7.36131 18.5813 7.3726 18.6943 7.40961C18.8073 7.44662 18.9107 7.50841 18.9969 7.59049C19.083 7.67257 19.1498 7.77287 19.1924 7.88407C19.235 7.99528 19.2522 8.11459 19.2429 8.23332C19.2528 8.34689 19.2378 8.46125 19.1989 8.56837C19.1599 8.67549 19.098 8.77277 19.0176 8.85338C18.9371 8.93399 18.8399 8.99598 18.733 9.03497C18.626 9.07396 18.5119 9.08901 18.3985 9.07908C17.63 8.992 17.4131 9.36133 17.3382 10.0009C17.2956 10.2378 17.2304 10.4701 17.1433 10.6945C17.6739 11.1279 18.6473 11.3341 18.1177 12.353C17.8468 12.8734 17.4471 12.8404 16.2559 12.2989C15.8991 12.6893 15.5304 13.0907 15.1406 13.513C15.6493 14.7141 15.6493 15.0744 15.0976 15.3557C14.546 15.6369 14.2532 15.4427 13.5177 14.3368C13.009 14.4779 12.4894 14.619 11.9187 14.7701C11.9368 15.0589 11.9331 15.3487 11.9078 15.6369C11.9044 15.7455 11.8796 15.8522 11.8346 15.9511C11.7896 16.0499 11.7254 16.1387 11.6458 16.2124C11.5661 16.2861 11.4727 16.3432 11.3708 16.3803C11.2689 16.4174 11.1606 16.4339 11.0523 16.4286C10.5526 16.4286 10.1429 16.1284 10.2079 15.6589C10.3268 14.7812 9.85112 14.607 9.17956 14.5099C8.97866 14.4646 8.7828 14.3992 8.59494 14.3147C8.14024 14.8152 7.94537 15.8651 6.90706 15.3016C6.3874 15.0194 6.42038 14.586 7.01499 13.4159C6.86991 13.2944 6.7324 13.164 6.60326 13.0256C6.15955 12.4401 5.71584 12.1588 5.00431 12.6783C4.62556 12.9495 4.20484 12.7213 3.965 12.321C3.84767 12.1482 3.80237 11.9364 3.83877 11.7308C3.87518 11.5251 3.99041 11.3418 4.15987 11.22C4.41345 11.0352 4.67738 10.8651 4.95034 10.7105C4.80944 10.1791 4.67953 9.68061 4.52863 9.12812C3.86806 9.04104 2.92968 9.31228 2.85073 8.19629C2.80776 7.61077 3.2075 7.4266 4.51763 7.3075C4.63655 6.87411 4.78845 6.44073 4.88538 5.98532C4.88506 5.90858 4.86963 5.83266 4.83996 5.7619C4.81029 5.69114 4.76699 5.62694 4.71251 5.57297C4.55603 5.45953 4.39357 5.35461 4.22583 5.25868C4.13348 5.20167 4.05337 5.12682 3.99019 5.03849C3.92701 4.95017 3.88202 4.85013 3.85783 4.7442C3.83365 4.63828 3.83076 4.5286 3.84933 4.42154C3.8679 4.31449 3.90755 4.21221 3.96599 4.12067C4.01188 4.02228 4.07728 3.93426 4.1582 3.86197C4.23912 3.78969 4.33388 3.73465 4.43671 3.70019C4.53953 3.66574 4.64828 3.6526 4.75633 3.66156C4.86439 3.67052 4.96951 3.70141 5.06527 3.75234C5.3361 3.86044 5.57394 4.02358 5.84476 4.16471C6.22351 3.75234 6.59126 3.364 6.992 2.92861C6.76515 2.39714 6.0826 1.75756 6.94902 1.127C7.44869 0.769684 7.81446 0.996885 8.59395 2.10287C9.10261 1.96174 9.62226 1.83163 10.1739 1.6805C10.2169 1.07396 10.044 0.358319 10.7905 0C10.9664 0.00900801 11.1582 0.0090107 11.3531 0.0090107ZM15.8342 8.24734C15.8373 7.2984 15.5594 6.36984 15.0354 5.57917C14.5115 4.7885 13.7652 4.17125 12.8909 3.80554C12.0166 3.43983 11.0536 3.3421 10.1238 3.5247C9.19406 3.70731 8.33928 4.16204 7.66764 4.83137C6.99599 5.5007 6.53768 6.35453 6.3507 7.28482C6.16372 8.21511 6.25646 9.18004 6.61721 10.0575C6.97797 10.935 7.59052 11.6856 8.37733 12.2143C9.16414 12.7429 10.0898 13.026 11.0373 13.0276C12.3052 13.0273 13.5214 12.5244 14.4201 11.6286C15.3188 10.7328 15.8268 9.51718 15.8332 8.24734H15.8342Z" fill="#47BBC6"/>
<path d="M0.000565652 46.0881C0.390308 45.5787 0.390309 45.5787 1.67846 45.4596C1.9163 44.885 2.15515 44.3215 2.39299 43.747C1.53756 42.6741 1.42962 42.3158 1.87333 41.8934C2.31704 41.471 2.64182 41.5681 3.67214 42.4359C4.18081 42.2407 4.70046 42.0675 5.18714 41.8353C5.25141 41.7878 5.30556 41.728 5.34641 41.6592C5.38725 41.5905 5.41396 41.5142 5.42498 41.435C5.46796 41.2078 5.43598 40.9686 5.47895 40.7414C5.5083 40.5339 5.61766 40.3463 5.78356 40.2187C5.94946 40.091 6.15869 40.0336 6.36636 40.0588C6.79908 40.0808 7.18882 40.341 7.14585 40.7744C7.04591 41.6632 7.5136 41.9554 8.23912 42.1296C8.48062 42.2147 8.70981 42.3315 8.92068 42.4769C9.48331 42.0766 9.92002 41.1658 10.7825 41.9244C11.2372 42.3248 11.0823 42.7482 10.2308 43.735C10.4687 44.3095 10.7075 44.873 10.9563 45.4585C12.3204 45.6207 12.6442 45.7948 12.6342 46.3904C12.6242 46.9859 12.2665 47.1911 10.9463 47.2912C10.7195 47.8437 10.4916 48.3922 10.1559 49.2099C10.359 49.2982 10.5484 49.4152 10.7185 49.5572C10.8129 49.6358 10.8897 49.7336 10.9437 49.844C10.9977 49.9545 11.0277 50.0752 11.0318 50.1981C11.0358 50.321 11.0138 50.4434 10.9672 50.5572C10.9207 50.671 10.8505 50.7737 10.7615 50.8584C10.6809 50.9453 10.5824 51.0137 10.4728 51.0587C10.3633 51.1038 10.2452 51.1245 10.1269 51.1193C10.0086 51.1142 9.89277 51.0834 9.78751 51.029C9.68225 50.9746 9.59004 50.8979 9.51728 50.8043C9.11755 50.3489 8.74879 50.1978 8.26212 50.6092C8.21578 50.6464 8.15943 50.6691 8.10022 50.6742C7.95173 50.6729 7.80494 50.706 7.67129 50.7709C7.53764 50.8357 7.42074 50.9305 7.32966 51.048C7.23857 51.1655 7.17578 51.3024 7.14615 51.4481C7.11653 51.5939 7.12086 51.7445 7.15884 51.8883C7.20181 52.3757 6.83406 52.669 6.33639 52.68C5.83871 52.691 5.43698 52.3977 5.49194 51.9103C5.56789 51.1096 5.19214 50.8153 4.51759 50.6532C4.24209 50.5535 3.97726 50.4265 3.72711 50.2738C3.16448 50.6742 2.72777 51.575 1.86534 50.8163C1.42163 50.426 1.56553 50.0036 2.41697 49.0057C2.17913 48.4312 1.94029 47.8677 1.69145 47.2602C1.09185 47.2492 0.414294 47.3683 0.0245519 46.6747C0.00571146 46.4797 -0.00229768 46.2839 0.000565652 46.0881ZM6.2964 49.2639C6.86711 49.2639 7.42504 49.0947 7.89985 48.7775C8.37466 48.4604 8.74509 48.0096 8.96444 47.4819C9.18379 46.9542 9.24223 46.3733 9.13241 45.8123C9.02258 45.2514 8.7494 44.7357 8.34731 44.33C7.94522 43.9244 7.43222 43.6471 6.87299 43.533C6.31375 43.419 5.73333 43.4733 5.20488 43.6892C4.67644 43.905 4.22363 44.2727 3.90355 44.746C3.58348 45.2192 3.41047 45.7768 3.40632 46.3483C3.40448 46.73 3.47781 47.1083 3.62213 47.4616C3.76645 47.8148 3.97892 48.1361 4.24736 48.407C4.51581 48.6779 4.83497 48.8932 5.18657 49.0404C5.53817 49.1876 5.91531 49.2639 6.2964 49.2649V49.2639Z" fill="#47BBC6"/>
<path d="M26.6793 49.2909V51.3177C26.7253 51.6449 26.6943 51.9784 26.589 52.2915C26.4836 52.6046 26.3067 52.8888 26.0723 53.1214C25.8379 53.354 25.5526 53.5286 25.239 53.6312C24.9254 53.7339 24.5922 53.7619 24.2659 53.7128H23.7373C23.4152 53.7567 23.0873 53.725 22.7796 53.6203C22.4718 53.5156 22.1926 53.3407 21.9638 53.1095C21.735 52.8782 21.563 52.5969 21.4613 52.2877C21.3596 51.9785 21.331 51.6499 21.3778 51.3277V49.2909C20.6093 49.2909 19.8838 49.2799 19.1483 49.2909C18.8155 49.3104 18.4829 49.2485 18.1793 49.1106C17.8756 48.9727 17.6101 48.7628 17.4054 48.4992C17.1004 47.9365 16.937 47.3077 16.9295 46.6674C16.922 46.0271 17.0706 45.3947 17.3625 44.8249C17.5596 44.5551 17.8192 44.3372 18.119 44.1899C18.4187 44.0426 18.7496 43.9703 19.0833 43.9792H21.3818C21.4019 43.4624 21.3945 42.9448 21.3598 42.4288C21.3378 42.2877 21.068 42.1145 20.8731 42.0605C18.9723 41.5076 17.2438 40.4779 15.8515 39.0688C15.3428 38.5483 15.2778 38.0279 15.6786 37.6375C16.0573 37.2692 16.588 37.3123 17.0637 37.7997C18.4686 39.2269 20.2724 40.1942 22.2372 40.5741C22.9078 40.7043 23.1247 40.9645 23.1366 41.6691C23.1473 42.6667 23.1473 43.6639 23.1366 44.6608C23.1257 45.4525 22.8229 45.7337 22.0224 45.7447C21.123 45.7447 20.2236 45.7558 19.3242 45.7447C18.9124 45.7337 18.7186 45.8528 18.7186 46.3083C18.7505 47.6955 18.5667 47.5333 19.9178 47.5444C20.6433 47.5444 21.3568 47.5333 22.0823 47.5444C22.8079 47.5554 23.1107 47.8586 23.1217 48.5963C23.143 49.4957 23.143 50.3966 23.1217 51.2987C23.1107 51.7861 23.2516 51.9993 23.7822 51.9923C24.9295 51.9703 24.9295 51.9923 24.9295 50.8543V48.6323C24.9405 47.8736 25.2293 47.5804 26.0008 47.5704C26.9212 47.5594 27.8295 47.5594 28.7499 47.5704C29.1717 47.5814 29.3346 47.4292 29.3496 46.9959C29.3825 45.7708 29.3925 45.7708 28.1703 45.7708H26.0058C25.2153 45.7598 24.9345 45.4705 24.9235 44.6548V41.7822C24.9235 40.9695 25.1073 40.7633 25.8978 40.5902C27.4769 40.2881 28.9559 39.5967 30.2012 38.5785C31.4465 37.5602 32.4187 36.2471 33.0301 34.758C33.1008 34.5992 33.1622 34.4365 33.214 34.2705C33.2285 34.2065 33.2359 34.141 33.236 34.0754C32.6624 34.1294 32.0997 34.1404 31.5471 34.2485C31.3632 34.2806 31.1793 34.5408 31.0604 34.736C30.349 36.1466 29.2222 37.3043 27.8324 38.0526C26.4425 38.8009 24.8567 39.1035 23.2895 38.9197C21.7635 38.8319 20.2997 38.2839 19.0904 37.3474C17.8811 36.411 16.983 35.1301 16.514 33.673C16.1651 32.6858 16.0137 31.6395 16.0685 30.5937C16.1233 29.5479 16.3832 28.5232 16.8334 27.5781C17.2836 26.6329 17.9153 25.7858 18.6923 25.0851C19.4694 24.3845 20.3767 23.8439 21.3623 23.4945C22.348 23.145 23.3927 22.9933 24.4368 23.0482C25.481 23.1031 26.5041 23.3634 27.4478 23.8143C28.3915 24.2652 29.2373 24.8979 29.9369 25.6762C30.6365 26.4544 31.1762 27.3631 31.5251 28.3503C31.5791 28.5124 31.644 28.6756 31.731 28.9138C32.2826 28.7837 32.8243 28.6535 33.5058 28.4914C33.181 27.7217 32.9432 27.0061 32.5964 26.3455C31.527 24.3523 29.7995 22.7931 27.7093 21.9344C25.6191 21.0757 23.2959 20.9709 21.1371 21.6378C18.9782 22.3047 17.1177 23.7019 15.8736 25.5907C14.6295 27.4794 14.0791 29.7423 14.3165 31.9925C14.4327 32.7828 14.6139 33.5621 14.8581 34.3226C15.042 34.9732 14.8901 35.4716 14.3814 35.6448C13.8728 35.8179 13.4401 35.5577 13.1912 34.9081C12.1974 32.1595 12.284 29.1353 13.4336 26.4483C14.5831 23.7613 16.7096 21.6125 19.3821 20.4372C19.5339 20.3846 19.67 20.2944 19.7778 20.1751C19.8855 20.0558 19.9615 19.9112 19.9987 19.7546C20.442 18.0575 21.2668 16.4843 22.41 15.1553C23.5532 13.8262 24.9845 12.7764 26.5948 12.0862C28.205 11.3959 29.9514 11.0834 31.7007 11.1725C33.4499 11.2616 35.1557 11.7499 36.6877 12.6003C36.8396 12.6873 36.9875 12.7624 37.0994 12.8275C37.5212 12.4151 37.9219 12.0268 38.3336 11.6354C36.5808 10.8547 36.6457 9.2723 37.0345 7.61382C37.1395 7.26202 37.3533 6.95273 37.6452 6.73056C37.9371 6.50839 38.2919 6.38483 38.6584 6.37772C39.1047 6.33612 39.5536 6.33245 40.0005 6.36672C40.109 6.36336 40.2171 6.38192 40.3183 6.42129C40.4195 6.46067 40.5117 6.52004 40.5895 6.59589C40.6673 6.67173 40.729 6.7625 40.771 6.86276C40.813 6.96301 40.8344 7.07072 40.834 7.17944C40.8504 7.40751 40.7767 7.63291 40.6289 7.80717C40.4811 7.98143 40.2708 8.09062 40.0435 8.11127C39.9246 8.13329 39.8056 8.11127 39.6967 8.12228C39.3609 8.15431 38.7763 8.11126 38.7224 8.25239C38.6006 8.69708 38.571 9.16203 38.6354 9.61861C38.6354 9.7187 38.9062 9.86783 39.0571 9.87884C39.5047 9.86228 39.9529 9.87298 40.3993 9.91086C40.5727 9.93717 40.7387 10 40.8861 10.0952C41.0336 10.1905 41.1592 10.3159 41.2547 10.4634C41.2974 10.6341 41.2991 10.8126 41.2597 10.9841C41.2203 11.1557 41.1408 11.3154 41.0278 11.4502C40.0425 12.5122 39.0152 13.5211 37.9869 14.529C37.5002 15.0064 37.2073 15.0064 36.5368 14.561C35.2896 13.7236 33.8661 13.1862 32.3774 12.9906C30.8887 12.7949 29.3749 12.9465 27.9543 13.4333C26.5336 13.9201 25.2445 14.7292 24.1875 15.7972C23.1304 16.8652 22.3341 18.1634 21.8605 19.5905C22.5101 19.5364 23.1047 19.5254 23.6893 19.4283C23.8512 19.3953 23.9891 19.1031 24.101 18.9079C25.0376 17.1636 26.5881 15.8304 28.4514 15.1672C30.3147 14.504 32.3575 14.5583 34.1831 15.3194C36.0086 16.0806 37.4865 17.4942 38.3294 19.2858C39.1724 21.0773 39.3203 23.1187 38.7443 25.0133C38.2538 26.6051 37.279 28.0035 35.956 29.0132C34.633 30.0229 33.0281 30.5933 31.3656 30.6447C29.7032 30.696 28.0662 30.2258 26.6836 29.2998C25.301 28.3738 24.2419 27.0382 23.6543 25.4797C23.5784 25.2625 23.4924 25.0463 23.3945 24.7641C22.8319 24.8942 22.2952 25.0243 21.6846 25.1765C21.7716 25.4767 21.8255 25.7189 21.9115 25.9572C22.638 28.0129 24.03 29.7663 25.8661 30.9386C27.7021 32.1108 29.8768 32.6345 32.0442 32.4263C34.2117 32.2182 36.2474 31.2901 37.8276 29.7898C39.4078 28.2895 40.4418 26.3031 40.765 24.1465C41.1401 21.7666 40.6067 19.3324 39.271 17.3285C38.7623 16.5478 38.7843 16.2986 39.4329 15.648C40.3743 14.7051 41.3157 13.7723 42.247 12.8295C42.3716 12.6646 42.5449 12.5434 42.7423 12.483C42.9397 12.4227 43.151 12.4262 43.3463 12.4932C43.5376 12.5739 43.6967 12.7161 43.7985 12.8973C43.9003 13.0784 43.9392 13.2884 43.9089 13.4941C43.8927 13.7069 43.8927 13.9207 43.9089 14.1336C43.9409 14.4699 43.9309 15.0344 44.0818 15.0875C44.5323 15.1925 44.9986 15.2109 45.4559 15.1415C45.5429 15.1305 45.6728 14.8813 45.6728 14.7292C45.6838 12.6803 45.6838 10.6255 45.6838 8.57268C45.6838 8.20435 45.5109 8.09525 45.1751 8.10626C44.8393 8.11727 44.4756 8.12828 44.1248 8.10626C43.8866 8.10894 43.6571 8.01685 43.4866 7.85022C43.3161 7.68359 43.2186 7.45604 43.2154 7.21747C43.2167 7.09975 43.2418 6.98352 43.2894 6.87584C43.3369 6.76817 43.4058 6.67132 43.4919 6.59117C43.578 6.51102 43.6795 6.44926 43.7902 6.40964C43.9009 6.37002 44.0185 6.35337 44.1358 6.36071C44.5795 6.3497 45.0352 6.33869 45.4779 6.36071C45.9916 6.37569 46.48 6.58751 46.8424 6.95251C47.2048 7.31751 47.4135 7.80786 47.4256 8.32246C47.4476 10.5444 47.4476 12.7774 47.4256 14.9994C47.413 15.5034 47.2089 15.9837 46.855 16.3422C46.5011 16.7008 46.024 16.9107 45.5209 16.9291C45.2071 16.9511 44.8933 16.9181 44.5905 16.9401C44.0739 17.0126 43.5485 16.8971 43.1097 16.6147C42.6709 16.3322 42.3478 15.9015 42.1991 15.4007C41.7993 15.8451 41.4196 16.2575 41.1168 16.5818C41.6189 17.8428 42.0489 19.1313 42.4049 20.4412C42.9394 23.007 42.5747 25.6788 41.3723 28.0067C40.1698 30.3345 38.2031 32.1763 35.8033 33.2216C35.6431 33.2788 35.4997 33.3753 35.3862 33.5022C35.2728 33.6291 35.1928 33.7825 35.1537 33.9483C34.6691 35.8613 33.6912 37.6132 32.3179 39.0286C30.9446 40.4441 29.2242 41.4733 27.3289 42.0134C26.8202 42.1756 26.6363 42.3818 26.7013 42.9022C26.7273 43.2666 26.7309 43.6323 26.7123 43.9972H28.693C29.0238 43.945 29.3622 43.9716 29.6808 44.0749C29.9995 44.1782 30.2893 44.3552 30.5269 44.5915C30.7645 44.8279 30.9431 45.1171 31.0483 45.4355C31.1535 45.7539 31.1823 46.0927 31.1324 46.4244C31.1324 46.7607 31.1434 47.0859 31.1104 47.4252C31.0745 47.9284 30.8508 48.3997 30.4838 48.7452C30.1168 49.0907 29.6334 49.2852 29.1297 49.2899C28.74 49.3119 28.3502 49.3009 27.9605 49.3009C27.5348 49.2969 27.145 49.2909 26.6793 49.2909ZM20.1097 26.1803C19.0999 26.9909 18.372 28.1005 18.0298 29.3504C17.6877 30.6003 17.749 31.9266 18.2049 33.1395C18.6744 34.4039 19.5416 35.481 20.6759 36.2084C21.8101 36.9358 23.1498 37.2741 24.4928 37.1721C26.4844 37.064 28.9198 35.4916 29.2896 34.0824C27.1821 33.736 25.2106 32.8149 23.5912 31.4203C21.9719 30.0257 20.7673 28.2114 20.1097 26.1763V26.1803ZM25.8239 19.5464C27.9352 19.8893 29.9111 20.8089 31.5343 22.204C33.1574 23.599 34.3649 25.4155 35.0238 27.4535C35.9431 26.7351 36.6341 25.7645 37.0128 24.66C37.3914 23.5554 37.4413 22.3644 37.1564 21.2319C36.8524 19.9274 36.1316 18.7578 35.1036 17.9008C34.0755 17.0438 32.7963 16.5463 31.4602 16.4837C30.3282 16.4088 29.1982 16.6563 28.2008 17.1976C27.2034 17.7389 26.3794 18.5518 25.8239 19.5424V19.5464ZM29.7313 28.6956C29.4074 27.7483 28.8361 26.9051 28.0767 26.2539C27.3173 25.6026 26.3976 25.167 25.4131 24.9923C25.7522 25.9304 26.3285 26.7644 27.0857 27.4127C27.843 28.0609 28.7552 28.5012 29.7333 28.6906L29.7313 28.6956Z" fill="#47BBC6"/>
<path d="M38.8537 47.4062C38.8207 46.8537 38.7668 46.3542 38.7668 45.8558C38.7668 45.3574 38.8207 44.8909 38.8667 44.3595C38.2946 44.4522 37.7089 44.4135 37.1539 44.2463C36.5989 44.0792 36.089 43.788 35.6628 43.3946C35.0487 42.8372 34.6503 42.081 34.5375 41.2587C34.3983 40.4122 34.5563 39.5435 34.9844 38.8005C35.4126 38.0574 36.0845 37.4859 36.886 37.1831C38.7688 36.4825 40.3497 37.1941 41.7238 39.34C42.5792 38.8396 43.4337 38.3391 44.3321 37.8226C43.9661 37.3651 43.7122 36.828 43.5907 36.2544C43.4692 35.6808 43.4835 35.0867 43.6326 34.5197C43.8398 33.6778 44.3433 32.939 45.0506 32.4389C45.7453 31.9399 46.5903 31.6956 47.4436 31.747C48.2969 31.7984 49.1066 32.1424 49.7365 32.7211C51.1756 34.0543 51.3055 35.8859 50.1153 37.8257C50.9807 38.3261 51.8361 38.8265 52.7345 39.354C52.9434 38.8113 53.2748 38.3245 53.7028 37.9315C54.1309 37.5386 54.644 37.2502 55.2019 37.089C56.0311 36.8376 56.9231 36.8952 57.7133 37.2512C58.5193 37.5972 59.1762 38.2189 59.5669 39.0052C59.9575 39.7916 60.0564 40.6914 59.8459 41.544C59.4021 43.3976 57.8112 44.4596 55.6137 44.3465V47.3602C56.2635 47.2727 56.9248 47.351 57.5362 47.5879C58.1477 47.8248 58.6895 48.2127 59.1114 48.7154C59.643 49.3485 59.9445 50.1434 59.9668 50.9704C59.9909 51.7965 59.7384 52.6071 59.2494 53.2729C58.7605 53.9387 58.0632 54.4216 57.2685 54.6446C55.4607 55.1651 53.9348 54.4174 52.7226 52.4006C51.8671 52.9011 51.0237 53.3875 50.1243 53.907C50.5065 54.3863 50.7663 54.9517 50.8814 55.5542C50.9965 56.1567 50.9634 56.7783 50.7848 57.3651C50.5482 58.1818 50.0306 58.8884 49.3238 59.3598C48.6192 59.8472 47.7672 60.0738 46.9141 60.0008C46.0609 59.9277 45.2596 59.5596 44.6479 58.9595C43.2738 57.6263 43.1649 55.7836 44.3481 53.908C43.4827 53.4075 42.6162 52.9071 41.7288 52.3906C41.5154 52.9246 41.1847 53.4036 40.7612 53.7921C40.3377 54.1806 39.8323 54.4685 39.2824 54.6346C38.6625 54.8208 38.0046 54.8413 37.3743 54.6941C36.7439 54.5469 36.163 54.237 35.6892 53.7953C35.2155 53.3536 34.8654 52.7954 34.6737 52.1762C34.482 51.5571 34.4554 50.8984 34.5965 50.2657C34.8083 49.3353 35.367 48.5211 36.1583 47.9896C36.9497 47.458 37.9138 47.2493 38.8537 47.4062ZM47.8688 53.6718C47.8688 52.848 48.0307 52.5768 48.6592 52.4257C49.9997 52.121 51.2154 51.4139 52.1439 50.3988C52.288 50.2246 52.4904 50.1088 52.7134 50.0729C52.9364 50.037 53.1648 50.0835 53.3561 50.2037C53.6174 50.3094 53.8451 50.4842 54.0148 50.7095C54.1845 50.9349 54.2898 51.2022 54.3195 51.4828C54.3913 51.9423 54.6321 52.3583 54.9945 52.649C55.3569 52.9398 55.8148 53.0843 56.2782 53.0542C56.7407 53.0403 57.1835 52.8629 57.528 52.5535C57.8726 52.2442 58.0968 51.8227 58.161 51.3637C58.235 50.915 58.1414 50.4546 57.8978 50.0707C57.6542 49.6868 57.2779 49.4063 56.8408 49.2829C56.335 49.197 55.816 49.2313 55.3258 49.383C55.0587 49.4398 54.7815 49.4278 54.5202 49.3481C54.2589 49.2685 54.0221 49.1238 53.8318 48.9275C53.674 48.7941 53.5657 48.6113 53.5246 48.4085C53.4834 48.2058 53.5117 47.9951 53.605 47.8105C53.9929 46.5301 53.9853 45.1621 53.583 43.8861C53.4971 43.6651 53.4973 43.4198 53.5836 43.199C53.6698 42.9782 53.8359 42.7979 54.0487 42.694C54.2644 42.5316 54.5191 42.429 54.787 42.3967C55.0549 42.3644 55.3266 42.4034 55.5747 42.5098C55.8642 42.6181 56.1754 42.6552 56.4822 42.6181C56.789 42.581 57.0824 42.4708 57.3379 42.2967C57.5933 42.1226 57.8034 41.8896 57.9504 41.6174C58.0975 41.3452 58.1772 41.0417 58.1829 40.7323C58.1936 40.2395 58.0196 39.7606 57.6951 39.3901C57.3706 39.0195 56.9193 38.7842 56.4301 38.7305C55.9307 38.6706 55.428 38.8116 55.0323 39.1225C54.6366 39.4334 54.3803 39.8889 54.3195 40.389C54.2196 41.1476 53.7139 41.4409 53.1203 41.6681C52.5686 41.8853 52.2549 41.4839 51.9301 41.1476C51.0892 40.2942 50.0292 39.6901 48.8671 39.4021C48.0337 39.1849 47.8927 38.9897 47.8678 38.145C47.8537 37.9232 47.896 37.7015 47.9907 37.5005C48.0854 37.2996 48.2295 37.126 48.4094 36.9959C48.6643 36.8033 48.8675 36.5503 49.0007 36.2596C49.1339 35.9689 49.1929 35.6496 49.1725 35.3304C49.1521 35.0113 49.0529 34.7022 48.8838 34.4309C48.7146 34.1596 48.4809 33.9345 48.2035 33.7761C47.779 33.5259 47.2759 33.445 46.7945 33.5494C46.313 33.6538 45.8885 33.9359 45.6053 34.3396C45.3104 34.7499 45.1893 35.2603 45.2683 35.7597C45.3473 36.259 45.6199 36.7069 46.027 37.0059C46.2618 37.1967 46.4339 37.4539 46.5207 37.744C46.6075 38.0341 46.6051 38.3437 46.5136 38.6324C46.4267 39.2069 45.94 39.294 45.4743 39.4241C44.3369 39.7204 43.3008 40.3198 42.4763 41.1586C42.1405 41.4949 41.8268 41.8853 41.2771 41.6591C40.7275 41.4329 40.2168 41.1717 40.1189 40.423C40.0881 40.1551 40.0014 39.8967 39.8645 39.6645C39.7276 39.4323 39.5435 39.2316 39.3242 39.0752C39.1048 38.9188 38.8551 38.8104 38.5912 38.7569C38.3274 38.7033 38.0552 38.7059 37.7924 38.7645C37.5285 38.8189 37.2786 38.9274 37.0585 39.0832C36.8385 39.239 36.6529 39.4387 36.5137 39.6698C36.3744 39.9008 36.2843 40.1582 36.2492 40.4258C36.214 40.6934 36.2345 40.9654 36.3094 41.2247C36.3811 41.4902 36.509 41.7372 36.6845 41.9488C36.86 42.1603 37.0789 42.3316 37.3264 42.4509C37.5739 42.5701 37.8441 42.6346 38.1187 42.64C38.3932 42.6453 38.6658 42.5914 38.9177 42.4818C39.1997 42.376 39.5062 42.3545 39.8002 42.4199C40.0941 42.4853 40.3628 42.6348 40.5736 42.8501C41.0283 43.1974 40.8874 43.6739 40.7574 44.1403C40.4236 45.3141 40.4313 46.5589 40.7794 47.7285C40.8984 48.1619 40.9963 48.5953 40.5956 48.9095C40.4022 49.1304 40.1483 49.2892 39.8653 49.3663C39.5823 49.4434 39.283 49.4352 39.0046 49.3429C38.6266 49.1939 38.2167 49.1453 37.8144 49.2018C37.3476 49.2827 36.9277 49.5354 36.6375 49.9104C36.3472 50.2854 36.2073 50.7556 36.2454 51.2286C36.2747 51.7123 36.4826 52.1679 36.8288 52.5065C37.175 52.8451 37.6346 53.0424 38.1182 53.0602C38.6117 53.092 39.0981 52.9297 39.474 52.6078C39.8499 52.286 40.0856 51.8299 40.1309 51.3367C40.2178 50.578 40.7584 50.3358 41.3101 50.1116C41.8098 49.9054 42.1435 50.2637 42.4683 50.599C43.2966 51.4617 44.3504 52.0738 45.5093 52.3656C45.986 52.4847 46.4397 52.6038 46.5266 53.1783C46.6128 53.4687 46.6094 53.7783 46.5166 54.0667C46.4239 54.355 46.2462 54.6084 46.007 54.7938C45.7924 54.9571 45.6147 55.1639 45.4854 55.4008C45.3562 55.6376 45.2783 55.8991 45.2569 56.1682C45.2355 56.4373 45.271 56.7078 45.3612 56.9622C45.4514 57.2166 45.5941 57.449 45.7801 57.6443C45.9608 57.8435 46.1809 58.0029 46.4265 58.1123C46.672 58.2217 46.9376 58.2787 47.2063 58.2798C47.475 58.2808 47.741 58.2258 47.9873 58.1183C48.2337 58.0108 48.455 57.8531 48.6372 57.6553C48.8244 57.4614 48.9687 57.2301 49.0606 56.9766C49.1525 56.7231 49.1899 56.453 49.1705 56.184C49.151 55.9149 49.0752 55.653 48.9478 55.4154C48.8205 55.1777 48.6445 54.9697 48.4314 54.8048C48.2405 54.6897 48.0865 54.5224 47.9875 54.3225C47.8885 54.1226 47.8487 53.8986 47.8728 53.6768L47.8688 53.6718Z" fill="#47BBC6"/>
<path d="M52.7514 25.7749C52.1518 25.5257 51.5932 25.2975 50.9876 25.0382C50.4789 25.4066 50.0242 26.3394 49.1478 25.5587C48.7151 25.1684 48.866 24.767 49.6994 23.7701C49.5045 23.2697 49.3317 22.7692 49.0998 22.2958C49.0015 22.1551 48.8556 22.0548 48.6891 22.0136C48.4622 21.9595 48.2234 22.0025 47.9966 21.9595C47.7992 21.9312 47.6198 21.8295 47.4941 21.6746C47.3683 21.5197 47.3054 21.323 47.318 21.1238C47.318 20.6573 47.5888 20.235 48.0435 20.3C48.9529 20.4191 49.2018 19.8997 49.3966 19.2051C49.4859 18.9616 49.6022 18.7289 49.7434 18.5114C49.3327 17.969 48.4552 17.5246 49.1808 16.6688C49.5705 16.2024 50.0362 16.3545 50.9796 17.2113C51.4992 17.0051 52.0289 16.8209 52.5385 16.5827C52.6575 16.5287 52.7444 16.2904 52.7554 16.1273C52.8094 15.2055 53.0692 14.8051 53.6548 14.8161C54.2404 14.8271 54.4663 15.2165 54.5422 16.1493C54.5541 16.2436 54.5863 16.3342 54.6367 16.4148C54.6871 16.4953 54.7544 16.5639 54.834 16.6157C55.2997 16.8429 55.7974 17.0161 56.2951 17.2163C57.2694 16.3705 57.6592 16.2514 58.0939 16.6528C58.5486 17.0751 58.4187 17.4875 57.5742 18.4954C57.8121 19.0809 58.0509 19.6554 58.3097 20.273C58.5696 20.273 58.8614 20.251 59.1542 20.273C59.263 20.2728 59.3709 20.2949 59.4709 20.338C59.571 20.381 59.6611 20.444 59.736 20.5232C59.8108 20.6024 59.8688 20.6961 59.9062 20.7985C59.9437 20.9009 59.9597 21.0099 59.9536 21.1187C59.9646 21.6192 59.6618 22.0196 59.1851 21.9755C58.3627 21.8995 58.0599 22.3008 57.908 23.0054C57.8163 23.2688 57.6928 23.5199 57.5402 23.7531C57.952 24.2956 58.8174 24.74 58.1029 25.6067C57.7131 26.0732 57.2474 25.907 56.3041 25.0643C55.7954 25.2594 55.2867 25.4436 54.8 25.6708C54.6733 25.7643 54.5817 25.898 54.5402 26.0501C54.5146 26.1861 54.5109 26.3254 54.5292 26.4625C54.4972 27.1021 54.1505 27.4814 53.6299 27.4704C53.1302 27.4594 52.8074 27.0801 52.7854 26.4695C52.7536 26.2394 52.7422 26.007 52.7514 25.7749ZM56.5289 21.1027C56.5246 20.5262 56.3496 19.9638 56.0262 19.4868C55.7027 19.0098 55.2453 18.6396 54.7118 18.4229C54.1783 18.2062 53.5926 18.1529 53.0288 18.2696C52.465 18.3862 51.9484 18.6678 51.5443 19.0785C51.1402 19.4892 50.8669 20.0107 50.7587 20.577C50.6505 21.1433 50.7124 21.7291 50.9366 22.2602C51.1608 22.7913 51.5371 23.2438 52.0181 23.5607C52.4991 23.8776 53.0631 24.0445 53.6388 24.0403C54.4083 24.027 55.1419 23.7119 55.6821 23.1629C56.2223 22.6138 56.5259 21.8746 56.5279 21.1037L56.5289 21.1027Z" fill="#47BBC6"/>
<path d="M11.5915 6.60996C11.5902 6.7263 11.5658 6.84123 11.5198 6.94804C11.4737 7.05485 11.4068 7.1514 11.3231 7.23208C11.2394 7.31275 11.1405 7.37594 11.0322 7.41794C10.9238 7.45994 10.8082 7.47993 10.6921 7.47674C10.4671 7.46301 10.2555 7.36517 10.0991 7.20262C9.94274 7.04006 9.853 6.82463 9.84766 6.59896C9.84857 6.48209 9.87313 6.36661 9.91984 6.25952C9.96656 6.15242 10.0345 6.05592 10.1195 5.97585C10.2045 5.89577 10.3048 5.83378 10.4144 5.79362C10.524 5.75346 10.6405 5.73597 10.7571 5.7422C10.8689 5.74388 10.9792 5.76771 11.0818 5.81231C11.1844 5.85691 11.2771 5.92141 11.3547 6.00207C11.4322 6.08273 11.4931 6.17799 11.5338 6.28232C11.5744 6.38665 11.594 6.49799 11.5915 6.60996Z" fill="#47BBC6"/>
<path d="M9.38668 9.00797C9.49832 9.00681 9.60904 9.02834 9.71213 9.07127C9.81522 9.1142 9.90854 9.17763 9.98645 9.25772C10.0644 9.33781 10.1252 9.4329 10.1654 9.53723C10.2056 9.64157 10.2242 9.75297 10.2201 9.86472C10.2238 9.98142 10.2032 10.0976 10.1596 10.2059C10.116 10.3142 10.0503 10.4122 9.96689 10.4937C9.88343 10.5752 9.78395 10.6385 9.67477 10.6794C9.5656 10.7203 9.4491 10.7381 9.33271 10.7315C9.10734 10.7245 8.89346 10.6303 8.73598 10.4687C8.57851 10.307 8.48973 10.0905 8.48828 9.86472C8.48799 9.74845 8.51136 9.63334 8.55696 9.52642C8.60257 9.4195 8.66945 9.32302 8.75352 9.24284C8.83759 9.16267 8.93708 9.10049 9.04594 9.06011C9.15481 9.01973 9.27074 9.00199 9.38668 9.00797Z" fill="#47BBC6"/>
<path d="M12.7401 7.826C12.9683 7.82308 13.1883 7.91107 13.3518 8.07062C13.5152 8.23016 13.6086 8.44821 13.6116 8.67676C13.6145 8.90532 13.5266 9.12567 13.3673 9.28935C13.208 9.45303 12.9903 9.54661 12.7621 9.54953C12.6491 9.55098 12.537 9.53012 12.432 9.48815C12.3271 9.44618 12.2314 9.38391 12.1505 9.30491C12.0696 9.22591 12.005 9.13172 11.9604 9.02772C11.9158 8.92372 11.8921 8.81195 11.8907 8.69878C11.8893 8.58561 11.9101 8.47326 11.952 8.36815C11.9939 8.26304 12.0561 8.16724 12.1349 8.08619C12.2138 8.00515 12.3079 7.94045 12.4117 7.89581C12.5155 7.85116 12.6271 7.82744 12.7401 7.826Z" fill="#47BBC6"/>
<path d="M46.8308 50.543C45.998 50.4712 45.1998 50.1771 44.5192 49.6911C43.8385 49.2052 43.3005 48.5453 42.9611 47.7803C42.6217 47.0153 42.4935 46.1731 42.5896 45.3415C42.6858 44.5099 43.003 43.7194 43.508 43.0524C44.0193 42.3527 44.7209 41.8152 45.5289 41.5039C46.3369 41.1926 47.2173 41.1207 48.065 41.2968C48.1926 41.2998 48.3182 41.3304 48.433 41.3864C48.5478 41.4424 48.6493 41.5225 48.7305 41.6212C48.8116 41.72 48.8706 41.8351 48.9034 41.9588C48.9362 42.0824 48.942 42.2116 48.9204 42.3377C48.9015 42.4593 48.8566 42.5753 48.7887 42.6779C48.7209 42.7804 48.6317 42.8671 48.5273 42.9319C48.4229 42.9967 48.3058 43.0382 48.1839 43.0535C48.062 43.0687 47.9383 43.0574 47.8212 43.0203C47.4385 42.9401 47.0437 42.9374 46.66 43.0122C46.2763 43.0871 45.9113 43.238 45.5867 43.4561C45.262 43.6742 44.9842 43.9551 44.7695 44.2823C44.5548 44.6095 44.4076 44.9764 44.3365 45.3614C44.2209 45.9218 44.28 46.5043 44.506 47.03C44.7319 47.5556 45.1137 47.999 45.5996 48.3C46.0562 48.6286 46.6034 48.8072 47.1656 48.8111C47.7278 48.8151 48.2774 48.6442 48.7385 48.322C49.2253 48.0221 49.6113 47.5831 49.8466 47.0614C50.0819 46.5398 50.1557 45.9595 50.0586 45.3954C50 45.1013 50.0419 44.796 50.1776 44.5287C50.2795 44.4099 50.4083 44.3173 50.5534 44.2588C50.6984 44.2003 50.8554 44.1775 51.011 44.1924C51.1717 44.2566 51.3168 44.3548 51.4363 44.4802C51.5558 44.6055 51.6469 44.7552 51.7036 44.919C52.4261 47.7685 50.1646 50.554 46.8308 50.543Z" fill="#47BBC6"/>
</svg>
