<svg width="60" height="61" viewBox="0 0 60 61" fill="none" xmlns="http://www.w3.org/2000/svg">
<path d="M28.8546 52.0266H10.0055V58.7883C10.0055 59.6395 9.63874 60.0066 8.78827 60.0066C7.55405 60.0066 6.33682 60.0236 5.1016 60.0066C4.42793 60.0219 3.75819 59.9001 3.13296 59.6485C2.50774 59.397 1.94005 59.021 1.46432 58.5434C0.988593 58.0657 0.61474 57.4964 0.365404 56.8698C0.116068 56.2432 -0.00355312 55.5725 0.0138035 54.8983C-0.00318575 47.6525 0.0138035 40.3946 0.0138035 33.1447V7.38517C-0.0397657 6.66407 0.0629876 5.93991 0.315036 5.26226C0.567084 4.58461 0.962476 3.96948 1.47413 3.45899C1.98578 2.9485 2.6016 2.55471 3.27945 2.30458C3.95729 2.05445 4.68113 1.95389 5.40141 2.00978H51.9721C51.9721 1.64269 51.9551 1.34161 51.9721 1.04153C51.9646 0.904396 51.9864 0.767248 52.036 0.639192C52.0856 0.511136 52.1618 0.395108 52.2597 0.298803C52.3575 0.202499 52.4747 0.128127 52.6034 0.0806232C52.7322 0.0331193 52.8695 0.0135739 53.0064 0.0232812C54.0907 0.00627686 55.175 -0.0267333 56.2594 0.0402839C57.225 0.107498 58.1332 0.524054 58.8145 1.21223C59.4958 1.90041 59.9037 2.81319 59.962 3.78024C59.979 3.94728 59.962 4.11432 59.962 4.28037V47.7915C60.0218 48.7905 59.7065 49.7759 59.0778 50.5542C58.4492 51.3326 57.5527 51.8477 56.5642 51.9986C56.2327 52.0401 55.8987 52.0569 55.5648 52.0486H40.2634C40.0623 52.0316 39.8601 52.0638 39.6742 52.1423C39.4882 52.2209 39.3242 52.3436 39.1961 52.4997C37.8969 53.9851 36.5608 55.4545 35.2266 56.9068C34.9614 57.1953 34.6372 57.4231 34.2762 57.575C32.4084 58.3432 30.5236 59.0604 28.6547 59.7956C28.4576 59.914 28.2291 59.9694 27.9997 59.9546C27.7703 59.9398 27.5508 59.8553 27.3706 59.7125C27.2011 59.5432 27.0877 59.3258 27.0459 59.0898C27.0041 58.8538 27.0358 58.6106 27.1367 58.3932C27.6864 56.2537 28.27 54.1641 28.8546 52.0266ZM51.9401 3.9963H5.33545C4.88702 3.95131 4.43421 4.00689 4.00994 4.15903C3.58567 4.31117 3.2006 4.55602 2.88274 4.8758C2.56488 5.19557 2.3222 5.58223 2.17237 6.00765C2.02254 6.43307 1.9693 6.88656 2.01654 7.33515V50.9923C3.31116 50.1566 4.85794 49.8026 6.38679 49.9921C14.2258 50.0091 22.0829 49.9921 29.922 50.0091C30.2067 50.0319 30.4912 49.9631 30.7342 49.8129C30.9772 49.6627 31.166 49.4388 31.2731 49.1738C29.839 47.3874 27.8033 48.2056 26.0354 47.9385V46.002C28.4209 46.002 30.8564 45.6179 32.6572 47.7215C32.8571 47.5044 33.024 47.3214 33.1909 47.1373C37.778 42.0454 42.3651 36.9591 46.9522 31.8784C47.4192 31.3003 48.0383 30.8643 48.7397 30.6195C49.4411 30.3747 50.1968 30.3309 50.9217 30.4931C51.2555 30.5601 51.5723 30.6931 51.9061 30.7931V29.9749H46.2017C45.4182 29.9749 44.9505 29.6079 44.9505 28.9747C44.9505 28.3565 45.4012 27.9744 46.1847 27.9744H51.8721V20.9746H46.0838C45.9434 20.9942 45.8004 20.984 45.6642 20.9448C45.528 20.9055 45.4015 20.8381 45.293 20.7468C45.1844 20.6555 45.0963 20.5425 45.0342 20.4149C44.9721 20.2874 44.9374 20.1482 44.9325 20.0064C44.9155 19.4062 45.3662 18.9881 46.0838 18.9881C47.4179 18.9711 48.7521 18.9881 50.0873 18.9881H51.8721V10.9921H51.0886C49.3897 10.9921 47.6688 11.0091 45.9678 10.9921C45.8313 11.0003 45.6945 10.9798 45.5665 10.9318C45.4384 10.8838 45.3218 10.8093 45.2243 10.7133C45.1267 10.6173 45.0505 10.5019 45.0004 10.3745C44.9503 10.2471 44.9275 10.1106 44.9335 9.97383C44.9365 9.8433 44.9652 9.71464 45.018 9.59525C45.0708 9.47586 45.1466 9.36808 45.2412 9.27811C45.3357 9.18814 45.447 9.11775 45.5688 9.07098C45.6906 9.02421 45.8205 9.00198 45.9509 9.00558C46.2177 8.98857 46.4845 9.00558 46.7683 9.00558H51.9061C51.9391 7.31914 51.9391 5.69973 51.9391 3.9963H51.9401ZM57.9613 44.2806V3.87926C57.9459 3.43777 57.7782 3.01524 57.4866 2.68354C57.1951 2.35183 56.7978 2.13142 56.3623 2.0598C55.5906 2.00411 54.8161 1.99843 54.0437 2.0428V43.9125C55.3249 44.0135 56.6091 44.1506 57.9603 44.2806H57.9613ZM41.4647 49.9401C41.552 49.9644 41.6413 49.9811 41.7315 49.9901C46.4685 49.9901 51.2255 50.0071 55.9595 49.9901C56.2201 49.9927 56.4787 49.9438 56.7204 49.8461C56.962 49.7485 57.1821 49.604 57.3678 49.421C57.5535 49.238 57.7013 49.0201 57.8026 48.7797C57.9039 48.5394 57.9568 48.2814 57.9583 48.0206C57.9603 47.7547 57.9094 47.491 57.8087 47.245C57.7079 46.9989 57.5593 46.7754 57.3715 46.5874C57.1836 46.3994 56.9603 46.2506 56.7145 46.1498C56.4686 46.0489 56.2052 45.998 55.9396 46C55.0401 45.983 54.1547 46 53.2542 46C52.3198 46 51.9701 45.666 51.9701 44.7317V38.9893C51.9656 38.7771 51.9489 38.5653 51.9201 38.3551C48.4033 42.2441 44.9665 46.0671 41.4647 49.9401ZM7.98578 51.9936C6.93545 51.9936 5.95106 51.9766 4.94969 51.9936C4.20468 52.0111 3.49252 52.3039 2.9504 52.8157C2.40827 53.3275 2.07456 54.0219 2.01355 54.7653C1.94209 55.5199 2.16667 56.2729 2.63983 56.8648C3.113 57.4567 3.79762 57.8413 4.54894 57.9371C5.68785 58.0013 6.82931 58.007 7.9688 57.9541C7.98778 55.9836 7.98778 54.0301 7.98778 51.9936H7.98578ZM46.1327 40.2736C41.8624 44.9978 37.6591 49.676 33.4058 54.3772C33.6896 54.6272 33.9054 54.8283 34.1393 55.0453C38.4096 50.3211 42.6339 45.643 46.8493 40.9548C46.6224 40.7247 46.4016 40.5246 46.1347 40.2736H46.1327ZM43.9141 38.2731C39.6608 42.9813 35.4405 47.6755 31.2042 52.3767C31.488 52.6267 31.7038 52.8278 31.9547 53.0448C36.191 48.3366 40.4113 43.6625 44.6646 38.9542C44.3998 38.7052 44.166 38.5041 43.9161 38.2711L43.9141 38.2731ZM50.8867 36.4726C51.6203 35.7544 52.3049 35.0532 52.021 33.935C51.9378 33.546 51.7357 33.1925 51.4427 32.9237C51.1498 32.6548 50.7804 32.4839 50.386 32.4346C49.2348 32.2505 48.6012 33.0017 47.9676 33.8199C48.937 34.7152 49.9044 35.5824 50.8888 36.4676L50.8867 36.4726ZM45.2653 36.7897C46.2826 37.7079 47.2331 38.5591 48.2174 39.4604C48.6841 38.9432 49.1019 38.4751 49.5516 37.975C48.5342 37.0568 47.5668 36.1885 46.5824 35.3043C46.1227 35.8164 45.718 36.2836 45.2673 36.7847L45.2653 36.7897ZM29.4882 57.2539C30.5056 56.8538 31.387 56.5027 32.3574 56.1186C31.6399 55.4675 31.0063 54.9003 30.3387 54.2821C30.2717 54.4822 30.2388 54.5992 30.2048 54.7163C29.9719 55.5165 29.7551 56.3007 29.4882 57.2539Z" fill="#47BBC6"/>
<path d="M11.0053 28.0034C9.77336 28.1029 8.53592 27.8968 7.40258 27.4033C6.19075 26.8225 5.20958 25.8502 4.61713 24.6432C4.02469 23.4361 3.85547 22.0646 4.13675 20.7496C4.41804 19.4346 5.13345 18.2527 6.1677 17.3942C7.20195 16.5357 8.49483 16.0508 9.83804 16.0174C13.024 15.9844 16.21 16.0004 19.5619 16.0004C19.1951 15.6163 18.9113 15.3492 18.6445 15.0491C17.8767 14.3046 17.3453 13.35 17.1169 12.3047C16.8885 11.2595 16.9731 10.17 17.3603 9.17264C17.7997 8.0227 18.6517 7.07802 19.7498 6.52313C20.8479 5.96824 22.1132 5.843 23.2986 6.17187C24.4846 6.50099 25.5091 7.25328 26.179 8.2867C26.8488 9.32013 27.1174 10.5632 26.9343 11.7813C26.7534 13.0705 26.149 14.2628 25.2164 15.1702C24.9567 15.394 24.7166 15.6396 24.4988 15.9044C26.1168 15.8874 27.7178 16.2385 29.2688 15.7543C30.0574 15.4991 30.7442 14.9989 31.2295 14.3263C31.7147 13.6538 31.9731 12.8439 31.9671 12.0144C31.9841 10.0609 31.9841 8.09137 31.9841 6.13787C31.9841 6.12086 32.0011 6.10485 32.0171 6.03784H33.9738V11.8313C33.9983 12.647 33.8558 13.4591 33.5552 14.2176C33.2545 14.9761 32.8021 15.6651 32.2256 16.2421C31.649 16.8191 30.9607 17.272 30.2028 17.5729C29.445 17.8738 28.6336 18.0164 27.8187 17.9919C21.9144 18.0089 15.9932 17.9919 10.0879 17.9919C9.56437 17.9788 9.0434 18.069 8.55472 18.2573C8.06603 18.4457 7.61921 18.7286 7.23975 19.0898C6.86029 19.451 6.55562 19.8835 6.34316 20.3626C6.13069 20.8417 6.01459 21.3579 6.00147 21.8819C5.98835 22.4059 6.07845 22.9273 6.26667 23.4164C6.45488 23.9055 6.73752 24.3528 7.09842 24.7326C7.45932 25.1124 7.89142 25.4173 8.37006 25.6299C8.8487 25.8426 9.3645 25.9588 9.88801 25.972C10.2378 25.989 10.5876 25.972 10.9873 25.972V24.1855C11.0043 23.3503 11.3541 22.9852 12.1546 22.9852H19.8278C20.5953 22.9852 20.962 23.3693 20.962 24.1535C20.979 24.7206 20.979 25.2718 20.979 25.8399C20.979 25.8569 20.996 25.8729 21.029 25.9899H21.6626C23.7813 25.9899 25.9159 25.9729 28.0346 25.9899C29.4899 26.0005 30.8914 26.5423 31.976 27.5137C33.0607 28.485 33.7538 29.8191 33.9256 31.2656C34.0973 32.7121 33.7357 34.1716 32.9087 35.3703C32.0817 36.5689 30.8461 37.4243 29.4337 37.776C28.8489 37.9123 28.2491 37.9741 27.6488 37.96C21.7945 37.977 15.9562 37.96 10.1019 37.977C9.05466 37.9559 8.04112 38.3478 7.28011 39.0681C6.5191 39.7885 6.07167 40.7795 6.03441 41.8272C5.99714 42.8749 6.37305 43.8952 7.08096 44.6679C7.78887 45.4406 8.77199 45.9036 9.81806 45.957C10.5176 45.9901 11.2172 45.957 11.9527 45.957V47.8576C8.91662 48.2917 6.08141 47.5735 4.56337 44.4857C3.95681 43.2152 3.82172 41.7701 4.18224 40.409C4.54276 39.0479 5.37538 37.8597 6.53113 37.0568C7.6167 36.3045 8.91398 35.919 10.2338 35.9565C16.1054 35.9732 21.9767 35.9732 27.8477 35.9565C28.3858 35.9717 28.9215 35.8782 29.4228 35.6816C29.924 35.485 30.3806 35.1894 30.7651 34.8123C31.1497 34.4352 31.4544 33.9845 31.6611 33.4869C31.8678 32.9894 31.9722 32.4553 31.9681 31.9165C31.9762 30.9245 31.6064 29.9667 30.934 29.2379C30.2615 28.5091 29.337 28.0641 28.3484 27.9935C25.9129 27.8934 23.4944 27.9765 20.976 27.9765V30.6141C20.976 31.6494 20.6422 32.0335 19.6419 31.9495C19.2785 31.8804 18.9024 31.9391 18.5772 32.1155C18.252 32.2919 17.9976 32.5753 17.857 32.9177C17.5494 33.4645 17.2037 33.9889 16.8226 34.4871C16.7365 34.6392 16.6116 34.7657 16.4607 34.8537C16.3098 34.9416 16.1383 34.988 15.9637 34.988C15.789 34.988 15.6175 34.9416 15.4666 34.8537C15.3157 34.7657 15.1909 34.6392 15.1047 34.4871C14.605 33.787 14.1703 33.0517 13.6706 32.3666C13.5906 32.2589 13.4879 32.1702 13.3697 32.1068C13.2516 32.0434 13.1209 32.0067 12.9871 31.9995C10.9353 32.0825 10.9184 31.5994 10.9683 29.929C11.0223 29.3228 11.0053 28.7046 11.0053 28.0034ZM18.9453 30.04V25.0317H13.024V29.957C13.1569 29.9703 13.2903 29.9759 13.4238 29.974C13.7847 29.9078 14.1574 29.968 14.4793 30.1443C14.8012 30.3206 15.0527 30.6023 15.1917 30.9422C15.4085 31.3423 15.7083 31.7264 15.9752 32.1275C16.8436 31.1753 17.1104 29.5399 18.9453 30.04ZM22.0643 15.4653C22.7149 14.8311 23.4325 14.1799 24.0491 13.4648C24.388 13.0694 24.6433 12.6093 24.7996 12.1124C25.0522 11.4222 25.0501 10.6644 24.7935 9.97564C24.537 9.2869 24.0429 8.71261 23.4005 8.35642C22.7929 8.02283 22.0875 7.91361 21.4075 8.04781C20.7276 8.18202 20.1164 8.55112 19.6809 9.09062C19.2058 9.69395 18.9559 10.4442 18.9741 11.2122C18.9924 11.9801 19.2776 12.7176 19.7808 13.2977C20.4463 14.0799 21.2818 14.7131 22.0643 15.4653Z" fill="#47BBC6"/>
<path d="M39.5138 6.98509C40.2813 6.98509 41.0478 6.96808 41.8124 6.98509C41.9695 6.9661 42.1289 6.98339 42.2784 7.03564C42.4278 7.08789 42.5633 7.1737 42.6744 7.2865C42.7856 7.39929 42.8694 7.53605 42.9196 7.68632C42.9697 7.83659 42.9848 7.99638 42.9636 8.15339C42.9806 9.72279 42.9806 11.2752 42.9636 12.8446C42.9636 13.6128 42.5799 13.9799 41.7964 13.9969C40.2284 14.0139 38.6773 14.0139 37.1093 13.9969C36.3418 13.9969 35.975 13.6128 35.9581 12.8286C35.9411 11.2592 35.9411 9.70676 35.9581 8.13736C35.9371 7.9811 35.9525 7.82214 36.003 7.67279C36.0534 7.52345 36.1376 7.38778 36.249 7.2763C36.3604 7.16482 36.496 7.08056 36.6452 7.03005C36.7944 6.97954 36.9532 6.96416 37.1093 6.98509H39.5138ZM38.0297 9.02159V11.9434H40.9489V9.0226L38.0297 9.02159Z" fill="#47BBC6"/>
<path d="M35.9767 19.4222C35.9767 18.654 35.9597 17.8858 35.9767 17.1016C35.9575 16.9502 35.9732 16.7963 36.0225 16.6519C36.0719 16.5075 36.1536 16.3763 36.2614 16.2683C36.3693 16.1604 36.5004 16.0786 36.6447 16.0292C36.789 15.9798 36.9427 15.9641 37.094 15.9833C38.679 15.9663 40.263 15.9663 41.831 15.9833C41.9823 15.9641 42.136 15.9798 42.2803 16.0292C42.4246 16.0786 42.5557 16.1604 42.6636 16.2683C42.7714 16.3763 42.8531 16.5075 42.9025 16.6519C42.9518 16.7963 42.9675 16.9502 42.9483 17.1016C42.965 18.6873 42.965 20.2734 42.9483 21.8598C42.9675 22.0113 42.9518 22.1651 42.9025 22.3095C42.8531 22.4539 42.7714 22.5852 42.6636 22.6931C42.5557 22.8011 42.4246 22.8829 42.2803 22.9323C42.136 22.9817 41.9823 22.9973 41.831 22.9781C40.246 22.9951 38.662 22.9951 37.094 22.9781C36.9427 22.9973 36.789 22.9817 36.6447 22.9323C36.5004 22.8829 36.3693 22.8011 36.2614 22.6931C36.1536 22.5852 36.0719 22.4539 36.0225 22.3095C35.9732 22.1651 35.9575 22.0113 35.9767 21.8598V19.4222ZM40.9306 20.9746V18.0359H38.0324V20.9746H40.9306Z" fill="#47BBC6"/>
<path d="M39.4788 24.9987C40.2623 24.9987 41.0638 24.9817 41.8473 24.9987C41.9986 24.9795 42.1523 24.9951 42.2966 25.0445C42.4409 25.0939 42.572 25.1757 42.6798 25.2837C42.7877 25.3916 42.8694 25.5229 42.9187 25.6673C42.9681 25.8117 42.9838 25.9655 42.9646 26.117C42.9812 27.7027 42.9812 29.2888 42.9646 30.8752C42.9838 31.0266 42.9681 31.1805 42.9187 31.3249C42.8694 31.4693 42.7877 31.6005 42.6798 31.7085C42.572 31.8164 42.4409 31.8982 42.2966 31.9476C42.1523 31.997 41.9986 32.0127 41.8473 31.9935C40.2623 32.0105 38.6783 32.0105 37.1103 31.9935C36.959 32.0127 36.8053 31.997 36.661 31.9476C36.5167 31.8982 36.3856 31.8164 36.2777 31.7085C36.1699 31.6005 36.0881 31.4693 36.0388 31.3249C35.9894 31.1805 35.9737 31.0266 35.993 30.8752C35.9763 29.2895 35.9763 27.7034 35.993 26.117C35.9737 25.9655 35.9894 25.8117 36.0388 25.6673C36.0881 25.5229 36.1699 25.3916 36.2777 25.2837C36.3856 25.1757 36.5167 25.0939 36.661 25.0445C36.8053 24.9951 36.959 24.9795 37.1103 24.9987C37.8938 24.9817 38.6783 24.9987 39.4788 24.9987ZM40.9298 29.974V27.0362H38.0107V29.975L40.9298 29.974Z" fill="#47BBC6"/>
<path d="M14.0273 46.0341H15.9451V47.9706H14.0273V46.0341Z" fill="#47BBC6"/>
<path d="M19.949 47.9695H18.0312V46.05H19.949V47.9695Z" fill="#47BBC6"/>
<path d="M23.949 47.9695H22.0312V46.05H23.949V47.9695Z" fill="#47BBC6"/>
<path d="M21.9805 11.9903C21.7171 11.9795 21.468 11.8678 21.2848 11.6782C21.1015 11.4887 20.9982 11.2358 20.9961 10.9721C21.0042 10.7076 21.1149 10.4567 21.3049 10.2727C21.4949 10.0887 21.7491 9.98618 22.0134 9.98682C22.2767 9.9976 22.5258 10.1093 22.7091 10.2989C22.8923 10.4884 22.9957 10.7413 22.9978 11.0051C22.9842 11.2677 22.8717 11.5153 22.6829 11.6981C22.4941 11.881 22.2431 11.9854 21.9805 11.9903Z" fill="#47BBC6"/>
</svg>
