<svg width="60" height="65" viewBox="0 0 60 65" fill="none" xmlns="http://www.w3.org/2000/svg">
<path d="M13.3954 63.9857C13.1872 63.8419 13.0217 63.6429 12.9168 63.4102C12.812 63.1775 12.7718 62.9201 12.8006 62.6658C12.8221 59.959 12.8221 57.2524 12.8006 54.5463C12.7931 54.2264 12.6915 53.916 12.5089 53.6554C10.4807 51.0698 9.25544 47.9287 8.98922 44.6323C8.99575 44.5534 8.98649 44.4739 8.96199 44.3986C8.9375 44.3234 8.89827 44.254 8.84668 44.1946C8.79509 44.1352 8.73222 44.0871 8.66183 44.0531C8.59145 44.0191 8.51501 43.9999 8.43715 43.9967C7.64121 43.8487 6.90544 43.4666 6.32093 42.8976C5.73642 42.3286 5.32886 41.5977 5.14868 40.7955C4.92757 39.9802 4.94713 39.1168 5.20495 38.3127C5.46277 37.5086 5.94745 36.7994 6.59865 36.2734C6.80366 36.0701 6.92377 35.7943 6.93405 35.5033C6.99863 33.5012 6.85802 31.478 7.08509 29.496C7.33569 26.6694 8.30129 23.9567 9.88802 21.622C11.4748 19.2872 13.6286 17.4097 16.1401 16.1721C16.2489 16.0948 16.3727 16.0423 16.5033 16.0181C16.6338 15.9939 16.7679 15.9987 16.8965 16.0321C17.0251 16.0655 17.145 16.1267 17.2482 16.2116C17.3514 16.2964 17.4353 16.4029 17.4942 16.5238C17.7328 17.0302 17.538 17.5143 16.9318 17.8331C13.7747 19.447 11.2885 22.1549 9.9215 25.4686C9.18901 27.2234 8.80288 29.1076 8.78506 31.014C8.76319 32.4112 8.78506 33.819 8.78506 35.2724C8.99339 35.283 9.17463 35.2946 9.34754 35.3052C9.57659 35.3074 9.7962 35.3983 9.96171 35.5594C10.1272 35.7204 10.2262 35.9395 10.2386 36.1721C10.2509 36.4047 10.1756 36.6333 10.0281 36.8115C9.88062 36.9897 9.6719 37.1041 9.44442 37.1314C9.34754 37.1537 9.23609 37.1537 9.1413 37.1759C8.50735 37.2265 7.91618 37.5209 7.48812 37.9991C7.06006 38.4773 6.82729 39.1034 6.83719 39.75C6.85672 40.3978 7.11416 41.0147 7.55879 41.479C8.00341 41.9433 8.60296 42.2214 9.23922 42.2584C9.34 42.2675 9.44119 42.271 9.54234 42.269C10.4725 42.2913 10.7215 42.5445 10.7538 43.4904C10.7676 45.388 11.1504 47.2641 11.8801 49.0107C12.6099 50.7573 13.6721 52.3397 15.0058 53.6671C19.29 57.9255 24.418 59.2814 30.0981 57.3746C35.6699 55.5039 38.9698 51.4002 40.0302 45.5031C40.1326 44.8105 40.1976 44.1128 40.225 43.4131C40.2792 42.555 40.5281 42.2913 41.3937 42.269C42.0186 42.3187 42.6396 42.1316 43.1369 41.7435C43.6342 41.3555 43.9728 40.7941 44.0874 40.1674C44.1486 39.8328 44.1427 39.4892 44.0703 39.157C43.9979 38.8248 43.8603 38.5109 43.6658 38.234C43.4713 37.9571 43.2239 37.7229 42.9384 37.5455C42.6529 37.3681 42.3351 37.251 42.0041 37.2013C41.8225 37.1871 41.6419 37.1613 41.4635 37.124C41.3519 37.1083 41.2446 37.07 41.1479 37.0113C41.0512 36.9526 40.9671 36.8748 40.9005 36.7824C40.834 36.69 40.7864 36.585 40.7605 36.4735C40.7346 36.3621 40.7311 36.2465 40.75 36.1336C40.7584 35.9127 40.8513 35.7039 41.0089 35.5517C41.1665 35.3996 41.3764 35.316 41.5937 35.319C41.7666 35.3084 41.951 35.319 42.1999 35.319V31.9959C42.1999 31.7428 42.1895 31.5013 42.2104 31.2481C42.2061 31.0059 42.2966 30.7719 42.4619 30.5976C42.6273 30.4233 42.854 30.3229 43.0921 30.3185C43.3303 30.3142 43.5603 30.4062 43.7317 30.5744C43.9032 30.7425 44.0019 30.9731 44.0062 31.2152C44.0499 31.8974 44.0166 32.5796 44.028 33.2618C44.028 33.5701 44.0384 33.8783 44.028 34.1972C43.9695 34.6929 44.0196 35.1956 44.1749 35.6693C44.3301 36.1429 44.5866 36.5757 44.9259 36.9365C45.4168 37.5071 45.7511 38.1991 45.8953 38.9429C46.0394 39.6867 45.9882 40.456 45.7469 41.1733C45.5055 41.8906 45.0826 42.5305 44.5206 43.0286C43.9586 43.5267 43.2774 43.8654 42.5458 44.0105C42.1562 44.0984 42.0156 44.2308 41.9833 44.6376C41.7262 47.914 40.5174 51.0388 38.5104 53.6152C38.2978 53.9046 38.1804 54.2549 38.175 54.6162C38.1427 57.2782 38.1532 59.9519 38.1646 62.615C38.1973 62.8796 38.1604 63.1483 38.0577 63.3937C37.9551 63.6392 37.7903 63.8525 37.5803 64.0122H36.974C36.7543 63.9026 36.5738 63.726 36.4574 63.5071C36.3411 63.2881 36.2948 63.0378 36.3251 62.7908C36.3469 60.7443 36.3355 58.6977 36.3355 56.6469C36.3355 56.4488 36.3136 56.2613 36.3032 56.0749C29.0659 61.4 21.8921 61.3894 14.7089 56.0749C14.6943 56.118 14.6835 56.1623 14.6766 56.2073C14.6766 58.3746 14.6547 60.5419 14.6766 62.7209C14.7128 62.9761 14.6709 63.2365 14.5567 63.4667C14.4425 63.6969 14.2614 63.8859 14.0381 64.0079C13.7964 63.9857 13.5902 63.9857 13.3954 63.9857Z" fill="#47BBC6"/>
<path d="M25.0439 7.02397C25.2296 5.54037 25.8273 4.13883 26.7689 2.97893C27.7105 1.81902 28.9582 0.947358 30.3699 0.463182C31.8812 -0.0832661 33.5242 -0.147868 35.0735 0.278229C36.6229 0.704326 38.0028 1.60026 39.024 2.84318C39.1113 2.97745 39.2392 3.08015 39.389 3.13622C39.5388 3.19229 39.7026 3.19878 39.8563 3.15473C40.8306 2.95349 41.8399 3.00406 42.7892 3.30169C43.7386 3.59931 44.5967 4.13419 45.2827 4.85595C45.3862 4.94448 45.5061 5.01171 45.6355 5.05378C45.765 5.09585 45.9014 5.11194 46.037 5.10113C46.9735 4.96558 47.9278 5.02325 48.8413 5.27059C49.7548 5.51792 50.6082 5.94971 51.3491 6.53944C52.09 7.12918 52.7029 7.86444 53.1501 8.70007C53.5972 9.5357 53.8692 10.4541 53.9494 11.3989C54.0296 12.3436 53.9163 13.2949 53.6164 14.1942C53.3166 15.0935 52.8365 15.9219 52.2056 16.6286C51.5747 17.3353 50.8063 17.9053 49.9477 18.3037C49.089 18.7021 48.1582 18.9204 47.2123 18.9454C46.5 18.9675 45.7899 18.9675 45.0819 18.9454C44.9569 18.9581 44.8306 18.9448 44.711 18.906C44.5915 18.8673 44.4812 18.8042 44.3873 18.7205C44.2934 18.6369 44.2178 18.5346 44.1654 18.4201C44.113 18.3057 44.085 18.1816 44.0829 18.0557C44.0748 17.9241 44.0949 17.7924 44.1418 17.6692C44.1886 17.5461 44.2613 17.4344 44.3548 17.3418C44.4483 17.2491 44.5605 17.1775 44.6839 17.1319C44.8073 17.0862 44.9389 17.0676 45.0701 17.0771C45.7582 17.0546 46.4462 17.0878 47.1343 17.0546C48.0925 17.0579 49.0302 16.7765 49.8289 16.246C50.6275 15.7155 51.2514 14.9597 51.6216 14.074C52.0145 13.207 52.1554 12.2466 52.0282 11.3029C51.901 10.3593 51.5108 9.47076 50.9025 8.73928C50.2941 8.00781 49.4923 7.46307 48.5889 7.16761C47.6856 6.87216 46.7174 6.83795 45.7956 7.06893C45.5151 7.17607 45.2059 7.18117 44.9221 7.08335C44.6382 6.98553 44.3975 6.79098 44.2421 6.53362C43.7394 5.83223 43.0217 5.31467 42.1984 5.05975C41.375 4.80482 40.491 4.8265 39.6811 5.12147C38.7601 5.43302 38.5496 5.36664 38.0165 4.57652C37.3116 3.52497 36.2965 2.72039 35.113 2.27523C33.9295 1.83007 32.6368 1.76659 31.4155 2.09365C30.1943 2.42071 29.1055 3.12197 28.3014 4.09942C27.4973 5.07686 27.0181 6.28164 26.9307 7.54536C26.92 7.66741 26.9083 7.79054 26.8976 7.9233C26.8196 8.7905 26.4318 9.10098 25.577 8.98C24.5958 8.81637 23.5889 9.01938 22.7472 9.5505C21.9055 10.0816 21.2876 10.9039 21.0109 11.8613C20.7342 12.8187 20.8178 13.8445 21.2459 14.7442C21.674 15.6439 22.4168 16.3548 23.3334 16.742C23.8555 16.9413 24.4065 17.0541 24.9648 17.0761C25.8751 17.1317 26.7961 17.0868 27.7171 17.0985C28.465 17.1093 28.8709 17.454 28.8827 18.0321C28.8934 18.6327 28.4938 18.9775 27.7512 18.9775C26.5003 19.0315 25.2471 19.0018 24.0001 18.8886C22.5724 18.6717 21.2739 17.9368 20.3514 16.8236C19.4288 15.7104 18.9463 14.2965 18.9956 12.8503C19.0438 11.3726 19.6363 9.96516 20.6589 8.89936C21.6814 7.83357 23.0616 7.18494 24.5332 7.07857C24.7019 7.0482 24.8726 7.02995 25.0439 7.02397Z" fill="#47BBC6"/>
<path d="M31.9853 24.6385C32.9351 24.6385 33.8064 24.6283 34.6884 24.6385C35.649 24.6488 35.9953 25.0223 35.8275 25.9284C35.436 28.0596 35.0229 30.1806 34.6206 32.3016C34.6099 32.3765 34.6099 32.4504 34.5755 32.6751C37.1118 29.5967 39.5578 26.6323 42.0942 23.5426H39.3901C38.1498 23.5426 37.7766 23.0296 38.2617 21.9542C39.1889 19.876 40.1236 17.8012 41.0659 15.7298C41.3789 15.0474 41.9824 14.8135 42.5073 15.1654C42.7209 15.2979 42.8711 15.5053 42.9255 15.7427C42.9799 15.9801 42.934 16.2284 42.7977 16.4337C42.0942 17.99 41.394 19.5531 40.697 21.1231C40.6185 21.3047 40.5517 21.4853 40.4399 21.7387C41.579 21.7387 42.6407 21.7069 43.7023 21.749C44.0709 21.7545 44.4276 21.874 44.7188 22.0897C45.1652 22.495 44.9641 22.9526 44.6295 23.3795C42.7077 25.7054 40.7898 28.0357 38.8759 30.3704C37.2 32.4062 35.5414 34.442 33.8483 36.4563C33.6055 36.7437 33.2614 36.937 32.8802 37.0002C32.2661 37.0751 31.9122 36.5415 32.0316 35.817C32.2886 34.3569 32.579 32.908 32.8587 31.4478C33.1717 29.7958 33.4847 28.155 33.8085 26.4281C32.8813 26.4281 32.0326 26.4383 31.1721 26.4281C30.2341 26.4178 29.9093 26.1079 29.9986 25.2132C30.3005 22.1649 30.6131 19.117 30.9365 16.0694C31.0258 15.2383 31.5508 14.8381 32.1994 15.068C32.4291 15.1451 32.6199 15.302 32.7337 15.5074C32.8476 15.7128 32.8761 15.9516 32.8135 16.1762C32.5339 18.8615 32.2553 21.5581 31.9864 24.2435C31.9975 24.375 31.9972 24.5071 31.9853 24.6385Z" fill="#47BBC6"/>
</svg>
