<svg width="60" height="62" viewBox="0 0 60 62" fill="none" xmlns="http://www.w3.org/2000/svg">
<path d="M25.1731 57.9965C24.5991 57.821 24.0749 57.5115 23.6439 57.0934C23.2129 56.6753 22.8874 56.1607 22.6943 55.592C22.143 54.3413 21.4477 53.1594 20.6223 52.0702C20.0819 51.3701 19.3542 50.8376 18.5237 50.5343C17.6932 50.231 16.7938 50.1693 15.9297 50.3565C14.3991 50.5741 12.8547 50.7539 11.3128 50.9151C10.0482 51.0278 8.77768 50.776 7.65138 50.1896C7.143 49.9391 6.68978 49.5895 6.31835 49.1612C5.94692 48.733 5.66477 48.2348 5.48847 47.6959C5.31218 47.157 5.24531 46.5883 5.29177 46.0232C5.33823 45.4581 5.49709 44.908 5.75903 44.4052C5.79877 44.3318 5.83349 44.2559 5.86295 44.1778C5.29903 43.8272 4.46282 43.8554 4.28317 42.9849C4.20052 42.6514 4.18981 42.3042 4.25177 41.9663C4.31372 41.6284 4.44691 41.3076 4.64247 41.0253C4.41529 40.8262 4.18811 40.6367 3.98026 40.4481C3.77051 40.2921 3.60162 40.0876 3.488 39.8521C3.37438 39.6166 3.31941 39.3571 3.3278 39.0957C3.33619 38.8344 3.40768 38.5789 3.53617 38.3512C3.66466 38.1235 3.84633 37.9302 4.06566 37.788C4.41609 37.5132 4.72786 37.1819 5.13468 36.7941C4.65133 36.595 4.29284 36.4628 3.93274 36.3016C3.30424 36.1065 2.76618 35.693 2.41574 35.1357C2.06531 34.5784 1.9256 33.9141 2.02185 33.2627C2.08821 32.8641 2.23482 32.4831 2.45279 32.1429C2.67076 31.8028 2.95556 31.5105 3.28987 31.2838C4.40876 30.4577 5.39749 29.4684 6.22306 28.3488C6.43552 28.1227 6.55533 27.8249 6.55877 27.5145C6.5622 27.2041 6.44899 26.9038 6.24158 26.673C6.04213 26.3899 5.86207 26.0937 5.70263 25.7863C5.44179 25.395 5.29556 24.9385 5.28047 24.4684C5.26538 23.9984 5.38203 23.5334 5.61724 23.1262C6.41236 21.7438 6.36484 20.1727 6.65808 18.6767C6.88086 17.6258 7.16519 16.589 7.5096 15.5716C7.53704 15.4645 7.58696 15.3645 7.65604 15.2782C7.72512 15.1919 7.81178 15.1213 7.91025 15.0711C8.00872 15.021 8.11674 14.9923 8.22712 14.9872C8.3375 14.982 8.44771 15.0004 8.55043 15.0412C8.65557 15.0768 8.75224 15.1337 8.83437 15.2084C8.9165 15.2831 8.98232 15.3739 9.02771 15.4753C9.07309 15.5766 9.09705 15.6862 9.09809 15.7973C9.09914 15.9083 9.07725 16.0184 9.03379 16.1206C8.49804 17.6926 8.15187 19.323 8.00263 20.9772C7.81786 21.9225 7.52596 22.8436 7.13258 23.7227C7.02371 23.9326 6.97247 24.1677 6.98407 24.4039C6.99568 24.6401 7.06972 24.869 7.19864 25.0673C7.46368 25.484 7.71906 25.9096 7.9559 26.336C8.17543 26.7082 8.28568 27.1347 8.27399 27.5668C8.26231 27.9988 8.12917 28.4187 7.88984 28.7785C7.0996 30.078 6.07656 31.2205 4.87207 32.1487C4.5643 32.3769 4.27052 32.6235 3.99235 32.8871C3.86657 32.9951 3.76933 33.1325 3.7092 33.287C3.64907 33.4416 3.6279 33.6086 3.64757 33.7733C3.66724 33.938 3.72714 34.0953 3.82197 34.2313C3.91681 34.3673 4.04367 34.4779 4.19134 34.5532C4.55777 34.7531 4.94077 34.9208 5.33608 35.0546C6.80227 35.6318 7.13338 36.8062 6.16908 38.0556C5.85651 38.453 5.49721 38.8222 5.23216 39.1036C5.54474 39.4631 5.89437 39.8895 6.25367 40.2869C6.77408 40.864 6.76441 41.2332 6.20613 41.783C6.07401 41.9152 5.96043 42.0764 5.79931 42.2755C6.13041 42.4456 6.40512 42.5689 6.67016 42.7205C6.86765 42.819 7.04256 42.9574 7.18386 43.127C7.32517 43.2966 7.42979 43.4937 7.49111 43.7058C7.55243 43.9179 7.56912 44.1404 7.54013 44.3593C7.51115 44.5782 7.43711 44.7887 7.32269 44.9775C7.11223 45.3222 6.98287 45.7104 6.94438 46.1126C6.90589 46.5147 6.95928 46.9204 7.10052 47.2988C7.24176 47.6773 7.46716 48.0187 7.75965 48.2972C8.05215 48.5757 8.4041 48.7839 8.78889 48.9063C9.9477 49.3177 11.1952 49.4126 12.4028 49.1812C13.5951 49.0296 14.7874 48.8402 15.9885 48.6975C17.2376 48.5114 18.5137 48.6945 19.6602 49.2244C20.8066 49.7543 21.7733 50.6078 22.4414 51.68C23.1768 52.8324 23.8253 54.0382 24.3812 55.2873C24.8453 56.2433 25.261 56.4964 26.2833 56.2336C31.2506 54.9557 36.2147 53.6746 41.1756 52.3902C41.3872 52.3696 41.5905 52.2975 41.7678 52.1802C41.9452 52.0628 42.091 51.9038 42.1928 51.717C42.2945 51.5302 42.349 51.3213 42.3514 51.1086C42.3538 50.8959 42.3041 50.6858 42.2067 50.4967C42.0931 50.1654 41.961 49.8438 41.8659 49.5125C41.8243 49.4103 41.804 49.3006 41.8064 49.1902C41.8088 49.0798 41.8339 48.9711 41.8801 48.8708C41.9262 48.7705 41.9925 48.6807 42.0747 48.6071C42.157 48.5335 42.2534 48.4776 42.3582 48.4428C42.4609 48.4016 42.5711 48.3829 42.6817 48.3879C42.7922 48.3928 42.9003 48.4214 42.9989 48.4716C43.0975 48.5218 43.1842 48.5926 43.2532 48.6791C43.3222 48.7656 43.3719 48.8659 43.399 48.9732C43.6862 49.7178 43.8707 50.498 43.9476 51.2923C43.9436 51.9226 43.7204 52.5318 43.3165 53.0154C42.9126 53.499 42.353 53.8269 41.7338 53.9427C38.2238 54.8608 34.7042 55.7604 31.1942 56.6689C29.5196 57.1042 27.845 57.5459 26.1705 57.9941C25.8353 57.9965 25.5042 57.9965 25.1731 57.9965Z" fill="#47BBC6"/>
<path d="M42.3261 13.8628C42.9853 14.5045 43.5945 15.0981 44.2036 15.7014C45.6145 17.0997 45.1678 18.8421 43.2394 19.4357C42.7927 19.5694 42.346 19.7137 41.9002 19.8376C41.7881 19.8784 41.6683 19.8971 41.5483 19.8925C41.4283 19.8879 41.3105 19.8602 41.2023 19.811C41.0941 19.7618 40.9977 19.6922 40.919 19.6065C40.8404 19.5208 40.7812 19.4208 40.7451 19.3127C40.709 19.2046 40.6967 19.0906 40.709 18.9779C40.7214 18.8651 40.758 18.7559 40.8168 18.6571C40.8756 18.5582 40.9552 18.4717 41.0507 18.403C41.1462 18.3343 41.2557 18.2848 41.3723 18.2575C41.8293 18.0944 42.3054 17.9705 42.7624 17.8172C43.3309 17.6354 43.4122 17.3386 42.9957 16.9203C42.2855 16.202 41.5546 15.5033 40.8358 14.7948C39.7299 13.703 39.8517 13.0899 41.2824 12.4678C43.3223 11.5774 45.3717 10.6871 47.4115 9.79591C47.5843 9.71927 47.7468 9.63285 47.9697 9.52767C46.7117 8.34053 45.5039 7.19091 44.2658 6.05188C44.1908 6.01089 44.1064 5.98776 44.0198 5.9845C43.9333 5.98123 43.8472 5.99792 43.769 6.03312C40.7352 7.61325 37.7081 9.19963 34.6876 10.7923C34.1693 11.0605 34.1598 11.2709 34.5961 11.6891C35.7123 12.7491 36.8424 13.809 37.9656 14.869C38.7268 15.5873 38.6758 16.1906 37.8032 16.794C35.8756 18.1344 33.9472 19.4658 32.0292 20.8063C31.8642 20.9146 31.7257 21.055 31.6231 21.218L36.1288 19.8393C36.5348 19.7145 36.9409 19.571 37.3565 19.4658C37.4684 19.4298 37.5867 19.4151 37.7047 19.4226C37.8226 19.4302 37.9378 19.4597 38.0436 19.5097C38.1493 19.5596 38.2434 19.6289 38.3205 19.7134C38.3976 19.798 38.4561 19.8962 38.4926 20.0023C38.5271 20.1083 38.5387 20.2197 38.5268 20.33C38.5148 20.4403 38.4797 20.5472 38.4233 20.6444C38.367 20.7417 38.2906 20.8273 38.1986 20.8963C38.1066 20.9652 38.001 21.0161 37.8878 21.046C37.2831 21.2563 36.6705 21.4577 36.051 21.611C35.6449 21.7162 35.5439 21.8792 35.594 22.2714C35.8841 23.9604 35.714 25.6912 35.0997 27.301C34.4855 28.9108 33.4472 30.3467 32.0827 31.4733C31.8055 31.709 31.5141 31.9296 31.2101 32.1338C30.5915 32.5651 30.0532 32.5455 29.7189 32.1052C29.4044 31.6837 29.5565 31.2247 30.1552 30.8007C31.994 29.5644 33.2756 27.7231 33.7476 25.6396C34.0048 24.5475 34.0289 23.418 33.8185 22.3171C33.6664 22.3554 33.5748 22.3742 33.4832 22.4035C32.9251 22.5755 32.2046 22.5951 31.8495 22.949C31.5548 23.2458 31.6767 23.916 31.6265 24.4239C31.5418 25.3295 31.2526 26.2074 30.7782 26.9987C30.3039 27.7899 29.6554 28.4761 28.8765 29.011C28.3184 29.413 27.8216 29.3942 27.476 28.9825C27.1304 28.5707 27.2626 28.1011 27.8008 27.6991C28.4381 27.2693 28.9604 26.7052 29.3262 26.0515C29.692 25.3978 29.8912 24.6726 29.908 23.9336C29.9248 23.1945 29.7587 22.462 29.4229 21.7941C29.0871 21.1262 28.5908 20.5415 27.9736 20.0863C27.882 20.0097 27.7913 19.9428 27.7101 19.8662C27.5455 19.7306 27.4429 19.5401 27.4241 19.3347C27.4052 19.1292 27.4715 18.9249 27.609 18.7646C27.6722 18.6748 27.7547 18.5986 27.8512 18.541C27.9477 18.4834 28.0561 18.4457 28.1691 18.4303C28.2821 18.4149 28.3973 18.4222 28.5072 18.4517C28.617 18.4812 28.719 18.5323 28.8065 18.6016C29.3249 18.9848 29.801 19.4251 30.3617 19.8947C30.9198 19.5017 31.5289 19.0794 32.2287 18.5828C31.5592 17.9893 30.9604 17.434 30.328 16.9163C29.7802 16.4662 29.6368 15.9974 29.9824 15.5946C30.0676 15.4972 30.1745 15.4188 30.2956 15.365C30.4167 15.3111 30.5488 15.2832 30.6826 15.2832C30.8165 15.2832 30.9486 15.3111 31.0697 15.365C31.1908 15.4188 31.2977 15.4972 31.3829 15.5946C32.1544 16.2167 32.8741 16.8869 33.6664 17.5865C34.5192 17.0027 35.4324 16.37 36.3862 15.7112C35.3814 14.763 34.4077 13.8539 33.4435 12.9342C32.0335 11.5937 32.246 10.1571 34.0016 9.22844C35.3313 8.52969 36.6705 7.83013 38.0097 6.99767C37.0048 6.78731 36.0009 6.53781 34.9857 6.36578C32.6692 5.97496 30.3165 5.80804 27.9641 5.8676C27.5987 5.87739 27.3956 5.95403 27.2842 6.30789C27.152 6.74817 26.9593 7.1697 26.7468 7.73473C27.4466 7.73473 28.0661 7.71598 28.6847 7.73473C29.0458 7.70802 29.4075 7.7775 29.7288 7.93528C30.0501 8.09305 30.318 8.33277 30.502 8.62716C30.6861 8.92155 30.7788 9.25878 30.7697 9.60047C30.7606 9.94215 30.6501 10.2746 30.4507 10.5599L26.2802 18.3162C26.2146 18.4502 26.1366 18.5785 26.0469 18.6994C25.8679 18.977 25.5971 19.1913 25.2762 19.3092C24.9553 19.4271 24.6022 19.442 24.2714 19.3517C23.9379 19.2577 23.6505 19.0549 23.4606 18.7796C23.2707 18.5042 23.1906 18.1741 23.2347 17.8482C23.3358 16.891 23.5086 15.9428 23.6511 14.9945C23.7833 14.1042 23.925 13.2008 24.0771 12.2175H20.9054C20.5802 12.2458 20.2528 12.1956 19.9538 12.0716C19.6549 11.9477 19.3942 11.754 19.1964 11.5089C18.9985 11.2637 18.87 10.9751 18.8229 10.6702C18.7757 10.3653 18.8115 10.054 18.9269 9.76575C19.1403 9.0189 19.3735 8.28183 19.6267 7.44855C17.9498 8.02897 16.3914 8.87765 15.0199 9.95735C14.2057 10.6447 13.4302 11.3719 12.6967 12.1359C12.1783 12.6626 11.7325 12.7882 11.2866 12.4327C10.8607 12.0976 10.8806 11.6092 11.3376 11.0638C13.49 8.59254 16.3238 6.73033 19.5265 5.68253C19.7582 5.63019 19.9688 5.51551 20.1327 5.35239C20.2967 5.18928 20.4069 4.98475 20.4501 4.76364C20.6531 3.90182 20.9468 3.05958 21.2216 2.20673C21.299 1.8381 21.5185 1.50965 21.8377 1.28494C22.1569 1.06023 22.5531 0.95523 22.9496 0.990248C24.2792 0.980464 25.6184 0.980464 26.9472 0.990248C27.2284 0.966626 27.5112 1.01369 27.7668 1.12666C28.0224 1.23963 28.2418 1.41446 28.4026 1.63339C28.5634 1.85232 28.6599 2.10753 28.6823 2.37308C28.7047 2.63862 28.6521 2.90502 28.53 3.14519C28.4186 3.45176 28.2968 3.75832 28.1542 4.12359C28.3771 4.14235 28.5395 4.16192 28.7123 4.16192C32.4982 4.14607 36.2638 4.68547 39.8741 5.7608C40.1463 5.82184 40.4323 5.79485 40.6863 5.68415C41.4777 5.31073 42.2285 4.8892 43 4.48724C43.3879 4.22085 43.8702 4.1069 44.3453 4.16941C44.8204 4.23192 45.2512 4.466 45.5471 4.82234C46.6633 5.86598 47.7727 6.91288 48.8751 7.96303C49.9404 8.96835 50.0216 9.57169 49.2812 10.692C50.1538 11.7071 51.0878 12.6553 51.8688 13.7177C53.7712 16.3243 54.8192 19.4013 54.8824 22.5658C55.0388 25.1172 54.8375 27.6769 54.2837 30.1786C53.4819 33.4245 51.4835 36.0009 49.0479 38.3181C48.5237 38.8673 47.9575 39.3794 47.3537 39.8501C46.8825 40.2021 46.5193 40.6663 46.3017 41.1949C46.084 41.7235 46.0198 42.2973 46.1156 42.8571C46.1665 43.5175 46.2676 44.1788 46.3696 44.8392C46.4612 45.4426 46.2374 45.8641 45.7199 45.9693C45.1617 46.0842 44.7695 45.7874 44.6338 45.1539C44.2908 43.8012 44.2459 42.3965 44.5016 41.0267C44.695 40.2502 45.1255 39.5443 45.7397 38.9965C47.0081 37.8183 48.2971 36.6508 49.4739 35.3862C51.4224 33.3296 52.6241 30.7396 52.9039 27.9935C53.2999 25.2958 53.2486 22.5563 52.7518 19.8735C52.0785 16.77 50.3492 13.9591 47.8271 11.8685C47.75 11.7985 47.6567 11.7465 47.5545 11.7167C47.4524 11.6868 47.3442 11.6799 47.2387 11.6965C45.6032 12.4074 43.9997 13.1258 42.3261 13.8628ZM20.5304 10.5689C20.7939 10.5786 20.9062 10.5876 21.0177 10.5876C22.2558 10.5876 23.4835 10.5778 24.7216 10.5876C24.8986 10.5637 25.0791 10.5815 25.247 10.6396C25.4148 10.6976 25.5648 10.7941 25.6835 10.9203C25.8022 11.0465 25.8858 11.1985 25.9269 11.3627C25.968 11.5269 25.9653 11.6982 25.9191 11.8612C25.8785 12.2061 25.8076 12.5509 25.7566 12.9048C25.5743 14.0634 25.4015 15.222 25.2192 16.3708C25.2612 16.3792 25.3021 16.3921 25.3411 16.4091C26.5688 14.1205 27.7965 11.8432 29.0346 9.55294C29.0049 9.49043 28.9711 9.42971 28.9335 9.37112C27.9589 9.37112 26.9852 9.38091 26.0115 9.37112C24.916 9.36134 24.4892 8.77755 24.8546 7.80078C25.4231 6.30707 26.0115 4.82234 26.5895 3.32864C26.6604 3.14682 26.7217 2.95522 26.8029 2.72529H22.896C22.1132 5.32133 21.3322 7.89617 20.5304 10.5689Z" fill="#47BBC6"/>
<path d="M16.9766 23.756C16.9739 22.7318 17.2484 21.7207 17.779 20.8008C18.3095 19.8809 19.082 19.0767 20.0367 18.4504C20.1924 18.3059 20.4059 18.2156 20.6357 18.1973C20.8654 18.179 21.095 18.2339 21.2797 18.3513C21.5448 18.5909 21.7061 18.8999 21.737 19.2276C21.76 19.4166 21.5024 19.6853 21.2917 19.8209C20.5763 20.2949 20.0004 20.9035 19.6095 21.5988C19.2187 22.2941 19.0235 23.0569 19.0393 23.8272C19.0552 24.5974 19.2817 25.354 19.701 26.0373C20.1203 26.7205 20.7209 27.3116 21.4554 27.7641C21.5816 27.8248 21.6911 27.9077 21.7765 28.0073C21.8618 28.1068 21.9211 28.2207 21.9504 28.3413C21.9796 28.4619 21.9781 28.5864 21.9461 28.7065C21.914 28.8266 21.852 28.9395 21.7643 29.0376C21.6767 29.1357 21.5653 29.2167 21.4377 29.2752C21.3101 29.3338 21.1692 29.3685 21.0245 29.377C20.8798 29.3856 20.7346 29.3678 20.5987 29.3248C20.4628 29.2818 20.3392 29.2146 20.2364 29.1278C19.2285 28.5173 18.4069 27.7114 17.84 26.7771C17.273 25.8428 16.977 24.807 16.9766 23.756Z" fill="#47BBC6"/>
<path d="M12.981 24.3456C12.9638 22.6963 13.357 21.0659 14.1296 19.5839C14.9022 18.1019 16.0327 16.8091 17.4316 15.808C17.7628 15.6226 18.1584 15.5661 18.5335 15.6506C18.6656 15.7234 18.7755 15.8268 18.8527 15.9509C18.9298 16.0749 18.9716 16.2155 18.9741 16.3591C18.9092 16.6868 18.7184 16.9809 18.4379 17.1858C16.6081 18.4884 15.3829 20.4007 15.0159 22.5265C14.9021 23.5791 14.8881 24.6391 14.9739 25.694C14.9945 26.2803 14.7952 26.6873 14.2813 26.7828C14.1519 26.8055 14.0188 26.802 13.891 26.7726C13.7631 26.7431 13.6435 26.6883 13.5401 26.6119C13.4368 26.5355 13.352 26.4393 13.2917 26.3296C13.2313 26.22 13.1967 26.0995 13.1901 25.9763C13.0757 25.3783 13.0337 24.7686 12.981 24.3456Z" fill="#47BBC6"/>
<path d="M24.8926 26.7972C24.3005 26.7847 23.7259 26.6215 23.2415 26.328C22.7571 26.0345 22.3844 25.6239 22.1707 25.1481C21.957 24.6723 21.9117 24.1526 22.0406 23.6547C22.1695 23.1568 22.4668 22.7029 22.895 22.3505C23.3232 21.998 23.863 21.7627 24.4464 21.6743C25.0297 21.5859 25.6303 21.6484 26.1725 21.8538C26.7146 22.0593 27.1739 22.3985 27.4923 22.8287C27.8108 23.2588 27.9741 23.7606 27.9617 24.2707C27.9417 24.9557 27.6077 25.6061 27.0325 26.0795C26.4574 26.553 25.688 26.811 24.8926 26.7972ZM24.9495 25.0904C25.1511 25.0949 25.3497 25.0481 25.5206 24.9558C25.6914 24.8636 25.8269 24.7299 25.91 24.5717C25.9931 24.4134 26.0202 24.2375 25.9878 24.0661C25.9554 23.8946 25.8651 23.7352 25.728 23.6078C25.591 23.4804 25.4133 23.3906 25.2173 23.3497C25.0213 23.3089 24.8156 23.3187 24.6261 23.378C24.4366 23.4374 24.2716 23.5435 24.1517 23.6832C24.0319 23.8229 23.9626 23.99 23.9525 24.1635C23.9441 24.3995 24.0437 24.629 24.2298 24.8023C24.4159 24.9757 24.6737 25.0792 24.9475 25.0904H24.9495Z" fill="#47BBC6"/>
<path d="M15.9344 28.5186C16.2558 28.6624 16.564 28.8184 16.8576 28.9855C17.7366 29.5419 18.5685 30.1295 19.4598 30.6699C19.9727 30.9914 20.1348 31.3436 19.785 31.6652C19.7049 31.7457 19.5983 31.8135 19.4729 31.8639C19.3474 31.9143 19.2063 31.9458 19.0598 31.9563C18.9132 31.9668 18.7649 31.9559 18.6257 31.9245C18.4864 31.893 18.3597 31.8418 18.2546 31.7746C17.1646 31.1231 16.1272 30.4353 15.1467 29.7139C15.0515 29.601 14.9948 29.4761 14.9803 29.3477C14.9658 29.2192 14.9938 29.0903 15.0625 28.9695C15.1631 28.8007 15.5846 28.6987 15.9344 28.5186Z" fill="#47BBC6"/>
</svg>
