<svg width="60" height="61" viewBox="0 0 60 61" fill="none" xmlns="http://www.w3.org/2000/svg">
<path d="M59.968 39.5112C59.9114 42.4449 58.5604 45.9165 56.4125 49.0612C53.0944 54.2358 48.0187 57.9616 42.171 59.5151C39.459 60.3106 36.5652 60.1514 33.9518 59.0631C32.7597 58.5336 31.6891 57.754 30.8089 56.7744C29.0531 54.8506 27.3286 52.8988 25.5171 51.042C24.2466 49.7584 23.3181 48.1624 22.8205 46.4063C22.3229 44.6502 22.2727 42.7927 22.6747 41.0111C23.7067 35.1057 26.9715 30.5862 31.4284 26.9026C34.3641 24.3649 37.9193 22.6958 41.7115 22.0751C45.7177 21.4692 49.2829 22.3061 52.0883 25.5748C53.6832 27.4306 55.3531 29.2104 57.0416 30.9602C59.0774 33.078 59.9875 35.6066 59.968 39.5112ZM51.1578 36.1256C50.9237 36.1546 50.792 36.1636 50.6603 36.1836C48.1368 36.6256 45.6036 37.0785 43.0791 37.5105C37.1776 38.5397 31.2733 39.5782 25.366 40.6261C25.2501 40.6627 25.1446 40.7272 25.058 40.8142C24.9715 40.9012 24.9065 41.0081 24.8685 41.1261C24.7203 42.0897 24.6512 43.0643 24.6617 44.0397C24.6695 45.7117 25.2501 47.3277 26.302 48.6055C27.3539 49.8833 28.8103 50.7418 30.4168 51.031C32.1399 51.3781 33.9175 51.319 35.615 50.858C40.3351 49.5966 44.5191 46.7779 47.5213 42.8369C49.1452 40.8619 50.3804 38.5832 51.1587 36.1266L51.1578 36.1256ZM25.5162 38.2604C25.9756 38.2224 26.199 38.2224 26.4165 38.1834C34.2129 36.8082 42.0126 35.433 49.8155 34.0578C51.8981 33.6919 51.8981 33.6829 51.7947 31.4511C51.8071 29.7077 51.2003 28.0193 50.0874 26.7009C48.9746 25.3824 47.4318 24.524 45.747 24.2859C43.9904 23.9808 42.1892 24.0892 40.4795 24.6029C35.1855 26.1377 30.6231 29.6068 27.6544 34.3548C26.8779 35.5397 26.2868 36.8475 25.5171 38.2614L25.5162 38.2604ZM30.7143 53.4167C31.3337 54.0896 31.8683 54.6576 32.3843 55.2345C33.4506 56.4288 34.8664 57.2358 36.4187 57.5343C38.2318 57.9148 40.1085 57.8289 41.8813 57.2843C45.0669 56.376 48.019 54.7612 50.5287 52.5542C53.0383 50.3473 55.0443 47.602 56.4047 44.5127C57.4085 42.4097 57.8782 40.081 57.7703 37.7424C57.6386 34.8428 56.0067 32.876 54.008 31.0432C54.8479 41.55 42.5368 54.5816 30.7153 53.4177L30.7143 53.4167Z" fill="#47BBC6"/>
<path d="M17.8617 0.0136598C20.7904 -0.119788 23.6819 0.727462 26.0994 2.4274C27.6383 3.53899 28.7239 5.1928 29.1486 7.07289C29.5388 8.74671 29.9553 10.4195 30.4245 12.0643C30.7837 13.285 30.8545 14.5758 30.6309 15.83C30.4074 17.0842 29.8959 18.266 29.1388 19.2776C27.3307 21.8236 24.7455 23.6783 21.7928 24.548C17.7115 25.8948 13.6585 25.9808 9.73622 23.981C8.59217 23.4498 7.58549 22.651 6.79695 21.6489C6.0084 20.6469 5.45993 19.4693 5.19552 18.2107C4.81997 16.5109 4.28542 14.845 3.92743 13.1422C3.12074 9.28565 4.53709 6.24298 7.41758 3.84324C10.3756 1.39148 14.0578 0.0413191 17.8617 0.0136598ZM21.6142 2.74536C21.4452 2.67883 21.273 2.62109 21.0982 2.57238C18.7806 2.08891 16.3841 2.17782 14.1066 2.83173C11.8292 3.48565 9.73628 4.68579 8.0009 6.33297C6.80044 7.39243 6.02233 8.86771 5.81492 10.4775C5.61983 13.1772 6.97863 14.95 9.1929 16.1899C9.27347 16.2569 9.3671 16.3054 9.46748 16.3322C9.56787 16.359 9.67268 16.3634 9.77488 16.3452C9.87709 16.327 9.9743 16.2866 10.06 16.2267C10.1457 16.1668 10.2179 16.0888 10.2717 15.9979C12.8147 12.9872 15.385 10.0156 17.9466 7.0249C19.1561 5.61305 20.3666 4.2072 21.6142 2.74536ZM12.091 17.2288C15.9855 17.9352 19.9954 17.0629 23.2745 14.7961C24.9494 13.7338 26.2179 12.1144 26.868 10.2085C27.2491 8.91458 27.1392 7.52082 26.5604 6.30636C25.9816 5.09191 24.9765 4.14643 23.7466 3.65927C19.9072 8.13078 16.0591 12.6123 12.091 17.2288ZM7.32492 17.7387C7.29995 18.15 7.35974 18.5621 7.50041 18.9482C7.64108 19.3343 7.85946 19.6857 8.14136 19.9795C8.89558 20.7785 9.7659 21.4531 10.7214 21.9793C15.6094 24.249 20.2915 23.4891 24.7103 20.6234C26.4583 19.5731 27.7626 17.8936 28.3692 15.9119C28.7166 14.8383 28.6821 13.6733 28.2717 12.6233C24.6918 18.9886 14.0516 21.9703 7.32492 17.7387Z" fill="#47BBC6"/>
<path d="M2.16621 46.0987C2.05294 47.3911 2.36696 48.685 3.05777 49.7723C3.95068 51.1631 5.19181 52.2823 6.65131 53.013C9.83376 54.6712 13.4358 55.2889 16.9715 54.7827C18.9877 54.5606 20.9435 53.9434 22.7325 52.965C22.8589 52.8743 23.0023 52.8118 23.1537 52.7815C23.3051 52.7512 23.4609 52.7538 23.6112 52.7892C23.7616 52.8245 23.903 52.8918 24.0263 52.9866C24.1497 53.0815 24.2523 53.2019 24.3274 53.3399C24.4029 53.4844 24.4473 53.6439 24.4575 53.8075C24.4677 53.9712 24.4435 54.1351 24.3865 54.2883C24.3295 54.4415 24.2411 54.5804 24.1273 54.6955C24.0134 54.8107 23.8767 54.8994 23.7265 54.9557C20.8749 56.4831 17.692 57.2441 14.4754 57.1675C11.3961 57.1959 8.35747 56.4463 5.62807 54.9848C4.20872 54.2368 2.9487 53.207 1.92137 51.9551C0.672234 50.4495 -0.00429367 48.532 0.016321 46.5556C0.0348545 44.7188 0.0631404 42.8721 0.00656447 41.0353C-0.047294 39.6317 0.230904 38.2357 0.817416 36.9662C1.40393 35.6968 2.28134 34.5916 3.37478 33.7451C5.86463 31.7188 8.87756 30.4819 12.0436 30.1864C15.7098 29.6671 19.4445 30.2239 22.8145 31.7923C23.1796 31.9527 23.4691 32.253 23.6212 32.6292C23.6555 32.8248 23.6427 33.0261 23.5839 33.2155C23.525 33.4049 23.422 33.5767 23.2837 33.716C23.0978 33.8261 22.8911 33.8942 22.6774 33.9158C22.4638 33.9373 22.2481 33.9118 22.0448 33.841C19.6866 32.7871 17.1391 32.2515 14.5665 32.2688C11.9939 32.286 9.45342 32.8556 7.1088 33.941C6.82689 34.076 6.55572 34.249 6.18895 34.451C6.44257 34.605 6.6201 34.72 6.80836 34.8169C11.0958 36.9907 15.3877 39.1675 19.6843 41.3472C19.9326 41.4595 20.1712 41.5933 20.3973 41.7472C20.6125 41.8881 20.7672 42.1078 20.8299 42.3616C20.8926 42.6153 20.8586 42.8841 20.7348 43.113C20.6428 43.3564 20.4622 43.5536 20.2311 43.6631C20 43.7725 19.7364 43.7858 19.496 43.7C19.2161 43.6094 18.9458 43.4902 18.6893 43.344C14.0722 40.9976 9.45507 38.6542 4.83795 36.3138C4.64286 36.2078 4.43412 36.1218 4.23708 36.0348C3.68198 36.487 3.21973 37.0475 2.877 37.6838C2.53427 38.32 2.31785 39.0196 2.24023 39.7421C2.1626 40.4645 2.2253 41.1956 2.42472 41.8931C2.62414 42.5906 2.95631 43.2407 3.4021 43.8059C4.96807 45.7686 7.12138 47.1476 9.52888 47.7295C13.0006 48.7607 16.6921 48.7172 20.1398 47.6045C20.29 47.5566 20.4402 47.4985 20.5992 47.4605C20.7353 47.4149 20.879 47.398 21.0216 47.4108C21.1643 47.4237 21.3029 47.466 21.4291 47.5352C21.5554 47.6045 21.6666 47.6992 21.7562 47.8137C21.8457 47.9282 21.9117 48.0601 21.9502 48.2015C22.0009 48.3394 22.022 48.4869 22.0121 48.6339C22.0023 48.7809 21.9617 48.9241 21.8931 49.0536C21.8246 49.1832 21.7297 49.2961 21.6148 49.3847C21.4999 49.4733 21.3678 49.5356 21.2274 49.5673C20.0386 49.9504 18.8256 50.2494 17.5968 50.4622C13.7117 51.1195 9.72338 50.5282 6.17919 48.7694C4.79628 47.9528 3.45672 47.0612 2.16621 46.0987Z" fill="#47BBC6"/>
</svg>
