<svg width="60" height="61" viewBox="0 0 60 61" fill="none" xmlns="http://www.w3.org/2000/svg">
<path d="M3.99777 34.219C4.60818 32.9844 5.41004 31.8623 6.37126 30.8976C8.39664 28.6774 10.6475 26.691 13.0846 24.9731C13.5593 24.6352 13.9794 24.6918 14.2375 25.0855C14.2977 25.1813 14.3381 25.289 14.3563 25.4018C14.3745 25.5146 14.3701 25.63 14.3434 25.741C14.3166 25.8519 14.2681 25.9559 14.2009 26.0465C14.1336 26.1371 14.0491 26.2123 13.9526 26.2675C13.8711 26.3241 13.7897 26.3799 13.6927 26.4473C11.6016 27.9383 9.65757 29.6401 7.88891 31.5277C7.21065 32.2594 6.57309 33.0477 5.96326 33.8361C5.46171 34.4653 5.48857 34.4976 5.94941 35.1304C7.47315 37.1524 9.22637 38.9762 11.1711 40.5624C14.5605 43.4847 18.4411 45.7318 22.6175 47.1907C28.388 49.1608 34.6659 48.7681 40.1666 46.0932C45.3382 43.7639 49.9198 40.2236 53.5525 35.7498C54.7185 34.2999 54.7185 34.6801 53.5664 33.2734C49.5681 28.3233 44.4064 24.5278 38.5805 22.254C31.732 19.552 25.0594 20.2135 18.5497 23.5205C18.0888 23.7452 17.6548 24.0131 17.1931 24.2396C17.1041 24.3043 17.0027 24.3484 16.8958 24.369C16.789 24.3897 16.6791 24.3864 16.5736 24.3593C16.4681 24.3323 16.3693 24.2822 16.284 24.2123C16.1987 24.1424 16.1288 24.0544 16.0789 23.9542C16.0291 23.854 16.0005 23.7438 15.995 23.6312C15.9895 23.5185 16.0073 23.406 16.0472 23.3011C16.0871 23.1961 16.1482 23.1013 16.2263 23.0229C16.3044 22.9445 16.3978 22.8843 16.5002 22.8464C20.528 20.4611 25.0598 19.1416 29.6955 19.0046C34.0766 18.9944 38.3949 20.0856 42.2811 22.1848C46.8434 24.523 50.9284 27.7523 54.3122 31.6958C54.6102 32.0473 54.909 32.4149 55.1784 32.7934C56.2361 34.2855 56.2361 34.7358 55.1646 36.2271C54.8248 36.7087 54.4581 37.1691 54.0662 37.606C49.9421 42.3365 44.7977 45.9872 39.0535 48.2595C35.9346 49.5055 32.6086 50.0977 29.2678 50.0018C25.927 49.9058 22.6377 49.1236 19.59 47.7004C14.2201 45.324 9.43613 41.7212 5.59425 37.1601C4.99741 36.4563 4.54956 35.6266 4.02116 34.8662C4.00013 34.6512 3.99233 34.435 3.99777 34.219Z" fill="#47BBC6"/>
<path d="M29.9795 23.0054C31.6458 23.028 33.2897 23.3919 34.8092 24.0744C36.3288 24.757 37.6915 25.7436 38.813 26.9732C39.9345 28.2028 40.7907 29.6492 41.3287 31.2225C41.8667 32.7959 42.0749 34.4627 41.9405 36.1197C41.7706 38.0313 41.1415 39.8739 40.1065 41.4916C39.0715 43.1094 37.661 44.4545 35.9945 45.4133C34.328 46.3721 32.4544 46.9163 30.5324 46.9998C28.6104 47.0833 26.6965 46.7036 24.9528 45.893C24.2777 45.5769 24.0567 45.2055 24.2636 44.7244C24.4704 44.2704 24.9387 44.1747 25.5838 44.4908C27.0285 45.164 28.6087 45.4976 30.2029 45.4661C31.7971 45.4347 33.3628 45.0388 34.7797 44.3092C36.1965 43.5795 37.4267 42.5354 38.3757 41.2572C39.3246 39.979 39.967 38.5007 40.2535 36.936C40.54 35.3713 40.463 33.7618 40.0283 32.2315C39.5936 30.7012 38.8129 29.2906 37.7461 28.1084C36.6794 26.9263 35.355 26.0039 33.8749 25.4122C32.3948 24.8206 30.7984 24.5754 29.2085 24.6956C27.2487 24.7825 25.3585 25.4464 23.7764 26.6035C22.1943 27.7606 20.9911 29.3591 20.3185 31.1974C18.7342 35.1565 19.4779 38.8266 22.2752 42.071C22.7153 42.5793 22.7576 42.992 22.3993 43.3353C22.0552 43.6655 21.586 43.6102 21.1864 43.1703C19.785 41.6646 18.7973 39.8234 18.319 37.8251C17.8407 35.8267 17.8881 33.739 18.4565 31.7642C19.0248 29.7895 20.095 27.9947 21.5631 26.5538C23.0313 25.1129 24.8477 24.0749 26.8364 23.5402C27.8706 23.2689 28.9321 23.181 29.9795 23.0054Z" fill="#47BBC6"/>
<path d="M20.9883 34.9918C20.9904 33.4897 21.3678 32.0121 22.0861 30.6935C22.8044 29.375 23.8407 28.2576 25.1006 27.4433C26.3604 26.6289 27.8037 26.1435 29.2988 26.0313C30.794 25.9191 32.2933 26.1836 33.6602 26.8008C33.8595 26.873 34.0454 26.9778 34.2103 27.1111C34.3607 27.2262 34.4598 27.3959 34.4862 27.5836C34.5127 27.7713 34.4643 27.9618 34.3517 28.1141C34.2626 28.2797 34.1131 28.4044 33.9344 28.4622C33.7558 28.52 33.5618 28.5065 33.3929 28.4244C32.8958 28.2092 32.3876 28.0207 31.8704 27.8598C30.8875 27.5939 29.8603 27.5344 28.8534 27.685C27.8464 27.8356 26.8814 28.1932 26.0188 28.7352C25.1563 29.2772 24.4149 29.9919 23.8412 30.8345C23.2675 31.6772 22.8738 32.6296 22.6848 33.6319C22.4958 34.6342 22.5157 35.6648 22.7431 36.659C22.9706 37.6533 23.4007 38.5897 24.0064 39.4096C24.6122 40.2294 25.3806 40.9149 26.2633 41.4232C27.1461 41.9314 28.1241 42.2514 29.1362 42.363C30.5423 42.5717 31.9786 42.3455 33.2531 41.7147C34.5276 41.0838 35.5795 40.0784 36.2685 38.8326C37.0367 37.6365 37.4301 36.2374 37.398 34.8154C37.3659 33.3934 36.9098 32.0136 36.0884 30.8535C36.0461 30.7831 35.9894 30.7119 35.9471 30.628C35.8703 30.5431 35.8125 30.4428 35.7777 30.3337C35.7429 30.2246 35.7318 30.1093 35.7452 29.9955C35.7586 29.8818 35.7961 29.7722 35.8553 29.6742C35.9145 29.5762 35.994 29.4921 36.0884 29.4274C36.1851 29.3664 36.2935 29.3262 36.4066 29.3095C36.5197 29.2929 36.635 29.3001 36.7452 29.3306C36.8554 29.3612 36.958 29.4145 37.0464 29.4871C37.1349 29.5597 37.2072 29.6499 37.2588 29.7522C38.2294 31.0634 38.815 32.6203 38.9494 34.2473C39.0839 35.8742 38.7618 37.5064 38.0196 38.9598C37.1305 40.7893 35.6477 42.2621 33.8141 43.1372C31.9804 44.0123 29.9046 44.2378 27.9264 43.7767C25.9482 43.3157 24.1848 42.1954 22.925 40.5992C21.6652 39.0031 20.9836 37.0258 20.9919 34.991L20.9883 34.9918Z" fill="#47BBC6"/>
<path d="M29.5239 33.3427C30.0856 32.7365 30.5533 32.2129 31.0475 31.7035C31.2616 31.4828 31.5157 31.3077 31.7955 31.1882C32.0752 31.0688 32.375 31.0073 32.6777 31.0073C32.9805 31.0073 33.2803 31.0688 33.56 31.1882C33.8397 31.3077 34.0939 31.4828 34.308 31.7035C34.5221 31.9242 34.6919 32.1862 34.8077 32.4745C34.9236 32.7629 34.9833 33.0719 34.9833 33.3841C34.9833 33.6962 34.9236 34.0052 34.8077 34.2936C34.6919 34.582 34.5221 34.844 34.308 35.0647C33.2923 36.1258 32.2595 37.1861 31.2353 38.2323C31.0219 38.4757 30.7616 38.6705 30.4711 38.8043C30.1805 38.9381 29.8661 39.0079 29.5479 39.0092C29.2296 39.0105 28.9146 38.9434 28.623 38.812C28.3314 38.6806 28.0697 38.488 27.8544 38.2464C27.1596 37.5301 26.4512 36.8139 25.7701 36.0977C25.5333 35.8828 25.3418 35.62 25.2075 35.3258C25.0732 35.0315 24.999 34.7119 24.9894 34.3868C24.9797 34.0618 25.035 33.7381 25.1516 33.4359C25.2683 33.1338 25.4439 32.8595 25.6676 32.6302C25.8912 32.4008 26.1582 32.2212 26.4519 32.1025C26.7456 31.9839 27.0599 31.9286 27.3751 31.9402C27.6904 31.9519 28 32.0301 28.2848 32.1701C28.5695 32.3101 28.8234 32.5088 29.0306 32.7541C29.1765 32.9019 29.3097 33.0814 29.5239 33.3427ZM29.5504 37.5442C29.7955 37.3999 30.028 37.2339 30.2452 37.048C31.2208 36.0695 32.1827 35.0647 33.1472 34.0721C33.6149 33.5899 33.655 33.0937 33.2812 32.7356C32.9201 32.3775 32.4661 32.4329 32.012 32.901C31.3838 33.5345 30.7692 34.1962 30.141 34.8297C30.0693 34.9256 29.9771 35.0032 29.8717 35.0566C29.7663 35.1101 29.6504 35.1378 29.5329 35.1378C29.4154 35.1378 29.2995 35.1101 29.1941 35.0566C29.0887 35.0032 28.9965 34.9256 28.9248 34.8297C28.6175 34.5271 28.3102 34.1962 28.0029 33.8926C27.9336 33.7958 27.8452 33.7153 27.7434 33.6565C27.6416 33.5976 27.5288 33.5618 27.4125 33.5514C27.2962 33.541 27.1791 33.5562 27.069 33.5961C26.9589 33.636 26.8583 33.6996 26.7738 33.7827C26.6908 33.8679 26.6268 33.9706 26.586 34.0839C26.5452 34.1971 26.5287 34.3181 26.5377 34.4385C26.5466 34.5589 26.5807 34.6759 26.6377 34.7814C26.6947 34.8869 26.7732 34.9785 26.8677 35.0497C27.5361 35.7536 28.2044 36.4408 28.8855 37.1157C29.0933 37.2797 29.3156 37.4232 29.5495 37.5442H29.5504Z" fill="#47BBC6"/>
<path d="M27.9962 13.0005C27.9962 12.4443 27.9844 11.8881 27.9962 11.331C28.0087 10.7094 28.2225 10.1183 28.592 9.68336C28.9615 9.2484 29.4577 9.00399 29.9749 9.00214C30.492 9.00029 30.9894 9.24113 31.3611 9.67343C31.7327 10.1057 31.9494 10.6953 31.965 11.3168C31.9882 12.4422 31.9882 13.5677 31.965 14.6931C31.9471 15.3168 31.7272 15.9075 31.3522 16.3392C30.9773 16.7708 30.4769 17.0094 29.9578 17.0039C29.4386 16.9985 28.9418 16.7495 28.5732 16.31C28.2045 15.8705 27.9932 15.2753 27.9844 14.6513C27.9844 14.1129 27.9962 13.5567 27.9962 13.0005ZM30.6805 13.0147C30.6805 12.5003 30.6923 11.9716 30.6805 11.4572C30.6872 11.3438 30.6745 11.2301 30.6434 11.1229C30.6123 11.0156 30.5633 10.9171 30.4995 10.8334C30.4356 10.7496 30.3582 10.6824 30.2721 10.6358C30.1859 10.5892 30.0927 10.5642 29.9982 10.5623C29.9038 10.5604 29.8099 10.5817 29.7225 10.6249C29.6351 10.6681 29.556 10.7322 29.4899 10.8133C29.4238 10.8945 29.3721 10.991 29.338 11.097C29.304 11.2029 29.2882 11.3161 29.2918 11.4296C29.2805 12.4869 29.2805 13.5442 29.2918 14.6015C29.2873 14.7142 29.302 14.8267 29.335 14.9323C29.368 15.0379 29.4186 15.1343 29.4836 15.2156C29.5486 15.2968 29.6268 15.3613 29.7132 15.405C29.7997 15.4488 29.8927 15.4708 29.9865 15.4698C30.0803 15.4689 30.1729 15.4449 30.2588 15.3994C30.3446 15.3539 30.4218 15.2878 30.4857 15.2052C30.5495 15.1226 30.5987 15.0252 30.6302 14.9189C30.6616 14.8127 30.6747 14.6999 30.6687 14.5873C30.6923 14.0587 30.6805 13.5434 30.6805 13.0147Z" fill="#47BBC6"/>
<path d="M20.402 11.0071C20.7468 11.0183 21.0831 11.1147 21.3799 11.2874C21.6767 11.4601 21.9243 11.7035 22.0999 11.995C22.6747 12.9059 23.2229 13.8291 23.7326 14.7654C24.0049 15.2751 24.063 15.8691 23.8946 16.4203C23.7262 16.9716 23.3446 17.4361 22.8315 17.7144C22.3313 17.9978 21.7378 18.0772 21.1786 17.9357C20.6193 17.7942 20.1389 17.443 19.8405 16.9575C19.279 16.0564 18.73 15.1488 18.2336 14.2256C18.0544 13.8758 17.9725 13.4857 17.9962 13.0949C18.0198 12.704 18.1481 12.3262 18.3681 11.9996C18.5882 11.673 18.8921 11.4093 19.2492 11.235C19.6063 11.0608 20.004 10.9821 20.402 11.0071ZM21.6168 16.5602C21.7625 16.5779 21.9104 16.5557 22.0442 16.4961C22.1779 16.4364 22.2923 16.3417 22.3747 16.2224C22.4571 16.103 22.5043 15.9636 22.5112 15.8196C22.518 15.6755 22.4843 15.5324 22.4136 15.406C21.943 14.5336 21.4207 13.6858 20.9118 12.8412C20.8619 12.7487 20.7931 12.6673 20.7095 12.6022C20.6259 12.5372 20.5295 12.4899 20.4263 12.4634C20.3231 12.4369 20.2155 12.4318 20.1102 12.4483C20.0049 12.4648 19.9042 12.5027 19.8146 12.5594C19.7257 12.6104 19.6483 12.6787 19.5872 12.76C19.526 12.8413 19.4824 12.9341 19.459 13.0325C19.4356 13.1309 19.4328 13.233 19.4509 13.3325C19.4691 13.432 19.5076 13.5268 19.5643 13.6112C20.0474 14.4705 20.5438 15.3315 21.0794 16.176C21.2121 16.3677 21.4991 16.4701 21.6168 16.5602Z" fill="#47BBC6"/>
<path d="M39.5726 11.0086C39.9575 10.9806 40.3432 11.0507 40.6923 11.2123C41.0415 11.3739 41.3422 11.6214 41.5653 11.9308C41.7884 12.2402 41.9264 12.6011 41.9658 12.9783C42.0051 13.3555 41.9446 13.7364 41.7901 14.0838C41.2707 15.1139 40.6864 16.1112 40.0407 17.0698C39.7199 17.5319 39.2278 17.8522 38.6697 17.9623C38.1117 18.0725 37.5319 17.9637 37.0544 17.6592C36.5742 17.3771 36.2211 16.9264 36.0665 16.3981C35.9118 15.8699 35.9672 15.3036 36.2213 14.814C36.7303 13.853 37.291 12.9174 37.8774 11.995C38.0506 11.7019 38.2974 11.4573 38.5941 11.2847C38.8909 11.112 39.2278 11.017 39.5726 11.0086ZM40.6031 13.0844C40.4206 12.8921 40.2382 12.5974 39.9899 12.4951C39.9037 12.4574 39.8106 12.4372 39.7162 12.4355C39.6218 12.4339 39.528 12.4509 39.4405 12.4856C39.3529 12.5203 39.2733 12.5719 39.2064 12.6373C39.1395 12.7028 39.0867 12.7808 39.0511 12.8667C38.5688 13.6852 38.0856 14.4939 37.6166 15.3141C37.5492 15.4019 37.5016 15.5027 37.477 15.61C37.4525 15.7173 37.4515 15.8285 37.4741 15.9362C37.4968 16.0439 37.5426 16.1456 37.6085 16.2345C37.6743 16.3234 37.7587 16.3974 37.856 16.4517C37.9534 16.506 38.0614 16.5392 38.1728 16.5492C38.2843 16.5592 38.3966 16.5457 38.5023 16.5096C38.608 16.4735 38.7047 16.4156 38.7858 16.3399C38.867 16.2642 38.9307 16.1723 38.9728 16.0704C39.4427 15.2887 39.8991 14.507 40.3556 13.7122C40.4546 13.5096 40.5373 13.2997 40.6031 13.0844Z" fill="#47BBC6"/>
</svg>
