<svg width="60" height="61" viewBox="0 0 60 61" fill="none" xmlns="http://www.w3.org/2000/svg">
<path d="M53.7839 60.0142H53.2053C52.9923 59.8969 52.8209 59.7166 52.7144 59.4978C52.6079 59.2791 52.5717 59.0328 52.6106 58.7926C52.6416 58.2764 52.6106 57.7591 52.6106 57.0858C49.0082 57.5214 45.3594 56.8323 42.1631 55.1129C42.1631 56.4135 42.1471 57.555 42.1631 58.6986C42.1998 58.9485 42.1667 59.2037 42.0673 59.4359C41.968 59.6681 41.8064 59.8683 41.6004 60.0142H41.0218C40.8123 59.9075 40.6403 59.7395 40.5285 59.5326C40.4168 59.3256 40.3706 59.0895 40.3961 58.8556C40.4271 57.6191 40.3802 56.3975 40.4121 55.1609C40.4281 54.6757 40.2562 54.4876 39.7865 54.4876C38.0666 54.4566 36.3616 54.4096 34.6407 54.3936C34.477 54.4209 34.3276 54.504 34.2179 54.6287C34.0428 54.8406 33.8229 55.0109 33.574 55.1274C33.3252 55.2438 33.0536 55.3034 32.7788 55.302C30.902 55.302 29.0251 55.333 27.1643 55.286C26.7536 55.2929 26.3561 55.1414 26.054 54.8628C25.8688 54.6566 25.6333 54.5021 25.3705 54.4144C25.1077 54.3267 24.8266 54.3088 24.5549 54.3626C23.9922 54.3786 23.4286 54.3626 22.8499 54.3626H19.581V57.1028C19.6005 57.4659 19.5439 57.8291 19.4146 58.1689C19.2853 58.5088 19.0863 58.8177 18.8304 59.0757C18.3966 59.4192 17.9364 59.7279 17.4543 59.9992H16.281C15.6554 59.608 15.0138 59.2318 14.2952 58.7936C13.6822 59.1005 12.9762 59.1645 12.3181 58.9729C11.66 58.7813 11.0984 58.3482 10.7454 57.7601C10.1175 58.1205 9.37473 58.2239 8.6724 58.0489C7.97007 57.8738 7.36251 57.4337 6.97671 56.8207C6.55685 57.0668 6.0791 57.1965 5.59257 57.1965C5.10603 57.1965 4.62826 57.0668 4.20841 56.8207C3.78731 56.5632 3.43667 56.2051 3.18793 55.7786C2.9392 55.352 2.80015 54.8702 2.78329 54.3766C2.25162 54.3766 1.73594 54.3456 1.23525 54.3766C0.993534 54.4119 0.746788 54.3741 0.526684 54.2681C0.30658 54.162 0.12316 53.9925 0 53.7813V53.202C0.117139 52.9888 0.297315 52.8172 0.515796 52.7106C0.734276 52.604 0.98036 52.5677 1.22026 52.6067C1.73594 52.6378 2.25262 52.6067 2.90922 52.6067C2.4794 48.9989 3.17291 45.3463 4.895 42.1479C3.58081 42.1479 2.40852 42.1319 1.25123 42.1639C1.01119 42.1932 0.767744 42.1561 0.54721 42.0568C0.326675 41.9576 0.137447 41.7998 0 41.6007V41.0214C0.106569 40.8117 0.274376 40.6395 0.481103 40.5276C0.687831 40.4157 0.923686 40.3695 1.15729 40.3951C2.39253 40.4261 3.61277 40.3791 4.84801 40.4111C5.33272 40.4271 5.5206 40.255 5.5206 39.7848C5.55159 38.063 5.59857 36.3562 5.61456 34.6334C5.60298 34.5521 5.57482 34.4739 5.53184 34.4039C5.48887 34.3338 5.43199 34.2734 5.36471 34.2262C5.148 34.0421 4.97513 33.8118 4.85877 33.5521C4.7424 33.2925 4.68546 33.0101 4.69212 32.7256C4.69212 30.8937 4.67612 29.0619 4.7081 27.214C4.69261 27.0227 4.71501 26.8301 4.77401 26.6475C4.833 26.4648 4.92744 26.2956 5.0519 26.1495C5.75147 25.6333 5.61455 24.944 5.63054 24.2546V19.5895H2.89722C2.53451 19.6091 2.17172 19.5524 1.83226 19.423C1.4928 19.2935 1.18422 19.0943 0.926432 18.8381C0.583382 18.4038 0.274951 17.9432 0.00399534 17.4605V16.286C0.394755 15.6597 0.770525 15.0174 1.20826 14.298C0.903618 13.6841 0.840677 12.9779 1.03191 12.3196C1.22315 11.6613 1.65459 11.0991 2.24063 10.7444C1.88088 10.1224 1.77599 9.38506 1.948 8.68729C2.12002 7.98951 2.55556 7.38566 3.16306 7.00266C2.17767 4.70159 3.55381 3.02582 5.63453 2.7597C5.63453 2.18043 5.61854 1.60116 5.63453 1.02189C5.65052 0.395605 5.99431 0.00442542 6.52598 0.00442542C7.04167 0.00442542 7.38646 0.395611 7.38646 1.03791V2.91677C10.9904 2.48648 14.6391 3.18075 17.834 4.90469V1.06891C17.834 0.395602 18.1938 -0.011582 18.7415 0.00442542C19.2572 0.0204328 19.57 0.41161 19.586 1.05391C19.586 2.32249 19.6169 3.59008 19.57 4.85567C19.554 5.30988 19.7109 5.49796 20.1486 5.51297C21.8845 5.54398 23.6205 5.59101 25.3564 5.60702C25.5206 5.57271 25.6658 5.47767 25.7632 5.34089C25.9391 5.13109 26.1596 4.96322 26.4085 4.84952C26.6575 4.73581 26.9287 4.67912 27.2023 4.68359C29.0631 4.68359 30.909 4.63656 32.7698 4.7146C33.2683 4.82781 33.7408 5.03492 34.162 5.32488C34.3698 5.46501 34.6042 5.56104 34.8506 5.60702C36.2737 5.63804 37.6968 5.62302 39.1199 5.62302H40.3871C40.3871 4.57354 40.3562 3.58808 40.4031 2.62163C40.4195 2.25494 40.5092 1.89526 40.6669 1.56389C40.8247 1.23252 41.0472 0.936193 41.3213 0.692442C41.5955 0.448691 41.9157 0.262473 42.263 0.14481C42.6103 0.0271477 42.9777 -0.0195634 43.3433 0.00743279C43.7736 0.0474205 44.1895 0.183487 44.5603 0.405627C44.9311 0.627767 45.2474 0.930315 45.486 1.29102C46.1127 0.935977 46.8517 0.835504 47.5502 1.01034C48.2488 1.18517 48.8537 1.62196 49.2397 2.23046C50.8038 1.57316 51.5233 1.76123 53.0244 3.15388C53.4426 2.91628 53.9163 2.79397 54.3972 2.79942C54.8781 2.80487 55.3489 2.93789 55.7617 3.1849C56.1786 3.44633 56.5258 3.80512 56.7737 4.23049C57.0216 4.65585 57.1627 5.13507 57.1848 5.62702C57.8104 5.62702 58.3891 5.61101 58.9837 5.62702C59.1056 5.61521 59.2287 5.62846 59.3453 5.66595C59.4619 5.70344 59.5697 5.76438 59.6619 5.84503C59.7542 5.92569 59.829 6.02436 59.8818 6.13499C59.9347 6.24563 59.9644 6.3659 59.9691 6.48843C59.9851 7.00467 59.5783 7.36483 58.9527 7.38084C58.3741 7.39684 57.7954 7.38084 57.0599 7.38084C57.4727 10.988 56.7802 14.6356 55.0741 17.8397H58.8718C59.5604 17.8397 59.9511 18.1838 59.9511 18.7161C59.9511 19.2483 59.5444 19.5775 58.8518 19.5925C57.6006 19.5925 56.3533 19.6235 55.0981 19.5765C54.6134 19.5605 54.4255 19.7175 54.4095 20.1868C54.3785 21.9086 54.3316 23.6153 54.3156 25.3381C54.3271 25.4195 54.3553 25.4977 54.3983 25.5677C54.4413 25.6377 54.4981 25.6982 54.5654 25.7453C54.7821 25.9295 54.955 26.1598 55.0714 26.4195C55.1877 26.6791 55.2447 26.9615 55.238 27.246C55.238 29.0779 55.254 30.9257 55.222 32.7576C55.2458 33.1431 55.123 33.5234 54.8782 33.8221C54.1897 34.3543 54.3156 35.0276 54.3156 35.7169V40.4141C55.3789 40.4141 56.3643 40.3671 57.3497 40.4301C57.8293 40.4547 58.2939 40.6059 58.6962 40.8684C59.0985 41.131 59.4243 41.4954 59.6403 41.9248C59.8563 42.3542 59.9549 42.8332 59.9262 43.3131C59.8974 43.793 59.7422 44.2567 59.4764 44.6571C59.2308 44.9819 58.9587 45.2858 58.6629 45.5655C59.0031 46.1914 59.0922 46.9236 58.9121 47.613C58.732 48.3024 58.2962 48.8971 57.6935 49.2762C58.0505 49.8988 58.1538 50.6353 57.982 51.3323C57.8102 52.0293 57.3764 52.6331 56.7711 53.0179C57.5846 55.304 56.834 56.6196 54.2996 57.2769C54.2996 57.7771 54.2686 58.2774 54.2996 58.7776C54.3589 59.0118 54.3406 59.259 54.2477 59.482C54.1547 59.7049 53.992 59.8917 53.7839 60.0142ZM24.0022 19.6045C22.6412 19.5486 21.2847 19.7946 20.0297 20.3248C19.8912 20.3603 19.7703 20.445 19.6897 20.5632C19.6091 20.6815 19.5744 20.8251 19.5919 20.9671C19.6229 22.3758 19.592 23.7854 19.6079 25.1791C19.6204 25.3988 19.7153 25.6057 19.8738 25.7583C20.0856 25.9457 20.254 26.177 20.3674 26.4362C20.4808 26.6953 20.5364 26.9762 20.5304 27.259V32.7706C20.5341 33.0429 20.4787 33.3128 20.3679 33.5616C20.2571 33.8103 20.0936 34.032 19.8888 34.2112C19.7529 34.3125 19.6539 34.4555 19.6069 34.6184C19.4314 36.4333 19.6706 38.2643 20.3065 39.9729C20.3569 40.1141 20.4533 40.2341 20.5803 40.3136C20.7072 40.3932 20.8572 40.4275 21.0061 40.4111C22.3662 40.3951 23.7434 40.4111 25.1036 40.3951C25.3518 40.3454 25.5866 40.2431 25.7921 40.095C26.2023 39.8193 26.6576 39.6179 27.1373 39.4997C29.0301 39.4367 30.922 39.4527 32.8148 39.4837C33.2043 39.4682 33.5848 39.6029 33.8782 39.8599C34.3469 40.4701 34.9255 40.3921 35.5511 40.4081C37.0561 40.4922 38.5612 40.2464 39.9614 39.6878C40.0999 39.6523 40.2208 39.5676 40.3014 39.4493C40.382 39.3311 40.4167 39.1875 40.3991 39.0455C40.3682 37.6368 40.3991 36.2272 40.3832 34.8335C40.3706 34.6138 40.2757 34.4069 40.1173 34.2543C39.9055 34.0669 39.7371 33.8356 39.6237 33.5764C39.5103 33.3173 39.4547 33.0364 39.4607 32.7536V27.242C39.457 26.9697 39.5124 26.6998 39.6232 26.451C39.734 26.2023 39.8975 25.9806 40.1023 25.8014C40.2382 25.7001 40.3372 25.5571 40.3842 25.3942C40.5597 23.5793 40.3205 21.7483 39.6846 20.0397C39.6342 19.8985 39.5378 19.7785 39.4108 19.699C39.2839 19.6194 39.1339 19.5851 38.985 19.6015C37.6238 19.6175 36.2477 19.6015 34.8875 19.6175C34.6392 19.6672 34.4045 19.7695 34.199 19.9176C33.7888 20.1933 33.3335 20.3947 32.8538 20.5129C30.9616 20.5756 29.0691 20.5756 27.1763 20.5129C26.7364 20.4918 26.3171 20.3206 25.988 20.0277C25.8383 19.8663 25.6527 19.7424 25.4462 19.6663C25.2398 19.5902 25.0183 19.5638 24.7997 19.5895C24.5358 19.6116 24.2708 19.6166 24.0062 19.6045H24.0022ZM41.2376 27.135V32.8376H53.4831V27.123C52.8415 27.123 52.2319 27.139 51.6372 27.123C51.5202 27.1326 51.4025 27.118 51.2914 27.0799C51.1803 27.0419 51.0782 26.9813 50.9916 26.9019C50.905 26.8225 50.8357 26.7261 50.7881 26.6187C50.7404 26.5112 50.7155 26.3951 50.7148 26.2776C50.6988 25.7613 51.0586 25.4162 51.6532 25.3852C51.935 25.3692 52.2319 25.3852 52.5756 25.3852C52.5756 24.8059 52.5447 24.2736 52.5756 23.7564C52.5717 22.1998 52.6866 20.6453 52.9194 19.1063C53.3963 17.4417 53.9655 15.8051 54.6244 14.204C54.9432 13.4483 55.159 12.6532 55.266 11.8399C55.3759 9.77294 55.3599 7.70699 55.3909 5.63703C55.3883 5.55784 55.3779 5.47909 55.3599 5.40193C55.3175 5.15785 55.1842 4.93896 54.9869 4.78943C54.7896 4.6399 54.543 4.57088 54.2968 4.59627C54.0506 4.62166 53.8233 4.73958 53.6605 4.92624C53.4978 5.1129 53.4119 5.35441 53.4201 5.60201C53.4041 6.13426 53.4201 6.65149 53.4201 7.18374C53.4201 7.92008 53.1073 8.32627 52.5447 8.34228C51.982 8.35829 51.6692 7.9511 51.6532 7.21476C51.6532 6.40038 51.6692 5.571 51.6372 4.75662C51.6468 4.61403 51.6267 4.47101 51.5781 4.33661C51.5296 4.20222 51.4536 4.07938 51.3552 3.97591C51.2567 3.87244 51.1378 3.79059 51.0061 3.73554C50.8743 3.68048 50.7326 3.65343 50.5899 3.65611C50.4532 3.6655 50.3198 3.70252 50.1978 3.76492C50.0758 3.82732 49.9677 3.91381 49.88 4.01918C49.7923 4.12454 49.7269 4.2466 49.6876 4.37798C49.6483 4.50937 49.636 4.64736 49.6514 4.78363C49.6355 5.33188 49.6674 5.88414 49.6514 6.42739C49.6639 6.54876 49.6511 6.6714 49.6137 6.78753C49.5763 6.90366 49.5152 7.01076 49.4343 7.10201C49.3534 7.19325 49.2545 7.26666 49.1437 7.31759C49.033 7.36852 48.9128 7.39585 48.791 7.39784C48.2593 7.41385 47.9155 7.02167 47.9155 6.39738C47.8995 5.53598 47.9315 4.67558 47.8995 3.81419C47.9091 3.67151 47.889 3.5284 47.8404 3.39393C47.7917 3.25947 47.7157 3.13658 47.6171 3.03309C47.5186 2.92961 47.3996 2.84778 47.2677 2.79279C47.1358 2.7378 46.994 2.71085 46.8512 2.71367C46.7145 2.72307 46.5811 2.76009 46.4591 2.82249C46.3371 2.88488 46.229 2.97137 46.1413 3.07674C46.0536 3.1821 45.9882 3.30416 45.9489 3.43555C45.9096 3.56693 45.8973 3.70493 45.9128 3.84121C45.8968 4.42047 45.9287 5.01574 45.8968 5.59501C45.898 5.71128 45.876 5.82663 45.832 5.93423C45.7879 6.04183 45.7228 6.1395 45.6403 6.22144C45.5579 6.30338 45.4599 6.36793 45.3521 6.41129C45.2444 6.45464 45.129 6.47592 45.0129 6.47385C44.8967 6.47177 44.7822 6.44639 44.676 6.39921C44.5698 6.35204 44.4742 6.28402 44.3948 6.19918C44.3153 6.11435 44.2537 6.01442 44.2135 5.90532C44.1733 5.79621 44.1554 5.68016 44.1608 5.564C44.1448 5.39192 44.1608 5.21983 44.1608 5.03174C44.1608 4.2954 44.1768 3.54406 44.1448 2.80872C44.1502 2.67551 44.1287 2.5426 44.0817 2.41788C44.0347 2.29316 43.9631 2.17918 43.8711 2.08275C43.7792 1.98631 43.6688 1.90938 43.5465 1.85655C43.4243 1.80373 43.2926 1.77608 43.1594 1.77525C42.8923 1.77815 42.6373 1.88683 42.45 2.0775C42.2627 2.26817 42.1585 2.52532 42.1601 2.79272C42.1441 3.01182 42.1441 3.21591 42.1441 3.43501V11.984C42.1441 12.6733 41.7843 13.0485 41.2216 13.0334C40.69 13.0174 40.3931 12.6573 40.3931 11.984V7.45488C40.1476 7.43902 39.9014 7.47184 39.6686 7.55148C39.4357 7.63111 39.2209 7.75598 39.0364 7.91893C38.8519 8.08187 38.7014 8.27969 38.5934 8.50101C38.4855 8.72234 38.4222 8.96283 38.4074 9.20868C38.3764 9.77194 38.4234 10.3362 38.3914 10.8995C38.1938 13.3583 38.9051 15.8042 40.3902 17.7726C41.4328 19.2236 42.0258 20.9498 42.0951 22.7359C42.1421 23.5973 42.1111 24.4737 42.1111 25.3972H44.4566C45.567 25.3972 46.6773 25.3812 47.7876 25.4132C47.9049 25.408 48.0222 25.4262 48.1324 25.4669C48.2426 25.5075 48.3436 25.5698 48.4295 25.65C48.5154 25.7302 48.5844 25.8268 48.6326 25.934C48.6807 26.0412 48.7071 26.157 48.71 26.2746C48.7037 26.5106 48.6051 26.7347 48.4354 26.8986C48.2657 27.0625 48.0384 27.1532 47.8026 27.151C47.6307 27.167 47.4588 27.167 47.2709 27.167H41.8912C41.6755 27.1402 41.458 27.1298 41.2406 27.136L41.2376 27.135ZM7.40845 34.6505C7.40845 35.1357 7.42444 35.5739 7.40845 35.9971C7.41915 37.5938 7.31897 39.1894 7.10863 40.7723C6.80829 42.2061 6.32459 43.5952 5.66951 44.9052C4.21541 47.9896 4.63715 51.2461 4.60617 54.4716C4.60705 54.6042 4.63482 54.7352 4.68782 54.8567C4.74082 54.9782 4.81794 55.0877 4.91449 55.1784C5.01103 55.2692 5.12501 55.3394 5.24947 55.3847C5.37394 55.43 5.5063 55.4495 5.63853 55.4421C5.77012 55.4343 5.89889 55.4005 6.0174 55.3427C6.13591 55.285 6.24183 55.2043 6.32905 55.1053C6.41628 55.0064 6.48308 54.8911 6.52563 54.7662C6.56818 54.6413 6.58563 54.5093 6.57696 54.3776C6.59295 53.8453 6.57696 53.3291 6.57696 52.7959C6.57696 52.1065 6.90575 51.7153 7.45241 51.6953C8.00008 51.6953 8.32788 52.0715 8.32788 52.7598C8.32788 53.6052 8.31188 54.4346 8.34386 55.281C8.33577 55.4181 8.35491 55.5556 8.40015 55.6853C8.44539 55.815 8.51586 55.9345 8.60748 56.0368C8.6991 56.1391 8.81004 56.2223 8.93392 56.2814C9.05781 56.3406 9.19218 56.3746 9.32927 56.3815C9.47118 56.3803 9.61125 56.3492 9.74043 56.2904C9.86962 56.2316 9.98503 56.1463 10.0792 56.04C10.1734 55.9338 10.2443 55.8089 10.2872 55.6735C10.3302 55.5381 10.3443 55.3952 10.3287 55.254C10.3077 54.6693 10.318 54.0838 10.3596 53.5002C10.3917 53.347 10.4538 53.2018 10.5423 53.0728C10.6308 52.9438 10.744 52.8337 10.8753 52.7488C11.0144 52.702 11.1621 52.6862 11.3079 52.7025C11.4538 52.7187 11.5943 52.7666 11.7198 52.8429C11.9326 53.0557 12.0556 53.3422 12.0636 53.6432C12.1105 54.5046 12.0636 55.365 12.0946 56.2264C12.0851 56.3639 12.1033 56.5019 12.148 56.6322C12.1927 56.7625 12.2631 56.8825 12.355 56.9851C12.4469 57.0877 12.5584 57.1708 12.6829 57.2295C12.8074 57.2883 12.9424 57.3214 13.08 57.3269C13.2214 57.3261 13.3611 57.2952 13.4897 57.2363C13.6184 57.1774 13.7331 57.0918 13.8262 56.9853C13.9194 56.8787 13.9888 56.7535 14.0301 56.618C14.0713 56.4826 14.0833 56.3399 14.0653 56.1994C14.0813 55.7142 14.0653 55.229 14.0653 54.7277C14.0653 53.9914 14.3782 53.5852 14.9408 53.5852C15.5035 53.5852 15.8163 53.9764 15.8163 54.7127C15.8163 55.5581 15.8003 56.3875 15.8323 57.2339C15.8271 57.3669 15.8487 57.4997 15.8958 57.6243C15.9428 57.7488 16.0144 57.8626 16.1062 57.9589C16.1981 58.0553 16.3083 58.1322 16.4304 58.1851C16.5524 58.238 16.6839 58.2658 16.8169 58.2668C16.9499 58.2679 17.0818 58.2422 17.2047 58.1913C17.3276 58.1404 17.4391 58.0653 17.5324 57.9705C17.6258 57.8756 17.6992 57.763 17.7483 57.6392C17.7973 57.5154 17.8211 57.383 17.818 57.2499C17.834 57.0618 17.834 56.8587 17.834 56.6706V48.1667C17.834 47.4154 18.1338 47.0242 18.6945 47.0082C19.2731 46.9922 19.586 47.3843 19.586 48.1827V52.6138C19.8365 52.6296 20.0876 52.5947 20.3244 52.5112C20.5611 52.4278 20.7786 52.2974 20.964 52.1279C21.1493 51.9585 21.2987 51.7534 21.4031 51.5248C21.5075 51.2963 21.5648 51.0491 21.5717 50.7979C21.6027 50.1716 21.5557 49.5454 21.5877 48.9191C21.7424 46.5805 21.0542 44.2639 19.6479 42.39C18.4029 40.62 17.7612 38.4953 17.818 36.3312V34.6675H15.2196C14.2033 34.6675 13.1869 34.6835 12.1695 34.6514C12.0522 34.6567 11.935 34.6384 11.8248 34.5978C11.7145 34.5571 11.6135 34.4948 11.5276 34.4146C11.4417 34.3344 11.3727 34.2379 11.3245 34.1306C11.2764 34.0234 11.25 33.9076 11.2471 33.7901C11.2527 33.5647 11.3425 33.3496 11.4989 33.1873C11.6553 33.025 11.8667 32.9274 12.0916 32.9136C12.2794 32.8976 12.4823 32.8976 12.6702 32.8976H18.7075V27.195H6.47403V32.8976C7.09964 32.8976 7.67828 32.8816 8.25693 32.8976C8.88254 32.9137 9.22632 33.2418 9.24231 33.759C9.2583 34.2913 8.88253 34.6204 8.24293 34.6514L7.40845 34.6505ZM25.3474 7.39284H24.8317C23.3926 7.37683 21.9335 7.42386 20.4994 7.32982C18.8516 7.12181 17.25 6.64032 15.7603 5.90515C13.5693 4.90465 11.1695 4.44819 8.76461 4.57453C7.73225 4.65257 6.69987 4.57454 5.66651 4.59055C5.52642 4.57818 5.38531 4.59555 5.25238 4.64152C5.11946 4.68749 4.99772 4.76103 4.89513 4.85733C4.79255 4.95363 4.71142 5.07052 4.65705 5.20036C4.60268 5.33019 4.5763 5.47005 4.57962 5.61079C4.58295 5.75154 4.61591 5.89 4.67635 6.01712C4.73679 6.14424 4.82335 6.25717 4.93038 6.3485C5.0374 6.43983 5.16247 6.50753 5.29741 6.54715C5.43236 6.58678 5.57415 6.59745 5.71349 6.57846C6.21319 6.59447 6.72986 6.57846 7.23055 6.57846C7.95011 6.57846 8.35687 6.90762 8.34088 7.48689C8.32488 8.03514 7.95011 8.33228 7.24155 8.33228C6.39707 8.33228 5.56857 8.31627 4.72309 8.34828C4.58603 8.34319 4.44936 8.36569 4.32113 8.41443C4.19291 8.46316 4.07575 8.53716 3.9766 8.63203C3.87745 8.7269 3.79832 8.84071 3.7439 8.96675C3.68947 9.09278 3.66086 9.22845 3.65975 9.36575C3.66507 9.5032 3.69865 9.63807 3.75838 9.76194C3.81812 9.88582 3.90274 9.99602 4.00693 10.0857C4.11113 10.1753 4.23268 10.2426 4.36398 10.2831C4.49529 10.3236 4.63353 10.3366 4.77007 10.3212C5.26977 10.3372 5.78644 10.3212 6.28713 10.3212C7.02268 10.3212 7.41345 10.6503 7.39746 11.2296C7.38147 11.7779 7.00669 12.075 6.28713 12.075C5.44265 12.075 4.61417 12.059 3.76869 12.091C3.63194 12.0872 3.49577 12.1105 3.36809 12.1597C3.24041 12.2089 3.12375 12.2829 3.02486 12.3775C2.92596 12.4722 2.8468 12.5855 2.79195 12.711C2.73711 12.8364 2.70766 12.9716 2.70534 13.1085C2.71066 13.2459 2.74423 13.3808 2.80397 13.5047C2.8637 13.6285 2.94832 13.7388 3.05252 13.8284C3.15672 13.9181 3.27826 13.9853 3.40957 14.0258C3.54087 14.0663 3.67912 14.0793 3.81566 14.0639C4.34733 14.0799 4.86401 14.0639 5.39568 14.0639C6.06827 14.0799 6.45902 14.4241 6.44403 14.9723C6.42804 15.5046 6.05328 15.8177 5.39568 15.8177C4.5512 15.8337 3.72271 15.8017 2.87723 15.8177C2.73094 15.8053 2.58371 15.8245 2.44547 15.874C2.30723 15.9235 2.18121 16.0021 2.07595 16.1045C1.97068 16.207 1.88861 16.3308 1.8353 16.4678C1.78198 16.6047 1.75867 16.7515 1.76692 16.8982C1.79956 17.1636 1.93321 17.4062 2.14004 17.5754C2.34687 17.7446 2.61092 17.8275 2.87723 17.8067C3.98754 17.8227 5.09787 17.8227 6.20818 17.8227H11.9476C12.6362 17.8227 13.011 18.1518 13.011 18.7151C13.011 19.2473 12.6352 19.5605 11.9786 19.5765C11.416 19.5925 10.8523 19.5765 10.2737 19.5765H7.42744C7.389 20.06 7.54346 20.539 7.857 20.9087C8.17053 21.2785 8.61761 21.5088 9.1004 21.5494C9.69504 21.5964 10.3047 21.5494 10.9143 21.5804C13.3471 21.7599 15.7628 21.054 17.7171 19.5925C19.1515 18.5539 20.8593 17.9603 22.6281 17.8857C23.5195 17.8387 24.411 17.8697 25.3184 17.8697C25.3514 14.3441 25.3514 10.8995 25.3514 7.39284H25.3474ZM34.6687 52.6248C35.717 52.6248 36.7174 52.6558 37.7338 52.6248C39.4523 52.5708 41.1628 52.8803 42.7537 53.5332C44.2186 54.1679 45.7232 54.7066 47.2579 55.1459C49.6195 55.7562 52.0749 55.381 54.4835 55.4121C54.6123 55.4062 54.7387 55.3747 54.8552 55.3193C54.9716 55.2639 55.0759 55.1858 55.1618 55.0895C55.2477 54.9933 55.3136 54.8808 55.3555 54.7587C55.3974 54.6366 55.4146 54.5074 55.4059 54.3786C55.3889 54.1229 55.2735 53.8837 55.0839 53.7114C54.8944 53.5392 54.6454 53.4473 54.3895 53.4552C53.7849 53.4841 53.179 53.4737 52.5756 53.4241C52.4055 53.3891 52.2442 53.3196 52.1018 53.22C51.9593 53.1204 51.8386 52.9928 51.7471 52.8449C51.7131 52.6931 51.7134 52.5356 51.748 52.384C51.7826 52.2324 51.8506 52.0904 51.947 51.9684C52.1502 51.7905 52.4127 51.6955 52.6826 51.7023C53.4961 51.6713 54.3246 51.7023 55.1381 51.6863C55.8736 51.6703 56.3373 51.2631 56.3373 50.6859C56.3373 50.0756 55.8836 49.6994 55.1491 49.6994H53.679C52.9904 49.6834 52.5996 49.3703 52.5996 48.823C52.5996 48.2758 52.9904 47.9466 53.679 47.9466C54.4785 47.9466 55.278 47.9626 56.0715 47.9466C56.8071 47.9306 57.2708 47.5234 57.2708 46.9461C57.2708 46.3359 56.833 45.9597 56.0825 45.9597C55.556 45.9858 55.0284 45.9804 54.5025 45.9437C54.2006 45.9218 53.9196 45.7811 53.7209 45.5525C53.646 45.426 53.6013 45.2839 53.5903 45.1372C53.5794 44.9905 53.6026 44.8433 53.658 44.7071C53.7479 44.5782 53.8639 44.4697 53.9986 44.3889C54.1333 44.308 54.2835 44.2565 54.4395 44.2379C55.3149 44.1749 56.1914 44.2219 57.0669 44.2069C57.7555 44.1909 58.2082 43.7997 58.2082 43.2204C58.201 43.0789 58.1655 42.9404 58.1039 42.8129C58.0422 42.6854 57.9556 42.5716 57.8491 42.4783C57.7427 42.385 57.6186 42.3141 57.4842 42.2697C57.3498 42.2253 57.2079 42.2084 57.0669 42.2199C56.879 42.2039 56.6761 42.2199 56.4882 42.2199H48.1214C47.3708 42.2199 46.9801 41.9198 46.9641 41.3586C46.9481 40.7793 47.3399 40.4821 48.0904 40.4661H52.5637C52.5791 40.2141 52.5434 39.9616 52.4589 39.7237C52.3744 39.4859 52.2427 39.2675 52.0718 39.0819C51.9009 38.8962 51.6943 38.747 51.4644 38.6433C51.2344 38.5396 50.9859 38.4834 50.7338 38.4782C49.7174 38.4472 48.701 38.4622 47.6837 38.4782C46.0289 38.4682 44.4135 38.9834 43.0695 39.9499C40.8429 41.6096 38.0982 42.4202 35.3283 42.236C35.1094 42.22 34.8745 42.236 34.6557 42.236C34.6727 45.7046 34.6727 49.1331 34.6727 52.6248H34.6687ZM27.1613 18.7441H32.8388V6.50043H27.1613V18.7441ZM27.1613 53.5172H32.8388V41.2575H27.1613V53.5172ZM38.3434 17.8207C36.2317 14.4861 36.4036 10.9785 36.9673 7.42486H34.6877V17.8197L38.3434 17.8207ZM7.45542 23.0341V25.3201H17.828V21.6714C14.5281 23.7534 11.0402 23.6444 7.45941 23.0341H7.45542ZM52.5666 36.9685V34.6975H42.213V38.3452C45.495 36.2482 48.9978 36.4203 52.5666 36.9685ZM25.3374 52.6098V42.1969H21.6757C23.8024 45.4985 23.6155 49.0231 23.0518 52.6088L25.3374 52.6098Z" fill="#47BBC6"/>
</svg>
