<svg width="60" height="61" viewBox="0 0 60 61" fill="none" xmlns="http://www.w3.org/2000/svg">
<path d="M0 25.3296C0.148883 24.2674 0.267792 23.2062 0.455645 22.1541C1.32719 17.2823 3.53788 12.7501 6.83965 9.06595C7.29529 8.54987 7.80089 8.48085 8.21757 8.84791C8.63424 9.21497 8.61725 9.71105 8.14862 10.2371C4.75467 14.0418 2.5923 18.7867 1.94658 23.8462C1.30087 28.9057 2.20212 34.0423 4.53153 38.5788C6.86094 43.1153 10.5091 46.8388 14.9952 49.2582C19.4812 51.6777 24.5944 52.6796 29.6608 52.1319C29.9169 52.0807 30.1499 51.9486 30.3253 51.7549C30.652 51.3978 30.8908 50.9607 31.2076 50.5937C31.4454 50.3156 31.3764 50.1176 31.2475 49.8095C31.0197 49.2735 30.712 49.2245 30.1574 49.2935C22.2856 50.2366 15.5748 47.8542 10.241 41.9703C8.15541 39.7064 6.57477 37.0244 5.604 34.1022C4.63323 31.1801 4.29453 28.0847 4.61039 25.0215C4.99274 20.503 6.74097 16.2083 9.62237 12.709C12.5038 9.20973 16.3816 6.6719 20.7398 5.43336C29.365 3.08198 36.9271 5.18532 43.2831 11.5063C43.7827 11.9924 43.8187 12.4985 43.432 12.8956C43.0453 13.2926 42.5097 13.2426 42.0141 12.7165C39.0232 9.56145 35.1132 7.43253 30.8419 6.63355C30.1424 6.49453 29.414 6.42552 28.7005 6.34551C28.4396 6.33059 28.1781 6.33059 27.9172 6.34551V23.4133C28.5444 23.5737 29.1183 23.8967 29.5812 24.3497C30.0441 24.8027 30.3796 25.3697 30.5541 25.9937C30.7503 26.6704 30.7494 27.3892 30.5515 28.0654C30.3535 28.7416 29.9669 29.3473 29.4369 29.811C28.9069 30.2748 28.2556 30.5775 27.5596 30.6835C26.8636 30.7895 26.1519 30.6944 25.508 30.4094C25.3822 30.3298 25.2312 30.3 25.0845 30.3257C24.9379 30.3514 24.806 30.4308 24.7147 30.5484C20.8883 34.3984 17.055 38.242 13.2147 42.0793C13.1381 42.155 13.0654 42.2344 12.9968 42.3173C15.2886 44.4152 18.0195 45.9742 20.9902 46.8806C23.9608 47.7869 27.0962 48.0177 30.1674 47.5562C30.0485 47.1191 29.9595 46.723 29.8306 46.356C29.8007 46.267 29.6128 46.207 29.4939 46.187C28.9783 46.0979 28.4527 46.0179 27.9371 45.9489C27.6816 45.9365 27.4313 45.8727 27.2009 45.7613C26.9706 45.6499 26.7651 45.4932 26.5967 45.3005C26.4282 45.1078 26.3003 44.8831 26.2206 44.6398C26.1408 44.3966 26.1109 44.1397 26.1326 43.8846C26.1326 43.3385 26.1226 42.7934 26.1326 42.2473C26.1133 41.9971 26.1442 41.7456 26.2234 41.5076C26.3027 41.2695 26.4287 41.0497 26.594 40.8611C26.7593 40.6725 26.9607 40.5189 27.1862 40.4093C27.4117 40.2997 27.6568 40.2364 27.9072 40.223C28.4107 40.1662 28.911 40.0834 29.406 39.975C29.5115 39.9402 29.609 39.8845 29.6924 39.8111C29.7759 39.7377 29.8436 39.6482 29.8916 39.5479C30.3672 38.4667 30.8239 37.3645 31.2595 36.2634C31.296 36.1565 31.3103 36.0433 31.3017 35.9307C31.2931 35.818 31.2618 35.7084 31.2096 35.6082C30.9098 35.1322 30.5451 34.6951 30.2183 34.229C29.938 33.8707 29.8019 33.4203 29.8368 32.9666C29.8718 32.5128 30.0753 32.0886 30.4072 31.7776C30.8529 31.3116 31.2995 30.8545 31.7751 30.4084C32.0853 30.0887 32.5018 29.894 32.9457 29.861C33.3897 29.828 33.8303 29.9591 34.1843 30.2294C34.6699 30.5564 35.1165 30.9435 35.6121 31.2515C35.7047 31.2997 35.8062 31.3281 35.9102 31.335C36.0143 31.3418 36.1186 31.3271 36.2167 31.2915C37.3368 30.8545 38.4469 30.3914 39.558 29.9023C39.6507 29.8575 39.733 29.7938 39.7996 29.7153C39.8662 29.6367 39.9157 29.5451 39.9447 29.4462C40.0636 28.9462 40.1136 28.4461 40.1825 27.946C40.1936 27.6901 40.2566 27.4391 40.3675 27.2082C40.4785 26.9774 40.6352 26.7715 40.8281 26.6032C41.0209 26.4348 41.246 26.3074 41.4896 26.2288C41.7331 26.1502 41.9901 26.1219 42.2449 26.1457C42.7905 26.1357 43.3357 26.1357 43.8807 26.1457C44.1304 26.1273 44.3814 26.1588 44.6188 26.2384C44.8563 26.318 45.0756 26.4442 45.2638 26.6095C45.4521 26.7749 45.6056 26.9761 45.7153 27.2014C45.8251 27.4268 45.8889 27.6717 45.9031 27.922C45.963 28.3291 46.0519 28.7361 46.0719 29.1422C46.0919 29.6683 46.2998 29.9753 46.8453 30.0153C47.0674 30.0554 47.2861 30.1119 47.4998 30.1844C47.5598 29.6283 47.6287 29.1122 47.6687 28.6071C48.0326 24.0535 46.8725 19.508 44.3713 15.687C44.0046 15.1119 44.0835 14.6058 44.5601 14.3078C45.0368 14.0097 45.4924 14.1788 45.8791 14.7739C48.4436 18.6917 49.7003 23.3229 49.4683 28.001C49.4283 28.8341 49.2894 29.6683 49.2405 30.5014C49.2357 30.6046 49.2546 30.7075 49.2958 30.8022C49.3371 30.8969 49.3995 30.9808 49.4783 31.0475C49.786 31.2065 50.0628 31.6726 50.4995 31.2755C50.5267 31.2495 50.5565 31.2264 50.5884 31.2065C52.1642 30.0754 52.1642 30.0753 52.2341 28.13C52.5065 22.3191 50.7574 16.5935 47.2847 11.9289C43.8121 7.26423 38.8309 3.94926 33.19 2.54889C29.4263 1.55156 25.4803 1.45964 21.6743 2.28062C17.8683 3.1016 14.3104 4.81219 11.2912 7.27265C11.1223 7.40168 10.9644 7.5507 10.7856 7.67272C10.6987 7.75159 10.597 7.81242 10.4865 7.85167C10.376 7.89093 10.2588 7.90785 10.1417 7.90143C10.0245 7.89501 9.90987 7.86539 9.80428 7.81428C9.6987 7.76318 9.6043 7.6916 9.52655 7.60371C9.44011 7.51456 9.37495 7.40699 9.33595 7.28904C9.29696 7.1711 9.28514 7.04585 9.30139 6.92269C9.31764 6.79953 9.36152 6.68165 9.42976 6.57788C9.498 6.47411 9.58882 6.38714 9.69541 6.3235C10.9079 5.37571 12.1686 4.49139 13.4725 3.67407C17.9388 1.04199 23.0772 -0.223922 28.2539 0.0324839C34.285 0.319939 40.0468 2.61822 44.6223 6.5616C49.1979 10.505 52.3243 15.8669 53.5041 21.794C54.0008 24.3088 54.1277 26.8827 53.8808 29.4342C53.8455 29.6101 53.8612 29.7924 53.9262 29.9596C53.9912 30.1267 54.1027 30.2717 54.2475 30.3774C54.7834 30.8319 55.2844 31.3261 55.7464 31.8556C56.0425 32.1596 56.221 32.559 56.2501 32.9826C56.2792 33.4062 56.157 33.8263 55.9052 34.168C55.5885 34.6341 55.2607 35.1012 54.906 35.5372C54.8097 35.6397 54.7498 35.771 54.7355 35.9109C54.7213 36.0508 54.7535 36.1916 54.8271 36.3114C55.3127 37.3735 55.7194 38.4647 56.195 39.5359C56.2427 39.6375 56.3102 39.7286 56.3936 39.8036C56.477 39.8787 56.5746 39.9363 56.6806 39.973C57.1862 40.102 57.7218 40.142 58.2374 40.231C58.7305 40.2689 59.1887 40.5005 59.5118 40.8752C59.8349 41.25 59.9968 41.7375 59.9621 42.2313C59.9721 42.8367 59.9721 43.4422 59.9621 44.0476C59.9761 44.4822 59.8318 44.9071 59.556 45.2431C59.2803 45.5791 58.8919 45.8033 58.4632 45.8739C57.8787 46.0029 57.2642 46.0429 56.6786 46.182C56.574 46.2189 56.4779 46.2767 56.3962 46.3518C56.3144 46.4269 56.2487 46.5178 56.203 46.619C55.7374 47.6912 55.3107 48.7824 54.8351 49.8436C54.7062 50.1316 54.6662 50.3196 54.8751 50.5677C55.2218 50.9847 55.5395 51.4308 55.8563 51.8879C56.1474 52.2502 56.2908 52.7094 56.2576 53.1733C56.2244 53.6371 56.0172 54.0711 55.6774 54.3883C55.2508 54.8444 54.8051 55.2814 54.3495 55.7175C54.0327 56.0584 53.598 56.2657 53.1339 56.2971C52.6698 56.3285 52.2112 56.1817 51.8514 55.8865C51.3058 55.5095 50.8002 54.8644 50.2257 54.7953C49.6901 54.7353 49.0956 55.3014 48.501 55.5395C47.8566 55.8075 47.1731 55.9955 46.5286 56.2536C46.4411 56.2926 46.3631 56.3501 46.2998 56.4221C46.2365 56.4941 46.1895 56.5788 46.1619 56.6706C46.0512 57.0655 45.9842 57.4714 45.962 57.8809C45.9673 58.3406 45.8325 58.791 45.5756 59.1721C45.3188 59.5532 44.952 59.847 44.5241 60.0142H41.5875C41.1576 59.8499 40.7889 59.5568 40.5316 59.175C40.2743 58.7933 40.1409 58.3413 40.1496 57.8809C40.1225 57.4719 40.0556 57.0666 39.9497 56.6706C39.9192 56.5803 39.8711 56.4969 39.8081 56.4254C39.7452 56.3538 39.6687 56.2954 39.583 56.2536C38.9685 56.0055 38.324 55.8365 37.7195 55.5785C37.095 55.3204 36.4705 54.7353 35.8859 54.7944C35.3014 54.8534 34.7758 55.5285 34.2102 55.9055C33.85 56.1824 33.3998 56.3153 32.9471 56.2783C32.4945 56.2413 32.0717 56.0372 31.7611 55.7055C31.3124 55.3291 30.9008 54.9105 30.5321 54.4553C30.37 54.2315 30.1444 54.0616 29.8846 53.9678C29.6248 53.874 29.3428 53.8605 29.0752 53.9292C26.6061 54.1602 24.1162 54.0162 21.69 53.5021C16.4013 52.4335 11.5537 49.8035 7.77228 45.9513C3.99086 42.0991 1.44905 37.2013 0.474627 31.8896C0.285775 30.8375 0.166874 29.7763 0.01899 28.7141C4.81862e-06 27.5919 0 26.4608 0 25.3296ZM11.7578 41.0081C11.8177 40.9581 11.8767 40.9191 11.9267 40.8691C15.7903 37.0018 19.654 33.1385 23.5176 29.2792C23.621 29.1983 23.6905 29.0817 23.7125 28.9522C23.7345 28.8227 23.7074 28.6897 23.6365 28.5791C23.4233 28.1228 23.3059 27.6276 23.2915 27.1241C23.277 26.6206 23.366 26.1195 23.5527 25.6517C23.7394 25.184 24.02 24.7595 24.3771 24.4046C24.7343 24.0497 25.1603 23.7719 25.6289 23.5883C25.7878 23.5283 25.9457 23.4693 26.0656 23.4293V6.3065C21.1903 6.52869 16.5495 8.46489 12.9599 11.7744C13.6833 12.4885 14.3588 13.1436 15.0123 13.8087C15.5378 14.3348 15.6118 14.8409 15.2201 15.2379C14.8284 15.635 14.2978 15.585 13.7532 15.0299C13.0888 14.3648 12.4443 13.6907 11.7908 13.0296C8.91602 15.421 5.7435 23.1512 6.388 26.1577H9.18581C9.92923 26.1577 10.3259 26.4658 10.3259 27.0309C10.3259 27.5959 9.93923 27.914 9.2058 27.924H6.35503C5.95834 31.4416 8.85307 38.4587 11.7578 41.0081ZM27.8782 44.1426C28.7605 44.2816 29.5439 44.4307 30.3373 44.5097C30.6215 44.5088 30.8959 44.6142 31.1068 44.805C31.3176 44.9959 31.4498 45.2586 31.4774 45.5418C31.7408 46.9662 32.3016 48.3189 33.1231 49.5115C33.3027 49.7314 33.395 50.01 33.3823 50.2938C33.3696 50.5776 33.2527 50.8468 33.0541 51.0497C32.5485 51.6848 32.0829 52.36 31.6662 52.925C32.1918 53.4711 32.6774 53.9672 33.183 54.4833C33.8175 54.0172 34.482 53.5502 35.1265 53.0441C35.334 52.8684 35.5941 52.7671 35.8656 52.7563C36.1371 52.7454 36.4045 52.8256 36.6253 52.9841C37.6373 53.5614 38.6991 54.0465 39.7979 54.4333C41.4965 54.9594 41.4536 54.5623 41.7513 56.6457C41.9891 58.3229 42.0091 58.3129 43.7238 58.2529C44.0405 58.2429 44.1604 58.1439 44.1994 57.8258C44.2783 57.1317 44.4372 56.4366 44.5072 55.7425C44.5071 55.4665 44.6113 55.2007 44.7989 54.9983C44.9864 54.796 45.2434 54.672 45.5184 54.6513C46.9762 54.3617 48.3615 53.7836 49.5932 52.9511C49.7848 52.7981 50.0245 52.7181 50.2695 52.7255C50.5145 52.7328 50.749 52.8269 50.9311 52.9911C51.6156 53.5071 52.3091 54.0132 52.9236 54.4693C53.4592 53.9532 53.9548 53.4691 54.4804 52.961C53.9808 52.2859 53.4692 51.5718 52.9436 50.8777C52.7995 50.7153 52.7158 50.508 52.7067 50.291C52.6976 50.074 52.7636 49.8605 52.8936 49.6865C53.7703 48.3871 54.3772 46.9246 54.6782 45.3858C54.7083 45.1522 54.8206 44.937 54.9949 44.7788C55.1693 44.6206 55.3942 44.5298 55.6295 44.5227C56.3629 44.4227 57.0963 44.2947 57.8277 44.1956C58.1055 44.1556 58.2444 44.0766 58.2344 43.7686C58.2144 43.3025 58.2144 42.8254 58.2344 42.3593C58.2444 42.0513 58.1055 41.9593 57.8277 41.9223C57.1533 41.8332 56.4798 41.7142 55.8053 41.6142C54.963 41.4852 54.8061 41.3662 54.6352 40.562C54.3469 39.1435 53.7845 37.795 52.9795 36.5924C52.8069 36.3789 52.7186 36.1095 52.7313 35.8352C52.744 35.5608 52.8569 35.3007 53.0485 35.1042C53.5641 34.449 54.0397 33.765 54.4864 33.1489C53.9508 32.6128 53.4751 32.1267 52.9695 31.6106C52.2851 32.1167 51.5816 32.6328 50.8782 33.1588C50.7086 33.3088 50.492 33.3949 50.2659 33.4022C50.0397 33.4095 49.8181 33.3376 49.6391 33.1988C48.3747 32.3436 46.9523 31.7499 45.4554 31.4526C45.1928 31.4225 44.9504 31.2965 44.7749 31.0986C44.5994 30.9008 44.503 30.645 44.5042 30.3804C44.4152 29.5573 44.2564 28.7331 44.1175 27.88C43.473 27.88 42.8884 27.86 42.3129 27.9C42.2264 27.9295 42.1481 27.979 42.0844 28.0445C42.0206 28.11 41.9733 28.1897 41.9462 28.2771C41.7971 28.9646 41.6881 29.6602 41.6194 30.3604C41.6194 30.6453 41.5123 30.9198 41.3194 31.1294C41.1265 31.3389 40.862 31.4682 40.5782 31.4916C39.1571 31.7616 37.8069 32.3224 36.6123 33.1388C36.4013 33.3141 36.1335 33.4058 35.8594 33.3966C35.5854 33.3874 35.3243 33.2779 35.1255 33.0888C34.471 32.5727 33.7876 32.0967 33.1431 31.6106C32.6075 32.1367 32.1318 32.6108 31.6163 33.1188C32.1418 33.819 32.6474 34.5281 33.173 35.2322C33.3241 35.4008 33.4118 35.6169 33.4209 35.8433C33.43 36.0696 33.36 36.2921 33.223 36.4724C32.3494 37.7724 31.7459 39.2349 31.4484 40.7731C31.4172 40.9984 31.3077 41.2055 31.139 41.3579C30.9702 41.5103 30.7532 41.5982 30.5261 41.6062C29.7727 41.7152 29.0193 41.8142 28.2759 41.9633C28.137 41.9933 27.9291 42.1713 27.9192 42.2903C27.8572 42.8924 27.8782 43.4985 27.8782 44.1426ZM28.9393 27.0259C28.9384 26.6429 28.8242 26.2689 28.6113 25.9508C28.3983 25.6327 28.0961 25.3848 27.7427 25.2383C27.3892 25.0918 27.0004 25.0532 26.6251 25.1274C26.2498 25.2016 25.9049 25.3853 25.6337 25.6554C25.3625 25.9254 25.1772 26.2698 25.1011 26.645C25.025 27.0203 25.0616 27.4097 25.2062 27.7642C25.3507 28.1187 25.5969 28.4225 25.9135 28.6372C26.2302 28.852 26.6033 28.9682 26.9859 28.9712C27.2424 28.9746 27.4971 28.9268 27.7349 28.8303C27.9727 28.7339 28.1889 28.5909 28.3707 28.4097C28.5525 28.2284 28.6963 28.0126 28.7936 27.775C28.8909 27.5374 28.9398 27.2827 28.9374 27.0259H28.9393Z" fill="#47BBC6"/>
<path d="M42.9862 52.0917C40.9417 52.0757 38.9635 51.3632 37.3776 50.0716C35.7917 48.7799 34.6925 46.9862 34.2611 44.9857C33.8298 42.9852 34.092 40.8974 35.0045 39.066C35.917 37.2346 37.4254 35.7689 39.2813 34.9102C41.1372 34.0515 43.23 33.8512 45.2149 34.342C47.1998 34.8329 48.9585 35.9858 50.2013 37.6109C51.4442 39.2359 52.097 41.2361 52.0524 43.2822C52.0078 45.3282 51.2683 47.298 49.9558 48.8672C49.3412 49.6013 48.8756 49.7504 48.389 49.3533C47.9023 48.9562 47.9723 48.4902 48.5888 47.746C49.5581 46.5895 50.1425 45.159 50.2605 43.6541C50.3785 42.1491 50.0241 40.6449 49.2469 39.3512C48.4697 38.0575 47.3084 37.039 45.925 36.4377C44.5417 35.8364 43.0053 35.6824 41.5303 35.9971C40.5681 36.201 39.6574 36.5989 38.8539 37.1666C38.0503 37.7344 37.3708 38.46 36.8566 39.2993C36.3425 40.1385 36.0045 41.0739 35.8634 42.0482C35.7222 43.0225 35.7809 44.0153 36.0357 44.9662C36.2906 45.9171 36.7362 46.806 37.3456 47.5788C37.955 48.3516 38.7152 48.992 39.58 49.461C40.4448 49.93 41.396 50.2178 42.3755 50.3068C43.3551 50.3957 44.3424 50.284 45.2774 49.9784C45.4463 49.9284 45.6041 49.8594 45.783 49.8194C45.891 49.7847 46.0049 49.7722 46.1179 49.7826C46.2308 49.7929 46.3405 49.8259 46.4404 49.8795C46.5404 49.9332 46.6285 50.0064 46.6996 50.0949C46.7707 50.1834 46.8233 50.2852 46.8542 50.3945C46.8978 50.5001 46.918 50.614 46.9134 50.7282C46.9089 50.8424 46.8797 50.9543 46.8278 51.0562C46.776 51.158 46.7028 51.2475 46.6131 51.3183C46.5235 51.3892 46.4196 51.4398 46.3086 51.4666C45.2284 51.7667 44.1273 51.9827 43.0372 52.2408C43.0113 52.1946 42.9941 52.1441 42.9862 52.0917Z" fill="#47BBC6"/>
<path d="M41.8655 43.7857C42.9757 42.7435 43.9639 41.8314 44.9491 40.9082C45.088 40.7792 45.2169 40.6202 45.3658 40.4912C45.4454 40.4051 45.5413 40.3356 45.6479 40.2869C45.7545 40.2382 45.8698 40.2112 45.9869 40.2075C46.1041 40.2038 46.2208 40.2234 46.3303 40.2652C46.4398 40.3071 46.5399 40.3703 46.6248 40.4512C46.7099 40.5328 46.7775 40.631 46.8233 40.7397C46.8692 40.8485 46.8923 40.9654 46.8914 41.0834C46.8905 41.2014 46.8654 41.318 46.8179 41.426C46.7703 41.534 46.7012 41.6311 46.6148 41.7114C45.9903 42.3865 45.3458 43.0316 44.7013 43.6857C44.0868 44.3108 43.4822 44.9459 42.8577 45.571C42.777 45.69 42.669 45.7878 42.5428 45.8565C42.4165 45.9251 42.2757 45.9624 42.1321 45.9654C41.9884 45.9683 41.8462 45.9368 41.7172 45.8734C41.5882 45.81 41.4764 45.7166 41.3909 45.601C40.7664 45.0009 40.1519 44.4098 39.5473 43.8007C39.4468 43.7235 39.3637 43.626 39.3035 43.5145C39.2433 43.4029 39.2072 43.2799 39.1978 43.1535C39.1884 43.0271 39.2058 42.9001 39.2488 42.7808C39.2918 42.6615 39.3595 42.5527 39.4474 42.4615C39.5336 42.3738 39.6375 42.3053 39.7522 42.2608C39.8668 42.2162 39.9896 42.1966 40.1124 42.2031C40.2352 42.2096 40.3553 42.2422 40.4645 42.2986C40.5738 42.3551 40.6699 42.4341 40.7464 42.5305C41.171 42.9626 41.5578 43.4286 41.8655 43.7857Z" fill="#47BBC6"/>
</svg>
