<svg width="60" height="61" viewBox="0 0 60 61" fill="none" xmlns="http://www.w3.org/2000/svg">
<path d="M28.7094 60.0141C28.0018 59.8001 27.3603 59.4352 26.8381 58.9497C26.3158 58.4642 25.9278 57.8721 25.7061 57.2225C25.1398 56.0032 24.4291 54.8441 23.5868 53.7658C22.9024 52.8192 21.9206 52.0836 20.7701 51.6553C19.6197 51.2271 18.3543 51.1263 17.14 51.3661C15.3295 51.6181 13.4971 51.8091 11.6636 51.981C10.0126 52.1287 8.35101 51.8197 6.89482 51.0941C5.68037 50.5108 4.76652 49.5143 4.35119 48.3202C3.93586 47.1262 4.05248 45.8309 4.6758 44.7148C4.74308 44.6043 4.80199 44.4897 4.85213 44.3719C4.20044 43.9079 3.13036 44.0089 2.88064 43.042C2.78015 42.6593 2.76849 42.2616 2.84639 41.8745C2.9243 41.4874 3.09005 41.1194 3.33299 40.7943C3.01317 40.5323 2.70321 40.3003 2.4053 40.0484C2.16716 39.8724 1.97805 39.6475 1.85345 39.392C1.72885 39.1366 1.6723 38.8578 1.68843 38.5785C1.70457 38.2993 1.79292 38.0274 1.94627 37.7853C2.09962 37.5432 2.3136 37.3377 2.57069 37.1857C3.03399 36.8527 3.4469 36.4597 3.97263 36.0068C3.55314 35.8458 3.28809 35.7448 3.03399 35.6338C2.44331 35.4098 1.87463 35.1402 1.33413 34.8279C0.969748 34.5929 0.664124 34.29 0.437448 33.9391C0.210772 33.5883 0.0681981 33.1976 0.0191329 32.7928C-0.0299324 32.3879 0.0156324 31.9782 0.152816 31.5906C0.29 31.2031 0.515687 30.8465 0.814967 30.5444C1.34683 30.0364 1.9226 29.5682 2.53673 29.1446C3.70892 28.2916 4.71309 27.2622 5.50601 26.1009C5.64396 25.9271 5.72005 25.7187 5.72397 25.5041C5.72789 25.2895 5.65945 25.079 5.52792 24.901C5.17414 24.3671 4.81051 23.8332 4.49069 23.2782C4.24294 22.9194 4.1006 22.5083 4.07739 22.0847C4.05417 21.6611 4.15089 21.2391 4.35817 20.8595C5.16329 19.3036 5.62833 17.6194 5.72726 15.901C6.00438 13.8622 6.70905 11.8912 7.80279 10.0957C8.14452 9.53173 8.66368 9.34975 9.17188 9.61173C9.29206 9.66749 9.39785 9.746 9.48217 9.84203C9.56649 9.93806 9.62742 10.0494 9.66089 10.1686C9.69437 10.2878 9.69962 10.4122 9.6763 10.5334C9.65298 10.6546 9.60163 10.7699 9.52566 10.8716C8.31274 12.9211 7.60442 15.1876 7.45013 17.5128C7.35524 18.7845 6.95992 20.0224 6.29133 21.1414C6.12459 21.3915 6.04296 21.6812 6.0568 21.9736C6.07065 22.2661 6.17935 22.5483 6.36909 22.7843C6.69767 23.2582 7.02624 23.7422 7.31868 24.2451C7.56524 24.6483 7.68723 25.1051 7.6716 25.5667C7.65598 26.0282 7.50334 26.4773 7.22997 26.8658C6.28918 28.2928 5.06925 29.5498 3.63091 30.5744C3.18529 30.8788 2.76128 31.2088 2.36148 31.5623C2.20134 31.6883 2.07736 31.8481 2.00034 32.0278C1.92331 32.2075 1.89558 32.4017 1.91955 32.5934C1.94352 32.7851 2.01848 32.9686 2.13788 33.1279C2.25729 33.2871 2.41751 33.4173 2.60463 33.5071C3.06832 33.7446 3.55618 33.9405 4.06134 34.092C5.84992 34.7269 6.25846 36.0468 5.05475 37.4276C4.65717 37.8816 4.20482 38.3045 3.89596 38.6165C4.26068 39.0165 4.68017 39.5164 5.13252 39.9674C5.78968 40.6323 5.78968 41.0252 5.09966 41.6502C4.91164 41.8478 4.7382 42.0565 4.5805 42.2751C4.99999 42.4661 5.35378 42.5981 5.68455 42.7691C5.93554 42.8726 6.15854 43.0252 6.33781 43.2161C6.51708 43.407 6.64823 43.6315 6.72199 43.8738C6.79575 44.116 6.81033 44.3701 6.76468 44.6181C6.71903 44.8661 6.61426 45.1018 6.4578 45.3088C6.22053 45.686 6.07318 46.1047 6.02538 46.5374C5.97759 46.9702 6.03044 47.4073 6.18046 47.8202C6.33048 48.233 6.5743 48.6123 6.89596 48.9332C7.21761 49.2541 7.60987 49.5093 8.04705 49.6823C9.58235 50.2535 11.2676 50.4006 12.8936 50.1052C14.3394 49.9343 15.7753 49.7423 17.221 49.5713C18.7989 49.341 20.4162 49.546 21.8656 50.16C23.3151 50.7741 24.5307 51.7692 25.3567 53.0179C26.2249 54.2695 26.9936 55.5764 27.6568 56.9285C28.2866 58.1284 28.8266 58.4203 30.2285 58.0874C32.8999 57.4624 35.5603 56.8275 38.2317 56.2026C38.3332 56.1742 38.4363 56.1505 38.5405 56.1316C38.668 56.0928 38.8028 56.078 38.9367 56.0882C39.0706 56.0983 39.2009 56.1332 39.3196 56.1907C39.4383 56.2482 39.5429 56.3271 39.6272 56.4227C39.7115 56.5182 39.7737 56.6284 39.81 56.7465C39.8408 56.866 39.844 56.9901 39.8195 57.1108C39.7949 57.2315 39.743 57.3463 39.6672 57.4477C39.5913 57.5491 39.4932 57.635 39.379 57.6998C39.2648 57.7647 39.137 57.8071 39.0038 57.8244C37.9326 58.0964 36.8516 58.3243 35.7804 58.5903C33.8374 59.0543 31.9054 59.5272 29.9624 59.9902C29.5703 60.0142 29.1398 60.0141 28.7094 60.0141Z" fill="#47BBC6"/>
<path d="M16.8414 25.869V25.169C16.8195 22.1254 16.7976 19.0697 16.7866 16.0281C16.7278 15.671 16.7638 15.3062 16.8915 14.9644C17.0192 14.6227 17.2349 14.3139 17.5205 14.0641C17.8061 13.8142 18.1532 13.6306 18.5327 13.5287C18.9122 13.4268 19.3129 13.4095 19.7012 13.4783C20.4744 13.5083 21.2345 13.5493 22.0089 13.6093C22.3537 13.6198 22.6921 13.6972 23.0016 13.8363C23.3111 13.9754 23.5846 14.1731 23.8039 14.4162C24.0233 14.6592 24.1834 14.9422 24.2737 15.2461C24.364 15.5501 24.3824 15.8681 24.3276 16.179C23.9081 19.1417 23.4667 22.0954 22.9804 25.0481C22.9188 25.2917 22.9327 25.5461 23.0205 25.7829C23.1083 26.0197 23.2666 26.2296 23.4777 26.3889C24.1089 26.8794 24.8454 27.244 25.6401 27.4592C26.4348 27.6745 27.27 27.7356 28.092 27.6388C28.2465 26.8229 28.4206 25.986 28.5773 25.149C29.3166 21.2495 30.034 17.3389 30.7853 13.4383C30.8266 13.1411 30.935 12.8549 31.1037 12.5979C31.2725 12.3409 31.4978 12.1187 31.7655 11.9454C32.0332 11.7721 32.3375 11.6514 32.6589 11.591C32.9804 11.5306 33.3121 11.5318 33.633 11.5945C34.6206 11.7594 35.5973 11.9748 36.5585 12.2395C36.8582 12.3194 37.1374 12.4532 37.3797 12.633C37.622 12.8127 37.8225 13.0349 37.9695 13.2863C38.1165 13.5378 38.2071 13.8135 38.2358 14.0973C38.2645 14.3812 38.2308 14.6674 38.1368 14.9392C37.4522 16.9949 36.7239 19.0307 35.9955 21.0665C35.9672 21.187 35.9108 21.3005 35.8302 21.3993C35.7496 21.4981 35.6466 21.58 35.5282 21.6393C35.4099 21.6985 35.279 21.7339 35.1443 21.7429C35.0097 21.7519 34.8746 21.7343 34.748 21.6914C34.621 21.6528 34.5043 21.5901 34.4057 21.5074C34.307 21.4248 34.2285 21.3241 34.1754 21.2119C34.1222 21.0997 34.0956 20.9785 34.0973 20.8563C34.099 20.7341 34.1289 20.6135 34.185 20.5026C34.8422 18.5878 35.5213 16.673 36.1828 14.7582C36.4019 14.1233 36.3153 13.9823 35.587 13.8213C34.9298 13.6703 34.2617 13.5093 33.6002 13.3674C32.9156 13.2264 32.7612 13.3074 32.6396 13.9423C32.0555 17.0159 31.4739 20.0933 30.8948 23.1743C30.4863 25.331 30.0887 27.4738 29.6802 29.6346C29.6364 29.8465 29.6145 30.0475 29.5805 30.2995C29.9453 30.3805 30.2651 30.4505 30.6517 30.5315C31.126 29.2016 31.5794 27.9107 32.0427 26.6109C32.2749 25.966 32.4808 25.311 32.7163 24.6561C32.9518 24.0012 33.4446 23.7392 34.0076 23.9202C34.5377 24.0812 34.7579 24.5651 34.5487 25.18C34.0635 26.5709 33.5629 27.9617 33.0799 29.3626C33.0142 29.5626 32.9583 29.7625 32.8926 29.9875C34.4709 30.7534 36.0612 30.2595 37.6614 30.2095C38.7326 27.5098 39.8137 24.8181 40.8848 22.1264C41.5694 20.4136 42.8498 19.9096 44.6712 20.6446C45.3119 20.9065 45.9625 21.1685 46.6033 21.4305C46.9508 21.541 47.2661 21.7224 47.5253 21.9609C47.7844 22.1995 47.9806 22.4888 48.0988 22.807C48.2169 23.1252 48.2541 23.4638 48.2073 23.797C48.1605 24.1303 48.0311 24.4494 47.8289 24.7301C46.6591 26.7659 45.4664 28.8016 44.2857 30.8294C44.1761 31.0204 44.0754 31.2124 43.8771 31.5753C44.6069 31.5411 45.3335 31.4637 46.0523 31.3434C46.9742 31.136 47.834 30.7437 48.5691 30.195C49.3042 29.6464 49.8962 28.9551 50.3021 28.1715C50.708 27.3879 50.9176 26.5316 50.9157 25.6647C50.9138 24.7979 50.7004 23.9424 50.291 23.1603C49.8529 22.3034 49.8934 22.1124 50.6886 21.5175C51.6431 20.7952 52.3013 19.7989 52.5559 18.6912C52.8105 17.5835 52.6465 16.4298 52.0905 15.4181C51.7967 14.9273 51.3983 14.4952 50.9186 14.1473C50.4389 13.7994 49.8877 13.5427 49.2976 13.3923C48.902 13.3182 48.542 13.1322 48.2686 12.8609C47.9951 12.5896 47.8222 12.2466 47.7741 11.8805C47.6202 11.3748 47.378 10.895 47.0567 10.4597C46.7281 9.89573 46.8026 9.41179 47.2998 9.12982C47.4133 9.06349 47.5411 9.02035 47.6745 9.00335C47.808 8.98635 47.9438 8.99588 48.0728 9.0313C48.2018 9.06673 48.3209 9.12721 48.4219 9.20859C48.5229 9.28997 48.6034 9.39032 48.658 9.50278C49.0227 10.0667 49.2878 10.6916 49.6185 11.2766C49.7281 11.4576 49.8836 11.6895 50.0818 11.7505C55.1935 13.3504 55.844 19.1577 52.6097 22.2494C52.46 22.3628 52.3559 22.5186 52.3139 22.692C52.2718 22.8654 52.2942 23.0467 52.3775 23.2073C52.8359 24.4255 52.9467 25.7303 52.6997 26.9986C52.4526 28.2668 51.8558 29.4567 50.9655 30.4561C50.0752 31.4554 48.9208 32.2313 47.611 32.7105C46.3013 33.1898 44.8794 33.3566 43.4795 33.1952C43.3199 33.1528 43.1485 33.1679 43.0007 33.2372C42.8528 33.3066 42.7396 33.425 42.6844 33.5681C41.5803 35.5029 40.4544 37.4377 39.3284 39.3675C39.2414 39.6012 39.0972 39.8139 38.9068 39.9892C38.7164 40.1646 38.4848 40.2982 38.2296 40.3798C37.9743 40.4613 37.702 40.4889 37.4334 40.4602C37.1648 40.4316 36.9068 40.3475 36.679 40.2144C36.3504 40.0834 36.0054 39.9524 35.6856 39.8144C35.4614 39.7419 35.2564 39.6274 35.0837 39.4781C34.911 39.3288 34.7745 39.1482 34.6829 38.9478C34.5914 38.7474 34.5469 38.5318 34.5522 38.3147C34.5576 38.0977 34.6127 37.8841 34.7141 37.6877C35.3658 35.9949 36.0503 34.311 36.7118 32.6282C36.7776 32.4572 36.8444 32.2753 36.8772 32.1853C35.6965 32.1253 34.5257 32.0743 33.3669 32.0143C33.1516 32.0046 32.941 31.9531 32.7491 31.8633C32.6041 31.7866 32.4341 31.7587 32.2689 31.7844C32.1036 31.8102 31.9534 31.888 31.8445 32.0043C30.8839 32.7302 28.2235 32.1653 27.7919 31.1044C27.6563 30.5626 27.597 30.0071 27.6156 29.4516C25.8076 29.4712 24.04 28.9629 22.5708 28.0007C22.3386 29.5006 22.1327 30.9234 21.9191 32.3442C21.8753 32.6162 21.8413 32.8882 21.7866 33.1502C21.7151 33.49 21.5164 33.7966 21.2244 34.0174C20.9324 34.2381 20.5655 34.3593 20.1864 34.36C19.6075 34.3682 19.0286 34.3412 18.4537 34.279C18.2338 34.2683 18.0184 34.2175 17.8204 34.1296C17.6224 34.0417 17.4456 33.9185 17.3005 33.7673C17.1555 33.616 17.0451 33.4398 16.9758 33.249C16.9066 33.0582 16.8798 32.8566 16.8973 32.6562C16.8754 31.0564 16.8754 29.4516 16.8644 27.8488C16.8549 27.7973 16.8402 27.7468 16.8206 27.6978C16.6662 27.6578 16.492 27.6068 16.3014 27.5668C15.2491 27.3748 14.263 26.9542 13.4264 26.3407C12.5899 25.7271 11.9275 24.9386 11.4954 24.0419C11.0632 23.1452 10.874 22.1667 10.9438 21.1891C11.0136 20.2116 11.3403 19.2637 11.8963 18.4258C11.9936 18.2925 12.0579 18.1413 12.0845 17.9829C12.1112 17.8246 12.0997 17.6628 12.0507 17.5089C11.7956 16.6283 11.7358 15.7101 11.8746 14.8081C12.0134 13.9061 12.3481 13.0385 12.8592 12.2562C13.3702 11.4739 14.0472 10.7926 14.8504 10.2523C15.6537 9.71199 16.567 9.32357 17.5369 9.10982C17.6988 9.08325 17.8509 9.02062 17.9799 8.92748C18.1089 8.83433 18.2107 8.71356 18.2762 8.57588C18.9975 7.20484 20.2674 6.13856 21.8241 5.59668C23.3809 5.05481 25.106 5.07862 26.6441 5.66321C26.7657 5.73185 26.9078 5.76395 27.0505 5.75498C27.1931 5.74601 27.3291 5.69643 27.4393 5.61321C28.3148 4.98212 29.3216 4.51989 30.3986 4.25452C31.4756 3.98915 32.6004 3.92618 33.7049 4.0694C34.8094 4.21263 35.8705 4.55908 36.824 5.08775C37.7774 5.61643 38.6034 6.31633 39.2518 7.14504C39.3175 7.22603 39.3843 7.29602 39.4708 7.38701C40.8953 6.73052 42.5166 6.51971 44.0852 6.78707C44.8245 6.91806 45.1674 7.30103 45.0458 7.85496C44.9363 8.36891 44.4499 8.62088 43.7544 8.50989C42.4157 8.27557 41.0296 8.52663 39.8903 9.20981C39.0623 9.69376 38.61 9.58278 38.1237 8.80986C37.658 8.01937 36.9978 7.33833 36.1949 6.82035C35.392 6.30237 34.4683 5.96158 33.4967 5.82482C32.525 5.68806 31.5318 5.75907 30.5953 6.03223C29.6588 6.30539 28.8045 6.77325 28.0997 7.39901C27.4929 7.92295 27.2388 7.94295 26.5105 7.56999C25.9164 7.2449 25.2497 7.04607 24.56 6.98825C23.8703 6.93044 23.1751 7.01512 22.5261 7.23601C21.8771 7.45691 21.2909 7.80837 20.811 8.2643C20.331 8.72023 19.9697 9.26894 19.7537 9.86974C19.6877 10.0942 19.5468 10.2943 19.3505 10.4423C19.1543 10.5903 18.9124 10.6789 18.6585 10.6956C17.8102 10.7822 16.995 11.0456 16.276 11.4655C15.5569 11.8855 14.9532 12.4506 14.5115 13.1174C14.0698 13.7842 13.8018 14.5347 13.7284 15.3111C13.6549 16.0874 13.7779 16.8688 14.0879 17.5949C14.1869 17.8208 14.2136 18.0677 14.1647 18.3069C14.1158 18.5461 13.9935 18.7676 13.8119 18.9457C13.3516 19.4939 13.0413 20.1345 12.9069 20.8142C12.7725 21.494 12.8179 22.1932 13.0392 22.8537C13.2606 23.5142 13.6515 24.1168 14.1795 24.6116C14.7075 25.1063 15.3572 25.4788 16.0747 25.698C16.3261 25.7697 16.5821 25.8268 16.8414 25.869ZM19.9323 32.5682C20.274 30.3005 20.5894 28.0837 20.9257 25.869C21.4112 22.624 21.9008 19.3787 22.3944 16.133C22.4722 15.6491 22.3057 15.3871 21.7373 15.3671C21.0527 15.3371 20.3682 15.2761 19.6946 15.2561C18.7899 15.2161 18.7088 15.2861 18.7231 16.1431C18.7559 21.4338 18.7855 26.7215 18.8118 32.0063C18.8118 32.1873 18.8337 32.3793 18.8556 32.5912C19.2379 32.5712 19.5467 32.5712 19.9334 32.5712L19.9323 32.5682ZM37.5344 38.6246C37.6161 38.5301 37.6893 38.4298 37.7534 38.3246C38.5705 36.9337 39.3766 35.5329 40.1817 34.1421C42.1466 30.7658 44.1079 27.3895 46.0655 24.0132C46.4193 23.4132 46.3524 23.2672 45.6788 22.9853C45.072 22.7333 44.4642 22.4913 43.8574 22.2494C43.0907 21.9494 42.9746 21.9974 42.6876 22.7133C41.1864 26.4822 39.6851 30.2548 38.1839 34.0311C37.6362 35.4219 37.0798 36.8028 36.5169 38.2236C36.8893 38.3766 37.1992 38.4966 37.5344 38.6246Z" fill="#47BBC6"/>
<path d="M31.8067 0.0398315C38.0702 0.1977 44.1835 1.82547 49.5578 4.76631C52.1749 6.14 54.4293 8.02198 56.1615 10.2791C57.8936 12.5362 59.0613 15.1132 59.5817 17.8279C60.0712 20.7657 60.0974 23.7523 59.6595 26.6969C59.413 29.5582 58.2924 32.299 56.4252 34.608C55.0811 36.3449 53.5216 37.9343 51.7779 39.3445C49.6027 40.9573 49.4592 42.8921 49.9675 45.0189C50.4537 46.994 51.0507 48.945 51.756 50.8642C52.5512 53.112 51.5797 54.8758 49.0737 55.4797C47.2519 55.913 45.4305 56.3396 43.6094 56.7596C42.9248 56.9205 42.4287 56.6786 42.2951 56.1646C42.1625 55.6307 42.4495 55.2377 43.145 55.0647C44.9445 54.6318 46.744 54.2178 48.5436 53.7849C50.0003 53.4319 50.4198 52.727 49.9236 51.4372C48.9585 49.1815 48.2844 46.8309 47.9149 44.4329C47.8176 43.6197 47.8029 42.7999 47.8711 41.9842C47.9746 40.7845 48.584 39.6682 49.571 38.8705C51.0058 37.6407 52.3858 36.3608 53.6892 35.021C56.0023 32.6825 57.424 29.7233 57.7417 26.5859C58.167 23.6797 58.1224 20.7322 57.6092 17.8379C57.1412 15.6251 56.1955 13.5196 54.8271 11.644C53.4587 9.76831 51.695 8.1601 49.6389 6.91307C45.8398 4.56205 41.5204 3.00334 36.9874 2.34758C33.3072 1.69491 29.5382 1.56908 25.8156 1.97462C20.7267 2.41033 15.9434 4.38609 12.2255 7.588C11.6953 8.06195 11.1214 8.08195 10.7129 7.66899C10.3262 7.27604 10.3843 6.79209 10.8892 6.32814C13.9937 3.58532 17.8671 1.67783 22.0829 0.815747C25.2703 0.153726 28.5419 -0.107331 31.8067 0.0398315Z" fill="#47BBC6"/>
<path d="M29.7344 45.3398C29.7407 44.3928 30.1556 43.4861 30.8892 42.8164C31.6227 42.1467 32.6159 41.768 33.6533 41.7622C34.4221 41.7662 35.1725 41.9776 35.81 42.3701C36.4475 42.7625 36.9436 43.3183 37.2358 43.9676C37.5281 44.6168 37.6034 45.3305 37.4523 46.0187C37.3013 46.7069 36.9306 47.339 36.3869 47.8353C35.8432 48.3317 35.1509 48.6701 34.397 48.808C33.6431 48.9459 32.8613 48.8772 32.1501 48.6104C31.439 48.3436 30.8301 47.8907 30.4003 47.3087C29.9704 46.7267 29.7387 46.0417 29.7344 45.3398ZM33.5678 47.1036C33.9582 47.1148 34.3434 47.0192 34.674 46.8292C35.0045 46.6391 35.2653 46.3633 35.4229 46.037C35.5806 45.7107 35.6279 45.349 35.5588 44.998C35.4896 44.647 35.3073 44.3229 35.0351 44.0672C34.7628 43.8115 34.4131 43.6358 34.0308 43.5628C33.6484 43.4897 33.2509 43.5227 32.8892 43.6573C32.5275 43.7919 32.218 44.022 32.0006 44.3182C31.7831 44.6144 31.6675 44.9632 31.6686 45.3198C31.6728 45.7831 31.8726 46.2272 32.2263 46.5595C32.5801 46.8917 33.0606 47.0866 33.5678 47.1036Z" fill="#47BBC6"/>
<path d="M31.9337 37.7717C31.9314 38.4743 31.6998 39.1604 31.2687 39.7425C30.8375 40.3245 30.2262 40.7762 29.5128 41.0398C28.7993 41.3035 28.016 41.3673 27.2628 41.2229C26.5095 41.0786 25.8204 40.7328 25.2832 40.2295C24.7461 39.7262 24.3853 39.0884 24.2468 38.3972C24.1083 37.706 24.1985 36.9928 24.5058 36.3486C24.813 35.7043 25.3234 35.1582 25.972 34.7798C26.6206 34.4015 27.3779 34.208 28.1474 34.2241C29.1642 34.2378 30.1337 34.6188 30.8434 35.2838C31.553 35.9487 31.9452 36.8433 31.9337 37.7717ZM28.0806 35.9779C27.8238 35.9775 27.5696 36.0233 27.3323 36.1128C27.0951 36.2023 26.8795 36.3337 26.6979 36.4995C26.5164 36.6652 26.3725 36.862 26.2744 37.0786C26.1764 37.2952 26.1262 37.5273 26.1266 37.7617C26.1228 37.9911 26.1689 38.219 26.2621 38.4322C26.3553 38.6453 26.4939 38.8394 26.6697 39.0034C26.8456 39.1674 27.0553 39.298 27.2867 39.3876C27.5182 39.4772 27.7668 39.5241 28.0181 39.5255C28.2748 39.5311 28.5302 39.4903 28.7696 39.4057C29.0091 39.321 29.2278 39.194 29.4134 39.032C29.599 38.8701 29.7477 38.6762 29.8511 38.4617C29.9545 38.2471 30.0105 38.016 30.0159 37.7817C30.0152 37.31 29.8124 36.8573 29.451 36.5203C29.0896 36.1832 28.5982 35.9886 28.0817 35.9779H28.0806Z" fill="#47BBC6"/>
<path d="M18.7525 36.5728C19.7803 36.578 20.7642 36.9538 21.49 37.6182C22.2158 38.2827 22.6247 39.182 22.6275 40.1204C22.6099 41.057 22.193 41.9505 21.4654 42.6111C20.7377 43.2716 19.7566 43.6472 18.7305 43.658C17.7027 43.6527 16.7187 43.2769 15.993 42.6125C15.2672 41.948 14.8583 41.0487 14.8555 40.1104C14.8731 39.1737 15.29 38.2802 16.0176 37.6196C16.7453 36.9591 17.7264 36.5835 18.7525 36.5728ZM18.7086 41.8942C18.9652 41.8981 19.2202 41.8558 19.4589 41.7698C19.6976 41.6838 19.9154 41.5558 20.0999 41.3929C20.2844 41.23 20.432 41.0356 20.5342 40.8207C20.6363 40.6058 20.6911 40.3746 20.6955 40.1404C20.6998 39.9061 20.6535 39.6734 20.5593 39.4554C20.4651 39.2375 20.3248 39.0387 20.1464 38.8702C19.968 38.7018 19.755 38.5671 19.5196 38.4738C19.2842 38.3805 19.031 38.3305 18.7744 38.3266C18.2591 38.3311 17.7653 38.5152 17.3939 38.8412C17.0226 39.1673 16.8017 39.6106 16.7766 40.0804C16.7753 40.5531 16.9767 41.0075 17.3378 41.3463C17.6989 41.6851 18.191 41.8814 18.7086 41.8931V41.8942Z" fill="#47BBC6"/>
</svg>
