<svg width="60" height="61" viewBox="0 0 60 61" fill="none" xmlns="http://www.w3.org/2000/svg">
<g clip-path="url(#clip0_1312_2072)">
<path d="M57.0986 31.9224H56.0578C56.1141 31.4776 56.1432 31.0245 56.1432 30.5663C56.1432 24.8946 51.5381 20.2801 45.8775 20.2801C45.6982 20.2801 45.5157 20.2853 45.3311 20.2953C43.4284 17.4986 40.2236 15.7844 36.8266 15.7844C35.8426 15.7844 34.8818 15.9232 33.9543 16.1918V9.89601C33.9543 9.36714 33.5259 8.93836 32.9973 8.93836C28.5699 8.93836 24.6758 11.2656 22.4708 14.7614V0.957648C22.4708 0.428773 22.0424 0 21.5138 0H17.686C17.1574 0 16.729 0.428773 16.729 0.957648V16.938C16.729 17.4668 17.1574 17.8956 17.686 17.8956C18.2146 17.8956 18.6429 17.4668 18.6429 16.938V1.9153H20.5568V20.3114C19.3977 19.9737 18.1728 19.7918 16.9063 19.7918C16.1946 19.7918 15.4962 19.8499 14.8149 19.9599V0.957648C14.8149 0.428773 14.3866 0 13.858 0H10.0304C9.50178 0 9.07344 0.428773 9.07344 0.957648V18.4802C9.07344 19.009 9.50178 19.4378 10.0304 19.4378C10.559 19.4378 10.9873 19.009 10.9873 18.4802V1.9153H12.9012V20.4205C7.9339 22.0235 4.25503 26.5236 3.863 31.9224H2.87081C1.28794 31.9224 0 33.2112 0 34.7955C0 36.3797 1.28794 37.6685 2.87093 37.6685H3.84906C4.35295 50.0756 14.5945 60.0142 27.1139 60.0142H32.8556C45.3749 60.0142 55.6166 50.0756 56.1205 37.6685H57.0986C58.6816 37.6685 59.9696 36.3797 59.9696 34.7955C59.9696 33.2112 58.6816 31.9224 57.0986 31.9224ZM33.9543 18.2049C34.8711 17.8715 35.8343 17.7 36.8266 17.7C39.7556 17.7 42.5095 19.2664 44.0134 21.7882C44.2058 22.1105 44.5676 22.2902 44.9411 22.2492C45.2609 22.2136 45.576 22.1955 45.8776 22.1955C50.4828 22.1955 54.2293 25.9506 54.2293 30.5663C54.2293 31.0275 54.1942 31.4811 54.1256 31.9224H45.4828L48.7028 28.7C49.0765 28.326 49.0765 27.7196 48.7028 27.3457C48.3289 26.9717 47.7231 26.9717 47.3494 27.3457L42.776 31.9224H37.7836V22.714C37.7836 22.1851 37.3553 21.7563 36.8267 21.7563C36.2981 21.7563 35.8698 22.1851 35.8698 22.714V31.9224H33.9543V18.2049ZM32.0404 10.8968V12.8236C28.5133 13.2157 25.5474 15.7487 24.6518 19.254C24.521 19.7665 24.83 20.2881 25.3419 20.419C25.4215 20.4394 25.5012 20.4491 25.5795 20.4491C26.0063 20.4491 26.3954 20.1611 26.5061 19.7284C27.1844 17.0726 29.3908 15.1346 32.0403 14.7539V31.9224H29.9495C29.6 27.1091 26.638 23.01 22.4794 21.0415C22.6528 15.7132 26.7962 11.3716 32.0404 10.8968ZM16.9063 21.7073C22.7401 21.7073 27.5423 26.2085 28.0293 31.9225H26.1074C25.627 27.2661 21.6839 23.6226 16.9061 23.6226C15.192 23.6226 13.5169 24.0965 12.062 24.9931C11.612 25.2704 11.4718 25.8604 11.7489 26.3107C12.026 26.7611 12.6156 26.9011 13.0655 26.624C14.2186 25.9136 15.5466 25.5379 16.9061 25.5379C20.6272 25.5379 23.7078 28.3252 24.1784 31.9224H22.2426C21.7891 29.3855 19.5696 27.4532 16.906 27.4532C14.2425 27.4532 12.023 29.3854 11.5696 31.9224H9.63273C9.76742 30.8939 10.1178 29.9044 10.6667 29.0182C10.9453 28.5686 10.8069 27.9782 10.3578 27.6996C9.9088 27.4209 9.31859 27.5592 9.04018 28.0088C8.30297 29.1987 7.84875 30.536 7.70515 31.9223H5.7832C6.27022 26.2085 11.0726 21.7073 16.9063 21.7073ZM20.2814 31.9224H13.5311C13.9489 30.4504 15.3032 29.3686 16.9063 29.3686C18.5093 29.3686 19.8637 30.4504 20.2814 31.9224ZM57.0986 35.7531H12.4405C11.9119 35.7531 11.4836 36.1819 11.4836 36.7108C11.4836 37.2396 11.9119 37.6684 12.4405 37.6684H54.2053C53.7029 49.0191 44.3194 58.0988 32.8557 58.0988H27.114C15.6502 58.0988 6.26682 49.0191 5.76434 37.6684H8.61278C9.14138 37.6684 9.56971 37.2396 9.56971 36.7108C9.56971 36.1819 9.14138 35.7531 8.61278 35.7531H2.87093C2.34315 35.7531 1.91399 35.3235 1.91399 34.7955C1.91399 34.2673 2.34326 33.8378 2.87093 33.8378H54.9035C54.9123 33.8378 57.0986 33.8378 57.0986 33.8378C57.6264 33.8378 58.0556 34.2674 58.0556 34.7955C58.0557 35.3236 57.6264 35.7531 57.0986 35.7531Z" fill="#47BBC6"/>
</g>
<defs>
<clipPath id="clip0_1312_2072">
<rect width="59.9696" height="60.0142" fill="white"/>
</clipPath>
</defs>
</svg>
