<svg width="31" height="30" viewBox="0 0 32 30" fill="none" xmlns="http://www.w3.org/2000/svg">
<path d="M26.1115 21.9771H24.1809V20.7261H25.9445V16.7656H6.34861V20.7265H7.99555V21.9774H6.18195C6.03926 21.9773 5.898 21.949 5.76624 21.8942C5.63449 21.8394 5.51483 21.7592 5.41412 21.6581C5.31341 21.557 5.23362 21.4371 5.17932 21.3051C5.12502 21.1732 5.09727 21.0318 5.09766 20.8891V16.6029C5.09757 16.315 5.2116 16.0388 5.41478 15.8348C5.61796 15.6308 5.89371 15.5157 6.18162 15.5146H26.1115C26.2542 15.5148 26.3954 15.5431 26.5271 15.5979C26.6588 15.6527 26.7785 15.733 26.8791 15.8341C26.9798 15.9351 27.0596 16.0551 27.1139 16.187C27.1681 16.3189 27.1959 16.4603 27.1955 16.6029V20.8931C27.1946 21.1803 27.0801 21.4555 26.877 21.6586C26.6739 21.8617 26.3987 21.9762 26.1115 21.9771Z" fill="#47BBC6"/>
<path d="M7.18359 8.96435V0.846331C7.18711 0.619443 7.28018 0.403147 7.44253 0.24461C7.60488 0.0860723 7.82332 -0.00184549 8.05023 2.93824e-05H24.2399C24.4605 -0.00142535 24.6735 0.0804814 24.8363 0.229354C24.9231 0.307892 24.9924 0.403772 25.0398 0.510795C25.0873 0.617819 25.1117 0.733604 25.1116 0.850664V8.96835H23.8606V1.25498H8.43455V8.96835L7.18359 8.96435Z" fill="#47BBC6"/>
<path d="M27.9869 25.0292H24.4097V23.7782H27.9869C28.67 23.7961 29.3323 23.5423 29.8286 23.0726C30.3249 22.6028 30.6147 21.9554 30.6344 21.2723V11.8997C30.614 11.2168 30.324 10.5699 29.8279 10.1003C29.3317 9.63067 28.6698 9.37665 27.9869 9.39379H4.3061C3.62297 9.37594 2.96064 9.62972 2.46433 10.0995C1.96802 10.5692 1.67825 11.2166 1.65854 11.8997V21.2727C1.67894 21.9555 1.96893 22.6025 2.46508 23.0721C2.96124 23.5417 3.62317 23.7957 4.3061 23.7786H7.82363V25.0295H4.3061C3.29113 25.0474 2.31053 24.6619 1.57942 23.9577C0.848305 23.2534 0.426395 22.2879 0.40625 21.273V11.8997C0.426395 10.8848 0.848305 9.91927 1.57942 9.21503C2.31053 8.51079 3.29113 8.12532 4.3061 8.14317H27.9882C29.0032 8.12532 29.9838 8.51079 30.7149 9.21503C31.446 9.91927 31.8679 10.8848 31.888 11.8997V21.2727C31.8679 22.2878 31.4458 23.2535 30.7144 23.9578C29.983 24.6621 29.0021 25.0474 27.9869 25.0292Z" fill="#47BBC6"/>
<path d="M22.1952 23.8704H10.25C10.1098 23.8678 9.96986 23.8817 9.83301 23.9121C9.72956 23.9389 9.63687 23.9968 9.56751 24.0781C9.49815 24.1594 9.4555 24.26 9.44535 24.3664C9.42876 24.4633 9.43857 24.5628 9.47377 24.6545C9.50896 24.7463 9.56824 24.8268 9.64535 24.8877L9.64968 24.8921C9.7778 24.9821 9.93072 25.0302 10.0873 25.0297C10.125 25.029 10.1626 25.0262 10.2 25.0214H16.1204C18.1344 25.0214 20.1689 25.0214 22.1702 25.0171C22.2665 25.0223 22.3629 25.0084 22.4538 24.9762C22.5447 24.9439 22.6283 24.8941 22.6999 24.8294C22.7504 24.7788 22.7898 24.7181 22.8157 24.6514C22.8415 24.5846 22.8531 24.5132 22.8498 24.4417C22.8498 24.1204 22.5912 23.8954 22.1952 23.8704Z" fill="#47BBC6"/>
<path d="M10.4706 22.9064C10.5758 22.919 10.6818 22.9232 10.7876 22.9191H21.4905C21.5238 22.9191 21.5532 22.9234 21.5865 22.9234C21.6589 22.9236 21.7313 22.9195 21.8032 22.9111C21.9343 22.8993 22.0565 22.8396 22.1465 22.7434C22.2365 22.6473 22.288 22.5214 22.2912 22.3898C22.3095 22.2537 22.2736 22.1159 22.1912 22.0061C22.1082 21.8953 21.9857 21.8207 21.8492 21.7978C21.7354 21.7741 21.6194 21.7629 21.5032 21.7645H10.7999C10.6724 21.7603 10.5448 21.7729 10.4206 21.8021C10.2904 21.827 10.1743 21.9001 10.0955 22.0067C10.0167 22.1133 9.98094 22.2456 9.99529 22.3774C9.99694 22.5082 10.0461 22.634 10.1335 22.7313C10.2209 22.8286 10.3407 22.8908 10.4706 22.9064Z" fill="#47BBC6"/>
<path d="M25.6627 29.9997H6.62109L6.69609 29.341C6.71709 29.1494 6.82108 28.3027 6.95041 27.2314C7.25907 24.6589 7.72605 20.773 7.78005 20.256C7.78214 20.1383 7.80886 20.0224 7.85848 19.9156C7.9081 19.8088 7.97953 19.7136 8.06817 19.6361C8.1568 19.5586 8.26069 19.5006 8.37313 19.4657C8.48557 19.4308 8.60407 19.4198 8.72101 19.4334C13.6452 19.4418 18.636 19.4418 23.5558 19.4334C23.6725 19.4205 23.7907 19.432 23.9028 19.4671C24.0149 19.5022 24.1186 19.5601 24.2071 19.6373C24.2957 19.7145 24.3673 19.8092 24.4173 19.9155C24.4674 20.0218 24.4949 20.1373 24.4981 20.2547C24.5397 20.659 24.8484 23.1943 25.1151 25.4289C25.34 27.2955 25.5527 29.062 25.5817 29.344L25.6627 29.9997ZM7.95104 28.8197H24.3411C24.2534 28.0864 24.1034 26.8531 23.9491 25.5718C23.6988 23.5079 23.4444 21.3773 23.3571 20.6187C18.5706 20.627 13.7175 20.627 8.931 20.6187C8.81434 21.636 8.40569 25.0425 8.12203 27.3731C8.05437 27.9391 7.9927 28.4434 7.95104 28.8187V28.8197Z" fill="#47BBC6"/>
</svg>
